Archivo MIDI: midifiles/4.- Ozuna - SE PREPARO.mid
Ticks per beat: 480
Tiempo total de la canción: 124747 ticks
Número de pistas: 11
Eventos:
Time=1560 Track=3 note_on channel=2 note=82 velocity=88 time=1560
Time=1620 Track=3 note_off channel=2 note=82 velocity=0 time=60
Time=1680 Track=3 note_on channel=2 note=85 velocity=95 time=60
Time=1740 Track=3 note_off channel=2 note=85 velocity=0 time=60
Time=1800 Track=3 note_on channel=2 note=84 velocity=73 time=60
Time=1860 Track=3 note_off channel=2 note=84 velocity=0 time=60
Time=1920 Track=2 note_on channel=1 note=34 velocity=100 time=1920
Time=1920 Track=3 note_on channel=2 note=85 velocity=80 time=60
Time=1920 Track=5 note_on channel=4 note=58 velocity=100 time=1920
Time=1920 Track=5 note_on channel=4 note=61 velocity=100 time=0
Time=1980 Track=3 note_off channel=2 note=85 velocity=0 time=60
Time=2040 Track=2 note_off channel=1 note=34 velocity=64 time=120
Time=2040 Track=5 note_off channel=4 note=58 velocity=0 time=20
Time=2040 Track=5 note_off channel=4 note=61 velocity=0 time=0
Time=2160 Track=3 note_on channel=2 note=85 velocity=96 time=180
Time=2160 Track=4 note_on channel=3 note=70 velocity=83 time=2160
Time=2160 Track=4 note_on channel=3 note=73 velocity=95 time=0
Time=2220 Track=3 note_off channel=2 note=85 velocity=0 time=60
Time=2220 Track=4 note_off channel=3 note=70 velocity=0 time=60
Time=2220 Track=4 note_off channel=3 note=73 velocity=0 time=0
Time=2280 Track=5 note_on channel=4 note=58 velocity=100 time=19
Time=2280 Track=5 note_on channel=4 note=61 velocity=100 time=0
Time=2400 Track=4 note_on channel=3 note=70 velocity=91 time=180
Time=2400 Track=4 note_on channel=3 note=73 velocity=91 time=0
Time=2400 Track=5 note_off channel=4 note=58 velocity=0 time=20
Time=2400 Track=5 note_off channel=4 note=61 velocity=0 time=0
Time=2460 Track=4 note_off channel=3 note=70 velocity=0 time=60
Time=2460 Track=4 note_off channel=3 note=73 velocity=0 time=0
Time=2640 Track=3 note_on channel=2 note=85 velocity=83 time=420
Time=2640 Track=4 note_on channel=3 note=65 velocity=100 time=180
Time=2640 Track=5 note_on channel=4 note=61 velocity=100 time=9
Time=2640 Track=5 note_on channel=4 note=65 velocity=100 time=0
Time=2700 Track=3 note_off channel=2 note=85 velocity=0 time=60
Time=2700 Track=4 note_off channel=3 note=65 velocity=0 time=60
Time=2760 Track=5 note_off channel=4 note=65 velocity=0 time=3
Time=2760 Track=5 note_off channel=4 note=61 velocity=0 time=0
Time=2880 Track=2 note_on channel=1 note=32 velocity=100 time=840
Time=2880 Track=3 note_on channel=2 note=87 velocity=82 time=180
Time=2880 Track=5 note_on channel=4 note=56 velocity=100 time=3
Time=2880 Track=5 note_on channel=4 note=60 velocity=100 time=0
Time=2940 Track=3 note_off channel=2 note=87 velocity=0 time=60
Time=3000 Track=2 note_off channel=1 note=32 velocity=64 time=120
Time=3000 Track=5 note_off channel=4 note=56 velocity=0 time=34
Time=3000 Track=5 note_off channel=4 note=60 velocity=0 time=0
Time=3120 Track=3 note_on channel=2 note=84 velocity=94 time=180
Time=3120 Track=4 note_on channel=3 note=68 velocity=80 time=0
Time=3120 Track=4 note_on channel=3 note=72 velocity=86 time=0
Time=3180 Track=3 note_off channel=2 note=84 velocity=0 time=60
Time=3180 Track=4 note_off channel=3 note=68 velocity=0 time=45
Time=3180 Track=4 note_off channel=3 note=72 velocity=0 time=0
Time=3240 Track=5 note_on channel=4 note=56 velocity=100 time=240
Time=3240 Track=5 note_on channel=4 note=60 velocity=100 time=0
Time=3360 Track=4 note_on channel=3 note=68 velocity=91 time=4
Time=3360 Track=4 note_on channel=3 note=72 velocity=94 time=0
Time=3360 Track=5 note_off channel=4 note=56 velocity=0 time=120
Time=3360 Track=5 note_off channel=4 note=60 velocity=0 time=0
Time=3420 Track=4 note_off channel=3 note=68 velocity=0 time=27
Time=3420 Track=4 note_off channel=3 note=72 velocity=0 time=0
Time=3480 Track=3 note_on channel=2 note=84 velocity=103 time=300
Time=3540 Track=3 note_off channel=2 note=84 velocity=0 time=60
Time=3600 Track=3 note_on channel=2 note=84 velocity=95 time=60
Time=3600 Track=4 note_on channel=3 note=63 velocity=82 time=180
Time=3600 Track=5 note_on channel=4 note=56 velocity=100 time=240
Time=3600 Track=5 note_on channel=4 note=60 velocity=100 time=0
Time=3600 Track=5 note_on channel=4 note=63 velocity=100 time=0
Time=3660 Track=3 note_off channel=2 note=84 velocity=0 time=60
Time=3660 Track=4 note_off channel=3 note=63 velocity=0 time=60
Time=3720 Track=5 note_off channel=4 note=56 velocity=0 time=120
Time=3720 Track=5 note_off channel=4 note=60 velocity=0 time=0
Time=3720 Track=5 note_off channel=4 note=63 velocity=0 time=0
Time=3840 Track=2 note_on channel=1 note=27 velocity=100 time=840
Time=3840 Track=3 note_on channel=2 note=85 velocity=100 time=180
Time=3840 Track=5 note_on channel=4 note=51 velocity=100 time=120
Time=3840 Track=5 note_on channel=4 note=54 velocity=100 time=0
Time=3900 Track=3 note_off channel=2 note=85 velocity=0 time=60
Time=3960 Track=2 note_off channel=1 note=27 velocity=64 time=120
Time=3960 Track=5 note_off channel=4 note=51 velocity=0 time=120
Time=3960 Track=5 note_off channel=4 note=54 velocity=0 time=0
Time=4080 Track=3 note_on channel=2 note=82 velocity=108 time=180
Time=4080 Track=4 note_on channel=3 note=66 velocity=85 time=420
Time=4080 Track=4 note_on channel=3 note=70 velocity=89 time=0
Time=4140 Track=3 note_off channel=2 note=82 velocity=0 time=60
Time=4140 Track=4 note_off channel=3 note=66 velocity=0 time=60
Time=4140 Track=4 note_off channel=3 note=70 velocity=0 time=0
Time=4200 Track=5 note_on channel=4 note=51 velocity=100 time=61
Time=4200 Track=5 note_on channel=4 note=54 velocity=100 time=0
Time=4318 Track=5 note_off channel=4 note=51 velocity=0 time=118
Time=4320 Track=4 note_on channel=3 note=66 velocity=100 time=180
Time=4320 Track=4 note_on channel=3 note=70 velocity=96 time=0
Time=4320 Track=5 note_off channel=4 note=54 velocity=0 time=2
Time=4380 Track=4 note_off channel=3 note=66 velocity=0 time=60
Time=4380 Track=4 note_off channel=3 note=70 velocity=0 time=0
Time=4560 Track=3 note_on channel=2 note=82 velocity=104 time=420
Time=4560 Track=4 note_on channel=3 note=63 velocity=83 time=180
Time=4560 Track=5 note_on channel=4 note=51 velocity=100 time=27
Time=4560 Track=5 note_on channel=4 note=54 velocity=100 time=0
Time=4620 Track=3 note_off channel=2 note=82 velocity=0 time=60
Time=4620 Track=4 note_off channel=3 note=63 velocity=0 time=60
Time=4678 Track=5 note_off channel=4 note=51 velocity=0 time=118
Time=4680 Track=5 note_off channel=4 note=54 velocity=0 time=2
Time=4800 Track=3 note_on channel=2 note=89 velocity=79 time=180
Time=4800 Track=5 note_on channel=4 note=54 velocity=100 time=120
Time=4800 Track=5 note_on channel=4 note=58 velocity=100 time=0
Time=4860 Track=3 note_off channel=2 note=89 velocity=0 time=60
Time=4920 Track=5 note_off channel=4 note=54 velocity=0 time=120
Time=4920 Track=5 note_off channel=4 note=58 velocity=0 time=0
Time=5040 Track=3 note_on channel=2 note=87 velocity=99 time=180
Time=5040 Track=4 note_on channel=3 note=66 velocity=100 time=420
Time=5040 Track=4 note_on channel=3 note=70 velocity=95 time=0
Time=5100 Track=3 note_off channel=2 note=87 velocity=0 time=60
Time=5100 Track=4 note_off channel=3 note=66 velocity=0 time=60
Time=5100 Track=4 note_off channel=3 note=70 velocity=0 time=0
Time=5160 Track=3 note_on channel=2 note=89 velocity=89 time=60
Time=5160 Track=5 note_on channel=4 note=54 velocity=100 time=240
Time=5160 Track=5 note_on channel=4 note=58 velocity=100 time=0
Time=5220 Track=3 note_off channel=2 note=89 velocity=0 time=60
Time=5280 Track=3 note_on channel=2 note=87 velocity=96 time=60
Time=5280 Track=4 note_on channel=3 note=66 velocity=108 time=180
Time=5280 Track=4 note_on channel=3 note=70 velocity=100 time=0
Time=5280 Track=5 note_off channel=4 note=58 velocity=0 time=120
Time=5280 Track=5 note_off channel=4 note=54 velocity=0 time=0
Time=5340 Track=3 note_off channel=2 note=87 velocity=0 time=60
Time=5340 Track=4 note_off channel=3 note=66 velocity=0 time=60
Time=5340 Track=4 note_off channel=3 note=70 velocity=0 time=0
Time=5400 Track=3 note_on channel=2 note=85 velocity=69 time=60
Time=5460 Track=3 note_off channel=2 note=85 velocity=0 time=60
Time=5520 Track=3 note_on channel=2 note=85 velocity=96 time=60
Time=5520 Track=4 note_on channel=3 note=63 velocity=88 time=180
Time=5520 Track=5 note_on channel=4 note=54 velocity=100 time=240
Time=5520 Track=5 note_on channel=4 note=58 velocity=100 time=0
Time=5580 Track=3 note_off channel=2 note=85 velocity=0 time=60
Time=5580 Track=4 note_off channel=3 note=63 velocity=0 time=60
Time=5623 Track=5 note_off channel=4 note=58 velocity=0 time=103
Time=5624 Track=5 note_off channel=4 note=54 velocity=0 time=1
Time=5760 Track=2 note_on channel=1 note=34 velocity=100 time=1800
Time=5760 Track=3 note_on channel=2 note=85 velocity=80 time=180
Time=5760 Track=5 note_on channel=4 note=58 velocity=100 time=136
Time=5760 Track=5 note_on channel=4 note=61 velocity=100 time=0
Time=5820 Track=3 note_off channel=2 note=85 velocity=0 time=60
Time=5872 Track=5 note_off channel=4 note=61 velocity=0 time=112
Time=5880 Track=2 note_off channel=1 note=34 velocity=64 time=120
Time=5880 Track=5 note_off channel=4 note=58 velocity=0 time=8
Time=6000 Track=3 note_on channel=2 note=85 velocity=96 time=180
Time=6000 Track=4 note_on channel=3 note=70 velocity=83 time=420
Time=6000 Track=4 note_on channel=3 note=73 velocity=95 time=0
Time=6060 Track=3 note_off channel=2 note=85 velocity=0 time=60
Time=6060 Track=4 note_off channel=3 note=70 velocity=0 time=60
Time=6060 Track=4 note_off channel=3 note=73 velocity=0 time=0
Time=6120 Track=5 note_on channel=4 note=58 velocity=100 time=240
Time=6120 Track=5 note_on channel=4 note=61 velocity=100 time=0
Time=6240 Track=4 note_on channel=3 note=70 velocity=91 time=180
Time=6240 Track=4 note_on channel=3 note=73 velocity=91 time=0
Time=6240 Track=5 note_off channel=4 note=58 velocity=0 time=120
Time=6240 Track=5 note_off channel=4 note=61 velocity=0 time=0
Time=6300 Track=4 note_off channel=3 note=70 velocity=0 time=60
Time=6300 Track=4 note_off channel=3 note=73 velocity=0 time=0
Time=6480 Track=3 note_on channel=2 note=85 velocity=83 time=420
Time=6480 Track=4 note_on channel=3 note=65 velocity=100 time=180
Time=6480 Track=5 note_on channel=4 note=61 velocity=100 time=7
Time=6480 Track=5 note_on channel=4 note=65 velocity=100 time=0
Time=6540 Track=3 note_off channel=2 note=85 velocity=0 time=60
Time=6540 Track=4 note_off channel=3 note=65 velocity=0 time=60
Time=6600 Track=5 note_off channel=4 note=65 velocity=0 time=10
Time=6606 Track=5 note_off channel=4 note=61 velocity=0 time=6
Time=6720 Track=2 note_on channel=1 note=32 velocity=100 time=840
Time=6720 Track=3 note_on channel=2 note=87 velocity=82 time=180
Time=6720 Track=5 note_on channel=4 note=56 velocity=100 time=2
Time=6720 Track=5 note_on channel=4 note=60 velocity=100 time=0
Time=6780 Track=3 note_off channel=2 note=87 velocity=0 time=60
Time=6840 Track=2 note_off channel=1 note=32 velocity=64 time=120
Time=6840 Track=5 note_off channel=4 note=56 velocity=0 time=4
Time=6840 Track=5 note_off channel=4 note=60 velocity=0 time=0
Time=6960 Track=3 note_on channel=2 note=84 velocity=94 time=180
Time=6960 Track=4 note_on channel=3 note=68 velocity=80 time=0
Time=6960 Track=4 note_on channel=3 note=72 velocity=86 time=0
Time=7020 Track=3 note_off channel=2 note=84 velocity=0 time=60
Time=7020 Track=4 note_off channel=3 note=68 velocity=0 time=45
Time=7020 Track=4 note_off channel=3 note=72 velocity=0 time=0
Time=7080 Track=5 note_on channel=4 note=56 velocity=100 time=33
Time=7080 Track=5 note_on channel=4 note=60 velocity=100 time=0
Time=7200 Track=4 note_on channel=3 note=68 velocity=91 time=4
Time=7200 Track=4 note_on channel=3 note=72 velocity=94 time=0
Time=7200 Track=5 note_off channel=4 note=56 velocity=0 time=4
Time=7200 Track=5 note_off channel=4 note=60 velocity=0 time=0
Time=7260 Track=4 note_off channel=3 note=68 velocity=0 time=27
Time=7260 Track=4 note_off channel=3 note=72 velocity=0 time=0
Time=7320 Track=3 note_on channel=2 note=84 velocity=103 time=300
Time=7380 Track=3 note_off channel=2 note=84 velocity=0 time=60
Time=7440 Track=3 note_on channel=2 note=84 velocity=95 time=60
Time=7440 Track=4 note_on channel=3 note=63 velocity=82 time=180
Time=7440 Track=5 note_on channel=4 note=56 velocity=100 time=22
Time=7440 Track=5 note_on channel=4 note=60 velocity=100 time=0
Time=7440 Track=5 note_on channel=4 note=63 velocity=100 time=0
Time=7500 Track=3 note_off channel=2 note=84 velocity=0 time=60
Time=7500 Track=4 note_off channel=3 note=63 velocity=0 time=60
Time=7559 Track=5 note_off channel=4 note=63 velocity=0 time=1
Time=7560 Track=5 note_off channel=4 note=56 velocity=0 time=1
Time=7560 Track=5 note_off channel=4 note=60 velocity=0 time=0
Time=7680 Track=2 note_on channel=1 note=39 velocity=100 time=840
Time=7680 Track=3 note_on channel=2 note=85 velocity=100 time=180
Time=7680 Track=5 note_on channel=4 note=51 velocity=100 time=9
Time=7680 Track=5 note_on channel=4 note=54 velocity=100 time=0
Time=7740 Track=3 note_off channel=2 note=85 velocity=0 time=60
Time=7800 Track=2 note_off channel=1 note=39 velocity=64 time=120
Time=7800 Track=5 note_off channel=4 note=51 velocity=0 time=63
Time=7800 Track=5 note_off channel=4 note=54 velocity=0 time=0
Time=7920 Track=3 note_on channel=2 note=82 velocity=108 time=180
Time=7920 Track=4 note_on channel=3 note=66 velocity=85 time=420
Time=7920 Track=4 note_on channel=3 note=70 velocity=89 time=0
Time=7980 Track=3 note_off channel=2 note=82 velocity=0 time=60
Time=7980 Track=4 note_off channel=3 note=66 velocity=0 time=60
Time=7980 Track=4 note_off channel=3 note=70 velocity=0 time=0
Time=8040 Track=5 note_on channel=4 note=51 velocity=100 time=169
Time=8040 Track=5 note_on channel=4 note=54 velocity=100 time=0
Time=8160 Track=4 note_on channel=3 note=66 velocity=100 time=180
Time=8160 Track=4 note_on channel=3 note=70 velocity=96 time=0
Time=8160 Track=5 note_off channel=4 note=51 velocity=0 time=75
Time=8160 Track=5 note_off channel=4 note=54 velocity=0 time=0
Time=8220 Track=4 note_off channel=3 note=66 velocity=0 time=60
Time=8220 Track=4 note_off channel=3 note=70 velocity=0 time=0
Time=8400 Track=3 note_on channel=2 note=82 velocity=104 time=420
Time=8400 Track=4 note_on channel=3 note=63 velocity=83 time=180
Time=8400 Track=5 note_on channel=4 note=51 velocity=100 time=176
Time=8400 Track=5 note_on channel=4 note=54 velocity=100 time=0
Time=8460 Track=3 note_off channel=2 note=82 velocity=0 time=60
Time=8460 Track=4 note_off channel=3 note=63 velocity=0 time=60
Time=8519 Track=5 note_off channel=4 note=51 velocity=0 time=119
Time=8520 Track=5 note_off channel=4 note=54 velocity=0 time=1
Time=8640 Track=3 note_on channel=2 note=89 velocity=79 time=180
Time=8640 Track=5 note_on channel=4 note=54 velocity=100 time=120
Time=8640 Track=5 note_on channel=4 note=58 velocity=100 time=0
Time=8700 Track=3 note_off channel=2 note=89 velocity=0 time=60
Time=8760 Track=5 note_off channel=4 note=54 velocity=0 time=120
Time=8760 Track=5 note_off channel=4 note=58 velocity=0 time=0
Time=8880 Track=3 note_on channel=2 note=87 velocity=99 time=180
Time=8880 Track=4 note_on channel=3 note=66 velocity=100 time=420
Time=8880 Track=4 note_on channel=3 note=70 velocity=95 time=0
Time=8940 Track=3 note_off channel=2 note=87 velocity=0 time=60
Time=8940 Track=4 note_off channel=3 note=66 velocity=0 time=60
Time=8940 Track=4 note_off channel=3 note=70 velocity=0 time=0
Time=9000 Track=3 note_on channel=2 note=89 velocity=89 time=60
Time=9000 Track=5 note_on channel=4 note=54 velocity=100 time=153
Time=9000 Track=5 note_on channel=4 note=58 velocity=100 time=0
Time=9060 Track=3 note_off channel=2 note=89 velocity=0 time=60
Time=9120 Track=3 note_on channel=2 note=87 velocity=96 time=60
Time=9120 Track=4 note_on channel=3 note=66 velocity=108 time=180
Time=9120 Track=4 note_on channel=3 note=70 velocity=100 time=0
Time=9120 Track=5 note_off channel=4 note=54 velocity=0 time=5
Time=9120 Track=5 note_off channel=4 note=58 velocity=0 time=0
Time=9180 Track=3 note_off channel=2 note=87 velocity=0 time=60
Time=9180 Track=4 note_off channel=3 note=66 velocity=0 time=60
Time=9180 Track=4 note_off channel=3 note=70 velocity=0 time=0
Time=9240 Track=3 note_on channel=2 note=85 velocity=69 time=60
Time=9300 Track=3 note_off channel=2 note=85 velocity=0 time=60
Time=9360 Track=3 note_on channel=2 note=85 velocity=96 time=60
Time=9360 Track=4 note_on channel=3 note=63 velocity=88 time=180
Time=9420 Track=3 note_off channel=2 note=85 velocity=0 time=60
Time=9420 Track=4 note_off channel=3 note=63 velocity=0 time=60
Time=9600 Track=2 note_on channel=1 note=34 velocity=100 time=1800
Time=9840 Track=2 note_off channel=1 note=34 velocity=64 time=240
Time=9840 Track=4 note_on channel=3 note=70 velocity=100 time=420
Time=9840 Track=4 note_on channel=3 note=73 velocity=100 time=0
Time=9840 Track=4 note_on channel=3 note=77 velocity=100 time=0
Time=9840 Track=5 note_on channel=4 note=58 velocity=100 time=271
Time=9840 Track=5 note_on channel=4 note=61 velocity=100 time=0
Time=9840 Track=5 note_on channel=4 note=65 velocity=100 time=0
Time=9960 Track=2 note_on channel=1 note=34 velocity=100 time=120
Time=9960 Track=4 note_off channel=3 note=70 velocity=0 time=120
Time=9960 Track=4 note_off channel=3 note=73 velocity=0 time=0
Time=9960 Track=4 note_off channel=3 note=77 velocity=0 time=0
Time=9960 Track=5 note_off channel=4 note=58 velocity=0 time=120
Time=9960 Track=5 note_off channel=4 note=61 velocity=0 time=0
Time=9960 Track=5 note_off channel=4 note=65 velocity=0 time=0
Time=10080 Track=2 note_off channel=1 note=34 velocity=64 time=120
Time=10080 Track=2 note_on channel=1 note=41 velocity=100 time=0
Time=10080 Track=4 note_on channel=3 note=70 velocity=100 time=120
Time=10080 Track=4 note_on channel=3 note=73 velocity=100 time=0
Time=10080 Track=4 note_on channel=3 note=77 velocity=100 time=0
Time=10200 Track=2 note_off channel=1 note=41 velocity=64 time=120
Time=10200 Track=2 note_on channel=1 note=41 velocity=100 time=0
Time=10200 Track=4 note_off channel=3 note=70 velocity=0 time=120
Time=10200 Track=4 note_off channel=3 note=73 velocity=0 time=0
Time=10200 Track=4 note_off channel=3 note=77 velocity=0 time=0
Time=10320 Track=2 note_off channel=1 note=41 velocity=64 time=120
Time=10320 Track=2 note_on channel=1 note=41 velocity=100 time=0
Time=10320 Track=4 note_on channel=3 note=70 velocity=100 time=120
Time=10320 Track=4 note_on channel=3 note=73 velocity=100 time=0
Time=10320 Track=4 note_on channel=3 note=77 velocity=100 time=0
Time=10320 Track=5 note_on channel=4 note=58 velocity=100 time=360
Time=10320 Track=5 note_on channel=4 note=61 velocity=100 time=0
Time=10320 Track=5 note_on channel=4 note=65 velocity=100 time=0
Time=10440 Track=2 note_off channel=1 note=41 velocity=64 time=120
Time=10440 Track=4 note_off channel=3 note=70 velocity=0 time=120
Time=10440 Track=4 note_off channel=3 note=73 velocity=0 time=0
Time=10440 Track=4 note_off channel=3 note=77 velocity=0 time=0
Time=10440 Track=5 note_off channel=4 note=58 velocity=0 time=120
Time=10440 Track=5 note_off channel=4 note=61 velocity=0 time=0
Time=10440 Track=5 note_off channel=4 note=65 velocity=0 time=0
Time=10560 Track=2 note_on channel=1 note=44 velocity=100 time=120
Time=10680 Track=2 note_off channel=1 note=44 velocity=64 time=120
Time=10800 Track=4 note_on channel=3 note=68 velocity=100 time=360
Time=10800 Track=4 note_on channel=3 note=72 velocity=100 time=0
Time=10800 Track=4 note_on channel=3 note=75 velocity=100 time=0
Time=10800 Track=5 note_on channel=4 note=56 velocity=100 time=360
Time=10800 Track=5 note_on channel=4 note=60 velocity=100 time=0
Time=10800 Track=5 note_on channel=4 note=63 velocity=100 time=0
Time=10920 Track=2 note_on channel=1 note=32 velocity=100 time=240
Time=10920 Track=4 note_off channel=3 note=68 velocity=0 time=120
Time=10920 Track=4 note_off channel=3 note=72 velocity=0 time=0
Time=10920 Track=4 note_off channel=3 note=75 velocity=0 time=0
Time=10920 Track=5 note_off channel=4 note=56 velocity=0 time=120
Time=10920 Track=5 note_off channel=4 note=60 velocity=0 time=0
Time=10920 Track=5 note_off channel=4 note=63 velocity=0 time=0
Time=11040 Track=2 note_off channel=1 note=32 velocity=64 time=120
Time=11040 Track=2 note_on channel=1 note=39 velocity=100 time=0
Time=11040 Track=4 note_on channel=3 note=68 velocity=100 time=120
Time=11040 Track=4 note_on channel=3 note=72 velocity=100 time=0
Time=11040 Track=4 note_on channel=3 note=75 velocity=100 time=0
Time=11160 Track=2 note_off channel=1 note=39 velocity=64 time=120
Time=11160 Track=2 note_on channel=1 note=39 velocity=100 time=0
Time=11160 Track=4 note_off channel=3 note=68 velocity=0 time=120
Time=11160 Track=4 note_off channel=3 note=72 velocity=0 time=0
Time=11160 Track=4 note_off channel=3 note=75 velocity=0 time=0
Time=11280 Track=2 note_off channel=1 note=39 velocity=64 time=120
Time=11280 Track=2 note_on channel=1 note=39 velocity=100 time=0
Time=11280 Track=4 note_on channel=3 note=68 velocity=100 time=120
Time=11280 Track=4 note_on channel=3 note=72 velocity=100 time=0
Time=11280 Track=4 note_on channel=3 note=75 velocity=100 time=0
Time=11280 Track=5 note_on channel=4 note=56 velocity=100 time=360
Time=11280 Track=5 note_on channel=4 note=60 velocity=100 time=0
Time=11280 Track=5 note_on channel=4 note=63 velocity=100 time=0
Time=11400 Track=2 note_off channel=1 note=39 velocity=64 time=120
Time=11400 Track=4 note_off channel=3 note=68 velocity=0 time=120
Time=11400 Track=4 note_off channel=3 note=72 velocity=0 time=0
Time=11400 Track=4 note_off channel=3 note=75 velocity=0 time=0
Time=11400 Track=5 note_off channel=4 note=56 velocity=0 time=120
Time=11400 Track=5 note_off channel=4 note=60 velocity=0 time=0
Time=11400 Track=5 note_off channel=4 note=63 velocity=0 time=0
Time=11520 Track=2 note_on channel=1 note=27 velocity=100 time=120
Time=11640 Track=2 note_off channel=1 note=27 velocity=64 time=120
Time=11760 Track=4 note_on channel=3 note=63 velocity=100 time=360
Time=11760 Track=4 note_on channel=3 note=66 velocity=100 time=0
Time=11760 Track=4 note_on channel=3 note=70 velocity=100 time=0
Time=11760 Track=5 note_on channel=4 note=51 velocity=100 time=360
Time=11760 Track=5 note_on channel=4 note=54 velocity=100 time=0
Time=11760 Track=5 note_on channel=4 note=58 velocity=100 time=0
Time=11880 Track=2 note_on channel=1 note=27 velocity=100 time=240
Time=11880 Track=4 note_off channel=3 note=63 velocity=0 time=120
Time=11880 Track=4 note_off channel=3 note=66 velocity=0 time=0
Time=11880 Track=4 note_off channel=3 note=70 velocity=0 time=0
Time=11880 Track=5 note_off channel=4 note=51 velocity=0 time=120
Time=11880 Track=5 note_off channel=4 note=54 velocity=0 time=0
Time=11880 Track=5 note_off channel=4 note=58 velocity=0 time=0
Time=12000 Track=2 note_off channel=1 note=27 velocity=64 time=120
Time=12000 Track=2 note_on channel=1 note=34 velocity=100 time=0
Time=12000 Track=4 note_on channel=3 note=63 velocity=100 time=120
Time=12000 Track=4 note_on channel=3 note=66 velocity=100 time=0
Time=12000 Track=4 note_on channel=3 note=70 velocity=100 time=0
Time=12120 Track=2 note_off channel=1 note=34 velocity=64 time=120
Time=12120 Track=2 note_on channel=1 note=34 velocity=100 time=0
Time=12120 Track=4 note_off channel=3 note=63 velocity=0 time=120
Time=12120 Track=4 note_off channel=3 note=66 velocity=0 time=0
Time=12120 Track=4 note_off channel=3 note=70 velocity=0 time=0
Time=12240 Track=2 note_off channel=1 note=34 velocity=64 time=120
Time=12240 Track=2 note_on channel=1 note=34 velocity=100 time=0
Time=12240 Track=4 note_on channel=3 note=63 velocity=100 time=120
Time=12240 Track=4 note_on channel=3 note=66 velocity=100 time=0
Time=12240 Track=4 note_on channel=3 note=70 velocity=100 time=0
Time=12240 Track=5 note_on channel=4 note=51 velocity=100 time=360
Time=12240 Track=5 note_on channel=4 note=54 velocity=100 time=0
Time=12240 Track=5 note_on channel=4 note=58 velocity=100 time=0
Time=12360 Track=2 note_off channel=1 note=34 velocity=64 time=120
Time=12360 Track=4 note_off channel=3 note=63 velocity=0 time=120
Time=12360 Track=4 note_off channel=3 note=66 velocity=0 time=0
Time=12360 Track=4 note_off channel=3 note=70 velocity=0 time=0
Time=12360 Track=5 note_off channel=4 note=51 velocity=0 time=120
Time=12360 Track=5 note_off channel=4 note=54 velocity=0 time=0
Time=12360 Track=5 note_off channel=4 note=58 velocity=0 time=0
Time=12480 Track=2 note_on channel=1 note=39 velocity=100 time=120
Time=12600 Track=2 note_off channel=1 note=39 velocity=64 time=120
Time=12720 Track=4 note_on channel=3 note=63 velocity=100 time=360
Time=12720 Track=4 note_on channel=3 note=66 velocity=100 time=0
Time=12720 Track=4 note_on channel=3 note=70 velocity=100 time=0
Time=12720 Track=5 note_on channel=4 note=51 velocity=100 time=360
Time=12720 Track=5 note_on channel=4 note=54 velocity=100 time=0
Time=12720 Track=5 note_on channel=4 note=58 velocity=100 time=0
Time=12840 Track=4 note_off channel=3 note=63 velocity=0 time=120
Time=12840 Track=4 note_off channel=3 note=66 velocity=0 time=0
Time=12840 Track=4 note_off channel=3 note=70 velocity=0 time=0
Time=12840 Track=5 note_off channel=4 note=51 velocity=0 time=120
Time=12840 Track=5 note_off channel=4 note=54 velocity=0 time=0
Time=12840 Track=5 note_off channel=4 note=58 velocity=0 time=0
Time=12960 Track=2 note_on channel=1 note=37 velocity=100 time=360
Time=12960 Track=4 note_on channel=3 note=63 velocity=100 time=120
Time=12960 Track=4 note_on channel=3 note=66 velocity=100 time=0
Time=12960 Track=4 note_on channel=3 note=70 velocity=100 time=0
Time=13080 Track=2 note_off channel=1 note=37 velocity=64 time=120
Time=13080 Track=2 note_on channel=1 note=37 velocity=100 time=0
Time=13080 Track=4 note_off channel=3 note=63 velocity=0 time=120
Time=13080 Track=4 note_off channel=3 note=66 velocity=0 time=0
Time=13080 Track=4 note_off channel=3 note=70 velocity=0 time=0
Time=13200 Track=2 note_off channel=1 note=37 velocity=64 time=120
Time=13200 Track=2 note_on channel=1 note=37 velocity=100 time=0
Time=13200 Track=4 note_on channel=3 note=63 velocity=100 time=120
Time=13200 Track=4 note_on channel=3 note=66 velocity=100 time=0
Time=13200 Track=4 note_on channel=3 note=70 velocity=100 time=0
Time=13200 Track=5 note_on channel=4 note=51 velocity=100 time=360
Time=13200 Track=5 note_on channel=4 note=54 velocity=100 time=0
Time=13200 Track=5 note_on channel=4 note=58 velocity=100 time=0
Time=13320 Track=2 note_off channel=1 note=37 velocity=64 time=120
Time=13320 Track=4 note_off channel=3 note=63 velocity=0 time=120
Time=13320 Track=4 note_off channel=3 note=66 velocity=0 time=0
Time=13320 Track=4 note_off channel=3 note=70 velocity=0 time=0
Time=13320 Track=5 note_off channel=4 note=51 velocity=0 time=120
Time=13320 Track=5 note_off channel=4 note=54 velocity=0 time=0
Time=13320 Track=5 note_off channel=4 note=58 velocity=0 time=0
Time=13440 Track=2 note_on channel=1 note=34 velocity=100 time=120
Time=13680 Track=2 note_off channel=1 note=34 velocity=64 time=240
Time=13680 Track=4 note_on channel=3 note=70 velocity=100 time=360
Time=13680 Track=4 note_on channel=3 note=73 velocity=100 time=0
Time=13680 Track=4 note_on channel=3 note=77 velocity=100 time=0
Time=13680 Track=5 note_on channel=4 note=58 velocity=100 time=360
Time=13680 Track=5 note_on channel=4 note=61 velocity=100 time=0
Time=13680 Track=5 note_on channel=4 note=65 velocity=100 time=0
Time=13800 Track=2 note_on channel=1 note=34 velocity=100 time=120
Time=13800 Track=4 note_off channel=3 note=70 velocity=0 time=120
Time=13800 Track=4 note_off channel=3 note=73 velocity=0 time=0
Time=13800 Track=4 note_off channel=3 note=77 velocity=0 time=0
Time=13800 Track=5 note_off channel=4 note=58 velocity=0 time=120
Time=13800 Track=5 note_off channel=4 note=61 velocity=0 time=0
Time=13800 Track=5 note_off channel=4 note=65 velocity=0 time=0
Time=13920 Track=2 note_off channel=1 note=34 velocity=64 time=120
Time=13920 Track=2 note_on channel=1 note=41 velocity=100 time=0
Time=13920 Track=4 note_on channel=3 note=70 velocity=100 time=120
Time=13920 Track=4 note_on channel=3 note=73 velocity=100 time=0
Time=13920 Track=4 note_on channel=3 note=77 velocity=100 time=0
Time=14040 Track=2 note_off channel=1 note=41 velocity=64 time=120
Time=14040 Track=2 note_on channel=1 note=41 velocity=100 time=0
Time=14040 Track=4 note_off channel=3 note=70 velocity=0 time=120
Time=14040 Track=4 note_off channel=3 note=73 velocity=0 time=0
Time=14040 Track=4 note_off channel=3 note=77 velocity=0 time=0
Time=14160 Track=2 note_off channel=1 note=41 velocity=64 time=120
Time=14160 Track=2 note_on channel=1 note=41 velocity=100 time=0
Time=14160 Track=4 note_on channel=3 note=70 velocity=100 time=120
Time=14160 Track=4 note_on channel=3 note=73 velocity=100 time=0
Time=14160 Track=4 note_on channel=3 note=77 velocity=100 time=0
Time=14160 Track=5 note_on channel=4 note=58 velocity=100 time=360
Time=14160 Track=5 note_on channel=4 note=61 velocity=100 time=0
Time=14160 Track=5 note_on channel=4 note=65 velocity=100 time=0
Time=14280 Track=2 note_off channel=1 note=41 velocity=64 time=120
Time=14280 Track=4 note_off channel=3 note=70 velocity=0 time=120
Time=14280 Track=4 note_off channel=3 note=73 velocity=0 time=0
Time=14280 Track=4 note_off channel=3 note=77 velocity=0 time=0
Time=14280 Track=5 note_off channel=4 note=58 velocity=0 time=120
Time=14280 Track=5 note_off channel=4 note=61 velocity=0 time=0
Time=14280 Track=5 note_off channel=4 note=65 velocity=0 time=0
Time=14400 Track=2 note_on channel=1 note=44 velocity=100 time=120
Time=14520 Track=2 note_off channel=1 note=44 velocity=64 time=120
Time=14640 Track=4 note_on channel=3 note=68 velocity=100 time=360
Time=14640 Track=4 note_on channel=3 note=72 velocity=100 time=0
Time=14640 Track=4 note_on channel=3 note=75 velocity=100 time=0
Time=14640 Track=5 note_on channel=4 note=56 velocity=100 time=360
Time=14640 Track=5 note_on channel=4 note=60 velocity=100 time=0
Time=14640 Track=5 note_on channel=4 note=63 velocity=100 time=0
Time=14760 Track=2 note_on channel=1 note=32 velocity=100 time=240
Time=14760 Track=4 note_off channel=3 note=68 velocity=0 time=120
Time=14760 Track=4 note_off channel=3 note=72 velocity=0 time=0
Time=14760 Track=4 note_off channel=3 note=75 velocity=0 time=0
Time=14760 Track=5 note_off channel=4 note=56 velocity=0 time=120
Time=14760 Track=5 note_off channel=4 note=60 velocity=0 time=0
Time=14760 Track=5 note_off channel=4 note=63 velocity=0 time=0
Time=14880 Track=2 note_off channel=1 note=32 velocity=64 time=120
Time=14880 Track=2 note_on channel=1 note=39 velocity=100 time=0
Time=14880 Track=4 note_on channel=3 note=68 velocity=100 time=120
Time=14880 Track=4 note_on channel=3 note=72 velocity=100 time=0
Time=14880 Track=4 note_on channel=3 note=75 velocity=100 time=0
Time=15000 Track=2 note_off channel=1 note=39 velocity=64 time=120
Time=15000 Track=2 note_on channel=1 note=39 velocity=100 time=0
Time=15000 Track=4 note_off channel=3 note=68 velocity=0 time=120
Time=15000 Track=4 note_off channel=3 note=72 velocity=0 time=0
Time=15000 Track=4 note_off channel=3 note=75 velocity=0 time=0
Time=15120 Track=2 note_off channel=1 note=39 velocity=64 time=120
Time=15120 Track=2 note_on channel=1 note=39 velocity=100 time=0
Time=15120 Track=4 note_on channel=3 note=68 velocity=100 time=120
Time=15120 Track=4 note_on channel=3 note=72 velocity=100 time=0
Time=15120 Track=4 note_on channel=3 note=75 velocity=100 time=0
Time=15120 Track=5 note_on channel=4 note=56 velocity=100 time=360
Time=15120 Track=5 note_on channel=4 note=60 velocity=100 time=0
Time=15120 Track=5 note_on channel=4 note=63 velocity=100 time=0
Time=15240 Track=2 note_off channel=1 note=39 velocity=64 time=120
Time=15240 Track=4 note_off channel=3 note=68 velocity=0 time=120
Time=15240 Track=4 note_off channel=3 note=72 velocity=0 time=0
Time=15240 Track=4 note_off channel=3 note=75 velocity=0 time=0
Time=15240 Track=5 note_off channel=4 note=56 velocity=0 time=120
Time=15240 Track=5 note_off channel=4 note=60 velocity=0 time=0
Time=15240 Track=5 note_off channel=4 note=63 velocity=0 time=0
Time=15360 Track=2 note_on channel=1 note=27 velocity=100 time=120
Time=15480 Track=2 note_off channel=1 note=27 velocity=64 time=120
Time=15600 Track=4 note_on channel=3 note=63 velocity=100 time=360
Time=15600 Track=4 note_on channel=3 note=66 velocity=100 time=0
Time=15600 Track=4 note_on channel=3 note=70 velocity=100 time=0
Time=15600 Track=5 note_on channel=4 note=51 velocity=100 time=360
Time=15600 Track=5 note_on channel=4 note=54 velocity=100 time=0
Time=15600 Track=5 note_on channel=4 note=58 velocity=100 time=0
Time=15720 Track=4 note_off channel=3 note=63 velocity=0 time=120
Time=15720 Track=4 note_off channel=3 note=66 velocity=0 time=0
Time=15720 Track=4 note_off channel=3 note=70 velocity=0 time=0
Time=15720 Track=5 note_off channel=4 note=51 velocity=0 time=120
Time=15720 Track=5 note_off channel=4 note=54 velocity=0 time=0
Time=15720 Track=5 note_off channel=4 note=58 velocity=0 time=0
Time=15840 Track=2 note_on channel=1 note=34 velocity=100 time=360
Time=15840 Track=4 note_on channel=3 note=63 velocity=100 time=120
Time=15840 Track=4 note_on channel=3 note=66 velocity=100 time=0
Time=15840 Track=4 note_on channel=3 note=70 velocity=100 time=0
Time=15960 Track=2 note_off channel=1 note=34 velocity=64 time=120
Time=15960 Track=2 note_on channel=1 note=34 velocity=100 time=0
Time=15960 Track=4 note_off channel=3 note=63 velocity=0 time=120
Time=15960 Track=4 note_off channel=3 note=66 velocity=0 time=0
Time=15960 Track=4 note_off channel=3 note=70 velocity=0 time=0
Time=16080 Track=2 note_off channel=1 note=34 velocity=64 time=120
Time=16080 Track=2 note_on channel=1 note=34 velocity=100 time=0
Time=16080 Track=4 note_on channel=3 note=63 velocity=100 time=120
Time=16080 Track=4 note_on channel=3 note=66 velocity=100 time=0
Time=16080 Track=4 note_on channel=3 note=70 velocity=100 time=0
Time=16080 Track=5 note_on channel=4 note=51 velocity=100 time=360
Time=16080 Track=5 note_on channel=4 note=54 velocity=100 time=0
Time=16080 Track=5 note_on channel=4 note=58 velocity=100 time=0
Time=16200 Track=2 note_off channel=1 note=34 velocity=64 time=120
Time=16200 Track=4 note_off channel=3 note=63 velocity=0 time=120
Time=16200 Track=4 note_off channel=3 note=66 velocity=0 time=0
Time=16200 Track=4 note_off channel=3 note=70 velocity=0 time=0
Time=16200 Track=5 note_off channel=4 note=51 velocity=0 time=120
Time=16200 Track=5 note_off channel=4 note=54 velocity=0 time=0
Time=16200 Track=5 note_off channel=4 note=58 velocity=0 time=0
Time=16320 Track=2 note_on channel=1 note=39 velocity=100 time=120
Time=16320 Track=10 note_on channel=9 note=40 velocity=60 time=883
Time=16320 Track=10 note_on channel=9 note=45 velocity=119 time=0
Time=16380 Track=10 note_off channel=9 note=40 velocity=0 time=60
Time=16380 Track=10 note_off channel=9 note=45 velocity=0 time=0
Time=16440 Track=2 note_off channel=1 note=39 velocity=64 time=120
Time=16680 Track=10 note_on channel=9 note=40 velocity=120 time=300
Time=16720 Track=10 note_off channel=9 note=40 velocity=0 time=40
Time=16740 Track=10 note_on channel=9 note=40 velocity=120 time=20
Time=16780 Track=10 note_off channel=9 note=40 velocity=0 time=40
Time=16800 Track=10 note_on channel=9 note=40 velocity=120 time=20
Time=16860 Track=10 note_off channel=9 note=40 velocity=0 time=60
Time=16920 Track=10 note_on channel=9 note=40 velocity=120 time=60
Time=16980 Track=10 note_off channel=9 note=40 velocity=0 time=60
Time=17040 Track=10 note_on channel=9 note=40 velocity=120 time=60
Time=17099 Track=10 note_off channel=9 note=40 velocity=0 time=59
Time=17280 Track=2 note_on channel=1 note=34 velocity=100 time=840
Time=17280 Track=10 note_on channel=9 note=36 velocity=127 time=181
Time=17280 Track=10 note_on channel=9 note=41 velocity=127 time=0
Time=17280 Track=10 note_on channel=9 note=42 velocity=100 time=0
Time=17340 Track=10 note_off channel=9 note=42 velocity=0 time=60
Time=17341 Track=10 note_off channel=9 note=36 velocity=0 time=1
Time=17341 Track=10 note_off channel=9 note=41 velocity=0 time=0
Time=17520 Track=2 note_off channel=1 note=34 velocity=64 time=240
Time=17520 Track=4 note_on channel=3 note=70 velocity=100 time=1320
Time=17520 Track=4 note_on channel=3 note=73 velocity=100 time=0
Time=17520 Track=4 note_on channel=3 note=77 velocity=100 time=0
Time=17520 Track=5 note_on channel=4 note=58 velocity=100 time=1320
Time=17520 Track=5 note_on channel=4 note=61 velocity=100 time=0
Time=17520 Track=5 note_on channel=4 note=65 velocity=100 time=0
Time=17521 Track=10 note_on channel=9 note=40 velocity=60 time=82
Time=17581 Track=10 note_off channel=9 note=40 velocity=0 time=60
Time=17640 Track=2 note_on channel=1 note=37 velocity=100 time=120
Time=17640 Track=4 note_off channel=3 note=70 velocity=0 time=120
Time=17640 Track=4 note_off channel=3 note=73 velocity=0 time=0
Time=17640 Track=4 note_off channel=3 note=77 velocity=0 time=0
Time=17640 Track=5 note_off channel=4 note=58 velocity=0 time=120
Time=17640 Track=5 note_off channel=4 note=61 velocity=0 time=0
Time=17640 Track=5 note_off channel=4 note=65 velocity=0 time=0
Time=17640 Track=10 note_on channel=9 note=40 velocity=120 time=59
Time=17640 Track=10 note_on channel=9 note=42 velocity=100 time=0
Time=17700 Track=10 note_off channel=9 note=40 velocity=0 time=60
Time=17700 Track=10 note_off channel=9 note=42 velocity=0 time=0
Time=17760 Track=2 note_off channel=1 note=37 velocity=64 time=120
Time=17760 Track=2 note_on channel=1 note=41 velocity=100 time=0
Time=17760 Track=4 note_on channel=3 note=70 velocity=100 time=120
Time=17760 Track=4 note_on channel=3 note=73 velocity=100 time=0
Time=17760 Track=4 note_on channel=3 note=77 velocity=100 time=0
Time=17760 Track=10 note_on channel=9 note=36 velocity=127 time=60
Time=17760 Track=10 note_on channel=9 note=42 velocity=100 time=0
Time=17820 Track=10 note_off channel=9 note=36 velocity=0 time=31
Time=17822 Track=10 note_off channel=9 note=42 velocity=0 time=2
Time=17880 Track=2 note_off channel=1 note=41 velocity=64 time=120
Time=17880 Track=3 note_on channel=2 note=85 velocity=38 time=8460
Time=17880 Track=4 note_off channel=3 note=70 velocity=0 time=120
Time=17880 Track=4 note_off channel=3 note=73 velocity=0 time=0
Time=17880 Track=4 note_off channel=3 note=77 velocity=0 time=0
Time=17939 Track=3 note_off channel=2 note=85 velocity=0 time=59
Time=18000 Track=2 note_on channel=1 note=41 velocity=100 time=120
Time=18000 Track=3 note_on channel=2 note=85 velocity=40 time=61
Time=18000 Track=4 note_on channel=3 note=70 velocity=100 time=120
Time=18000 Track=4 note_on channel=3 note=73 velocity=100 time=0
Time=18000 Track=4 note_on channel=3 note=77 velocity=100 time=0
Time=18000 Track=5 note_on channel=4 note=58 velocity=100 time=360
Time=18000 Track=5 note_on channel=4 note=61 velocity=100 time=0
Time=18000 Track=5 note_on channel=4 note=65 velocity=100 time=0
Time=18000 Track=10 note_on channel=9 note=40 velocity=120 time=178
Time=18000 Track=10 note_on channel=9 note=42 velocity=100 time=0
Time=18060 Track=3 note_off channel=2 note=85 velocity=0 time=60
Time=18060 Track=10 note_off channel=9 note=40 velocity=0 time=60
Time=18060 Track=10 note_off channel=9 note=42 velocity=0 time=0
Time=18120 Track=2 note_off channel=1 note=41 velocity=64 time=120
Time=18120 Track=3 note_on channel=2 note=85 velocity=40 time=60
Time=18120 Track=4 note_off channel=3 note=70 velocity=0 time=120
Time=18120 Track=4 note_off channel=3 note=73 velocity=0 time=0
Time=18120 Track=4 note_off channel=3 note=77 velocity=0 time=0
Time=18120 Track=5 note_off channel=4 note=58 velocity=0 time=120
Time=18120 Track=5 note_off channel=4 note=61 velocity=0 time=0
Time=18120 Track=5 note_off channel=4 note=65 velocity=0 time=0
Time=18180 Track=3 note_off channel=2 note=85 velocity=0 time=60
Time=18240 Track=2 note_on channel=1 note=32 velocity=100 time=120
Time=18240 Track=3 note_on channel=2 note=87 velocity=51 time=60
Time=18240 Track=10 note_on channel=9 note=36 velocity=127 time=180
Time=18240 Track=10 note_on channel=9 note=41 velocity=127 time=0
Time=18240 Track=10 note_on channel=9 note=42 velocity=100 time=0
Time=18300 Track=10 note_off channel=9 note=36 velocity=0 time=60
Time=18300 Track=10 note_off channel=9 note=41 velocity=0 time=0
Time=18300 Track=10 note_off channel=9 note=42 velocity=0 time=0
Time=18462 Track=3 note_off channel=2 note=87 velocity=0 time=222
Time=18480 Track=2 note_off channel=1 note=32 velocity=64 time=240
Time=18480 Track=3 note_on channel=2 note=84 velocity=43 time=18
Time=18480 Track=4 note_on channel=3 note=68 velocity=100 time=360
Time=18480 Track=4 note_on channel=3 note=72 velocity=100 time=0
Time=18480 Track=4 note_on channel=3 note=75 velocity=100 time=0
Time=18480 Track=5 note_on channel=4 note=56 velocity=100 time=360
Time=18480 Track=5 note_on channel=4 note=60 velocity=100 time=0
Time=18480 Track=5 note_on channel=4 note=63 velocity=100 time=0
Time=18480 Track=10 note_on channel=9 note=40 velocity=60 time=180
Time=18540 Track=10 note_off channel=9 note=40 velocity=0 time=60
Time=18547 Track=3 note_off channel=2 note=84 velocity=0 time=67
Time=18600 Track=2 note_on channel=1 note=36 velocity=100 time=120
Time=18600 Track=3 note_on channel=2 note=84 velocity=51 time=53
Time=18600 Track=4 note_off channel=3 note=68 velocity=0 time=120
Time=18600 Track=4 note_off channel=3 note=72 velocity=0 time=0
Time=18600 Track=4 note_off channel=3 note=75 velocity=0 time=0
Time=18600 Track=5 note_off channel=4 note=56 velocity=0 time=120
Time=18600 Track=5 note_off channel=4 note=60 velocity=0 time=0
Time=18600 Track=5 note_off channel=4 note=63 velocity=0 time=0
Time=18600 Track=10 note_on channel=9 note=40 velocity=120 time=60
Time=18600 Track=10 note_on channel=9 note=42 velocity=100 time=0
Time=18660 Track=10 note_off channel=9 note=40 velocity=0 time=60
Time=18660 Track=10 note_off channel=9 note=42 velocity=0 time=0
Time=18666 Track=3 note_off channel=2 note=84 velocity=0 time=66
Time=18720 Track=2 note_off channel=1 note=36 velocity=64 time=120
Time=18720 Track=2 note_on channel=1 note=39 velocity=100 time=0
Time=18720 Track=3 note_on channel=2 note=84 velocity=54 time=54
Time=18720 Track=4 note_on channel=3 note=68 velocity=100 time=120
Time=18720 Track=4 note_on channel=3 note=72 velocity=100 time=0
Time=18720 Track=4 note_on channel=3 note=75 velocity=100 time=0
Time=18720 Track=10 note_on channel=9 note=36 velocity=127 time=60
Time=18720 Track=10 note_on channel=9 note=42 velocity=100 time=0
Time=18780 Track=10 note_off channel=9 note=36 velocity=0 time=60
Time=18780 Track=10 note_off channel=9 note=42 velocity=0 time=0
Time=18795 Track=3 note_off channel=2 note=84 velocity=0 time=75
Time=18840 Track=2 note_off channel=1 note=39 velocity=64 time=120
Time=18840 Track=3 note_on channel=2 note=85 velocity=44 time=45
Time=18840 Track=4 note_off channel=3 note=68 velocity=0 time=120
Time=18840 Track=4 note_off channel=3 note=72 velocity=0 time=0
Time=18840 Track=4 note_off channel=3 note=75 velocity=0 time=0
Time=18951 Track=3 note_off channel=2 note=85 velocity=0 time=111
Time=18960 Track=2 note_on channel=1 note=39 velocity=100 time=120
Time=18960 Track=3 note_on channel=2 note=84 velocity=58 time=9
Time=18960 Track=4 note_on channel=3 note=68 velocity=100 time=120
Time=18960 Track=4 note_on channel=3 note=72 velocity=100 time=0
Time=18960 Track=4 note_on channel=3 note=75 velocity=100 time=0
Time=18960 Track=5 note_on channel=4 note=56 velocity=100 time=360
Time=18960 Track=5 note_on channel=4 note=60 velocity=100 time=0
Time=18960 Track=5 note_on channel=4 note=63 velocity=100 time=0
Time=18960 Track=10 note_on channel=9 note=40 velocity=120 time=180
Time=18960 Track=10 note_on channel=9 note=42 velocity=100 time=0
Time=19020 Track=10 note_off channel=9 note=40 velocity=0 time=60
Time=19020 Track=10 note_off channel=9 note=42 velocity=0 time=0
Time=19064 Track=3 note_off channel=2 note=84 velocity=0 time=104
Time=19080 Track=2 note_off channel=1 note=39 velocity=64 time=120
Time=19080 Track=4 note_off channel=3 note=68 velocity=0 time=120
Time=19080 Track=4 note_off channel=3 note=72 velocity=0 time=0
Time=19080 Track=4 note_off channel=3 note=75 velocity=0 time=0
Time=19080 Track=5 note_off channel=4 note=56 velocity=0 time=120
Time=19080 Track=5 note_off channel=4 note=60 velocity=0 time=0
Time=19080 Track=5 note_off channel=4 note=63 velocity=0 time=0
Time=19200 Track=2 note_on channel=1 note=27 velocity=100 time=120
Time=19200 Track=3 note_on channel=2 note=85 velocity=51 time=136
Time=19200 Track=10 note_on channel=9 note=36 velocity=127 time=180
Time=19200 Track=10 note_on channel=9 note=41 velocity=127 time=0
Time=19200 Track=10 note_on channel=9 note=42 velocity=100 time=0
Time=19260 Track=10 note_off channel=9 note=36 velocity=0 time=60
Time=19260 Track=10 note_off channel=9 note=41 velocity=0 time=0
Time=19260 Track=10 note_off channel=9 note=42 velocity=0 time=0
Time=19439 Track=3 note_off channel=2 note=85 velocity=0 time=239
Time=19440 Track=2 note_off channel=1 note=27 velocity=64 time=240
Time=19440 Track=3 note_on channel=2 note=82 velocity=53 time=1
Time=19440 Track=4 note_on channel=3 note=63 velocity=100 time=360
Time=19440 Track=4 note_on channel=3 note=66 velocity=100 time=0
Time=19440 Track=4 note_on channel=3 note=70 velocity=100 time=0
Time=19440 Track=5 note_on channel=4 note=51 velocity=100 time=360
Time=19440 Track=5 note_on channel=4 note=54 velocity=100 time=0
Time=19440 Track=5 note_on channel=4 note=58 velocity=100 time=0
Time=19440 Track=7 note_on channel=6 note=70 velocity=102 time=19440
Time=19440 Track=10 note_on channel=9 note=40 velocity=60 time=180
Time=19500 Track=10 note_off channel=9 note=40 velocity=0 time=60
Time=19506 Track=3 note_off channel=2 note=82 velocity=0 time=66
Time=19560 Track=2 note_on channel=1 note=27 velocity=100 time=120
Time=19560 Track=4 note_off channel=3 note=63 velocity=0 time=120
Time=19560 Track=4 note_off channel=3 note=66 velocity=0 time=0
Time=19560 Track=4 note_off channel=3 note=70 velocity=0 time=0
Time=19560 Track=5 note_off channel=4 note=51 velocity=0 time=120
Time=19560 Track=5 note_off channel=4 note=54 velocity=0 time=0
Time=19560 Track=5 note_off channel=4 note=58 velocity=0 time=0
Time=19560 Track=7 note_off channel=6 note=70 velocity=0 time=120
Time=19560 Track=10 note_on channel=9 note=40 velocity=120 time=60
Time=19560 Track=10 note_on channel=9 note=42 velocity=100 time=0
Time=19619 Track=10 note_off channel=9 note=40 velocity=0 time=59
Time=19620 Track=10 note_off channel=9 note=42 velocity=0 time=1
Time=19680 Track=2 note_off channel=1 note=27 velocity=64 time=120
Time=19680 Track=2 note_on channel=1 note=34 velocity=100 time=0
Time=19680 Track=4 note_on channel=3 note=63 velocity=100 time=120
Time=19680 Track=4 note_on channel=3 note=66 velocity=100 time=0
Time=19680 Track=4 note_on channel=3 note=70 velocity=100 time=0
Time=19680 Track=10 note_on channel=9 note=36 velocity=127 time=60
Time=19680 Track=10 note_on channel=9 note=42 velocity=100 time=0
Time=19740 Track=10 note_off channel=9 note=36 velocity=0 time=60
Time=19740 Track=10 note_off channel=9 note=42 velocity=0 time=0
Time=19800 Track=2 note_off channel=1 note=34 velocity=64 time=120
Time=19800 Track=4 note_off channel=3 note=63 velocity=0 time=120
Time=19800 Track=4 note_off channel=3 note=66 velocity=0 time=0
Time=19800 Track=4 note_off channel=3 note=70 velocity=0 time=0
Time=19920 Track=2 note_on channel=1 note=34 velocity=100 time=120
Time=19920 Track=3 note_on channel=2 note=82 velocity=55 time=414
Time=19920 Track=4 note_on channel=3 note=63 velocity=100 time=120
Time=19920 Track=4 note_on channel=3 note=66 velocity=100 time=0
Time=19920 Track=4 note_on channel=3 note=70 velocity=100 time=0
Time=19920 Track=5 note_on channel=4 note=51 velocity=100 time=360
Time=19920 Track=5 note_on channel=4 note=54 velocity=100 time=0
Time=19920 Track=5 note_on channel=4 note=58 velocity=100 time=0
Time=19920 Track=7 note_on channel=6 note=70 velocity=127 time=360
Time=19920 Track=10 note_on channel=9 note=40 velocity=120 time=180
Time=19920 Track=10 note_on channel=9 note=42 velocity=100 time=0
Time=19979 Track=3 note_off channel=2 note=82 velocity=0 time=59
Time=19979 Track=10 note_off channel=9 note=40 velocity=0 time=59
Time=19980 Track=10 note_off channel=9 note=42 velocity=0 time=1
Time=20040 Track=2 note_off channel=1 note=34 velocity=64 time=120
Time=20040 Track=4 note_off channel=3 note=63 velocity=0 time=120
Time=20040 Track=4 note_off channel=3 note=66 velocity=0 time=0
Time=20040 Track=4 note_off channel=3 note=70 velocity=0 time=0
Time=20040 Track=5 note_off channel=4 note=51 velocity=0 time=120
Time=20040 Track=5 note_off channel=4 note=54 velocity=0 time=0
Time=20040 Track=5 note_off channel=4 note=58 velocity=0 time=0
Time=20040 Track=7 note_off channel=6 note=70 velocity=0 time=120
Time=20160 Track=2 note_on channel=1 note=27 velocity=100 time=120
Time=20160 Track=3 note_on channel=2 note=89 velocity=46 time=181
Time=20160 Track=7 note_on channel=6 note=77 velocity=127 time=120
Time=20160 Track=10 note_on channel=9 note=36 velocity=127 time=180
Time=20160 Track=10 note_on channel=9 note=41 velocity=127 time=0
Time=20160 Track=10 note_on channel=9 note=42 velocity=100 time=0
Time=20220 Track=10 note_off channel=9 note=36 velocity=0 time=60
Time=20220 Track=10 note_off channel=9 note=41 velocity=0 time=0
Time=20220 Track=10 note_off channel=9 note=42 velocity=0 time=0
Time=20279 Track=3 note_off channel=2 note=89 velocity=0 time=119
Time=20287 Track=7 note_off channel=6 note=77 velocity=0 time=127
Time=20400 Track=2 note_off channel=1 note=27 velocity=64 time=240
Time=20400 Track=3 note_on channel=2 note=87 velocity=51 time=121
Time=20400 Track=4 note_on channel=3 note=63 velocity=100 time=360
Time=20400 Track=4 note_on channel=3 note=66 velocity=100 time=0
Time=20400 Track=4 note_on channel=3 note=70 velocity=100 time=0
Time=20400 Track=5 note_on channel=4 note=51 velocity=100 time=360
Time=20400 Track=5 note_on channel=4 note=54 velocity=100 time=0
Time=20400 Track=5 note_on channel=4 note=58 velocity=100 time=0
Time=20400 Track=7 note_on channel=6 note=75 velocity=127 time=113
Time=20400 Track=10 note_on channel=9 note=40 velocity=60 time=180
Time=20459 Track=3 note_off channel=2 note=87 velocity=0 time=59
Time=20460 Track=10 note_off channel=9 note=40 velocity=0 time=60
Time=20520 Track=2 note_on channel=1 note=27 velocity=100 time=120
Time=20520 Track=3 note_on channel=2 note=89 velocity=48 time=61
Time=20520 Track=4 note_off channel=3 note=63 velocity=0 time=120
Time=20520 Track=4 note_off channel=3 note=66 velocity=0 time=0
Time=20520 Track=4 note_off channel=3 note=70 velocity=0 time=0
Time=20520 Track=5 note_off channel=4 note=51 velocity=0 time=120
Time=20520 Track=5 note_off channel=4 note=54 velocity=0 time=0
Time=20520 Track=5 note_off channel=4 note=58 velocity=0 time=0
Time=20520 Track=7 note_off channel=6 note=75 velocity=0 time=120
Time=20520 Track=10 note_on channel=9 note=40 velocity=120 time=60
Time=20520 Track=10 note_on channel=9 note=42 velocity=100 time=0
Time=20580 Track=10 note_off channel=9 note=40 velocity=0 time=60
Time=20580 Track=10 note_off channel=9 note=42 velocity=0 time=0
Time=20639 Track=3 note_off channel=2 note=89 velocity=0 time=119
Time=20640 Track=2 note_off channel=1 note=27 velocity=64 time=120
Time=20640 Track=2 note_on channel=1 note=37 velocity=100 time=0
Time=20640 Track=3 note_on channel=2 note=87 velocity=59 time=1
Time=20640 Track=4 note_on channel=3 note=63 velocity=100 time=120
Time=20640 Track=4 note_on channel=3 note=66 velocity=100 time=0
Time=20640 Track=4 note_on channel=3 note=70 velocity=100 time=0
Time=20640 Track=10 note_on channel=9 note=36 velocity=127 time=60
Time=20640 Track=10 note_on channel=9 note=42 velocity=100 time=0
Time=20700 Track=10 note_off channel=9 note=36 velocity=0 time=60
Time=20700 Track=10 note_off channel=9 note=42 velocity=0 time=0
Time=20730 Track=3 note_off channel=2 note=87 velocity=0 time=90
Time=20760 Track=2 note_off channel=1 note=37 velocity=64 time=120
Time=20760 Track=3 note_on channel=2 note=85 velocity=36 time=30
Time=20760 Track=4 note_off channel=3 note=63 velocity=0 time=120
Time=20760 Track=4 note_off channel=3 note=66 velocity=0 time=0
Time=20760 Track=4 note_off channel=3 note=70 velocity=0 time=0
Time=20797 Track=3 note_off channel=2 note=85 velocity=0 time=37
Time=20880 Track=2 note_on channel=1 note=37 velocity=100 time=120
Time=20880 Track=3 note_on channel=2 note=85 velocity=55 time=83
Time=20880 Track=4 note_on channel=3 note=63 velocity=100 time=120
Time=20880 Track=4 note_on channel=3 note=66 velocity=100 time=0
Time=20880 Track=4 note_on channel=3 note=70 velocity=100 time=0
Time=20880 Track=5 note_on channel=4 note=51 velocity=100 time=360
Time=20880 Track=5 note_on channel=4 note=54 velocity=100 time=0
Time=20880 Track=5 note_on channel=4 note=58 velocity=100 time=0
Time=20880 Track=10 note_on channel=9 note=40 velocity=120 time=180
Time=20880 Track=10 note_on channel=9 note=42 velocity=100 time=0
Time=20940 Track=10 note_off channel=9 note=40 velocity=0 time=16
Time=20940 Track=10 note_off channel=9 note=42 velocity=0 time=0
Time=20945 Track=3 note_off channel=2 note=85 velocity=0 time=65
Time=21000 Track=2 note_off channel=1 note=37 velocity=64 time=120
Time=21000 Track=4 note_off channel=3 note=63 velocity=0 time=120
Time=21000 Track=4 note_off channel=3 note=66 velocity=0 time=0
Time=21000 Track=4 note_off channel=3 note=70 velocity=0 time=0
Time=21000 Track=5 note_off channel=4 note=51 velocity=0 time=120
Time=21000 Track=5 note_off channel=4 note=54 velocity=0 time=0
Time=21000 Track=5 note_off channel=4 note=58 velocity=0 time=0
Time=21120 Track=2 note_on channel=1 note=34 velocity=100 time=120
Time=21120 Track=3 note_on channel=2 note=85 velocity=55 time=175
Time=21120 Track=10 note_on channel=9 note=36 velocity=127 time=180
Time=21120 Track=10 note_on channel=9 note=41 velocity=127 time=0
Time=21120 Track=10 note_on channel=9 note=42 velocity=100 time=0
Time=21180 Track=10 note_off channel=9 note=36 velocity=0 time=60
Time=21180 Track=10 note_off channel=9 note=41 velocity=0 time=0
Time=21180 Track=10 note_off channel=9 note=42 velocity=0 time=0
Time=21360 Track=2 note_off channel=1 note=34 velocity=64 time=240
Time=21360 Track=4 note_on channel=3 note=70 velocity=100 time=360
Time=21360 Track=4 note_on channel=3 note=73 velocity=100 time=0
Time=21360 Track=4 note_on channel=3 note=77 velocity=100 time=0
Time=21360 Track=5 note_on channel=4 note=58 velocity=100 time=360
Time=21360 Track=5 note_on channel=4 note=61 velocity=100 time=0
Time=21360 Track=5 note_on channel=4 note=65 velocity=100 time=0
Time=21360 Track=10 note_on channel=9 note=40 velocity=60 time=144
Time=21420 Track=10 note_off channel=9 note=40 velocity=0 time=60
Time=21480 Track=2 note_on channel=1 note=37 velocity=100 time=120
Time=21480 Track=4 note_off channel=3 note=70 velocity=0 time=120
Time=21480 Track=4 note_off channel=3 note=73 velocity=0 time=0
Time=21480 Track=4 note_off channel=3 note=77 velocity=0 time=0
Time=21480 Track=5 note_off channel=4 note=58 velocity=0 time=120
Time=21480 Track=5 note_off channel=4 note=61 velocity=0 time=0
Time=21480 Track=5 note_off channel=4 note=65 velocity=0 time=0
Time=21480 Track=10 note_on channel=9 note=40 velocity=120 time=60
Time=21480 Track=10 note_on channel=9 note=42 velocity=100 time=0
Time=21511 Track=3 note_off channel=2 note=85 velocity=0 time=391
Time=21540 Track=10 note_off channel=9 note=40 velocity=0 time=60
Time=21540 Track=10 note_off channel=9 note=42 velocity=0 time=0
Time=21600 Track=2 note_off channel=1 note=37 velocity=64 time=120
Time=21600 Track=2 note_on channel=1 note=41 velocity=100 time=0
Time=21600 Track=4 note_on channel=3 note=70 velocity=100 time=120
Time=21600 Track=4 note_on channel=3 note=73 velocity=100 time=0
Time=21600 Track=4 note_on channel=3 note=77 velocity=100 time=0
Time=21600 Track=10 note_on channel=9 note=36 velocity=127 time=60
Time=21600 Track=10 note_on channel=9 note=42 velocity=100 time=0
Time=21660 Track=10 note_off channel=9 note=36 velocity=0 time=60
Time=21660 Track=10 note_off channel=9 note=42 velocity=0 time=0
Time=21720 Track=2 note_off channel=1 note=41 velocity=64 time=120
Time=21720 Track=3 note_on channel=2 note=85 velocity=42 time=209
Time=21720 Track=4 note_off channel=3 note=70 velocity=0 time=120
Time=21720 Track=4 note_off channel=3 note=73 velocity=0 time=0
Time=21720 Track=4 note_off channel=3 note=77 velocity=0 time=0
Time=21778 Track=3 note_off channel=2 note=85 velocity=0 time=58
Time=21840 Track=2 note_on channel=1 note=41 velocity=100 time=120
Time=21840 Track=3 note_on channel=2 note=85 velocity=42 time=62
Time=21840 Track=4 note_on channel=3 note=70 velocity=100 time=120
Time=21840 Track=4 note_on channel=3 note=73 velocity=100 time=0
Time=21840 Track=4 note_on channel=3 note=77 velocity=100 time=0
Time=21840 Track=5 note_on channel=4 note=58 velocity=100 time=360
Time=21840 Track=5 note_on channel=4 note=61 velocity=100 time=0
Time=21840 Track=5 note_on channel=4 note=65 velocity=100 time=0
Time=21840 Track=10 note_on channel=9 note=40 velocity=120 time=180
Time=21840 Track=10 note_on channel=9 note=42 velocity=100 time=0
Time=21900 Track=10 note_off channel=9 note=40 velocity=0 time=60
Time=21900 Track=10 note_off channel=9 note=42 velocity=0 time=0
Time=21944 Track=3 note_off channel=2 note=85 velocity=0 time=104
Time=21960 Track=2 note_off channel=1 note=41 velocity=64 time=120
Time=21960 Track=4 note_off channel=3 note=70 velocity=0 time=120
Time=21960 Track=4 note_off channel=3 note=73 velocity=0 time=0
Time=21960 Track=4 note_off channel=3 note=77 velocity=0 time=0
Time=21960 Track=5 note_off channel=4 note=58 velocity=0 time=120
Time=21960 Track=5 note_off channel=4 note=61 velocity=0 time=0
Time=21960 Track=5 note_off channel=4 note=65 velocity=0 time=0
Time=22080 Track=2 note_on channel=1 note=32 velocity=100 time=120
Time=22080 Track=3 note_on channel=2 note=87 velocity=39 time=136
Time=22080 Track=10 note_on channel=9 note=36 velocity=127 time=180
Time=22080 Track=10 note_on channel=9 note=41 velocity=127 time=0
Time=22080 Track=10 note_on channel=9 note=42 velocity=100 time=0
Time=22137 Track=10 note_off channel=9 note=42 velocity=0 time=57
Time=22140 Track=10 note_off channel=9 note=36 velocity=0 time=3
Time=22140 Track=10 note_off channel=9 note=41 velocity=0 time=0
Time=22320 Track=2 note_off channel=1 note=32 velocity=64 time=240
Time=22320 Track=3 note_on channel=2 note=84 velocity=58 time=240
Time=22320 Track=4 note_on channel=3 note=68 velocity=100 time=360
Time=22320 Track=4 note_on channel=3 note=72 velocity=100 time=0
Time=22320 Track=4 note_on channel=3 note=75 velocity=100 time=0
Time=22320 Track=5 note_on channel=4 note=56 velocity=100 time=360
Time=22320 Track=5 note_on channel=4 note=60 velocity=100 time=0
Time=22320 Track=5 note_on channel=4 note=63 velocity=100 time=0
Time=22320 Track=10 note_on channel=9 note=40 velocity=60 time=180
Time=22325 Track=3 note_off channel=2 note=87 velocity=0 time=5
Time=22378 Track=3 note_off channel=2 note=84 velocity=0 time=53
Time=22379 Track=10 note_off channel=9 note=40 velocity=0 time=59
Time=22440 Track=2 note_on channel=1 note=36 velocity=100 time=120
Time=22440 Track=3 note_on channel=2 note=84 velocity=45 time=62
Time=22440 Track=4 note_off channel=3 note=68 velocity=0 time=120
Time=22440 Track=4 note_off channel=3 note=72 velocity=0 time=0
Time=22440 Track=4 note_off channel=3 note=75 velocity=0 time=0
Time=22440 Track=5 note_off channel=4 note=56 velocity=0 time=120
Time=22440 Track=5 note_off channel=4 note=60 velocity=0 time=0
Time=22440 Track=5 note_off channel=4 note=63 velocity=0 time=0
Time=22440 Track=10 note_on channel=9 note=40 velocity=120 time=61
Time=22440 Track=10 note_on channel=9 note=42 velocity=100 time=0
Time=22500 Track=10 note_off channel=9 note=40 velocity=0 time=60
Time=22500 Track=10 note_off channel=9 note=42 velocity=0 time=0
Time=22530 Track=3 note_off channel=2 note=84 velocity=0 time=90
Time=22560 Track=2 note_off channel=1 note=36 velocity=64 time=120
Time=22560 Track=2 note_on channel=1 note=39 velocity=100 time=0
Time=22560 Track=3 note_on channel=2 note=84 velocity=49 time=30
Time=22560 Track=4 note_on channel=3 note=68 velocity=100 time=120
Time=22560 Track=4 note_on channel=3 note=72 velocity=100 time=0
Time=22560 Track=4 note_on channel=3 note=75 velocity=100 time=0
Time=22560 Track=10 note_on channel=9 note=36 velocity=127 time=60
Time=22560 Track=10 note_on channel=9 note=42 velocity=100 time=0
Time=22620 Track=10 note_off channel=9 note=36 velocity=0 time=60
Time=22621 Track=10 note_off channel=9 note=42 velocity=0 time=1
Time=22650 Track=3 note_off channel=2 note=84 velocity=0 time=90
Time=22650 Track=3 note_on channel=2 note=85 velocity=36 time=0
Time=22680 Track=2 note_off channel=1 note=39 velocity=64 time=120
Time=22680 Track=4 note_off channel=3 note=68 velocity=0 time=120
Time=22680 Track=4 note_off channel=3 note=72 velocity=0 time=0
Time=22680 Track=4 note_off channel=3 note=75 velocity=0 time=0
Time=22770 Track=3 note_off channel=2 note=85 velocity=0 time=120
Time=22800 Track=2 note_on channel=1 note=39 velocity=100 time=120
Time=22800 Track=3 note_on channel=2 note=84 velocity=66 time=30
Time=22800 Track=4 note_on channel=3 note=68 velocity=100 time=120
Time=22800 Track=4 note_on channel=3 note=72 velocity=100 time=0
Time=22800 Track=4 note_on channel=3 note=75 velocity=100 time=0
Time=22800 Track=5 note_on channel=4 note=56 velocity=100 time=360
Time=22800 Track=5 note_on channel=4 note=60 velocity=100 time=0
Time=22800 Track=5 note_on channel=4 note=63 velocity=100 time=0
Time=22800 Track=10 note_on channel=9 note=40 velocity=120 time=179
Time=22800 Track=10 note_on channel=9 note=42 velocity=100 time=0
Time=22860 Track=10 note_off channel=9 note=40 velocity=0 time=60
Time=22860 Track=10 note_off channel=9 note=42 velocity=0 time=0
Time=22920 Track=2 note_off channel=1 note=39 velocity=64 time=120
Time=22920 Track=3 note_off channel=2 note=84 velocity=0 time=120
Time=22920 Track=4 note_off channel=3 note=68 velocity=0 time=120
Time=22920 Track=4 note_off channel=3 note=72 velocity=0 time=0
Time=22920 Track=4 note_off channel=3 note=75 velocity=0 time=0
Time=22920 Track=5 note_off channel=4 note=56 velocity=0 time=120
Time=22920 Track=5 note_off channel=4 note=60 velocity=0 time=0
Time=22920 Track=5 note_off channel=4 note=63 velocity=0 time=0
Time=23040 Track=2 note_on channel=1 note=27 velocity=100 time=120
Time=23040 Track=3 note_on channel=2 note=85 velocity=66 time=120
Time=23040 Track=10 note_on channel=9 note=36 velocity=127 time=180
Time=23040 Track=10 note_on channel=9 note=41 velocity=127 time=0
Time=23040 Track=10 note_on channel=9 note=42 velocity=100 time=0
Time=23100 Track=10 note_off channel=9 note=36 velocity=0 time=60
Time=23100 Track=10 note_off channel=9 note=41 velocity=0 time=0
Time=23100 Track=10 note_off channel=9 note=42 velocity=0 time=0
Time=23250 Track=3 note_off channel=2 note=85 velocity=0 time=210
Time=23280 Track=2 note_off channel=1 note=27 velocity=64 time=240
Time=23280 Track=3 note_on channel=2 note=82 velocity=33 time=30
Time=23280 Track=4 note_on channel=3 note=63 velocity=100 time=360
Time=23280 Track=4 note_on channel=3 note=66 velocity=100 time=0
Time=23280 Track=4 note_on channel=3 note=70 velocity=100 time=0
Time=23280 Track=5 note_on channel=4 note=51 velocity=100 time=360
Time=23280 Track=5 note_on channel=4 note=54 velocity=100 time=0
Time=23280 Track=5 note_on channel=4 note=58 velocity=100 time=0
Time=23280 Track=7 note_on channel=6 note=70 velocity=102 time=2760
Time=23280 Track=10 note_on channel=9 note=40 velocity=60 time=180
Time=23340 Track=10 note_off channel=9 note=40 velocity=0 time=60
Time=23370 Track=3 note_off channel=2 note=82 velocity=0 time=90
Time=23400 Track=2 note_on channel=1 note=30 velocity=100 time=120
Time=23400 Track=4 note_off channel=3 note=63 velocity=0 time=120
Time=23400 Track=4 note_off channel=3 note=66 velocity=0 time=0
Time=23400 Track=4 note_off channel=3 note=70 velocity=0 time=0
Time=23400 Track=5 note_off channel=4 note=51 velocity=0 time=120
Time=23400 Track=5 note_off channel=4 note=54 velocity=0 time=0
Time=23400 Track=5 note_off channel=4 note=58 velocity=0 time=0
Time=23400 Track=7 note_off channel=6 note=70 velocity=0 time=120
Time=23400 Track=10 note_on channel=9 note=40 velocity=120 time=60
Time=23400 Track=10 note_on channel=9 note=42 velocity=100 time=0
Time=23460 Track=10 note_off channel=9 note=40 velocity=0 time=60
Time=23460 Track=10 note_off channel=9 note=42 velocity=0 time=0
Time=23520 Track=2 note_off channel=1 note=30 velocity=64 time=120
Time=23520 Track=2 note_on channel=1 note=34 velocity=100 time=0
Time=23520 Track=4 note_on channel=3 note=63 velocity=100 time=120
Time=23520 Track=4 note_on channel=3 note=66 velocity=100 time=0
Time=23520 Track=4 note_on channel=3 note=70 velocity=100 time=0
Time=23520 Track=10 note_on channel=9 note=36 velocity=127 time=60
Time=23520 Track=10 note_on channel=9 note=42 velocity=100 time=0
Time=23580 Track=10 note_off channel=9 note=36 velocity=0 time=60
Time=23580 Track=10 note_off channel=9 note=42 velocity=0 time=0
Time=23640 Track=2 note_off channel=1 note=34 velocity=64 time=120
Time=23640 Track=4 note_off channel=3 note=63 velocity=0 time=120
Time=23640 Track=4 note_off channel=3 note=66 velocity=0 time=0
Time=23640 Track=4 note_off channel=3 note=70 velocity=0 time=0
Time=23760 Track=2 note_on channel=1 note=34 velocity=100 time=120
Time=23760 Track=4 note_on channel=3 note=63 velocity=100 time=120
Time=23760 Track=4 note_on channel=3 note=66 velocity=100 time=0
Time=23760 Track=4 note_on channel=3 note=70 velocity=100 time=0
Time=23760 Track=5 note_on channel=4 note=51 velocity=100 time=360
Time=23760 Track=5 note_on channel=4 note=54 velocity=100 time=0
Time=23760 Track=5 note_on channel=4 note=58 velocity=100 time=0
Time=23760 Track=7 note_on channel=6 note=70 velocity=127 time=360
Time=23760 Track=10 note_on channel=9 note=40 velocity=120 time=180
Time=23760 Track=10 note_on channel=9 note=42 velocity=100 time=0
Time=23820 Track=10 note_off channel=9 note=40 velocity=0 time=60
Time=23820 Track=10 note_off channel=9 note=42 velocity=0 time=0
Time=23880 Track=2 note_off channel=1 note=34 velocity=64 time=120
Time=23880 Track=4 note_off channel=3 note=63 velocity=0 time=120
Time=23880 Track=4 note_off channel=3 note=66 velocity=0 time=0
Time=23880 Track=4 note_off channel=3 note=70 velocity=0 time=0
Time=23880 Track=5 note_off channel=4 note=51 velocity=0 time=120
Time=23880 Track=5 note_off channel=4 note=54 velocity=0 time=0
Time=23880 Track=5 note_off channel=4 note=58 velocity=0 time=0
Time=23880 Track=7 note_off channel=6 note=70 velocity=0 time=120
Time=24000 Track=2 note_on channel=1 note=27 velocity=100 time=120
Time=24000 Track=7 note_on channel=6 note=77 velocity=127 time=120
Time=24000 Track=10 note_on channel=9 note=36 velocity=127 time=180
Time=24000 Track=10 note_on channel=9 note=41 velocity=127 time=0
Time=24000 Track=10 note_on channel=9 note=42 velocity=100 time=0
Time=24060 Track=10 note_off channel=9 note=36 velocity=0 time=60
Time=24060 Track=10 note_off channel=9 note=41 velocity=0 time=0
Time=24060 Track=10 note_off channel=9 note=42 velocity=0 time=0
Time=24127 Track=7 note_off channel=6 note=77 velocity=0 time=127
Time=24240 Track=7 note_on channel=6 note=75 velocity=127 time=113
Time=24360 Track=7 note_off channel=6 note=75 velocity=0 time=120
Time=24360 Track=10 note_on channel=9 note=41 velocity=120 time=300
Time=24360 Track=10 note_on channel=9 note=42 velocity=100 time=0
Time=24420 Track=10 note_off channel=9 note=41 velocity=0 time=60
Time=24420 Track=10 note_off channel=9 note=42 velocity=0 time=0
Time=24450 Track=2 note_off channel=1 note=27 velocity=64 time=450
Time=24480 Track=10 note_on channel=9 note=36 velocity=127 time=60
Time=24480 Track=10 note_on channel=9 note=41 velocity=127 time=0
Time=24480 Track=10 note_on channel=9 note=42 velocity=100 time=0
Time=24540 Track=10 note_off channel=9 note=36 velocity=0 time=60
Time=24540 Track=10 note_off channel=9 note=41 velocity=0 time=0
Time=24540 Track=10 note_off channel=9 note=42 velocity=0 time=0
Time=24720 Track=10 note_on channel=9 note=41 velocity=120 time=180
Time=24720 Track=10 note_on channel=9 note=42 velocity=100 time=0
Time=24780 Track=10 note_off channel=9 note=41 velocity=0 time=60
Time=24780 Track=10 note_off channel=9 note=42 velocity=0 time=0
Time=24960 Track=2 note_on channel=1 note=34 velocity=100 time=510
Time=24960 Track=6 note_on channel=5 note=70 velocity=76 time=24960
Time=24960 Track=10 note_on channel=9 note=36 velocity=127 time=180
Time=24960 Track=10 note_on channel=9 note=41 velocity=127 time=0
Time=24960 Track=10 note_on channel=9 note=42 velocity=100 time=0
Time=25020 Track=10 note_off channel=9 note=42 velocity=0 time=60
Time=25021 Track=10 note_off channel=9 note=36 velocity=0 time=1
Time=25021 Track=10 note_off channel=9 note=41 velocity=0 time=0
Time=25200 Track=2 note_off channel=1 note=34 velocity=64 time=240
Time=25200 Track=4 note_on channel=3 note=70 velocity=100 time=1320
Time=25200 Track=4 note_on channel=3 note=73 velocity=100 time=0
Time=25200 Track=4 note_on channel=3 note=77 velocity=100 time=0
Time=25200 Track=5 note_on channel=4 note=58 velocity=100 time=1320
Time=25200 Track=5 note_on channel=4 note=61 velocity=100 time=0
Time=25200 Track=5 note_on channel=4 note=65 velocity=100 time=0
Time=25201 Track=10 note_on channel=9 note=40 velocity=60 time=180
Time=25261 Track=10 note_off channel=9 note=40 velocity=0 time=60
Time=25320 Track=4 note_off channel=3 note=70 velocity=0 time=120
Time=25320 Track=4 note_off channel=3 note=73 velocity=0 time=0
Time=25320 Track=4 note_off channel=3 note=77 velocity=0 time=0
Time=25320 Track=5 note_off channel=4 note=58 velocity=0 time=120
Time=25320 Track=5 note_off channel=4 note=61 velocity=0 time=0
Time=25320 Track=5 note_off channel=4 note=65 velocity=0 time=0
Time=25320 Track=10 note_on channel=9 note=40 velocity=120 time=59
Time=25320 Track=10 note_on channel=9 note=42 velocity=100 time=0
Time=25380 Track=10 note_off channel=9 note=40 velocity=0 time=60
Time=25380 Track=10 note_off channel=9 note=42 velocity=0 time=0
Time=25440 Track=2 note_on channel=1 note=41 velocity=100 time=240
Time=25440 Track=4 note_on channel=3 note=70 velocity=100 time=120
Time=25440 Track=4 note_on channel=3 note=73 velocity=100 time=0
Time=25440 Track=4 note_on channel=3 note=77 velocity=100 time=0
Time=25440 Track=10 note_on channel=9 note=36 velocity=127 time=60
Time=25440 Track=10 note_on channel=9 note=42 velocity=100 time=0
Time=25500 Track=10 note_off channel=9 note=36 velocity=0 time=60
Time=25502 Track=10 note_off channel=9 note=42 velocity=0 time=2
Time=25560 Track=4 note_off channel=3 note=70 velocity=0 time=120
Time=25560 Track=4 note_off channel=3 note=73 velocity=0 time=0
Time=25560 Track=4 note_off channel=3 note=77 velocity=0 time=0
Time=25680 Track=2 note_off channel=1 note=41 velocity=64 time=240
Time=25680 Track=4 note_on channel=3 note=70 velocity=100 time=120
Time=25680 Track=4 note_on channel=3 note=73 velocity=100 time=0
Time=25680 Track=4 note_on channel=3 note=77 velocity=100 time=0
Time=25680 Track=5 note_on channel=4 note=58 velocity=100 time=360
Time=25680 Track=5 note_on channel=4 note=61 velocity=100 time=0
Time=25680 Track=5 note_on channel=4 note=65 velocity=100 time=0
Time=25680 Track=10 note_on channel=9 note=40 velocity=120 time=178
Time=25680 Track=10 note_on channel=9 note=42 velocity=100 time=0
Time=25740 Track=10 note_off channel=9 note=40 velocity=0 time=60
Time=25740 Track=10 note_off channel=9 note=42 velocity=0 time=0
Time=25800 Track=4 note_off channel=3 note=70 velocity=0 time=120
Time=25800 Track=4 note_off channel=3 note=73 velocity=0 time=0
Time=25800 Track=4 note_off channel=3 note=77 velocity=0 time=0
Time=25800 Track=5 note_off channel=4 note=58 velocity=0 time=120
Time=25800 Track=5 note_off channel=4 note=61 velocity=0 time=0
Time=25800 Track=5 note_off channel=4 note=65 velocity=0 time=0
Time=25920 Track=2 note_on channel=1 note=32 velocity=100 time=240
Time=25920 Track=6 note_off channel=5 note=70 velocity=0 time=960
Time=25920 Track=10 note_on channel=9 note=36 velocity=127 time=180
Time=25920 Track=10 note_on channel=9 note=41 velocity=127 time=0
Time=25920 Track=10 note_on channel=9 note=42 velocity=100 time=0
Time=25980 Track=10 note_off channel=9 note=36 velocity=0 time=60
Time=25980 Track=10 note_off channel=9 note=41 velocity=0 time=0
Time=25980 Track=10 note_off channel=9 note=42 velocity=0 time=0
Time=26160 Track=2 note_off channel=1 note=32 velocity=64 time=240
Time=26160 Track=4 note_on channel=3 note=68 velocity=100 time=360
Time=26160 Track=4 note_on channel=3 note=72 velocity=100 time=0
Time=26160 Track=4 note_on channel=3 note=75 velocity=100 time=0
Time=26160 Track=5 note_on channel=4 note=56 velocity=100 time=360
Time=26160 Track=5 note_on channel=4 note=60 velocity=100 time=0
Time=26160 Track=5 note_on channel=4 note=63 velocity=100 time=0
Time=26160 Track=10 note_on channel=9 note=40 velocity=60 time=180
Time=26220 Track=10 note_off channel=9 note=40 velocity=0 time=60
Time=26280 Track=4 note_off channel=3 note=68 velocity=0 time=120
Time=26280 Track=4 note_off channel=3 note=72 velocity=0 time=0
Time=26280 Track=4 note_off channel=3 note=75 velocity=0 time=0
Time=26280 Track=5 note_off channel=4 note=56 velocity=0 time=120
Time=26280 Track=5 note_off channel=4 note=60 velocity=0 time=0
Time=26280 Track=5 note_off channel=4 note=63 velocity=0 time=0
Time=26280 Track=10 note_on channel=9 note=40 velocity=120 time=60
Time=26280 Track=10 note_on channel=9 note=42 velocity=100 time=0
Time=26340 Track=10 note_off channel=9 note=40 velocity=0 time=60
Time=26340 Track=10 note_off channel=9 note=42 velocity=0 time=0
Time=26400 Track=2 note_on channel=1 note=39 velocity=100 time=240
Time=26400 Track=4 note_on channel=3 note=68 velocity=100 time=120
Time=26400 Track=4 note_on channel=3 note=72 velocity=100 time=0
Time=26400 Track=4 note_on channel=3 note=75 velocity=100 time=0
Time=26400 Track=10 note_on channel=9 note=36 velocity=127 time=60
Time=26400 Track=10 note_on channel=9 note=42 velocity=100 time=0
Time=26460 Track=10 note_off channel=9 note=36 velocity=0 time=60
Time=26460 Track=10 note_off channel=9 note=42 velocity=0 time=0
Time=26520 Track=2 note_off channel=1 note=39 velocity=64 time=120
Time=26520 Track=4 note_off channel=3 note=68 velocity=0 time=120
Time=26520 Track=4 note_off channel=3 note=72 velocity=0 time=0
Time=26520 Track=4 note_off channel=3 note=75 velocity=0 time=0
Time=26640 Track=2 note_on channel=1 note=37 velocity=100 time=120
Time=26640 Track=4 note_on channel=3 note=68 velocity=100 time=120
Time=26640 Track=4 note_on channel=3 note=72 velocity=100 time=0
Time=26640 Track=4 note_on channel=3 note=75 velocity=100 time=0
Time=26640 Track=5 note_on channel=4 note=56 velocity=100 time=360
Time=26640 Track=5 note_on channel=4 note=60 velocity=100 time=0
Time=26640 Track=5 note_on channel=4 note=63 velocity=100 time=0
Time=26640 Track=7 note_on channel=6 note=80 velocity=127 time=2280
Time=26640 Track=10 note_on channel=9 note=40 velocity=120 time=180
Time=26640 Track=10 note_on channel=9 note=42 velocity=100 time=0
Time=26692 Track=7 note_off channel=6 note=80 velocity=0 time=52
Time=26700 Track=10 note_off channel=9 note=40 velocity=0 time=60
Time=26700 Track=10 note_off channel=9 note=42 velocity=0 time=0
Time=26760 Track=2 note_off channel=1 note=37 velocity=64 time=120
Time=26760 Track=4 note_off channel=3 note=68 velocity=0 time=120
Time=26760 Track=4 note_off channel=3 note=72 velocity=0 time=0
Time=26760 Track=4 note_off channel=3 note=75 velocity=0 time=0
Time=26760 Track=5 note_off channel=4 note=56 velocity=0 time=120
Time=26760 Track=5 note_off channel=4 note=60 velocity=0 time=0
Time=26760 Track=5 note_off channel=4 note=63 velocity=0 time=0
Time=26880 Track=2 note_on channel=1 note=27 velocity=100 time=120
Time=26880 Track=7 note_on channel=6 note=82 velocity=127 time=188
Time=26880 Track=10 note_on channel=9 note=36 velocity=127 time=180
Time=26880 Track=10 note_on channel=9 note=41 velocity=127 time=0
Time=26880 Track=10 note_on channel=9 note=42 velocity=100 time=0
Time=26931 Track=7 note_off channel=6 note=82 velocity=0 time=51
Time=26940 Track=10 note_off channel=9 note=36 velocity=0 time=60
Time=26940 Track=10 note_off channel=9 note=41 velocity=0 time=0
Time=26940 Track=10 note_off channel=9 note=42 velocity=0 time=0
Time=27120 Track=4 note_on channel=3 note=63 velocity=100 time=360
Time=27120 Track=4 note_on channel=3 note=66 velocity=100 time=0
Time=27120 Track=4 note_on channel=3 note=70 velocity=100 time=0
Time=27120 Track=5 note_on channel=4 note=51 velocity=100 time=360
Time=27120 Track=5 note_on channel=4 note=54 velocity=100 time=0
Time=27120 Track=5 note_on channel=4 note=58 velocity=100 time=0
Time=27120 Track=7 note_on channel=6 note=78 velocity=127 time=189
Time=27120 Track=10 note_on channel=9 note=40 velocity=60 time=180
Time=27173 Track=7 note_off channel=6 note=78 velocity=0 time=53
Time=27180 Track=10 note_off channel=9 note=40 velocity=0 time=60
Time=27240 Track=2 note_off channel=1 note=27 velocity=64 time=360
Time=27240 Track=4 note_off channel=3 note=63 velocity=0 time=120
Time=27240 Track=4 note_off channel=3 note=66 velocity=0 time=0
Time=27240 Track=4 note_off channel=3 note=70 velocity=0 time=0
Time=27240 Track=5 note_off channel=4 note=51 velocity=0 time=120
Time=27240 Track=5 note_off channel=4 note=54 velocity=0 time=0
Time=27240 Track=5 note_off channel=4 note=58 velocity=0 time=0
Time=27240 Track=10 note_on channel=9 note=40 velocity=120 time=60
Time=27240 Track=10 note_on channel=9 note=42 velocity=100 time=0
Time=27299 Track=10 note_off channel=9 note=40 velocity=0 time=59
Time=27300 Track=10 note_off channel=9 note=42 velocity=0 time=1
Time=27360 Track=2 note_on channel=1 note=34 velocity=100 time=120
Time=27360 Track=4 note_on channel=3 note=63 velocity=100 time=120
Time=27360 Track=4 note_on channel=3 note=66 velocity=100 time=0
Time=27360 Track=4 note_on channel=3 note=70 velocity=100 time=0
Time=27360 Track=10 note_on channel=9 note=36 velocity=127 time=60
Time=27360 Track=10 note_on channel=9 note=42 velocity=100 time=0
Time=27420 Track=10 note_off channel=9 note=36 velocity=0 time=60
Time=27420 Track=10 note_off channel=9 note=42 velocity=0 time=0
Time=27480 Track=4 note_off channel=3 note=63 velocity=0 time=120
Time=27480 Track=4 note_off channel=3 note=66 velocity=0 time=0
Time=27480 Track=4 note_off channel=3 note=70 velocity=0 time=0
Time=27600 Track=2 note_off channel=1 note=34 velocity=64 time=240
Time=27600 Track=4 note_on channel=3 note=63 velocity=100 time=120
Time=27600 Track=4 note_on channel=3 note=66 velocity=100 time=0
Time=27600 Track=4 note_on channel=3 note=70 velocity=100 time=0
Time=27600 Track=5 note_on channel=4 note=51 velocity=100 time=360
Time=27600 Track=5 note_on channel=4 note=54 velocity=100 time=0
Time=27600 Track=5 note_on channel=4 note=58 velocity=100 time=0
Time=27600 Track=10 note_on channel=9 note=40 velocity=120 time=180
Time=27600 Track=10 note_on channel=9 note=42 velocity=100 time=0
Time=27659 Track=10 note_off channel=9 note=40 velocity=0 time=59
Time=27660 Track=10 note_off channel=9 note=42 velocity=0 time=1
Time=27720 Track=4 note_off channel=3 note=63 velocity=0 time=120
Time=27720 Track=4 note_off channel=3 note=66 velocity=0 time=0
Time=27720 Track=4 note_off channel=3 note=70 velocity=0 time=0
Time=27720 Track=5 note_off channel=4 note=51 velocity=0 time=120
Time=27720 Track=5 note_off channel=4 note=54 velocity=0 time=0
Time=27720 Track=5 note_off channel=4 note=58 velocity=0 time=0
Time=27840 Track=2 note_on channel=1 note=27 velocity=100 time=240
Time=27840 Track=10 note_on channel=9 note=36 velocity=127 time=180
Time=27840 Track=10 note_on channel=9 note=41 velocity=127 time=0
Time=27840 Track=10 note_on channel=9 note=42 velocity=100 time=0
Time=27900 Track=10 note_off channel=9 note=36 velocity=0 time=60
Time=27900 Track=10 note_off channel=9 note=41 velocity=0 time=0
Time=27900 Track=10 note_off channel=9 note=42 velocity=0 time=0
Time=28080 Track=2 note_off channel=1 note=27 velocity=64 time=240
Time=28080 Track=4 note_on channel=3 note=63 velocity=100 time=360
Time=28080 Track=4 note_on channel=3 note=66 velocity=100 time=0
Time=28080 Track=4 note_on channel=3 note=70 velocity=100 time=0
Time=28080 Track=5 note_on channel=4 note=51 velocity=100 time=360
Time=28080 Track=5 note_on channel=4 note=54 velocity=100 time=0
Time=28080 Track=5 note_on channel=4 note=58 velocity=100 time=0
Time=28080 Track=10 note_on channel=9 note=40 velocity=60 time=180
Time=28140 Track=10 note_off channel=9 note=40 velocity=0 time=60
Time=28200 Track=4 note_off channel=3 note=63 velocity=0 time=120
Time=28200 Track=4 note_off channel=3 note=66 velocity=0 time=0
Time=28200 Track=4 note_off channel=3 note=70 velocity=0 time=0
Time=28200 Track=5 note_off channel=4 note=51 velocity=0 time=120
Time=28200 Track=5 note_off channel=4 note=54 velocity=0 time=0
Time=28200 Track=5 note_off channel=4 note=58 velocity=0 time=0
Time=28200 Track=10 note_on channel=9 note=40 velocity=120 time=60
Time=28200 Track=10 note_on channel=9 note=42 velocity=100 time=0
Time=28260 Track=10 note_off channel=9 note=40 velocity=0 time=60
Time=28260 Track=10 note_off channel=9 note=42 velocity=0 time=0
Time=28320 Track=2 note_on channel=1 note=37 velocity=100 time=240
Time=28320 Track=4 note_on channel=3 note=63 velocity=100 time=120
Time=28320 Track=4 note_on channel=3 note=66 velocity=100 time=0
Time=28320 Track=4 note_on channel=3 note=70 velocity=100 time=0
Time=28320 Track=10 note_on channel=9 note=36 velocity=127 time=60
Time=28320 Track=10 note_on channel=9 note=42 velocity=100 time=0
Time=28380 Track=10 note_off channel=9 note=36 velocity=0 time=60
Time=28380 Track=10 note_off channel=9 note=42 velocity=0 time=0
Time=28440 Track=4 note_off channel=3 note=63 velocity=0 time=120
Time=28440 Track=4 note_off channel=3 note=66 velocity=0 time=0
Time=28440 Track=4 note_off channel=3 note=70 velocity=0 time=0
Time=28560 Track=4 note_on channel=3 note=63 velocity=100 time=120
Time=28560 Track=4 note_on channel=3 note=66 velocity=100 time=0
Time=28560 Track=4 note_on channel=3 note=70 velocity=100 time=0
Time=28560 Track=5 note_on channel=4 note=51 velocity=100 time=360
Time=28560 Track=5 note_on channel=4 note=54 velocity=100 time=0
Time=28560 Track=5 note_on channel=4 note=58 velocity=100 time=0
Time=28560 Track=7 note_on channel=6 note=77 velocity=106 time=1387
Time=28560 Track=10 note_on channel=9 note=40 velocity=120 time=180
Time=28560 Track=10 note_on channel=9 note=42 velocity=100 time=0
Time=28620 Track=7 note_off channel=6 note=77 velocity=0 time=60
Time=28620 Track=10 note_off channel=9 note=40 velocity=0 time=60
Time=28620 Track=10 note_off channel=9 note=42 velocity=0 time=0
Time=28680 Track=2 note_off channel=1 note=37 velocity=64 time=360
Time=28680 Track=4 note_off channel=3 note=63 velocity=0 time=120
Time=28680 Track=4 note_off channel=3 note=66 velocity=0 time=0
Time=28680 Track=4 note_off channel=3 note=70 velocity=0 time=0
Time=28680 Track=5 note_off channel=4 note=51 velocity=0 time=120
Time=28680 Track=5 note_off channel=4 note=54 velocity=0 time=0
Time=28680 Track=5 note_off channel=4 note=58 velocity=0 time=0
Time=28800 Track=2 note_on channel=1 note=34 velocity=100 time=120
Time=28800 Track=7 note_on channel=6 note=78 velocity=104 time=180
Time=28800 Track=10 note_on channel=9 note=36 velocity=127 time=180
Time=28800 Track=10 note_on channel=9 note=41 velocity=127 time=0
Time=28800 Track=10 note_on channel=9 note=42 velocity=100 time=0
Time=28860 Track=7 note_off channel=6 note=78 velocity=0 time=60
Time=28860 Track=10 note_off channel=9 note=36 velocity=0 time=60
Time=28860 Track=10 note_off channel=9 note=41 velocity=0 time=0
Time=28860 Track=10 note_off channel=9 note=42 velocity=0 time=0
Time=29040 Track=2 note_off channel=1 note=34 velocity=64 time=240
Time=29040 Track=4 note_on channel=3 note=70 velocity=100 time=360
Time=29040 Track=4 note_on channel=3 note=73 velocity=100 time=0
Time=29040 Track=4 note_on channel=3 note=77 velocity=100 time=0
Time=29040 Track=5 note_on channel=4 note=58 velocity=100 time=360
Time=29040 Track=5 note_on channel=4 note=61 velocity=100 time=0
Time=29040 Track=5 note_on channel=4 note=65 velocity=100 time=0
Time=29040 Track=7 note_on channel=6 note=75 velocity=104 time=180
Time=29040 Track=10 note_on channel=9 note=40 velocity=60 time=180
Time=29100 Track=7 note_off channel=6 note=75 velocity=0 time=60
Time=29100 Track=10 note_off channel=9 note=40 velocity=0 time=60
Time=29160 Track=4 note_off channel=3 note=70 velocity=0 time=120
Time=29160 Track=4 note_off channel=3 note=73 velocity=0 time=0
Time=29160 Track=4 note_off channel=3 note=77 velocity=0 time=0
Time=29160 Track=5 note_off channel=4 note=58 velocity=0 time=120
Time=29160 Track=5 note_off channel=4 note=61 velocity=0 time=0
Time=29160 Track=5 note_off channel=4 note=65 velocity=0 time=0
Time=29160 Track=10 note_on channel=9 note=40 velocity=120 time=60
Time=29160 Track=10 note_on channel=9 note=42 velocity=100 time=0
Time=29220 Track=10 note_off channel=9 note=40 velocity=0 time=60
Time=29220 Track=10 note_off channel=9 note=42 velocity=0 time=0
Time=29280 Track=2 note_on channel=1 note=41 velocity=100 time=240
Time=29280 Track=4 note_on channel=3 note=70 velocity=100 time=120
Time=29280 Track=4 note_on channel=3 note=73 velocity=100 time=0
Time=29280 Track=4 note_on channel=3 note=77 velocity=100 time=0
Time=29280 Track=10 note_on channel=9 note=36 velocity=127 time=60
Time=29280 Track=10 note_on channel=9 note=42 velocity=100 time=0
Time=29340 Track=10 note_off channel=9 note=36 velocity=0 time=60
Time=29340 Track=10 note_off channel=9 note=42 velocity=0 time=0
Time=29400 Track=4 note_off channel=3 note=70 velocity=0 time=120
Time=29400 Track=4 note_off channel=3 note=73 velocity=0 time=0
Time=29400 Track=4 note_off channel=3 note=77 velocity=0 time=0
Time=29520 Track=2 note_off channel=1 note=41 velocity=64 time=240
Time=29520 Track=4 note_on channel=3 note=70 velocity=100 time=120
Time=29520 Track=4 note_on channel=3 note=73 velocity=100 time=0
Time=29520 Track=4 note_on channel=3 note=77 velocity=100 time=0
Time=29520 Track=5 note_on channel=4 note=58 velocity=100 time=360
Time=29520 Track=5 note_on channel=4 note=61 velocity=100 time=0
Time=29520 Track=5 note_on channel=4 note=65 velocity=100 time=0
Time=29520 Track=10 note_on channel=9 note=40 velocity=120 time=180
Time=29520 Track=10 note_on channel=9 note=42 velocity=100 time=0
Time=29580 Track=10 note_off channel=9 note=40 velocity=0 time=60
Time=29580 Track=10 note_off channel=9 note=42 velocity=0 time=0
Time=29640 Track=4 note_off channel=3 note=70 velocity=0 time=120
Time=29640 Track=4 note_off channel=3 note=73 velocity=0 time=0
Time=29640 Track=4 note_off channel=3 note=77 velocity=0 time=0
Time=29640 Track=5 note_off channel=4 note=58 velocity=0 time=120
Time=29640 Track=5 note_off channel=4 note=61 velocity=0 time=0
Time=29640 Track=5 note_off channel=4 note=65 velocity=0 time=0
Time=29760 Track=2 note_on channel=1 note=32 velocity=100 time=240
Time=29760 Track=10 note_on channel=9 note=36 velocity=127 time=180
Time=29760 Track=10 note_on channel=9 note=41 velocity=127 time=0
Time=29760 Track=10 note_on channel=9 note=42 velocity=100 time=0
Time=29817 Track=10 note_off channel=9 note=42 velocity=0 time=57
Time=29820 Track=10 note_off channel=9 note=36 velocity=0 time=3
Time=29820 Track=10 note_off channel=9 note=41 velocity=0 time=0
Time=30000 Track=2 note_off channel=1 note=32 velocity=64 time=240
Time=30000 Track=4 note_on channel=3 note=68 velocity=100 time=360
Time=30000 Track=4 note_on channel=3 note=72 velocity=100 time=0
Time=30000 Track=4 note_on channel=3 note=75 velocity=100 time=0
Time=30000 Track=5 note_on channel=4 note=56 velocity=100 time=360
Time=30000 Track=5 note_on channel=4 note=60 velocity=100 time=0
Time=30000 Track=5 note_on channel=4 note=63 velocity=100 time=0
Time=30000 Track=10 note_on channel=9 note=40 velocity=60 time=180
Time=30059 Track=10 note_off channel=9 note=40 velocity=0 time=59
Time=30120 Track=4 note_off channel=3 note=68 velocity=0 time=120
Time=30120 Track=4 note_off channel=3 note=72 velocity=0 time=0
Time=30120 Track=4 note_off channel=3 note=75 velocity=0 time=0
Time=30120 Track=5 note_off channel=4 note=56 velocity=0 time=120
Time=30120 Track=5 note_off channel=4 note=60 velocity=0 time=0
Time=30120 Track=5 note_off channel=4 note=63 velocity=0 time=0
Time=30120 Track=10 note_on channel=9 note=40 velocity=120 time=61
Time=30120 Track=10 note_on channel=9 note=42 velocity=100 time=0
Time=30180 Track=10 note_off channel=9 note=40 velocity=0 time=60
Time=30180 Track=10 note_off channel=9 note=42 velocity=0 time=0
Time=30240 Track=2 note_on channel=1 note=39 velocity=100 time=240
Time=30240 Track=4 note_on channel=3 note=68 velocity=100 time=120
Time=30240 Track=4 note_on channel=3 note=72 velocity=100 time=0
Time=30240 Track=4 note_on channel=3 note=75 velocity=100 time=0
Time=30240 Track=10 note_on channel=9 note=36 velocity=127 time=60
Time=30240 Track=10 note_on channel=9 note=42 velocity=100 time=0
Time=30300 Track=10 note_off channel=9 note=36 velocity=0 time=60
Time=30301 Track=10 note_off channel=9 note=42 velocity=0 time=1
Time=30360 Track=2 note_off channel=1 note=39 velocity=64 time=120
Time=30360 Track=4 note_off channel=3 note=68 velocity=0 time=120
Time=30360 Track=4 note_off channel=3 note=72 velocity=0 time=0
Time=30360 Track=4 note_off channel=3 note=75 velocity=0 time=0
Time=30480 Track=2 note_on channel=1 note=37 velocity=100 time=120
Time=30480 Track=4 note_on channel=3 note=68 velocity=100 time=120
Time=30480 Track=4 note_on channel=3 note=72 velocity=100 time=0
Time=30480 Track=4 note_on channel=3 note=75 velocity=100 time=0
Time=30480 Track=5 note_on channel=4 note=56 velocity=100 time=360
Time=30480 Track=5 note_on channel=4 note=60 velocity=100 time=0
Time=30480 Track=5 note_on channel=4 note=63 velocity=100 time=0
Time=30480 Track=7 note_on channel=6 note=75 velocity=96 time=1380
Time=30480 Track=10 note_on channel=9 note=40 velocity=120 time=179
Time=30480 Track=10 note_on channel=9 note=42 velocity=100 time=0
Time=30540 Track=7 note_off channel=6 note=75 velocity=0 time=60
Time=30540 Track=10 note_off channel=9 note=40 velocity=0 time=60
Time=30540 Track=10 note_off channel=9 note=42 velocity=0 time=0
Time=30600 Track=2 note_off channel=1 note=37 velocity=64 time=120
Time=30600 Track=4 note_off channel=3 note=68 velocity=0 time=120
Time=30600 Track=4 note_off channel=3 note=72 velocity=0 time=0
Time=30600 Track=4 note_off channel=3 note=75 velocity=0 time=0
Time=30600 Track=5 note_off channel=4 note=56 velocity=0 time=120
Time=30600 Track=5 note_off channel=4 note=60 velocity=0 time=0
Time=30600 Track=5 note_off channel=4 note=63 velocity=0 time=0
Time=30720 Track=2 note_on channel=1 note=27 velocity=100 time=120
Time=30720 Track=7 note_on channel=6 note=77 velocity=89 time=180
Time=30720 Track=10 note_on channel=9 note=36 velocity=127 time=180
Time=30720 Track=10 note_on channel=9 note=41 velocity=127 time=0
Time=30720 Track=10 note_on channel=9 note=42 velocity=100 time=0
Time=30780 Track=7 note_off channel=6 note=77 velocity=0 time=60
Time=30780 Track=10 note_off channel=9 note=36 velocity=0 time=60
Time=30780 Track=10 note_off channel=9 note=41 velocity=0 time=0
Time=30780 Track=10 note_off channel=9 note=42 velocity=0 time=0
Time=30960 Track=4 note_on channel=3 note=63 velocity=100 time=360
Time=30960 Track=4 note_on channel=3 note=66 velocity=100 time=0
Time=30960 Track=4 note_on channel=3 note=70 velocity=100 time=0
Time=30960 Track=5 note_on channel=4 note=51 velocity=100 time=360
Time=30960 Track=5 note_on channel=4 note=54 velocity=100 time=0
Time=30960 Track=5 note_on channel=4 note=58 velocity=100 time=0
Time=30960 Track=7 note_on channel=6 note=75 velocity=100 time=180
Time=30960 Track=10 note_on channel=9 note=40 velocity=60 time=180
Time=31020 Track=7 note_off channel=6 note=75 velocity=0 time=60
Time=31020 Track=10 note_off channel=9 note=40 velocity=0 time=60
Time=31080 Track=2 note_off channel=1 note=27 velocity=64 time=360
Time=31080 Track=4 note_off channel=3 note=63 velocity=0 time=120
Time=31080 Track=4 note_off channel=3 note=66 velocity=0 time=0
Time=31080 Track=4 note_off channel=3 note=70 velocity=0 time=0
Time=31080 Track=5 note_off channel=4 note=51 velocity=0 time=120
Time=31080 Track=5 note_off channel=4 note=54 velocity=0 time=0
Time=31080 Track=5 note_off channel=4 note=58 velocity=0 time=0
Time=31080 Track=10 note_on channel=9 note=40 velocity=120 time=60
Time=31080 Track=10 note_on channel=9 note=42 velocity=100 time=0
Time=31140 Track=10 note_off channel=9 note=40 velocity=0 time=60
Time=31140 Track=10 note_off channel=9 note=42 velocity=0 time=0
Time=31200 Track=2 note_on channel=1 note=34 velocity=100 time=120
Time=31200 Track=4 note_on channel=3 note=63 velocity=100 time=120
Time=31200 Track=4 note_on channel=3 note=66 velocity=100 time=0
Time=31200 Track=4 note_on channel=3 note=70 velocity=100 time=0
Time=31200 Track=10 note_on channel=9 note=36 velocity=127 time=60
Time=31200 Track=10 note_on channel=9 note=42 velocity=100 time=0
Time=31260 Track=10 note_off channel=9 note=36 velocity=0 time=60
Time=31260 Track=10 note_off channel=9 note=42 velocity=0 time=0
Time=31320 Track=4 note_off channel=3 note=63 velocity=0 time=120
Time=31320 Track=4 note_off channel=3 note=66 velocity=0 time=0
Time=31320 Track=4 note_off channel=3 note=70 velocity=0 time=0
Time=31440 Track=2 note_off channel=1 note=34 velocity=64 time=240
Time=31440 Track=4 note_on channel=3 note=63 velocity=100 time=120
Time=31440 Track=4 note_on channel=3 note=66 velocity=100 time=0
Time=31440 Track=4 note_on channel=3 note=70 velocity=100 time=0
Time=31440 Track=5 note_on channel=4 note=51 velocity=100 time=360
Time=31440 Track=5 note_on channel=4 note=54 velocity=100 time=0
Time=31440 Track=5 note_on channel=4 note=58 velocity=100 time=0
Time=31440 Track=10 note_on channel=9 note=40 velocity=120 time=180
Time=31440 Track=10 note_on channel=9 note=42 velocity=100 time=0
Time=31500 Track=10 note_off channel=9 note=40 velocity=0 time=60
Time=31500 Track=10 note_off channel=9 note=42 velocity=0 time=0
Time=31560 Track=4 note_off channel=3 note=63 velocity=0 time=120
Time=31560 Track=4 note_off channel=3 note=66 velocity=0 time=0
Time=31560 Track=4 note_off channel=3 note=70 velocity=0 time=0
Time=31560 Track=5 note_off channel=4 note=51 velocity=0 time=120
Time=31560 Track=5 note_off channel=4 note=54 velocity=0 time=0
Time=31560 Track=5 note_off channel=4 note=58 velocity=0 time=0
Time=31680 Track=2 note_on channel=1 note=27 velocity=100 time=240
Time=31680 Track=10 note_on channel=9 note=36 velocity=127 time=180
Time=31680 Track=10 note_on channel=9 note=41 velocity=127 time=0
Time=31680 Track=10 note_on channel=9 note=42 velocity=100 time=0
Time=31740 Track=10 note_off channel=9 note=36 velocity=0 time=60
Time=31740 Track=10 note_off channel=9 note=41 velocity=0 time=0
Time=31740 Track=10 note_off channel=9 note=42 velocity=0 time=0
Time=31920 Track=2 note_off channel=1 note=27 velocity=64 time=240
Time=32040 Track=10 note_on channel=9 note=40 velocity=120 time=300
Time=32100 Track=10 note_off channel=9 note=40 velocity=0 time=60
Time=32160 Track=2 note_on channel=1 note=37 velocity=100 time=240
Time=32280 Track=10 note_on channel=9 note=40 velocity=120 time=180
Time=32340 Track=10 note_off channel=9 note=40 velocity=0 time=60
Time=32400 Track=10 note_on channel=9 note=40 velocity=120 time=60
Time=32460 Track=10 note_off channel=9 note=40 velocity=0 time=60
Time=32520 Track=2 note_off channel=1 note=37 velocity=64 time=360
Time=32520 Track=10 note_on channel=9 note=36 velocity=120 time=60
Time=32580 Track=10 note_off channel=9 note=36 velocity=0 time=60
Time=32640 Track=2 note_on channel=1 note=34 velocity=100 time=120
Time=32640 Track=6 note_on channel=5 note=70 velocity=76 time=6720
Time=32640 Track=10 note_on channel=9 note=36 velocity=127 time=60
Time=32640 Track=10 note_on channel=9 note=41 velocity=127 time=0
Time=32640 Track=10 note_on channel=9 note=42 velocity=100 time=0
Time=32700 Track=10 note_off channel=9 note=42 velocity=0 time=60
Time=32701 Track=10 note_off channel=9 note=36 velocity=0 time=1
Time=32701 Track=10 note_off channel=9 note=41 velocity=0 time=0
Time=32880 Track=2 note_off channel=1 note=34 velocity=64 time=240
Time=32880 Track=4 note_on channel=3 note=70 velocity=100 time=1320
Time=32880 Track=4 note_on channel=3 note=73 velocity=100 time=0
Time=32880 Track=4 note_on channel=3 note=77 velocity=100 time=0
Time=32880 Track=5 note_on channel=4 note=70 velocity=100 time=1320
Time=32880 Track=5 note_on channel=4 note=73 velocity=100 time=0
Time=32880 Track=5 note_on channel=4 note=77 velocity=100 time=0
Time=32880 Track=10 note_on channel=9 note=54 velocity=100 time=179
Time=32910 Track=10 note_off channel=9 note=54 velocity=64 time=30
Time=33000 Track=2 note_on channel=1 note=34 velocity=100 time=120
Time=33000 Track=4 note_off channel=3 note=70 velocity=0 time=120
Time=33000 Track=4 note_off channel=3 note=73 velocity=0 time=0
Time=33000 Track=4 note_off channel=3 note=77 velocity=0 time=0
Time=33000 Track=5 note_off channel=4 note=70 velocity=0 time=120
Time=33000 Track=5 note_off channel=4 note=73 velocity=0 time=0
Time=33000 Track=5 note_off channel=4 note=77 velocity=0 time=0
Time=33000 Track=10 note_on channel=9 note=40 velocity=100 time=90
Time=33000 Track=10 note_on channel=9 note=37 velocity=127 time=0
Time=33000 Track=10 note_on channel=9 note=42 velocity=100 time=0
Time=33060 Track=10 note_off channel=9 note=40 velocity=0 time=60
Time=33060 Track=10 note_off channel=9 note=37 velocity=0 time=0
Time=33060 Track=10 note_off channel=9 note=42 velocity=0 time=0
Time=33120 Track=2 note_off channel=1 note=34 velocity=64 time=120
Time=33120 Track=2 note_on channel=1 note=41 velocity=100 time=0
Time=33120 Track=10 note_on channel=9 note=36 velocity=127 time=60
Time=33120 Track=10 note_on channel=9 note=42 velocity=100 time=0
Time=33180 Track=10 note_off channel=9 note=36 velocity=0 time=60
Time=33182 Track=10 note_off channel=9 note=42 velocity=0 time=2
Time=33240 Track=2 note_off channel=1 note=41 velocity=64 time=120
Time=33240 Track=2 note_on channel=1 note=41 velocity=100 time=0
Time=33240 Track=10 note_on channel=9 note=54 velocity=100 time=58
Time=33270 Track=10 note_off channel=9 note=54 velocity=64 time=30
Time=33360 Track=2 note_off channel=1 note=41 velocity=64 time=120
Time=33360 Track=2 note_on channel=1 note=41 velocity=100 time=0
Time=33360 Track=4 note_on channel=3 note=70 velocity=100 time=360
Time=33360 Track=4 note_on channel=3 note=73 velocity=100 time=0
Time=33360 Track=4 note_on channel=3 note=77 velocity=100 time=0
Time=33360 Track=5 note_on channel=4 note=70 velocity=100 time=360
Time=33360 Track=5 note_on channel=4 note=73 velocity=100 time=0
Time=33360 Track=5 note_on channel=4 note=77 velocity=100 time=0
Time=33360 Track=10 note_on channel=9 note=40 velocity=100 time=90
Time=33360 Track=10 note_on channel=9 note=37 velocity=127 time=0
Time=33360 Track=10 note_on channel=9 note=42 velocity=100 time=0
Time=33420 Track=10 note_off channel=9 note=40 velocity=0 time=60
Time=33420 Track=10 note_off channel=9 note=37 velocity=0 time=0
Time=33420 Track=10 note_off channel=9 note=42 velocity=0 time=0
Time=33480 Track=2 note_off channel=1 note=41 velocity=64 time=120
Time=33480 Track=4 note_off channel=3 note=70 velocity=0 time=120
Time=33480 Track=4 note_off channel=3 note=73 velocity=0 time=0
Time=33480 Track=4 note_off channel=3 note=77 velocity=0 time=0
Time=33480 Track=5 note_off channel=4 note=70 velocity=0 time=120
Time=33480 Track=5 note_off channel=4 note=73 velocity=0 time=0
Time=33480 Track=5 note_off channel=4 note=77 velocity=0 time=0
Time=33600 Track=2 note_on channel=1 note=32 velocity=100 time=120
Time=33600 Track=6 note_off channel=5 note=70 velocity=0 time=960
Time=33600 Track=9 note_on channel=7 note=63 velocity=100 time=206
Time=33600 Track=10 note_on channel=9 note=36 velocity=127 time=180
Time=33600 Track=10 note_on channel=9 note=41 velocity=127 time=0
Time=33600 Track=10 note_on channel=9 note=42 velocity=100 time=0
Time=33660 Track=10 note_off channel=9 note=36 velocity=0 time=60
Time=33660 Track=10 note_off channel=9 note=41 velocity=0 time=0
Time=33660 Track=10 note_off channel=9 note=42 velocity=0 time=0
Time=33720 Track=2 note_off channel=1 note=32 velocity=64 time=120
Time=33780 Track=9 note_off channel=7 note=63 velocity=0 time=180
Time=33840 Track=4 note_on channel=3 note=68 velocity=100 time=360
Time=33840 Track=4 note_on channel=3 note=72 velocity=100 time=0
Time=33840 Track=4 note_on channel=3 note=75 velocity=100 time=0
Time=33840 Track=5 note_on channel=4 note=68 velocity=100 time=360
Time=33840 Track=5 note_on channel=4 note=72 velocity=100 time=0
Time=33840 Track=5 note_on channel=4 note=75 velocity=100 time=0
Time=33840 Track=10 note_on channel=9 note=54 velocity=100 time=180
Time=33870 Track=10 note_off channel=9 note=54 velocity=64 time=30
Time=33960 Track=2 note_on channel=1 note=32 velocity=100 time=240
Time=33960 Track=4 note_off channel=3 note=68 velocity=0 time=120
Time=33960 Track=4 note_off channel=3 note=72 velocity=0 time=0
Time=33960 Track=4 note_off channel=3 note=75 velocity=0 time=0
Time=33960 Track=5 note_off channel=4 note=68 velocity=0 time=120
Time=33960 Track=5 note_off channel=4 note=72 velocity=0 time=0
Time=33960 Track=5 note_off channel=4 note=75 velocity=0 time=0
Time=33960 Track=9 note_on channel=7 note=63 velocity=100 time=180
Time=33960 Track=10 note_on channel=9 note=40 velocity=100 time=90
Time=33960 Track=10 note_on channel=9 note=37 velocity=127 time=0
Time=33960 Track=10 note_on channel=9 note=42 velocity=100 time=0
Time=34020 Track=10 note_off channel=9 note=40 velocity=0 time=60
Time=34020 Track=10 note_off channel=9 note=37 velocity=0 time=0
Time=34020 Track=10 note_off channel=9 note=42 velocity=0 time=0
Time=34080 Track=2 note_off channel=1 note=32 velocity=64 time=120
Time=34080 Track=2 note_on channel=1 note=39 velocity=100 time=0
Time=34080 Track=7 note_on channel=6 note=80 velocity=98 time=3060
Time=34080 Track=9 note_off channel=7 note=63 velocity=0 time=120
Time=34080 Track=10 note_on channel=9 note=36 velocity=127 time=60
Time=34080 Track=10 note_on channel=9 note=42 velocity=100 time=0
Time=34140 Track=10 note_off channel=9 note=36 velocity=0 time=60
Time=34140 Track=10 note_off channel=9 note=42 velocity=0 time=0
Time=34200 Track=2 note_off channel=1 note=39 velocity=64 time=120
Time=34200 Track=2 note_on channel=1 note=39 velocity=100 time=0
Time=34200 Track=10 note_on channel=9 note=54 velocity=100 time=60
Time=34230 Track=10 note_off channel=9 note=54 velocity=64 time=30
Time=34320 Track=2 note_off channel=1 note=39 velocity=64 time=120
Time=34320 Track=2 note_on channel=1 note=39 velocity=100 time=0
Time=34320 Track=4 note_on channel=3 note=68 velocity=100 time=360
Time=34320 Track=4 note_on channel=3 note=72 velocity=100 time=0
Time=34320 Track=4 note_on channel=3 note=75 velocity=100 time=0
Time=34320 Track=5 note_on channel=4 note=68 velocity=100 time=360
Time=34320 Track=5 note_on channel=4 note=72 velocity=100 time=0
Time=34320 Track=5 note_on channel=4 note=75 velocity=100 time=0
Time=34320 Track=9 note_on channel=7 note=68 velocity=100 time=240
Time=34320 Track=10 note_on channel=9 note=40 velocity=100 time=90
Time=34320 Track=10 note_on channel=9 note=37 velocity=127 time=0
Time=34320 Track=10 note_on channel=9 note=42 velocity=100 time=0
Time=34380 Track=10 note_off channel=9 note=40 velocity=0 time=60
Time=34380 Track=10 note_off channel=9 note=37 velocity=0 time=0
Time=34380 Track=10 note_off channel=9 note=42 velocity=0 time=0
Time=34440 Track=2 note_off channel=1 note=39 velocity=64 time=120
Time=34440 Track=4 note_off channel=3 note=68 velocity=0 time=120
Time=34440 Track=4 note_off channel=3 note=72 velocity=0 time=0
Time=34440 Track=4 note_off channel=3 note=75 velocity=0 time=0
Time=34440 Track=5 note_off channel=4 note=68 velocity=0 time=120
Time=34440 Track=5 note_off channel=4 note=72 velocity=0 time=0
Time=34440 Track=5 note_off channel=4 note=75 velocity=0 time=0
Time=34440 Track=9 note_off channel=7 note=68 velocity=0 time=120
Time=34560 Track=2 note_on channel=1 note=27 velocity=100 time=120
Time=34560 Track=7 note_off channel=6 note=80 velocity=0 time=480
Time=34560 Track=7 note_on channel=6 note=78 velocity=95 time=0
Time=34560 Track=9 note_on channel=7 note=66 velocity=100 time=120
Time=34560 Track=10 note_on channel=9 note=36 velocity=127 time=180
Time=34560 Track=10 note_on channel=9 note=41 velocity=127 time=0
Time=34560 Track=10 note_on channel=9 note=42 velocity=100 time=0
Time=34620 Track=10 note_off channel=9 note=36 velocity=0 time=60
Time=34620 Track=10 note_off channel=9 note=41 velocity=0 time=0
Time=34620 Track=10 note_off channel=9 note=42 velocity=0 time=0
Time=34680 Track=2 note_off channel=1 note=27 velocity=64 time=120
Time=34740 Track=9 note_off channel=7 note=66 velocity=0 time=180
Time=34800 Track=4 note_on channel=3 note=63 velocity=100 time=360
Time=34800 Track=4 note_on channel=3 note=66 velocity=100 time=0
Time=34800 Track=4 note_on channel=3 note=70 velocity=100 time=0
Time=34800 Track=5 note_on channel=4 note=63 velocity=100 time=360
Time=34800 Track=5 note_on channel=4 note=66 velocity=100 time=0
Time=34800 Track=5 note_on channel=4 note=70 velocity=100 time=0
Time=34800 Track=10 note_on channel=9 note=54 velocity=100 time=180
Time=34830 Track=10 note_off channel=9 note=54 velocity=64 time=30
Time=34920 Track=2 note_on channel=1 note=27 velocity=100 time=240
Time=34920 Track=4 note_off channel=3 note=63 velocity=0 time=120
Time=34920 Track=4 note_off channel=3 note=66 velocity=0 time=0
Time=34920 Track=4 note_off channel=3 note=70 velocity=0 time=0
Time=34920 Track=5 note_off channel=4 note=63 velocity=0 time=120
Time=34920 Track=5 note_off channel=4 note=66 velocity=0 time=0
Time=34920 Track=5 note_off channel=4 note=70 velocity=0 time=0
Time=34920 Track=9 note_on channel=7 note=66 velocity=100 time=180
Time=34920 Track=10 note_on channel=9 note=40 velocity=100 time=90
Time=34920 Track=10 note_on channel=9 note=37 velocity=127 time=0
Time=34920 Track=10 note_on channel=9 note=42 velocity=100 time=0
Time=34979 Track=10 note_off channel=9 note=40 velocity=0 time=59
Time=34979 Track=10 note_off channel=9 note=37 velocity=0 time=0
Time=34980 Track=10 note_off channel=9 note=42 velocity=0 time=1
Time=35040 Track=2 note_off channel=1 note=27 velocity=64 time=120
Time=35040 Track=2 note_on channel=1 note=34 velocity=100 time=0
Time=35040 Track=9 note_off channel=7 note=66 velocity=0 time=120
Time=35040 Track=10 note_on channel=9 note=36 velocity=127 time=60
Time=35040 Track=10 note_on channel=9 note=42 velocity=100 time=0
Time=35100 Track=10 note_off channel=9 note=36 velocity=0 time=60
Time=35100 Track=10 note_off channel=9 note=42 velocity=0 time=0
Time=35160 Track=2 note_off channel=1 note=34 velocity=64 time=120
Time=35160 Track=2 note_on channel=1 note=34 velocity=100 time=0
Time=35160 Track=10 note_on channel=9 note=54 velocity=100 time=60
Time=35190 Track=10 note_off channel=9 note=54 velocity=64 time=30
Time=35280 Track=2 note_off channel=1 note=34 velocity=64 time=120
Time=35280 Track=2 note_on channel=1 note=34 velocity=100 time=0
Time=35280 Track=4 note_on channel=3 note=63 velocity=100 time=360
Time=35280 Track=4 note_on channel=3 note=66 velocity=100 time=0
Time=35280 Track=4 note_on channel=3 note=70 velocity=100 time=0
Time=35280 Track=5 note_on channel=4 note=63 velocity=100 time=360
Time=35280 Track=5 note_on channel=4 note=66 velocity=100 time=0
Time=35280 Track=5 note_on channel=4 note=70 velocity=100 time=0
Time=35280 Track=9 note_on channel=7 note=66 velocity=100 time=240
Time=35280 Track=10 note_on channel=9 note=40 velocity=100 time=90
Time=35280 Track=10 note_on channel=9 note=37 velocity=127 time=0
Time=35280 Track=10 note_on channel=9 note=42 velocity=100 time=0
Time=35339 Track=10 note_off channel=9 note=40 velocity=0 time=59
Time=35339 Track=10 note_off channel=9 note=37 velocity=0 time=0
Time=35340 Track=10 note_off channel=9 note=42 velocity=0 time=1
Time=35369 Track=9 note_off channel=7 note=66 velocity=0 time=89
Time=35400 Track=2 note_off channel=1 note=34 velocity=64 time=120
Time=35400 Track=4 note_off channel=3 note=63 velocity=0 time=120
Time=35400 Track=4 note_off channel=3 note=66 velocity=0 time=0
Time=35400 Track=4 note_off channel=3 note=70 velocity=0 time=0
Time=35400 Track=5 note_off channel=4 note=63 velocity=0 time=120
Time=35400 Track=5 note_off channel=4 note=66 velocity=0 time=0
Time=35400 Track=5 note_off channel=4 note=70 velocity=0 time=0
Time=35520 Track=2 note_on channel=1 note=39 velocity=100 time=120
Time=35520 Track=7 note_off channel=6 note=78 velocity=0 time=960
Time=35520 Track=9 note_on channel=7 note=66 velocity=100 time=151
Time=35520 Track=10 note_on channel=9 note=36 velocity=127 time=180
Time=35520 Track=10 note_on channel=9 note=41 velocity=127 time=0
Time=35520 Track=10 note_on channel=9 note=42 velocity=100 time=0
Time=35580 Track=10 note_off channel=9 note=36 velocity=0 time=60
Time=35580 Track=10 note_off channel=9 note=41 velocity=0 time=0
Time=35580 Track=10 note_off channel=9 note=42 velocity=0 time=0
Time=35602 Track=9 note_off channel=7 note=66 velocity=0 time=3
Time=35640 Track=2 note_off channel=1 note=39 velocity=64 time=120
Time=35640 Track=9 note_on channel=7 note=70 velocity=100 time=11
Time=35760 Track=4 note_on channel=3 note=63 velocity=100 time=360
Time=35760 Track=4 note_on channel=3 note=66 velocity=100 time=0
Time=35760 Track=4 note_on channel=3 note=70 velocity=100 time=0
Time=35760 Track=5 note_on channel=4 note=63 velocity=100 time=360
Time=35760 Track=5 note_on channel=4 note=66 velocity=100 time=0
Time=35760 Track=5 note_on channel=4 note=70 velocity=100 time=0
Time=35760 Track=9 note_off channel=7 note=70 velocity=0 time=120
Time=35760 Track=9 note_on channel=7 note=75 velocity=100 time=0
Time=35760 Track=10 note_on channel=9 note=54 velocity=100 time=180
Time=35790 Track=10 note_off channel=9 note=54 velocity=64 time=30
Time=35864 Track=9 note_off channel=7 note=75 velocity=0 time=3
Time=35880 Track=4 note_off channel=3 note=63 velocity=0 time=120
Time=35880 Track=4 note_off channel=3 note=66 velocity=0 time=0
Time=35880 Track=4 note_off channel=3 note=70 velocity=0 time=0
Time=35880 Track=5 note_off channel=4 note=63 velocity=0 time=120
Time=35880 Track=5 note_off channel=4 note=66 velocity=0 time=0
Time=35880 Track=5 note_off channel=4 note=70 velocity=0 time=0
Time=35880 Track=9 note_on channel=7 note=77 velocity=100 time=16
Time=35880 Track=10 note_on channel=9 note=40 velocity=100 time=90
Time=35880 Track=10 note_on channel=9 note=37 velocity=127 time=0
Time=35880 Track=10 note_on channel=9 note=42 velocity=100 time=0
Time=35940 Track=10 note_off channel=9 note=40 velocity=0 time=60
Time=35940 Track=10 note_off channel=9 note=37 velocity=0 time=0
Time=35940 Track=10 note_off channel=9 note=42 velocity=0 time=0
Time=35953 Track=9 note_off channel=7 note=77 velocity=0 time=27
Time=36000 Track=2 note_on channel=1 note=37 velocity=100 time=360
Time=36000 Track=9 note_on channel=7 note=78 velocity=100 time=43
Time=36000 Track=10 note_on channel=9 note=36 velocity=127 time=60
Time=36000 Track=10 note_on channel=9 note=42 velocity=100 time=0
Time=36060 Track=10 note_off channel=9 note=36 velocity=0 time=60
Time=36060 Track=10 note_off channel=9 note=42 velocity=0 time=0
Time=36112 Track=9 note_off channel=7 note=78 velocity=0 time=28
Time=36120 Track=2 note_off channel=1 note=37 velocity=64 time=120
Time=36120 Track=2 note_on channel=1 note=37 velocity=100 time=0
Time=36120 Track=9 note_on channel=7 note=77 velocity=100 time=8
Time=36120 Track=10 note_on channel=9 note=54 velocity=100 time=60
Time=36150 Track=10 note_off channel=9 note=54 velocity=64 time=30
Time=36208 Track=9 note_off channel=7 note=77 velocity=0 time=42
Time=36240 Track=2 note_off channel=1 note=37 velocity=64 time=120
Time=36240 Track=2 note_on channel=1 note=37 velocity=100 time=0
Time=36240 Track=4 note_on channel=3 note=63 velocity=100 time=360
Time=36240 Track=4 note_on channel=3 note=66 velocity=100 time=0
Time=36240 Track=4 note_on channel=3 note=70 velocity=100 time=0
Time=36240 Track=5 note_on channel=4 note=63 velocity=100 time=360
Time=36240 Track=5 note_on channel=4 note=66 velocity=100 time=0
Time=36240 Track=5 note_on channel=4 note=70 velocity=100 time=0
Time=36240 Track=10 note_on channel=9 note=40 velocity=100 time=90
Time=36240 Track=10 note_on channel=9 note=37 velocity=127 time=0
Time=36240 Track=10 note_on channel=9 note=42 velocity=100 time=0
Time=36300 Track=10 note_off channel=9 note=40 velocity=0 time=60
Time=36300 Track=10 note_off channel=9 note=37 velocity=0 time=0
Time=36300 Track=10 note_off channel=9 note=42 velocity=0 time=0
Time=36360 Track=2 note_off channel=1 note=37 velocity=64 time=120
Time=36360 Track=4 note_off channel=3 note=63 velocity=0 time=120
Time=36360 Track=4 note_off channel=3 note=66 velocity=0 time=0
Time=36360 Track=4 note_off channel=3 note=70 velocity=0 time=0
Time=36360 Track=5 note_off channel=4 note=63 velocity=0 time=120
Time=36360 Track=5 note_off channel=4 note=66 velocity=0 time=0
Time=36360 Track=5 note_off channel=4 note=70 velocity=0 time=0
Time=36480 Track=2 note_on channel=1 note=34 velocity=100 time=120
Time=36480 Track=7 note_on channel=6 note=77 velocity=92 time=960
Time=36480 Track=10 note_on channel=9 note=36 velocity=127 time=180
Time=36480 Track=10 note_on channel=9 note=41 velocity=127 time=0
Time=36480 Track=10 note_on channel=9 note=42 velocity=100 time=0
Time=36540 Track=10 note_off channel=9 note=36 velocity=0 time=60
Time=36540 Track=10 note_off channel=9 note=41 velocity=0 time=0
Time=36540 Track=10 note_off channel=9 note=42 velocity=0 time=0
Time=36720 Track=2 note_off channel=1 note=34 velocity=64 time=240
Time=36720 Track=4 note_on channel=3 note=70 velocity=100 time=360
Time=36720 Track=4 note_on channel=3 note=73 velocity=100 time=0
Time=36720 Track=4 note_on channel=3 note=77 velocity=100 time=0
Time=36720 Track=5 note_on channel=4 note=70 velocity=100 time=360
Time=36720 Track=5 note_on channel=4 note=73 velocity=100 time=0
Time=36720 Track=5 note_on channel=4 note=77 velocity=100 time=0
Time=36720 Track=10 note_on channel=9 note=54 velocity=100 time=180
Time=36750 Track=10 note_off channel=9 note=54 velocity=64 time=30
Time=36840 Track=2 note_on channel=1 note=34 velocity=100 time=120
Time=36840 Track=4 note_off channel=3 note=70 velocity=0 time=120
Time=36840 Track=4 note_off channel=3 note=73 velocity=0 time=0
Time=36840 Track=4 note_off channel=3 note=77 velocity=0 time=0
Time=36840 Track=5 note_off channel=4 note=70 velocity=0 time=120
Time=36840 Track=5 note_off channel=4 note=73 velocity=0 time=0
Time=36840 Track=5 note_off channel=4 note=77 velocity=0 time=0
Time=36840 Track=10 note_on channel=9 note=40 velocity=100 time=90
Time=36840 Track=10 note_on channel=9 note=37 velocity=127 time=0
Time=36840 Track=10 note_on channel=9 note=42 velocity=100 time=0
Time=36900 Track=10 note_off channel=9 note=40 velocity=0 time=60
Time=36900 Track=10 note_off channel=9 note=37 velocity=0 time=0
Time=36900 Track=10 note_off channel=9 note=42 velocity=0 time=0
Time=36960 Track=2 note_off channel=1 note=34 velocity=64 time=120
Time=36960 Track=2 note_on channel=1 note=41 velocity=100 time=0
Time=36960 Track=10 note_on channel=9 note=36 velocity=127 time=60
Time=36960 Track=10 note_on channel=9 note=42 velocity=100 time=0
Time=37020 Track=10 note_off channel=9 note=36 velocity=0 time=60
Time=37020 Track=10 note_off channel=9 note=42 velocity=0 time=0
Time=37080 Track=2 note_off channel=1 note=41 velocity=64 time=120
Time=37080 Track=2 note_on channel=1 note=41 velocity=100 time=0
Time=37080 Track=10 note_on channel=9 note=54 velocity=100 time=60
Time=37110 Track=10 note_off channel=9 note=54 velocity=64 time=30
Time=37200 Track=2 note_off channel=1 note=41 velocity=64 time=120
Time=37200 Track=2 note_on channel=1 note=41 velocity=100 time=0
Time=37200 Track=4 note_on channel=3 note=70 velocity=100 time=360
Time=37200 Track=4 note_on channel=3 note=73 velocity=100 time=0
Time=37200 Track=4 note_on channel=3 note=77 velocity=100 time=0
Time=37200 Track=5 note_on channel=4 note=70 velocity=100 time=360
Time=37200 Track=5 note_on channel=4 note=73 velocity=100 time=0
Time=37200 Track=5 note_on channel=4 note=77 velocity=100 time=0
Time=37200 Track=10 note_on channel=9 note=40 velocity=100 time=90
Time=37200 Track=10 note_on channel=9 note=37 velocity=127 time=0
Time=37200 Track=10 note_on channel=9 note=42 velocity=100 time=0
Time=37260 Track=10 note_off channel=9 note=40 velocity=0 time=60
Time=37260 Track=10 note_off channel=9 note=37 velocity=0 time=0
Time=37260 Track=10 note_off channel=9 note=42 velocity=0 time=0
Time=37320 Track=2 note_off channel=1 note=41 velocity=64 time=120
Time=37320 Track=4 note_off channel=3 note=70 velocity=0 time=120
Time=37320 Track=4 note_off channel=3 note=73 velocity=0 time=0
Time=37320 Track=4 note_off channel=3 note=77 velocity=0 time=0
Time=37320 Track=5 note_off channel=4 note=70 velocity=0 time=120
Time=37320 Track=5 note_off channel=4 note=73 velocity=0 time=0
Time=37320 Track=5 note_off channel=4 note=77 velocity=0 time=0
Time=37440 Track=2 note_on channel=1 note=32 velocity=100 time=120
Time=37440 Track=7 note_off channel=6 note=77 velocity=0 time=960
Time=37440 Track=7 note_on channel=6 note=75 velocity=83 time=0
Time=37440 Track=9 note_on channel=7 note=63 velocity=100 time=302
Time=37440 Track=10 note_on channel=9 note=36 velocity=127 time=180
Time=37440 Track=10 note_on channel=9 note=41 velocity=127 time=0
Time=37440 Track=10 note_on channel=9 note=42 velocity=100 time=0
Time=37497 Track=10 note_off channel=9 note=42 velocity=0 time=57
Time=37500 Track=10 note_off channel=9 note=36 velocity=0 time=3
Time=37500 Track=10 note_off channel=9 note=41 velocity=0 time=0
Time=37560 Track=2 note_off channel=1 note=32 velocity=64 time=120
Time=37620 Track=9 note_off channel=7 note=63 velocity=0 time=180
Time=37680 Track=4 note_on channel=3 note=68 velocity=100 time=360
Time=37680 Track=4 note_on channel=3 note=72 velocity=100 time=0
Time=37680 Track=4 note_on channel=3 note=75 velocity=100 time=0
Time=37680 Track=5 note_on channel=4 note=68 velocity=100 time=360
Time=37680 Track=5 note_on channel=4 note=72 velocity=100 time=0
Time=37680 Track=5 note_on channel=4 note=75 velocity=100 time=0
Time=37680 Track=10 note_on channel=9 note=54 velocity=100 time=180
Time=37710 Track=10 note_off channel=9 note=54 velocity=64 time=30
Time=37800 Track=2 note_on channel=1 note=32 velocity=100 time=240
Time=37800 Track=4 note_off channel=3 note=68 velocity=0 time=120
Time=37800 Track=4 note_off channel=3 note=72 velocity=0 time=0
Time=37800 Track=4 note_off channel=3 note=75 velocity=0 time=0
Time=37800 Track=5 note_off channel=4 note=68 velocity=0 time=120
Time=37800 Track=5 note_off channel=4 note=72 velocity=0 time=0
Time=37800 Track=5 note_off channel=4 note=75 velocity=0 time=0
Time=37800 Track=9 note_on channel=7 note=63 velocity=100 time=180
Time=37800 Track=10 note_on channel=9 note=40 velocity=100 time=90
Time=37800 Track=10 note_on channel=9 note=37 velocity=127 time=0
Time=37800 Track=10 note_on channel=9 note=42 velocity=100 time=0
Time=37860 Track=10 note_off channel=9 note=40 velocity=0 time=60
Time=37860 Track=10 note_off channel=9 note=37 velocity=0 time=0
Time=37860 Track=10 note_off channel=9 note=42 velocity=0 time=0
Time=37920 Track=2 note_off channel=1 note=32 velocity=64 time=120
Time=37920 Track=2 note_on channel=1 note=39 velocity=100 time=0
Time=37920 Track=9 note_off channel=7 note=63 velocity=0 time=120
Time=37920 Track=10 note_on channel=9 note=36 velocity=127 time=60
Time=37920 Track=10 note_on channel=9 note=42 velocity=100 time=0
Time=37980 Track=10 note_off channel=9 note=36 velocity=0 time=60
Time=37981 Track=10 note_off channel=9 note=42 velocity=0 time=1
Time=38040 Track=2 note_off channel=1 note=39 velocity=64 time=120
Time=38040 Track=2 note_on channel=1 note=39 velocity=100 time=0
Time=38040 Track=10 note_on channel=9 note=54 velocity=100 time=59
Time=38070 Track=10 note_off channel=9 note=54 velocity=64 time=30
Time=38160 Track=2 note_off channel=1 note=39 velocity=64 time=120
Time=38160 Track=2 note_on channel=1 note=39 velocity=100 time=0
Time=38160 Track=4 note_on channel=3 note=68 velocity=100 time=360
Time=38160 Track=4 note_on channel=3 note=72 velocity=100 time=0
Time=38160 Track=4 note_on channel=3 note=75 velocity=100 time=0
Time=38160 Track=5 note_on channel=4 note=68 velocity=100 time=360
Time=38160 Track=5 note_on channel=4 note=72 velocity=100 time=0
Time=38160 Track=5 note_on channel=4 note=75 velocity=100 time=0
Time=38160 Track=9 note_on channel=7 note=68 velocity=100 time=43
Time=38160 Track=10 note_on channel=9 note=40 velocity=100 time=90
Time=38160 Track=10 note_on channel=9 note=37 velocity=127 time=0
Time=38160 Track=10 note_on channel=9 note=42 velocity=100 time=0
Time=38220 Track=10 note_off channel=9 note=40 velocity=0 time=60
Time=38220 Track=10 note_off channel=9 note=37 velocity=0 time=0
Time=38220 Track=10 note_off channel=9 note=42 velocity=0 time=0
Time=38280 Track=2 note_off channel=1 note=39 velocity=64 time=120
Time=38280 Track=4 note_off channel=3 note=68 velocity=0 time=120
Time=38280 Track=4 note_off channel=3 note=72 velocity=0 time=0
Time=38280 Track=4 note_off channel=3 note=75 velocity=0 time=0
Time=38280 Track=5 note_off channel=4 note=68 velocity=0 time=120
Time=38280 Track=5 note_off channel=4 note=72 velocity=0 time=0
Time=38280 Track=5 note_off channel=4 note=75 velocity=0 time=0
Time=38280 Track=9 note_off channel=7 note=68 velocity=0 time=119
Time=38400 Track=2 note_on channel=1 note=27 velocity=100 time=120
Time=38400 Track=7 note_off channel=6 note=75 velocity=0 time=960
Time=38400 Track=7 note_on channel=6 note=70 velocity=68 time=0
Time=38400 Track=9 note_on channel=7 note=66 velocity=100 time=120
Time=38400 Track=10 note_on channel=9 note=36 velocity=127 time=180
Time=38400 Track=10 note_on channel=9 note=41 velocity=127 time=0
Time=38400 Track=10 note_on channel=9 note=42 velocity=100 time=0
Time=38460 Track=10 note_off channel=9 note=36 velocity=0 time=60
Time=38460 Track=10 note_off channel=9 note=41 velocity=0 time=0
Time=38460 Track=10 note_off channel=9 note=42 velocity=0 time=0
Time=38520 Track=2 note_off channel=1 note=27 velocity=64 time=120
Time=38580 Track=9 note_off channel=7 note=66 velocity=0 time=180
Time=38640 Track=4 note_on channel=3 note=63 velocity=100 time=360
Time=38640 Track=4 note_on channel=3 note=66 velocity=100 time=0
Time=38640 Track=4 note_on channel=3 note=70 velocity=100 time=0
Time=38640 Track=5 note_on channel=4 note=63 velocity=100 time=360
Time=38640 Track=5 note_on channel=4 note=66 velocity=100 time=0
Time=38640 Track=5 note_on channel=4 note=70 velocity=100 time=0
Time=38640 Track=10 note_on channel=9 note=54 velocity=100 time=180
Time=38670 Track=10 note_off channel=9 note=54 velocity=64 time=30
Time=38760 Track=4 note_off channel=3 note=63 velocity=0 time=120
Time=38760 Track=4 note_off channel=3 note=66 velocity=0 time=0
Time=38760 Track=4 note_off channel=3 note=70 velocity=0 time=0
Time=38760 Track=5 note_off channel=4 note=63 velocity=0 time=120
Time=38760 Track=5 note_off channel=4 note=66 velocity=0 time=0
Time=38760 Track=5 note_off channel=4 note=70 velocity=0 time=0
Time=38760 Track=9 note_on channel=7 note=66 velocity=100 time=180
Time=38760 Track=10 note_on channel=9 note=40 velocity=100 time=90
Time=38760 Track=10 note_on channel=9 note=37 velocity=127 time=0
Time=38760 Track=10 note_on channel=9 note=42 velocity=100 time=0
Time=38820 Track=10 note_off channel=9 note=40 velocity=0 time=60
Time=38820 Track=10 note_off channel=9 note=37 velocity=0 time=0
Time=38820 Track=10 note_off channel=9 note=42 velocity=0 time=0
Time=38880 Track=2 note_on channel=1 note=34 velocity=100 time=360
Time=38880 Track=9 note_off channel=7 note=66 velocity=0 time=120
Time=38880 Track=10 note_on channel=9 note=36 velocity=127 time=60
Time=38880 Track=10 note_on channel=9 note=42 velocity=100 time=0
Time=38940 Track=10 note_off channel=9 note=36 velocity=0 time=60
Time=38940 Track=10 note_off channel=9 note=42 velocity=0 time=0
Time=39000 Track=2 note_off channel=1 note=34 velocity=64 time=120
Time=39000 Track=2 note_on channel=1 note=34 velocity=100 time=0
Time=39000 Track=10 note_on channel=9 note=54 velocity=100 time=60
Time=39030 Track=10 note_off channel=9 note=54 velocity=64 time=30
Time=39120 Track=2 note_off channel=1 note=34 velocity=64 time=120
Time=39120 Track=2 note_on channel=1 note=34 velocity=100 time=0
Time=39120 Track=4 note_on channel=3 note=63 velocity=100 time=360
Time=39120 Track=4 note_on channel=3 note=66 velocity=100 time=0
Time=39120 Track=4 note_on channel=3 note=70 velocity=100 time=0
Time=39120 Track=5 note_on channel=4 note=63 velocity=100 time=360
Time=39120 Track=5 note_on channel=4 note=66 velocity=100 time=0
Time=39120 Track=5 note_on channel=4 note=70 velocity=100 time=0
Time=39120 Track=9 note_on channel=7 note=66 velocity=100 time=240
Time=39120 Track=10 note_on channel=9 note=40 velocity=100 time=90
Time=39120 Track=10 note_on channel=9 note=37 velocity=127 time=0
Time=39120 Track=10 note_on channel=9 note=42 velocity=100 time=0
Time=39180 Track=10 note_off channel=9 note=40 velocity=0 time=60
Time=39180 Track=10 note_off channel=9 note=37 velocity=0 time=0
Time=39180 Track=10 note_off channel=9 note=42 velocity=0 time=0
Time=39209 Track=9 note_off channel=7 note=66 velocity=0 time=89
Time=39240 Track=2 note_off channel=1 note=34 velocity=64 time=120
Time=39240 Track=4 note_off channel=3 note=63 velocity=0 time=120
Time=39240 Track=4 note_off channel=3 note=66 velocity=0 time=0
Time=39240 Track=4 note_off channel=3 note=70 velocity=0 time=0
Time=39240 Track=5 note_off channel=4 note=63 velocity=0 time=120
Time=39240 Track=5 note_off channel=4 note=66 velocity=0 time=0
Time=39240 Track=5 note_off channel=4 note=70 velocity=0 time=0
Time=39360 Track=2 note_on channel=1 note=39 velocity=100 time=120
Time=39360 Track=9 note_on channel=7 note=66 velocity=100 time=151
Time=39360 Track=10 note_on channel=9 note=36 velocity=127 time=180
Time=39360 Track=10 note_on channel=9 note=41 velocity=127 time=0
Time=39360 Track=10 note_on channel=9 note=42 velocity=100 time=0
Time=39420 Track=10 note_off channel=9 note=36 velocity=0 time=60
Time=39420 Track=10 note_off channel=9 note=41 velocity=0 time=0
Time=39420 Track=10 note_off channel=9 note=42 velocity=0 time=0
Time=39442 Track=9 note_off channel=7 note=66 velocity=0 time=82
Time=39480 Track=2 note_off channel=1 note=39 velocity=64 time=120
Time=39480 Track=9 note_on channel=7 note=70 velocity=100 time=38
Time=39600 Track=9 note_off channel=7 note=70 velocity=0 time=120
Time=39600 Track=9 note_on channel=7 note=75 velocity=100 time=0
Time=39600 Track=10 note_on channel=9 note=54 velocity=100 time=180
Time=39630 Track=10 note_off channel=9 note=54 velocity=64 time=30
Time=39704 Track=9 note_off channel=7 note=75 velocity=0 time=104
Time=39720 Track=9 note_on channel=7 note=77 velocity=100 time=16
Time=39720 Track=10 note_on channel=9 note=37 velocity=127 time=90
Time=39720 Track=10 note_on channel=9 note=40 velocity=100 time=0
Time=39720 Track=10 note_on channel=9 note=42 velocity=100 time=0
Time=39780 Track=10 note_off channel=9 note=37 velocity=0 time=60
Time=39780 Track=10 note_off channel=9 note=40 velocity=0 time=0
Time=39780 Track=10 note_off channel=9 note=42 velocity=0 time=0
Time=39793 Track=9 note_off channel=7 note=77 velocity=0 time=73
Time=39840 Track=7 note_off channel=6 note=70 velocity=0 time=1440
Time=39840 Track=9 note_on channel=7 note=78 velocity=100 time=47
Time=39840 Track=10 note_on channel=9 note=36 velocity=127 time=60
Time=39840 Track=10 note_on channel=9 note=42 velocity=100 time=0
Time=39900 Track=10 note_off channel=9 note=36 velocity=0 time=60
Time=39900 Track=10 note_off channel=9 note=42 velocity=0 time=0
Time=39952 Track=9 note_off channel=7 note=78 velocity=0 time=112
Time=39960 Track=9 note_on channel=7 note=80 velocity=100 time=8
Time=39960 Track=10 note_on channel=9 note=54 velocity=100 time=60
Time=39990 Track=10 note_off channel=9 note=54 velocity=64 time=30
Time=40080 Track=9 note_off channel=7 note=80 velocity=0 time=120
Time=40080 Track=9 note_on channel=7 note=77 velocity=100 time=0
Time=40080 Track=10 note_on channel=9 note=37 velocity=127 time=90
Time=40080 Track=10 note_on channel=9 note=40 velocity=100 time=0
Time=40080 Track=10 note_on channel=9 note=42 velocity=100 time=0
Time=40140 Track=9 note_off channel=7 note=77 velocity=0 time=60
Time=40140 Track=10 note_off channel=9 note=37 velocity=0 time=60
Time=40140 Track=10 note_off channel=9 note=40 velocity=0 time=0
Time=40140 Track=10 note_off channel=9 note=42 velocity=0 time=0
Time=40320 Track=2 note_on channel=1 note=34 velocity=100 time=840
Time=40320 Track=10 note_on channel=9 note=36 velocity=127 time=180
Time=40320 Track=10 note_on channel=9 note=41 velocity=127 time=0
Time=40320 Track=10 note_on channel=9 note=42 velocity=100 time=0
Time=40380 Track=10 note_off channel=9 note=42 velocity=0 time=60
Time=40381 Track=10 note_off channel=9 note=36 velocity=0 time=1
Time=40381 Track=10 note_off channel=9 note=41 velocity=0 time=0
Time=40560 Track=2 note_off channel=1 note=34 velocity=64 time=240
Time=40560 Track=4 note_on channel=3 note=70 velocity=100 time=1320
Time=40560 Track=4 note_on channel=3 note=73 velocity=100 time=0
Time=40560 Track=4 note_on channel=3 note=77 velocity=100 time=0
Time=40560 Track=5 note_on channel=4 note=58 velocity=100 time=1320
Time=40560 Track=5 note_on channel=4 note=61 velocity=100 time=0
Time=40560 Track=5 note_on channel=4 note=65 velocity=100 time=0
Time=40560 Track=8 note_on channel=8 note=61 velocity=95 time=40560
Time=40561 Track=10 note_on channel=9 note=40 velocity=60 time=180
Time=40620 Track=8 note_off channel=8 note=61 velocity=0 time=60
Time=40621 Track=10 note_off channel=9 note=40 velocity=0 time=60
Time=40680 Track=2 note_on channel=1 note=34 velocity=100 time=120
Time=40680 Track=4 note_off channel=3 note=70 velocity=0 time=120
Time=40680 Track=4 note_off channel=3 note=73 velocity=0 time=0
Time=40680 Track=4 note_off channel=3 note=77 velocity=0 time=0
Time=40680 Track=5 note_off channel=4 note=58 velocity=0 time=120
Time=40680 Track=5 note_off channel=4 note=61 velocity=0 time=0
Time=40680 Track=5 note_off channel=4 note=65 velocity=0 time=0
Time=40680 Track=10 note_on channel=9 note=40 velocity=120 time=59
Time=40680 Track=10 note_on channel=9 note=42 velocity=100 time=0
Time=40740 Track=10 note_off channel=9 note=40 velocity=0 time=60
Time=40740 Track=10 note_off channel=9 note=42 velocity=0 time=0
Time=40800 Track=2 note_off channel=1 note=34 velocity=64 time=120
Time=40800 Track=2 note_on channel=1 note=41 velocity=100 time=0
Time=40800 Track=4 note_on channel=3 note=70 velocity=100 time=120
Time=40800 Track=4 note_on channel=3 note=73 velocity=100 time=0
Time=40800 Track=4 note_on channel=3 note=77 velocity=100 time=0
Time=40800 Track=8 note_on channel=8 note=73 velocity=85 time=180
Time=40800 Track=9 note_on channel=7 note=82 velocity=119 time=25
Time=40800 Track=10 note_on channel=9 note=36 velocity=127 time=60
Time=40800 Track=10 note_on channel=9 note=42 velocity=100 time=0
Time=40860 Track=8 note_off channel=8 note=73 velocity=0 time=60
Time=40860 Track=10 note_off channel=9 note=36 velocity=0 time=60
Time=40862 Track=10 note_off channel=9 note=42 velocity=0 time=2
Time=40911 Track=9 note_off channel=7 note=82 velocity=0 time=40
Time=40920 Track=2 note_off channel=1 note=41 velocity=64 time=120
Time=40920 Track=2 note_on channel=1 note=41 velocity=100 time=0
Time=40920 Track=4 note_off channel=3 note=70 velocity=0 time=120
Time=40920 Track=4 note_off channel=3 note=73 velocity=0 time=0
Time=40920 Track=4 note_off channel=3 note=77 velocity=0 time=0
Time=40920 Track=8 note_on channel=8 note=68 velocity=88 time=60
Time=40980 Track=8 note_off channel=8 note=68 velocity=0 time=60
Time=41040 Track=2 note_off channel=1 note=41 velocity=64 time=120
Time=41040 Track=2 note_on channel=1 note=41 velocity=100 time=0
Time=41040 Track=4 note_on channel=3 note=70 velocity=100 time=120
Time=41040 Track=4 note_on channel=3 note=73 velocity=100 time=0
Time=41040 Track=4 note_on channel=3 note=77 velocity=100 time=0
Time=41040 Track=5 note_on channel=4 note=58 velocity=100 time=360
Time=41040 Track=5 note_on channel=4 note=61 velocity=100 time=0
Time=41040 Track=5 note_on channel=4 note=65 velocity=100 time=0
Time=41040 Track=8 note_on channel=8 note=65 velocity=96 time=60
Time=41040 Track=10 note_on channel=9 note=40 velocity=120 time=178
Time=41040 Track=10 note_on channel=9 note=42 velocity=100 time=0
Time=41100 Track=8 note_off channel=8 note=65 velocity=0 time=60
Time=41100 Track=10 note_off channel=9 note=40 velocity=0 time=60
Time=41100 Track=10 note_off channel=9 note=42 velocity=0 time=0
Time=41160 Track=2 note_off channel=1 note=41 velocity=64 time=120
Time=41160 Track=4 note_off channel=3 note=70 velocity=0 time=120
Time=41160 Track=4 note_off channel=3 note=73 velocity=0 time=0
Time=41160 Track=4 note_off channel=3 note=77 velocity=0 time=0
Time=41160 Track=5 note_off channel=4 note=58 velocity=0 time=120
Time=41160 Track=5 note_off channel=4 note=61 velocity=0 time=0
Time=41160 Track=5 note_off channel=4 note=65 velocity=0 time=0
Time=41160 Track=8 note_on channel=8 note=63 velocity=104 time=60
Time=41212 Track=8 note_off channel=8 note=63 velocity=0 time=52
Time=41280 Track=2 note_on channel=1 note=44 velocity=100 time=120
Time=41280 Track=10 note_on channel=9 note=36 velocity=127 time=180
Time=41280 Track=10 note_on channel=9 note=41 velocity=127 time=0
Time=41280 Track=10 note_on channel=9 note=42 velocity=100 time=0
Time=41340 Track=10 note_off channel=9 note=36 velocity=0 time=60
Time=41340 Track=10 note_off channel=9 note=41 velocity=0 time=0
Time=41340 Track=10 note_off channel=9 note=42 velocity=0 time=0
Time=41400 Track=2 note_off channel=1 note=44 velocity=64 time=120
Time=41520 Track=4 note_on channel=3 note=68 velocity=100 time=360
Time=41520 Track=4 note_on channel=3 note=72 velocity=100 time=0
Time=41520 Track=4 note_on channel=3 note=75 velocity=100 time=0
Time=41520 Track=5 note_on channel=4 note=56 velocity=100 time=360
Time=41520 Track=5 note_on channel=4 note=60 velocity=100 time=0
Time=41520 Track=5 note_on channel=4 note=63 velocity=100 time=0
Time=41520 Track=10 note_on channel=9 note=40 velocity=60 time=180
Time=41580 Track=10 note_off channel=9 note=40 velocity=0 time=60
Time=41640 Track=2 note_on channel=1 note=32 velocity=100 time=240
Time=41640 Track=4 note_off channel=3 note=68 velocity=0 time=120
Time=41640 Track=4 note_off channel=3 note=72 velocity=0 time=0
Time=41640 Track=4 note_off channel=3 note=75 velocity=0 time=0
Time=41640 Track=5 note_off channel=4 note=56 velocity=0 time=120
Time=41640 Track=5 note_off channel=4 note=60 velocity=0 time=0
Time=41640 Track=5 note_off channel=4 note=63 velocity=0 time=0
Time=41640 Track=10 note_on channel=9 note=40 velocity=120 time=60
Time=41640 Track=10 note_on channel=9 note=42 velocity=100 time=0
Time=41700 Track=10 note_off channel=9 note=40 velocity=0 time=60
Time=41700 Track=10 note_off channel=9 note=42 velocity=0 time=0
Time=41760 Track=2 note_off channel=1 note=32 velocity=64 time=120
Time=41760 Track=2 note_on channel=1 note=39 velocity=100 time=0
Time=41760 Track=4 note_on channel=3 note=68 velocity=100 time=120
Time=41760 Track=4 note_on channel=3 note=72 velocity=100 time=0
Time=41760 Track=4 note_on channel=3 note=75 velocity=100 time=0
Time=41760 Track=9 note_on channel=7 note=80 velocity=110 time=686
Time=41760 Track=10 note_on channel=9 note=36 velocity=127 time=60
Time=41760 Track=10 note_on channel=9 note=42 velocity=100 time=0
Time=41820 Track=10 note_off channel=9 note=36 velocity=0 time=60
Time=41820 Track=10 note_off channel=9 note=42 velocity=0 time=0
Time=41873 Track=9 note_off channel=7 note=80 velocity=0 time=113
Time=41880 Track=2 note_off channel=1 note=39 velocity=64 time=120
Time=41880 Track=2 note_on channel=1 note=39 velocity=100 time=0
Time=41880 Track=4 note_off channel=3 note=68 velocity=0 time=120
Time=41880 Track=4 note_off channel=3 note=72 velocity=0 time=0
Time=41880 Track=4 note_off channel=3 note=75 velocity=0 time=0
Time=41880 Track=8 note_on channel=8 note=72 velocity=70 time=668
Time=41940 Track=8 note_off channel=8 note=72 velocity=0 time=60
Time=42000 Track=2 note_off channel=1 note=39 velocity=64 time=120
Time=42000 Track=2 note_on channel=1 note=39 velocity=100 time=0
Time=42000 Track=4 note_on channel=3 note=68 velocity=100 time=120
Time=42000 Track=4 note_on channel=3 note=72 velocity=100 time=0
Time=42000 Track=4 note_on channel=3 note=75 velocity=100 time=0
Time=42000 Track=5 note_on channel=4 note=56 velocity=100 time=360
Time=42000 Track=5 note_on channel=4 note=60 velocity=100 time=0
Time=42000 Track=5 note_on channel=4 note=63 velocity=100 time=0
Time=42000 Track=8 note_on channel=8 note=68 velocity=81 time=60
Time=42000 Track=10 note_on channel=9 note=40 velocity=120 time=180
Time=42000 Track=10 note_on channel=9 note=42 velocity=100 time=0
Time=42058 Track=8 note_off channel=8 note=68 velocity=0 time=58
Time=42060 Track=10 note_off channel=9 note=40 velocity=0 time=60
Time=42060 Track=10 note_off channel=9 note=42 velocity=0 time=0
Time=42120 Track=2 note_off channel=1 note=39 velocity=64 time=120
Time=42120 Track=4 note_off channel=3 note=68 velocity=0 time=120
Time=42120 Track=4 note_off channel=3 note=72 velocity=0 time=0
Time=42120 Track=4 note_off channel=3 note=75 velocity=0 time=0
Time=42120 Track=5 note_off channel=4 note=56 velocity=0 time=120
Time=42120 Track=5 note_off channel=4 note=60 velocity=0 time=0
Time=42120 Track=5 note_off channel=4 note=63 velocity=0 time=0
Time=42120 Track=8 note_on channel=8 note=63 velocity=76 time=62
Time=42178 Track=8 note_off channel=8 note=63 velocity=0 time=58
Time=42240 Track=2 note_on channel=1 note=27 velocity=100 time=120
Time=42240 Track=9 note_on channel=7 note=78 velocity=110 time=367
Time=42240 Track=10 note_on channel=9 note=36 velocity=127 time=180
Time=42240 Track=10 note_on channel=9 note=41 velocity=127 time=0
Time=42240 Track=10 note_on channel=9 note=42 velocity=100 time=0
Time=42300 Track=10 note_off channel=9 note=36 velocity=0 time=60
Time=42300 Track=10 note_off channel=9 note=41 velocity=0 time=0
Time=42300 Track=10 note_off channel=9 note=42 velocity=0 time=0
Time=42322 Track=9 note_off channel=7 note=78 velocity=0 time=82
Time=42360 Track=2 note_off channel=1 note=27 velocity=64 time=120
Time=42480 Track=4 note_on channel=3 note=63 velocity=100 time=360
Time=42480 Track=4 note_on channel=3 note=66 velocity=100 time=0
Time=42480 Track=4 note_on channel=3 note=70 velocity=100 time=0
Time=42480 Track=5 note_on channel=4 note=51 velocity=100 time=360
Time=42480 Track=5 note_on channel=4 note=54 velocity=100 time=0
Time=42480 Track=5 note_on channel=4 note=58 velocity=100 time=0
Time=42480 Track=8 note_on channel=8 note=58 velocity=51 time=302
Time=42480 Track=9 note_on channel=7 note=75 velocity=100 time=158
Time=42480 Track=10 note_on channel=9 note=40 velocity=60 time=180
Time=42540 Track=10 note_off channel=9 note=40 velocity=0 time=60
Time=42547 Track=8 note_off channel=8 note=58 velocity=0 time=67
Time=42600 Track=2 note_on channel=1 note=27 velocity=100 time=240
Time=42600 Track=4 note_off channel=3 note=63 velocity=0 time=120
Time=42600 Track=4 note_off channel=3 note=66 velocity=0 time=0
Time=42600 Track=4 note_off channel=3 note=70 velocity=0 time=0
Time=42600 Track=5 note_off channel=4 note=51 velocity=0 time=120
Time=42600 Track=5 note_off channel=4 note=54 velocity=0 time=0
Time=42600 Track=5 note_off channel=4 note=58 velocity=0 time=0
Time=42600 Track=9 note_off channel=7 note=75 velocity=0 time=120
Time=42600 Track=10 note_on channel=9 note=40 velocity=120 time=60
Time=42600 Track=10 note_on channel=9 note=42 velocity=100 time=0
Time=42659 Track=10 note_off channel=9 note=40 velocity=0 time=59
Time=42660 Track=10 note_off channel=9 note=42 velocity=0 time=1
Time=42720 Track=2 note_off channel=1 note=27 velocity=64 time=120
Time=42720 Track=2 note_on channel=1 note=34 velocity=100 time=0
Time=42720 Track=4 note_on channel=3 note=63 velocity=100 time=120
Time=42720 Track=4 note_on channel=3 note=66 velocity=100 time=0
Time=42720 Track=4 note_on channel=3 note=70 velocity=100 time=0
Time=42720 Track=9 note_on channel=7 note=70 velocity=108 time=120
Time=42720 Track=10 note_on channel=9 note=36 velocity=127 time=60
Time=42720 Track=10 note_on channel=9 note=42 velocity=100 time=0
Time=42780 Track=10 note_off channel=9 note=36 velocity=0 time=60
Time=42780 Track=10 note_off channel=9 note=42 velocity=0 time=0
Time=42840 Track=2 note_off channel=1 note=34 velocity=64 time=120
Time=42840 Track=2 note_on channel=1 note=34 velocity=100 time=0
Time=42840 Track=4 note_off channel=3 note=63 velocity=0 time=120
Time=42840 Track=4 note_off channel=3 note=66 velocity=0 time=0
Time=42840 Track=4 note_off channel=3 note=70 velocity=0 time=0
Time=42840 Track=9 note_off channel=7 note=70 velocity=0 time=120
Time=42960 Track=2 note_off channel=1 note=34 velocity=64 time=120
Time=42960 Track=2 note_on channel=1 note=34 velocity=100 time=0
Time=42960 Track=4 note_on channel=3 note=63 velocity=100 time=120
Time=42960 Track=4 note_on channel=3 note=66 velocity=100 time=0
Time=42960 Track=4 note_on channel=3 note=70 velocity=100 time=0
Time=42960 Track=5 note_on channel=4 note=51 velocity=100 time=360
Time=42960 Track=5 note_on channel=4 note=54 velocity=100 time=0
Time=42960 Track=5 note_on channel=4 note=58 velocity=100 time=0
Time=42960 Track=8 note_on channel=8 note=58 velocity=73 time=413
Time=42960 Track=10 note_on channel=9 note=40 velocity=120 time=180
Time=42960 Track=10 note_on channel=9 note=42 velocity=100 time=0
Time=43019 Track=10 note_off channel=9 note=40 velocity=0 time=59
Time=43020 Track=8 note_off channel=8 note=58 velocity=0 time=60
Time=43020 Track=10 note_off channel=9 note=42 velocity=0 time=1
Time=43080 Track=2 note_off channel=1 note=34 velocity=64 time=120
Time=43080 Track=4 note_off channel=3 note=63 velocity=0 time=120
Time=43080 Track=4 note_off channel=3 note=66 velocity=0 time=0
Time=43080 Track=4 note_off channel=3 note=70 velocity=0 time=0
Time=43080 Track=5 note_off channel=4 note=51 velocity=0 time=120
Time=43080 Track=5 note_off channel=4 note=54 velocity=0 time=0
Time=43080 Track=5 note_off channel=4 note=58 velocity=0 time=0
Time=43200 Track=2 note_on channel=1 note=39 velocity=100 time=120
Time=43200 Track=9 note_on channel=7 note=66 velocity=100 time=360
Time=43200 Track=10 note_on channel=9 note=36 velocity=127 time=180
Time=43200 Track=10 note_on channel=9 note=41 velocity=127 time=0
Time=43200 Track=10 note_on channel=9 note=42 velocity=100 time=0
Time=43260 Track=10 note_off channel=9 note=36 velocity=0 time=60
Time=43260 Track=10 note_off channel=9 note=41 velocity=0 time=0
Time=43260 Track=10 note_off channel=9 note=42 velocity=0 time=0
Time=43320 Track=2 note_off channel=1 note=39 velocity=64 time=120
Time=43320 Track=9 note_off channel=7 note=66 velocity=0 time=11
Time=43320 Track=9 note_on channel=7 note=70 velocity=100 time=0
Time=43440 Track=4 note_on channel=3 note=63 velocity=100 time=360
Time=43440 Track=4 note_on channel=3 note=66 velocity=100 time=0
Time=43440 Track=4 note_on channel=3 note=70 velocity=100 time=0
Time=43440 Track=5 note_on channel=4 note=51 velocity=100 time=360
Time=43440 Track=5 note_on channel=4 note=54 velocity=100 time=0
Time=43440 Track=5 note_on channel=4 note=58 velocity=100 time=0
Time=43440 Track=9 note_off channel=7 note=70 velocity=0 time=120
Time=43440 Track=9 note_on channel=7 note=75 velocity=100 time=0
Time=43440 Track=10 note_on channel=9 note=40 velocity=60 time=180
Time=43500 Track=10 note_off channel=9 note=40 velocity=0 time=60
Time=43560 Track=4 note_off channel=3 note=63 velocity=0 time=120
Time=43560 Track=4 note_off channel=3 note=66 velocity=0 time=0
Time=43560 Track=4 note_off channel=3 note=70 velocity=0 time=0
Time=43560 Track=5 note_off channel=4 note=51 velocity=0 time=120
Time=43560 Track=5 note_off channel=4 note=54 velocity=0 time=0
Time=43560 Track=5 note_off channel=4 note=58 velocity=0 time=0
Time=43560 Track=9 note_off channel=7 note=75 velocity=0 time=19
Time=43560 Track=9 note_on channel=7 note=77 velocity=100 time=0
Time=43560 Track=10 note_on channel=9 note=40 velocity=120 time=60
Time=43560 Track=10 note_on channel=9 note=42 velocity=100 time=0
Time=43620 Track=10 note_off channel=9 note=40 velocity=0 time=60
Time=43620 Track=10 note_off channel=9 note=42 velocity=0 time=0
Time=43633 Track=9 note_off channel=7 note=77 velocity=0 time=27
Time=43680 Track=2 note_on channel=1 note=37 velocity=100 time=360
Time=43680 Track=4 note_on channel=3 note=63 velocity=100 time=120
Time=43680 Track=4 note_on channel=3 note=66 velocity=100 time=0
Time=43680 Track=4 note_on channel=3 note=70 velocity=100 time=0
Time=43680 Track=9 note_on channel=7 note=78 velocity=100 time=43
Time=43680 Track=10 note_on channel=9 note=36 velocity=127 time=60
Time=43680 Track=10 note_on channel=9 note=42 velocity=100 time=0
Time=43740 Track=10 note_off channel=9 note=36 velocity=0 time=60
Time=43740 Track=10 note_off channel=9 note=42 velocity=0 time=0
Time=43792 Track=9 note_off channel=7 note=78 velocity=0 time=28
Time=43800 Track=2 note_off channel=1 note=37 velocity=64 time=120
Time=43800 Track=2 note_on channel=1 note=37 velocity=100 time=0
Time=43800 Track=4 note_off channel=3 note=63 velocity=0 time=120
Time=43800 Track=4 note_off channel=3 note=66 velocity=0 time=0
Time=43800 Track=4 note_off channel=3 note=70 velocity=0 time=0
Time=43800 Track=9 note_on channel=7 note=77 velocity=100 time=8
Time=43888 Track=9 note_off channel=7 note=77 velocity=0 time=42
Time=43920 Track=2 note_off channel=1 note=37 velocity=64 time=120
Time=43920 Track=2 note_on channel=1 note=37 velocity=100 time=0
Time=43920 Track=4 note_on channel=3 note=63 velocity=100 time=120
Time=43920 Track=4 note_on channel=3 note=66 velocity=100 time=0
Time=43920 Track=4 note_on channel=3 note=70 velocity=100 time=0
Time=43920 Track=5 note_on channel=4 note=51 velocity=100 time=360
Time=43920 Track=5 note_on channel=4 note=54 velocity=100 time=0
Time=43920 Track=5 note_on channel=4 note=58 velocity=100 time=0
Time=43920 Track=10 note_on channel=9 note=40 velocity=120 time=180
Time=43920 Track=10 note_on channel=9 note=42 velocity=100 time=0
Time=43980 Track=10 note_off channel=9 note=40 velocity=0 time=60
Time=43980 Track=10 note_off channel=9 note=42 velocity=0 time=0
Time=44040 Track=2 note_off channel=1 note=37 velocity=64 time=120
Time=44040 Track=4 note_off channel=3 note=63 velocity=0 time=120
Time=44040 Track=4 note_off channel=3 note=66 velocity=0 time=0
Time=44040 Track=4 note_off channel=3 note=70 velocity=0 time=0
Time=44040 Track=5 note_off channel=4 note=51 velocity=0 time=120
Time=44040 Track=5 note_off channel=4 note=54 velocity=0 time=0
Time=44040 Track=5 note_off channel=4 note=58 velocity=0 time=0
Time=44160 Track=2 note_on channel=1 note=34 velocity=100 time=120
Time=44160 Track=10 note_on channel=9 note=36 velocity=127 time=180
Time=44160 Track=10 note_on channel=9 note=41 velocity=127 time=0
Time=44160 Track=10 note_on channel=9 note=42 velocity=100 time=0
Time=44220 Track=10 note_off channel=9 note=36 velocity=0 time=60
Time=44220 Track=10 note_off channel=9 note=41 velocity=0 time=0
Time=44220 Track=10 note_off channel=9 note=42 velocity=0 time=0
Time=44400 Track=2 note_off channel=1 note=34 velocity=64 time=240
Time=44400 Track=4 note_on channel=3 note=70 velocity=100 time=360
Time=44400 Track=4 note_on channel=3 note=73 velocity=100 time=0
Time=44400 Track=4 note_on channel=3 note=77 velocity=100 time=0
Time=44400 Track=5 note_on channel=4 note=58 velocity=100 time=360
Time=44400 Track=5 note_on channel=4 note=61 velocity=100 time=0
Time=44400 Track=5 note_on channel=4 note=65 velocity=100 time=0
Time=44400 Track=8 note_on channel=8 note=61 velocity=95 time=1380
Time=44400 Track=10 note_on channel=9 note=40 velocity=60 time=180
Time=44460 Track=8 note_off channel=8 note=61 velocity=0 time=60
Time=44460 Track=10 note_off channel=9 note=40 velocity=0 time=60
Time=44520 Track=2 note_on channel=1 note=34 velocity=100 time=120
Time=44520 Track=4 note_off channel=3 note=70 velocity=0 time=120
Time=44520 Track=4 note_off channel=3 note=73 velocity=0 time=0
Time=44520 Track=4 note_off channel=3 note=77 velocity=0 time=0
Time=44520 Track=5 note_off channel=4 note=58 velocity=0 time=120
Time=44520 Track=5 note_off channel=4 note=61 velocity=0 time=0
Time=44520 Track=5 note_off channel=4 note=65 velocity=0 time=0
Time=44520 Track=10 note_on channel=9 note=40 velocity=120 time=60
Time=44520 Track=10 note_on channel=9 note=42 velocity=100 time=0
Time=44580 Track=10 note_off channel=9 note=40 velocity=0 time=60
Time=44580 Track=10 note_off channel=9 note=42 velocity=0 time=0
Time=44640 Track=2 note_off channel=1 note=34 velocity=64 time=120
Time=44640 Track=2 note_on channel=1 note=41 velocity=100 time=0
Time=44640 Track=4 note_on channel=3 note=70 velocity=100 time=120
Time=44640 Track=4 note_on channel=3 note=73 velocity=100 time=0
Time=44640 Track=4 note_on channel=3 note=77 velocity=100 time=0
Time=44640 Track=8 note_on channel=8 note=73 velocity=85 time=180
Time=44640 Track=9 note_on channel=7 note=82 velocity=119 time=147
Time=44640 Track=10 note_on channel=9 note=36 velocity=127 time=60
Time=44640 Track=10 note_on channel=9 note=42 velocity=100 time=0
Time=44700 Track=8 note_off channel=8 note=73 velocity=0 time=60
Time=44700 Track=10 note_off channel=9 note=36 velocity=0 time=60
Time=44700 Track=10 note_off channel=9 note=42 velocity=0 time=0
Time=44751 Track=9 note_off channel=7 note=82 velocity=0 time=6
Time=44760 Track=2 note_off channel=1 note=41 velocity=64 time=120
Time=44760 Track=2 note_on channel=1 note=41 velocity=100 time=0
Time=44760 Track=4 note_off channel=3 note=70 velocity=0 time=120
Time=44760 Track=4 note_off channel=3 note=73 velocity=0 time=0
Time=44760 Track=4 note_off channel=3 note=77 velocity=0 time=0
Time=44760 Track=8 note_on channel=8 note=68 velocity=88 time=60
Time=44820 Track=8 note_off channel=8 note=68 velocity=0 time=60
Time=44880 Track=2 note_off channel=1 note=41 velocity=64 time=120
Time=44880 Track=2 note_on channel=1 note=41 velocity=100 time=0
Time=44880 Track=4 note_on channel=3 note=70 velocity=100 time=120
Time=44880 Track=4 note_on channel=3 note=73 velocity=100 time=0
Time=44880 Track=4 note_on channel=3 note=77 velocity=100 time=0
Time=44880 Track=5 note_on channel=4 note=58 velocity=100 time=360
Time=44880 Track=5 note_on channel=4 note=61 velocity=100 time=0
Time=44880 Track=5 note_on channel=4 note=65 velocity=100 time=0
Time=44880 Track=8 note_on channel=8 note=65 velocity=96 time=60
Time=44880 Track=10 note_on channel=9 note=40 velocity=120 time=180
Time=44880 Track=10 note_on channel=9 note=42 velocity=100 time=0
Time=44940 Track=8 note_off channel=8 note=65 velocity=0 time=60
Time=44940 Track=10 note_off channel=9 note=40 velocity=0 time=60
Time=44940 Track=10 note_off channel=9 note=42 velocity=0 time=0
Time=45000 Track=2 note_off channel=1 note=41 velocity=64 time=120
Time=45000 Track=4 note_off channel=3 note=70 velocity=0 time=120
Time=45000 Track=4 note_off channel=3 note=73 velocity=0 time=0
Time=45000 Track=4 note_off channel=3 note=77 velocity=0 time=0
Time=45000 Track=5 note_off channel=4 note=58 velocity=0 time=120
Time=45000 Track=5 note_off channel=4 note=61 velocity=0 time=0
Time=45000 Track=5 note_off channel=4 note=65 velocity=0 time=0
Time=45000 Track=8 note_on channel=8 note=63 velocity=104 time=60
Time=45052 Track=8 note_off channel=8 note=63 velocity=0 time=52
Time=45120 Track=2 note_on channel=1 note=44 velocity=100 time=120
Time=45120 Track=10 note_on channel=9 note=36 velocity=127 time=180
Time=45120 Track=10 note_on channel=9 note=41 velocity=127 time=0
Time=45120 Track=10 note_on channel=9 note=42 velocity=100 time=0
Time=45177 Track=10 note_off channel=9 note=42 velocity=0 time=57
Time=45180 Track=10 note_off channel=9 note=36 velocity=0 time=3
Time=45180 Track=10 note_off channel=9 note=41 velocity=0 time=0
Time=45240 Track=2 note_off channel=1 note=44 velocity=64 time=120
Time=45360 Track=4 note_on channel=3 note=68 velocity=100 time=360
Time=45360 Track=4 note_on channel=3 note=72 velocity=100 time=0
Time=45360 Track=4 note_on channel=3 note=75 velocity=100 time=0
Time=45360 Track=5 note_on channel=4 note=56 velocity=100 time=360
Time=45360 Track=5 note_on channel=4 note=60 velocity=100 time=0
Time=45360 Track=5 note_on channel=4 note=63 velocity=100 time=0
Time=45360 Track=10 note_on channel=9 note=40 velocity=60 time=180
Time=45419 Track=10 note_off channel=9 note=40 velocity=0 time=59
Time=45480 Track=2 note_on channel=1 note=32 velocity=100 time=240
Time=45480 Track=4 note_off channel=3 note=68 velocity=0 time=120
Time=45480 Track=4 note_off channel=3 note=72 velocity=0 time=0
Time=45480 Track=4 note_off channel=3 note=75 velocity=0 time=0
Time=45480 Track=5 note_off channel=4 note=56 velocity=0 time=120
Time=45480 Track=5 note_off channel=4 note=60 velocity=0 time=0
Time=45480 Track=5 note_off channel=4 note=63 velocity=0 time=0
Time=45480 Track=10 note_on channel=9 note=40 velocity=120 time=61
Time=45480 Track=10 note_on channel=9 note=42 velocity=100 time=0
Time=45540 Track=10 note_off channel=9 note=40 velocity=0 time=60
Time=45540 Track=10 note_off channel=9 note=42 velocity=0 time=0
Time=45600 Track=2 note_off channel=1 note=32 velocity=64 time=120
Time=45600 Track=2 note_on channel=1 note=39 velocity=100 time=0
Time=45600 Track=4 note_on channel=3 note=68 velocity=100 time=120
Time=45600 Track=4 note_on channel=3 note=72 velocity=100 time=0
Time=45600 Track=4 note_on channel=3 note=75 velocity=100 time=0
Time=45600 Track=9 note_on channel=7 note=80 velocity=110 time=782
Time=45600 Track=10 note_on channel=9 note=36 velocity=127 time=60
Time=45600 Track=10 note_on channel=9 note=42 velocity=100 time=0
Time=45660 Track=10 note_off channel=9 note=36 velocity=0 time=60
Time=45661 Track=10 note_off channel=9 note=42 velocity=0 time=1
Time=45713 Track=9 note_off channel=7 note=80 velocity=0 time=113
Time=45720 Track=2 note_off channel=1 note=39 velocity=64 time=120
Time=45720 Track=2 note_on channel=1 note=39 velocity=100 time=0
Time=45720 Track=4 note_off channel=3 note=68 velocity=0 time=120
Time=45720 Track=4 note_off channel=3 note=72 velocity=0 time=0
Time=45720 Track=4 note_off channel=3 note=75 velocity=0 time=0
Time=45720 Track=8 note_on channel=8 note=72 velocity=70 time=668
Time=45780 Track=8 note_off channel=8 note=72 velocity=0 time=60
Time=45840 Track=2 note_off channel=1 note=39 velocity=64 time=120
Time=45840 Track=2 note_on channel=1 note=39 velocity=100 time=0
Time=45840 Track=4 note_on channel=3 note=68 velocity=100 time=120
Time=45840 Track=4 note_on channel=3 note=72 velocity=100 time=0
Time=45840 Track=4 note_on channel=3 note=75 velocity=100 time=0
Time=45840 Track=5 note_on channel=4 note=56 velocity=100 time=360
Time=45840 Track=5 note_on channel=4 note=60 velocity=100 time=0
Time=45840 Track=5 note_on channel=4 note=63 velocity=100 time=0
Time=45840 Track=8 note_on channel=8 note=68 velocity=81 time=60
Time=45840 Track=10 note_on channel=9 note=40 velocity=120 time=179
Time=45840 Track=10 note_on channel=9 note=42 velocity=100 time=0
Time=45898 Track=8 note_off channel=8 note=68 velocity=0 time=58
Time=45900 Track=10 note_off channel=9 note=40 velocity=0 time=60
Time=45900 Track=10 note_off channel=9 note=42 velocity=0 time=0
Time=45960 Track=2 note_off channel=1 note=39 velocity=64 time=120
Time=45960 Track=4 note_off channel=3 note=68 velocity=0 time=120
Time=45960 Track=4 note_off channel=3 note=72 velocity=0 time=0
Time=45960 Track=4 note_off channel=3 note=75 velocity=0 time=0
Time=45960 Track=5 note_off channel=4 note=56 velocity=0 time=120
Time=45960 Track=5 note_off channel=4 note=60 velocity=0 time=0
Time=45960 Track=5 note_off channel=4 note=63 velocity=0 time=0
Time=45960 Track=8 note_on channel=8 note=63 velocity=76 time=62
Time=46018 Track=8 note_off channel=8 note=63 velocity=0 time=58
Time=46080 Track=2 note_on channel=1 note=27 velocity=100 time=120
Time=46080 Track=9 note_on channel=7 note=78 velocity=110 time=239
Time=46162 Track=9 note_off channel=7 note=78 velocity=0 time=82
Time=46200 Track=2 note_off channel=1 note=27 velocity=64 time=120
Time=46320 Track=4 note_on channel=3 note=63 velocity=100 time=360
Time=46320 Track=4 note_on channel=3 note=66 velocity=100 time=0
Time=46320 Track=4 note_on channel=3 note=70 velocity=100 time=0
Time=46320 Track=5 note_on channel=4 note=51 velocity=100 time=360
Time=46320 Track=5 note_on channel=4 note=54 velocity=100 time=0
Time=46320 Track=5 note_on channel=4 note=58 velocity=100 time=0
Time=46320 Track=8 note_on channel=8 note=58 velocity=51 time=302
Time=46320 Track=9 note_on channel=7 note=75 velocity=100 time=158
Time=46387 Track=8 note_off channel=8 note=58 velocity=0 time=67
Time=46440 Track=4 note_off channel=3 note=63 velocity=0 time=120
Time=46440 Track=4 note_off channel=3 note=66 velocity=0 time=0
Time=46440 Track=4 note_off channel=3 note=70 velocity=0 time=0
Time=46440 Track=5 note_off channel=4 note=51 velocity=0 time=120
Time=46440 Track=5 note_off channel=4 note=54 velocity=0 time=0
Time=46440 Track=5 note_off channel=4 note=58 velocity=0 time=0
Time=46440 Track=9 note_off channel=7 note=75 velocity=0 time=120
Time=46560 Track=2 note_on channel=1 note=34 velocity=100 time=360
Time=46560 Track=4 note_on channel=3 note=63 velocity=100 time=120
Time=46560 Track=4 note_on channel=3 note=66 velocity=100 time=0
Time=46560 Track=4 note_on channel=3 note=70 velocity=100 time=0
Time=46560 Track=9 note_on channel=7 note=70 velocity=108 time=120
Time=46680 Track=2 note_off channel=1 note=34 velocity=64 time=120
Time=46680 Track=2 note_on channel=1 note=34 velocity=100 time=0
Time=46680 Track=4 note_off channel=3 note=63 velocity=0 time=120
Time=46680 Track=4 note_off channel=3 note=66 velocity=0 time=0
Time=46680 Track=4 note_off channel=3 note=70 velocity=0 time=0
Time=46680 Track=9 note_off channel=7 note=70 velocity=0 time=120
Time=46800 Track=2 note_off channel=1 note=34 velocity=64 time=120
Time=46800 Track=2 note_on channel=1 note=34 velocity=100 time=0
Time=46800 Track=4 note_on channel=3 note=63 velocity=100 time=120
Time=46800 Track=4 note_on channel=3 note=66 velocity=100 time=0
Time=46800 Track=4 note_on channel=3 note=70 velocity=100 time=0
Time=46800 Track=5 note_on channel=4 note=51 velocity=100 time=360
Time=46800 Track=5 note_on channel=4 note=54 velocity=100 time=0
Time=46800 Track=5 note_on channel=4 note=58 velocity=100 time=0
Time=46800 Track=8 note_on channel=8 note=58 velocity=73 time=413
Time=46860 Track=8 note_off channel=8 note=58 velocity=0 time=60
Time=46920 Track=2 note_off channel=1 note=34 velocity=64 time=120
Time=46920 Track=4 note_off channel=3 note=63 velocity=0 time=120
Time=46920 Track=4 note_off channel=3 note=66 velocity=0 time=0
Time=46920 Track=4 note_off channel=3 note=70 velocity=0 time=0
Time=46920 Track=5 note_off channel=4 note=51 velocity=0 time=120
Time=46920 Track=5 note_off channel=4 note=54 velocity=0 time=0
Time=46920 Track=5 note_off channel=4 note=58 velocity=0 time=0
Time=47040 Track=2 note_on channel=1 note=39 velocity=100 time=120
Time=47040 Track=9 note_on channel=7 note=66 velocity=100 time=360
Time=47040 Track=10 note_on channel=9 note=40 velocity=60 time=883
Time=47040 Track=10 note_on channel=9 note=45 velocity=119 time=0
Time=47100 Track=10 note_off channel=9 note=40 velocity=0 time=60
Time=47100 Track=10 note_off channel=9 note=45 velocity=0 time=0
Time=47122 Track=9 note_off channel=7 note=66 velocity=0 time=82
Time=47160 Track=2 note_off channel=1 note=39 velocity=64 time=120
Time=47160 Track=9 note_on channel=7 note=70 velocity=100 time=38
Time=47280 Track=9 note_off channel=7 note=70 velocity=0 time=120
Time=47280 Track=9 note_on channel=7 note=75 velocity=100 time=0
Time=47384 Track=9 note_off channel=7 note=75 velocity=0 time=104
Time=47400 Track=9 note_on channel=7 note=77 velocity=100 time=16
Time=47400 Track=10 note_on channel=9 note=40 velocity=120 time=300
Time=47440 Track=10 note_off channel=9 note=40 velocity=0 time=40
Time=47460 Track=10 note_on channel=9 note=40 velocity=120 time=20
Time=47473 Track=9 note_off channel=7 note=77 velocity=0 time=73
Time=47500 Track=10 note_off channel=9 note=40 velocity=0 time=40
Time=47520 Track=9 note_on channel=7 note=78 velocity=100 time=47
Time=47520 Track=10 note_on channel=9 note=40 velocity=120 time=20
Time=47580 Track=10 note_off channel=9 note=40 velocity=0 time=60
Time=47632 Track=9 note_off channel=7 note=78 velocity=0 time=112
Time=47640 Track=9 note_on channel=7 note=80 velocity=100 time=8
Time=47640 Track=10 note_on channel=9 note=40 velocity=120 time=60
Time=47700 Track=10 note_off channel=9 note=40 velocity=0 time=60
Time=47760 Track=9 note_off channel=7 note=80 velocity=0 time=120
Time=47760 Track=9 note_on channel=7 note=77 velocity=100 time=0
Time=47760 Track=10 note_on channel=9 note=40 velocity=120 time=60
Time=47819 Track=10 note_off channel=9 note=40 velocity=0 time=59
Time=47820 Track=9 note_off channel=7 note=77 velocity=0 time=60
Time=48000 Track=2 note_on channel=1 note=34 velocity=100 time=840
Time=48000 Track=10 note_on channel=9 note=36 velocity=127 time=181
Time=48000 Track=10 note_on channel=9 note=41 velocity=127 time=0
Time=48000 Track=10 note_on channel=9 note=42 velocity=100 time=0
Time=48060 Track=10 note_off channel=9 note=42 velocity=0 time=60
Time=48061 Track=10 note_off channel=9 note=36 velocity=0 time=1
Time=48061 Track=10 note_off channel=9 note=41 velocity=0 time=0
Time=48240 Track=2 note_off channel=1 note=34 velocity=64 time=240
Time=48240 Track=4 note_on channel=3 note=70 velocity=100 time=1320
Time=48240 Track=4 note_on channel=3 note=73 velocity=100 time=0
Time=48240 Track=4 note_on channel=3 note=77 velocity=100 time=0
Time=48240 Track=5 note_on channel=4 note=58 velocity=100 time=1320
Time=48240 Track=5 note_on channel=4 note=61 velocity=100 time=0
Time=48240 Track=5 note_on channel=4 note=65 velocity=100 time=0
Time=48241 Track=10 note_on channel=9 note=40 velocity=60 time=82
Time=48301 Track=10 note_off channel=9 note=40 velocity=0 time=60
Time=48360 Track=2 note_on channel=1 note=37 velocity=100 time=120
Time=48360 Track=4 note_off channel=3 note=70 velocity=0 time=120
Time=48360 Track=4 note_off channel=3 note=73 velocity=0 time=0
Time=48360 Track=4 note_off channel=3 note=77 velocity=0 time=0
Time=48360 Track=5 note_off channel=4 note=58 velocity=0 time=120
Time=48360 Track=5 note_off channel=4 note=61 velocity=0 time=0
Time=48360 Track=5 note_off channel=4 note=65 velocity=0 time=0
Time=48360 Track=10 note_on channel=9 note=40 velocity=120 time=59
Time=48360 Track=10 note_on channel=9 note=42 velocity=100 time=0
Time=48420 Track=10 note_off channel=9 note=40 velocity=0 time=60
Time=48420 Track=10 note_off channel=9 note=42 velocity=0 time=0
Time=48480 Track=2 note_off channel=1 note=37 velocity=64 time=120
Time=48480 Track=2 note_on channel=1 note=41 velocity=100 time=0
Time=48480 Track=4 note_on channel=3 note=70 velocity=100 time=120
Time=48480 Track=4 note_on channel=3 note=73 velocity=100 time=0
Time=48480 Track=4 note_on channel=3 note=77 velocity=100 time=0
Time=48480 Track=10 note_on channel=9 note=36 velocity=127 time=60
Time=48480 Track=10 note_on channel=9 note=42 velocity=100 time=0
Time=48540 Track=10 note_off channel=9 note=36 velocity=0 time=31
Time=48542 Track=10 note_off channel=9 note=42 velocity=0 time=2
Time=48600 Track=2 note_off channel=1 note=41 velocity=64 time=120
Time=48600 Track=3 note_on channel=2 note=85 velocity=38 time=25230
Time=48600 Track=4 note_off channel=3 note=70 velocity=0 time=120
Time=48600 Track=4 note_off channel=3 note=73 velocity=0 time=0
Time=48600 Track=4 note_off channel=3 note=77 velocity=0 time=0
Time=48659 Track=3 note_off channel=2 note=85 velocity=0 time=59
Time=48720 Track=2 note_on channel=1 note=41 velocity=100 time=120
Time=48720 Track=3 note_on channel=2 note=85 velocity=40 time=61
Time=48720 Track=4 note_on channel=3 note=70 velocity=100 time=120
Time=48720 Track=4 note_on channel=3 note=73 velocity=100 time=0
Time=48720 Track=4 note_on channel=3 note=77 velocity=100 time=0
Time=48720 Track=5 note_on channel=4 note=58 velocity=100 time=360
Time=48720 Track=5 note_on channel=4 note=61 velocity=100 time=0
Time=48720 Track=5 note_on channel=4 note=65 velocity=100 time=0
Time=48720 Track=10 note_on channel=9 note=40 velocity=120 time=178
Time=48720 Track=10 note_on channel=9 note=42 velocity=100 time=0
Time=48780 Track=3 note_off channel=2 note=85 velocity=0 time=60
Time=48780 Track=10 note_off channel=9 note=40 velocity=0 time=60
Time=48780 Track=10 note_off channel=9 note=42 velocity=0 time=0
Time=48840 Track=2 note_off channel=1 note=41 velocity=64 time=120
Time=48840 Track=3 note_on channel=2 note=85 velocity=40 time=60
Time=48840 Track=4 note_off channel=3 note=70 velocity=0 time=120
Time=48840 Track=4 note_off channel=3 note=73 velocity=0 time=0
Time=48840 Track=4 note_off channel=3 note=77 velocity=0 time=0
Time=48840 Track=5 note_off channel=4 note=58 velocity=0 time=120
Time=48840 Track=5 note_off channel=4 note=61 velocity=0 time=0
Time=48840 Track=5 note_off channel=4 note=65 velocity=0 time=0
Time=48900 Track=3 note_off channel=2 note=85 velocity=0 time=60
Time=48960 Track=2 note_on channel=1 note=32 velocity=100 time=120
Time=48960 Track=3 note_on channel=2 note=87 velocity=51 time=60
Time=48960 Track=10 note_on channel=9 note=36 velocity=127 time=180
Time=48960 Track=10 note_on channel=9 note=41 velocity=127 time=0
Time=48960 Track=10 note_on channel=9 note=42 velocity=100 time=0
Time=49020 Track=10 note_off channel=9 note=36 velocity=0 time=60
Time=49020 Track=10 note_off channel=9 note=41 velocity=0 time=0
Time=49020 Track=10 note_off channel=9 note=42 velocity=0 time=0
Time=49182 Track=3 note_off channel=2 note=87 velocity=0 time=222
Time=49200 Track=2 note_off channel=1 note=32 velocity=64 time=240
Time=49200 Track=3 note_on channel=2 note=84 velocity=43 time=18
Time=49200 Track=4 note_on channel=3 note=68 velocity=100 time=360
Time=49200 Track=4 note_on channel=3 note=72 velocity=100 time=0
Time=49200 Track=4 note_on channel=3 note=75 velocity=100 time=0
Time=49200 Track=5 note_on channel=4 note=56 velocity=100 time=360
Time=49200 Track=5 note_on channel=4 note=60 velocity=100 time=0
Time=49200 Track=5 note_on channel=4 note=63 velocity=100 time=0
Time=49200 Track=10 note_on channel=9 note=40 velocity=60 time=180
Time=49260 Track=10 note_off channel=9 note=40 velocity=0 time=60
Time=49267 Track=3 note_off channel=2 note=84 velocity=0 time=67
Time=49320 Track=2 note_on channel=1 note=36 velocity=100 time=120
Time=49320 Track=3 note_on channel=2 note=84 velocity=51 time=53
Time=49320 Track=4 note_off channel=3 note=68 velocity=0 time=120
Time=49320 Track=4 note_off channel=3 note=72 velocity=0 time=0
Time=49320 Track=4 note_off channel=3 note=75 velocity=0 time=0
Time=49320 Track=5 note_off channel=4 note=56 velocity=0 time=120
Time=49320 Track=5 note_off channel=4 note=60 velocity=0 time=0
Time=49320 Track=5 note_off channel=4 note=63 velocity=0 time=0
Time=49320 Track=10 note_on channel=9 note=40 velocity=120 time=60
Time=49320 Track=10 note_on channel=9 note=42 velocity=100 time=0
Time=49380 Track=10 note_off channel=9 note=40 velocity=0 time=60
Time=49380 Track=10 note_off channel=9 note=42 velocity=0 time=0
Time=49386 Track=3 note_off channel=2 note=84 velocity=0 time=66
Time=49440 Track=2 note_off channel=1 note=36 velocity=64 time=120
Time=49440 Track=2 note_on channel=1 note=39 velocity=100 time=0
Time=49440 Track=3 note_on channel=2 note=84 velocity=54 time=54
Time=49440 Track=4 note_on channel=3 note=68 velocity=100 time=120
Time=49440 Track=4 note_on channel=3 note=72 velocity=100 time=0
Time=49440 Track=4 note_on channel=3 note=75 velocity=100 time=0
Time=49440 Track=10 note_on channel=9 note=36 velocity=127 time=60
Time=49440 Track=10 note_on channel=9 note=42 velocity=100 time=0
Time=49500 Track=10 note_off channel=9 note=36 velocity=0 time=60
Time=49500 Track=10 note_off channel=9 note=42 velocity=0 time=0
Time=49515 Track=3 note_off channel=2 note=84 velocity=0 time=75
Time=49560 Track=2 note_off channel=1 note=39 velocity=64 time=120
Time=49560 Track=3 note_on channel=2 note=85 velocity=44 time=45
Time=49560 Track=4 note_off channel=3 note=68 velocity=0 time=120
Time=49560 Track=4 note_off channel=3 note=72 velocity=0 time=0
Time=49560 Track=4 note_off channel=3 note=75 velocity=0 time=0
Time=49671 Track=3 note_off channel=2 note=85 velocity=0 time=111
Time=49680 Track=2 note_on channel=1 note=39 velocity=100 time=120
Time=49680 Track=3 note_on channel=2 note=84 velocity=58 time=9
Time=49680 Track=4 note_on channel=3 note=68 velocity=100 time=120
Time=49680 Track=4 note_on channel=3 note=72 velocity=100 time=0
Time=49680 Track=4 note_on channel=3 note=75 velocity=100 time=0
Time=49680 Track=5 note_on channel=4 note=56 velocity=100 time=360
Time=49680 Track=5 note_on channel=4 note=60 velocity=100 time=0
Time=49680 Track=5 note_on channel=4 note=63 velocity=100 time=0
Time=49680 Track=10 note_on channel=9 note=40 velocity=120 time=180
Time=49680 Track=10 note_on channel=9 note=42 velocity=100 time=0
Time=49740 Track=10 note_off channel=9 note=40 velocity=0 time=60
Time=49740 Track=10 note_off channel=9 note=42 velocity=0 time=0
Time=49784 Track=3 note_off channel=2 note=84 velocity=0 time=104
Time=49800 Track=2 note_off channel=1 note=39 velocity=64 time=120
Time=49800 Track=4 note_off channel=3 note=68 velocity=0 time=120
Time=49800 Track=4 note_off channel=3 note=72 velocity=0 time=0
Time=49800 Track=4 note_off channel=3 note=75 velocity=0 time=0
Time=49800 Track=5 note_off channel=4 note=56 velocity=0 time=120
Time=49800 Track=5 note_off channel=4 note=60 velocity=0 time=0
Time=49800 Track=5 note_off channel=4 note=63 velocity=0 time=0
Time=49920 Track=2 note_on channel=1 note=27 velocity=100 time=120
Time=49920 Track=3 note_on channel=2 note=85 velocity=51 time=136
Time=49920 Track=10 note_on channel=9 note=36 velocity=127 time=180
Time=49920 Track=10 note_on channel=9 note=41 velocity=127 time=0
Time=49920 Track=10 note_on channel=9 note=42 velocity=100 time=0
Time=49980 Track=10 note_off channel=9 note=36 velocity=0 time=60
Time=49980 Track=10 note_off channel=9 note=41 velocity=0 time=0
Time=49980 Track=10 note_off channel=9 note=42 velocity=0 time=0
Time=50159 Track=3 note_off channel=2 note=85 velocity=0 time=239
Time=50160 Track=2 note_off channel=1 note=27 velocity=64 time=240
Time=50160 Track=3 note_on channel=2 note=82 velocity=53 time=1
Time=50160 Track=4 note_on channel=3 note=63 velocity=100 time=360
Time=50160 Track=4 note_on channel=3 note=66 velocity=100 time=0
Time=50160 Track=4 note_on channel=3 note=70 velocity=100 time=0
Time=50160 Track=5 note_on channel=4 note=51 velocity=100 time=360
Time=50160 Track=5 note_on channel=4 note=54 velocity=100 time=0
Time=50160 Track=5 note_on channel=4 note=58 velocity=100 time=0
Time=50160 Track=7 note_on channel=6 note=70 velocity=102 time=10320
Time=50160 Track=10 note_on channel=9 note=40 velocity=60 time=180
Time=50220 Track=10 note_off channel=9 note=40 velocity=0 time=60
Time=50226 Track=3 note_off channel=2 note=82 velocity=0 time=66
Time=50280 Track=2 note_on channel=1 note=27 velocity=100 time=120
Time=50280 Track=4 note_off channel=3 note=63 velocity=0 time=120
Time=50280 Track=4 note_off channel=3 note=66 velocity=0 time=0
Time=50280 Track=4 note_off channel=3 note=70 velocity=0 time=0
Time=50280 Track=5 note_off channel=4 note=51 velocity=0 time=120
Time=50280 Track=5 note_off channel=4 note=54 velocity=0 time=0
Time=50280 Track=5 note_off channel=4 note=58 velocity=0 time=0
Time=50280 Track=7 note_off channel=6 note=70 velocity=0 time=120
Time=50280 Track=10 note_on channel=9 note=40 velocity=120 time=60
Time=50280 Track=10 note_on channel=9 note=42 velocity=100 time=0
Time=50339 Track=10 note_off channel=9 note=40 velocity=0 time=59
Time=50340 Track=10 note_off channel=9 note=42 velocity=0 time=1
Time=50400 Track=2 note_off channel=1 note=27 velocity=64 time=120
Time=50400 Track=2 note_on channel=1 note=34 velocity=100 time=0
Time=50400 Track=4 note_on channel=3 note=63 velocity=100 time=120
Time=50400 Track=4 note_on channel=3 note=66 velocity=100 time=0
Time=50400 Track=4 note_on channel=3 note=70 velocity=100 time=0
Time=50400 Track=10 note_on channel=9 note=36 velocity=127 time=60
Time=50400 Track=10 note_on channel=9 note=42 velocity=100 time=0
Time=50460 Track=10 note_off channel=9 note=36 velocity=0 time=60
Time=50460 Track=10 note_off channel=9 note=42 velocity=0 time=0
Time=50520 Track=2 note_off channel=1 note=34 velocity=64 time=120
Time=50520 Track=4 note_off channel=3 note=63 velocity=0 time=120
Time=50520 Track=4 note_off channel=3 note=66 velocity=0 time=0
Time=50520 Track=4 note_off channel=3 note=70 velocity=0 time=0
Time=50640 Track=2 note_on channel=1 note=34 velocity=100 time=120
Time=50640 Track=3 note_on channel=2 note=82 velocity=55 time=414
Time=50640 Track=4 note_on channel=3 note=63 velocity=100 time=120
Time=50640 Track=4 note_on channel=3 note=66 velocity=100 time=0
Time=50640 Track=4 note_on channel=3 note=70 velocity=100 time=0
Time=50640 Track=5 note_on channel=4 note=51 velocity=100 time=360
Time=50640 Track=5 note_on channel=4 note=54 velocity=100 time=0
Time=50640 Track=5 note_on channel=4 note=58 velocity=100 time=0
Time=50640 Track=7 note_on channel=6 note=70 velocity=127 time=360
Time=50640 Track=10 note_on channel=9 note=40 velocity=120 time=180
Time=50640 Track=10 note_on channel=9 note=42 velocity=100 time=0
Time=50699 Track=3 note_off channel=2 note=82 velocity=0 time=59
Time=50699 Track=10 note_off channel=9 note=40 velocity=0 time=59
Time=50700 Track=10 note_off channel=9 note=42 velocity=0 time=1
Time=50760 Track=2 note_off channel=1 note=34 velocity=64 time=120
Time=50760 Track=4 note_off channel=3 note=63 velocity=0 time=120
Time=50760 Track=4 note_off channel=3 note=66 velocity=0 time=0
Time=50760 Track=4 note_off channel=3 note=70 velocity=0 time=0
Time=50760 Track=5 note_off channel=4 note=51 velocity=0 time=120
Time=50760 Track=5 note_off channel=4 note=54 velocity=0 time=0
Time=50760 Track=5 note_off channel=4 note=58 velocity=0 time=0
Time=50760 Track=7 note_off channel=6 note=70 velocity=0 time=120
Time=50880 Track=2 note_on channel=1 note=27 velocity=100 time=120
Time=50880 Track=3 note_on channel=2 note=89 velocity=46 time=181
Time=50880 Track=7 note_on channel=6 note=77 velocity=127 time=120
Time=50880 Track=10 note_on channel=9 note=36 velocity=127 time=180
Time=50880 Track=10 note_on channel=9 note=41 velocity=127 time=0
Time=50880 Track=10 note_on channel=9 note=42 velocity=100 time=0
Time=50940 Track=10 note_off channel=9 note=36 velocity=0 time=60
Time=50940 Track=10 note_off channel=9 note=41 velocity=0 time=0
Time=50940 Track=10 note_off channel=9 note=42 velocity=0 time=0
Time=50999 Track=3 note_off channel=2 note=89 velocity=0 time=119
Time=51007 Track=7 note_off channel=6 note=77 velocity=0 time=127
Time=51120 Track=2 note_off channel=1 note=27 velocity=64 time=240
Time=51120 Track=3 note_on channel=2 note=87 velocity=51 time=121
Time=51120 Track=4 note_on channel=3 note=63 velocity=100 time=360
Time=51120 Track=4 note_on channel=3 note=66 velocity=100 time=0
Time=51120 Track=4 note_on channel=3 note=70 velocity=100 time=0
Time=51120 Track=5 note_on channel=4 note=51 velocity=100 time=360
Time=51120 Track=5 note_on channel=4 note=54 velocity=100 time=0
Time=51120 Track=5 note_on channel=4 note=58 velocity=100 time=0
Time=51120 Track=7 note_on channel=6 note=75 velocity=127 time=113
Time=51120 Track=10 note_on channel=9 note=40 velocity=60 time=180
Time=51179 Track=3 note_off channel=2 note=87 velocity=0 time=59
Time=51180 Track=10 note_off channel=9 note=40 velocity=0 time=60
Time=51240 Track=2 note_on channel=1 note=27 velocity=100 time=120
Time=51240 Track=3 note_on channel=2 note=89 velocity=48 time=61
Time=51240 Track=4 note_off channel=3 note=63 velocity=0 time=120
Time=51240 Track=4 note_off channel=3 note=66 velocity=0 time=0
Time=51240 Track=4 note_off channel=3 note=70 velocity=0 time=0
Time=51240 Track=5 note_off channel=4 note=51 velocity=0 time=120
Time=51240 Track=5 note_off channel=4 note=54 velocity=0 time=0
Time=51240 Track=5 note_off channel=4 note=58 velocity=0 time=0
Time=51240 Track=7 note_off channel=6 note=75 velocity=0 time=120
Time=51240 Track=10 note_on channel=9 note=40 velocity=120 time=60
Time=51240 Track=10 note_on channel=9 note=42 velocity=100 time=0
Time=51300 Track=10 note_off channel=9 note=40 velocity=0 time=60
Time=51300 Track=10 note_off channel=9 note=42 velocity=0 time=0
Time=51359 Track=3 note_off channel=2 note=89 velocity=0 time=119
Time=51360 Track=2 note_off channel=1 note=27 velocity=64 time=120
Time=51360 Track=2 note_on channel=1 note=37 velocity=100 time=0
Time=51360 Track=3 note_on channel=2 note=87 velocity=59 time=1
Time=51360 Track=4 note_on channel=3 note=63 velocity=100 time=120
Time=51360 Track=4 note_on channel=3 note=66 velocity=100 time=0
Time=51360 Track=4 note_on channel=3 note=70 velocity=100 time=0
Time=51360 Track=10 note_on channel=9 note=36 velocity=127 time=60
Time=51360 Track=10 note_on channel=9 note=42 velocity=100 time=0
Time=51420 Track=10 note_off channel=9 note=36 velocity=0 time=60
Time=51420 Track=10 note_off channel=9 note=42 velocity=0 time=0
Time=51450 Track=3 note_off channel=2 note=87 velocity=0 time=90
Time=51480 Track=2 note_off channel=1 note=37 velocity=64 time=120
Time=51480 Track=3 note_on channel=2 note=85 velocity=36 time=30
Time=51480 Track=4 note_off channel=3 note=63 velocity=0 time=120
Time=51480 Track=4 note_off channel=3 note=66 velocity=0 time=0
Time=51480 Track=4 note_off channel=3 note=70 velocity=0 time=0
Time=51517 Track=3 note_off channel=2 note=85 velocity=0 time=37
Time=51600 Track=2 note_on channel=1 note=37 velocity=100 time=120
Time=51600 Track=3 note_on channel=2 note=85 velocity=55 time=83
Time=51600 Track=4 note_on channel=3 note=63 velocity=100 time=120
Time=51600 Track=4 note_on channel=3 note=66 velocity=100 time=0
Time=51600 Track=4 note_on channel=3 note=70 velocity=100 time=0
Time=51600 Track=5 note_on channel=4 note=51 velocity=100 time=360
Time=51600 Track=5 note_on channel=4 note=54 velocity=100 time=0
Time=51600 Track=5 note_on channel=4 note=58 velocity=100 time=0
Time=51600 Track=10 note_on channel=9 note=40 velocity=120 time=180
Time=51600 Track=10 note_on channel=9 note=42 velocity=100 time=0
Time=51660 Track=10 note_off channel=9 note=40 velocity=0 time=16
Time=51660 Track=10 note_off channel=9 note=42 velocity=0 time=0
Time=51665 Track=3 note_off channel=2 note=85 velocity=0 time=65
Time=51720 Track=2 note_off channel=1 note=37 velocity=64 time=120
Time=51720 Track=4 note_off channel=3 note=63 velocity=0 time=120
Time=51720 Track=4 note_off channel=3 note=66 velocity=0 time=0
Time=51720 Track=4 note_off channel=3 note=70 velocity=0 time=0
Time=51720 Track=5 note_off channel=4 note=51 velocity=0 time=120
Time=51720 Track=5 note_off channel=4 note=54 velocity=0 time=0
Time=51720 Track=5 note_off channel=4 note=58 velocity=0 time=0
Time=51840 Track=2 note_on channel=1 note=34 velocity=100 time=120
Time=51840 Track=3 note_on channel=2 note=85 velocity=55 time=175
Time=51840 Track=10 note_on channel=9 note=36 velocity=127 time=180
Time=51840 Track=10 note_on channel=9 note=41 velocity=127 time=0
Time=51840 Track=10 note_on channel=9 note=42 velocity=100 time=0
Time=51900 Track=10 note_off channel=9 note=36 velocity=0 time=60
Time=51900 Track=10 note_off channel=9 note=41 velocity=0 time=0
Time=51900 Track=10 note_off channel=9 note=42 velocity=0 time=0
Time=52080 Track=2 note_off channel=1 note=34 velocity=64 time=240
Time=52080 Track=4 note_on channel=3 note=70 velocity=100 time=360
Time=52080 Track=4 note_on channel=3 note=73 velocity=100 time=0
Time=52080 Track=4 note_on channel=3 note=77 velocity=100 time=0
Time=52080 Track=5 note_on channel=4 note=58 velocity=100 time=360
Time=52080 Track=5 note_on channel=4 note=61 velocity=100 time=0
Time=52080 Track=5 note_on channel=4 note=65 velocity=100 time=0
Time=52080 Track=10 note_on channel=9 note=40 velocity=60 time=144
Time=52140 Track=10 note_off channel=9 note=40 velocity=0 time=60
Time=52200 Track=2 note_on channel=1 note=37 velocity=100 time=120
Time=52200 Track=4 note_off channel=3 note=70 velocity=0 time=120
Time=52200 Track=4 note_off channel=3 note=73 velocity=0 time=0
Time=52200 Track=4 note_off channel=3 note=77 velocity=0 time=0
Time=52200 Track=5 note_off channel=4 note=58 velocity=0 time=120
Time=52200 Track=5 note_off channel=4 note=61 velocity=0 time=0
Time=52200 Track=5 note_off channel=4 note=65 velocity=0 time=0
Time=52200 Track=10 note_on channel=9 note=40 velocity=120 time=60
Time=52200 Track=10 note_on channel=9 note=42 velocity=100 time=0
Time=52231 Track=3 note_off channel=2 note=85 velocity=0 time=391
Time=52260 Track=10 note_off channel=9 note=40 velocity=0 time=60
Time=52260 Track=10 note_off channel=9 note=42 velocity=0 time=0
Time=52320 Track=2 note_off channel=1 note=37 velocity=64 time=120
Time=52320 Track=2 note_on channel=1 note=41 velocity=100 time=0
Time=52320 Track=4 note_on channel=3 note=70 velocity=100 time=120
Time=52320 Track=4 note_on channel=3 note=73 velocity=100 time=0
Time=52320 Track=4 note_on channel=3 note=77 velocity=100 time=0
Time=52320 Track=10 note_on channel=9 note=36 velocity=127 time=60
Time=52320 Track=10 note_on channel=9 note=42 velocity=100 time=0
Time=52380 Track=10 note_off channel=9 note=36 velocity=0 time=60
Time=52380 Track=10 note_off channel=9 note=42 velocity=0 time=0
Time=52440 Track=2 note_off channel=1 note=41 velocity=64 time=120
Time=52440 Track=3 note_on channel=2 note=85 velocity=42 time=209
Time=52440 Track=4 note_off channel=3 note=70 velocity=0 time=120
Time=52440 Track=4 note_off channel=3 note=73 velocity=0 time=0
Time=52440 Track=4 note_off channel=3 note=77 velocity=0 time=0
Time=52498 Track=3 note_off channel=2 note=85 velocity=0 time=58
Time=52560 Track=2 note_on channel=1 note=41 velocity=100 time=120
Time=52560 Track=3 note_on channel=2 note=85 velocity=42 time=62
Time=52560 Track=4 note_on channel=3 note=70 velocity=100 time=120
Time=52560 Track=4 note_on channel=3 note=73 velocity=100 time=0
Time=52560 Track=4 note_on channel=3 note=77 velocity=100 time=0
Time=52560 Track=5 note_on channel=4 note=58 velocity=100 time=360
Time=52560 Track=5 note_on channel=4 note=61 velocity=100 time=0
Time=52560 Track=5 note_on channel=4 note=65 velocity=100 time=0
Time=52560 Track=10 note_on channel=9 note=40 velocity=120 time=180
Time=52560 Track=10 note_on channel=9 note=42 velocity=100 time=0
Time=52620 Track=10 note_off channel=9 note=40 velocity=0 time=60
Time=52620 Track=10 note_off channel=9 note=42 velocity=0 time=0
Time=52664 Track=3 note_off channel=2 note=85 velocity=0 time=104
Time=52680 Track=2 note_off channel=1 note=41 velocity=64 time=120
Time=52680 Track=4 note_off channel=3 note=70 velocity=0 time=120
Time=52680 Track=4 note_off channel=3 note=73 velocity=0 time=0
Time=52680 Track=4 note_off channel=3 note=77 velocity=0 time=0
Time=52680 Track=5 note_off channel=4 note=58 velocity=0 time=120
Time=52680 Track=5 note_off channel=4 note=61 velocity=0 time=0
Time=52680 Track=5 note_off channel=4 note=65 velocity=0 time=0
Time=52800 Track=2 note_on channel=1 note=32 velocity=100 time=120
Time=52800 Track=3 note_on channel=2 note=87 velocity=39 time=136
Time=52800 Track=10 note_on channel=9 note=36 velocity=127 time=180
Time=52800 Track=10 note_on channel=9 note=41 velocity=127 time=0
Time=52800 Track=10 note_on channel=9 note=42 velocity=100 time=0
Time=52857 Track=10 note_off channel=9 note=42 velocity=0 time=57
Time=52860 Track=10 note_off channel=9 note=36 velocity=0 time=3
Time=52860 Track=10 note_off channel=9 note=41 velocity=0 time=0
Time=53040 Track=2 note_off channel=1 note=32 velocity=64 time=240
Time=53040 Track=3 note_on channel=2 note=84 velocity=58 time=240
Time=53040 Track=4 note_on channel=3 note=68 velocity=100 time=360
Time=53040 Track=4 note_on channel=3 note=72 velocity=100 time=0
Time=53040 Track=4 note_on channel=3 note=75 velocity=100 time=0
Time=53040 Track=5 note_on channel=4 note=56 velocity=100 time=360
Time=53040 Track=5 note_on channel=4 note=60 velocity=100 time=0
Time=53040 Track=5 note_on channel=4 note=63 velocity=100 time=0
Time=53040 Track=10 note_on channel=9 note=40 velocity=60 time=180
Time=53045 Track=3 note_off channel=2 note=87 velocity=0 time=5
Time=53098 Track=3 note_off channel=2 note=84 velocity=0 time=53
Time=53099 Track=10 note_off channel=9 note=40 velocity=0 time=59
Time=53160 Track=2 note_on channel=1 note=36 velocity=100 time=120
Time=53160 Track=3 note_on channel=2 note=84 velocity=45 time=62
Time=53160 Track=4 note_off channel=3 note=68 velocity=0 time=120
Time=53160 Track=4 note_off channel=3 note=72 velocity=0 time=0
Time=53160 Track=4 note_off channel=3 note=75 velocity=0 time=0
Time=53160 Track=5 note_off channel=4 note=56 velocity=0 time=120
Time=53160 Track=5 note_off channel=4 note=60 velocity=0 time=0
Time=53160 Track=5 note_off channel=4 note=63 velocity=0 time=0
Time=53160 Track=10 note_on channel=9 note=40 velocity=120 time=61
Time=53160 Track=10 note_on channel=9 note=42 velocity=100 time=0
Time=53220 Track=10 note_off channel=9 note=40 velocity=0 time=60
Time=53220 Track=10 note_off channel=9 note=42 velocity=0 time=0
Time=53250 Track=3 note_off channel=2 note=84 velocity=0 time=90
Time=53280 Track=2 note_off channel=1 note=36 velocity=64 time=120
Time=53280 Track=2 note_on channel=1 note=39 velocity=100 time=0
Time=53280 Track=3 note_on channel=2 note=84 velocity=49 time=30
Time=53280 Track=4 note_on channel=3 note=68 velocity=100 time=120
Time=53280 Track=4 note_on channel=3 note=72 velocity=100 time=0
Time=53280 Track=4 note_on channel=3 note=75 velocity=100 time=0
Time=53280 Track=10 note_on channel=9 note=36 velocity=127 time=60
Time=53280 Track=10 note_on channel=9 note=42 velocity=100 time=0
Time=53340 Track=10 note_off channel=9 note=36 velocity=0 time=60
Time=53341 Track=10 note_off channel=9 note=42 velocity=0 time=1
Time=53370 Track=3 note_off channel=2 note=84 velocity=0 time=90
Time=53370 Track=3 note_on channel=2 note=85 velocity=36 time=0
Time=53400 Track=2 note_off channel=1 note=39 velocity=64 time=120
Time=53400 Track=4 note_off channel=3 note=68 velocity=0 time=120
Time=53400 Track=4 note_off channel=3 note=72 velocity=0 time=0
Time=53400 Track=4 note_off channel=3 note=75 velocity=0 time=0
Time=53490 Track=3 note_off channel=2 note=85 velocity=0 time=120
Time=53520 Track=2 note_on channel=1 note=39 velocity=100 time=120
Time=53520 Track=3 note_on channel=2 note=84 velocity=66 time=30
Time=53520 Track=4 note_on channel=3 note=68 velocity=100 time=120
Time=53520 Track=4 note_on channel=3 note=72 velocity=100 time=0
Time=53520 Track=4 note_on channel=3 note=75 velocity=100 time=0
Time=53520 Track=5 note_on channel=4 note=56 velocity=100 time=360
Time=53520 Track=5 note_on channel=4 note=60 velocity=100 time=0
Time=53520 Track=5 note_on channel=4 note=63 velocity=100 time=0
Time=53520 Track=10 note_on channel=9 note=40 velocity=120 time=179
Time=53520 Track=10 note_on channel=9 note=42 velocity=100 time=0
Time=53580 Track=10 note_off channel=9 note=40 velocity=0 time=60
Time=53580 Track=10 note_off channel=9 note=42 velocity=0 time=0
Time=53640 Track=2 note_off channel=1 note=39 velocity=64 time=120
Time=53640 Track=3 note_off channel=2 note=84 velocity=0 time=120
Time=53640 Track=4 note_off channel=3 note=68 velocity=0 time=120
Time=53640 Track=4 note_off channel=3 note=72 velocity=0 time=0
Time=53640 Track=4 note_off channel=3 note=75 velocity=0 time=0
Time=53640 Track=5 note_off channel=4 note=56 velocity=0 time=120
Time=53640 Track=5 note_off channel=4 note=60 velocity=0 time=0
Time=53640 Track=5 note_off channel=4 note=63 velocity=0 time=0
Time=53760 Track=2 note_on channel=1 note=27 velocity=100 time=120
Time=53760 Track=3 note_on channel=2 note=85 velocity=66 time=120
Time=53760 Track=10 note_on channel=9 note=36 velocity=127 time=180
Time=53760 Track=10 note_on channel=9 note=41 velocity=127 time=0
Time=53760 Track=10 note_on channel=9 note=42 velocity=100 time=0
Time=53820 Track=10 note_off channel=9 note=36 velocity=0 time=60
Time=53820 Track=10 note_off channel=9 note=41 velocity=0 time=0
Time=53820 Track=10 note_off channel=9 note=42 velocity=0 time=0
Time=53970 Track=3 note_off channel=2 note=85 velocity=0 time=210
Time=54000 Track=2 note_off channel=1 note=27 velocity=64 time=240
Time=54000 Track=3 note_on channel=2 note=82 velocity=33 time=30
Time=54000 Track=4 note_on channel=3 note=63 velocity=100 time=360
Time=54000 Track=4 note_on channel=3 note=66 velocity=100 time=0
Time=54000 Track=4 note_on channel=3 note=70 velocity=100 time=0
Time=54000 Track=5 note_on channel=4 note=51 velocity=100 time=360
Time=54000 Track=5 note_on channel=4 note=54 velocity=100 time=0
Time=54000 Track=5 note_on channel=4 note=58 velocity=100 time=0
Time=54000 Track=7 note_on channel=6 note=70 velocity=102 time=2760
Time=54000 Track=10 note_on channel=9 note=40 velocity=60 time=180
Time=54060 Track=10 note_off channel=9 note=40 velocity=0 time=60
Time=54090 Track=3 note_off channel=2 note=82 velocity=0 time=90
Time=54120 Track=2 note_on channel=1 note=30 velocity=100 time=120
Time=54120 Track=4 note_off channel=3 note=63 velocity=0 time=120
Time=54120 Track=4 note_off channel=3 note=66 velocity=0 time=0
Time=54120 Track=4 note_off channel=3 note=70 velocity=0 time=0
Time=54120 Track=5 note_off channel=4 note=51 velocity=0 time=120
Time=54120 Track=5 note_off channel=4 note=54 velocity=0 time=0
Time=54120 Track=5 note_off channel=4 note=58 velocity=0 time=0
Time=54120 Track=7 note_off channel=6 note=70 velocity=0 time=120
Time=54120 Track=10 note_on channel=9 note=40 velocity=120 time=60
Time=54120 Track=10 note_on channel=9 note=42 velocity=100 time=0
Time=54180 Track=10 note_off channel=9 note=40 velocity=0 time=60
Time=54180 Track=10 note_off channel=9 note=42 velocity=0 time=0
Time=54240 Track=2 note_off channel=1 note=30 velocity=64 time=120
Time=54240 Track=2 note_on channel=1 note=34 velocity=100 time=0
Time=54240 Track=4 note_on channel=3 note=63 velocity=100 time=120
Time=54240 Track=4 note_on channel=3 note=66 velocity=100 time=0
Time=54240 Track=4 note_on channel=3 note=70 velocity=100 time=0
Time=54240 Track=10 note_on channel=9 note=36 velocity=127 time=60
Time=54240 Track=10 note_on channel=9 note=42 velocity=100 time=0
Time=54300 Track=10 note_off channel=9 note=36 velocity=0 time=60
Time=54300 Track=10 note_off channel=9 note=42 velocity=0 time=0
Time=54360 Track=2 note_off channel=1 note=34 velocity=64 time=120
Time=54360 Track=4 note_off channel=3 note=63 velocity=0 time=120
Time=54360 Track=4 note_off channel=3 note=66 velocity=0 time=0
Time=54360 Track=4 note_off channel=3 note=70 velocity=0 time=0
Time=54480 Track=2 note_on channel=1 note=34 velocity=100 time=120
Time=54480 Track=4 note_on channel=3 note=63 velocity=100 time=120
Time=54480 Track=4 note_on channel=3 note=66 velocity=100 time=0
Time=54480 Track=4 note_on channel=3 note=70 velocity=100 time=0
Time=54480 Track=5 note_on channel=4 note=51 velocity=100 time=360
Time=54480 Track=5 note_on channel=4 note=54 velocity=100 time=0
Time=54480 Track=5 note_on channel=4 note=58 velocity=100 time=0
Time=54480 Track=7 note_on channel=6 note=70 velocity=127 time=360
Time=54480 Track=10 note_on channel=9 note=40 velocity=120 time=180
Time=54480 Track=10 note_on channel=9 note=42 velocity=100 time=0
Time=54540 Track=10 note_off channel=9 note=40 velocity=0 time=60
Time=54540 Track=10 note_off channel=9 note=42 velocity=0 time=0
Time=54600 Track=2 note_off channel=1 note=34 velocity=64 time=120
Time=54600 Track=4 note_off channel=3 note=63 velocity=0 time=120
Time=54600 Track=4 note_off channel=3 note=66 velocity=0 time=0
Time=54600 Track=4 note_off channel=3 note=70 velocity=0 time=0
Time=54600 Track=5 note_off channel=4 note=51 velocity=0 time=120
Time=54600 Track=5 note_off channel=4 note=54 velocity=0 time=0
Time=54600 Track=5 note_off channel=4 note=58 velocity=0 time=0
Time=54600 Track=7 note_off channel=6 note=70 velocity=0 time=120
Time=54720 Track=2 note_on channel=1 note=27 velocity=100 time=120
Time=54720 Track=7 note_on channel=6 note=77 velocity=127 time=120
Time=54720 Track=10 note_on channel=9 note=36 velocity=127 time=180
Time=54720 Track=10 note_on channel=9 note=41 velocity=127 time=0
Time=54720 Track=10 note_on channel=9 note=42 velocity=100 time=0
Time=54780 Track=10 note_off channel=9 note=36 velocity=0 time=60
Time=54780 Track=10 note_off channel=9 note=41 velocity=0 time=0
Time=54780 Track=10 note_off channel=9 note=42 velocity=0 time=0
Time=54847 Track=7 note_off channel=6 note=77 velocity=0 time=127
Time=54960 Track=2 note_off channel=1 note=27 velocity=64 time=240
Time=54960 Track=7 note_on channel=6 note=75 velocity=127 time=113
Time=55080 Track=2 note_on channel=1 note=27 velocity=100 time=120
Time=55080 Track=7 note_off channel=6 note=75 velocity=0 time=120
Time=55080 Track=10 note_on channel=9 note=40 velocity=120 time=300
Time=55080 Track=10 note_on channel=9 note=42 velocity=100 time=0
Time=55140 Track=10 note_off channel=9 note=40 velocity=0 time=60
Time=55140 Track=10 note_off channel=9 note=42 velocity=0 time=0
Time=55200 Track=2 note_off channel=1 note=27 velocity=64 time=120
Time=55200 Track=2 note_on channel=1 note=37 velocity=100 time=0
Time=55200 Track=10 note_on channel=9 note=36 velocity=127 time=60
Time=55200 Track=10 note_on channel=9 note=41 velocity=127 time=0
Time=55200 Track=10 note_on channel=9 note=42 velocity=100 time=0
Time=55260 Track=10 note_off channel=9 note=36 velocity=0 time=60
Time=55260 Track=10 note_off channel=9 note=41 velocity=0 time=0
Time=55260 Track=10 note_off channel=9 note=42 velocity=0 time=0
Time=55320 Track=2 note_off channel=1 note=37 velocity=64 time=120
Time=55440 Track=2 note_on channel=1 note=37 velocity=100 time=120
Time=55440 Track=10 note_on channel=9 note=40 velocity=120 time=180
Time=55440 Track=10 note_on channel=9 note=42 velocity=100 time=0
Time=55500 Track=10 note_off channel=9 note=40 velocity=0 time=60
Time=55500 Track=10 note_off channel=9 note=42 velocity=0 time=0
Time=55560 Track=2 note_off channel=1 note=37 velocity=64 time=120
Time=55680 Track=2 note_on channel=1 note=46 velocity=100 time=120
Time=56280 Track=3 note_on channel=2 note=85 velocity=38 time=2190
Time=56280 Track=10 note_on channel=9 note=40 velocity=120 time=91
Time=56339 Track=3 note_off channel=2 note=85 velocity=0 time=59
Time=56340 Track=10 note_off channel=9 note=40 velocity=0 time=60
Time=56400 Track=2 note_off channel=1 note=46 velocity=64 time=9
Time=56400 Track=2 note_on channel=1 note=41 velocity=100 time=0
Time=56400 Track=3 note_on channel=2 note=85 velocity=40 time=61
Time=56400 Track=10 note_on channel=9 note=40 velocity=120 time=60
Time=56460 Track=3 note_off channel=2 note=85 velocity=0 time=60
Time=56460 Track=10 note_off channel=9 note=40 velocity=0 time=60
Time=56520 Track=2 note_off channel=1 note=41 velocity=64 time=120
Time=56520 Track=3 note_on channel=2 note=85 velocity=40 time=60
Time=56580 Track=3 note_off channel=2 note=85 velocity=0 time=60
Time=56640 Track=2 note_on channel=1 note=32 velocity=100 time=120
Time=56640 Track=3 note_on channel=2 note=87 velocity=51 time=60
Time=56640 Track=10 note_on channel=9 note=36 velocity=127 time=180
Time=56640 Track=10 note_on channel=9 note=41 velocity=127 time=0
Time=56640 Track=10 note_on channel=9 note=42 velocity=100 time=0
Time=56700 Track=10 note_off channel=9 note=36 velocity=0 time=60
Time=56700 Track=10 note_off channel=9 note=41 velocity=0 time=0
Time=56700 Track=10 note_off channel=9 note=42 velocity=0 time=0
Time=56862 Track=3 note_off channel=2 note=87 velocity=0 time=222
Time=56880 Track=2 note_off channel=1 note=32 velocity=64 time=240
Time=56880 Track=3 note_on channel=2 note=84 velocity=43 time=18
Time=56880 Track=4 note_on channel=3 note=68 velocity=100 time=2280
Time=56880 Track=4 note_on channel=3 note=72 velocity=100 time=0
Time=56880 Track=4 note_on channel=3 note=75 velocity=100 time=0
Time=56880 Track=5 note_on channel=4 note=56 velocity=100 time=2280
Time=56880 Track=5 note_on channel=4 note=60 velocity=100 time=0
Time=56880 Track=5 note_on channel=4 note=63 velocity=100 time=0
Time=56880 Track=10 note_on channel=9 note=40 velocity=60 time=180
Time=56940 Track=10 note_off channel=9 note=40 velocity=0 time=60
Time=56947 Track=3 note_off channel=2 note=84 velocity=0 time=67
Time=57000 Track=2 note_on channel=1 note=36 velocity=100 time=120
Time=57000 Track=3 note_on channel=2 note=84 velocity=51 time=53
Time=57000 Track=4 note_off channel=3 note=68 velocity=0 time=120
Time=57000 Track=4 note_off channel=3 note=72 velocity=0 time=0
Time=57000 Track=4 note_off channel=3 note=75 velocity=0 time=0
Time=57000 Track=5 note_off channel=4 note=56 velocity=0 time=120
Time=57000 Track=5 note_off channel=4 note=60 velocity=0 time=0
Time=57000 Track=5 note_off channel=4 note=63 velocity=0 time=0
Time=57000 Track=10 note_on channel=9 note=40 velocity=120 time=60
Time=57000 Track=10 note_on channel=9 note=42 velocity=100 time=0
Time=57060 Track=10 note_off channel=9 note=40 velocity=0 time=60
Time=57060 Track=10 note_off channel=9 note=42 velocity=0 time=0
Time=57066 Track=3 note_off channel=2 note=84 velocity=0 time=66
Time=57120 Track=2 note_off channel=1 note=36 velocity=64 time=120
Time=57120 Track=2 note_on channel=1 note=39 velocity=100 time=0
Time=57120 Track=3 note_on channel=2 note=84 velocity=54 time=54
Time=57120 Track=4 note_on channel=3 note=68 velocity=100 time=120
Time=57120 Track=4 note_on channel=3 note=72 velocity=100 time=0
Time=57120 Track=4 note_on channel=3 note=75 velocity=100 time=0
Time=57120 Track=10 note_on channel=9 note=36 velocity=127 time=60
Time=57120 Track=10 note_on channel=9 note=42 velocity=100 time=0
Time=57180 Track=10 note_off channel=9 note=36 velocity=0 time=60
Time=57180 Track=10 note_off channel=9 note=42 velocity=0 time=0
Time=57195 Track=3 note_off channel=2 note=84 velocity=0 time=75
Time=57240 Track=2 note_off channel=1 note=39 velocity=64 time=120
Time=57240 Track=3 note_on channel=2 note=85 velocity=44 time=45
Time=57240 Track=4 note_off channel=3 note=68 velocity=0 time=120
Time=57240 Track=4 note_off channel=3 note=72 velocity=0 time=0
Time=57240 Track=4 note_off channel=3 note=75 velocity=0 time=0
Time=57351 Track=3 note_off channel=2 note=85 velocity=0 time=111
Time=57360 Track=2 note_on channel=1 note=39 velocity=100 time=120
Time=57360 Track=3 note_on channel=2 note=84 velocity=58 time=9
Time=57360 Track=4 note_on channel=3 note=68 velocity=100 time=120
Time=57360 Track=4 note_on channel=3 note=72 velocity=100 time=0
Time=57360 Track=4 note_on channel=3 note=75 velocity=100 time=0
Time=57360 Track=5 note_on channel=4 note=56 velocity=100 time=360
Time=57360 Track=5 note_on channel=4 note=60 velocity=100 time=0
Time=57360 Track=5 note_on channel=4 note=63 velocity=100 time=0
Time=57360 Track=10 note_on channel=9 note=40 velocity=120 time=180
Time=57360 Track=10 note_on channel=9 note=42 velocity=100 time=0
Time=57420 Track=10 note_off channel=9 note=40 velocity=0 time=60
Time=57420 Track=10 note_off channel=9 note=42 velocity=0 time=0
Time=57464 Track=3 note_off channel=2 note=84 velocity=0 time=104
Time=57480 Track=2 note_off channel=1 note=39 velocity=64 time=120
Time=57480 Track=4 note_off channel=3 note=68 velocity=0 time=120
Time=57480 Track=4 note_off channel=3 note=72 velocity=0 time=0
Time=57480 Track=4 note_off channel=3 note=75 velocity=0 time=0
Time=57480 Track=5 note_off channel=4 note=56 velocity=0 time=120
Time=57480 Track=5 note_off channel=4 note=60 velocity=0 time=0
Time=57480 Track=5 note_off channel=4 note=63 velocity=0 time=0
Time=57600 Track=2 note_on channel=1 note=27 velocity=100 time=120
Time=57600 Track=3 note_on channel=2 note=85 velocity=51 time=136
Time=57600 Track=10 note_on channel=9 note=36 velocity=127 time=180
Time=57600 Track=10 note_on channel=9 note=41 velocity=127 time=0
Time=57600 Track=10 note_on channel=9 note=42 velocity=100 time=0
Time=57660 Track=10 note_off channel=9 note=36 velocity=0 time=60
Time=57660 Track=10 note_off channel=9 note=41 velocity=0 time=0
Time=57660 Track=10 note_off channel=9 note=42 velocity=0 time=0
Time=57839 Track=3 note_off channel=2 note=85 velocity=0 time=239
Time=57840 Track=2 note_off channel=1 note=27 velocity=64 time=240
Time=57840 Track=3 note_on channel=2 note=82 velocity=53 time=1
Time=57840 Track=4 note_on channel=3 note=63 velocity=100 time=360
Time=57840 Track=4 note_on channel=3 note=66 velocity=100 time=0
Time=57840 Track=4 note_on channel=3 note=70 velocity=100 time=0
Time=57840 Track=5 note_on channel=4 note=51 velocity=100 time=360
Time=57840 Track=5 note_on channel=4 note=54 velocity=100 time=0
Time=57840 Track=5 note_on channel=4 note=58 velocity=100 time=0
Time=57840 Track=7 note_on channel=6 note=70 velocity=102 time=2760
Time=57840 Track=10 note_on channel=9 note=40 velocity=60 time=180
Time=57900 Track=10 note_off channel=9 note=40 velocity=0 time=60
Time=57906 Track=3 note_off channel=2 note=82 velocity=0 time=66
Time=57960 Track=2 note_on channel=1 note=27 velocity=100 time=120
Time=57960 Track=4 note_off channel=3 note=63 velocity=0 time=120
Time=57960 Track=4 note_off channel=3 note=66 velocity=0 time=0
Time=57960 Track=4 note_off channel=3 note=70 velocity=0 time=0
Time=57960 Track=5 note_off channel=4 note=51 velocity=0 time=120
Time=57960 Track=5 note_off channel=4 note=54 velocity=0 time=0
Time=57960 Track=5 note_off channel=4 note=58 velocity=0 time=0
Time=57960 Track=7 note_off channel=6 note=70 velocity=0 time=120
Time=57960 Track=10 note_on channel=9 note=40 velocity=120 time=60
Time=57960 Track=10 note_on channel=9 note=42 velocity=100 time=0
Time=58019 Track=10 note_off channel=9 note=40 velocity=0 time=59
Time=58020 Track=10 note_off channel=9 note=42 velocity=0 time=1
Time=58080 Track=2 note_off channel=1 note=27 velocity=64 time=120
Time=58080 Track=2 note_on channel=1 note=34 velocity=100 time=0
Time=58080 Track=4 note_on channel=3 note=63 velocity=100 time=120
Time=58080 Track=4 note_on channel=3 note=66 velocity=100 time=0
Time=58080 Track=4 note_on channel=3 note=70 velocity=100 time=0
Time=58080 Track=10 note_on channel=9 note=36 velocity=127 time=60
Time=58080 Track=10 note_on channel=9 note=42 velocity=100 time=0
Time=58140 Track=10 note_off channel=9 note=36 velocity=0 time=60
Time=58140 Track=10 note_off channel=9 note=42 velocity=0 time=0
Time=58200 Track=2 note_off channel=1 note=34 velocity=64 time=120
Time=58200 Track=4 note_off channel=3 note=63 velocity=0 time=120
Time=58200 Track=4 note_off channel=3 note=66 velocity=0 time=0
Time=58200 Track=4 note_off channel=3 note=70 velocity=0 time=0
Time=58320 Track=2 note_on channel=1 note=34 velocity=100 time=120
Time=58320 Track=3 note_on channel=2 note=82 velocity=55 time=414
Time=58320 Track=4 note_on channel=3 note=63 velocity=100 time=120
Time=58320 Track=4 note_on channel=3 note=66 velocity=100 time=0
Time=58320 Track=4 note_on channel=3 note=70 velocity=100 time=0
Time=58320 Track=5 note_on channel=4 note=51 velocity=100 time=360
Time=58320 Track=5 note_on channel=4 note=54 velocity=100 time=0
Time=58320 Track=5 note_on channel=4 note=58 velocity=100 time=0
Time=58320 Track=7 note_on channel=6 note=70 velocity=127 time=360
Time=58320 Track=10 note_on channel=9 note=40 velocity=120 time=180
Time=58320 Track=10 note_on channel=9 note=42 velocity=100 time=0
Time=58379 Track=3 note_off channel=2 note=82 velocity=0 time=59
Time=58379 Track=10 note_off channel=9 note=40 velocity=0 time=59
Time=58380 Track=10 note_off channel=9 note=42 velocity=0 time=1
Time=58440 Track=2 note_off channel=1 note=34 velocity=64 time=120
Time=58440 Track=4 note_off channel=3 note=63 velocity=0 time=120
Time=58440 Track=4 note_off channel=3 note=66 velocity=0 time=0
Time=58440 Track=4 note_off channel=3 note=70 velocity=0 time=0
Time=58440 Track=5 note_off channel=4 note=51 velocity=0 time=120
Time=58440 Track=5 note_off channel=4 note=54 velocity=0 time=0
Time=58440 Track=5 note_off channel=4 note=58 velocity=0 time=0
Time=58440 Track=7 note_off channel=6 note=70 velocity=0 time=120
Time=58560 Track=2 note_on channel=1 note=27 velocity=100 time=120
Time=58560 Track=3 note_on channel=2 note=89 velocity=46 time=181
Time=58560 Track=7 note_on channel=6 note=77 velocity=127 time=120
Time=58560 Track=10 note_on channel=9 note=36 velocity=127 time=180
Time=58560 Track=10 note_on channel=9 note=41 velocity=127 time=0
Time=58560 Track=10 note_on channel=9 note=42 velocity=100 time=0
Time=58620 Track=10 note_off channel=9 note=36 velocity=0 time=60
Time=58620 Track=10 note_off channel=9 note=41 velocity=0 time=0
Time=58620 Track=10 note_off channel=9 note=42 velocity=0 time=0
Time=58679 Track=3 note_off channel=2 note=89 velocity=0 time=119
Time=58687 Track=7 note_off channel=6 note=77 velocity=0 time=127
Time=58800 Track=2 note_off channel=1 note=27 velocity=64 time=240
Time=58800 Track=3 note_on channel=2 note=87 velocity=51 time=121
Time=58800 Track=4 note_on channel=3 note=63 velocity=100 time=360
Time=58800 Track=4 note_on channel=3 note=66 velocity=100 time=0
Time=58800 Track=4 note_on channel=3 note=70 velocity=100 time=0
Time=58800 Track=5 note_on channel=4 note=51 velocity=100 time=360
Time=58800 Track=5 note_on channel=4 note=54 velocity=100 time=0
Time=58800 Track=5 note_on channel=4 note=58 velocity=100 time=0
Time=58800 Track=7 note_on channel=6 note=75 velocity=127 time=113
Time=58800 Track=10 note_on channel=9 note=40 velocity=60 time=180
Time=58859 Track=3 note_off channel=2 note=87 velocity=0 time=59
Time=58860 Track=10 note_off channel=9 note=40 velocity=0 time=60
Time=58920 Track=2 note_on channel=1 note=27 velocity=100 time=120
Time=58920 Track=3 note_on channel=2 note=89 velocity=48 time=61
Time=58920 Track=4 note_off channel=3 note=63 velocity=0 time=120
Time=58920 Track=4 note_off channel=3 note=66 velocity=0 time=0
Time=58920 Track=4 note_off channel=3 note=70 velocity=0 time=0
Time=58920 Track=5 note_off channel=4 note=51 velocity=0 time=120
Time=58920 Track=5 note_off channel=4 note=54 velocity=0 time=0
Time=58920 Track=5 note_off channel=4 note=58 velocity=0 time=0
Time=58920 Track=7 note_off channel=6 note=75 velocity=0 time=120
Time=58920 Track=10 note_on channel=9 note=40 velocity=120 time=60
Time=58920 Track=10 note_on channel=9 note=42 velocity=100 time=0
Time=58980 Track=10 note_off channel=9 note=40 velocity=0 time=60
Time=58980 Track=10 note_off channel=9 note=42 velocity=0 time=0
Time=59039 Track=3 note_off channel=2 note=89 velocity=0 time=119
Time=59040 Track=2 note_off channel=1 note=27 velocity=64 time=120
Time=59040 Track=2 note_on channel=1 note=37 velocity=100 time=0
Time=59040 Track=3 note_on channel=2 note=87 velocity=59 time=1
Time=59040 Track=4 note_on channel=3 note=63 velocity=100 time=120
Time=59040 Track=4 note_on channel=3 note=66 velocity=100 time=0
Time=59040 Track=4 note_on channel=3 note=70 velocity=100 time=0
Time=59040 Track=10 note_on channel=9 note=36 velocity=127 time=60
Time=59040 Track=10 note_on channel=9 note=42 velocity=100 time=0
Time=59100 Track=10 note_off channel=9 note=36 velocity=0 time=60
Time=59100 Track=10 note_off channel=9 note=42 velocity=0 time=0
Time=59130 Track=3 note_off channel=2 note=87 velocity=0 time=90
Time=59160 Track=2 note_off channel=1 note=37 velocity=64 time=120
Time=59160 Track=3 note_on channel=2 note=85 velocity=36 time=30
Time=59160 Track=4 note_off channel=3 note=63 velocity=0 time=120
Time=59160 Track=4 note_off channel=3 note=66 velocity=0 time=0
Time=59160 Track=4 note_off channel=3 note=70 velocity=0 time=0
Time=59197 Track=3 note_off channel=2 note=85 velocity=0 time=37
Time=59280 Track=2 note_on channel=1 note=37 velocity=100 time=120
Time=59280 Track=3 note_on channel=2 note=85 velocity=55 time=83
Time=59280 Track=4 note_on channel=3 note=63 velocity=100 time=120
Time=59280 Track=4 note_on channel=3 note=66 velocity=100 time=0
Time=59280 Track=4 note_on channel=3 note=70 velocity=100 time=0
Time=59280 Track=5 note_on channel=4 note=51 velocity=100 time=360
Time=59280 Track=5 note_on channel=4 note=54 velocity=100 time=0
Time=59280 Track=5 note_on channel=4 note=58 velocity=100 time=0
Time=59280 Track=10 note_on channel=9 note=40 velocity=120 time=180
Time=59280 Track=10 note_on channel=9 note=42 velocity=100 time=0
Time=59340 Track=10 note_off channel=9 note=40 velocity=0 time=16
Time=59340 Track=10 note_off channel=9 note=42 velocity=0 time=0
Time=59345 Track=3 note_off channel=2 note=85 velocity=0 time=65
Time=59400 Track=2 note_off channel=1 note=37 velocity=64 time=120
Time=59400 Track=4 note_off channel=3 note=63 velocity=0 time=120
Time=59400 Track=4 note_off channel=3 note=66 velocity=0 time=0
Time=59400 Track=4 note_off channel=3 note=70 velocity=0 time=0
Time=59400 Track=5 note_off channel=4 note=51 velocity=0 time=120
Time=59400 Track=5 note_off channel=4 note=54 velocity=0 time=0
Time=59400 Track=5 note_off channel=4 note=58 velocity=0 time=0
Time=59520 Track=2 note_on channel=1 note=34 velocity=100 time=120
Time=59520 Track=3 note_on channel=2 note=85 velocity=55 time=175
Time=59520 Track=10 note_on channel=9 note=36 velocity=127 time=180
Time=59520 Track=10 note_on channel=9 note=41 velocity=127 time=0
Time=59520 Track=10 note_on channel=9 note=42 velocity=100 time=0
Time=59580 Track=10 note_off channel=9 note=36 velocity=0 time=60
Time=59580 Track=10 note_off channel=9 note=41 velocity=0 time=0
Time=59580 Track=10 note_off channel=9 note=42 velocity=0 time=0
Time=59760 Track=2 note_off channel=1 note=34 velocity=64 time=240
Time=59760 Track=4 note_on channel=3 note=70 velocity=100 time=360
Time=59760 Track=4 note_on channel=3 note=73 velocity=100 time=0
Time=59760 Track=4 note_on channel=3 note=77 velocity=100 time=0
Time=59760 Track=5 note_on channel=4 note=58 velocity=100 time=360
Time=59760 Track=5 note_on channel=4 note=61 velocity=100 time=0
Time=59760 Track=5 note_on channel=4 note=65 velocity=100 time=0
Time=59760 Track=10 note_on channel=9 note=40 velocity=60 time=144
Time=59820 Track=10 note_off channel=9 note=40 velocity=0 time=60
Time=59880 Track=2 note_on channel=1 note=37 velocity=100 time=120
Time=59880 Track=4 note_off channel=3 note=70 velocity=0 time=120
Time=59880 Track=4 note_off channel=3 note=73 velocity=0 time=0
Time=59880 Track=4 note_off channel=3 note=77 velocity=0 time=0
Time=59880 Track=5 note_off channel=4 note=58 velocity=0 time=120
Time=59880 Track=5 note_off channel=4 note=61 velocity=0 time=0
Time=59880 Track=5 note_off channel=4 note=65 velocity=0 time=0
Time=59880 Track=10 note_on channel=9 note=40 velocity=120 time=60
Time=59880 Track=10 note_on channel=9 note=42 velocity=100 time=0
Time=59911 Track=3 note_off channel=2 note=85 velocity=0 time=391
Time=59940 Track=10 note_off channel=9 note=40 velocity=0 time=60
Time=59940 Track=10 note_off channel=9 note=42 velocity=0 time=0
Time=60000 Track=2 note_off channel=1 note=37 velocity=64 time=120
Time=60000 Track=2 note_on channel=1 note=41 velocity=100 time=0
Time=60000 Track=4 note_on channel=3 note=70 velocity=100 time=120
Time=60000 Track=4 note_on channel=3 note=73 velocity=100 time=0
Time=60000 Track=4 note_on channel=3 note=77 velocity=100 time=0
Time=60000 Track=10 note_on channel=9 note=36 velocity=127 time=60
Time=60000 Track=10 note_on channel=9 note=42 velocity=100 time=0
Time=60060 Track=10 note_off channel=9 note=36 velocity=0 time=60
Time=60060 Track=10 note_off channel=9 note=42 velocity=0 time=0
Time=60120 Track=2 note_off channel=1 note=41 velocity=64 time=120
Time=60120 Track=3 note_on channel=2 note=85 velocity=42 time=209
Time=60120 Track=4 note_off channel=3 note=70 velocity=0 time=120
Time=60120 Track=4 note_off channel=3 note=73 velocity=0 time=0
Time=60120 Track=4 note_off channel=3 note=77 velocity=0 time=0
Time=60178 Track=3 note_off channel=2 note=85 velocity=0 time=58
Time=60240 Track=2 note_on channel=1 note=41 velocity=100 time=120
Time=60240 Track=3 note_on channel=2 note=85 velocity=42 time=62
Time=60240 Track=4 note_on channel=3 note=70 velocity=100 time=120
Time=60240 Track=4 note_on channel=3 note=73 velocity=100 time=0
Time=60240 Track=4 note_on channel=3 note=77 velocity=100 time=0
Time=60240 Track=5 note_on channel=4 note=58 velocity=100 time=360
Time=60240 Track=5 note_on channel=4 note=61 velocity=100 time=0
Time=60240 Track=5 note_on channel=4 note=65 velocity=100 time=0
Time=60240 Track=10 note_on channel=9 note=40 velocity=120 time=180
Time=60240 Track=10 note_on channel=9 note=42 velocity=100 time=0
Time=60300 Track=10 note_off channel=9 note=40 velocity=0 time=60
Time=60300 Track=10 note_off channel=9 note=42 velocity=0 time=0
Time=60344 Track=3 note_off channel=2 note=85 velocity=0 time=104
Time=60360 Track=2 note_off channel=1 note=41 velocity=64 time=120
Time=60360 Track=4 note_off channel=3 note=70 velocity=0 time=120
Time=60360 Track=4 note_off channel=3 note=73 velocity=0 time=0
Time=60360 Track=4 note_off channel=3 note=77 velocity=0 time=0
Time=60360 Track=5 note_off channel=4 note=58 velocity=0 time=120
Time=60360 Track=5 note_off channel=4 note=61 velocity=0 time=0
Time=60360 Track=5 note_off channel=4 note=65 velocity=0 time=0
Time=60480 Track=2 note_on channel=1 note=32 velocity=100 time=120
Time=60480 Track=3 note_on channel=2 note=87 velocity=39 time=136
Time=60480 Track=10 note_on channel=9 note=36 velocity=127 time=180
Time=60480 Track=10 note_on channel=9 note=41 velocity=127 time=0
Time=60480 Track=10 note_on channel=9 note=42 velocity=100 time=0
Time=60537 Track=10 note_off channel=9 note=42 velocity=0 time=57
Time=60540 Track=10 note_off channel=9 note=36 velocity=0 time=3
Time=60540 Track=10 note_off channel=9 note=41 velocity=0 time=0
Time=60720 Track=2 note_off channel=1 note=32 velocity=64 time=240
Time=60720 Track=3 note_on channel=2 note=84 velocity=58 time=240
Time=60720 Track=4 note_on channel=3 note=68 velocity=100 time=360
Time=60720 Track=4 note_on channel=3 note=72 velocity=100 time=0
Time=60720 Track=4 note_on channel=3 note=75 velocity=100 time=0
Time=60720 Track=5 note_on channel=4 note=56 velocity=100 time=360
Time=60720 Track=5 note_on channel=4 note=60 velocity=100 time=0
Time=60720 Track=5 note_on channel=4 note=63 velocity=100 time=0
Time=60720 Track=10 note_on channel=9 note=40 velocity=60 time=180
Time=60725 Track=3 note_off channel=2 note=87 velocity=0 time=5
Time=60778 Track=3 note_off channel=2 note=84 velocity=0 time=53
Time=60779 Track=10 note_off channel=9 note=40 velocity=0 time=59
Time=60840 Track=2 note_on channel=1 note=36 velocity=100 time=120
Time=60840 Track=3 note_on channel=2 note=84 velocity=45 time=62
Time=60840 Track=4 note_off channel=3 note=68 velocity=0 time=120
Time=60840 Track=4 note_off channel=3 note=72 velocity=0 time=0
Time=60840 Track=4 note_off channel=3 note=75 velocity=0 time=0
Time=60840 Track=5 note_off channel=4 note=56 velocity=0 time=120
Time=60840 Track=5 note_off channel=4 note=60 velocity=0 time=0
Time=60840 Track=5 note_off channel=4 note=63 velocity=0 time=0
Time=60840 Track=10 note_on channel=9 note=40 velocity=120 time=61
Time=60840 Track=10 note_on channel=9 note=42 velocity=100 time=0
Time=60900 Track=10 note_off channel=9 note=40 velocity=0 time=60
Time=60900 Track=10 note_off channel=9 note=42 velocity=0 time=0
Time=60930 Track=3 note_off channel=2 note=84 velocity=0 time=90
Time=60960 Track=2 note_off channel=1 note=36 velocity=64 time=120
Time=60960 Track=2 note_on channel=1 note=39 velocity=100 time=0
Time=60960 Track=3 note_on channel=2 note=84 velocity=49 time=30
Time=60960 Track=4 note_on channel=3 note=68 velocity=100 time=120
Time=60960 Track=4 note_on channel=3 note=72 velocity=100 time=0
Time=60960 Track=4 note_on channel=3 note=75 velocity=100 time=0
Time=60960 Track=10 note_on channel=9 note=36 velocity=127 time=60
Time=60960 Track=10 note_on channel=9 note=42 velocity=100 time=0
Time=61020 Track=10 note_off channel=9 note=36 velocity=0 time=60
Time=61021 Track=10 note_off channel=9 note=42 velocity=0 time=1
Time=61050 Track=3 note_off channel=2 note=84 velocity=0 time=90
Time=61050 Track=3 note_on channel=2 note=85 velocity=36 time=0
Time=61080 Track=2 note_off channel=1 note=39 velocity=64 time=120
Time=61080 Track=4 note_off channel=3 note=68 velocity=0 time=120
Time=61080 Track=4 note_off channel=3 note=72 velocity=0 time=0
Time=61080 Track=4 note_off channel=3 note=75 velocity=0 time=0
Time=61170 Track=3 note_off channel=2 note=85 velocity=0 time=120
Time=61200 Track=2 note_on channel=1 note=39 velocity=100 time=120
Time=61200 Track=3 note_on channel=2 note=84 velocity=66 time=30
Time=61200 Track=4 note_on channel=3 note=68 velocity=100 time=120
Time=61200 Track=4 note_on channel=3 note=72 velocity=100 time=0
Time=61200 Track=4 note_on channel=3 note=75 velocity=100 time=0
Time=61200 Track=5 note_on channel=4 note=56 velocity=100 time=360
Time=61200 Track=5 note_on channel=4 note=60 velocity=100 time=0
Time=61200 Track=5 note_on channel=4 note=63 velocity=100 time=0
Time=61200 Track=10 note_on channel=9 note=40 velocity=120 time=179
Time=61200 Track=10 note_on channel=9 note=42 velocity=100 time=0
Time=61260 Track=10 note_off channel=9 note=40 velocity=0 time=60
Time=61260 Track=10 note_off channel=9 note=42 velocity=0 time=0
Time=61320 Track=2 note_off channel=1 note=39 velocity=64 time=120
Time=61320 Track=3 note_off channel=2 note=84 velocity=0 time=120
Time=61320 Track=4 note_off channel=3 note=68 velocity=0 time=120
Time=61320 Track=4 note_off channel=3 note=72 velocity=0 time=0
Time=61320 Track=4 note_off channel=3 note=75 velocity=0 time=0
Time=61320 Track=5 note_off channel=4 note=56 velocity=0 time=120
Time=61320 Track=5 note_off channel=4 note=60 velocity=0 time=0
Time=61320 Track=5 note_off channel=4 note=63 velocity=0 time=0
Time=61440 Track=2 note_on channel=1 note=27 velocity=100 time=120
Time=61440 Track=3 note_on channel=2 note=85 velocity=66 time=120
Time=61440 Track=10 note_on channel=9 note=36 velocity=127 time=180
Time=61440 Track=10 note_on channel=9 note=41 velocity=127 time=0
Time=61440 Track=10 note_on channel=9 note=42 velocity=100 time=0
Time=61500 Track=10 note_off channel=9 note=36 velocity=0 time=60
Time=61500 Track=10 note_off channel=9 note=41 velocity=0 time=0
Time=61500 Track=10 note_off channel=9 note=42 velocity=0 time=0
Time=61650 Track=3 note_off channel=2 note=85 velocity=0 time=210
Time=61680 Track=2 note_off channel=1 note=27 velocity=64 time=240
Time=61680 Track=3 note_on channel=2 note=82 velocity=33 time=30
Time=61680 Track=4 note_on channel=3 note=63 velocity=100 time=360
Time=61680 Track=4 note_on channel=3 note=66 velocity=100 time=0
Time=61680 Track=4 note_on channel=3 note=70 velocity=100 time=0
Time=61680 Track=5 note_on channel=4 note=51 velocity=100 time=360
Time=61680 Track=5 note_on channel=4 note=54 velocity=100 time=0
Time=61680 Track=5 note_on channel=4 note=58 velocity=100 time=0
Time=61680 Track=7 note_on channel=6 note=70 velocity=102 time=2760
Time=61680 Track=10 note_on channel=9 note=40 velocity=60 time=180
Time=61740 Track=10 note_off channel=9 note=40 velocity=0 time=60
Time=61770 Track=3 note_off channel=2 note=82 velocity=0 time=90
Time=61800 Track=2 note_on channel=1 note=30 velocity=100 time=120
Time=61800 Track=4 note_off channel=3 note=63 velocity=0 time=120
Time=61800 Track=4 note_off channel=3 note=66 velocity=0 time=0
Time=61800 Track=4 note_off channel=3 note=70 velocity=0 time=0
Time=61800 Track=5 note_off channel=4 note=51 velocity=0 time=120
Time=61800 Track=5 note_off channel=4 note=54 velocity=0 time=0
Time=61800 Track=5 note_off channel=4 note=58 velocity=0 time=0
Time=61800 Track=7 note_off channel=6 note=70 velocity=0 time=120
Time=61800 Track=10 note_on channel=9 note=40 velocity=120 time=60
Time=61800 Track=10 note_on channel=9 note=42 velocity=100 time=0
Time=61860 Track=10 note_off channel=9 note=40 velocity=0 time=60
Time=61860 Track=10 note_off channel=9 note=42 velocity=0 time=0
Time=61920 Track=2 note_off channel=1 note=30 velocity=64 time=120
Time=61920 Track=2 note_on channel=1 note=34 velocity=100 time=0
Time=61920 Track=4 note_on channel=3 note=63 velocity=100 time=120
Time=61920 Track=4 note_on channel=3 note=66 velocity=100 time=0
Time=61920 Track=4 note_on channel=3 note=70 velocity=100 time=0
Time=61920 Track=10 note_on channel=9 note=36 velocity=127 time=60
Time=61920 Track=10 note_on channel=9 note=42 velocity=100 time=0
Time=61980 Track=10 note_off channel=9 note=36 velocity=0 time=60
Time=61980 Track=10 note_off channel=9 note=42 velocity=0 time=0
Time=62040 Track=2 note_off channel=1 note=34 velocity=64 time=120
Time=62040 Track=4 note_off channel=3 note=63 velocity=0 time=120
Time=62040 Track=4 note_off channel=3 note=66 velocity=0 time=0
Time=62040 Track=4 note_off channel=3 note=70 velocity=0 time=0
Time=62160 Track=2 note_on channel=1 note=34 velocity=100 time=120
Time=62160 Track=4 note_on channel=3 note=63 velocity=100 time=120
Time=62160 Track=4 note_on channel=3 note=66 velocity=100 time=0
Time=62160 Track=4 note_on channel=3 note=70 velocity=100 time=0
Time=62160 Track=5 note_on channel=4 note=51 velocity=100 time=360
Time=62160 Track=5 note_on channel=4 note=54 velocity=100 time=0
Time=62160 Track=5 note_on channel=4 note=58 velocity=100 time=0
Time=62160 Track=7 note_on channel=6 note=70 velocity=127 time=360
Time=62160 Track=10 note_on channel=9 note=40 velocity=120 time=180
Time=62160 Track=10 note_on channel=9 note=42 velocity=100 time=0
Time=62220 Track=10 note_off channel=9 note=40 velocity=0 time=60
Time=62220 Track=10 note_off channel=9 note=42 velocity=0 time=0
Time=62280 Track=2 note_off channel=1 note=34 velocity=64 time=120
Time=62280 Track=4 note_off channel=3 note=63 velocity=0 time=120
Time=62280 Track=4 note_off channel=3 note=66 velocity=0 time=0
Time=62280 Track=4 note_off channel=3 note=70 velocity=0 time=0
Time=62280 Track=5 note_off channel=4 note=51 velocity=0 time=120
Time=62280 Track=5 note_off channel=4 note=54 velocity=0 time=0
Time=62280 Track=5 note_off channel=4 note=58 velocity=0 time=0
Time=62280 Track=7 note_off channel=6 note=70 velocity=0 time=120
Time=62400 Track=2 note_on channel=1 note=27 velocity=100 time=120
Time=62400 Track=7 note_on channel=6 note=77 velocity=127 time=120
Time=62400 Track=10 note_on channel=9 note=36 velocity=127 time=180
Time=62400 Track=10 note_on channel=9 note=41 velocity=127 time=0
Time=62400 Track=10 note_on channel=9 note=42 velocity=100 time=0
Time=62460 Track=10 note_off channel=9 note=36 velocity=0 time=60
Time=62460 Track=10 note_off channel=9 note=41 velocity=0 time=0
Time=62460 Track=10 note_off channel=9 note=42 velocity=0 time=0
Time=62527 Track=7 note_off channel=6 note=77 velocity=0 time=127
Time=62640 Track=2 note_off channel=1 note=27 velocity=64 time=240
Time=62640 Track=7 note_on channel=6 note=75 velocity=127 time=113
Time=62760 Track=2 note_on channel=1 note=27 velocity=100 time=120
Time=62760 Track=7 note_off channel=6 note=75 velocity=0 time=120
Time=62760 Track=10 note_on channel=9 note=41 velocity=120 time=300
Time=62760 Track=10 note_on channel=9 note=42 velocity=100 time=0
Time=62820 Track=10 note_off channel=9 note=41 velocity=0 time=60
Time=62820 Track=10 note_off channel=9 note=42 velocity=0 time=0
Time=62880 Track=2 note_off channel=1 note=27 velocity=64 time=120
Time=62880 Track=2 note_on channel=1 note=37 velocity=100 time=0
Time=62880 Track=10 note_on channel=9 note=36 velocity=127 time=60
Time=62880 Track=10 note_on channel=9 note=41 velocity=127 time=0
Time=62880 Track=10 note_on channel=9 note=42 velocity=100 time=0
Time=62940 Track=10 note_off channel=9 note=36 velocity=0 time=60
Time=62940 Track=10 note_off channel=9 note=41 velocity=0 time=0
Time=62940 Track=10 note_off channel=9 note=42 velocity=0 time=0
Time=63000 Track=2 note_off channel=1 note=37 velocity=64 time=120
Time=63120 Track=2 note_on channel=1 note=37 velocity=100 time=120
Time=63120 Track=10 note_on channel=9 note=41 velocity=120 time=180
Time=63120 Track=10 note_on channel=9 note=42 velocity=100 time=0
Time=63180 Track=10 note_off channel=9 note=41 velocity=0 time=60
Time=63180 Track=10 note_off channel=9 note=42 velocity=0 time=0
Time=63240 Track=2 note_off channel=1 note=37 velocity=64 time=120
Time=63360 Track=2 note_on channel=1 note=34 velocity=100 time=120
Time=63360 Track=6 note_on channel=5 note=70 velocity=76 time=29760
Time=63360 Track=10 note_on channel=9 note=36 velocity=127 time=180
Time=63360 Track=10 note_on channel=9 note=41 velocity=127 time=0
Time=63360 Track=10 note_on channel=9 note=42 velocity=100 time=0
Time=63420 Track=10 note_off channel=9 note=42 velocity=0 time=60
Time=63421 Track=10 note_off channel=9 note=36 velocity=0 time=1
Time=63421 Track=10 note_off channel=9 note=41 velocity=0 time=0
Time=63600 Track=2 note_off channel=1 note=34 velocity=64 time=240
Time=63600 Track=4 note_on channel=3 note=70 velocity=100 time=1320
Time=63600 Track=4 note_on channel=3 note=73 velocity=100 time=0
Time=63600 Track=4 note_on channel=3 note=77 velocity=100 time=0
Time=63600 Track=5 note_on channel=4 note=58 velocity=100 time=1320
Time=63600 Track=5 note_on channel=4 note=61 velocity=100 time=0
Time=63600 Track=5 note_on channel=4 note=65 velocity=100 time=0
Time=63601 Track=10 note_on channel=9 note=40 velocity=60 time=180
Time=63661 Track=10 note_off channel=9 note=40 velocity=0 time=60
Time=63720 Track=2 note_on channel=1 note=37 velocity=100 time=120
Time=63720 Track=4 note_off channel=3 note=70 velocity=0 time=120
Time=63720 Track=4 note_off channel=3 note=73 velocity=0 time=0
Time=63720 Track=4 note_off channel=3 note=77 velocity=0 time=0
Time=63720 Track=5 note_off channel=4 note=58 velocity=0 time=120
Time=63720 Track=5 note_off channel=4 note=61 velocity=0 time=0
Time=63720 Track=5 note_off channel=4 note=65 velocity=0 time=0
Time=63720 Track=10 note_on channel=9 note=40 velocity=120 time=59
Time=63720 Track=10 note_on channel=9 note=42 velocity=100 time=0
Time=63780 Track=10 note_off channel=9 note=40 velocity=0 time=60
Time=63780 Track=10 note_off channel=9 note=42 velocity=0 time=0
Time=63840 Track=2 note_off channel=1 note=37 velocity=64 time=120
Time=63840 Track=2 note_on channel=1 note=41 velocity=100 time=0
Time=63840 Track=4 note_on channel=3 note=70 velocity=100 time=120
Time=63840 Track=4 note_on channel=3 note=73 velocity=100 time=0
Time=63840 Track=4 note_on channel=3 note=77 velocity=100 time=0
Time=63840 Track=10 note_on channel=9 note=36 velocity=127 time=60
Time=63840 Track=10 note_on channel=9 note=42 velocity=100 time=0
Time=63900 Track=10 note_off channel=9 note=36 velocity=0 time=60
Time=63902 Track=10 note_off channel=9 note=42 velocity=0 time=2
Time=63960 Track=2 note_off channel=1 note=41 velocity=64 time=120
Time=63960 Track=4 note_off channel=3 note=70 velocity=0 time=120
Time=63960 Track=4 note_off channel=3 note=73 velocity=0 time=0
Time=63960 Track=4 note_off channel=3 note=77 velocity=0 time=0
Time=64080 Track=2 note_on channel=1 note=41 velocity=100 time=120
Time=64080 Track=4 note_on channel=3 note=70 velocity=100 time=120
Time=64080 Track=4 note_on channel=3 note=73 velocity=100 time=0
Time=64080 Track=4 note_on channel=3 note=77 velocity=100 time=0
Time=64080 Track=5 note_on channel=4 note=58 velocity=100 time=360
Time=64080 Track=5 note_on channel=4 note=61 velocity=100 time=0
Time=64080 Track=5 note_on channel=4 note=65 velocity=100 time=0
Time=64080 Track=10 note_on channel=9 note=40 velocity=120 time=178
Time=64080 Track=10 note_on channel=9 note=42 velocity=100 time=0
Time=64140 Track=10 note_off channel=9 note=40 velocity=0 time=60
Time=64140 Track=10 note_off channel=9 note=42 velocity=0 time=0
Time=64200 Track=2 note_off channel=1 note=41 velocity=64 time=120
Time=64200 Track=4 note_off channel=3 note=70 velocity=0 time=120
Time=64200 Track=4 note_off channel=3 note=73 velocity=0 time=0
Time=64200 Track=4 note_off channel=3 note=77 velocity=0 time=0
Time=64200 Track=5 note_off channel=4 note=58 velocity=0 time=120
Time=64200 Track=5 note_off channel=4 note=61 velocity=0 time=0
Time=64200 Track=5 note_off channel=4 note=65 velocity=0 time=0
Time=64320 Track=2 note_on channel=1 note=32 velocity=100 time=120
Time=64320 Track=6 note_off channel=5 note=70 velocity=0 time=960
Time=64320 Track=10 note_on channel=9 note=36 velocity=127 time=180
Time=64320 Track=10 note_on channel=9 note=41 velocity=127 time=0
Time=64320 Track=10 note_on channel=9 note=42 velocity=100 time=0
Time=64380 Track=10 note_off channel=9 note=36 velocity=0 time=60
Time=64380 Track=10 note_off channel=9 note=41 velocity=0 time=0
Time=64380 Track=10 note_off channel=9 note=42 velocity=0 time=0
Time=64560 Track=2 note_off channel=1 note=32 velocity=64 time=240
Time=64560 Track=4 note_on channel=3 note=68 velocity=100 time=360
Time=64560 Track=4 note_on channel=3 note=72 velocity=100 time=0
Time=64560 Track=4 note_on channel=3 note=75 velocity=100 time=0
Time=64560 Track=5 note_on channel=4 note=56 velocity=100 time=360
Time=64560 Track=5 note_on channel=4 note=60 velocity=100 time=0
Time=64560 Track=5 note_on channel=4 note=63 velocity=100 time=0
Time=64560 Track=10 note_on channel=9 note=40 velocity=60 time=180
Time=64620 Track=10 note_off channel=9 note=40 velocity=0 time=60
Time=64680 Track=2 note_on channel=1 note=36 velocity=100 time=120
Time=64680 Track=4 note_off channel=3 note=68 velocity=0 time=120
Time=64680 Track=4 note_off channel=3 note=72 velocity=0 time=0
Time=64680 Track=4 note_off channel=3 note=75 velocity=0 time=0
Time=64680 Track=5 note_off channel=4 note=56 velocity=0 time=120
Time=64680 Track=5 note_off channel=4 note=60 velocity=0 time=0
Time=64680 Track=5 note_off channel=4 note=63 velocity=0 time=0
Time=64680 Track=10 note_on channel=9 note=40 velocity=120 time=60
Time=64680 Track=10 note_on channel=9 note=42 velocity=100 time=0
Time=64740 Track=10 note_off channel=9 note=40 velocity=0 time=60
Time=64740 Track=10 note_off channel=9 note=42 velocity=0 time=0
Time=64800 Track=2 note_off channel=1 note=36 velocity=64 time=120
Time=64800 Track=2 note_on channel=1 note=39 velocity=100 time=0
Time=64800 Track=4 note_on channel=3 note=68 velocity=100 time=120
Time=64800 Track=4 note_on channel=3 note=72 velocity=100 time=0
Time=64800 Track=4 note_on channel=3 note=75 velocity=100 time=0
Time=64800 Track=10 note_on channel=9 note=36 velocity=127 time=60
Time=64800 Track=10 note_on channel=9 note=42 velocity=100 time=0
Time=64860 Track=10 note_off channel=9 note=36 velocity=0 time=60
Time=64860 Track=10 note_off channel=9 note=42 velocity=0 time=0
Time=64920 Track=2 note_off channel=1 note=39 velocity=64 time=120
Time=64920 Track=4 note_off channel=3 note=68 velocity=0 time=120
Time=64920 Track=4 note_off channel=3 note=72 velocity=0 time=0
Time=64920 Track=4 note_off channel=3 note=75 velocity=0 time=0
Time=65040 Track=2 note_on channel=1 note=39 velocity=100 time=120
Time=65040 Track=4 note_on channel=3 note=68 velocity=100 time=120
Time=65040 Track=4 note_on channel=3 note=72 velocity=100 time=0
Time=65040 Track=4 note_on channel=3 note=75 velocity=100 time=0
Time=65040 Track=5 note_on channel=4 note=56 velocity=100 time=360
Time=65040 Track=5 note_on channel=4 note=60 velocity=100 time=0
Time=65040 Track=5 note_on channel=4 note=63 velocity=100 time=0
Time=65040 Track=7 note_on channel=6 note=80 velocity=127 time=2280
Time=65040 Track=10 note_on channel=9 note=40 velocity=120 time=180
Time=65040 Track=10 note_on channel=9 note=42 velocity=100 time=0
Time=65092 Track=7 note_off channel=6 note=80 velocity=0 time=52
Time=65100 Track=10 note_off channel=9 note=40 velocity=0 time=60
Time=65100 Track=10 note_off channel=9 note=42 velocity=0 time=0
Time=65160 Track=2 note_off channel=1 note=39 velocity=64 time=120
Time=65160 Track=4 note_off channel=3 note=68 velocity=0 time=120
Time=65160 Track=4 note_off channel=3 note=72 velocity=0 time=0
Time=65160 Track=4 note_off channel=3 note=75 velocity=0 time=0
Time=65160 Track=5 note_off channel=4 note=56 velocity=0 time=120
Time=65160 Track=5 note_off channel=4 note=60 velocity=0 time=0
Time=65160 Track=5 note_off channel=4 note=63 velocity=0 time=0
Time=65280 Track=2 note_on channel=1 note=27 velocity=100 time=120
Time=65280 Track=7 note_on channel=6 note=82 velocity=127 time=188
Time=65280 Track=10 note_on channel=9 note=36 velocity=127 time=180
Time=65280 Track=10 note_on channel=9 note=41 velocity=127 time=0
Time=65280 Track=10 note_on channel=9 note=42 velocity=100 time=0
Time=65331 Track=7 note_off channel=6 note=82 velocity=0 time=51
Time=65340 Track=10 note_off channel=9 note=36 velocity=0 time=60
Time=65340 Track=10 note_off channel=9 note=41 velocity=0 time=0
Time=65340 Track=10 note_off channel=9 note=42 velocity=0 time=0
Time=65520 Track=2 note_off channel=1 note=27 velocity=64 time=240
Time=65520 Track=4 note_on channel=3 note=63 velocity=100 time=360
Time=65520 Track=4 note_on channel=3 note=66 velocity=100 time=0
Time=65520 Track=4 note_on channel=3 note=70 velocity=100 time=0
Time=65520 Track=5 note_on channel=4 note=51 velocity=100 time=360
Time=65520 Track=5 note_on channel=4 note=54 velocity=100 time=0
Time=65520 Track=5 note_on channel=4 note=58 velocity=100 time=0
Time=65520 Track=7 note_on channel=6 note=78 velocity=127 time=189
Time=65520 Track=10 note_on channel=9 note=40 velocity=60 time=180
Time=65573 Track=7 note_off channel=6 note=78 velocity=0 time=53
Time=65580 Track=10 note_off channel=9 note=40 velocity=0 time=60
Time=65640 Track=2 note_on channel=1 note=27 velocity=100 time=120
Time=65640 Track=4 note_off channel=3 note=63 velocity=0 time=120
Time=65640 Track=4 note_off channel=3 note=66 velocity=0 time=0
Time=65640 Track=4 note_off channel=3 note=70 velocity=0 time=0
Time=65640 Track=5 note_off channel=4 note=51 velocity=0 time=120
Time=65640 Track=5 note_off channel=4 note=54 velocity=0 time=0
Time=65640 Track=5 note_off channel=4 note=58 velocity=0 time=0
Time=65640 Track=10 note_on channel=9 note=40 velocity=120 time=60
Time=65640 Track=10 note_on channel=9 note=42 velocity=100 time=0
Time=65699 Track=10 note_off channel=9 note=40 velocity=0 time=59
Time=65700 Track=10 note_off channel=9 note=42 velocity=0 time=1
Time=65760 Track=2 note_off channel=1 note=27 velocity=64 time=120
Time=65760 Track=2 note_on channel=1 note=34 velocity=100 time=0
Time=65760 Track=4 note_on channel=3 note=63 velocity=100 time=120
Time=65760 Track=4 note_on channel=3 note=66 velocity=100 time=0
Time=65760 Track=4 note_on channel=3 note=70 velocity=100 time=0
Time=65760 Track=10 note_on channel=9 note=36 velocity=127 time=60
Time=65760 Track=10 note_on channel=9 note=42 velocity=100 time=0
Time=65820 Track=10 note_off channel=9 note=36 velocity=0 time=60
Time=65820 Track=10 note_off channel=9 note=42 velocity=0 time=0
Time=65880 Track=2 note_off channel=1 note=34 velocity=64 time=120
Time=65880 Track=4 note_off channel=3 note=63 velocity=0 time=120
Time=65880 Track=4 note_off channel=3 note=66 velocity=0 time=0
Time=65880 Track=4 note_off channel=3 note=70 velocity=0 time=0
Time=66000 Track=2 note_on channel=1 note=34 velocity=100 time=120
Time=66000 Track=4 note_on channel=3 note=63 velocity=100 time=120
Time=66000 Track=4 note_on channel=3 note=66 velocity=100 time=0
Time=66000 Track=4 note_on channel=3 note=70 velocity=100 time=0
Time=66000 Track=5 note_on channel=4 note=51 velocity=100 time=360
Time=66000 Track=5 note_on channel=4 note=54 velocity=100 time=0
Time=66000 Track=5 note_on channel=4 note=58 velocity=100 time=0
Time=66000 Track=10 note_on channel=9 note=40 velocity=120 time=180
Time=66000 Track=10 note_on channel=9 note=42 velocity=100 time=0
Time=66059 Track=10 note_off channel=9 note=40 velocity=0 time=59
Time=66060 Track=10 note_off channel=9 note=42 velocity=0 time=1
Time=66120 Track=2 note_off channel=1 note=34 velocity=64 time=120
Time=66120 Track=4 note_off channel=3 note=63 velocity=0 time=120
Time=66120 Track=4 note_off channel=3 note=66 velocity=0 time=0
Time=66120 Track=4 note_off channel=3 note=70 velocity=0 time=0
Time=66120 Track=5 note_off channel=4 note=51 velocity=0 time=120
Time=66120 Track=5 note_off channel=4 note=54 velocity=0 time=0
Time=66120 Track=5 note_off channel=4 note=58 velocity=0 time=0
Time=66240 Track=2 note_on channel=1 note=27 velocity=100 time=120
Time=66240 Track=10 note_on channel=9 note=36 velocity=127 time=180
Time=66240 Track=10 note_on channel=9 note=41 velocity=127 time=0
Time=66240 Track=10 note_on channel=9 note=42 velocity=100 time=0
Time=66300 Track=10 note_off channel=9 note=36 velocity=0 time=60
Time=66300 Track=10 note_off channel=9 note=41 velocity=0 time=0
Time=66300 Track=10 note_off channel=9 note=42 velocity=0 time=0
Time=66480 Track=2 note_off channel=1 note=27 velocity=64 time=240
Time=66480 Track=4 note_on channel=3 note=63 velocity=100 time=360
Time=66480 Track=4 note_on channel=3 note=66 velocity=100 time=0
Time=66480 Track=4 note_on channel=3 note=70 velocity=100 time=0
Time=66480 Track=5 note_on channel=4 note=51 velocity=100 time=360
Time=66480 Track=5 note_on channel=4 note=54 velocity=100 time=0
Time=66480 Track=5 note_on channel=4 note=58 velocity=100 time=0
Time=66480 Track=10 note_on channel=9 note=40 velocity=60 time=180
Time=66540 Track=10 note_off channel=9 note=40 velocity=0 time=60
Time=66600 Track=2 note_on channel=1 note=27 velocity=100 time=120
Time=66600 Track=4 note_off channel=3 note=63 velocity=0 time=120
Time=66600 Track=4 note_off channel=3 note=66 velocity=0 time=0
Time=66600 Track=4 note_off channel=3 note=70 velocity=0 time=0
Time=66600 Track=5 note_off channel=4 note=51 velocity=0 time=120
Time=66600 Track=5 note_off channel=4 note=54 velocity=0 time=0
Time=66600 Track=5 note_off channel=4 note=58 velocity=0 time=0
Time=66600 Track=10 note_on channel=9 note=40 velocity=120 time=60
Time=66600 Track=10 note_on channel=9 note=42 velocity=100 time=0
Time=66660 Track=10 note_off channel=9 note=40 velocity=0 time=60
Time=66660 Track=10 note_off channel=9 note=42 velocity=0 time=0
Time=66720 Track=2 note_off channel=1 note=27 velocity=64 time=120
Time=66720 Track=2 note_on channel=1 note=37 velocity=100 time=0
Time=66720 Track=4 note_on channel=3 note=63 velocity=100 time=120
Time=66720 Track=4 note_on channel=3 note=66 velocity=100 time=0
Time=66720 Track=4 note_on channel=3 note=70 velocity=100 time=0
Time=66720 Track=10 note_on channel=9 note=36 velocity=127 time=60
Time=66720 Track=10 note_on channel=9 note=42 velocity=100 time=0
Time=66780 Track=10 note_off channel=9 note=36 velocity=0 time=60
Time=66780 Track=10 note_off channel=9 note=42 velocity=0 time=0
Time=66840 Track=2 note_off channel=1 note=37 velocity=64 time=120
Time=66840 Track=4 note_off channel=3 note=63 velocity=0 time=120
Time=66840 Track=4 note_off channel=3 note=66 velocity=0 time=0
Time=66840 Track=4 note_off channel=3 note=70 velocity=0 time=0
Time=66960 Track=2 note_on channel=1 note=37 velocity=100 time=120
Time=66960 Track=4 note_on channel=3 note=63 velocity=100 time=120
Time=66960 Track=4 note_on channel=3 note=66 velocity=100 time=0
Time=66960 Track=4 note_on channel=3 note=70 velocity=100 time=0
Time=66960 Track=5 note_on channel=4 note=51 velocity=100 time=360
Time=66960 Track=5 note_on channel=4 note=54 velocity=100 time=0
Time=66960 Track=5 note_on channel=4 note=58 velocity=100 time=0
Time=66960 Track=7 note_on channel=6 note=77 velocity=106 time=1387
Time=66960 Track=10 note_on channel=9 note=40 velocity=120 time=180
Time=66960 Track=10 note_on channel=9 note=42 velocity=100 time=0
Time=67020 Track=7 note_off channel=6 note=77 velocity=0 time=60
Time=67020 Track=10 note_off channel=9 note=40 velocity=0 time=60
Time=67020 Track=10 note_off channel=9 note=42 velocity=0 time=0
Time=67080 Track=2 note_off channel=1 note=37 velocity=64 time=120
Time=67080 Track=4 note_off channel=3 note=63 velocity=0 time=120
Time=67080 Track=4 note_off channel=3 note=66 velocity=0 time=0
Time=67080 Track=4 note_off channel=3 note=70 velocity=0 time=0
Time=67080 Track=5 note_off channel=4 note=51 velocity=0 time=120
Time=67080 Track=5 note_off channel=4 note=54 velocity=0 time=0
Time=67080 Track=5 note_off channel=4 note=58 velocity=0 time=0
Time=67200 Track=2 note_on channel=1 note=34 velocity=100 time=120
Time=67200 Track=7 note_on channel=6 note=78 velocity=104 time=180
Time=67200 Track=10 note_on channel=9 note=36 velocity=127 time=180
Time=67200 Track=10 note_on channel=9 note=41 velocity=127 time=0
Time=67200 Track=10 note_on channel=9 note=42 velocity=100 time=0
Time=67260 Track=7 note_off channel=6 note=78 velocity=0 time=60
Time=67260 Track=10 note_off channel=9 note=36 velocity=0 time=60
Time=67260 Track=10 note_off channel=9 note=41 velocity=0 time=0
Time=67260 Track=10 note_off channel=9 note=42 velocity=0 time=0
Time=67440 Track=2 note_off channel=1 note=34 velocity=64 time=240
Time=67440 Track=4 note_on channel=3 note=70 velocity=100 time=360
Time=67440 Track=4 note_on channel=3 note=73 velocity=100 time=0
Time=67440 Track=4 note_on channel=3 note=77 velocity=100 time=0
Time=67440 Track=5 note_on channel=4 note=58 velocity=100 time=360
Time=67440 Track=5 note_on channel=4 note=61 velocity=100 time=0
Time=67440 Track=5 note_on channel=4 note=65 velocity=100 time=0
Time=67440 Track=7 note_on channel=6 note=75 velocity=104 time=180
Time=67440 Track=10 note_on channel=9 note=40 velocity=60 time=180
Time=67500 Track=7 note_off channel=6 note=75 velocity=0 time=60
Time=67500 Track=10 note_off channel=9 note=40 velocity=0 time=60
Time=67560 Track=2 note_on channel=1 note=37 velocity=100 time=120
Time=67560 Track=4 note_off channel=3 note=70 velocity=0 time=120
Time=67560 Track=4 note_off channel=3 note=73 velocity=0 time=0
Time=67560 Track=4 note_off channel=3 note=77 velocity=0 time=0
Time=67560 Track=5 note_off channel=4 note=58 velocity=0 time=120
Time=67560 Track=5 note_off channel=4 note=61 velocity=0 time=0
Time=67560 Track=5 note_off channel=4 note=65 velocity=0 time=0
Time=67560 Track=10 note_on channel=9 note=40 velocity=120 time=60
Time=67560 Track=10 note_on channel=9 note=42 velocity=100 time=0
Time=67620 Track=10 note_off channel=9 note=40 velocity=0 time=60
Time=67620 Track=10 note_off channel=9 note=42 velocity=0 time=0
Time=67680 Track=2 note_off channel=1 note=37 velocity=64 time=120
Time=67680 Track=2 note_on channel=1 note=41 velocity=100 time=0
Time=67680 Track=4 note_on channel=3 note=70 velocity=100 time=120
Time=67680 Track=4 note_on channel=3 note=73 velocity=100 time=0
Time=67680 Track=4 note_on channel=3 note=77 velocity=100 time=0
Time=67680 Track=10 note_on channel=9 note=36 velocity=127 time=60
Time=67680 Track=10 note_on channel=9 note=42 velocity=100 time=0
Time=67740 Track=10 note_off channel=9 note=36 velocity=0 time=60
Time=67740 Track=10 note_off channel=9 note=42 velocity=0 time=0
Time=67800 Track=2 note_off channel=1 note=41 velocity=64 time=120
Time=67800 Track=4 note_off channel=3 note=70 velocity=0 time=120
Time=67800 Track=4 note_off channel=3 note=73 velocity=0 time=0
Time=67800 Track=4 note_off channel=3 note=77 velocity=0 time=0
Time=67920 Track=2 note_on channel=1 note=41 velocity=100 time=120
Time=67920 Track=4 note_on channel=3 note=70 velocity=100 time=120
Time=67920 Track=4 note_on channel=3 note=73 velocity=100 time=0
Time=67920 Track=4 note_on channel=3 note=77 velocity=100 time=0
Time=67920 Track=5 note_on channel=4 note=58 velocity=100 time=360
Time=67920 Track=5 note_on channel=4 note=61 velocity=100 time=0
Time=67920 Track=5 note_on channel=4 note=65 velocity=100 time=0
Time=67920 Track=10 note_on channel=9 note=40 velocity=120 time=180
Time=67920 Track=10 note_on channel=9 note=42 velocity=100 time=0
Time=67980 Track=10 note_off channel=9 note=40 velocity=0 time=60
Time=67980 Track=10 note_off channel=9 note=42 velocity=0 time=0
Time=68040 Track=2 note_off channel=1 note=41 velocity=64 time=120
Time=68040 Track=4 note_off channel=3 note=70 velocity=0 time=120
Time=68040 Track=4 note_off channel=3 note=73 velocity=0 time=0
Time=68040 Track=4 note_off channel=3 note=77 velocity=0 time=0
Time=68040 Track=5 note_off channel=4 note=58 velocity=0 time=120
Time=68040 Track=5 note_off channel=4 note=61 velocity=0 time=0
Time=68040 Track=5 note_off channel=4 note=65 velocity=0 time=0
Time=68160 Track=2 note_on channel=1 note=32 velocity=100 time=120
Time=68160 Track=10 note_on channel=9 note=36 velocity=127 time=180
Time=68160 Track=10 note_on channel=9 note=41 velocity=127 time=0
Time=68160 Track=10 note_on channel=9 note=42 velocity=100 time=0
Time=68217 Track=10 note_off channel=9 note=42 velocity=0 time=57
Time=68220 Track=10 note_off channel=9 note=36 velocity=0 time=3
Time=68220 Track=10 note_off channel=9 note=41 velocity=0 time=0
Time=68400 Track=2 note_off channel=1 note=32 velocity=64 time=240
Time=68400 Track=4 note_on channel=3 note=68 velocity=100 time=360
Time=68400 Track=4 note_on channel=3 note=72 velocity=100 time=0
Time=68400 Track=4 note_on channel=3 note=75 velocity=100 time=0
Time=68400 Track=5 note_on channel=4 note=56 velocity=100 time=360
Time=68400 Track=5 note_on channel=4 note=60 velocity=100 time=0
Time=68400 Track=5 note_on channel=4 note=63 velocity=100 time=0
Time=68400 Track=10 note_on channel=9 note=40 velocity=60 time=180
Time=68459 Track=10 note_off channel=9 note=40 velocity=0 time=59
Time=68520 Track=2 note_on channel=1 note=36 velocity=100 time=120
Time=68520 Track=4 note_off channel=3 note=68 velocity=0 time=120
Time=68520 Track=4 note_off channel=3 note=72 velocity=0 time=0
Time=68520 Track=4 note_off channel=3 note=75 velocity=0 time=0
Time=68520 Track=5 note_off channel=4 note=56 velocity=0 time=120
Time=68520 Track=5 note_off channel=4 note=60 velocity=0 time=0
Time=68520 Track=5 note_off channel=4 note=63 velocity=0 time=0
Time=68520 Track=10 note_on channel=9 note=40 velocity=120 time=61
Time=68520 Track=10 note_on channel=9 note=42 velocity=100 time=0
Time=68580 Track=10 note_off channel=9 note=40 velocity=0 time=60
Time=68580 Track=10 note_off channel=9 note=42 velocity=0 time=0
Time=68640 Track=2 note_off channel=1 note=36 velocity=64 time=120
Time=68640 Track=2 note_on channel=1 note=39 velocity=100 time=0
Time=68640 Track=4 note_on channel=3 note=68 velocity=100 time=120
Time=68640 Track=4 note_on channel=3 note=72 velocity=100 time=0
Time=68640 Track=4 note_on channel=3 note=75 velocity=100 time=0
Time=68640 Track=10 note_on channel=9 note=36 velocity=127 time=60
Time=68640 Track=10 note_on channel=9 note=42 velocity=100 time=0
Time=68700 Track=10 note_off channel=9 note=36 velocity=0 time=60
Time=68701 Track=10 note_off channel=9 note=42 velocity=0 time=1
Time=68760 Track=2 note_off channel=1 note=39 velocity=64 time=120
Time=68760 Track=4 note_off channel=3 note=68 velocity=0 time=120
Time=68760 Track=4 note_off channel=3 note=72 velocity=0 time=0
Time=68760 Track=4 note_off channel=3 note=75 velocity=0 time=0
Time=68880 Track=2 note_on channel=1 note=39 velocity=100 time=120
Time=68880 Track=4 note_on channel=3 note=68 velocity=100 time=120
Time=68880 Track=4 note_on channel=3 note=72 velocity=100 time=0
Time=68880 Track=4 note_on channel=3 note=75 velocity=100 time=0
Time=68880 Track=5 note_on channel=4 note=56 velocity=100 time=360
Time=68880 Track=5 note_on channel=4 note=60 velocity=100 time=0
Time=68880 Track=5 note_on channel=4 note=63 velocity=100 time=0
Time=68880 Track=7 note_on channel=6 note=75 velocity=96 time=1380
Time=68880 Track=10 note_on channel=9 note=40 velocity=120 time=179
Time=68880 Track=10 note_on channel=9 note=42 velocity=100 time=0
Time=68940 Track=7 note_off channel=6 note=75 velocity=0 time=60
Time=68940 Track=10 note_off channel=9 note=40 velocity=0 time=60
Time=68940 Track=10 note_off channel=9 note=42 velocity=0 time=0
Time=69000 Track=2 note_off channel=1 note=39 velocity=64 time=120
Time=69000 Track=4 note_off channel=3 note=68 velocity=0 time=120
Time=69000 Track=4 note_off channel=3 note=72 velocity=0 time=0
Time=69000 Track=4 note_off channel=3 note=75 velocity=0 time=0
Time=69000 Track=5 note_off channel=4 note=56 velocity=0 time=120
Time=69000 Track=5 note_off channel=4 note=60 velocity=0 time=0
Time=69000 Track=5 note_off channel=4 note=63 velocity=0 time=0
Time=69120 Track=2 note_on channel=1 note=27 velocity=100 time=120
Time=69120 Track=7 note_on channel=6 note=77 velocity=89 time=180
Time=69120 Track=10 note_on channel=9 note=36 velocity=127 time=180
Time=69120 Track=10 note_on channel=9 note=41 velocity=127 time=0
Time=69120 Track=10 note_on channel=9 note=42 velocity=100 time=0
Time=69180 Track=7 note_off channel=6 note=77 velocity=0 time=60
Time=69180 Track=10 note_off channel=9 note=36 velocity=0 time=60
Time=69180 Track=10 note_off channel=9 note=41 velocity=0 time=0
Time=69180 Track=10 note_off channel=9 note=42 velocity=0 time=0
Time=69360 Track=2 note_off channel=1 note=27 velocity=64 time=240
Time=69360 Track=4 note_on channel=3 note=63 velocity=100 time=360
Time=69360 Track=4 note_on channel=3 note=66 velocity=100 time=0
Time=69360 Track=4 note_on channel=3 note=70 velocity=100 time=0
Time=69360 Track=5 note_on channel=4 note=51 velocity=100 time=360
Time=69360 Track=5 note_on channel=4 note=54 velocity=100 time=0
Time=69360 Track=5 note_on channel=4 note=58 velocity=100 time=0
Time=69360 Track=7 note_on channel=6 note=75 velocity=100 time=180
Time=69360 Track=10 note_on channel=9 note=40 velocity=60 time=180
Time=69420 Track=7 note_off channel=6 note=75 velocity=0 time=60
Time=69420 Track=10 note_off channel=9 note=40 velocity=0 time=60
Time=69480 Track=2 note_on channel=1 note=30 velocity=100 time=120
Time=69480 Track=4 note_off channel=3 note=63 velocity=0 time=120
Time=69480 Track=4 note_off channel=3 note=66 velocity=0 time=0
Time=69480 Track=4 note_off channel=3 note=70 velocity=0 time=0
Time=69480 Track=5 note_off channel=4 note=51 velocity=0 time=120
Time=69480 Track=5 note_off channel=4 note=54 velocity=0 time=0
Time=69480 Track=5 note_off channel=4 note=58 velocity=0 time=0
Time=69480 Track=10 note_on channel=9 note=40 velocity=120 time=60
Time=69480 Track=10 note_on channel=9 note=42 velocity=100 time=0
Time=69540 Track=10 note_off channel=9 note=40 velocity=0 time=60
Time=69540 Track=10 note_off channel=9 note=42 velocity=0 time=0
Time=69600 Track=2 note_off channel=1 note=30 velocity=64 time=120
Time=69600 Track=2 note_on channel=1 note=34 velocity=100 time=0
Time=69600 Track=4 note_on channel=3 note=63 velocity=100 time=120
Time=69600 Track=4 note_on channel=3 note=66 velocity=100 time=0
Time=69600 Track=4 note_on channel=3 note=70 velocity=100 time=0
Time=69600 Track=10 note_on channel=9 note=36 velocity=127 time=60
Time=69600 Track=10 note_on channel=9 note=42 velocity=100 time=0
Time=69660 Track=10 note_off channel=9 note=36 velocity=0 time=60
Time=69660 Track=10 note_off channel=9 note=42 velocity=0 time=0
Time=69720 Track=2 note_off channel=1 note=34 velocity=64 time=120
Time=69720 Track=4 note_off channel=3 note=63 velocity=0 time=120
Time=69720 Track=4 note_off channel=3 note=66 velocity=0 time=0
Time=69720 Track=4 note_off channel=3 note=70 velocity=0 time=0
Time=69840 Track=2 note_on channel=1 note=34 velocity=100 time=120
Time=69840 Track=4 note_on channel=3 note=63 velocity=100 time=120
Time=69840 Track=4 note_on channel=3 note=66 velocity=100 time=0
Time=69840 Track=4 note_on channel=3 note=70 velocity=100 time=0
Time=69840 Track=5 note_on channel=4 note=51 velocity=100 time=360
Time=69840 Track=5 note_on channel=4 note=54 velocity=100 time=0
Time=69840 Track=5 note_on channel=4 note=58 velocity=100 time=0
Time=69840 Track=10 note_on channel=9 note=40 velocity=120 time=180
Time=69840 Track=10 note_on channel=9 note=42 velocity=100 time=0
Time=69900 Track=10 note_off channel=9 note=40 velocity=0 time=60
Time=69900 Track=10 note_off channel=9 note=42 velocity=0 time=0
Time=69960 Track=2 note_off channel=1 note=34 velocity=64 time=120
Time=69960 Track=4 note_off channel=3 note=63 velocity=0 time=120
Time=69960 Track=4 note_off channel=3 note=66 velocity=0 time=0
Time=69960 Track=4 note_off channel=3 note=70 velocity=0 time=0
Time=69960 Track=5 note_off channel=4 note=51 velocity=0 time=120
Time=69960 Track=5 note_off channel=4 note=54 velocity=0 time=0
Time=69960 Track=5 note_off channel=4 note=58 velocity=0 time=0
Time=70080 Track=2 note_on channel=1 note=27 velocity=100 time=120
Time=70080 Track=10 note_on channel=9 note=36 velocity=127 time=180
Time=70080 Track=10 note_on channel=9 note=40 velocity=127 time=0
Time=70080 Track=10 note_on channel=9 note=42 velocity=100 time=0
Time=70140 Track=10 note_off channel=9 note=36 velocity=0 time=60
Time=70140 Track=10 note_off channel=9 note=40 velocity=0 time=0
Time=70140 Track=10 note_off channel=9 note=42 velocity=0 time=0
Time=70320 Track=2 note_off channel=1 note=27 velocity=64 time=240
Time=70440 Track=2 note_on channel=1 note=27 velocity=100 time=120
Time=70440 Track=10 note_on channel=9 note=43 velocity=120 time=300
Time=70500 Track=10 note_off channel=9 note=43 velocity=0 time=60
Time=70560 Track=2 note_off channel=1 note=27 velocity=64 time=120
Time=70560 Track=2 note_on channel=1 note=37 velocity=100 time=0
Time=70680 Track=2 note_off channel=1 note=37 velocity=64 time=120
Time=70680 Track=10 note_on channel=9 note=40 velocity=120 time=180
Time=70740 Track=10 note_off channel=9 note=40 velocity=0 time=60
Time=70800 Track=2 note_on channel=1 note=37 velocity=100 time=120
Time=70800 Track=10 note_on channel=9 note=40 velocity=120 time=60
Time=70860 Track=10 note_off channel=9 note=40 velocity=0 time=60
Time=70920 Track=2 note_off channel=1 note=37 velocity=64 time=120
Time=70920 Track=10 note_on channel=9 note=36 velocity=120 time=60
Time=70980 Track=10 note_off channel=9 note=36 velocity=0 time=60
Time=71040 Track=2 note_on channel=1 note=34 velocity=100 time=120
Time=71040 Track=6 note_on channel=5 note=70 velocity=76 time=6720
Time=71040 Track=10 note_on channel=9 note=36 velocity=127 time=60
Time=71040 Track=10 note_on channel=9 note=41 velocity=127 time=0
Time=71040 Track=10 note_on channel=9 note=42 velocity=100 time=0
Time=71100 Track=10 note_off channel=9 note=42 velocity=0 time=60
Time=71101 Track=10 note_off channel=9 note=36 velocity=0 time=1
Time=71101 Track=10 note_off channel=9 note=41 velocity=0 time=0
Time=71280 Track=2 note_off channel=1 note=34 velocity=64 time=240
Time=71280 Track=4 note_on channel=3 note=70 velocity=100 time=1320
Time=71280 Track=4 note_on channel=3 note=73 velocity=100 time=0
Time=71280 Track=4 note_on channel=3 note=77 velocity=100 time=0
Time=71280 Track=5 note_on channel=4 note=70 velocity=100 time=1320
Time=71280 Track=5 note_on channel=4 note=73 velocity=100 time=0
Time=71280 Track=5 note_on channel=4 note=77 velocity=100 time=0
Time=71280 Track=10 note_on channel=9 note=54 velocity=100 time=179
Time=71310 Track=10 note_off channel=9 note=54 velocity=64 time=30
Time=71400 Track=2 note_on channel=1 note=37 velocity=100 time=120
Time=71400 Track=4 note_off channel=3 note=70 velocity=0 time=120
Time=71400 Track=4 note_off channel=3 note=73 velocity=0 time=0
Time=71400 Track=4 note_off channel=3 note=77 velocity=0 time=0
Time=71400 Track=5 note_off channel=4 note=70 velocity=0 time=120
Time=71400 Track=5 note_off channel=4 note=73 velocity=0 time=0
Time=71400 Track=5 note_off channel=4 note=77 velocity=0 time=0
Time=71400 Track=10 note_on channel=9 note=40 velocity=100 time=90
Time=71400 Track=10 note_on channel=9 note=37 velocity=127 time=0
Time=71400 Track=10 note_on channel=9 note=42 velocity=100 time=0
Time=71460 Track=10 note_off channel=9 note=40 velocity=0 time=60
Time=71460 Track=10 note_off channel=9 note=37 velocity=0 time=0
Time=71460 Track=10 note_off channel=9 note=42 velocity=0 time=0
Time=71520 Track=2 note_off channel=1 note=37 velocity=64 time=120
Time=71520 Track=2 note_on channel=1 note=41 velocity=100 time=0
Time=71520 Track=10 note_on channel=9 note=36 velocity=127 time=60
Time=71520 Track=10 note_on channel=9 note=42 velocity=100 time=0
Time=71580 Track=10 note_off channel=9 note=36 velocity=0 time=60
Time=71582 Track=10 note_off channel=9 note=42 velocity=0 time=2
Time=71640 Track=2 note_off channel=1 note=41 velocity=64 time=120
Time=71640 Track=10 note_on channel=9 note=54 velocity=100 time=58
Time=71670 Track=10 note_off channel=9 note=54 velocity=64 time=30
Time=71760 Track=2 note_on channel=1 note=41 velocity=100 time=120
Time=71760 Track=4 note_on channel=3 note=70 velocity=100 time=360
Time=71760 Track=4 note_on channel=3 note=73 velocity=100 time=0
Time=71760 Track=4 note_on channel=3 note=77 velocity=100 time=0
Time=71760 Track=5 note_on channel=4 note=70 velocity=100 time=360
Time=71760 Track=5 note_on channel=4 note=73 velocity=100 time=0
Time=71760 Track=5 note_on channel=4 note=77 velocity=100 time=0
Time=71760 Track=10 note_on channel=9 note=40 velocity=100 time=90
Time=71760 Track=10 note_on channel=9 note=37 velocity=127 time=0
Time=71760 Track=10 note_on channel=9 note=42 velocity=100 time=0
Time=71820 Track=10 note_off channel=9 note=40 velocity=0 time=60
Time=71820 Track=10 note_off channel=9 note=37 velocity=0 time=0
Time=71820 Track=10 note_off channel=9 note=42 velocity=0 time=0
Time=71880 Track=2 note_off channel=1 note=41 velocity=64 time=120
Time=71880 Track=4 note_off channel=3 note=70 velocity=0 time=120
Time=71880 Track=4 note_off channel=3 note=73 velocity=0 time=0
Time=71880 Track=4 note_off channel=3 note=77 velocity=0 time=0
Time=71880 Track=5 note_off channel=4 note=70 velocity=0 time=120
Time=71880 Track=5 note_off channel=4 note=73 velocity=0 time=0
Time=71880 Track=5 note_off channel=4 note=77 velocity=0 time=0
Time=72000 Track=2 note_on channel=1 note=32 velocity=100 time=120
Time=72000 Track=6 note_off channel=5 note=70 velocity=0 time=960
Time=72000 Track=9 note_on channel=7 note=63 velocity=100 time=206
Time=72000 Track=10 note_on channel=9 note=36 velocity=127 time=180
Time=72000 Track=10 note_on channel=9 note=41 velocity=127 time=0
Time=72000 Track=10 note_on channel=9 note=42 velocity=100 time=0
Time=72060 Track=10 note_off channel=9 note=36 velocity=0 time=60
Time=72060 Track=10 note_off channel=9 note=41 velocity=0 time=0
Time=72060 Track=10 note_off channel=9 note=42 velocity=0 time=0
Time=72180 Track=9 note_off channel=7 note=63 velocity=0 time=180
Time=72240 Track=2 note_off channel=1 note=32 velocity=64 time=240
Time=72240 Track=4 note_on channel=3 note=68 velocity=100 time=360
Time=72240 Track=4 note_on channel=3 note=72 velocity=100 time=0
Time=72240 Track=4 note_on channel=3 note=75 velocity=100 time=0
Time=72240 Track=5 note_on channel=4 note=68 velocity=100 time=360
Time=72240 Track=5 note_on channel=4 note=72 velocity=100 time=0
Time=72240 Track=5 note_on channel=4 note=75 velocity=100 time=0
Time=72240 Track=10 note_on channel=9 note=54 velocity=100 time=180
Time=72270 Track=10 note_off channel=9 note=54 velocity=64 time=30
Time=72360 Track=2 note_on channel=1 note=36 velocity=100 time=120
Time=72360 Track=4 note_off channel=3 note=68 velocity=0 time=120
Time=72360 Track=4 note_off channel=3 note=72 velocity=0 time=0
Time=72360 Track=4 note_off channel=3 note=75 velocity=0 time=0
Time=72360 Track=5 note_off channel=4 note=68 velocity=0 time=120
Time=72360 Track=5 note_off channel=4 note=72 velocity=0 time=0
Time=72360 Track=5 note_off channel=4 note=75 velocity=0 time=0
Time=72360 Track=9 note_on channel=7 note=63 velocity=100 time=180
Time=72360 Track=10 note_on channel=9 note=40 velocity=100 time=90
Time=72360 Track=10 note_on channel=9 note=37 velocity=127 time=0
Time=72360 Track=10 note_on channel=9 note=42 velocity=100 time=0
Time=72420 Track=10 note_off channel=9 note=40 velocity=0 time=60
Time=72420 Track=10 note_off channel=9 note=37 velocity=0 time=0
Time=72420 Track=10 note_off channel=9 note=42 velocity=0 time=0
Time=72480 Track=2 note_off channel=1 note=36 velocity=64 time=120
Time=72480 Track=2 note_on channel=1 note=39 velocity=100 time=0
Time=72480 Track=7 note_on channel=6 note=80 velocity=98 time=3060
Time=72480 Track=9 note_off channel=7 note=63 velocity=0 time=120
Time=72480 Track=10 note_on channel=9 note=36 velocity=127 time=60
Time=72480 Track=10 note_on channel=9 note=42 velocity=100 time=0
Time=72540 Track=10 note_off channel=9 note=36 velocity=0 time=60
Time=72540 Track=10 note_off channel=9 note=42 velocity=0 time=0
Time=72600 Track=2 note_off channel=1 note=39 velocity=64 time=120
Time=72600 Track=10 note_on channel=9 note=54 velocity=100 time=60
Time=72630 Track=10 note_off channel=9 note=54 velocity=64 time=30
Time=72720 Track=2 note_on channel=1 note=39 velocity=100 time=120
Time=72720 Track=4 note_on channel=3 note=68 velocity=100 time=360
Time=72720 Track=4 note_on channel=3 note=72 velocity=100 time=0
Time=72720 Track=4 note_on channel=3 note=75 velocity=100 time=0
Time=72720 Track=5 note_on channel=4 note=68 velocity=100 time=360
Time=72720 Track=5 note_on channel=4 note=72 velocity=100 time=0
Time=72720 Track=5 note_on channel=4 note=75 velocity=100 time=0
Time=72720 Track=9 note_on channel=7 note=68 velocity=100 time=240
Time=72720 Track=10 note_on channel=9 note=40 velocity=100 time=90
Time=72720 Track=10 note_on channel=9 note=37 velocity=127 time=0
Time=72720 Track=10 note_on channel=9 note=42 velocity=100 time=0
Time=72780 Track=10 note_off channel=9 note=40 velocity=0 time=60
Time=72780 Track=10 note_off channel=9 note=37 velocity=0 time=0
Time=72780 Track=10 note_off channel=9 note=42 velocity=0 time=0
Time=72840 Track=2 note_off channel=1 note=39 velocity=64 time=120
Time=72840 Track=4 note_off channel=3 note=68 velocity=0 time=120
Time=72840 Track=4 note_off channel=3 note=72 velocity=0 time=0
Time=72840 Track=4 note_off channel=3 note=75 velocity=0 time=0
Time=72840 Track=5 note_off channel=4 note=68 velocity=0 time=120
Time=72840 Track=5 note_off channel=4 note=72 velocity=0 time=0
Time=72840 Track=5 note_off channel=4 note=75 velocity=0 time=0
Time=72840 Track=9 note_off channel=7 note=68 velocity=0 time=120
Time=72960 Track=2 note_on channel=1 note=27 velocity=100 time=120
Time=72960 Track=7 note_off channel=6 note=80 velocity=0 time=480
Time=72960 Track=7 note_on channel=6 note=78 velocity=95 time=0
Time=72960 Track=9 note_on channel=7 note=66 velocity=100 time=120
Time=72960 Track=10 note_on channel=9 note=36 velocity=127 time=180
Time=72960 Track=10 note_on channel=9 note=41 velocity=127 time=0
Time=72960 Track=10 note_on channel=9 note=42 velocity=100 time=0
Time=73020 Track=10 note_off channel=9 note=36 velocity=0 time=60
Time=73020 Track=10 note_off channel=9 note=41 velocity=0 time=0
Time=73020 Track=10 note_off channel=9 note=42 velocity=0 time=0
Time=73140 Track=9 note_off channel=7 note=66 velocity=0 time=180
Time=73200 Track=2 note_off channel=1 note=27 velocity=64 time=240
Time=73200 Track=4 note_on channel=3 note=63 velocity=100 time=360
Time=73200 Track=4 note_on channel=3 note=66 velocity=100 time=0
Time=73200 Track=4 note_on channel=3 note=70 velocity=100 time=0
Time=73200 Track=5 note_on channel=4 note=63 velocity=100 time=360
Time=73200 Track=5 note_on channel=4 note=66 velocity=100 time=0
Time=73200 Track=5 note_on channel=4 note=70 velocity=100 time=0
Time=73200 Track=10 note_on channel=9 note=54 velocity=100 time=180
Time=73230 Track=10 note_off channel=9 note=54 velocity=64 time=30
Time=73320 Track=2 note_on channel=1 note=27 velocity=100 time=120
Time=73320 Track=4 note_off channel=3 note=63 velocity=0 time=120
Time=73320 Track=4 note_off channel=3 note=66 velocity=0 time=0
Time=73320 Track=4 note_off channel=3 note=70 velocity=0 time=0
Time=73320 Track=5 note_off channel=4 note=63 velocity=0 time=120
Time=73320 Track=5 note_off channel=4 note=66 velocity=0 time=0
Time=73320 Track=5 note_off channel=4 note=70 velocity=0 time=0
Time=73320 Track=9 note_on channel=7 note=66 velocity=100 time=180
Time=73320 Track=10 note_on channel=9 note=40 velocity=100 time=90
Time=73320 Track=10 note_on channel=9 note=37 velocity=127 time=0
Time=73320 Track=10 note_on channel=9 note=42 velocity=100 time=0
Time=73379 Track=10 note_off channel=9 note=40 velocity=0 time=59
Time=73379 Track=10 note_off channel=9 note=37 velocity=0 time=0
Time=73380 Track=10 note_off channel=9 note=42 velocity=0 time=1
Time=73440 Track=2 note_off channel=1 note=27 velocity=64 time=120
Time=73440 Track=2 note_on channel=1 note=34 velocity=100 time=0
Time=73440 Track=9 note_off channel=7 note=66 velocity=0 time=120
Time=73440 Track=10 note_on channel=9 note=36 velocity=127 time=60
Time=73440 Track=10 note_on channel=9 note=42 velocity=100 time=0
Time=73500 Track=10 note_off channel=9 note=36 velocity=0 time=60
Time=73500 Track=10 note_off channel=9 note=42 velocity=0 time=0
Time=73560 Track=2 note_off channel=1 note=34 velocity=64 time=120
Time=73560 Track=10 note_on channel=9 note=54 velocity=100 time=60
Time=73590 Track=10 note_off channel=9 note=54 velocity=64 time=30
Time=73680 Track=2 note_on channel=1 note=34 velocity=100 time=120
Time=73680 Track=4 note_on channel=3 note=63 velocity=100 time=360
Time=73680 Track=4 note_on channel=3 note=66 velocity=100 time=0
Time=73680 Track=4 note_on channel=3 note=70 velocity=100 time=0
Time=73680 Track=5 note_on channel=4 note=63 velocity=100 time=360
Time=73680 Track=5 note_on channel=4 note=66 velocity=100 time=0
Time=73680 Track=5 note_on channel=4 note=70 velocity=100 time=0
Time=73680 Track=9 note_on channel=7 note=66 velocity=100 time=240
Time=73680 Track=10 note_on channel=9 note=40 velocity=100 time=90
Time=73680 Track=10 note_on channel=9 note=37 velocity=127 time=0
Time=73680 Track=10 note_on channel=9 note=42 velocity=100 time=0
Time=73739 Track=10 note_off channel=9 note=40 velocity=0 time=59
Time=73739 Track=10 note_off channel=9 note=37 velocity=0 time=0
Time=73740 Track=10 note_off channel=9 note=42 velocity=0 time=1
Time=73769 Track=9 note_off channel=7 note=66 velocity=0 time=89
Time=73800 Track=2 note_off channel=1 note=34 velocity=64 time=120
Time=73800 Track=4 note_off channel=3 note=63 velocity=0 time=120
Time=73800 Track=4 note_off channel=3 note=66 velocity=0 time=0
Time=73800 Track=4 note_off channel=3 note=70 velocity=0 time=0
Time=73800 Track=5 note_off channel=4 note=63 velocity=0 time=120
Time=73800 Track=5 note_off channel=4 note=66 velocity=0 time=0
Time=73800 Track=5 note_off channel=4 note=70 velocity=0 time=0
Time=73920 Track=2 note_on channel=1 note=27 velocity=100 time=120
Time=73920 Track=7 note_off channel=6 note=78 velocity=0 time=960
Time=73920 Track=9 note_on channel=7 note=66 velocity=100 time=151
Time=73920 Track=10 note_on channel=9 note=36 velocity=127 time=180
Time=73920 Track=10 note_on channel=9 note=41 velocity=127 time=0
Time=73920 Track=10 note_on channel=9 note=42 velocity=100 time=0
Time=73980 Track=10 note_off channel=9 note=36 velocity=0 time=60
Time=73980 Track=10 note_off channel=9 note=41 velocity=0 time=0
Time=73980 Track=10 note_off channel=9 note=42 velocity=0 time=0
Time=74002 Track=9 note_off channel=7 note=66 velocity=0 time=3
Time=74040 Track=9 note_on channel=7 note=70 velocity=100 time=11
Time=74160 Track=2 note_off channel=1 note=27 velocity=64 time=240
Time=74160 Track=4 note_on channel=3 note=63 velocity=100 time=360
Time=74160 Track=4 note_on channel=3 note=66 velocity=100 time=0
Time=74160 Track=4 note_on channel=3 note=70 velocity=100 time=0
Time=74160 Track=5 note_on channel=4 note=63 velocity=100 time=360
Time=74160 Track=5 note_on channel=4 note=66 velocity=100 time=0
Time=74160 Track=5 note_on channel=4 note=70 velocity=100 time=0
Time=74160 Track=9 note_off channel=7 note=70 velocity=0 time=120
Time=74160 Track=9 note_on channel=7 note=75 velocity=100 time=0
Time=74160 Track=10 note_on channel=9 note=54 velocity=100 time=180
Time=74190 Track=10 note_off channel=9 note=54 velocity=64 time=30
Time=74264 Track=9 note_off channel=7 note=75 velocity=0 time=3
Time=74280 Track=2 note_on channel=1 note=27 velocity=100 time=120
Time=74280 Track=4 note_off channel=3 note=63 velocity=0 time=120
Time=74280 Track=4 note_off channel=3 note=66 velocity=0 time=0
Time=74280 Track=4 note_off channel=3 note=70 velocity=0 time=0
Time=74280 Track=5 note_off channel=4 note=63 velocity=0 time=120
Time=74280 Track=5 note_off channel=4 note=66 velocity=0 time=0
Time=74280 Track=5 note_off channel=4 note=70 velocity=0 time=0
Time=74280 Track=9 note_on channel=7 note=77 velocity=100 time=16
Time=74280 Track=10 note_on channel=9 note=40 velocity=100 time=90
Time=74280 Track=10 note_on channel=9 note=37 velocity=127 time=0
Time=74280 Track=10 note_on channel=9 note=42 velocity=100 time=0
Time=74340 Track=10 note_off channel=9 note=40 velocity=0 time=60
Time=74340 Track=10 note_off channel=9 note=37 velocity=0 time=0
Time=74340 Track=10 note_off channel=9 note=42 velocity=0 time=0
Time=74353 Track=9 note_off channel=7 note=77 velocity=0 time=27
Time=74400 Track=2 note_off channel=1 note=27 velocity=64 time=120
Time=74400 Track=2 note_on channel=1 note=37 velocity=100 time=0
Time=74400 Track=9 note_on channel=7 note=78 velocity=100 time=43
Time=74400 Track=10 note_on channel=9 note=36 velocity=127 time=60
Time=74400 Track=10 note_on channel=9 note=42 velocity=100 time=0
Time=74460 Track=10 note_off channel=9 note=36 velocity=0 time=60
Time=74460 Track=10 note_off channel=9 note=42 velocity=0 time=0
Time=74512 Track=9 note_off channel=7 note=78 velocity=0 time=28
Time=74520 Track=2 note_off channel=1 note=37 velocity=64 time=120
Time=74520 Track=9 note_on channel=7 note=77 velocity=100 time=8
Time=74520 Track=10 note_on channel=9 note=54 velocity=100 time=60
Time=74550 Track=10 note_off channel=9 note=54 velocity=64 time=30
Time=74608 Track=9 note_off channel=7 note=77 velocity=0 time=42
Time=74640 Track=2 note_on channel=1 note=37 velocity=100 time=120
Time=74640 Track=4 note_on channel=3 note=63 velocity=100 time=360
Time=74640 Track=4 note_on channel=3 note=66 velocity=100 time=0
Time=74640 Track=4 note_on channel=3 note=70 velocity=100 time=0
Time=74640 Track=5 note_on channel=4 note=63 velocity=100 time=360
Time=74640 Track=5 note_on channel=4 note=66 velocity=100 time=0
Time=74640 Track=5 note_on channel=4 note=70 velocity=100 time=0
Time=74640 Track=10 note_on channel=9 note=40 velocity=100 time=90
Time=74640 Track=10 note_on channel=9 note=37 velocity=127 time=0
Time=74640 Track=10 note_on channel=9 note=42 velocity=100 time=0
Time=74700 Track=10 note_off channel=9 note=40 velocity=0 time=60
Time=74700 Track=10 note_off channel=9 note=37 velocity=0 time=0
Time=74700 Track=10 note_off channel=9 note=42 velocity=0 time=0
Time=74760 Track=2 note_off channel=1 note=37 velocity=64 time=120
Time=74760 Track=4 note_off channel=3 note=63 velocity=0 time=120
Time=74760 Track=4 note_off channel=3 note=66 velocity=0 time=0
Time=74760 Track=4 note_off channel=3 note=70 velocity=0 time=0
Time=74760 Track=5 note_off channel=4 note=63 velocity=0 time=120
Time=74760 Track=5 note_off channel=4 note=66 velocity=0 time=0
Time=74760 Track=5 note_off channel=4 note=70 velocity=0 time=0
Time=74880 Track=2 note_on channel=1 note=34 velocity=100 time=120
Time=74880 Track=7 note_on channel=6 note=77 velocity=92 time=960
Time=74880 Track=10 note_on channel=9 note=36 velocity=127 time=180
Time=74880 Track=10 note_on channel=9 note=41 velocity=127 time=0
Time=74880 Track=10 note_on channel=9 note=42 velocity=100 time=0
Time=74940 Track=10 note_off channel=9 note=36 velocity=0 time=60
Time=74940 Track=10 note_off channel=9 note=41 velocity=0 time=0
Time=74940 Track=10 note_off channel=9 note=42 velocity=0 time=0
Time=75120 Track=2 note_off channel=1 note=34 velocity=64 time=240
Time=75120 Track=4 note_on channel=3 note=70 velocity=100 time=360
Time=75120 Track=4 note_on channel=3 note=73 velocity=100 time=0
Time=75120 Track=4 note_on channel=3 note=77 velocity=100 time=0
Time=75120 Track=5 note_on channel=4 note=70 velocity=100 time=360
Time=75120 Track=5 note_on channel=4 note=73 velocity=100 time=0
Time=75120 Track=5 note_on channel=4 note=77 velocity=100 time=0
Time=75120 Track=10 note_on channel=9 note=54 velocity=100 time=180
Time=75150 Track=10 note_off channel=9 note=54 velocity=64 time=30
Time=75240 Track=2 note_on channel=1 note=37 velocity=100 time=120
Time=75240 Track=4 note_off channel=3 note=70 velocity=0 time=120
Time=75240 Track=4 note_off channel=3 note=73 velocity=0 time=0
Time=75240 Track=4 note_off channel=3 note=77 velocity=0 time=0
Time=75240 Track=5 note_off channel=4 note=70 velocity=0 time=120
Time=75240 Track=5 note_off channel=4 note=73 velocity=0 time=0
Time=75240 Track=5 note_off channel=4 note=77 velocity=0 time=0
Time=75240 Track=10 note_on channel=9 note=40 velocity=100 time=90
Time=75240 Track=10 note_on channel=9 note=37 velocity=127 time=0
Time=75240 Track=10 note_on channel=9 note=42 velocity=100 time=0
Time=75300 Track=10 note_off channel=9 note=40 velocity=0 time=60
Time=75300 Track=10 note_off channel=9 note=37 velocity=0 time=0
Time=75300 Track=10 note_off channel=9 note=42 velocity=0 time=0
Time=75360 Track=2 note_off channel=1 note=37 velocity=64 time=120
Time=75360 Track=2 note_on channel=1 note=41 velocity=100 time=0
Time=75360 Track=10 note_on channel=9 note=36 velocity=127 time=60
Time=75360 Track=10 note_on channel=9 note=42 velocity=100 time=0
Time=75420 Track=10 note_off channel=9 note=36 velocity=0 time=60
Time=75420 Track=10 note_off channel=9 note=42 velocity=0 time=0
Time=75480 Track=2 note_off channel=1 note=41 velocity=64 time=120
Time=75480 Track=10 note_on channel=9 note=54 velocity=100 time=60
Time=75510 Track=10 note_off channel=9 note=54 velocity=64 time=30
Time=75600 Track=2 note_on channel=1 note=41 velocity=100 time=120
Time=75600 Track=4 note_on channel=3 note=70 velocity=100 time=360
Time=75600 Track=4 note_on channel=3 note=73 velocity=100 time=0
Time=75600 Track=4 note_on channel=3 note=77 velocity=100 time=0
Time=75600 Track=5 note_on channel=4 note=70 velocity=100 time=360
Time=75600 Track=5 note_on channel=4 note=73 velocity=100 time=0
Time=75600 Track=5 note_on channel=4 note=77 velocity=100 time=0
Time=75600 Track=10 note_on channel=9 note=40 velocity=100 time=90
Time=75600 Track=10 note_on channel=9 note=37 velocity=127 time=0
Time=75600 Track=10 note_on channel=9 note=42 velocity=100 time=0
Time=75660 Track=10 note_off channel=9 note=40 velocity=0 time=60
Time=75660 Track=10 note_off channel=9 note=37 velocity=0 time=0
Time=75660 Track=10 note_off channel=9 note=42 velocity=0 time=0
Time=75720 Track=2 note_off channel=1 note=41 velocity=64 time=120
Time=75720 Track=4 note_off channel=3 note=70 velocity=0 time=120
Time=75720 Track=4 note_off channel=3 note=73 velocity=0 time=0
Time=75720 Track=4 note_off channel=3 note=77 velocity=0 time=0
Time=75720 Track=5 note_off channel=4 note=70 velocity=0 time=120
Time=75720 Track=5 note_off channel=4 note=73 velocity=0 time=0
Time=75720 Track=5 note_off channel=4 note=77 velocity=0 time=0
Time=75840 Track=2 note_on channel=1 note=32 velocity=100 time=120
Time=75840 Track=7 note_off channel=6 note=77 velocity=0 time=960
Time=75840 Track=7 note_on channel=6 note=75 velocity=83 time=0
Time=75840 Track=9 note_on channel=7 note=63 velocity=100 time=302
Time=75840 Track=10 note_on channel=9 note=36 velocity=127 time=180
Time=75840 Track=10 note_on channel=9 note=41 velocity=127 time=0
Time=75840 Track=10 note_on channel=9 note=42 velocity=100 time=0
Time=75897 Track=10 note_off channel=9 note=42 velocity=0 time=57
Time=75900 Track=10 note_off channel=9 note=36 velocity=0 time=3
Time=75900 Track=10 note_off channel=9 note=41 velocity=0 time=0
Time=76020 Track=9 note_off channel=7 note=63 velocity=0 time=180
Time=76080 Track=2 note_off channel=1 note=32 velocity=64 time=240
Time=76080 Track=4 note_on channel=3 note=68 velocity=100 time=360
Time=76080 Track=4 note_on channel=3 note=72 velocity=100 time=0
Time=76080 Track=4 note_on channel=3 note=75 velocity=100 time=0
Time=76080 Track=5 note_on channel=4 note=68 velocity=100 time=360
Time=76080 Track=5 note_on channel=4 note=72 velocity=100 time=0
Time=76080 Track=5 note_on channel=4 note=75 velocity=100 time=0
Time=76080 Track=10 note_on channel=9 note=54 velocity=100 time=180
Time=76110 Track=10 note_off channel=9 note=54 velocity=64 time=30
Time=76200 Track=2 note_on channel=1 note=36 velocity=100 time=120
Time=76200 Track=4 note_off channel=3 note=68 velocity=0 time=120
Time=76200 Track=4 note_off channel=3 note=72 velocity=0 time=0
Time=76200 Track=4 note_off channel=3 note=75 velocity=0 time=0
Time=76200 Track=5 note_off channel=4 note=68 velocity=0 time=120
Time=76200 Track=5 note_off channel=4 note=72 velocity=0 time=0
Time=76200 Track=5 note_off channel=4 note=75 velocity=0 time=0
Time=76200 Track=9 note_on channel=7 note=63 velocity=100 time=180
Time=76200 Track=10 note_on channel=9 note=40 velocity=100 time=90
Time=76200 Track=10 note_on channel=9 note=37 velocity=127 time=0
Time=76200 Track=10 note_on channel=9 note=42 velocity=100 time=0
Time=76260 Track=10 note_off channel=9 note=40 velocity=0 time=60
Time=76260 Track=10 note_off channel=9 note=37 velocity=0 time=0
Time=76260 Track=10 note_off channel=9 note=42 velocity=0 time=0
Time=76320 Track=2 note_off channel=1 note=36 velocity=64 time=120
Time=76320 Track=2 note_on channel=1 note=39 velocity=100 time=0
Time=76320 Track=9 note_off channel=7 note=63 velocity=0 time=120
Time=76320 Track=10 note_on channel=9 note=36 velocity=127 time=60
Time=76320 Track=10 note_on channel=9 note=42 velocity=100 time=0
Time=76380 Track=10 note_off channel=9 note=36 velocity=0 time=60
Time=76381 Track=10 note_off channel=9 note=42 velocity=0 time=1
Time=76440 Track=2 note_off channel=1 note=39 velocity=64 time=120
Time=76440 Track=10 note_on channel=9 note=54 velocity=100 time=59
Time=76470 Track=10 note_off channel=9 note=54 velocity=64 time=30
Time=76560 Track=2 note_on channel=1 note=39 velocity=100 time=120
Time=76560 Track=4 note_on channel=3 note=68 velocity=100 time=360
Time=76560 Track=4 note_on channel=3 note=72 velocity=100 time=0
Time=76560 Track=4 note_on channel=3 note=75 velocity=100 time=0
Time=76560 Track=5 note_on channel=4 note=68 velocity=100 time=360
Time=76560 Track=5 note_on channel=4 note=72 velocity=100 time=0
Time=76560 Track=5 note_on channel=4 note=75 velocity=100 time=0
Time=76560 Track=9 note_on channel=7 note=68 velocity=100 time=43
Time=76560 Track=10 note_on channel=9 note=40 velocity=100 time=90
Time=76560 Track=10 note_on channel=9 note=37 velocity=127 time=0
Time=76560 Track=10 note_on channel=9 note=42 velocity=100 time=0
Time=76620 Track=10 note_off channel=9 note=40 velocity=0 time=60
Time=76620 Track=10 note_off channel=9 note=37 velocity=0 time=0
Time=76620 Track=10 note_off channel=9 note=42 velocity=0 time=0
Time=76680 Track=2 note_off channel=1 note=39 velocity=64 time=120
Time=76680 Track=4 note_off channel=3 note=68 velocity=0 time=120
Time=76680 Track=4 note_off channel=3 note=72 velocity=0 time=0
Time=76680 Track=4 note_off channel=3 note=75 velocity=0 time=0
Time=76680 Track=5 note_off channel=4 note=68 velocity=0 time=120
Time=76680 Track=5 note_off channel=4 note=72 velocity=0 time=0
Time=76680 Track=5 note_off channel=4 note=75 velocity=0 time=0
Time=76680 Track=9 note_off channel=7 note=68 velocity=0 time=119
Time=76800 Track=2 note_on channel=1 note=27 velocity=100 time=120
Time=76800 Track=7 note_off channel=6 note=75 velocity=0 time=960
Time=76800 Track=7 note_on channel=6 note=70 velocity=68 time=0
Time=76800 Track=9 note_on channel=7 note=66 velocity=100 time=120
Time=76800 Track=10 note_on channel=9 note=36 velocity=127 time=180
Time=76800 Track=10 note_on channel=9 note=41 velocity=127 time=0
Time=76800 Track=10 note_on channel=9 note=42 velocity=100 time=0
Time=76860 Track=10 note_off channel=9 note=36 velocity=0 time=60
Time=76860 Track=10 note_off channel=9 note=41 velocity=0 time=0
Time=76860 Track=10 note_off channel=9 note=42 velocity=0 time=0
Time=76980 Track=9 note_off channel=7 note=66 velocity=0 time=180
Time=77040 Track=2 note_off channel=1 note=27 velocity=64 time=240
Time=77040 Track=4 note_on channel=3 note=63 velocity=100 time=360
Time=77040 Track=4 note_on channel=3 note=66 velocity=100 time=0
Time=77040 Track=4 note_on channel=3 note=70 velocity=100 time=0
Time=77040 Track=5 note_on channel=4 note=63 velocity=100 time=360
Time=77040 Track=5 note_on channel=4 note=66 velocity=100 time=0
Time=77040 Track=5 note_on channel=4 note=70 velocity=100 time=0
Time=77040 Track=10 note_on channel=9 note=54 velocity=100 time=180
Time=77070 Track=10 note_off channel=9 note=54 velocity=64 time=30
Time=77160 Track=2 note_on channel=1 note=30 velocity=100 time=120
Time=77160 Track=4 note_off channel=3 note=63 velocity=0 time=120
Time=77160 Track=4 note_off channel=3 note=66 velocity=0 time=0
Time=77160 Track=4 note_off channel=3 note=70 velocity=0 time=0
Time=77160 Track=5 note_off channel=4 note=63 velocity=0 time=120
Time=77160 Track=5 note_off channel=4 note=66 velocity=0 time=0
Time=77160 Track=5 note_off channel=4 note=70 velocity=0 time=0
Time=77160 Track=9 note_on channel=7 note=66 velocity=100 time=180
Time=77160 Track=10 note_on channel=9 note=40 velocity=100 time=90
Time=77160 Track=10 note_on channel=9 note=37 velocity=127 time=0
Time=77160 Track=10 note_on channel=9 note=42 velocity=100 time=0
Time=77220 Track=10 note_off channel=9 note=40 velocity=0 time=60
Time=77220 Track=10 note_off channel=9 note=37 velocity=0 time=0
Time=77220 Track=10 note_off channel=9 note=42 velocity=0 time=0
Time=77280 Track=2 note_off channel=1 note=30 velocity=64 time=120
Time=77280 Track=2 note_on channel=1 note=34 velocity=100 time=0
Time=77280 Track=9 note_off channel=7 note=66 velocity=0 time=120
Time=77280 Track=10 note_on channel=9 note=36 velocity=127 time=60
Time=77280 Track=10 note_on channel=9 note=42 velocity=100 time=0
Time=77340 Track=10 note_off channel=9 note=36 velocity=0 time=60
Time=77340 Track=10 note_off channel=9 note=42 velocity=0 time=0
Time=77400 Track=2 note_off channel=1 note=34 velocity=64 time=120
Time=77400 Track=10 note_on channel=9 note=54 velocity=100 time=60
Time=77430 Track=10 note_off channel=9 note=54 velocity=64 time=30
Time=77520 Track=2 note_on channel=1 note=34 velocity=100 time=120
Time=77520 Track=4 note_on channel=3 note=63 velocity=100 time=360
Time=77520 Track=4 note_on channel=3 note=66 velocity=100 time=0
Time=77520 Track=4 note_on channel=3 note=70 velocity=100 time=0
Time=77520 Track=5 note_on channel=4 note=63 velocity=100 time=360
Time=77520 Track=5 note_on channel=4 note=66 velocity=100 time=0
Time=77520 Track=5 note_on channel=4 note=70 velocity=100 time=0
Time=77520 Track=9 note_on channel=7 note=66 velocity=100 time=240
Time=77520 Track=10 note_on channel=9 note=40 velocity=100 time=90
Time=77520 Track=10 note_on channel=9 note=37 velocity=127 time=0
Time=77520 Track=10 note_on channel=9 note=42 velocity=100 time=0
Time=77580 Track=10 note_off channel=9 note=40 velocity=0 time=60
Time=77580 Track=10 note_off channel=9 note=37 velocity=0 time=0
Time=77580 Track=10 note_off channel=9 note=42 velocity=0 time=0
Time=77609 Track=9 note_off channel=7 note=66 velocity=0 time=89
Time=77640 Track=2 note_off channel=1 note=34 velocity=64 time=120
Time=77640 Track=4 note_off channel=3 note=63 velocity=0 time=120
Time=77640 Track=4 note_off channel=3 note=66 velocity=0 time=0
Time=77640 Track=4 note_off channel=3 note=70 velocity=0 time=0
Time=77640 Track=5 note_off channel=4 note=63 velocity=0 time=120
Time=77640 Track=5 note_off channel=4 note=66 velocity=0 time=0
Time=77640 Track=5 note_off channel=4 note=70 velocity=0 time=0
Time=77760 Track=2 note_on channel=1 note=27 velocity=100 time=120
Time=77760 Track=9 note_on channel=7 note=66 velocity=100 time=151
Time=77760 Track=10 note_on channel=9 note=36 velocity=127 time=180
Time=77760 Track=10 note_on channel=9 note=41 velocity=127 time=0
Time=77760 Track=10 note_on channel=9 note=42 velocity=100 time=0
Time=77820 Track=10 note_off channel=9 note=36 velocity=0 time=60
Time=77820 Track=10 note_off channel=9 note=41 velocity=0 time=0
Time=77820 Track=10 note_off channel=9 note=42 velocity=0 time=0
Time=77842 Track=9 note_off channel=7 note=66 velocity=0 time=82
Time=77880 Track=9 note_on channel=7 note=70 velocity=100 time=38
Time=78000 Track=2 note_off channel=1 note=27 velocity=64 time=240
Time=78000 Track=9 note_off channel=7 note=70 velocity=0 time=120
Time=78000 Track=9 note_on channel=7 note=75 velocity=100 time=0
Time=78000 Track=10 note_on channel=9 note=54 velocity=100 time=180
Time=78030 Track=10 note_off channel=9 note=54 velocity=64 time=30
Time=78104 Track=9 note_off channel=7 note=75 velocity=0 time=104
Time=78120 Track=2 note_on channel=1 note=27 velocity=100 time=120
Time=78120 Track=9 note_on channel=7 note=77 velocity=100 time=16
Time=78120 Track=10 note_on channel=9 note=37 velocity=127 time=90
Time=78120 Track=10 note_on channel=9 note=40 velocity=100 time=0
Time=78120 Track=10 note_on channel=9 note=42 velocity=100 time=0
Time=78180 Track=10 note_off channel=9 note=37 velocity=0 time=60
Time=78180 Track=10 note_off channel=9 note=40 velocity=0 time=0
Time=78180 Track=10 note_off channel=9 note=42 velocity=0 time=0
Time=78193 Track=9 note_off channel=7 note=77 velocity=0 time=73
Time=78240 Track=2 note_off channel=1 note=27 velocity=64 time=120
Time=78240 Track=2 note_on channel=1 note=37 velocity=100 time=0
Time=78240 Track=7 note_off channel=6 note=70 velocity=0 time=1440
Time=78240 Track=9 note_on channel=7 note=78 velocity=100 time=47
Time=78240 Track=10 note_on channel=9 note=36 velocity=127 time=60
Time=78240 Track=10 note_on channel=9 note=42 velocity=100 time=0
Time=78300 Track=10 note_off channel=9 note=36 velocity=0 time=60
Time=78300 Track=10 note_off channel=9 note=42 velocity=0 time=0
Time=78352 Track=9 note_off channel=7 note=78 velocity=0 time=112
Time=78360 Track=2 note_off channel=1 note=37 velocity=64 time=120
Time=78360 Track=9 note_on channel=7 note=80 velocity=100 time=8
Time=78360 Track=10 note_on channel=9 note=54 velocity=100 time=60
Time=78390 Track=10 note_off channel=9 note=54 velocity=64 time=30
Time=78480 Track=2 note_on channel=1 note=37 velocity=100 time=120
Time=78480 Track=9 note_off channel=7 note=80 velocity=0 time=120
Time=78480 Track=9 note_on channel=7 note=77 velocity=100 time=0
Time=78480 Track=10 note_on channel=9 note=37 velocity=127 time=90
Time=78480 Track=10 note_on channel=9 note=40 velocity=100 time=0
Time=78480 Track=10 note_on channel=9 note=42 velocity=100 time=0
Time=78540 Track=9 note_off channel=7 note=77 velocity=0 time=60
Time=78540 Track=10 note_off channel=9 note=37 velocity=0 time=60
Time=78540 Track=10 note_off channel=9 note=40 velocity=0 time=0
Time=78540 Track=10 note_off channel=9 note=42 velocity=0 time=0
Time=78600 Track=2 note_off channel=1 note=37 velocity=64 time=120
Time=78720 Track=2 note_on channel=1 note=34 velocity=100 time=120
Time=78720 Track=10 note_on channel=9 note=36 velocity=127 time=180
Time=78720 Track=10 note_on channel=9 note=41 velocity=127 time=0
Time=78720 Track=10 note_on channel=9 note=42 velocity=100 time=0
Time=78780 Track=10 note_off channel=9 note=42 velocity=0 time=60
Time=78781 Track=10 note_off channel=9 note=36 velocity=0 time=1
Time=78781 Track=10 note_off channel=9 note=41 velocity=0 time=0
Time=78960 Track=2 note_off channel=1 note=34 velocity=64 time=240
Time=78960 Track=4 note_on channel=3 note=70 velocity=100 time=1320
Time=78960 Track=4 note_on channel=3 note=73 velocity=100 time=0
Time=78960 Track=4 note_on channel=3 note=77 velocity=100 time=0
Time=78960 Track=5 note_on channel=4 note=58 velocity=100 time=1320
Time=78960 Track=5 note_on channel=4 note=61 velocity=100 time=0
Time=78960 Track=5 note_on channel=4 note=65 velocity=100 time=0
Time=78960 Track=8 note_on channel=8 note=61 velocity=95 time=32100
Time=78961 Track=10 note_on channel=9 note=40 velocity=60 time=82
Time=79020 Track=8 note_off channel=8 note=61 velocity=0 time=60
Time=79021 Track=10 note_off channel=9 note=40 velocity=0 time=60
Time=79080 Track=2 note_on channel=1 note=34 velocity=100 time=120
Time=79080 Track=4 note_off channel=3 note=70 velocity=0 time=120
Time=79080 Track=4 note_off channel=3 note=73 velocity=0 time=0
Time=79080 Track=4 note_off channel=3 note=77 velocity=0 time=0
Time=79080 Track=5 note_off channel=4 note=58 velocity=0 time=120
Time=79080 Track=5 note_off channel=4 note=61 velocity=0 time=0
Time=79080 Track=5 note_off channel=4 note=65 velocity=0 time=0
Time=79080 Track=10 note_on channel=9 note=40 velocity=120 time=59
Time=79080 Track=10 note_on channel=9 note=42 velocity=100 time=0
Time=79140 Track=10 note_off channel=9 note=40 velocity=0 time=60
Time=79140 Track=10 note_off channel=9 note=42 velocity=0 time=0
Time=79200 Track=2 note_off channel=1 note=34 velocity=64 time=120
Time=79200 Track=2 note_on channel=1 note=41 velocity=100 time=0
Time=79200 Track=4 note_on channel=3 note=70 velocity=100 time=120
Time=79200 Track=4 note_on channel=3 note=73 velocity=100 time=0
Time=79200 Track=4 note_on channel=3 note=77 velocity=100 time=0
Time=79200 Track=8 note_on channel=8 note=73 velocity=85 time=180
Time=79200 Track=9 note_on channel=7 note=82 velocity=119 time=25
Time=79200 Track=10 note_on channel=9 note=36 velocity=127 time=60
Time=79200 Track=10 note_on channel=9 note=42 velocity=100 time=0
Time=79260 Track=8 note_off channel=8 note=73 velocity=0 time=60
Time=79260 Track=10 note_off channel=9 note=36 velocity=0 time=31
Time=79262 Track=10 note_off channel=9 note=42 velocity=0 time=2
Time=79311 Track=9 note_off channel=7 note=82 velocity=0 time=40
Time=79320 Track=2 note_off channel=1 note=41 velocity=64 time=120
Time=79320 Track=2 note_on channel=1 note=41 velocity=100 time=0
Time=79320 Track=4 note_off channel=3 note=70 velocity=0 time=120
Time=79320 Track=4 note_off channel=3 note=73 velocity=0 time=0
Time=79320 Track=4 note_off channel=3 note=77 velocity=0 time=0
Time=79320 Track=8 note_on channel=8 note=68 velocity=88 time=60
Time=79380 Track=8 note_off channel=8 note=68 velocity=0 time=60
Time=79440 Track=2 note_off channel=1 note=41 velocity=64 time=120
Time=79440 Track=2 note_on channel=1 note=41 velocity=100 time=0
Time=79440 Track=4 note_on channel=3 note=70 velocity=100 time=120
Time=79440 Track=4 note_on channel=3 note=73 velocity=100 time=0
Time=79440 Track=4 note_on channel=3 note=77 velocity=100 time=0
Time=79440 Track=5 note_on channel=4 note=58 velocity=100 time=360
Time=79440 Track=5 note_on channel=4 note=61 velocity=100 time=0
Time=79440 Track=5 note_on channel=4 note=65 velocity=100 time=0
Time=79440 Track=8 note_on channel=8 note=65 velocity=96 time=60
Time=79440 Track=10 note_on channel=9 note=40 velocity=120 time=178
Time=79440 Track=10 note_on channel=9 note=42 velocity=100 time=0
Time=79500 Track=8 note_off channel=8 note=65 velocity=0 time=60
Time=79500 Track=10 note_off channel=9 note=40 velocity=0 time=60
Time=79500 Track=10 note_off channel=9 note=42 velocity=0 time=0
Time=79560 Track=2 note_off channel=1 note=41 velocity=64 time=120
Time=79560 Track=4 note_off channel=3 note=70 velocity=0 time=120
Time=79560 Track=4 note_off channel=3 note=73 velocity=0 time=0
Time=79560 Track=4 note_off channel=3 note=77 velocity=0 time=0
Time=79560 Track=5 note_off channel=4 note=58 velocity=0 time=120
Time=79560 Track=5 note_off channel=4 note=61 velocity=0 time=0
Time=79560 Track=5 note_off channel=4 note=65 velocity=0 time=0
Time=79560 Track=8 note_on channel=8 note=63 velocity=104 time=60
Time=79612 Track=8 note_off channel=8 note=63 velocity=0 time=52
Time=79680 Track=2 note_on channel=1 note=32 velocity=100 time=120
Time=79680 Track=10 note_on channel=9 note=36 velocity=127 time=180
Time=79680 Track=10 note_on channel=9 note=41 velocity=127 time=0
Time=79680 Track=10 note_on channel=9 note=42 velocity=100 time=0
Time=79740 Track=10 note_off channel=9 note=36 velocity=0 time=60
Time=79740 Track=10 note_off channel=9 note=41 velocity=0 time=0
Time=79740 Track=10 note_off channel=9 note=42 velocity=0 time=0
Time=79800 Track=2 note_off channel=1 note=32 velocity=64 time=120
Time=79920 Track=4 note_on channel=3 note=68 velocity=100 time=360
Time=79920 Track=4 note_on channel=3 note=72 velocity=100 time=0
Time=79920 Track=4 note_on channel=3 note=75 velocity=100 time=0
Time=79920 Track=5 note_on channel=4 note=56 velocity=100 time=360
Time=79920 Track=5 note_on channel=4 note=60 velocity=100 time=0
Time=79920 Track=5 note_on channel=4 note=63 velocity=100 time=0
Time=79920 Track=10 note_on channel=9 note=40 velocity=60 time=180
Time=79980 Track=10 note_off channel=9 note=40 velocity=0 time=60
Time=80040 Track=2 note_on channel=1 note=32 velocity=100 time=240
Time=80040 Track=4 note_off channel=3 note=68 velocity=0 time=120
Time=80040 Track=4 note_off channel=3 note=72 velocity=0 time=0
Time=80040 Track=4 note_off channel=3 note=75 velocity=0 time=0
Time=80040 Track=5 note_off channel=4 note=56 velocity=0 time=120
Time=80040 Track=5 note_off channel=4 note=60 velocity=0 time=0
Time=80040 Track=5 note_off channel=4 note=63 velocity=0 time=0
Time=80040 Track=10 note_on channel=9 note=40 velocity=120 time=60
Time=80040 Track=10 note_on channel=9 note=42 velocity=100 time=0
Time=80100 Track=10 note_off channel=9 note=40 velocity=0 time=60
Time=80100 Track=10 note_off channel=9 note=42 velocity=0 time=0
Time=80160 Track=2 note_off channel=1 note=32 velocity=64 time=120
Time=80160 Track=2 note_on channel=1 note=39 velocity=100 time=0
Time=80160 Track=4 note_on channel=3 note=68 velocity=100 time=120
Time=80160 Track=4 note_on channel=3 note=72 velocity=100 time=0
Time=80160 Track=4 note_on channel=3 note=75 velocity=100 time=0
Time=80160 Track=9 note_on channel=7 note=80 velocity=110 time=686
Time=80160 Track=10 note_on channel=9 note=36 velocity=127 time=60
Time=80160 Track=10 note_on channel=9 note=42 velocity=100 time=0
Time=80220 Track=10 note_off channel=9 note=36 velocity=0 time=60
Time=80220 Track=10 note_off channel=9 note=42 velocity=0 time=0
Time=80273 Track=9 note_off channel=7 note=80 velocity=0 time=113
Time=80280 Track=2 note_off channel=1 note=39 velocity=64 time=120
Time=80280 Track=2 note_on channel=1 note=39 velocity=100 time=0
Time=80280 Track=4 note_off channel=3 note=68 velocity=0 time=120
Time=80280 Track=4 note_off channel=3 note=72 velocity=0 time=0
Time=80280 Track=4 note_off channel=3 note=75 velocity=0 time=0
Time=80280 Track=8 note_on channel=8 note=72 velocity=70 time=668
Time=80340 Track=8 note_off channel=8 note=72 velocity=0 time=60
Time=80400 Track=2 note_off channel=1 note=39 velocity=64 time=120
Time=80400 Track=2 note_on channel=1 note=39 velocity=100 time=0
Time=80400 Track=4 note_on channel=3 note=68 velocity=100 time=120
Time=80400 Track=4 note_on channel=3 note=72 velocity=100 time=0
Time=80400 Track=4 note_on channel=3 note=75 velocity=100 time=0
Time=80400 Track=5 note_on channel=4 note=56 velocity=100 time=360
Time=80400 Track=5 note_on channel=4 note=60 velocity=100 time=0
Time=80400 Track=5 note_on channel=4 note=63 velocity=100 time=0
Time=80400 Track=8 note_on channel=8 note=68 velocity=81 time=60
Time=80400 Track=10 note_on channel=9 note=40 velocity=120 time=180
Time=80400 Track=10 note_on channel=9 note=42 velocity=100 time=0
Time=80458 Track=8 note_off channel=8 note=68 velocity=0 time=58
Time=80460 Track=10 note_off channel=9 note=40 velocity=0 time=60
Time=80460 Track=10 note_off channel=9 note=42 velocity=0 time=0
Time=80520 Track=2 note_off channel=1 note=39 velocity=64 time=120
Time=80520 Track=4 note_off channel=3 note=68 velocity=0 time=120
Time=80520 Track=4 note_off channel=3 note=72 velocity=0 time=0
Time=80520 Track=4 note_off channel=3 note=75 velocity=0 time=0
Time=80520 Track=5 note_off channel=4 note=56 velocity=0 time=120
Time=80520 Track=5 note_off channel=4 note=60 velocity=0 time=0
Time=80520 Track=5 note_off channel=4 note=63 velocity=0 time=0
Time=80520 Track=8 note_on channel=8 note=63 velocity=76 time=62
Time=80578 Track=8 note_off channel=8 note=63 velocity=0 time=58
Time=80640 Track=2 note_on channel=1 note=27 velocity=100 time=120
Time=80640 Track=9 note_on channel=7 note=78 velocity=110 time=367
Time=80640 Track=10 note_on channel=9 note=36 velocity=127 time=180
Time=80640 Track=10 note_on channel=9 note=41 velocity=127 time=0
Time=80640 Track=10 note_on channel=9 note=42 velocity=100 time=0
Time=80700 Track=10 note_off channel=9 note=36 velocity=0 time=60
Time=80700 Track=10 note_off channel=9 note=41 velocity=0 time=0
Time=80700 Track=10 note_off channel=9 note=42 velocity=0 time=0
Time=80722 Track=9 note_off channel=7 note=78 velocity=0 time=82
Time=80760 Track=2 note_off channel=1 note=27 velocity=64 time=120
Time=80880 Track=4 note_on channel=3 note=63 velocity=100 time=360
Time=80880 Track=4 note_on channel=3 note=66 velocity=100 time=0
Time=80880 Track=4 note_on channel=3 note=70 velocity=100 time=0
Time=80880 Track=5 note_on channel=4 note=51 velocity=100 time=360
Time=80880 Track=5 note_on channel=4 note=54 velocity=100 time=0
Time=80880 Track=5 note_on channel=4 note=58 velocity=100 time=0
Time=80880 Track=8 note_on channel=8 note=58 velocity=51 time=302
Time=80880 Track=9 note_on channel=7 note=75 velocity=100 time=158
Time=80880 Track=10 note_on channel=9 note=40 velocity=60 time=180
Time=80940 Track=10 note_off channel=9 note=40 velocity=0 time=60
Time=80947 Track=8 note_off channel=8 note=58 velocity=0 time=67
Time=81000 Track=2 note_on channel=1 note=27 velocity=100 time=240
Time=81000 Track=4 note_off channel=3 note=63 velocity=0 time=120
Time=81000 Track=4 note_off channel=3 note=66 velocity=0 time=0
Time=81000 Track=4 note_off channel=3 note=70 velocity=0 time=0
Time=81000 Track=5 note_off channel=4 note=51 velocity=0 time=120
Time=81000 Track=5 note_off channel=4 note=54 velocity=0 time=0
Time=81000 Track=5 note_off channel=4 note=58 velocity=0 time=0
Time=81000 Track=9 note_off channel=7 note=75 velocity=0 time=120
Time=81000 Track=10 note_on channel=9 note=40 velocity=120 time=60
Time=81000 Track=10 note_on channel=9 note=42 velocity=100 time=0
Time=81059 Track=10 note_off channel=9 note=40 velocity=0 time=59
Time=81060 Track=10 note_off channel=9 note=42 velocity=0 time=1
Time=81120 Track=2 note_off channel=1 note=27 velocity=64 time=120
Time=81120 Track=2 note_on channel=1 note=34 velocity=100 time=0
Time=81120 Track=4 note_on channel=3 note=63 velocity=100 time=120
Time=81120 Track=4 note_on channel=3 note=66 velocity=100 time=0
Time=81120 Track=4 note_on channel=3 note=70 velocity=100 time=0
Time=81120 Track=9 note_on channel=7 note=70 velocity=108 time=120
Time=81120 Track=10 note_on channel=9 note=36 velocity=127 time=60
Time=81120 Track=10 note_on channel=9 note=42 velocity=100 time=0
Time=81180 Track=10 note_off channel=9 note=36 velocity=0 time=60
Time=81180 Track=10 note_off channel=9 note=42 velocity=0 time=0
Time=81240 Track=2 note_off channel=1 note=34 velocity=64 time=120
Time=81240 Track=2 note_on channel=1 note=34 velocity=100 time=0
Time=81240 Track=4 note_off channel=3 note=63 velocity=0 time=120
Time=81240 Track=4 note_off channel=3 note=66 velocity=0 time=0
Time=81240 Track=4 note_off channel=3 note=70 velocity=0 time=0
Time=81240 Track=9 note_off channel=7 note=70 velocity=0 time=120
Time=81360 Track=2 note_off channel=1 note=34 velocity=64 time=120
Time=81360 Track=2 note_on channel=1 note=34 velocity=100 time=0
Time=81360 Track=4 note_on channel=3 note=63 velocity=100 time=120
Time=81360 Track=4 note_on channel=3 note=66 velocity=100 time=0
Time=81360 Track=4 note_on channel=3 note=70 velocity=100 time=0
Time=81360 Track=5 note_on channel=4 note=51 velocity=100 time=360
Time=81360 Track=5 note_on channel=4 note=54 velocity=100 time=0
Time=81360 Track=5 note_on channel=4 note=58 velocity=100 time=0
Time=81360 Track=8 note_on channel=8 note=58 velocity=73 time=413
Time=81360 Track=10 note_on channel=9 note=40 velocity=120 time=180
Time=81360 Track=10 note_on channel=9 note=42 velocity=100 time=0
Time=81419 Track=10 note_off channel=9 note=40 velocity=0 time=59
Time=81420 Track=8 note_off channel=8 note=58 velocity=0 time=60
Time=81420 Track=10 note_off channel=9 note=42 velocity=0 time=1
Time=81480 Track=2 note_off channel=1 note=34 velocity=64 time=120
Time=81480 Track=4 note_off channel=3 note=63 velocity=0 time=120
Time=81480 Track=4 note_off channel=3 note=66 velocity=0 time=0
Time=81480 Track=4 note_off channel=3 note=70 velocity=0 time=0
Time=81480 Track=5 note_off channel=4 note=51 velocity=0 time=120
Time=81480 Track=5 note_off channel=4 note=54 velocity=0 time=0
Time=81480 Track=5 note_off channel=4 note=58 velocity=0 time=0
Time=81600 Track=2 note_on channel=1 note=27 velocity=100 time=120
Time=81600 Track=9 note_on channel=7 note=66 velocity=100 time=360
Time=81600 Track=10 note_on channel=9 note=36 velocity=127 time=180
Time=81600 Track=10 note_on channel=9 note=41 velocity=127 time=0
Time=81600 Track=10 note_on channel=9 note=42 velocity=100 time=0
Time=81660 Track=10 note_off channel=9 note=36 velocity=0 time=60
Time=81660 Track=10 note_off channel=9 note=41 velocity=0 time=0
Time=81660 Track=10 note_off channel=9 note=42 velocity=0 time=0
Time=81720 Track=2 note_off channel=1 note=27 velocity=64 time=120
Time=81720 Track=9 note_off channel=7 note=66 velocity=0 time=11
Time=81720 Track=9 note_on channel=7 note=70 velocity=100 time=0
Time=81840 Track=4 note_on channel=3 note=63 velocity=100 time=360
Time=81840 Track=4 note_on channel=3 note=66 velocity=100 time=0
Time=81840 Track=4 note_on channel=3 note=70 velocity=100 time=0
Time=81840 Track=5 note_on channel=4 note=51 velocity=100 time=360
Time=81840 Track=5 note_on channel=4 note=54 velocity=100 time=0
Time=81840 Track=5 note_on channel=4 note=58 velocity=100 time=0
Time=81840 Track=9 note_off channel=7 note=70 velocity=0 time=120
Time=81840 Track=9 note_on channel=7 note=75 velocity=100 time=0
Time=81840 Track=10 note_on channel=9 note=40 velocity=60 time=180
Time=81900 Track=10 note_off channel=9 note=40 velocity=0 time=60
Time=81960 Track=4 note_off channel=3 note=63 velocity=0 time=120
Time=81960 Track=4 note_off channel=3 note=66 velocity=0 time=0
Time=81960 Track=4 note_off channel=3 note=70 velocity=0 time=0
Time=81960 Track=5 note_off channel=4 note=51 velocity=0 time=120
Time=81960 Track=5 note_off channel=4 note=54 velocity=0 time=0
Time=81960 Track=5 note_off channel=4 note=58 velocity=0 time=0
Time=81960 Track=9 note_off channel=7 note=75 velocity=0 time=19
Time=81960 Track=9 note_on channel=7 note=77 velocity=100 time=0
Time=81960 Track=10 note_on channel=9 note=40 velocity=120 time=60
Time=81960 Track=10 note_on channel=9 note=42 velocity=100 time=0
Time=82020 Track=10 note_off channel=9 note=40 velocity=0 time=60
Time=82020 Track=10 note_off channel=9 note=42 velocity=0 time=0
Time=82033 Track=9 note_off channel=7 note=77 velocity=0 time=27
Time=82080 Track=2 note_on channel=1 note=37 velocity=100 time=360
Time=82080 Track=4 note_on channel=3 note=63 velocity=100 time=120
Time=82080 Track=4 note_on channel=3 note=66 velocity=100 time=0
Time=82080 Track=4 note_on channel=3 note=70 velocity=100 time=0
Time=82080 Track=9 note_on channel=7 note=78 velocity=100 time=43
Time=82080 Track=10 note_on channel=9 note=36 velocity=127 time=60
Time=82080 Track=10 note_on channel=9 note=42 velocity=100 time=0
Time=82140 Track=10 note_off channel=9 note=36 velocity=0 time=60
Time=82140 Track=10 note_off channel=9 note=42 velocity=0 time=0
Time=82192 Track=9 note_off channel=7 note=78 velocity=0 time=28
Time=82200 Track=2 note_off channel=1 note=37 velocity=64 time=120
Time=82200 Track=2 note_on channel=1 note=37 velocity=100 time=0
Time=82200 Track=4 note_off channel=3 note=63 velocity=0 time=120
Time=82200 Track=4 note_off channel=3 note=66 velocity=0 time=0
Time=82200 Track=4 note_off channel=3 note=70 velocity=0 time=0
Time=82200 Track=9 note_on channel=7 note=77 velocity=100 time=8
Time=82288 Track=9 note_off channel=7 note=77 velocity=0 time=42
Time=82320 Track=2 note_off channel=1 note=37 velocity=64 time=120
Time=82320 Track=2 note_on channel=1 note=37 velocity=100 time=0
Time=82320 Track=4 note_on channel=3 note=63 velocity=100 time=120
Time=82320 Track=4 note_on channel=3 note=66 velocity=100 time=0
Time=82320 Track=4 note_on channel=3 note=70 velocity=100 time=0
Time=82320 Track=5 note_on channel=4 note=51 velocity=100 time=360
Time=82320 Track=5 note_on channel=4 note=54 velocity=100 time=0
Time=82320 Track=5 note_on channel=4 note=58 velocity=100 time=0
Time=82320 Track=10 note_on channel=9 note=40 velocity=120 time=180
Time=82320 Track=10 note_on channel=9 note=42 velocity=100 time=0
Time=82380 Track=10 note_off channel=9 note=40 velocity=0 time=16
Time=82380 Track=10 note_off channel=9 note=42 velocity=0 time=0
Time=82440 Track=2 note_off channel=1 note=37 velocity=64 time=120
Time=82440 Track=4 note_off channel=3 note=63 velocity=0 time=120
Time=82440 Track=4 note_off channel=3 note=66 velocity=0 time=0
Time=82440 Track=4 note_off channel=3 note=70 velocity=0 time=0
Time=82440 Track=5 note_off channel=4 note=51 velocity=0 time=120
Time=82440 Track=5 note_off channel=4 note=54 velocity=0 time=0
Time=82440 Track=5 note_off channel=4 note=58 velocity=0 time=0
Time=82560 Track=2 note_on channel=1 note=34 velocity=100 time=120
Time=82560 Track=10 note_on channel=9 note=36 velocity=127 time=180
Time=82560 Track=10 note_on channel=9 note=41 velocity=127 time=0
Time=82560 Track=10 note_on channel=9 note=42 velocity=100 time=0
Time=82620 Track=10 note_off channel=9 note=36 velocity=0 time=60
Time=82620 Track=10 note_off channel=9 note=41 velocity=0 time=0
Time=82620 Track=10 note_off channel=9 note=42 velocity=0 time=0
Time=82800 Track=2 note_off channel=1 note=34 velocity=64 time=240
Time=82800 Track=4 note_on channel=3 note=70 velocity=100 time=360
Time=82800 Track=4 note_on channel=3 note=73 velocity=100 time=0
Time=82800 Track=4 note_on channel=3 note=77 velocity=100 time=0
Time=82800 Track=5 note_on channel=4 note=58 velocity=100 time=360
Time=82800 Track=5 note_on channel=4 note=61 velocity=100 time=0
Time=82800 Track=5 note_on channel=4 note=65 velocity=100 time=0
Time=82800 Track=8 note_on channel=8 note=61 velocity=95 time=1380
Time=82800 Track=10 note_on channel=9 note=40 velocity=60 time=144
Time=82860 Track=8 note_off channel=8 note=61 velocity=0 time=60
Time=82860 Track=10 note_off channel=9 note=40 velocity=0 time=60
Time=82920 Track=2 note_on channel=1 note=34 velocity=100 time=120
Time=82920 Track=4 note_off channel=3 note=70 velocity=0 time=120
Time=82920 Track=4 note_off channel=3 note=73 velocity=0 time=0
Time=82920 Track=4 note_off channel=3 note=77 velocity=0 time=0
Time=82920 Track=5 note_off channel=4 note=58 velocity=0 time=120
Time=82920 Track=5 note_off channel=4 note=61 velocity=0 time=0
Time=82920 Track=5 note_off channel=4 note=65 velocity=0 time=0
Time=82920 Track=10 note_on channel=9 note=40 velocity=120 time=60
Time=82920 Track=10 note_on channel=9 note=42 velocity=100 time=0
Time=82980 Track=10 note_off channel=9 note=40 velocity=0 time=60
Time=82980 Track=10 note_off channel=9 note=42 velocity=0 time=0
Time=83040 Track=2 note_off channel=1 note=34 velocity=64 time=120
Time=83040 Track=2 note_on channel=1 note=41 velocity=100 time=0
Time=83040 Track=4 note_on channel=3 note=70 velocity=100 time=120
Time=83040 Track=4 note_on channel=3 note=73 velocity=100 time=0
Time=83040 Track=4 note_on channel=3 note=77 velocity=100 time=0
Time=83040 Track=8 note_on channel=8 note=73 velocity=85 time=180
Time=83040 Track=9 note_on channel=7 note=82 velocity=119 time=147
Time=83040 Track=10 note_on channel=9 note=36 velocity=127 time=60
Time=83040 Track=10 note_on channel=9 note=42 velocity=100 time=0
Time=83100 Track=8 note_off channel=8 note=73 velocity=0 time=60
Time=83100 Track=10 note_off channel=9 note=36 velocity=0 time=60
Time=83100 Track=10 note_off channel=9 note=42 velocity=0 time=0
Time=83151 Track=9 note_off channel=7 note=82 velocity=0 time=6
Time=83160 Track=2 note_off channel=1 note=41 velocity=64 time=120
Time=83160 Track=2 note_on channel=1 note=41 velocity=100 time=0
Time=83160 Track=4 note_off channel=3 note=70 velocity=0 time=120
Time=83160 Track=4 note_off channel=3 note=73 velocity=0 time=0
Time=83160 Track=4 note_off channel=3 note=77 velocity=0 time=0
Time=83160 Track=8 note_on channel=8 note=68 velocity=88 time=60
Time=83220 Track=8 note_off channel=8 note=68 velocity=0 time=60
Time=83280 Track=2 note_off channel=1 note=41 velocity=64 time=120
Time=83280 Track=2 note_on channel=1 note=41 velocity=100 time=0
Time=83280 Track=4 note_on channel=3 note=70 velocity=100 time=120
Time=83280 Track=4 note_on channel=3 note=73 velocity=100 time=0
Time=83280 Track=4 note_on channel=3 note=77 velocity=100 time=0
Time=83280 Track=5 note_on channel=4 note=58 velocity=100 time=360
Time=83280 Track=5 note_on channel=4 note=61 velocity=100 time=0
Time=83280 Track=5 note_on channel=4 note=65 velocity=100 time=0
Time=83280 Track=8 note_on channel=8 note=65 velocity=96 time=60
Time=83280 Track=10 note_on channel=9 note=40 velocity=120 time=180
Time=83280 Track=10 note_on channel=9 note=42 velocity=100 time=0
Time=83340 Track=8 note_off channel=8 note=65 velocity=0 time=60
Time=83340 Track=10 note_off channel=9 note=40 velocity=0 time=60
Time=83340 Track=10 note_off channel=9 note=42 velocity=0 time=0
Time=83400 Track=2 note_off channel=1 note=41 velocity=64 time=120
Time=83400 Track=4 note_off channel=3 note=70 velocity=0 time=120
Time=83400 Track=4 note_off channel=3 note=73 velocity=0 time=0
Time=83400 Track=4 note_off channel=3 note=77 velocity=0 time=0
Time=83400 Track=5 note_off channel=4 note=58 velocity=0 time=120
Time=83400 Track=5 note_off channel=4 note=61 velocity=0 time=0
Time=83400 Track=5 note_off channel=4 note=65 velocity=0 time=0
Time=83400 Track=8 note_on channel=8 note=63 velocity=104 time=60
Time=83452 Track=8 note_off channel=8 note=63 velocity=0 time=52
Time=83520 Track=2 note_on channel=1 note=44 velocity=100 time=120
Time=83520 Track=10 note_on channel=9 note=36 velocity=127 time=180
Time=83520 Track=10 note_on channel=9 note=41 velocity=127 time=0
Time=83520 Track=10 note_on channel=9 note=42 velocity=100 time=0
Time=83577 Track=10 note_off channel=9 note=42 velocity=0 time=57
Time=83580 Track=10 note_off channel=9 note=36 velocity=0 time=3
Time=83580 Track=10 note_off channel=9 note=41 velocity=0 time=0
Time=83640 Track=2 note_off channel=1 note=44 velocity=64 time=120
Time=83760 Track=4 note_on channel=3 note=68 velocity=100 time=360
Time=83760 Track=4 note_on channel=3 note=72 velocity=100 time=0
Time=83760 Track=4 note_on channel=3 note=75 velocity=100 time=0
Time=83760 Track=5 note_on channel=4 note=56 velocity=100 time=360
Time=83760 Track=5 note_on channel=4 note=60 velocity=100 time=0
Time=83760 Track=5 note_on channel=4 note=63 velocity=100 time=0
Time=83760 Track=10 note_on channel=9 note=40 velocity=60 time=180
Time=83819 Track=10 note_off channel=9 note=40 velocity=0 time=59
Time=83880 Track=2 note_on channel=1 note=32 velocity=100 time=240
Time=83880 Track=4 note_off channel=3 note=68 velocity=0 time=120
Time=83880 Track=4 note_off channel=3 note=72 velocity=0 time=0
Time=83880 Track=4 note_off channel=3 note=75 velocity=0 time=0
Time=83880 Track=5 note_off channel=4 note=56 velocity=0 time=120
Time=83880 Track=5 note_off channel=4 note=60 velocity=0 time=0
Time=83880 Track=5 note_off channel=4 note=63 velocity=0 time=0
Time=83880 Track=10 note_on channel=9 note=40 velocity=120 time=61
Time=83880 Track=10 note_on channel=9 note=42 velocity=100 time=0
Time=83940 Track=10 note_off channel=9 note=40 velocity=0 time=60
Time=83940 Track=10 note_off channel=9 note=42 velocity=0 time=0
Time=84000 Track=2 note_off channel=1 note=32 velocity=64 time=120
Time=84000 Track=2 note_on channel=1 note=39 velocity=100 time=0
Time=84000 Track=4 note_on channel=3 note=68 velocity=100 time=120
Time=84000 Track=4 note_on channel=3 note=72 velocity=100 time=0
Time=84000 Track=4 note_on channel=3 note=75 velocity=100 time=0
Time=84000 Track=9 note_on channel=7 note=80 velocity=110 time=782
Time=84000 Track=10 note_on channel=9 note=36 velocity=127 time=60
Time=84000 Track=10 note_on channel=9 note=42 velocity=100 time=0
Time=84060 Track=10 note_off channel=9 note=36 velocity=0 time=60
Time=84061 Track=10 note_off channel=9 note=42 velocity=0 time=1
Time=84113 Track=9 note_off channel=7 note=80 velocity=0 time=113
Time=84120 Track=2 note_off channel=1 note=39 velocity=64 time=120
Time=84120 Track=2 note_on channel=1 note=39 velocity=100 time=0
Time=84120 Track=4 note_off channel=3 note=68 velocity=0 time=120
Time=84120 Track=4 note_off channel=3 note=72 velocity=0 time=0
Time=84120 Track=4 note_off channel=3 note=75 velocity=0 time=0
Time=84120 Track=8 note_on channel=8 note=72 velocity=70 time=668
Time=84180 Track=8 note_off channel=8 note=72 velocity=0 time=60
Time=84240 Track=2 note_off channel=1 note=39 velocity=64 time=120
Time=84240 Track=2 note_on channel=1 note=39 velocity=100 time=0
Time=84240 Track=4 note_on channel=3 note=68 velocity=100 time=120
Time=84240 Track=4 note_on channel=3 note=72 velocity=100 time=0
Time=84240 Track=4 note_on channel=3 note=75 velocity=100 time=0
Time=84240 Track=5 note_on channel=4 note=56 velocity=100 time=360
Time=84240 Track=5 note_on channel=4 note=60 velocity=100 time=0
Time=84240 Track=5 note_on channel=4 note=63 velocity=100 time=0
Time=84240 Track=8 note_on channel=8 note=68 velocity=81 time=60
Time=84240 Track=10 note_on channel=9 note=40 velocity=120 time=179
Time=84240 Track=10 note_on channel=9 note=42 velocity=100 time=0
Time=84298 Track=8 note_off channel=8 note=68 velocity=0 time=58
Time=84300 Track=10 note_off channel=9 note=40 velocity=0 time=60
Time=84300 Track=10 note_off channel=9 note=42 velocity=0 time=0
Time=84360 Track=2 note_off channel=1 note=39 velocity=64 time=120
Time=84360 Track=4 note_off channel=3 note=68 velocity=0 time=120
Time=84360 Track=4 note_off channel=3 note=72 velocity=0 time=0
Time=84360 Track=4 note_off channel=3 note=75 velocity=0 time=0
Time=84360 Track=5 note_off channel=4 note=56 velocity=0 time=120
Time=84360 Track=5 note_off channel=4 note=60 velocity=0 time=0
Time=84360 Track=5 note_off channel=4 note=63 velocity=0 time=0
Time=84360 Track=8 note_on channel=8 note=63 velocity=76 time=62
Time=84418 Track=8 note_off channel=8 note=63 velocity=0 time=58
Time=84480 Track=2 note_on channel=1 note=27 velocity=100 time=120
Time=84480 Track=9 note_on channel=7 note=78 velocity=110 time=239
Time=84480 Track=10 note_on channel=9 note=36 velocity=127 time=180
Time=84480 Track=10 note_on channel=9 note=41 velocity=127 time=0
Time=84480 Track=10 note_on channel=9 note=42 velocity=100 time=0
Time=84540 Track=10 note_off channel=9 note=36 velocity=0 time=60
Time=84540 Track=10 note_off channel=9 note=41 velocity=0 time=0
Time=84540 Track=10 note_off channel=9 note=42 velocity=0 time=0
Time=84562 Track=9 note_off channel=7 note=78 velocity=0 time=82
Time=84600 Track=2 note_off channel=1 note=27 velocity=64 time=120
Time=84720 Track=4 note_on channel=3 note=63 velocity=100 time=360
Time=84720 Track=4 note_on channel=3 note=66 velocity=100 time=0
Time=84720 Track=4 note_on channel=3 note=70 velocity=100 time=0
Time=84720 Track=5 note_on channel=4 note=51 velocity=100 time=360
Time=84720 Track=5 note_on channel=4 note=54 velocity=100 time=0
Time=84720 Track=5 note_on channel=4 note=58 velocity=100 time=0
Time=84720 Track=8 note_on channel=8 note=58 velocity=51 time=302
Time=84720 Track=9 note_on channel=7 note=75 velocity=100 time=158
Time=84720 Track=10 note_on channel=9 note=40 velocity=60 time=180
Time=84780 Track=10 note_off channel=9 note=40 velocity=0 time=60
Time=84787 Track=8 note_off channel=8 note=58 velocity=0 time=67
Time=84840 Track=4 note_off channel=3 note=63 velocity=0 time=120
Time=84840 Track=4 note_off channel=3 note=66 velocity=0 time=0
Time=84840 Track=4 note_off channel=3 note=70 velocity=0 time=0
Time=84840 Track=5 note_off channel=4 note=51 velocity=0 time=120
Time=84840 Track=5 note_off channel=4 note=54 velocity=0 time=0
Time=84840 Track=5 note_off channel=4 note=58 velocity=0 time=0
Time=84840 Track=9 note_off channel=7 note=75 velocity=0 time=120
Time=84840 Track=10 note_on channel=9 note=40 velocity=120 time=60
Time=84840 Track=10 note_on channel=9 note=42 velocity=100 time=0
Time=84900 Track=10 note_off channel=9 note=40 velocity=0 time=60
Time=84900 Track=10 note_off channel=9 note=42 velocity=0 time=0
Time=84960 Track=2 note_on channel=1 note=34 velocity=100 time=360
Time=84960 Track=4 note_on channel=3 note=63 velocity=100 time=120
Time=84960 Track=4 note_on channel=3 note=66 velocity=100 time=0
Time=84960 Track=4 note_on channel=3 note=70 velocity=100 time=0
Time=84960 Track=9 note_on channel=7 note=70 velocity=108 time=120
Time=84960 Track=10 note_on channel=9 note=36 velocity=127 time=60
Time=84960 Track=10 note_on channel=9 note=42 velocity=100 time=0
Time=85020 Track=10 note_off channel=9 note=36 velocity=0 time=60
Time=85020 Track=10 note_off channel=9 note=42 velocity=0 time=0
Time=85080 Track=2 note_off channel=1 note=34 velocity=64 time=120
Time=85080 Track=2 note_on channel=1 note=34 velocity=100 time=0
Time=85080 Track=4 note_off channel=3 note=63 velocity=0 time=120
Time=85080 Track=4 note_off channel=3 note=66 velocity=0 time=0
Time=85080 Track=4 note_off channel=3 note=70 velocity=0 time=0
Time=85080 Track=9 note_off channel=7 note=70 velocity=0 time=120
Time=85200 Track=2 note_off channel=1 note=34 velocity=64 time=120
Time=85200 Track=2 note_on channel=1 note=34 velocity=100 time=0
Time=85200 Track=4 note_on channel=3 note=63 velocity=100 time=120
Time=85200 Track=4 note_on channel=3 note=66 velocity=100 time=0
Time=85200 Track=4 note_on channel=3 note=70 velocity=100 time=0
Time=85200 Track=5 note_on channel=4 note=51 velocity=100 time=360
Time=85200 Track=5 note_on channel=4 note=54 velocity=100 time=0
Time=85200 Track=5 note_on channel=4 note=58 velocity=100 time=0
Time=85200 Track=8 note_on channel=8 note=58 velocity=73 time=413
Time=85200 Track=10 note_on channel=9 note=40 velocity=120 time=180
Time=85200 Track=10 note_on channel=9 note=42 velocity=100 time=0
Time=85260 Track=8 note_off channel=8 note=58 velocity=0 time=60
Time=85260 Track=10 note_off channel=9 note=40 velocity=0 time=60
Time=85260 Track=10 note_off channel=9 note=42 velocity=0 time=0
Time=85320 Track=2 note_off channel=1 note=34 velocity=64 time=120
Time=85320 Track=4 note_off channel=3 note=63 velocity=0 time=120
Time=85320 Track=4 note_off channel=3 note=66 velocity=0 time=0
Time=85320 Track=4 note_off channel=3 note=70 velocity=0 time=0
Time=85320 Track=5 note_off channel=4 note=51 velocity=0 time=120
Time=85320 Track=5 note_off channel=4 note=54 velocity=0 time=0
Time=85320 Track=5 note_off channel=4 note=58 velocity=0 time=0
Time=85440 Track=2 note_on channel=1 note=39 velocity=100 time=120
Time=85440 Track=9 note_on channel=7 note=66 velocity=100 time=360
Time=85440 Track=10 note_on channel=9 note=36 velocity=127 time=180
Time=85440 Track=10 note_on channel=9 note=41 velocity=127 time=0
Time=85440 Track=10 note_on channel=9 note=42 velocity=100 time=0
Time=85500 Track=10 note_off channel=9 note=36 velocity=0 time=60
Time=85500 Track=10 note_off channel=9 note=41 velocity=0 time=0
Time=85500 Track=10 note_off channel=9 note=42 velocity=0 time=0
Time=85522 Track=9 note_off channel=7 note=66 velocity=0 time=82
Time=85560 Track=2 note_off channel=1 note=39 velocity=64 time=120
Time=85560 Track=9 note_on channel=7 note=70 velocity=100 time=38
Time=85680 Track=9 note_off channel=7 note=70 velocity=0 time=120
Time=85680 Track=9 note_on channel=7 note=75 velocity=100 time=0
Time=85784 Track=9 note_off channel=7 note=75 velocity=0 time=104
Time=85800 Track=9 note_on channel=7 note=77 velocity=100 time=16
Time=85800 Track=10 note_on channel=9 note=40 velocity=120 time=300
Time=85800 Track=10 note_on channel=9 note=42 velocity=100 time=0
Time=85860 Track=10 note_off channel=9 note=40 velocity=0 time=60
Time=85860 Track=10 note_off channel=9 note=42 velocity=0 time=0
Time=85873 Track=9 note_off channel=7 note=77 velocity=0 time=73
Time=85920 Track=9 note_on channel=7 note=78 velocity=100 time=47
Time=85920 Track=10 note_on channel=9 note=36 velocity=127 time=60
Time=85920 Track=10 note_on channel=9 note=41 velocity=127 time=0
Time=85920 Track=10 note_on channel=9 note=42 velocity=100 time=0
Time=85980 Track=10 note_off channel=9 note=36 velocity=0 time=60
Time=85980 Track=10 note_off channel=9 note=41 velocity=0 time=0
Time=85980 Track=10 note_off channel=9 note=42 velocity=0 time=0
Time=86032 Track=9 note_off channel=7 note=78 velocity=0 time=112
Time=86040 Track=9 note_on channel=7 note=80 velocity=100 time=8
Time=86160 Track=2 note_on channel=1 note=34 velocity=100 time=600
Time=86160 Track=9 note_off channel=7 note=80 velocity=0 time=120
Time=86160 Track=9 note_on channel=7 note=77 velocity=100 time=0
Time=86160 Track=10 note_on channel=9 note=40 velocity=120 time=180
Time=86160 Track=10 note_on channel=9 note=42 velocity=100 time=0
Time=86220 Track=9 note_off channel=7 note=77 velocity=0 time=60
Time=86220 Track=10 note_off channel=9 note=40 velocity=0 time=60
Time=86220 Track=10 note_off channel=9 note=42 velocity=0 time=0
Time=86280 Track=2 note_off channel=1 note=34 velocity=64 time=120
Time=86400 Track=2 note_on channel=1 note=34 velocity=100 time=120
Time=86640 Track=2 note_off channel=1 note=34 velocity=64 time=240
Time=87360 Track=2 note_on channel=1 note=32 velocity=100 time=720
Time=87360 Track=10 note_on channel=9 note=36 velocity=127 time=451
Time=87360 Track=10 note_on channel=9 note=41 velocity=127 time=0
Time=87360 Track=10 note_on channel=9 note=42 velocity=100 time=0
Time=87420 Track=10 note_off channel=9 note=36 velocity=0 time=60
Time=87420 Track=10 note_off channel=9 note=41 velocity=0 time=0
Time=87420 Track=10 note_off channel=9 note=42 velocity=0 time=0
Time=87480 Track=2 note_off channel=1 note=32 velocity=64 time=120
Time=87600 Track=4 note_on channel=3 note=68 velocity=100 time=2280
Time=87600 Track=4 note_on channel=3 note=72 velocity=100 time=0
Time=87600 Track=4 note_on channel=3 note=75 velocity=100 time=0
Time=87600 Track=5 note_on channel=4 note=56 velocity=100 time=2280
Time=87600 Track=5 note_on channel=4 note=60 velocity=100 time=0
Time=87600 Track=5 note_on channel=4 note=63 velocity=100 time=0
Time=87600 Track=10 note_on channel=9 note=40 velocity=60 time=180
Time=87660 Track=10 note_off channel=9 note=40 velocity=0 time=60
Time=87720 Track=2 note_on channel=1 note=32 velocity=100 time=240
Time=87720 Track=4 note_off channel=3 note=68 velocity=0 time=120
Time=87720 Track=4 note_off channel=3 note=72 velocity=0 time=0
Time=87720 Track=4 note_off channel=3 note=75 velocity=0 time=0
Time=87720 Track=5 note_off channel=4 note=56 velocity=0 time=120
Time=87720 Track=5 note_off channel=4 note=60 velocity=0 time=0
Time=87720 Track=5 note_off channel=4 note=63 velocity=0 time=0
Time=87720 Track=10 note_on channel=9 note=40 velocity=120 time=60
Time=87720 Track=10 note_on channel=9 note=42 velocity=100 time=0
Time=87780 Track=10 note_off channel=9 note=40 velocity=0 time=60
Time=87780 Track=10 note_off channel=9 note=42 velocity=0 time=0
Time=87840 Track=2 note_off channel=1 note=32 velocity=64 time=120
Time=87840 Track=2 note_on channel=1 note=39 velocity=100 time=0
Time=87840 Track=4 note_on channel=3 note=68 velocity=100 time=120
Time=87840 Track=4 note_on channel=3 note=72 velocity=100 time=0
Time=87840 Track=4 note_on channel=3 note=75 velocity=100 time=0
Time=87840 Track=9 note_on channel=7 note=80 velocity=110 time=686
Time=87840 Track=10 note_on channel=9 note=36 velocity=127 time=60
Time=87840 Track=10 note_on channel=9 note=42 velocity=100 time=0
Time=87900 Track=10 note_off channel=9 note=36 velocity=0 time=60
Time=87900 Track=10 note_off channel=9 note=42 velocity=0 time=0
Time=87953 Track=9 note_off channel=7 note=80 velocity=0 time=113
Time=87960 Track=2 note_off channel=1 note=39 velocity=64 time=120
Time=87960 Track=2 note_on channel=1 note=39 velocity=100 time=0
Time=87960 Track=4 note_off channel=3 note=68 velocity=0 time=120
Time=87960 Track=4 note_off channel=3 note=72 velocity=0 time=0
Time=87960 Track=4 note_off channel=3 note=75 velocity=0 time=0
Time=87960 Track=8 note_on channel=8 note=72 velocity=70 time=2700
Time=88020 Track=8 note_off channel=8 note=72 velocity=0 time=60
Time=88080 Track=2 note_off channel=1 note=39 velocity=64 time=120
Time=88080 Track=2 note_on channel=1 note=39 velocity=100 time=0
Time=88080 Track=4 note_on channel=3 note=68 velocity=100 time=120
Time=88080 Track=4 note_on channel=3 note=72 velocity=100 time=0
Time=88080 Track=4 note_on channel=3 note=75 velocity=100 time=0
Time=88080 Track=5 note_on channel=4 note=56 velocity=100 time=360
Time=88080 Track=5 note_on channel=4 note=60 velocity=100 time=0
Time=88080 Track=5 note_on channel=4 note=63 velocity=100 time=0
Time=88080 Track=8 note_on channel=8 note=68 velocity=81 time=60
Time=88080 Track=10 note_on channel=9 note=40 velocity=120 time=180
Time=88080 Track=10 note_on channel=9 note=42 velocity=100 time=0
Time=88138 Track=8 note_off channel=8 note=68 velocity=0 time=58
Time=88140 Track=10 note_off channel=9 note=40 velocity=0 time=60
Time=88140 Track=10 note_off channel=9 note=42 velocity=0 time=0
Time=88200 Track=2 note_off channel=1 note=39 velocity=64 time=120
Time=88200 Track=4 note_off channel=3 note=68 velocity=0 time=120
Time=88200 Track=4 note_off channel=3 note=72 velocity=0 time=0
Time=88200 Track=4 note_off channel=3 note=75 velocity=0 time=0
Time=88200 Track=5 note_off channel=4 note=56 velocity=0 time=120
Time=88200 Track=5 note_off channel=4 note=60 velocity=0 time=0
Time=88200 Track=5 note_off channel=4 note=63 velocity=0 time=0
Time=88200 Track=8 note_on channel=8 note=63 velocity=76 time=62
Time=88258 Track=8 note_off channel=8 note=63 velocity=0 time=58
Time=88320 Track=2 note_on channel=1 note=27 velocity=100 time=120
Time=88320 Track=9 note_on channel=7 note=78 velocity=110 time=367
Time=88320 Track=10 note_on channel=9 note=36 velocity=127 time=180
Time=88320 Track=10 note_on channel=9 note=41 velocity=127 time=0
Time=88320 Track=10 note_on channel=9 note=42 velocity=100 time=0
Time=88380 Track=10 note_off channel=9 note=36 velocity=0 time=60
Time=88380 Track=10 note_off channel=9 note=41 velocity=0 time=0
Time=88380 Track=10 note_off channel=9 note=42 velocity=0 time=0
Time=88402 Track=9 note_off channel=7 note=78 velocity=0 time=82
Time=88440 Track=2 note_off channel=1 note=27 velocity=64 time=120
Time=88560 Track=4 note_on channel=3 note=63 velocity=100 time=360
Time=88560 Track=4 note_on channel=3 note=66 velocity=100 time=0
Time=88560 Track=4 note_on channel=3 note=70 velocity=100 time=0
Time=88560 Track=5 note_on channel=4 note=51 velocity=100 time=360
Time=88560 Track=5 note_on channel=4 note=54 velocity=100 time=0
Time=88560 Track=5 note_on channel=4 note=58 velocity=100 time=0
Time=88560 Track=8 note_on channel=8 note=58 velocity=51 time=302
Time=88560 Track=9 note_on channel=7 note=75 velocity=100 time=158
Time=88560 Track=10 note_on channel=9 note=40 velocity=60 time=180
Time=88620 Track=10 note_off channel=9 note=40 velocity=0 time=60
Time=88627 Track=8 note_off channel=8 note=58 velocity=0 time=67
Time=88680 Track=2 note_on channel=1 note=27 velocity=100 time=240
Time=88680 Track=4 note_off channel=3 note=63 velocity=0 time=120
Time=88680 Track=4 note_off channel=3 note=66 velocity=0 time=0
Time=88680 Track=4 note_off channel=3 note=70 velocity=0 time=0
Time=88680 Track=5 note_off channel=4 note=51 velocity=0 time=120
Time=88680 Track=5 note_off channel=4 note=54 velocity=0 time=0
Time=88680 Track=5 note_off channel=4 note=58 velocity=0 time=0
Time=88680 Track=9 note_off channel=7 note=75 velocity=0 time=120
Time=88680 Track=10 note_on channel=9 note=40 velocity=120 time=60
Time=88680 Track=10 note_on channel=9 note=42 velocity=100 time=0
Time=88739 Track=10 note_off channel=9 note=40 velocity=0 time=59
Time=88740 Track=10 note_off channel=9 note=42 velocity=0 time=1
Time=88800 Track=2 note_off channel=1 note=27 velocity=64 time=120
Time=88800 Track=2 note_on channel=1 note=34 velocity=100 time=0
Time=88800 Track=4 note_on channel=3 note=63 velocity=100 time=120
Time=88800 Track=4 note_on channel=3 note=66 velocity=100 time=0
Time=88800 Track=4 note_on channel=3 note=70 velocity=100 time=0
Time=88800 Track=9 note_on channel=7 note=70 velocity=108 time=120
Time=88800 Track=10 note_on channel=9 note=36 velocity=127 time=60
Time=88800 Track=10 note_on channel=9 note=42 velocity=100 time=0
Time=88860 Track=10 note_off channel=9 note=36 velocity=0 time=60
Time=88860 Track=10 note_off channel=9 note=42 velocity=0 time=0
Time=88920 Track=2 note_off channel=1 note=34 velocity=64 time=120
Time=88920 Track=2 note_on channel=1 note=34 velocity=100 time=0
Time=88920 Track=4 note_off channel=3 note=63 velocity=0 time=120
Time=88920 Track=4 note_off channel=3 note=66 velocity=0 time=0
Time=88920 Track=4 note_off channel=3 note=70 velocity=0 time=0
Time=88920 Track=9 note_off channel=7 note=70 velocity=0 time=120
Time=89040 Track=2 note_off channel=1 note=34 velocity=64 time=120
Time=89040 Track=2 note_on channel=1 note=34 velocity=100 time=0
Time=89040 Track=4 note_on channel=3 note=63 velocity=100 time=120
Time=89040 Track=4 note_on channel=3 note=66 velocity=100 time=0
Time=89040 Track=4 note_on channel=3 note=70 velocity=100 time=0
Time=89040 Track=5 note_on channel=4 note=51 velocity=100 time=360
Time=89040 Track=5 note_on channel=4 note=54 velocity=100 time=0
Time=89040 Track=5 note_on channel=4 note=58 velocity=100 time=0
Time=89040 Track=8 note_on channel=8 note=58 velocity=73 time=413
Time=89040 Track=10 note_on channel=9 note=40 velocity=120 time=180
Time=89040 Track=10 note_on channel=9 note=42 velocity=100 time=0
Time=89099 Track=10 note_off channel=9 note=40 velocity=0 time=59
Time=89100 Track=8 note_off channel=8 note=58 velocity=0 time=60
Time=89100 Track=10 note_off channel=9 note=42 velocity=0 time=1
Time=89160 Track=2 note_off channel=1 note=34 velocity=64 time=120
Time=89160 Track=4 note_off channel=3 note=63 velocity=0 time=120
Time=89160 Track=4 note_off channel=3 note=66 velocity=0 time=0
Time=89160 Track=4 note_off channel=3 note=70 velocity=0 time=0
Time=89160 Track=5 note_off channel=4 note=51 velocity=0 time=120
Time=89160 Track=5 note_off channel=4 note=54 velocity=0 time=0
Time=89160 Track=5 note_off channel=4 note=58 velocity=0 time=0
Time=89280 Track=2 note_on channel=1 note=27 velocity=100 time=120
Time=89280 Track=9 note_on channel=7 note=66 velocity=100 time=360
Time=89280 Track=10 note_on channel=9 note=36 velocity=127 time=180
Time=89280 Track=10 note_on channel=9 note=41 velocity=127 time=0
Time=89280 Track=10 note_on channel=9 note=42 velocity=100 time=0
Time=89340 Track=10 note_off channel=9 note=36 velocity=0 time=60
Time=89340 Track=10 note_off channel=9 note=41 velocity=0 time=0
Time=89340 Track=10 note_off channel=9 note=42 velocity=0 time=0
Time=89400 Track=2 note_off channel=1 note=27 velocity=64 time=120
Time=89400 Track=9 note_off channel=7 note=66 velocity=0 time=11
Time=89400 Track=9 note_on channel=7 note=70 velocity=100 time=0
Time=89520 Track=4 note_on channel=3 note=63 velocity=100 time=360
Time=89520 Track=4 note_on channel=3 note=66 velocity=100 time=0
Time=89520 Track=4 note_on channel=3 note=70 velocity=100 time=0
Time=89520 Track=5 note_on channel=4 note=51 velocity=100 time=360
Time=89520 Track=5 note_on channel=4 note=54 velocity=100 time=0
Time=89520 Track=5 note_on channel=4 note=58 velocity=100 time=0
Time=89520 Track=9 note_off channel=7 note=70 velocity=0 time=120
Time=89520 Track=9 note_on channel=7 note=75 velocity=100 time=0
Time=89520 Track=10 note_on channel=9 note=40 velocity=60 time=180
Time=89580 Track=10 note_off channel=9 note=40 velocity=0 time=60
Time=89640 Track=4 note_off channel=3 note=63 velocity=0 time=120
Time=89640 Track=4 note_off channel=3 note=66 velocity=0 time=0
Time=89640 Track=4 note_off channel=3 note=70 velocity=0 time=0
Time=89640 Track=5 note_off channel=4 note=51 velocity=0 time=120
Time=89640 Track=5 note_off channel=4 note=54 velocity=0 time=0
Time=89640 Track=5 note_off channel=4 note=58 velocity=0 time=0
Time=89640 Track=9 note_off channel=7 note=75 velocity=0 time=19
Time=89640 Track=9 note_on channel=7 note=77 velocity=100 time=0
Time=89640 Track=10 note_on channel=9 note=40 velocity=120 time=60
Time=89640 Track=10 note_on channel=9 note=42 velocity=100 time=0
Time=89700 Track=10 note_off channel=9 note=40 velocity=0 time=60
Time=89700 Track=10 note_off channel=9 note=42 velocity=0 time=0
Time=89713 Track=9 note_off channel=7 note=77 velocity=0 time=27
Time=89760 Track=2 note_on channel=1 note=37 velocity=100 time=360
Time=89760 Track=4 note_on channel=3 note=63 velocity=100 time=120
Time=89760 Track=4 note_on channel=3 note=66 velocity=100 time=0
Time=89760 Track=4 note_on channel=3 note=70 velocity=100 time=0
Time=89760 Track=9 note_on channel=7 note=78 velocity=100 time=43
Time=89760 Track=10 note_on channel=9 note=36 velocity=127 time=60
Time=89760 Track=10 note_on channel=9 note=42 velocity=100 time=0
Time=89820 Track=10 note_off channel=9 note=36 velocity=0 time=60
Time=89820 Track=10 note_off channel=9 note=42 velocity=0 time=0
Time=89872 Track=9 note_off channel=7 note=78 velocity=0 time=28
Time=89880 Track=2 note_off channel=1 note=37 velocity=64 time=120
Time=89880 Track=2 note_on channel=1 note=37 velocity=100 time=0
Time=89880 Track=4 note_off channel=3 note=63 velocity=0 time=120
Time=89880 Track=4 note_off channel=3 note=66 velocity=0 time=0
Time=89880 Track=4 note_off channel=3 note=70 velocity=0 time=0
Time=89880 Track=9 note_on channel=7 note=77 velocity=100 time=8
Time=89968 Track=9 note_off channel=7 note=77 velocity=0 time=42
Time=90000 Track=2 note_off channel=1 note=37 velocity=64 time=120
Time=90000 Track=2 note_on channel=1 note=37 velocity=100 time=0
Time=90000 Track=4 note_on channel=3 note=63 velocity=100 time=120
Time=90000 Track=4 note_on channel=3 note=66 velocity=100 time=0
Time=90000 Track=4 note_on channel=3 note=70 velocity=100 time=0
Time=90000 Track=5 note_on channel=4 note=51 velocity=100 time=360
Time=90000 Track=5 note_on channel=4 note=54 velocity=100 time=0
Time=90000 Track=5 note_on channel=4 note=58 velocity=100 time=0
Time=90000 Track=10 note_on channel=9 note=40 velocity=120 time=180
Time=90000 Track=10 note_on channel=9 note=42 velocity=100 time=0
Time=90060 Track=10 note_off channel=9 note=40 velocity=0 time=16
Time=90060 Track=10 note_off channel=9 note=42 velocity=0 time=0
Time=90120 Track=2 note_off channel=1 note=37 velocity=64 time=120
Time=90120 Track=4 note_off channel=3 note=63 velocity=0 time=120
Time=90120 Track=4 note_off channel=3 note=66 velocity=0 time=0
Time=90120 Track=4 note_off channel=3 note=70 velocity=0 time=0
Time=90120 Track=5 note_off channel=4 note=51 velocity=0 time=120
Time=90120 Track=5 note_off channel=4 note=54 velocity=0 time=0
Time=90120 Track=5 note_off channel=4 note=58 velocity=0 time=0
Time=90240 Track=2 note_on channel=1 note=34 velocity=100 time=120
Time=90240 Track=10 note_on channel=9 note=36 velocity=127 time=180
Time=90240 Track=10 note_on channel=9 note=41 velocity=127 time=0
Time=90240 Track=10 note_on channel=9 note=42 velocity=100 time=0
Time=90300 Track=10 note_off channel=9 note=36 velocity=0 time=60
Time=90300 Track=10 note_off channel=9 note=41 velocity=0 time=0
Time=90300 Track=10 note_off channel=9 note=42 velocity=0 time=0
Time=90480 Track=2 note_off channel=1 note=34 velocity=64 time=240
Time=90480 Track=4 note_on channel=3 note=70 velocity=100 time=360
Time=90480 Track=4 note_on channel=3 note=73 velocity=100 time=0
Time=90480 Track=4 note_on channel=3 note=77 velocity=100 time=0
Time=90480 Track=5 note_on channel=4 note=58 velocity=100 time=360
Time=90480 Track=5 note_on channel=4 note=61 velocity=100 time=0
Time=90480 Track=5 note_on channel=4 note=65 velocity=100 time=0
Time=90480 Track=8 note_on channel=8 note=61 velocity=95 time=1380
Time=90480 Track=10 note_on channel=9 note=40 velocity=60 time=144
Time=90540 Track=8 note_off channel=8 note=61 velocity=0 time=60
Time=90540 Track=10 note_off channel=9 note=40 velocity=0 time=60
Time=90600 Track=2 note_on channel=1 note=34 velocity=100 time=120
Time=90600 Track=4 note_off channel=3 note=70 velocity=0 time=120
Time=90600 Track=4 note_off channel=3 note=73 velocity=0 time=0
Time=90600 Track=4 note_off channel=3 note=77 velocity=0 time=0
Time=90600 Track=5 note_off channel=4 note=58 velocity=0 time=120
Time=90600 Track=5 note_off channel=4 note=61 velocity=0 time=0
Time=90600 Track=5 note_off channel=4 note=65 velocity=0 time=0
Time=90600 Track=10 note_on channel=9 note=40 velocity=120 time=60
Time=90600 Track=10 note_on channel=9 note=42 velocity=100 time=0
Time=90660 Track=10 note_off channel=9 note=40 velocity=0 time=60
Time=90660 Track=10 note_off channel=9 note=42 velocity=0 time=0
Time=90720 Track=2 note_off channel=1 note=34 velocity=64 time=120
Time=90720 Track=2 note_on channel=1 note=41 velocity=100 time=0
Time=90720 Track=4 note_on channel=3 note=70 velocity=100 time=120
Time=90720 Track=4 note_on channel=3 note=73 velocity=100 time=0
Time=90720 Track=4 note_on channel=3 note=77 velocity=100 time=0
Time=90720 Track=8 note_on channel=8 note=73 velocity=85 time=180
Time=90720 Track=9 note_on channel=7 note=82 velocity=119 time=147
Time=90720 Track=10 note_on channel=9 note=36 velocity=127 time=60
Time=90720 Track=10 note_on channel=9 note=42 velocity=100 time=0
Time=90780 Track=8 note_off channel=8 note=73 velocity=0 time=60
Time=90780 Track=10 note_off channel=9 note=36 velocity=0 time=60
Time=90780 Track=10 note_off channel=9 note=42 velocity=0 time=0
Time=90831 Track=9 note_off channel=7 note=82 velocity=0 time=6
Time=90840 Track=2 note_off channel=1 note=41 velocity=64 time=120
Time=90840 Track=2 note_on channel=1 note=41 velocity=100 time=0
Time=90840 Track=4 note_off channel=3 note=70 velocity=0 time=120
Time=90840 Track=4 note_off channel=3 note=73 velocity=0 time=0
Time=90840 Track=4 note_off channel=3 note=77 velocity=0 time=0
Time=90840 Track=8 note_on channel=8 note=68 velocity=88 time=60
Time=90900 Track=8 note_off channel=8 note=68 velocity=0 time=60
Time=90960 Track=2 note_off channel=1 note=41 velocity=64 time=120
Time=90960 Track=2 note_on channel=1 note=41 velocity=100 time=0
Time=90960 Track=4 note_on channel=3 note=70 velocity=100 time=120
Time=90960 Track=4 note_on channel=3 note=73 velocity=100 time=0
Time=90960 Track=4 note_on channel=3 note=77 velocity=100 time=0
Time=90960 Track=5 note_on channel=4 note=58 velocity=100 time=360
Time=90960 Track=5 note_on channel=4 note=61 velocity=100 time=0
Time=90960 Track=5 note_on channel=4 note=65 velocity=100 time=0
Time=90960 Track=8 note_on channel=8 note=65 velocity=96 time=60
Time=90960 Track=10 note_on channel=9 note=40 velocity=120 time=180
Time=90960 Track=10 note_on channel=9 note=42 velocity=100 time=0
Time=91020 Track=8 note_off channel=8 note=65 velocity=0 time=60
Time=91020 Track=10 note_off channel=9 note=40 velocity=0 time=60
Time=91020 Track=10 note_off channel=9 note=42 velocity=0 time=0
Time=91080 Track=2 note_off channel=1 note=41 velocity=64 time=120
Time=91080 Track=4 note_off channel=3 note=70 velocity=0 time=120
Time=91080 Track=4 note_off channel=3 note=73 velocity=0 time=0
Time=91080 Track=4 note_off channel=3 note=77 velocity=0 time=0
Time=91080 Track=5 note_off channel=4 note=58 velocity=0 time=120
Time=91080 Track=5 note_off channel=4 note=61 velocity=0 time=0
Time=91080 Track=5 note_off channel=4 note=65 velocity=0 time=0
Time=91080 Track=8 note_on channel=8 note=63 velocity=104 time=60
Time=91132 Track=8 note_off channel=8 note=63 velocity=0 time=52
Time=91200 Track=2 note_on channel=1 note=32 velocity=100 time=120
Time=91200 Track=10 note_on channel=9 note=36 velocity=127 time=180
Time=91200 Track=10 note_on channel=9 note=41 velocity=127 time=0
Time=91200 Track=10 note_on channel=9 note=42 velocity=100 time=0
Time=91257 Track=10 note_off channel=9 note=42 velocity=0 time=57
Time=91260 Track=10 note_off channel=9 note=36 velocity=0 time=3
Time=91260 Track=10 note_off channel=9 note=41 velocity=0 time=0
Time=91320 Track=2 note_off channel=1 note=32 velocity=64 time=120
Time=91440 Track=4 note_on channel=3 note=68 velocity=100 time=360
Time=91440 Track=4 note_on channel=3 note=72 velocity=100 time=0
Time=91440 Track=4 note_on channel=3 note=75 velocity=100 time=0
Time=91440 Track=5 note_on channel=4 note=56 velocity=100 time=360
Time=91440 Track=5 note_on channel=4 note=60 velocity=100 time=0
Time=91440 Track=5 note_on channel=4 note=63 velocity=100 time=0
Time=91440 Track=10 note_on channel=9 note=40 velocity=60 time=180
Time=91499 Track=10 note_off channel=9 note=40 velocity=0 time=59
Time=91560 Track=2 note_on channel=1 note=32 velocity=100 time=240
Time=91560 Track=4 note_off channel=3 note=68 velocity=0 time=120
Time=91560 Track=4 note_off channel=3 note=72 velocity=0 time=0
Time=91560 Track=4 note_off channel=3 note=75 velocity=0 time=0
Time=91560 Track=5 note_off channel=4 note=56 velocity=0 time=120
Time=91560 Track=5 note_off channel=4 note=60 velocity=0 time=0
Time=91560 Track=5 note_off channel=4 note=63 velocity=0 time=0
Time=91560 Track=10 note_on channel=9 note=40 velocity=120 time=61
Time=91560 Track=10 note_on channel=9 note=42 velocity=100 time=0
Time=91620 Track=10 note_off channel=9 note=40 velocity=0 time=60
Time=91620 Track=10 note_off channel=9 note=42 velocity=0 time=0
Time=91680 Track=2 note_off channel=1 note=32 velocity=64 time=120
Time=91680 Track=2 note_on channel=1 note=39 velocity=100 time=0
Time=91680 Track=4 note_on channel=3 note=68 velocity=100 time=120
Time=91680 Track=4 note_on channel=3 note=72 velocity=100 time=0
Time=91680 Track=4 note_on channel=3 note=75 velocity=100 time=0
Time=91680 Track=9 note_on channel=7 note=80 velocity=110 time=782
Time=91680 Track=10 note_on channel=9 note=36 velocity=127 time=60
Time=91680 Track=10 note_on channel=9 note=42 velocity=100 time=0
Time=91740 Track=10 note_off channel=9 note=36 velocity=0 time=60
Time=91741 Track=10 note_off channel=9 note=42 velocity=0 time=1
Time=91793 Track=9 note_off channel=7 note=80 velocity=0 time=113
Time=91800 Track=2 note_off channel=1 note=39 velocity=64 time=120
Time=91800 Track=2 note_on channel=1 note=39 velocity=100 time=0
Time=91800 Track=4 note_off channel=3 note=68 velocity=0 time=120
Time=91800 Track=4 note_off channel=3 note=72 velocity=0 time=0
Time=91800 Track=4 note_off channel=3 note=75 velocity=0 time=0
Time=91800 Track=8 note_on channel=8 note=72 velocity=70 time=668
Time=91860 Track=8 note_off channel=8 note=72 velocity=0 time=60
Time=91920 Track=2 note_off channel=1 note=39 velocity=64 time=120
Time=91920 Track=2 note_on channel=1 note=39 velocity=100 time=0
Time=91920 Track=4 note_on channel=3 note=68 velocity=100 time=120
Time=91920 Track=4 note_on channel=3 note=72 velocity=100 time=0
Time=91920 Track=4 note_on channel=3 note=75 velocity=100 time=0
Time=91920 Track=5 note_on channel=4 note=56 velocity=100 time=360
Time=91920 Track=5 note_on channel=4 note=60 velocity=100 time=0
Time=91920 Track=5 note_on channel=4 note=63 velocity=100 time=0
Time=91920 Track=8 note_on channel=8 note=68 velocity=81 time=60
Time=91920 Track=10 note_on channel=9 note=40 velocity=120 time=179
Time=91920 Track=10 note_on channel=9 note=42 velocity=100 time=0
Time=91978 Track=8 note_off channel=8 note=68 velocity=0 time=58
Time=91980 Track=10 note_off channel=9 note=40 velocity=0 time=60
Time=91980 Track=10 note_off channel=9 note=42 velocity=0 time=0
Time=92040 Track=2 note_off channel=1 note=39 velocity=64 time=120
Time=92040 Track=4 note_off channel=3 note=68 velocity=0 time=120
Time=92040 Track=4 note_off channel=3 note=72 velocity=0 time=0
Time=92040 Track=4 note_off channel=3 note=75 velocity=0 time=0
Time=92040 Track=5 note_off channel=4 note=56 velocity=0 time=120
Time=92040 Track=5 note_off channel=4 note=60 velocity=0 time=0
Time=92040 Track=5 note_off channel=4 note=63 velocity=0 time=0
Time=92040 Track=8 note_on channel=8 note=63 velocity=76 time=62
Time=92098 Track=8 note_off channel=8 note=63 velocity=0 time=58
Time=92160 Track=2 note_on channel=1 note=27 velocity=100 time=120
Time=92160 Track=9 note_on channel=7 note=78 velocity=110 time=239
Time=92160 Track=10 note_on channel=9 note=36 velocity=127 time=180
Time=92160 Track=10 note_on channel=9 note=41 velocity=127 time=0
Time=92160 Track=10 note_on channel=9 note=42 velocity=100 time=0
Time=92220 Track=10 note_off channel=9 note=36 velocity=0 time=60
Time=92220 Track=10 note_off channel=9 note=41 velocity=0 time=0
Time=92220 Track=10 note_off channel=9 note=42 velocity=0 time=0
Time=92242 Track=9 note_off channel=7 note=78 velocity=0 time=82
Time=92280 Track=2 note_off channel=1 note=27 velocity=64 time=120
Time=92400 Track=4 note_on channel=3 note=63 velocity=100 time=360
Time=92400 Track=4 note_on channel=3 note=66 velocity=100 time=0
Time=92400 Track=4 note_on channel=3 note=70 velocity=100 time=0
Time=92400 Track=5 note_on channel=4 note=51 velocity=100 time=360
Time=92400 Track=5 note_on channel=4 note=54 velocity=100 time=0
Time=92400 Track=5 note_on channel=4 note=58 velocity=100 time=0
Time=92400 Track=8 note_on channel=8 note=58 velocity=51 time=302
Time=92400 Track=9 note_on channel=7 note=75 velocity=100 time=158
Time=92400 Track=10 note_on channel=9 note=40 velocity=60 time=180
Time=92460 Track=10 note_off channel=9 note=40 velocity=0 time=60
Time=92467 Track=8 note_off channel=8 note=58 velocity=0 time=67
Time=92520 Track=4 note_off channel=3 note=63 velocity=0 time=120
Time=92520 Track=4 note_off channel=3 note=66 velocity=0 time=0
Time=92520 Track=4 note_off channel=3 note=70 velocity=0 time=0
Time=92520 Track=5 note_off channel=4 note=51 velocity=0 time=120
Time=92520 Track=5 note_off channel=4 note=54 velocity=0 time=0
Time=92520 Track=5 note_off channel=4 note=58 velocity=0 time=0
Time=92520 Track=9 note_off channel=7 note=75 velocity=0 time=120
Time=92520 Track=10 note_on channel=9 note=40 velocity=120 time=60
Time=92520 Track=10 note_on channel=9 note=42 velocity=100 time=0
Time=92580 Track=10 note_off channel=9 note=40 velocity=0 time=60
Time=92580 Track=10 note_off channel=9 note=42 velocity=0 time=0
Time=92640 Track=2 note_on channel=1 note=34 velocity=100 time=360
Time=92640 Track=4 note_on channel=3 note=63 velocity=100 time=120
Time=92640 Track=4 note_on channel=3 note=66 velocity=100 time=0
Time=92640 Track=4 note_on channel=3 note=70 velocity=100 time=0
Time=92640 Track=9 note_on channel=7 note=70 velocity=108 time=120
Time=92640 Track=10 note_on channel=9 note=36 velocity=127 time=60
Time=92640 Track=10 note_on channel=9 note=42 velocity=100 time=0
Time=92700 Track=10 note_off channel=9 note=36 velocity=0 time=60
Time=92700 Track=10 note_off channel=9 note=42 velocity=0 time=0
Time=92760 Track=2 note_off channel=1 note=34 velocity=64 time=120
Time=92760 Track=2 note_on channel=1 note=34 velocity=100 time=0
Time=92760 Track=4 note_off channel=3 note=63 velocity=0 time=120
Time=92760 Track=4 note_off channel=3 note=66 velocity=0 time=0
Time=92760 Track=4 note_off channel=3 note=70 velocity=0 time=0
Time=92760 Track=9 note_off channel=7 note=70 velocity=0 time=120
Time=92880 Track=2 note_off channel=1 note=34 velocity=64 time=120
Time=92880 Track=2 note_on channel=1 note=34 velocity=100 time=0
Time=92880 Track=4 note_on channel=3 note=63 velocity=100 time=120
Time=92880 Track=4 note_on channel=3 note=66 velocity=100 time=0
Time=92880 Track=4 note_on channel=3 note=70 velocity=100 time=0
Time=92880 Track=5 note_on channel=4 note=51 velocity=100 time=360
Time=92880 Track=5 note_on channel=4 note=54 velocity=100 time=0
Time=92880 Track=5 note_on channel=4 note=58 velocity=100 time=0
Time=92880 Track=8 note_on channel=8 note=58 velocity=73 time=413
Time=92880 Track=10 note_on channel=9 note=40 velocity=120 time=180
Time=92880 Track=10 note_on channel=9 note=42 velocity=100 time=0
Time=92940 Track=8 note_off channel=8 note=58 velocity=0 time=60
Time=92940 Track=10 note_off channel=9 note=40 velocity=0 time=60
Time=92940 Track=10 note_off channel=9 note=42 velocity=0 time=0
Time=93000 Track=2 note_off channel=1 note=34 velocity=64 time=120
Time=93000 Track=4 note_off channel=3 note=63 velocity=0 time=120
Time=93000 Track=4 note_off channel=3 note=66 velocity=0 time=0
Time=93000 Track=4 note_off channel=3 note=70 velocity=0 time=0
Time=93000 Track=5 note_off channel=4 note=51 velocity=0 time=120
Time=93000 Track=5 note_off channel=4 note=54 velocity=0 time=0
Time=93000 Track=5 note_off channel=4 note=58 velocity=0 time=0
Time=93120 Track=2 note_on channel=1 note=39 velocity=100 time=120
Time=93120 Track=9 note_on channel=7 note=66 velocity=100 time=360
Time=93120 Track=10 note_on channel=9 note=36 velocity=127 time=180
Time=93120 Track=10 note_on channel=9 note=41 velocity=127 time=0
Time=93120 Track=10 note_on channel=9 note=42 velocity=100 time=0
Time=93180 Track=10 note_off channel=9 note=36 velocity=0 time=60
Time=93180 Track=10 note_off channel=9 note=41 velocity=0 time=0
Time=93180 Track=10 note_off channel=9 note=42 velocity=0 time=0
Time=93202 Track=9 note_off channel=7 note=66 velocity=0 time=82
Time=93240 Track=2 note_off channel=1 note=39 velocity=64 time=120
Time=93240 Track=9 note_on channel=7 note=70 velocity=100 time=38
Time=93360 Track=9 note_off channel=7 note=70 velocity=0 time=120
Time=93360 Track=9 note_on channel=7 note=75 velocity=100 time=0
Time=93464 Track=9 note_off channel=7 note=75 velocity=0 time=104
Time=93480 Track=9 note_on channel=7 note=77 velocity=100 time=16
Time=93480 Track=10 note_on channel=9 note=41 velocity=120 time=300
Time=93480 Track=10 note_on channel=9 note=42 velocity=100 time=0
Time=93540 Track=10 note_off channel=9 note=41 velocity=0 time=60
Time=93540 Track=10 note_off channel=9 note=42 velocity=0 time=0
Time=93553 Track=9 note_off channel=7 note=77 velocity=0 time=73
Time=93600 Track=9 note_on channel=7 note=78 velocity=100 time=47
Time=93600 Track=10 note_on channel=9 note=36 velocity=127 time=60
Time=93600 Track=10 note_on channel=9 note=41 velocity=127 time=0
Time=93600 Track=10 note_on channel=9 note=42 velocity=100 time=0
Time=93660 Track=10 note_off channel=9 note=36 velocity=0 time=60
Time=93660 Track=10 note_off channel=9 note=41 velocity=0 time=0
Time=93660 Track=10 note_off channel=9 note=42 velocity=0 time=0
Time=93712 Track=9 note_off channel=7 note=78 velocity=0 time=112
Time=93720 Track=9 note_on channel=7 note=80 velocity=100 time=8
Time=93840 Track=9 note_off channel=7 note=80 velocity=0 time=120
Time=93840 Track=9 note_on channel=7 note=77 velocity=100 time=0
Time=93840 Track=10 note_on channel=9 note=41 velocity=120 time=180
Time=93840 Track=10 note_on channel=9 note=42 velocity=100 time=0
Time=93900 Track=9 note_off channel=7 note=77 velocity=0 time=60
Time=93900 Track=10 note_off channel=9 note=41 velocity=0 time=60
Time=93900 Track=10 note_off channel=9 note=42 velocity=0 time=0
Time=94080 Track=2 note_on channel=1 note=34 velocity=100 time=840
Time=94320 Track=2 note_off channel=1 note=34 velocity=64 time=240
Time=94320 Track=4 note_on channel=3 note=70 velocity=100 time=1320
Time=94320 Track=4 note_on channel=3 note=73 velocity=100 time=0
Time=94320 Track=4 note_on channel=3 note=77 velocity=100 time=0
Time=94320 Track=5 note_on channel=4 note=58 velocity=100 time=1320
Time=94320 Track=5 note_on channel=4 note=61 velocity=100 time=0
Time=94320 Track=5 note_on channel=4 note=65 velocity=100 time=0
Time=94440 Track=2 note_on channel=1 note=34 velocity=100 time=120
Time=94440 Track=4 note_off channel=3 note=70 velocity=0 time=120
Time=94440 Track=4 note_off channel=3 note=73 velocity=0 time=0
Time=94440 Track=4 note_off channel=3 note=77 velocity=0 time=0
Time=94440 Track=5 note_off channel=4 note=58 velocity=0 time=120
Time=94440 Track=5 note_off channel=4 note=61 velocity=0 time=0
Time=94440 Track=5 note_off channel=4 note=65 velocity=0 time=0
Time=94560 Track=2 note_off channel=1 note=34 velocity=64 time=120
Time=94560 Track=2 note_on channel=1 note=41 velocity=100 time=0
Time=94560 Track=4 note_on channel=3 note=70 velocity=100 time=120
Time=94560 Track=4 note_on channel=3 note=73 velocity=100 time=0
Time=94560 Track=4 note_on channel=3 note=77 velocity=100 time=0
Time=94680 Track=2 note_off channel=1 note=41 velocity=64 time=120
Time=94680 Track=2 note_on channel=1 note=41 velocity=100 time=0
Time=94680 Track=3 note_on channel=2 note=85 velocity=38 time=32910
Time=94680 Track=4 note_off channel=3 note=70 velocity=0 time=120
Time=94680 Track=4 note_off channel=3 note=73 velocity=0 time=0
Time=94680 Track=4 note_off channel=3 note=77 velocity=0 time=0
Time=94739 Track=3 note_off channel=2 note=85 velocity=0 time=59
Time=94800 Track=2 note_off channel=1 note=41 velocity=64 time=120
Time=94800 Track=2 note_on channel=1 note=41 velocity=100 time=0
Time=94800 Track=3 note_on channel=2 note=85 velocity=40 time=61
Time=94800 Track=4 note_on channel=3 note=70 velocity=100 time=120
Time=94800 Track=4 note_on channel=3 note=73 velocity=100 time=0
Time=94800 Track=4 note_on channel=3 note=77 velocity=100 time=0
Time=94800 Track=5 note_on channel=4 note=58 velocity=100 time=360
Time=94800 Track=5 note_on channel=4 note=61 velocity=100 time=0
Time=94800 Track=5 note_on channel=4 note=65 velocity=100 time=0
Time=94860 Track=3 note_off channel=2 note=85 velocity=0 time=60
Time=94920 Track=2 note_off channel=1 note=41 velocity=64 time=120
Time=94920 Track=3 note_on channel=2 note=85 velocity=40 time=60
Time=94920 Track=4 note_off channel=3 note=70 velocity=0 time=120
Time=94920 Track=4 note_off channel=3 note=73 velocity=0 time=0
Time=94920 Track=4 note_off channel=3 note=77 velocity=0 time=0
Time=94920 Track=5 note_off channel=4 note=58 velocity=0 time=120
Time=94920 Track=5 note_off channel=4 note=61 velocity=0 time=0
Time=94920 Track=5 note_off channel=4 note=65 velocity=0 time=0
Time=94980 Track=3 note_off channel=2 note=85 velocity=0 time=60
Time=95040 Track=2 note_on channel=1 note=32 velocity=100 time=120
Time=95040 Track=3 note_on channel=2 note=87 velocity=51 time=60
Time=95160 Track=2 note_off channel=1 note=32 velocity=64 time=120
Time=95262 Track=3 note_off channel=2 note=87 velocity=0 time=222
Time=95280 Track=3 note_on channel=2 note=84 velocity=43 time=18
Time=95280 Track=4 note_on channel=3 note=68 velocity=100 time=360
Time=95280 Track=4 note_on channel=3 note=72 velocity=100 time=0
Time=95280 Track=4 note_on channel=3 note=75 velocity=100 time=0
Time=95280 Track=5 note_on channel=4 note=56 velocity=100 time=360
Time=95280 Track=5 note_on channel=4 note=60 velocity=100 time=0
Time=95280 Track=5 note_on channel=4 note=63 velocity=100 time=0
Time=95347 Track=3 note_off channel=2 note=84 velocity=0 time=67
Time=95400 Track=2 note_on channel=1 note=32 velocity=100 time=240
Time=95400 Track=3 note_on channel=2 note=84 velocity=51 time=53
Time=95400 Track=4 note_off channel=3 note=68 velocity=0 time=120
Time=95400 Track=4 note_off channel=3 note=72 velocity=0 time=0
Time=95400 Track=4 note_off channel=3 note=75 velocity=0 time=0
Time=95400 Track=5 note_off channel=4 note=56 velocity=0 time=120
Time=95400 Track=5 note_off channel=4 note=60 velocity=0 time=0
Time=95400 Track=5 note_off channel=4 note=63 velocity=0 time=0
Time=95466 Track=3 note_off channel=2 note=84 velocity=0 time=66
Time=95520 Track=2 note_off channel=1 note=32 velocity=64 time=120
Time=95520 Track=2 note_on channel=1 note=39 velocity=100 time=0
Time=95520 Track=3 note_on channel=2 note=84 velocity=54 time=54
Time=95520 Track=4 note_on channel=3 note=68 velocity=100 time=120
Time=95520 Track=4 note_on channel=3 note=72 velocity=100 time=0
Time=95520 Track=4 note_on channel=3 note=75 velocity=100 time=0
Time=95595 Track=3 note_off channel=2 note=84 velocity=0 time=75
Time=95640 Track=2 note_off channel=1 note=39 velocity=64 time=120
Time=95640 Track=2 note_on channel=1 note=39 velocity=100 time=0
Time=95640 Track=3 note_on channel=2 note=85 velocity=44 time=45
Time=95640 Track=4 note_off channel=3 note=68 velocity=0 time=120
Time=95640 Track=4 note_off channel=3 note=72 velocity=0 time=0
Time=95640 Track=4 note_off channel=3 note=75 velocity=0 time=0
Time=95751 Track=3 note_off channel=2 note=85 velocity=0 time=111
Time=95760 Track=2 note_off channel=1 note=39 velocity=64 time=120
Time=95760 Track=2 note_on channel=1 note=39 velocity=100 time=0
Time=95760 Track=3 note_on channel=2 note=84 velocity=58 time=9
Time=95760 Track=4 note_on channel=3 note=68 velocity=100 time=120
Time=95760 Track=4 note_on channel=3 note=72 velocity=100 time=0
Time=95760 Track=4 note_on channel=3 note=75 velocity=100 time=0
Time=95760 Track=5 note_on channel=4 note=56 velocity=100 time=360
Time=95760 Track=5 note_on channel=4 note=60 velocity=100 time=0
Time=95760 Track=5 note_on channel=4 note=63 velocity=100 time=0
Time=95864 Track=3 note_off channel=2 note=84 velocity=0 time=104
Time=95880 Track=2 note_off channel=1 note=39 velocity=64 time=120
Time=95880 Track=4 note_off channel=3 note=68 velocity=0 time=120
Time=95880 Track=4 note_off channel=3 note=72 velocity=0 time=0
Time=95880 Track=4 note_off channel=3 note=75 velocity=0 time=0
Time=95880 Track=5 note_off channel=4 note=56 velocity=0 time=120
Time=95880 Track=5 note_off channel=4 note=60 velocity=0 time=0
Time=95880 Track=5 note_off channel=4 note=63 velocity=0 time=0
Time=96000 Track=2 note_on channel=1 note=27 velocity=100 time=120
Time=96000 Track=3 note_on channel=2 note=85 velocity=51 time=136
Time=96120 Track=2 note_off channel=1 note=27 velocity=64 time=120
Time=96239 Track=3 note_off channel=2 note=85 velocity=0 time=239
Time=96240 Track=3 note_on channel=2 note=82 velocity=53 time=1
Time=96240 Track=4 note_on channel=3 note=63 velocity=100 time=360
Time=96240 Track=4 note_on channel=3 note=66 velocity=100 time=0
Time=96240 Track=4 note_on channel=3 note=70 velocity=100 time=0
Time=96240 Track=5 note_on channel=4 note=51 velocity=100 time=360
Time=96240 Track=5 note_on channel=4 note=54 velocity=100 time=0
Time=96240 Track=5 note_on channel=4 note=58 velocity=100 time=0
Time=96240 Track=7 note_on channel=6 note=70 velocity=102 time=18000
Time=96306 Track=3 note_off channel=2 note=82 velocity=0 time=66
Time=96360 Track=2 note_on channel=1 note=27 velocity=100 time=240
Time=96360 Track=4 note_off channel=3 note=63 velocity=0 time=120
Time=96360 Track=4 note_off channel=3 note=66 velocity=0 time=0
Time=96360 Track=4 note_off channel=3 note=70 velocity=0 time=0
Time=96360 Track=5 note_off channel=4 note=51 velocity=0 time=120
Time=96360 Track=5 note_off channel=4 note=54 velocity=0 time=0
Time=96360 Track=5 note_off channel=4 note=58 velocity=0 time=0
Time=96360 Track=7 note_off channel=6 note=70 velocity=0 time=120
Time=96480 Track=2 note_off channel=1 note=27 velocity=64 time=120
Time=96480 Track=2 note_on channel=1 note=34 velocity=100 time=0
Time=96480 Track=4 note_on channel=3 note=63 velocity=100 time=120
Time=96480 Track=4 note_on channel=3 note=66 velocity=100 time=0
Time=96480 Track=4 note_on channel=3 note=70 velocity=100 time=0
Time=96600 Track=2 note_off channel=1 note=34 velocity=64 time=120
Time=96600 Track=2 note_on channel=1 note=34 velocity=100 time=0
Time=96600 Track=4 note_off channel=3 note=63 velocity=0 time=120
Time=96600 Track=4 note_off channel=3 note=66 velocity=0 time=0
Time=96600 Track=4 note_off channel=3 note=70 velocity=0 time=0
Time=96720 Track=2 note_off channel=1 note=34 velocity=64 time=120
Time=96720 Track=2 note_on channel=1 note=34 velocity=100 time=0
Time=96720 Track=3 note_on channel=2 note=82 velocity=55 time=414
Time=96720 Track=4 note_on channel=3 note=63 velocity=100 time=120
Time=96720 Track=4 note_on channel=3 note=66 velocity=100 time=0
Time=96720 Track=4 note_on channel=3 note=70 velocity=100 time=0
Time=96720 Track=5 note_on channel=4 note=51 velocity=100 time=360
Time=96720 Track=5 note_on channel=4 note=54 velocity=100 time=0
Time=96720 Track=5 note_on channel=4 note=58 velocity=100 time=0
Time=96720 Track=7 note_on channel=6 note=70 velocity=127 time=360
Time=96779 Track=3 note_off channel=2 note=82 velocity=0 time=59
Time=96840 Track=2 note_off channel=1 note=34 velocity=64 time=120
Time=96840 Track=4 note_off channel=3 note=63 velocity=0 time=120
Time=96840 Track=4 note_off channel=3 note=66 velocity=0 time=0
Time=96840 Track=4 note_off channel=3 note=70 velocity=0 time=0
Time=96840 Track=5 note_off channel=4 note=51 velocity=0 time=120
Time=96840 Track=5 note_off channel=4 note=54 velocity=0 time=0
Time=96840 Track=5 note_off channel=4 note=58 velocity=0 time=0
Time=96840 Track=7 note_off channel=6 note=70 velocity=0 time=120
Time=96960 Track=2 note_on channel=1 note=27 velocity=100 time=120
Time=96960 Track=3 note_on channel=2 note=89 velocity=46 time=181
Time=96960 Track=7 note_on channel=6 note=77 velocity=127 time=120
Time=97079 Track=3 note_off channel=2 note=89 velocity=0 time=119
Time=97080 Track=2 note_off channel=1 note=27 velocity=64 time=120
Time=97087 Track=7 note_off channel=6 note=77 velocity=0 time=127
Time=97200 Track=3 note_on channel=2 note=87 velocity=51 time=121
Time=97200 Track=4 note_on channel=3 note=63 velocity=100 time=360
Time=97200 Track=4 note_on channel=3 note=66 velocity=100 time=0
Time=97200 Track=4 note_on channel=3 note=70 velocity=100 time=0
Time=97200 Track=5 note_on channel=4 note=51 velocity=100 time=360
Time=97200 Track=5 note_on channel=4 note=54 velocity=100 time=0
Time=97200 Track=5 note_on channel=4 note=58 velocity=100 time=0
Time=97200 Track=7 note_on channel=6 note=75 velocity=127 time=113
Time=97259 Track=3 note_off channel=2 note=87 velocity=0 time=59
Time=97320 Track=3 note_on channel=2 note=89 velocity=48 time=61
Time=97320 Track=4 note_off channel=3 note=63 velocity=0 time=120
Time=97320 Track=4 note_off channel=3 note=66 velocity=0 time=0
Time=97320 Track=4 note_off channel=3 note=70 velocity=0 time=0
Time=97320 Track=5 note_off channel=4 note=51 velocity=0 time=120
Time=97320 Track=5 note_off channel=4 note=54 velocity=0 time=0
Time=97320 Track=5 note_off channel=4 note=58 velocity=0 time=0
Time=97320 Track=7 note_off channel=6 note=75 velocity=0 time=120
Time=97439 Track=3 note_off channel=2 note=89 velocity=0 time=119
Time=97440 Track=2 note_on channel=1 note=37 velocity=100 time=360
Time=97440 Track=3 note_on channel=2 note=87 velocity=59 time=1
Time=97440 Track=4 note_on channel=3 note=63 velocity=100 time=120
Time=97440 Track=4 note_on channel=3 note=66 velocity=100 time=0
Time=97440 Track=4 note_on channel=3 note=70 velocity=100 time=0
Time=97530 Track=3 note_off channel=2 note=87 velocity=0 time=90
Time=97560 Track=2 note_off channel=1 note=37 velocity=64 time=120
Time=97560 Track=2 note_on channel=1 note=37 velocity=100 time=0
Time=97560 Track=3 note_on channel=2 note=85 velocity=36 time=30
Time=97560 Track=4 note_off channel=3 note=63 velocity=0 time=120
Time=97560 Track=4 note_off channel=3 note=66 velocity=0 time=0
Time=97560 Track=4 note_off channel=3 note=70 velocity=0 time=0
Time=97597 Track=3 note_off channel=2 note=85 velocity=0 time=37
Time=97680 Track=2 note_off channel=1 note=37 velocity=64 time=120
Time=97680 Track=2 note_on channel=1 note=37 velocity=100 time=0
Time=97680 Track=3 note_on channel=2 note=85 velocity=55 time=83
Time=97680 Track=4 note_on channel=3 note=63 velocity=100 time=120
Time=97680 Track=4 note_on channel=3 note=66 velocity=100 time=0
Time=97680 Track=4 note_on channel=3 note=70 velocity=100 time=0
Time=97680 Track=5 note_on channel=4 note=51 velocity=100 time=360
Time=97680 Track=5 note_on channel=4 note=54 velocity=100 time=0
Time=97680 Track=5 note_on channel=4 note=58 velocity=100 time=0
Time=97745 Track=3 note_off channel=2 note=85 velocity=0 time=65
Time=97800 Track=2 note_off channel=1 note=37 velocity=64 time=120
Time=97800 Track=4 note_off channel=3 note=63 velocity=0 time=120
Time=97800 Track=4 note_off channel=3 note=66 velocity=0 time=0
Time=97800 Track=4 note_off channel=3 note=70 velocity=0 time=0
Time=97800 Track=5 note_off channel=4 note=51 velocity=0 time=120
Time=97800 Track=5 note_off channel=4 note=54 velocity=0 time=0
Time=97800 Track=5 note_off channel=4 note=58 velocity=0 time=0
Time=97920 Track=2 note_on channel=1 note=34 velocity=100 time=120
Time=97920 Track=3 note_on channel=2 note=85 velocity=55 time=175
Time=98160 Track=2 note_off channel=1 note=34 velocity=64 time=240
Time=98160 Track=4 note_on channel=3 note=70 velocity=100 time=360
Time=98160 Track=4 note_on channel=3 note=73 velocity=100 time=0
Time=98160 Track=4 note_on channel=3 note=77 velocity=100 time=0
Time=98160 Track=5 note_on channel=4 note=58 velocity=100 time=360
Time=98160 Track=5 note_on channel=4 note=61 velocity=100 time=0
Time=98160 Track=5 note_on channel=4 note=65 velocity=100 time=0
Time=98280 Track=2 note_on channel=1 note=34 velocity=100 time=120
Time=98280 Track=4 note_off channel=3 note=70 velocity=0 time=120
Time=98280 Track=4 note_off channel=3 note=73 velocity=0 time=0
Time=98280 Track=4 note_off channel=3 note=77 velocity=0 time=0
Time=98280 Track=5 note_off channel=4 note=58 velocity=0 time=120
Time=98280 Track=5 note_off channel=4 note=61 velocity=0 time=0
Time=98280 Track=5 note_off channel=4 note=65 velocity=0 time=0
Time=98311 Track=3 note_off channel=2 note=85 velocity=0 time=391
Time=98400 Track=2 note_off channel=1 note=34 velocity=64 time=120
Time=98400 Track=2 note_on channel=1 note=41 velocity=100 time=0
Time=98400 Track=4 note_on channel=3 note=70 velocity=100 time=120
Time=98400 Track=4 note_on channel=3 note=73 velocity=100 time=0
Time=98400 Track=4 note_on channel=3 note=77 velocity=100 time=0
Time=98520 Track=2 note_off channel=1 note=41 velocity=64 time=120
Time=98520 Track=2 note_on channel=1 note=41 velocity=100 time=0
Time=98520 Track=3 note_on channel=2 note=85 velocity=42 time=209
Time=98520 Track=4 note_off channel=3 note=70 velocity=0 time=120
Time=98520 Track=4 note_off channel=3 note=73 velocity=0 time=0
Time=98520 Track=4 note_off channel=3 note=77 velocity=0 time=0
Time=98578 Track=3 note_off channel=2 note=85 velocity=0 time=58
Time=98640 Track=2 note_off channel=1 note=41 velocity=64 time=120
Time=98640 Track=2 note_on channel=1 note=41 velocity=100 time=0
Time=98640 Track=3 note_on channel=2 note=85 velocity=42 time=62
Time=98640 Track=4 note_on channel=3 note=70 velocity=100 time=120
Time=98640 Track=4 note_on channel=3 note=73 velocity=100 time=0
Time=98640 Track=4 note_on channel=3 note=77 velocity=100 time=0
Time=98640 Track=5 note_on channel=4 note=58 velocity=100 time=360
Time=98640 Track=5 note_on channel=4 note=61 velocity=100 time=0
Time=98640 Track=5 note_on channel=4 note=65 velocity=100 time=0
Time=98744 Track=3 note_off channel=2 note=85 velocity=0 time=104
Time=98760 Track=2 note_off channel=1 note=41 velocity=64 time=120
Time=98760 Track=4 note_off channel=3 note=70 velocity=0 time=120
Time=98760 Track=4 note_off channel=3 note=73 velocity=0 time=0
Time=98760 Track=4 note_off channel=3 note=77 velocity=0 time=0
Time=98760 Track=5 note_off channel=4 note=58 velocity=0 time=120
Time=98760 Track=5 note_off channel=4 note=61 velocity=0 time=0
Time=98760 Track=5 note_off channel=4 note=65 velocity=0 time=0
Time=98880 Track=2 note_on channel=1 note=44 velocity=100 time=120
Time=98880 Track=3 note_on channel=2 note=87 velocity=39 time=136
Time=99000 Track=2 note_off channel=1 note=44 velocity=64 time=120
Time=99120 Track=3 note_on channel=2 note=84 velocity=58 time=240
Time=99120 Track=4 note_on channel=3 note=68 velocity=100 time=360
Time=99120 Track=4 note_on channel=3 note=72 velocity=100 time=0
Time=99120 Track=4 note_on channel=3 note=75 velocity=100 time=0
Time=99120 Track=5 note_on channel=4 note=56 velocity=100 time=360
Time=99120 Track=5 note_on channel=4 note=60 velocity=100 time=0
Time=99120 Track=5 note_on channel=4 note=63 velocity=100 time=0
Time=99125 Track=3 note_off channel=2 note=87 velocity=0 time=5
Time=99178 Track=3 note_off channel=2 note=84 velocity=0 time=53
Time=99240 Track=2 note_on channel=1 note=32 velocity=100 time=240
Time=99240 Track=3 note_on channel=2 note=84 velocity=45 time=62
Time=99240 Track=4 note_off channel=3 note=68 velocity=0 time=120
Time=99240 Track=4 note_off channel=3 note=72 velocity=0 time=0
Time=99240 Track=4 note_off channel=3 note=75 velocity=0 time=0
Time=99240 Track=5 note_off channel=4 note=56 velocity=0 time=120
Time=99240 Track=5 note_off channel=4 note=60 velocity=0 time=0
Time=99240 Track=5 note_off channel=4 note=63 velocity=0 time=0
Time=99330 Track=3 note_off channel=2 note=84 velocity=0 time=90
Time=99360 Track=2 note_off channel=1 note=32 velocity=64 time=120
Time=99360 Track=2 note_on channel=1 note=39 velocity=100 time=0
Time=99360 Track=3 note_on channel=2 note=84 velocity=49 time=30
Time=99360 Track=4 note_on channel=3 note=68 velocity=100 time=120
Time=99360 Track=4 note_on channel=3 note=72 velocity=100 time=0
Time=99360 Track=4 note_on channel=3 note=75 velocity=100 time=0
Time=99450 Track=3 note_off channel=2 note=84 velocity=0 time=90
Time=99450 Track=3 note_on channel=2 note=85 velocity=36 time=0
Time=99480 Track=2 note_off channel=1 note=39 velocity=64 time=120
Time=99480 Track=2 note_on channel=1 note=39 velocity=100 time=0
Time=99480 Track=4 note_off channel=3 note=68 velocity=0 time=120
Time=99480 Track=4 note_off channel=3 note=72 velocity=0 time=0
Time=99480 Track=4 note_off channel=3 note=75 velocity=0 time=0
Time=99570 Track=3 note_off channel=2 note=85 velocity=0 time=120
Time=99600 Track=2 note_off channel=1 note=39 velocity=64 time=120
Time=99600 Track=2 note_on channel=1 note=39 velocity=100 time=0
Time=99600 Track=3 note_on channel=2 note=84 velocity=66 time=30
Time=99600 Track=4 note_on channel=3 note=68 velocity=100 time=120
Time=99600 Track=4 note_on channel=3 note=72 velocity=100 time=0
Time=99600 Track=4 note_on channel=3 note=75 velocity=100 time=0
Time=99600 Track=5 note_on channel=4 note=56 velocity=100 time=360
Time=99600 Track=5 note_on channel=4 note=60 velocity=100 time=0
Time=99600 Track=5 note_on channel=4 note=63 velocity=100 time=0
Time=99720 Track=2 note_off channel=1 note=39 velocity=64 time=120
Time=99720 Track=3 note_off channel=2 note=84 velocity=0 time=120
Time=99720 Track=4 note_off channel=3 note=68 velocity=0 time=120
Time=99720 Track=4 note_off channel=3 note=72 velocity=0 time=0
Time=99720 Track=4 note_off channel=3 note=75 velocity=0 time=0
Time=99720 Track=5 note_off channel=4 note=56 velocity=0 time=120
Time=99720 Track=5 note_off channel=4 note=60 velocity=0 time=0
Time=99720 Track=5 note_off channel=4 note=63 velocity=0 time=0
Time=99840 Track=2 note_on channel=1 note=27 velocity=100 time=120
Time=99840 Track=3 note_on channel=2 note=85 velocity=66 time=120
Time=99960 Track=2 note_off channel=1 note=27 velocity=64 time=120
Time=100050 Track=3 note_off channel=2 note=85 velocity=0 time=210
Time=100080 Track=3 note_on channel=2 note=82 velocity=33 time=30
Time=100080 Track=4 note_on channel=3 note=63 velocity=100 time=360
Time=100080 Track=4 note_on channel=3 note=66 velocity=100 time=0
Time=100080 Track=4 note_on channel=3 note=70 velocity=100 time=0
Time=100080 Track=5 note_on channel=4 note=51 velocity=100 time=360
Time=100080 Track=5 note_on channel=4 note=54 velocity=100 time=0
Time=100080 Track=5 note_on channel=4 note=58 velocity=100 time=0
Time=100080 Track=7 note_on channel=6 note=70 velocity=102 time=2760
Time=100170 Track=3 note_off channel=2 note=82 velocity=0 time=90
Time=100200 Track=4 note_off channel=3 note=63 velocity=0 time=120
Time=100200 Track=4 note_off channel=3 note=66 velocity=0 time=0
Time=100200 Track=4 note_off channel=3 note=70 velocity=0 time=0
Time=100200 Track=5 note_off channel=4 note=51 velocity=0 time=120
Time=100200 Track=5 note_off channel=4 note=54 velocity=0 time=0
Time=100200 Track=5 note_off channel=4 note=58 velocity=0 time=0
Time=100200 Track=7 note_off channel=6 note=70 velocity=0 time=120
Time=100320 Track=2 note_on channel=1 note=34 velocity=100 time=360
Time=100320 Track=4 note_on channel=3 note=63 velocity=100 time=120
Time=100320 Track=4 note_on channel=3 note=66 velocity=100 time=0
Time=100320 Track=4 note_on channel=3 note=70 velocity=100 time=0
Time=100440 Track=2 note_off channel=1 note=34 velocity=64 time=120
Time=100440 Track=2 note_on channel=1 note=34 velocity=100 time=0
Time=100440 Track=4 note_off channel=3 note=63 velocity=0 time=120
Time=100440 Track=4 note_off channel=3 note=66 velocity=0 time=0
Time=100440 Track=4 note_off channel=3 note=70 velocity=0 time=0
Time=100560 Track=2 note_off channel=1 note=34 velocity=64 time=120
Time=100560 Track=2 note_on channel=1 note=34 velocity=100 time=0
Time=100560 Track=4 note_on channel=3 note=63 velocity=100 time=120
Time=100560 Track=4 note_on channel=3 note=66 velocity=100 time=0
Time=100560 Track=4 note_on channel=3 note=70 velocity=100 time=0
Time=100560 Track=5 note_on channel=4 note=51 velocity=100 time=360
Time=100560 Track=5 note_on channel=4 note=54 velocity=100 time=0
Time=100560 Track=5 note_on channel=4 note=58 velocity=100 time=0
Time=100560 Track=7 note_on channel=6 note=70 velocity=127 time=360
Time=100680 Track=2 note_off channel=1 note=34 velocity=64 time=120
Time=100680 Track=4 note_off channel=3 note=63 velocity=0 time=120
Time=100680 Track=4 note_off channel=3 note=66 velocity=0 time=0
Time=100680 Track=4 note_off channel=3 note=70 velocity=0 time=0
Time=100680 Track=5 note_off channel=4 note=51 velocity=0 time=120
Time=100680 Track=5 note_off channel=4 note=54 velocity=0 time=0
Time=100680 Track=5 note_off channel=4 note=58 velocity=0 time=0
Time=100680 Track=7 note_off channel=6 note=70 velocity=0 time=120
Time=100800 Track=2 note_on channel=1 note=39 velocity=100 time=120
Time=100800 Track=7 note_on channel=6 note=77 velocity=127 time=120
Time=100800 Track=10 note_on channel=9 note=40 velocity=60 time=883
Time=100800 Track=10 note_on channel=9 note=45 velocity=119 time=0
Time=100860 Track=10 note_off channel=9 note=40 velocity=0 time=60
Time=100860 Track=10 note_off channel=9 note=45 velocity=0 time=0
Time=100920 Track=2 note_off channel=1 note=39 velocity=64 time=120
Time=100927 Track=7 note_off channel=6 note=77 velocity=0 time=127
Time=101040 Track=7 note_on channel=6 note=75 velocity=127 time=113
Time=101160 Track=7 note_off channel=6 note=75 velocity=0 time=120
Time=101160 Track=10 note_on channel=9 note=40 velocity=120 time=300
Time=101200 Track=10 note_off channel=9 note=40 velocity=0 time=40
Time=101220 Track=10 note_on channel=9 note=40 velocity=120 time=20
Time=101260 Track=10 note_off channel=9 note=40 velocity=0 time=40
Time=101280 Track=10 note_on channel=9 note=40 velocity=120 time=20
Time=101340 Track=10 note_off channel=9 note=40 velocity=0 time=60
Time=101400 Track=10 note_on channel=9 note=40 velocity=120 time=60
Time=101460 Track=10 note_off channel=9 note=40 velocity=0 time=60
Time=101520 Track=10 note_on channel=9 note=40 velocity=120 time=60
Time=101579 Track=10 note_off channel=9 note=40 velocity=0 time=59
Time=101760 Track=2 note_on channel=1 note=34 velocity=100 time=840
Time=101760 Track=10 note_on channel=9 note=36 velocity=127 time=181
Time=101760 Track=10 note_on channel=9 note=41 velocity=127 time=0
Time=101760 Track=10 note_on channel=9 note=42 velocity=100 time=0
Time=101820 Track=10 note_off channel=9 note=42 velocity=0 time=60
Time=101821 Track=10 note_off channel=9 note=36 velocity=0 time=1
Time=101821 Track=10 note_off channel=9 note=41 velocity=0 time=0
Time=102000 Track=2 note_off channel=1 note=34 velocity=64 time=240
Time=102000 Track=5 note_on channel=4 note=58 velocity=100 time=1320
Time=102000 Track=5 note_on channel=4 note=61 velocity=100 time=0
Time=102000 Track=5 note_on channel=4 note=65 velocity=100 time=0
Time=102001 Track=10 note_on channel=9 note=40 velocity=60 time=82
Time=102061 Track=10 note_off channel=9 note=40 velocity=0 time=60
Time=102120 Track=2 note_on channel=1 note=37 velocity=100 time=120
Time=102120 Track=5 note_off channel=4 note=58 velocity=0 time=120
Time=102120 Track=5 note_off channel=4 note=61 velocity=0 time=0
Time=102120 Track=5 note_off channel=4 note=65 velocity=0 time=0
Time=102120 Track=10 note_on channel=9 note=40 velocity=120 time=59
Time=102120 Track=10 note_on channel=9 note=42 velocity=100 time=0
Time=102180 Track=10 note_off channel=9 note=40 velocity=0 time=60
Time=102180 Track=10 note_off channel=9 note=42 velocity=0 time=0
Time=102240 Track=2 note_off channel=1 note=37 velocity=64 time=120
Time=102240 Track=2 note_on channel=1 note=41 velocity=100 time=0
Time=102240 Track=10 note_on channel=9 note=36 velocity=127 time=60
Time=102240 Track=10 note_on channel=9 note=42 velocity=100 time=0
Time=102300 Track=10 note_off channel=9 note=36 velocity=0 time=31
Time=102302 Track=10 note_off channel=9 note=42 velocity=0 time=2
Time=102360 Track=2 note_off channel=1 note=41 velocity=64 time=120
Time=102360 Track=3 note_on channel=2 note=85 velocity=38 time=2190
Time=102419 Track=3 note_off channel=2 note=85 velocity=0 time=59
Time=102480 Track=2 note_on channel=1 note=41 velocity=100 time=120
Time=102480 Track=3 note_on channel=2 note=85 velocity=40 time=61
Time=102480 Track=5 note_on channel=4 note=58 velocity=100 time=360
Time=102480 Track=5 note_on channel=4 note=61 velocity=100 time=0
Time=102480 Track=5 note_on channel=4 note=65 velocity=100 time=0
Time=102480 Track=10 note_on channel=9 note=40 velocity=120 time=178
Time=102480 Track=10 note_on channel=9 note=42 velocity=100 time=0
Time=102540 Track=3 note_off channel=2 note=85 velocity=0 time=60
Time=102540 Track=10 note_off channel=9 note=40 velocity=0 time=60
Time=102540 Track=10 note_off channel=9 note=42 velocity=0 time=0
Time=102600 Track=2 note_off channel=1 note=41 velocity=64 time=120
Time=102600 Track=3 note_on channel=2 note=85 velocity=40 time=60
Time=102600 Track=5 note_off channel=4 note=58 velocity=0 time=120
Time=102600 Track=5 note_off channel=4 note=61 velocity=0 time=0
Time=102600 Track=5 note_off channel=4 note=65 velocity=0 time=0
Time=102660 Track=3 note_off channel=2 note=85 velocity=0 time=60
Time=102720 Track=2 note_on channel=1 note=32 velocity=100 time=120
Time=102720 Track=3 note_on channel=2 note=87 velocity=51 time=60
Time=102720 Track=10 note_on channel=9 note=36 velocity=127 time=180
Time=102720 Track=10 note_on channel=9 note=41 velocity=127 time=0
Time=102720 Track=10 note_on channel=9 note=42 velocity=100 time=0
Time=102780 Track=10 note_off channel=9 note=36 velocity=0 time=60
Time=102780 Track=10 note_off channel=9 note=41 velocity=0 time=0
Time=102780 Track=10 note_off channel=9 note=42 velocity=0 time=0
Time=102942 Track=3 note_off channel=2 note=87 velocity=0 time=222
Time=102960 Track=2 note_off channel=1 note=32 velocity=64 time=240
Time=102960 Track=3 note_on channel=2 note=84 velocity=43 time=18
Time=102960 Track=4 note_on channel=3 note=68 velocity=100 time=2280
Time=102960 Track=4 note_on channel=3 note=72 velocity=100 time=0
Time=102960 Track=4 note_on channel=3 note=75 velocity=100 time=0
Time=102960 Track=5 note_on channel=4 note=56 velocity=100 time=360
Time=102960 Track=5 note_on channel=4 note=60 velocity=100 time=0
Time=102960 Track=5 note_on channel=4 note=63 velocity=100 time=0
Time=102960 Track=10 note_on channel=9 note=40 velocity=60 time=180
Time=103020 Track=10 note_off channel=9 note=40 velocity=0 time=60
Time=103027 Track=3 note_off channel=2 note=84 velocity=0 time=67
Time=103080 Track=2 note_on channel=1 note=36 velocity=100 time=120
Time=103080 Track=3 note_on channel=2 note=84 velocity=51 time=53
Time=103080 Track=4 note_off channel=3 note=68 velocity=0 time=120
Time=103080 Track=4 note_off channel=3 note=72 velocity=0 time=0
Time=103080 Track=4 note_off channel=3 note=75 velocity=0 time=0
Time=103080 Track=5 note_off channel=4 note=56 velocity=0 time=120
Time=103080 Track=5 note_off channel=4 note=60 velocity=0 time=0
Time=103080 Track=5 note_off channel=4 note=63 velocity=0 time=0
Time=103080 Track=10 note_on channel=9 note=40 velocity=120 time=60
Time=103080 Track=10 note_on channel=9 note=42 velocity=100 time=0
Time=103140 Track=10 note_off channel=9 note=40 velocity=0 time=60
Time=103140 Track=10 note_off channel=9 note=42 velocity=0 time=0
Time=103146 Track=3 note_off channel=2 note=84 velocity=0 time=66
Time=103200 Track=2 note_off channel=1 note=36 velocity=64 time=120
Time=103200 Track=2 note_on channel=1 note=39 velocity=100 time=0
Time=103200 Track=3 note_on channel=2 note=84 velocity=54 time=54
Time=103200 Track=4 note_on channel=3 note=68 velocity=100 time=120
Time=103200 Track=4 note_on channel=3 note=72 velocity=100 time=0
Time=103200 Track=4 note_on channel=3 note=75 velocity=100 time=0
Time=103200 Track=10 note_on channel=9 note=36 velocity=127 time=60
Time=103200 Track=10 note_on channel=9 note=42 velocity=100 time=0
Time=103260 Track=10 note_off channel=9 note=36 velocity=0 time=60
Time=103260 Track=10 note_off channel=9 note=42 velocity=0 time=0
Time=103275 Track=3 note_off channel=2 note=84 velocity=0 time=75
Time=103320 Track=2 note_off channel=1 note=39 velocity=64 time=120
Time=103320 Track=3 note_on channel=2 note=85 velocity=44 time=45
Time=103320 Track=4 note_off channel=3 note=68 velocity=0 time=120
Time=103320 Track=4 note_off channel=3 note=72 velocity=0 time=0
Time=103320 Track=4 note_off channel=3 note=75 velocity=0 time=0
Time=103431 Track=3 note_off channel=2 note=85 velocity=0 time=111
Time=103440 Track=2 note_on channel=1 note=39 velocity=100 time=120
Time=103440 Track=3 note_on channel=2 note=84 velocity=58 time=9
Time=103440 Track=4 note_on channel=3 note=68 velocity=100 time=120
Time=103440 Track=4 note_on channel=3 note=72 velocity=100 time=0
Time=103440 Track=4 note_on channel=3 note=75 velocity=100 time=0
Time=103440 Track=5 note_on channel=4 note=56 velocity=100 time=360
Time=103440 Track=5 note_on channel=4 note=60 velocity=100 time=0
Time=103440 Track=5 note_on channel=4 note=63 velocity=100 time=0
Time=103440 Track=10 note_on channel=9 note=40 velocity=120 time=180
Time=103440 Track=10 note_on channel=9 note=42 velocity=100 time=0
Time=103500 Track=10 note_off channel=9 note=40 velocity=0 time=60
Time=103500 Track=10 note_off channel=9 note=42 velocity=0 time=0
Time=103544 Track=3 note_off channel=2 note=84 velocity=0 time=104
Time=103560 Track=2 note_off channel=1 note=39 velocity=64 time=120
Time=103560 Track=4 note_off channel=3 note=68 velocity=0 time=120
Time=103560 Track=4 note_off channel=3 note=72 velocity=0 time=0
Time=103560 Track=4 note_off channel=3 note=75 velocity=0 time=0
Time=103560 Track=5 note_off channel=4 note=56 velocity=0 time=120
Time=103560 Track=5 note_off channel=4 note=60 velocity=0 time=0
Time=103560 Track=5 note_off channel=4 note=63 velocity=0 time=0
Time=103680 Track=2 note_on channel=1 note=27 velocity=100 time=120
Time=103680 Track=3 note_on channel=2 note=85 velocity=51 time=136
Time=103680 Track=10 note_on channel=9 note=36 velocity=127 time=180
Time=103680 Track=10 note_on channel=9 note=41 velocity=127 time=0
Time=103680 Track=10 note_on channel=9 note=42 velocity=100 time=0
Time=103740 Track=10 note_off channel=9 note=36 velocity=0 time=60
Time=103740 Track=10 note_off channel=9 note=41 velocity=0 time=0
Time=103740 Track=10 note_off channel=9 note=42 velocity=0 time=0
Time=103919 Track=3 note_off channel=2 note=85 velocity=0 time=239
Time=103920 Track=2 note_off channel=1 note=27 velocity=64 time=240
Time=103920 Track=3 note_on channel=2 note=82 velocity=53 time=1
Time=103920 Track=4 note_on channel=3 note=63 velocity=100 time=360
Time=103920 Track=4 note_on channel=3 note=66 velocity=100 time=0
Time=103920 Track=4 note_on channel=3 note=70 velocity=100 time=0
Time=103920 Track=5 note_on channel=4 note=51 velocity=100 time=360
Time=103920 Track=5 note_on channel=4 note=54 velocity=100 time=0
Time=103920 Track=5 note_on channel=4 note=58 velocity=100 time=0
Time=103920 Track=7 note_on channel=6 note=70 velocity=102 time=2760
Time=103920 Track=10 note_on channel=9 note=40 velocity=60 time=180
Time=103980 Track=10 note_off channel=9 note=40 velocity=0 time=60
Time=103986 Track=3 note_off channel=2 note=82 velocity=0 time=66
Time=104040 Track=2 note_on channel=1 note=27 velocity=100 time=120
Time=104040 Track=4 note_off channel=3 note=63 velocity=0 time=120
Time=104040 Track=4 note_off channel=3 note=66 velocity=0 time=0
Time=104040 Track=4 note_off channel=3 note=70 velocity=0 time=0
Time=104040 Track=5 note_off channel=4 note=51 velocity=0 time=120
Time=104040 Track=5 note_off channel=4 note=54 velocity=0 time=0
Time=104040 Track=5 note_off channel=4 note=58 velocity=0 time=0
Time=104040 Track=7 note_off channel=6 note=70 velocity=0 time=120
Time=104040 Track=10 note_on channel=9 note=40 velocity=120 time=60
Time=104040 Track=10 note_on channel=9 note=42 velocity=100 time=0
Time=104099 Track=10 note_off channel=9 note=40 velocity=0 time=59
Time=104100 Track=10 note_off channel=9 note=42 velocity=0 time=1
Time=104160 Track=2 note_off channel=1 note=27 velocity=64 time=120
Time=104160 Track=2 note_on channel=1 note=34 velocity=100 time=0
Time=104160 Track=4 note_on channel=3 note=63 velocity=100 time=120
Time=104160 Track=4 note_on channel=3 note=66 velocity=100 time=0
Time=104160 Track=4 note_on channel=3 note=70 velocity=100 time=0
Time=104160 Track=10 note_on channel=9 note=36 velocity=127 time=60
Time=104160 Track=10 note_on channel=9 note=42 velocity=100 time=0
Time=104220 Track=10 note_off channel=9 note=36 velocity=0 time=60
Time=104220 Track=10 note_off channel=9 note=42 velocity=0 time=0
Time=104280 Track=2 note_off channel=1 note=34 velocity=64 time=120
Time=104280 Track=4 note_off channel=3 note=63 velocity=0 time=120
Time=104280 Track=4 note_off channel=3 note=66 velocity=0 time=0
Time=104280 Track=4 note_off channel=3 note=70 velocity=0 time=0
Time=104400 Track=2 note_on channel=1 note=34 velocity=100 time=120
Time=104400 Track=3 note_on channel=2 note=82 velocity=55 time=414
Time=104400 Track=4 note_on channel=3 note=63 velocity=100 time=120
Time=104400 Track=4 note_on channel=3 note=66 velocity=100 time=0
Time=104400 Track=4 note_on channel=3 note=70 velocity=100 time=0
Time=104400 Track=5 note_on channel=4 note=51 velocity=100 time=360
Time=104400 Track=5 note_on channel=4 note=54 velocity=100 time=0
Time=104400 Track=5 note_on channel=4 note=58 velocity=100 time=0
Time=104400 Track=7 note_on channel=6 note=70 velocity=127 time=360
Time=104400 Track=10 note_on channel=9 note=40 velocity=120 time=180
Time=104400 Track=10 note_on channel=9 note=42 velocity=100 time=0
Time=104459 Track=3 note_off channel=2 note=82 velocity=0 time=59
Time=104459 Track=10 note_off channel=9 note=40 velocity=0 time=59
Time=104460 Track=10 note_off channel=9 note=42 velocity=0 time=1
Time=104520 Track=2 note_off channel=1 note=34 velocity=64 time=120
Time=104520 Track=4 note_off channel=3 note=63 velocity=0 time=120
Time=104520 Track=4 note_off channel=3 note=66 velocity=0 time=0
Time=104520 Track=4 note_off channel=3 note=70 velocity=0 time=0
Time=104520 Track=5 note_off channel=4 note=51 velocity=0 time=120
Time=104520 Track=5 note_off channel=4 note=54 velocity=0 time=0
Time=104520 Track=5 note_off channel=4 note=58 velocity=0 time=0
Time=104520 Track=7 note_off channel=6 note=70 velocity=0 time=120
Time=104640 Track=2 note_on channel=1 note=27 velocity=100 time=120
Time=104640 Track=3 note_on channel=2 note=89 velocity=46 time=181
Time=104640 Track=7 note_on channel=6 note=77 velocity=127 time=120
Time=104640 Track=10 note_on channel=9 note=36 velocity=127 time=180
Time=104640 Track=10 note_on channel=9 note=41 velocity=127 time=0
Time=104640 Track=10 note_on channel=9 note=42 velocity=100 time=0
Time=104700 Track=10 note_off channel=9 note=36 velocity=0 time=60
Time=104700 Track=10 note_off channel=9 note=41 velocity=0 time=0
Time=104700 Track=10 note_off channel=9 note=42 velocity=0 time=0
Time=104759 Track=3 note_off channel=2 note=89 velocity=0 time=119
Time=104767 Track=7 note_off channel=6 note=77 velocity=0 time=127
Time=104880 Track=2 note_off channel=1 note=27 velocity=64 time=240
Time=104880 Track=3 note_on channel=2 note=87 velocity=51 time=121
Time=104880 Track=4 note_on channel=3 note=63 velocity=100 time=360
Time=104880 Track=4 note_on channel=3 note=66 velocity=100 time=0
Time=104880 Track=4 note_on channel=3 note=70 velocity=100 time=0
Time=104880 Track=5 note_on channel=4 note=51 velocity=100 time=360
Time=104880 Track=5 note_on channel=4 note=54 velocity=100 time=0
Time=104880 Track=5 note_on channel=4 note=58 velocity=100 time=0
Time=104880 Track=7 note_on channel=6 note=75 velocity=127 time=113
Time=104880 Track=10 note_on channel=9 note=40 velocity=60 time=180
Time=104939 Track=3 note_off channel=2 note=87 velocity=0 time=59
Time=104940 Track=10 note_off channel=9 note=40 velocity=0 time=60
Time=105000 Track=2 note_on channel=1 note=27 velocity=100 time=120
Time=105000 Track=3 note_on channel=2 note=89 velocity=48 time=61
Time=105000 Track=4 note_off channel=3 note=63 velocity=0 time=120
Time=105000 Track=4 note_off channel=3 note=66 velocity=0 time=0
Time=105000 Track=4 note_off channel=3 note=70 velocity=0 time=0
Time=105000 Track=5 note_off channel=4 note=51 velocity=0 time=120
Time=105000 Track=5 note_off channel=4 note=54 velocity=0 time=0
Time=105000 Track=5 note_off channel=4 note=58 velocity=0 time=0
Time=105000 Track=7 note_off channel=6 note=75 velocity=0 time=120
Time=105000 Track=10 note_on channel=9 note=40 velocity=120 time=60
Time=105000 Track=10 note_on channel=9 note=42 velocity=100 time=0
Time=105060 Track=10 note_off channel=9 note=40 velocity=0 time=60
Time=105060 Track=10 note_off channel=9 note=42 velocity=0 time=0
Time=105119 Track=3 note_off channel=2 note=89 velocity=0 time=119
Time=105120 Track=2 note_off channel=1 note=27 velocity=64 time=120
Time=105120 Track=2 note_on channel=1 note=37 velocity=100 time=0
Time=105120 Track=3 note_on channel=2 note=87 velocity=59 time=1
Time=105120 Track=4 note_on channel=3 note=63 velocity=100 time=120
Time=105120 Track=4 note_on channel=3 note=66 velocity=100 time=0
Time=105120 Track=4 note_on channel=3 note=70 velocity=100 time=0
Time=105120 Track=10 note_on channel=9 note=36 velocity=127 time=60
Time=105120 Track=10 note_on channel=9 note=42 velocity=100 time=0
Time=105180 Track=10 note_off channel=9 note=36 velocity=0 time=60
Time=105180 Track=10 note_off channel=9 note=42 velocity=0 time=0
Time=105210 Track=3 note_off channel=2 note=87 velocity=0 time=90
Time=105240 Track=2 note_off channel=1 note=37 velocity=64 time=120
Time=105240 Track=3 note_on channel=2 note=85 velocity=36 time=30
Time=105240 Track=4 note_off channel=3 note=63 velocity=0 time=120
Time=105240 Track=4 note_off channel=3 note=66 velocity=0 time=0
Time=105240 Track=4 note_off channel=3 note=70 velocity=0 time=0
Time=105277 Track=3 note_off channel=2 note=85 velocity=0 time=37
Time=105360 Track=2 note_on channel=1 note=37 velocity=100 time=120
Time=105360 Track=3 note_on channel=2 note=85 velocity=55 time=83
Time=105360 Track=4 note_on channel=3 note=63 velocity=100 time=120
Time=105360 Track=4 note_on channel=3 note=66 velocity=100 time=0
Time=105360 Track=4 note_on channel=3 note=70 velocity=100 time=0
Time=105360 Track=5 note_on channel=4 note=51 velocity=100 time=360
Time=105360 Track=5 note_on channel=4 note=54 velocity=100 time=0
Time=105360 Track=5 note_on channel=4 note=58 velocity=100 time=0
Time=105360 Track=10 note_on channel=9 note=40 velocity=120 time=180
Time=105360 Track=10 note_on channel=9 note=42 velocity=100 time=0
Time=105420 Track=10 note_off channel=9 note=40 velocity=0 time=16
Time=105420 Track=10 note_off channel=9 note=42 velocity=0 time=0
Time=105425 Track=3 note_off channel=2 note=85 velocity=0 time=65
Time=105480 Track=2 note_off channel=1 note=37 velocity=64 time=120
Time=105480 Track=4 note_off channel=3 note=63 velocity=0 time=120
Time=105480 Track=4 note_off channel=3 note=66 velocity=0 time=0
Time=105480 Track=4 note_off channel=3 note=70 velocity=0 time=0
Time=105480 Track=5 note_off channel=4 note=51 velocity=0 time=120
Time=105480 Track=5 note_off channel=4 note=54 velocity=0 time=0
Time=105480 Track=5 note_off channel=4 note=58 velocity=0 time=0
Time=105600 Track=2 note_on channel=1 note=34 velocity=100 time=120
Time=105600 Track=3 note_on channel=2 note=85 velocity=55 time=175
Time=105600 Track=10 note_on channel=9 note=36 velocity=127 time=180
Time=105600 Track=10 note_on channel=9 note=41 velocity=127 time=0
Time=105600 Track=10 note_on channel=9 note=42 velocity=100 time=0
Time=105660 Track=10 note_off channel=9 note=36 velocity=0 time=60
Time=105660 Track=10 note_off channel=9 note=41 velocity=0 time=0
Time=105660 Track=10 note_off channel=9 note=42 velocity=0 time=0
Time=105840 Track=2 note_off channel=1 note=34 velocity=64 time=240
Time=105840 Track=4 note_on channel=3 note=70 velocity=100 time=360
Time=105840 Track=4 note_on channel=3 note=73 velocity=100 time=0
Time=105840 Track=4 note_on channel=3 note=77 velocity=100 time=0
Time=105840 Track=5 note_on channel=4 note=58 velocity=100 time=360
Time=105840 Track=5 note_on channel=4 note=61 velocity=100 time=0
Time=105840 Track=5 note_on channel=4 note=65 velocity=100 time=0
Time=105840 Track=10 note_on channel=9 note=40 velocity=60 time=144
Time=105900 Track=10 note_off channel=9 note=40 velocity=0 time=60
Time=105960 Track=2 note_on channel=1 note=37 velocity=100 time=120
Time=105960 Track=4 note_off channel=3 note=70 velocity=0 time=120
Time=105960 Track=4 note_off channel=3 note=73 velocity=0 time=0
Time=105960 Track=4 note_off channel=3 note=77 velocity=0 time=0
Time=105960 Track=5 note_off channel=4 note=58 velocity=0 time=120
Time=105960 Track=5 note_off channel=4 note=61 velocity=0 time=0
Time=105960 Track=5 note_off channel=4 note=65 velocity=0 time=0
Time=105960 Track=10 note_on channel=9 note=40 velocity=120 time=60
Time=105960 Track=10 note_on channel=9 note=42 velocity=100 time=0
Time=105991 Track=3 note_off channel=2 note=85 velocity=0 time=391
Time=106020 Track=10 note_off channel=9 note=40 velocity=0 time=60
Time=106020 Track=10 note_off channel=9 note=42 velocity=0 time=0
Time=106080 Track=2 note_off channel=1 note=37 velocity=64 time=120
Time=106080 Track=2 note_on channel=1 note=41 velocity=100 time=0
Time=106080 Track=4 note_on channel=3 note=70 velocity=100 time=120
Time=106080 Track=4 note_on channel=3 note=73 velocity=100 time=0
Time=106080 Track=4 note_on channel=3 note=77 velocity=100 time=0
Time=106080 Track=10 note_on channel=9 note=36 velocity=127 time=60
Time=106080 Track=10 note_on channel=9 note=42 velocity=100 time=0
Time=106140 Track=10 note_off channel=9 note=36 velocity=0 time=60
Time=106140 Track=10 note_off channel=9 note=42 velocity=0 time=0
Time=106200 Track=2 note_off channel=1 note=41 velocity=64 time=120
Time=106200 Track=3 note_on channel=2 note=85 velocity=42 time=209
Time=106200 Track=4 note_off channel=3 note=70 velocity=0 time=120
Time=106200 Track=4 note_off channel=3 note=73 velocity=0 time=0
Time=106200 Track=4 note_off channel=3 note=77 velocity=0 time=0
Time=106258 Track=3 note_off channel=2 note=85 velocity=0 time=58
Time=106320 Track=2 note_on channel=1 note=41 velocity=100 time=120
Time=106320 Track=3 note_on channel=2 note=85 velocity=42 time=62
Time=106320 Track=4 note_on channel=3 note=70 velocity=100 time=120
Time=106320 Track=4 note_on channel=3 note=73 velocity=100 time=0
Time=106320 Track=4 note_on channel=3 note=77 velocity=100 time=0
Time=106320 Track=5 note_on channel=4 note=58 velocity=100 time=360
Time=106320 Track=5 note_on channel=4 note=61 velocity=100 time=0
Time=106320 Track=5 note_on channel=4 note=65 velocity=100 time=0
Time=106320 Track=10 note_on channel=9 note=40 velocity=120 time=180
Time=106320 Track=10 note_on channel=9 note=42 velocity=100 time=0
Time=106380 Track=10 note_off channel=9 note=40 velocity=0 time=60
Time=106380 Track=10 note_off channel=9 note=42 velocity=0 time=0
Time=106424 Track=3 note_off channel=2 note=85 velocity=0 time=104
Time=106440 Track=2 note_off channel=1 note=41 velocity=64 time=120
Time=106440 Track=4 note_off channel=3 note=70 velocity=0 time=120
Time=106440 Track=4 note_off channel=3 note=73 velocity=0 time=0
Time=106440 Track=4 note_off channel=3 note=77 velocity=0 time=0
Time=106440 Track=5 note_off channel=4 note=58 velocity=0 time=120
Time=106440 Track=5 note_off channel=4 note=61 velocity=0 time=0
Time=106440 Track=5 note_off channel=4 note=65 velocity=0 time=0
Time=106560 Track=2 note_on channel=1 note=32 velocity=100 time=120
Time=106560 Track=3 note_on channel=2 note=87 velocity=39 time=136
Time=106560 Track=10 note_on channel=9 note=36 velocity=127 time=180
Time=106560 Track=10 note_on channel=9 note=41 velocity=127 time=0
Time=106560 Track=10 note_on channel=9 note=42 velocity=100 time=0
Time=106617 Track=10 note_off channel=9 note=42 velocity=0 time=57
Time=106620 Track=10 note_off channel=9 note=36 velocity=0 time=3
Time=106620 Track=10 note_off channel=9 note=41 velocity=0 time=0
Time=106800 Track=2 note_off channel=1 note=32 velocity=64 time=240
Time=106800 Track=3 note_on channel=2 note=84 velocity=58 time=240
Time=106800 Track=4 note_on channel=3 note=68 velocity=100 time=360
Time=106800 Track=4 note_on channel=3 note=72 velocity=100 time=0
Time=106800 Track=4 note_on channel=3 note=75 velocity=100 time=0
Time=106800 Track=5 note_on channel=4 note=56 velocity=100 time=360
Time=106800 Track=5 note_on channel=4 note=60 velocity=100 time=0
Time=106800 Track=5 note_on channel=4 note=63 velocity=100 time=0
Time=106800 Track=10 note_on channel=9 note=40 velocity=60 time=180
Time=106805 Track=3 note_off channel=2 note=87 velocity=0 time=5
Time=106858 Track=3 note_off channel=2 note=84 velocity=0 time=53
Time=106859 Track=10 note_off channel=9 note=40 velocity=0 time=59
Time=106920 Track=2 note_on channel=1 note=36 velocity=100 time=120
Time=106920 Track=3 note_on channel=2 note=84 velocity=45 time=62
Time=106920 Track=4 note_off channel=3 note=68 velocity=0 time=120
Time=106920 Track=4 note_off channel=3 note=72 velocity=0 time=0
Time=106920 Track=4 note_off channel=3 note=75 velocity=0 time=0
Time=106920 Track=5 note_off channel=4 note=56 velocity=0 time=120
Time=106920 Track=5 note_off channel=4 note=60 velocity=0 time=0
Time=106920 Track=5 note_off channel=4 note=63 velocity=0 time=0
Time=106920 Track=10 note_on channel=9 note=40 velocity=120 time=61
Time=106920 Track=10 note_on channel=9 note=42 velocity=100 time=0
Time=106980 Track=10 note_off channel=9 note=40 velocity=0 time=60
Time=106980 Track=10 note_off channel=9 note=42 velocity=0 time=0
Time=107010 Track=3 note_off channel=2 note=84 velocity=0 time=90
Time=107040 Track=2 note_off channel=1 note=36 velocity=64 time=120
Time=107040 Track=2 note_on channel=1 note=39 velocity=100 time=0
Time=107040 Track=3 note_on channel=2 note=84 velocity=49 time=30
Time=107040 Track=4 note_on channel=3 note=68 velocity=100 time=120
Time=107040 Track=4 note_on channel=3 note=72 velocity=100 time=0
Time=107040 Track=4 note_on channel=3 note=75 velocity=100 time=0
Time=107040 Track=10 note_on channel=9 note=36 velocity=127 time=60
Time=107040 Track=10 note_on channel=9 note=42 velocity=100 time=0
Time=107100 Track=10 note_off channel=9 note=36 velocity=0 time=60
Time=107101 Track=10 note_off channel=9 note=42 velocity=0 time=1
Time=107130 Track=3 note_off channel=2 note=84 velocity=0 time=90
Time=107130 Track=3 note_on channel=2 note=85 velocity=36 time=0
Time=107160 Track=2 note_off channel=1 note=39 velocity=64 time=120
Time=107160 Track=4 note_off channel=3 note=68 velocity=0 time=120
Time=107160 Track=4 note_off channel=3 note=72 velocity=0 time=0
Time=107160 Track=4 note_off channel=3 note=75 velocity=0 time=0
Time=107250 Track=3 note_off channel=2 note=85 velocity=0 time=120
Time=107280 Track=2 note_on channel=1 note=39 velocity=100 time=120
Time=107280 Track=3 note_on channel=2 note=84 velocity=66 time=30
Time=107280 Track=4 note_on channel=3 note=68 velocity=100 time=120
Time=107280 Track=4 note_on channel=3 note=72 velocity=100 time=0
Time=107280 Track=4 note_on channel=3 note=75 velocity=100 time=0
Time=107280 Track=5 note_on channel=4 note=56 velocity=100 time=360
Time=107280 Track=5 note_on channel=4 note=60 velocity=100 time=0
Time=107280 Track=5 note_on channel=4 note=63 velocity=100 time=0
Time=107280 Track=10 note_on channel=9 note=40 velocity=120 time=179
Time=107280 Track=10 note_on channel=9 note=42 velocity=100 time=0
Time=107340 Track=10 note_off channel=9 note=40 velocity=0 time=60
Time=107340 Track=10 note_off channel=9 note=42 velocity=0 time=0
Time=107400 Track=2 note_off channel=1 note=39 velocity=64 time=120
Time=107400 Track=3 note_off channel=2 note=84 velocity=0 time=120
Time=107400 Track=4 note_off channel=3 note=68 velocity=0 time=120
Time=107400 Track=4 note_off channel=3 note=72 velocity=0 time=0
Time=107400 Track=4 note_off channel=3 note=75 velocity=0 time=0
Time=107400 Track=5 note_off channel=4 note=56 velocity=0 time=120
Time=107400 Track=5 note_off channel=4 note=60 velocity=0 time=0
Time=107400 Track=5 note_off channel=4 note=63 velocity=0 time=0
Time=107520 Track=2 note_on channel=1 note=27 velocity=100 time=120
Time=107520 Track=3 note_on channel=2 note=85 velocity=66 time=120
Time=107520 Track=10 note_on channel=9 note=36 velocity=127 time=180
Time=107520 Track=10 note_on channel=9 note=41 velocity=127 time=0
Time=107520 Track=10 note_on channel=9 note=42 velocity=100 time=0
Time=107580 Track=10 note_off channel=9 note=36 velocity=0 time=60
Time=107580 Track=10 note_off channel=9 note=41 velocity=0 time=0
Time=107580 Track=10 note_off channel=9 note=42 velocity=0 time=0
Time=107730 Track=3 note_off channel=2 note=85 velocity=0 time=210
Time=107760 Track=2 note_off channel=1 note=27 velocity=64 time=240
Time=107760 Track=3 note_on channel=2 note=82 velocity=33 time=30
Time=107760 Track=4 note_on channel=3 note=63 velocity=100 time=360
Time=107760 Track=4 note_on channel=3 note=66 velocity=100 time=0
Time=107760 Track=4 note_on channel=3 note=70 velocity=100 time=0
Time=107760 Track=5 note_on channel=4 note=51 velocity=100 time=360
Time=107760 Track=5 note_on channel=4 note=54 velocity=100 time=0
Time=107760 Track=5 note_on channel=4 note=58 velocity=100 time=0
Time=107760 Track=7 note_on channel=6 note=70 velocity=102 time=2760
Time=107760 Track=10 note_on channel=9 note=40 velocity=60 time=180
Time=107820 Track=10 note_off channel=9 note=40 velocity=0 time=60
Time=107850 Track=3 note_off channel=2 note=82 velocity=0 time=90
Time=107880 Track=2 note_on channel=1 note=30 velocity=100 time=120
Time=107880 Track=4 note_off channel=3 note=63 velocity=0 time=120
Time=107880 Track=4 note_off channel=3 note=66 velocity=0 time=0
Time=107880 Track=4 note_off channel=3 note=70 velocity=0 time=0
Time=107880 Track=5 note_off channel=4 note=51 velocity=0 time=120
Time=107880 Track=5 note_off channel=4 note=54 velocity=0 time=0
Time=107880 Track=5 note_off channel=4 note=58 velocity=0 time=0
Time=107880 Track=7 note_off channel=6 note=70 velocity=0 time=120
Time=107880 Track=10 note_on channel=9 note=40 velocity=120 time=60
Time=107880 Track=10 note_on channel=9 note=42 velocity=100 time=0
Time=107940 Track=10 note_off channel=9 note=40 velocity=0 time=60
Time=107940 Track=10 note_off channel=9 note=42 velocity=0 time=0
Time=108000 Track=2 note_off channel=1 note=30 velocity=64 time=120
Time=108000 Track=2 note_on channel=1 note=34 velocity=100 time=0
Time=108000 Track=4 note_on channel=3 note=63 velocity=100 time=120
Time=108000 Track=4 note_on channel=3 note=66 velocity=100 time=0
Time=108000 Track=4 note_on channel=3 note=70 velocity=100 time=0
Time=108000 Track=10 note_on channel=9 note=36 velocity=127 time=60
Time=108000 Track=10 note_on channel=9 note=42 velocity=100 time=0
Time=108060 Track=10 note_off channel=9 note=36 velocity=0 time=60
Time=108060 Track=10 note_off channel=9 note=42 velocity=0 time=0
Time=108120 Track=2 note_off channel=1 note=34 velocity=64 time=120
Time=108120 Track=4 note_off channel=3 note=63 velocity=0 time=120
Time=108120 Track=4 note_off channel=3 note=66 velocity=0 time=0
Time=108120 Track=4 note_off channel=3 note=70 velocity=0 time=0
Time=108240 Track=2 note_on channel=1 note=34 velocity=100 time=120
Time=108240 Track=4 note_on channel=3 note=63 velocity=100 time=120
Time=108240 Track=4 note_on channel=3 note=66 velocity=100 time=0
Time=108240 Track=4 note_on channel=3 note=70 velocity=100 time=0
Time=108240 Track=5 note_on channel=4 note=51 velocity=100 time=360
Time=108240 Track=5 note_on channel=4 note=54 velocity=100 time=0
Time=108240 Track=5 note_on channel=4 note=58 velocity=100 time=0
Time=108240 Track=7 note_on channel=6 note=70 velocity=127 time=360
Time=108240 Track=10 note_on channel=9 note=40 velocity=120 time=180
Time=108240 Track=10 note_on channel=9 note=42 velocity=100 time=0
Time=108300 Track=10 note_off channel=9 note=40 velocity=0 time=60
Time=108300 Track=10 note_off channel=9 note=42 velocity=0 time=0
Time=108360 Track=2 note_off channel=1 note=34 velocity=64 time=120
Time=108360 Track=4 note_off channel=3 note=63 velocity=0 time=120
Time=108360 Track=4 note_off channel=3 note=66 velocity=0 time=0
Time=108360 Track=4 note_off channel=3 note=70 velocity=0 time=0
Time=108360 Track=5 note_off channel=4 note=51 velocity=0 time=120
Time=108360 Track=5 note_off channel=4 note=54 velocity=0 time=0
Time=108360 Track=5 note_off channel=4 note=58 velocity=0 time=0
Time=108360 Track=7 note_off channel=6 note=70 velocity=0 time=120
Time=108480 Track=2 note_on channel=1 note=27 velocity=100 time=120
Time=108480 Track=7 note_on channel=6 note=77 velocity=127 time=120
Time=108480 Track=10 note_on channel=9 note=36 velocity=127 time=180
Time=108480 Track=10 note_on channel=9 note=41 velocity=127 time=0
Time=108480 Track=10 note_on channel=9 note=42 velocity=100 time=0
Time=108540 Track=10 note_off channel=9 note=36 velocity=0 time=60
Time=108540 Track=10 note_off channel=9 note=41 velocity=0 time=0
Time=108540 Track=10 note_off channel=9 note=42 velocity=0 time=0
Time=108607 Track=7 note_off channel=6 note=77 velocity=0 time=127
Time=108720 Track=2 note_off channel=1 note=27 velocity=64 time=240
Time=108720 Track=7 note_on channel=6 note=75 velocity=127 time=113
Time=108840 Track=2 note_on channel=1 note=27 velocity=100 time=120
Time=108840 Track=7 note_off channel=6 note=75 velocity=0 time=120
Time=108840 Track=10 note_on channel=9 note=41 velocity=120 time=300
Time=108840 Track=10 note_on channel=9 note=42 velocity=100 time=0
Time=108900 Track=10 note_off channel=9 note=41 velocity=0 time=60
Time=108900 Track=10 note_off channel=9 note=42 velocity=0 time=0
Time=108960 Track=2 note_off channel=1 note=27 velocity=64 time=120
Time=108960 Track=2 note_on channel=1 note=37 velocity=100 time=0
Time=108960 Track=10 note_on channel=9 note=36 velocity=127 time=60
Time=108960 Track=10 note_on channel=9 note=41 velocity=127 time=0
Time=108960 Track=10 note_on channel=9 note=42 velocity=100 time=0
Time=109020 Track=10 note_off channel=9 note=36 velocity=0 time=60
Time=109020 Track=10 note_off channel=9 note=41 velocity=0 time=0
Time=109020 Track=10 note_off channel=9 note=42 velocity=0 time=0
Time=109080 Track=2 note_off channel=1 note=37 velocity=64 time=120
Time=109200 Track=2 note_on channel=1 note=37 velocity=100 time=120
Time=109200 Track=10 note_on channel=9 note=41 velocity=120 time=180
Time=109200 Track=10 note_on channel=9 note=42 velocity=100 time=0
Time=109260 Track=10 note_off channel=9 note=41 velocity=0 time=60
Time=109260 Track=10 note_off channel=9 note=42 velocity=0 time=0
Time=109320 Track=2 note_off channel=1 note=37 velocity=64 time=120
Time=109440 Track=2 note_on channel=1 note=34 velocity=100 time=120
Time=109440 Track=5 note_on channel=4 note=58 velocity=100 time=1080
Time=109440 Track=5 note_on channel=4 note=61 velocity=100 time=0
Time=109560 Track=5 note_off channel=4 note=58 velocity=0 time=20
Time=109560 Track=5 note_off channel=4 note=61 velocity=0 time=0
Time=109680 Track=2 note_off channel=1 note=34 velocity=64 time=240
Time=109680 Track=4 note_on channel=3 note=70 velocity=83 time=1320
Time=109680 Track=4 note_on channel=3 note=73 velocity=95 time=0
Time=109740 Track=4 note_off channel=3 note=70 velocity=0 time=60
Time=109740 Track=4 note_off channel=3 note=73 velocity=0 time=0
Time=109800 Track=5 note_on channel=4 note=58 velocity=100 time=19
Time=109800 Track=5 note_on channel=4 note=61 velocity=100 time=0
Time=109920 Track=4 note_on channel=3 note=70 velocity=91 time=180
Time=109920 Track=4 note_on channel=3 note=73 velocity=91 time=0
Time=109920 Track=5 note_off channel=4 note=58 velocity=0 time=20
Time=109920 Track=5 note_off channel=4 note=61 velocity=0 time=0
Time=109980 Track=4 note_off channel=3 note=70 velocity=0 time=60
Time=109980 Track=4 note_off channel=3 note=73 velocity=0 time=0
Time=110160 Track=4 note_on channel=3 note=65 velocity=100 time=180
Time=110160 Track=5 note_on channel=4 note=61 velocity=100 time=9
Time=110160 Track=5 note_on channel=4 note=65 velocity=100 time=0
Time=110220 Track=4 note_off channel=3 note=65 velocity=0 time=60
Time=110280 Track=5 note_off channel=4 note=61 velocity=0 time=3
Time=110280 Track=5 note_off channel=4 note=65 velocity=0 time=0
Time=110400 Track=2 note_on channel=1 note=32 velocity=100 time=720
Time=110400 Track=5 note_on channel=4 note=56 velocity=100 time=3
Time=110400 Track=5 note_on channel=4 note=60 velocity=100 time=0
Time=110520 Track=5 note_off channel=4 note=56 velocity=0 time=34
Time=110520 Track=5 note_off channel=4 note=60 velocity=0 time=0
Time=110640 Track=2 note_off channel=1 note=32 velocity=64 time=240
Time=110640 Track=4 note_on channel=3 note=68 velocity=80 time=0
Time=110640 Track=4 note_on channel=3 note=72 velocity=86 time=0
Time=110700 Track=4 note_off channel=3 note=68 velocity=0 time=45
Time=110700 Track=4 note_off channel=3 note=72 velocity=0 time=0
Time=110760 Track=5 note_on channel=4 note=56 velocity=100 time=240
Time=110760 Track=5 note_on channel=4 note=60 velocity=100 time=0
Time=110880 Track=4 note_on channel=3 note=68 velocity=91 time=4
Time=110880 Track=4 note_on channel=3 note=72 velocity=94 time=0
Time=110880 Track=5 note_off channel=4 note=56 velocity=0 time=120
Time=110880 Track=5 note_off channel=4 note=60 velocity=0 time=0
Time=110940 Track=4 note_off channel=3 note=68 velocity=0 time=27
Time=110940 Track=4 note_off channel=3 note=72 velocity=0 time=0
Time=111120 Track=4 note_on channel=3 note=63 velocity=82 time=180
Time=111120 Track=5 note_on channel=4 note=56 velocity=100 time=240
Time=111120 Track=5 note_on channel=4 note=60 velocity=100 time=0
Time=111120 Track=5 note_on channel=4 note=63 velocity=100 time=0
Time=111180 Track=4 note_off channel=3 note=63 velocity=0 time=60
Time=111240 Track=5 note_off channel=4 note=56 velocity=0 time=120
Time=111240 Track=5 note_off channel=4 note=60 velocity=0 time=0
Time=111240 Track=5 note_off channel=4 note=63 velocity=0 time=0
Time=111360 Track=2 note_on channel=1 note=27 velocity=100 time=720
Time=111360 Track=5 note_on channel=4 note=51 velocity=100 time=120
Time=111360 Track=5 note_on channel=4 note=54 velocity=100 time=0
Time=111480 Track=5 note_off channel=4 note=51 velocity=0 time=120
Time=111480 Track=5 note_off channel=4 note=54 velocity=0 time=0
Time=111600 Track=2 note_off channel=1 note=27 velocity=64 time=240
Time=111600 Track=4 note_on channel=3 note=66 velocity=85 time=420
Time=111600 Track=4 note_on channel=3 note=70 velocity=89 time=0
Time=111660 Track=4 note_off channel=3 note=66 velocity=0 time=60
Time=111660 Track=4 note_off channel=3 note=70 velocity=0 time=0
Time=111720 Track=5 note_on channel=4 note=51 velocity=100 time=61
Time=111720 Track=5 note_on channel=4 note=54 velocity=100 time=0
Time=111838 Track=5 note_off channel=4 note=51 velocity=0 time=118
Time=111840 Track=4 note_on channel=3 note=66 velocity=100 time=180
Time=111840 Track=4 note_on channel=3 note=70 velocity=96 time=0
Time=111840 Track=5 note_off channel=4 note=54 velocity=0 time=2
Time=111900 Track=4 note_off channel=3 note=66 velocity=0 time=60
Time=111900 Track=4 note_off channel=3 note=70 velocity=0 time=0
Time=112080 Track=4 note_on channel=3 note=63 velocity=83 time=180
Time=112080 Track=5 note_on channel=4 note=51 velocity=100 time=27
Time=112080 Track=5 note_on channel=4 note=54 velocity=100 time=0
Time=112140 Track=4 note_off channel=3 note=63 velocity=0 time=60
Time=112198 Track=5 note_off channel=4 note=51 velocity=0 time=118
Time=112200 Track=5 note_off channel=4 note=54 velocity=0 time=2
Time=112320 Track=2 note_on channel=1 note=27 velocity=100 time=720
Time=112320 Track=5 note_on channel=4 note=54 velocity=100 time=120
Time=112320 Track=5 note_on channel=4 note=58 velocity=100 time=0
Time=112440 Track=5 note_off channel=4 note=54 velocity=0 time=120
Time=112440 Track=5 note_off channel=4 note=58 velocity=0 time=0
Time=112560 Track=2 note_off channel=1 note=27 velocity=64 time=240
Time=112560 Track=4 note_on channel=3 note=66 velocity=100 time=420
Time=112560 Track=4 note_on channel=3 note=70 velocity=95 time=0
Time=112620 Track=4 note_off channel=3 note=66 velocity=0 time=60
Time=112620 Track=4 note_off channel=3 note=70 velocity=0 time=0
Time=112680 Track=5 note_on channel=4 note=54 velocity=100 time=240
Time=112680 Track=5 note_on channel=4 note=58 velocity=100 time=0
Time=112800 Track=4 note_on channel=3 note=66 velocity=108 time=180
Time=112800 Track=4 note_on channel=3 note=70 velocity=100 time=0
Time=112800 Track=5 note_off channel=4 note=58 velocity=0 time=120
Time=112800 Track=5 note_off channel=4 note=54 velocity=0 time=0
Time=112860 Track=4 note_off channel=3 note=66 velocity=0 time=60
Time=112860 Track=4 note_off channel=3 note=70 velocity=0 time=0
Time=113040 Track=4 note_on channel=3 note=63 velocity=88 time=180
Time=113040 Track=5 note_on channel=4 note=54 velocity=100 time=240
Time=113040 Track=5 note_on channel=4 note=58 velocity=100 time=0
Time=113100 Track=4 note_off channel=3 note=63 velocity=0 time=60
Time=113143 Track=5 note_off channel=4 note=58 velocity=0 time=103
Time=113144 Track=5 note_off channel=4 note=54 velocity=0 time=1
Time=113280 Track=2 note_on channel=1 note=34 velocity=100 time=720
Time=113280 Track=5 note_on channel=4 note=58 velocity=100 time=136
Time=113280 Track=5 note_on channel=4 note=61 velocity=100 time=0
Time=113392 Track=5 note_off channel=4 note=61 velocity=0 time=112
Time=113400 Track=5 note_off channel=4 note=58 velocity=0 time=8
Time=113520 Track=2 note_off channel=1 note=34 velocity=64 time=240
Time=113520 Track=4 note_on channel=3 note=70 velocity=83 time=420
Time=113520 Track=4 note_on channel=3 note=73 velocity=95 time=0
Time=113580 Track=4 note_off channel=3 note=70 velocity=0 time=60
Time=113580 Track=4 note_off channel=3 note=73 velocity=0 time=0
Time=113640 Track=5 note_on channel=4 note=58 velocity=100 time=240
Time=113640 Track=5 note_on channel=4 note=61 velocity=100 time=0
Time=113760 Track=4 note_on channel=3 note=70 velocity=91 time=180
Time=113760 Track=4 note_on channel=3 note=73 velocity=91 time=0
Time=113760 Track=5 note_off channel=4 note=58 velocity=0 time=120
Time=113760 Track=5 note_off channel=4 note=61 velocity=0 time=0
Time=113820 Track=4 note_off channel=3 note=70 velocity=0 time=60
Time=113820 Track=4 note_off channel=3 note=73 velocity=0 time=0
Time=114000 Track=4 note_on channel=3 note=65 velocity=100 time=180
Time=114000 Track=5 note_on channel=4 note=61 velocity=100 time=7
Time=114000 Track=5 note_on channel=4 note=65 velocity=100 time=0
Time=114060 Track=4 note_off channel=3 note=65 velocity=0 time=60
Time=114120 Track=5 note_off channel=4 note=65 velocity=0 time=10
Time=114126 Track=5 note_off channel=4 note=61 velocity=0 time=6
Time=114240 Track=2 note_on channel=1 note=32 velocity=100 time=720
Time=114240 Track=5 note_on channel=4 note=56 velocity=100 time=2
Time=114240 Track=5 note_on channel=4 note=60 velocity=100 time=0
Time=114360 Track=5 note_off channel=4 note=56 velocity=0 time=4
Time=114360 Track=5 note_off channel=4 note=60 velocity=0 time=0
Time=114480 Track=2 note_off channel=1 note=32 velocity=64 time=240
Time=114480 Track=4 note_on channel=3 note=68 velocity=80 time=0
Time=114480 Track=4 note_on channel=3 note=72 velocity=86 time=0
Time=114540 Track=4 note_off channel=3 note=68 velocity=0 time=45
Time=114540 Track=4 note_off channel=3 note=72 velocity=0 time=0
Time=114600 Track=5 note_on channel=4 note=56 velocity=100 time=33
Time=114600 Track=5 note_on channel=4 note=60 velocity=100 time=0
Time=114720 Track=4 note_on channel=3 note=68 velocity=91 time=4
Time=114720 Track=4 note_on channel=3 note=72 velocity=94 time=0
Time=114720 Track=5 note_off channel=4 note=56 velocity=0 time=4
Time=114720 Track=5 note_off channel=4 note=60 velocity=0 time=0
Time=114780 Track=4 note_off channel=3 note=68 velocity=0 time=27
Time=114780 Track=4 note_off channel=3 note=72 velocity=0 time=0
Time=114960 Track=4 note_on channel=3 note=63 velocity=82 time=180
Time=114960 Track=5 note_on channel=4 note=56 velocity=100 time=22
Time=114960 Track=5 note_on channel=4 note=60 velocity=100 time=0
Time=114960 Track=5 note_on channel=4 note=63 velocity=100 time=0
Time=115020 Track=4 note_off channel=3 note=63 velocity=0 time=60
Time=115079 Track=5 note_off channel=4 note=63 velocity=0 time=1
Time=115080 Track=5 note_off channel=4 note=56 velocity=0 time=1
Time=115080 Track=5 note_off channel=4 note=60 velocity=0 time=0
Time=115200 Track=2 note_on channel=1 note=27 velocity=100 time=720
Time=115200 Track=5 note_on channel=4 note=51 velocity=100 time=9
Time=115200 Track=5 note_on channel=4 note=54 velocity=100 time=0
Time=115320 Track=5 note_off channel=4 note=51 velocity=0 time=63
Time=115320 Track=5 note_off channel=4 note=54 velocity=0 time=0
Time=115440 Track=2 note_off channel=1 note=27 velocity=64 time=240
Time=115440 Track=4 note_on channel=3 note=66 velocity=85 time=420
Time=115440 Track=4 note_on channel=3 note=70 velocity=89 time=0
Time=115500 Track=4 note_off channel=3 note=66 velocity=0 time=60
Time=115500 Track=4 note_off channel=3 note=70 velocity=0 time=0
Time=115560 Track=5 note_on channel=4 note=51 velocity=100 time=169
Time=115560 Track=5 note_on channel=4 note=54 velocity=100 time=0
Time=115680 Track=4 note_on channel=3 note=66 velocity=100 time=180
Time=115680 Track=4 note_on channel=3 note=70 velocity=96 time=0
Time=115680 Track=5 note_off channel=4 note=51 velocity=0 time=75
Time=115680 Track=5 note_off channel=4 note=54 velocity=0 time=0
Time=115740 Track=4 note_off channel=3 note=66 velocity=0 time=60
Time=115740 Track=4 note_off channel=3 note=70 velocity=0 time=0
Time=115920 Track=4 note_on channel=3 note=63 velocity=83 time=180
Time=115920 Track=5 note_on channel=4 note=51 velocity=100 time=176
Time=115920 Track=5 note_on channel=4 note=54 velocity=100 time=0
Time=115980 Track=4 note_off channel=3 note=63 velocity=0 time=60
Time=116039 Track=5 note_off channel=4 note=51 velocity=0 time=119
Time=116040 Track=5 note_off channel=4 note=54 velocity=0 time=1
Time=116160 Track=2 note_on channel=1 note=27 velocity=100 time=720
Time=116160 Track=5 note_on channel=4 note=54 velocity=100 time=120
Time=116160 Track=5 note_on channel=4 note=58 velocity=100 time=0
Time=116160 Track=10 note_on channel=9 note=40 velocity=60 time=883
Time=116160 Track=10 note_on channel=9 note=45 velocity=119 time=0
Time=116220 Track=10 note_off channel=9 note=40 velocity=0 time=60
Time=116220 Track=10 note_off channel=9 note=45 velocity=0 time=0
Time=116280 Track=5 note_off channel=4 note=54 velocity=0 time=120
Time=116280 Track=5 note_off channel=4 note=58 velocity=0 time=0
Time=116400 Track=2 note_off channel=1 note=27 velocity=64 time=240
Time=116400 Track=4 note_on channel=3 note=66 velocity=100 time=420
Time=116400 Track=4 note_on channel=3 note=70 velocity=95 time=0
Time=116460 Track=4 note_off channel=3 note=66 velocity=0 time=60
Time=116460 Track=4 note_off channel=3 note=70 velocity=0 time=0
Time=116520 Track=5 note_on channel=4 note=54 velocity=100 time=153
Time=116520 Track=5 note_on channel=4 note=58 velocity=100 time=0
Time=116520 Track=10 note_on channel=9 note=40 velocity=120 time=300
Time=116560 Track=10 note_off channel=9 note=40 velocity=0 time=40
Time=116580 Track=10 note_on channel=9 note=40 velocity=120 time=20
Time=116620 Track=10 note_off channel=9 note=40 velocity=0 time=40
Time=116640 Track=4 note_on channel=3 note=66 velocity=108 time=180
Time=116640 Track=4 note_on channel=3 note=70 velocity=100 time=0
Time=116640 Track=5 note_off channel=4 note=54 velocity=0 time=5
Time=116640 Track=5 note_off channel=4 note=58 velocity=0 time=0
Time=116640 Track=10 note_on channel=9 note=40 velocity=120 time=20
Time=116700 Track=4 note_off channel=3 note=66 velocity=0 time=60
Time=116700 Track=4 note_off channel=3 note=70 velocity=0 time=0
Time=116700 Track=10 note_off channel=9 note=40 velocity=0 time=60
Time=116760 Track=10 note_on channel=9 note=40 velocity=120 time=60
Time=116820 Track=10 note_off channel=9 note=40 velocity=0 time=60
Time=116880 Track=4 note_on channel=3 note=63 velocity=88 time=180
Time=116880 Track=10 note_on channel=9 note=40 velocity=120 time=60
Time=116939 Track=10 note_off channel=9 note=40 velocity=0 time=59
Time=116940 Track=4 note_off channel=3 note=63 velocity=0 time=60
Time=117120 Track=2 note_on channel=1 note=34 velocity=100 time=720
Time=117120 Track=10 note_on channel=9 note=36 velocity=127 time=181
Time=117120 Track=10 note_on channel=9 note=41 velocity=127 time=0
Time=117120 Track=10 note_on channel=9 note=42 velocity=100 time=0
Time=117180 Track=10 note_off channel=9 note=42 velocity=0 time=60
Time=117181 Track=10 note_off channel=9 note=36 velocity=0 time=1
Time=117181 Track=10 note_off channel=9 note=41 velocity=0 time=0
Time=117360 Track=2 note_off channel=1 note=34 velocity=64 time=240
Time=117360 Track=4 note_on channel=3 note=70 velocity=100 time=420
Time=117360 Track=4 note_on channel=3 note=73 velocity=100 time=0
Time=117360 Track=4 note_on channel=3 note=77 velocity=100 time=0
Time=117360 Track=5 note_on channel=4 note=58 velocity=100 time=271
Time=117360 Track=5 note_on channel=4 note=61 velocity=100 time=0
Time=117360 Track=5 note_on channel=4 note=65 velocity=100 time=0
Time=117361 Track=10 note_on channel=9 note=40 velocity=60 time=82
Time=117421 Track=10 note_off channel=9 note=40 velocity=0 time=60
Time=117480 Track=2 note_on channel=1 note=37 velocity=100 time=120
Time=117480 Track=4 note_off channel=3 note=70 velocity=0 time=120
Time=117480 Track=4 note_off channel=3 note=73 velocity=0 time=0
Time=117480 Track=4 note_off channel=3 note=77 velocity=0 time=0
Time=117480 Track=5 note_off channel=4 note=58 velocity=0 time=120
Time=117480 Track=5 note_off channel=4 note=61 velocity=0 time=0
Time=117480 Track=5 note_off channel=4 note=65 velocity=0 time=0
Time=117480 Track=10 note_on channel=9 note=40 velocity=120 time=59
Time=117480 Track=10 note_on channel=9 note=42 velocity=100 time=0
Time=117540 Track=10 note_off channel=9 note=40 velocity=0 time=60
Time=117540 Track=10 note_off channel=9 note=42 velocity=0 time=0
Time=117600 Track=2 note_off channel=1 note=37 velocity=64 time=120
Time=117600 Track=2 note_on channel=1 note=41 velocity=100 time=0
Time=117600 Track=4 note_on channel=3 note=70 velocity=100 time=120
Time=117600 Track=4 note_on channel=3 note=73 velocity=100 time=0
Time=117600 Track=4 note_on channel=3 note=77 velocity=100 time=0
Time=117600 Track=10 note_on channel=9 note=36 velocity=127 time=60
Time=117600 Track=10 note_on channel=9 note=42 velocity=100 time=0
Time=117660 Track=10 note_off channel=9 note=36 velocity=0 time=31
Time=117662 Track=10 note_off channel=9 note=42 velocity=0 time=2
Time=117720 Track=2 note_off channel=1 note=41 velocity=64 time=120
Time=117720 Track=3 note_on channel=2 note=85 velocity=38 time=9870
Time=117720 Track=4 note_off channel=3 note=70 velocity=0 time=120
Time=117720 Track=4 note_off channel=3 note=73 velocity=0 time=0
Time=117720 Track=4 note_off channel=3 note=77 velocity=0 time=0
Time=117779 Track=3 note_off channel=2 note=85 velocity=0 time=59
Time=117840 Track=2 note_on channel=1 note=41 velocity=100 time=120
Time=117840 Track=3 note_on channel=2 note=85 velocity=40 time=61
Time=117840 Track=4 note_on channel=3 note=70 velocity=100 time=120
Time=117840 Track=4 note_on channel=3 note=73 velocity=100 time=0
Time=117840 Track=4 note_on channel=3 note=77 velocity=100 time=0
Time=117840 Track=5 note_on channel=4 note=58 velocity=100 time=360
Time=117840 Track=5 note_on channel=4 note=61 velocity=100 time=0
Time=117840 Track=5 note_on channel=4 note=65 velocity=100 time=0
Time=117840 Track=10 note_on channel=9 note=40 velocity=120 time=178
Time=117840 Track=10 note_on channel=9 note=42 velocity=100 time=0
Time=117900 Track=3 note_off channel=2 note=85 velocity=0 time=60
Time=117900 Track=10 note_off channel=9 note=40 velocity=0 time=60
Time=117900 Track=10 note_off channel=9 note=42 velocity=0 time=0
Time=117960 Track=2 note_off channel=1 note=41 velocity=64 time=120
Time=117960 Track=3 note_on channel=2 note=85 velocity=40 time=60
Time=117960 Track=4 note_off channel=3 note=70 velocity=0 time=120
Time=117960 Track=4 note_off channel=3 note=73 velocity=0 time=0
Time=117960 Track=4 note_off channel=3 note=77 velocity=0 time=0
Time=117960 Track=5 note_off channel=4 note=58 velocity=0 time=120
Time=117960 Track=5 note_off channel=4 note=61 velocity=0 time=0
Time=117960 Track=5 note_off channel=4 note=65 velocity=0 time=0
Time=118020 Track=3 note_off channel=2 note=85 velocity=0 time=60
Time=118080 Track=2 note_on channel=1 note=32 velocity=100 time=120
Time=118080 Track=3 note_on channel=2 note=87 velocity=51 time=60
Time=118080 Track=10 note_on channel=9 note=36 velocity=127 time=180
Time=118080 Track=10 note_on channel=9 note=41 velocity=127 time=0
Time=118080 Track=10 note_on channel=9 note=42 velocity=100 time=0
Time=118140 Track=10 note_off channel=9 note=36 velocity=0 time=60
Time=118140 Track=10 note_off channel=9 note=41 velocity=0 time=0
Time=118140 Track=10 note_off channel=9 note=42 velocity=0 time=0
Time=118302 Track=3 note_off channel=2 note=87 velocity=0 time=222
Time=118320 Track=2 note_off channel=1 note=32 velocity=64 time=240
Time=118320 Track=3 note_on channel=2 note=84 velocity=43 time=18
Time=118320 Track=4 note_on channel=3 note=68 velocity=100 time=360
Time=118320 Track=4 note_on channel=3 note=72 velocity=100 time=0
Time=118320 Track=4 note_on channel=3 note=75 velocity=100 time=0
Time=118320 Track=5 note_on channel=4 note=56 velocity=100 time=360
Time=118320 Track=5 note_on channel=4 note=60 velocity=100 time=0
Time=118320 Track=5 note_on channel=4 note=63 velocity=100 time=0
Time=118320 Track=10 note_on channel=9 note=40 velocity=60 time=180
Time=118380 Track=10 note_off channel=9 note=40 velocity=0 time=60
Time=118387 Track=3 note_off channel=2 note=84 velocity=0 time=67
Time=118440 Track=2 note_on channel=1 note=36 velocity=100 time=120
Time=118440 Track=3 note_on channel=2 note=84 velocity=51 time=53
Time=118440 Track=4 note_off channel=3 note=68 velocity=0 time=120
Time=118440 Track=4 note_off channel=3 note=72 velocity=0 time=0
Time=118440 Track=4 note_off channel=3 note=75 velocity=0 time=0
Time=118440 Track=5 note_off channel=4 note=56 velocity=0 time=120
Time=118440 Track=5 note_off channel=4 note=60 velocity=0 time=0
Time=118440 Track=5 note_off channel=4 note=63 velocity=0 time=0
Time=118440 Track=10 note_on channel=9 note=40 velocity=120 time=60
Time=118440 Track=10 note_on channel=9 note=42 velocity=100 time=0
Time=118500 Track=10 note_off channel=9 note=40 velocity=0 time=60
Time=118500 Track=10 note_off channel=9 note=42 velocity=0 time=0
Time=118506 Track=3 note_off channel=2 note=84 velocity=0 time=66
Time=118560 Track=2 note_off channel=1 note=36 velocity=64 time=120
Time=118560 Track=2 note_on channel=1 note=39 velocity=100 time=0
Time=118560 Track=3 note_on channel=2 note=84 velocity=54 time=54
Time=118560 Track=4 note_on channel=3 note=68 velocity=100 time=120
Time=118560 Track=4 note_on channel=3 note=72 velocity=100 time=0
Time=118560 Track=4 note_on channel=3 note=75 velocity=100 time=0
Time=118560 Track=10 note_on channel=9 note=36 velocity=127 time=60
Time=118560 Track=10 note_on channel=9 note=42 velocity=100 time=0
Time=118620 Track=10 note_off channel=9 note=36 velocity=0 time=60
Time=118620 Track=10 note_off channel=9 note=42 velocity=0 time=0
Time=118635 Track=3 note_off channel=2 note=84 velocity=0 time=75
Time=118680 Track=2 note_off channel=1 note=39 velocity=64 time=120
Time=118680 Track=3 note_on channel=2 note=85 velocity=44 time=45
Time=118680 Track=4 note_off channel=3 note=68 velocity=0 time=120
Time=118680 Track=4 note_off channel=3 note=72 velocity=0 time=0
Time=118680 Track=4 note_off channel=3 note=75 velocity=0 time=0
Time=118791 Track=3 note_off channel=2 note=85 velocity=0 time=111
Time=118800 Track=2 note_on channel=1 note=39 velocity=100 time=120
Time=118800 Track=3 note_on channel=2 note=84 velocity=58 time=9
Time=118800 Track=4 note_on channel=3 note=68 velocity=100 time=120
Time=118800 Track=4 note_on channel=3 note=72 velocity=100 time=0
Time=118800 Track=4 note_on channel=3 note=75 velocity=100 time=0
Time=118800 Track=5 note_on channel=4 note=56 velocity=100 time=360
Time=118800 Track=5 note_on channel=4 note=60 velocity=100 time=0
Time=118800 Track=5 note_on channel=4 note=63 velocity=100 time=0
Time=118800 Track=10 note_on channel=9 note=40 velocity=120 time=180
Time=118800 Track=10 note_on channel=9 note=42 velocity=100 time=0
Time=118860 Track=10 note_off channel=9 note=40 velocity=0 time=60
Time=118860 Track=10 note_off channel=9 note=42 velocity=0 time=0
Time=118904 Track=3 note_off channel=2 note=84 velocity=0 time=104
Time=118920 Track=2 note_off channel=1 note=39 velocity=64 time=120
Time=118920 Track=4 note_off channel=3 note=68 velocity=0 time=120
Time=118920 Track=4 note_off channel=3 note=72 velocity=0 time=0
Time=118920 Track=4 note_off channel=3 note=75 velocity=0 time=0
Time=118920 Track=5 note_off channel=4 note=56 velocity=0 time=120
Time=118920 Track=5 note_off channel=4 note=60 velocity=0 time=0
Time=118920 Track=5 note_off channel=4 note=63 velocity=0 time=0
Time=119040 Track=2 note_on channel=1 note=27 velocity=100 time=120
Time=119040 Track=3 note_on channel=2 note=85 velocity=51 time=136
Time=119040 Track=10 note_on channel=9 note=36 velocity=127 time=180
Time=119040 Track=10 note_on channel=9 note=41 velocity=127 time=0
Time=119040 Track=10 note_on channel=9 note=42 velocity=100 time=0
Time=119100 Track=10 note_off channel=9 note=36 velocity=0 time=60
Time=119100 Track=10 note_off channel=9 note=41 velocity=0 time=0
Time=119100 Track=10 note_off channel=9 note=42 velocity=0 time=0
Time=119279 Track=3 note_off channel=2 note=85 velocity=0 time=239
Time=119280 Track=2 note_off channel=1 note=27 velocity=64 time=240
Time=119280 Track=3 note_on channel=2 note=82 velocity=53 time=1
Time=119280 Track=4 note_on channel=3 note=63 velocity=100 time=360
Time=119280 Track=4 note_on channel=3 note=66 velocity=100 time=0
Time=119280 Track=4 note_on channel=3 note=70 velocity=100 time=0
Time=119280 Track=5 note_on channel=4 note=51 velocity=100 time=360
Time=119280 Track=5 note_on channel=4 note=54 velocity=100 time=0
Time=119280 Track=5 note_on channel=4 note=58 velocity=100 time=0
Time=119280 Track=10 note_on channel=9 note=40 velocity=60 time=180
Time=119340 Track=10 note_off channel=9 note=40 velocity=0 time=60
Time=119346 Track=3 note_off channel=2 note=82 velocity=0 time=66
Time=119400 Track=2 note_on channel=1 note=27 velocity=100 time=120
Time=119400 Track=4 note_off channel=3 note=63 velocity=0 time=120
Time=119400 Track=4 note_off channel=3 note=66 velocity=0 time=0
Time=119400 Track=4 note_off channel=3 note=70 velocity=0 time=0
Time=119400 Track=5 note_off channel=4 note=51 velocity=0 time=120
Time=119400 Track=5 note_off channel=4 note=54 velocity=0 time=0
Time=119400 Track=5 note_off channel=4 note=58 velocity=0 time=0
Time=119400 Track=10 note_on channel=9 note=40 velocity=120 time=60
Time=119400 Track=10 note_on channel=9 note=42 velocity=100 time=0
Time=119459 Track=10 note_off channel=9 note=40 velocity=0 time=59
Time=119460 Track=10 note_off channel=9 note=42 velocity=0 time=1
Time=119520 Track=2 note_off channel=1 note=27 velocity=64 time=120
Time=119520 Track=2 note_on channel=1 note=34 velocity=100 time=0
Time=119520 Track=4 note_on channel=3 note=63 velocity=100 time=120
Time=119520 Track=4 note_on channel=3 note=66 velocity=100 time=0
Time=119520 Track=4 note_on channel=3 note=70 velocity=100 time=0
Time=119520 Track=10 note_on channel=9 note=36 velocity=127 time=60
Time=119520 Track=10 note_on channel=9 note=42 velocity=100 time=0
Time=119580 Track=10 note_off channel=9 note=36 velocity=0 time=60
Time=119580 Track=10 note_off channel=9 note=42 velocity=0 time=0
Time=119640 Track=2 note_off channel=1 note=34 velocity=64 time=120
Time=119640 Track=4 note_off channel=3 note=63 velocity=0 time=120
Time=119640 Track=4 note_off channel=3 note=66 velocity=0 time=0
Time=119640 Track=4 note_off channel=3 note=70 velocity=0 time=0
Time=119760 Track=2 note_on channel=1 note=34 velocity=100 time=120
Time=119760 Track=3 note_on channel=2 note=82 velocity=55 time=414
Time=119760 Track=4 note_on channel=3 note=63 velocity=100 time=120
Time=119760 Track=4 note_on channel=3 note=66 velocity=100 time=0
Time=119760 Track=4 note_on channel=3 note=70 velocity=100 time=0
Time=119760 Track=5 note_on channel=4 note=51 velocity=100 time=360
Time=119760 Track=5 note_on channel=4 note=54 velocity=100 time=0
Time=119760 Track=5 note_on channel=4 note=58 velocity=100 time=0
Time=119760 Track=10 note_on channel=9 note=40 velocity=120 time=180
Time=119760 Track=10 note_on channel=9 note=42 velocity=100 time=0
Time=119819 Track=3 note_off channel=2 note=82 velocity=0 time=59
Time=119819 Track=10 note_off channel=9 note=40 velocity=0 time=59
Time=119820 Track=10 note_off channel=9 note=42 velocity=0 time=1
Time=119880 Track=2 note_off channel=1 note=34 velocity=64 time=120
Time=119880 Track=4 note_off channel=3 note=63 velocity=0 time=120
Time=119880 Track=4 note_off channel=3 note=66 velocity=0 time=0
Time=119880 Track=4 note_off channel=3 note=70 velocity=0 time=0
Time=119880 Track=5 note_off channel=4 note=51 velocity=0 time=120
Time=119880 Track=5 note_off channel=4 note=54 velocity=0 time=0
Time=119880 Track=5 note_off channel=4 note=58 velocity=0 time=0
Time=120000 Track=2 note_on channel=1 note=27 velocity=100 time=120
Time=120000 Track=3 note_on channel=2 note=89 velocity=46 time=181
Time=120000 Track=10 note_on channel=9 note=36 velocity=127 time=180
Time=120000 Track=10 note_on channel=9 note=41 velocity=127 time=0
Time=120000 Track=10 note_on channel=9 note=42 velocity=100 time=0
Time=120060 Track=10 note_off channel=9 note=36 velocity=0 time=60
Time=120060 Track=10 note_off channel=9 note=41 velocity=0 time=0
Time=120060 Track=10 note_off channel=9 note=42 velocity=0 time=0
Time=120119 Track=3 note_off channel=2 note=89 velocity=0 time=119
Time=120240 Track=2 note_off channel=1 note=27 velocity=64 time=240
Time=120240 Track=3 note_on channel=2 note=87 velocity=51 time=121
Time=120240 Track=4 note_on channel=3 note=63 velocity=100 time=360
Time=120240 Track=4 note_on channel=3 note=66 velocity=100 time=0
Time=120240 Track=4 note_on channel=3 note=70 velocity=100 time=0
Time=120240 Track=5 note_on channel=4 note=51 velocity=100 time=360
Time=120240 Track=5 note_on channel=4 note=54 velocity=100 time=0
Time=120240 Track=5 note_on channel=4 note=58 velocity=100 time=0
Time=120240 Track=10 note_on channel=9 note=40 velocity=60 time=180
Time=120299 Track=3 note_off channel=2 note=87 velocity=0 time=59
Time=120300 Track=10 note_off channel=9 note=40 velocity=0 time=60
Time=120360 Track=2 note_on channel=1 note=27 velocity=100 time=120
Time=120360 Track=3 note_on channel=2 note=89 velocity=48 time=61
Time=120360 Track=4 note_off channel=3 note=63 velocity=0 time=120
Time=120360 Track=4 note_off channel=3 note=66 velocity=0 time=0
Time=120360 Track=4 note_off channel=3 note=70 velocity=0 time=0
Time=120360 Track=5 note_off channel=4 note=51 velocity=0 time=120
Time=120360 Track=5 note_off channel=4 note=54 velocity=0 time=0
Time=120360 Track=5 note_off channel=4 note=58 velocity=0 time=0
Time=120360 Track=10 note_on channel=9 note=40 velocity=120 time=60
Time=120360 Track=10 note_on channel=9 note=42 velocity=100 time=0
Time=120420 Track=10 note_off channel=9 note=40 velocity=0 time=60
Time=120420 Track=10 note_off channel=9 note=42 velocity=0 time=0
Time=120479 Track=3 note_off channel=2 note=89 velocity=0 time=119
Time=120480 Track=2 note_off channel=1 note=27 velocity=64 time=120
Time=120480 Track=2 note_on channel=1 note=37 velocity=100 time=0
Time=120480 Track=3 note_on channel=2 note=87 velocity=59 time=1
Time=120480 Track=4 note_on channel=3 note=63 velocity=100 time=120
Time=120480 Track=4 note_on channel=3 note=66 velocity=100 time=0
Time=120480 Track=4 note_on channel=3 note=70 velocity=100 time=0
Time=120480 Track=10 note_on channel=9 note=36 velocity=127 time=60
Time=120480 Track=10 note_on channel=9 note=42 velocity=100 time=0
Time=120540 Track=10 note_off channel=9 note=36 velocity=0 time=60
Time=120540 Track=10 note_off channel=9 note=42 velocity=0 time=0
Time=120570 Track=3 note_off channel=2 note=87 velocity=0 time=90
Time=120600 Track=2 note_off channel=1 note=37 velocity=64 time=120
Time=120600 Track=3 note_on channel=2 note=85 velocity=36 time=30
Time=120600 Track=4 note_off channel=3 note=63 velocity=0 time=120
Time=120600 Track=4 note_off channel=3 note=66 velocity=0 time=0
Time=120600 Track=4 note_off channel=3 note=70 velocity=0 time=0
Time=120637 Track=3 note_off channel=2 note=85 velocity=0 time=37
Time=120720 Track=2 note_on channel=1 note=37 velocity=100 time=120
Time=120720 Track=3 note_on channel=2 note=85 velocity=55 time=83
Time=120720 Track=4 note_on channel=3 note=63 velocity=100 time=120
Time=120720 Track=4 note_on channel=3 note=66 velocity=100 time=0
Time=120720 Track=4 note_on channel=3 note=70 velocity=100 time=0
Time=120720 Track=5 note_on channel=4 note=51 velocity=100 time=360
Time=120720 Track=5 note_on channel=4 note=54 velocity=100 time=0
Time=120720 Track=5 note_on channel=4 note=58 velocity=100 time=0
Time=120720 Track=10 note_on channel=9 note=40 velocity=120 time=180
Time=120720 Track=10 note_on channel=9 note=42 velocity=100 time=0
Time=120780 Track=10 note_off channel=9 note=40 velocity=0 time=16
Time=120780 Track=10 note_off channel=9 note=42 velocity=0 time=0
Time=120785 Track=3 note_off channel=2 note=85 velocity=0 time=65
Time=120840 Track=2 note_off channel=1 note=37 velocity=64 time=120
Time=120840 Track=4 note_off channel=3 note=63 velocity=0 time=120
Time=120840 Track=4 note_off channel=3 note=66 velocity=0 time=0
Time=120840 Track=4 note_off channel=3 note=70 velocity=0 time=0
Time=120840 Track=5 note_off channel=4 note=51 velocity=0 time=120
Time=120840 Track=5 note_off channel=4 note=54 velocity=0 time=0
Time=120840 Track=5 note_off channel=4 note=58 velocity=0 time=0
Time=120960 Track=2 note_on channel=1 note=34 velocity=100 time=120
Time=120960 Track=3 note_on channel=2 note=85 velocity=55 time=90
Time=120960 Track=10 note_on channel=9 note=36 velocity=127 time=180
Time=120960 Track=10 note_on channel=9 note=41 velocity=127 time=0
Time=120960 Track=10 note_on channel=9 note=42 velocity=100 time=0
Time=121020 Track=10 note_off channel=9 note=36 velocity=0 time=60
Time=121020 Track=10 note_off channel=9 note=41 velocity=0 time=0
Time=121020 Track=10 note_off channel=9 note=42 velocity=0 time=0
Time=121200 Track=2 note_off channel=1 note=34 velocity=64 time=240
Time=121200 Track=4 note_on channel=3 note=70 velocity=100 time=360
Time=121200 Track=4 note_on channel=3 note=73 velocity=100 time=0
Time=121200 Track=4 note_on channel=3 note=77 velocity=100 time=0
Time=121200 Track=5 note_on channel=4 note=58 velocity=100 time=360
Time=121200 Track=5 note_on channel=4 note=61 velocity=100 time=0
Time=121200 Track=5 note_on channel=4 note=65 velocity=100 time=0
Time=121200 Track=10 note_on channel=9 note=40 velocity=60 time=144
Time=121260 Track=10 note_off channel=9 note=40 velocity=0 time=60
Time=121320 Track=2 note_on channel=1 note=37 velocity=100 time=120
Time=121320 Track=4 note_off channel=3 note=70 velocity=0 time=120
Time=121320 Track=4 note_off channel=3 note=73 velocity=0 time=0
Time=121320 Track=4 note_off channel=3 note=77 velocity=0 time=0
Time=121320 Track=5 note_off channel=4 note=58 velocity=0 time=120
Time=121320 Track=5 note_off channel=4 note=61 velocity=0 time=0
Time=121320 Track=5 note_off channel=4 note=65 velocity=0 time=0
Time=121320 Track=10 note_on channel=9 note=40 velocity=120 time=60
Time=121320 Track=10 note_on channel=9 note=42 velocity=100 time=0
Time=121351 Track=3 note_off channel=2 note=85 velocity=0 time=8
Time=121380 Track=10 note_off channel=9 note=40 velocity=0 time=60
Time=121380 Track=10 note_off channel=9 note=42 velocity=0 time=0
Time=121440 Track=2 note_off channel=1 note=37 velocity=64 time=120
Time=121440 Track=2 note_on channel=1 note=41 velocity=100 time=0
Time=121440 Track=4 note_on channel=3 note=70 velocity=100 time=120
Time=121440 Track=4 note_on channel=3 note=73 velocity=100 time=0
Time=121440 Track=4 note_on channel=3 note=77 velocity=100 time=0
Time=121440 Track=10 note_on channel=9 note=36 velocity=127 time=60
Time=121440 Track=10 note_on channel=9 note=42 velocity=100 time=0
Time=121500 Track=10 note_off channel=9 note=36 velocity=0 time=60
Time=121500 Track=10 note_off channel=9 note=42 velocity=0 time=0
Time=121560 Track=2 note_off channel=1 note=41 velocity=64 time=120
Time=121560 Track=3 note_on channel=2 note=85 velocity=42 time=24
Time=121560 Track=4 note_off channel=3 note=70 velocity=0 time=120
Time=121560 Track=4 note_off channel=3 note=73 velocity=0 time=0
Time=121560 Track=4 note_off channel=3 note=77 velocity=0 time=0
Time=121618 Track=3 note_off channel=2 note=85 velocity=0 time=17
Time=121680 Track=2 note_on channel=1 note=41 velocity=100 time=120
Time=121680 Track=3 note_on channel=2 note=85 velocity=42 time=27
Time=121680 Track=4 note_on channel=3 note=70 velocity=100 time=120
Time=121680 Track=4 note_on channel=3 note=73 velocity=100 time=0
Time=121680 Track=4 note_on channel=3 note=77 velocity=100 time=0
Time=121680 Track=5 note_on channel=4 note=58 velocity=100 time=360
Time=121680 Track=5 note_on channel=4 note=61 velocity=100 time=0
Time=121680 Track=5 note_on channel=4 note=65 velocity=100 time=0
Time=121680 Track=10 note_on channel=9 note=40 velocity=120 time=180
Time=121680 Track=10 note_on channel=9 note=42 velocity=100 time=0
Time=121740 Track=10 note_off channel=9 note=40 velocity=0 time=60
Time=121740 Track=10 note_off channel=9 note=42 velocity=0 time=0
Time=121784 Track=3 note_off channel=2 note=85 velocity=0 time=20
Time=121800 Track=2 note_off channel=1 note=41 velocity=64 time=120
Time=121800 Track=4 note_off channel=3 note=70 velocity=0 time=120
Time=121800 Track=4 note_off channel=3 note=73 velocity=0 time=0
Time=121800 Track=4 note_off channel=3 note=77 velocity=0 time=0
Time=121800 Track=5 note_off channel=4 note=58 velocity=0 time=120
Time=121800 Track=5 note_off channel=4 note=61 velocity=0 time=0
Time=121800 Track=5 note_off channel=4 note=65 velocity=0 time=0
Time=121920 Track=2 note_on channel=1 note=32 velocity=100 time=120
Time=121920 Track=3 note_on channel=2 note=87 velocity=39 time=13
Time=121920 Track=10 note_on channel=9 note=36 velocity=127 time=180
Time=121920 Track=10 note_on channel=9 note=41 velocity=127 time=0
Time=121920 Track=10 note_on channel=9 note=42 velocity=100 time=0
Time=121977 Track=10 note_off channel=9 note=42 velocity=0 time=57
Time=121980 Track=10 note_off channel=9 note=36 velocity=0 time=3
Time=121980 Track=10 note_off channel=9 note=41 velocity=0 time=0
Time=122160 Track=2 note_off channel=1 note=32 velocity=64 time=240
Time=122160 Track=3 note_on channel=2 note=84 velocity=58 time=24
Time=122160 Track=4 note_on channel=3 note=68 velocity=100 time=360
Time=122160 Track=4 note_on channel=3 note=72 velocity=100 time=0
Time=122160 Track=4 note_on channel=3 note=75 velocity=100 time=0
Time=122160 Track=5 note_on channel=4 note=56 velocity=100 time=360
Time=122160 Track=5 note_on channel=4 note=60 velocity=100 time=0
Time=122160 Track=5 note_on channel=4 note=63 velocity=100 time=0
Time=122160 Track=10 note_on channel=9 note=40 velocity=60 time=180
Time=122165 Track=3 note_off channel=2 note=87 velocity=0 time=5
Time=122218 Track=3 note_off channel=2 note=84 velocity=0 time=1
Time=122219 Track=10 note_off channel=9 note=40 velocity=0 time=59
Time=122280 Track=2 note_on channel=1 note=36 velocity=100 time=120
Time=122280 Track=3 note_on channel=2 note=84 velocity=45 time=33
Time=122280 Track=4 note_off channel=3 note=68 velocity=0 time=120
Time=122280 Track=4 note_off channel=3 note=72 velocity=0 time=0
Time=122280 Track=4 note_off channel=3 note=75 velocity=0 time=0
Time=122280 Track=5 note_off channel=4 note=56 velocity=0 time=120
Time=122280 Track=5 note_off channel=4 note=60 velocity=0 time=0
Time=122280 Track=5 note_off channel=4 note=63 velocity=0 time=0
Time=122280 Track=10 note_on channel=9 note=40 velocity=120 time=61
Time=122280 Track=10 note_on channel=9 note=42 velocity=100 time=0
Time=122340 Track=10 note_off channel=9 note=40 velocity=0 time=60
Time=122340 Track=10 note_off channel=9 note=42 velocity=0 time=0
Time=122370 Track=3 note_off channel=2 note=84 velocity=0 time=28
Time=122400 Track=2 note_off channel=1 note=36 velocity=64 time=120
Time=122400 Track=2 note_on channel=1 note=39 velocity=100 time=0
Time=122400 Track=3 note_on channel=2 note=84 velocity=49 time=20
Time=122400 Track=4 note_on channel=3 note=68 velocity=100 time=120
Time=122400 Track=4 note_on channel=3 note=72 velocity=100 time=0
Time=122400 Track=4 note_on channel=3 note=75 velocity=100 time=0
Time=122400 Track=10 note_on channel=9 note=36 velocity=127 time=60
Time=122400 Track=10 note_on channel=9 note=42 velocity=100 time=0
Time=122460 Track=10 note_off channel=9 note=36 velocity=0 time=60
Time=122461 Track=10 note_off channel=9 note=42 velocity=0 time=1
Time=122490 Track=3 note_off channel=2 note=84 velocity=0 time=13
Time=122490 Track=3 note_on channel=2 note=85 velocity=36 time=0
Time=122520 Track=2 note_off channel=1 note=39 velocity=64 time=120
Time=122520 Track=4 note_off channel=3 note=68 velocity=0 time=120
Time=122520 Track=4 note_off channel=3 note=72 velocity=0 time=0
Time=122520 Track=4 note_off channel=3 note=75 velocity=0 time=0
Time=122610 Track=3 note_off channel=2 note=85 velocity=0 time=29
Time=122640 Track=2 note_on channel=1 note=39 velocity=100 time=120
Time=122640 Track=3 note_on channel=2 note=84 velocity=66 time=7
Time=122640 Track=4 note_on channel=3 note=68 velocity=100 time=120
Time=122640 Track=4 note_on channel=3 note=72 velocity=100 time=0
Time=122640 Track=4 note_on channel=3 note=75 velocity=100 time=0
Time=122640 Track=5 note_on channel=4 note=56 velocity=100 time=360
Time=122640 Track=5 note_on channel=4 note=60 velocity=100 time=0
Time=122640 Track=5 note_on channel=4 note=63 velocity=100 time=0
Time=122640 Track=10 note_on channel=9 note=40 velocity=120 time=179
Time=122640 Track=10 note_on channel=9 note=42 velocity=100 time=0
Time=122700 Track=10 note_off channel=9 note=40 velocity=0 time=60
Time=122700 Track=10 note_off channel=9 note=42 velocity=0 time=0
Time=122760 Track=2 note_off channel=1 note=39 velocity=64 time=120
Time=122760 Track=3 note_off channel=2 note=84 velocity=0 time=67
Time=122760 Track=4 note_off channel=3 note=68 velocity=0 time=120
Time=122760 Track=4 note_off channel=3 note=72 velocity=0 time=0
Time=122760 Track=4 note_off channel=3 note=75 velocity=0 time=0
Time=122760 Track=5 note_off channel=4 note=56 velocity=0 time=120
Time=122760 Track=5 note_off channel=4 note=60 velocity=0 time=0
Time=122760 Track=5 note_off channel=4 note=63 velocity=0 time=0
Time=122880 Track=2 note_on channel=1 note=27 velocity=100 time=120
Time=122880 Track=3 note_on channel=2 note=85 velocity=66 time=1
Time=122880 Track=10 note_on channel=9 note=36 velocity=127 time=180
Time=122880 Track=10 note_on channel=9 note=41 velocity=127 time=0
Time=122880 Track=10 note_on channel=9 note=42 velocity=100 time=0
Time=122940 Track=10 note_off channel=9 note=36 velocity=0 time=60
Time=122940 Track=10 note_off channel=9 note=41 velocity=0 time=0
Time=122940 Track=10 note_off channel=9 note=42 velocity=0 time=0
Time=123090 Track=3 note_off channel=2 note=85 velocity=0 time=26
Time=123120 Track=2 note_off channel=1 note=27 velocity=64 time=240
Time=123120 Track=3 note_on channel=2 note=82 velocity=33 time=19
Time=123120 Track=4 note_on channel=3 note=63 velocity=100 time=360
Time=123120 Track=4 note_on channel=3 note=66 velocity=100 time=0
Time=123120 Track=4 note_on channel=3 note=70 velocity=100 time=0
Time=123120 Track=5 note_on channel=4 note=51 velocity=100 time=360
Time=123120 Track=5 note_on channel=4 note=54 velocity=100 time=0
Time=123120 Track=5 note_on channel=4 note=58 velocity=100 time=0
Time=123120 Track=10 note_on channel=9 note=40 velocity=60 time=180
Time=123180 Track=10 note_off channel=9 note=40 velocity=0 time=60
Time=123210 Track=3 note_off channel=2 note=82 velocity=0 time=34
Time=123240 Track=2 note_on channel=1 note=30 velocity=100 time=120
Time=123240 Track=4 note_off channel=3 note=63 velocity=0 time=120
Time=123240 Track=4 note_off channel=3 note=66 velocity=0 time=0
Time=123240 Track=4 note_off channel=3 note=70 velocity=0 time=0
Time=123240 Track=5 note_off channel=4 note=51 velocity=0 time=120
Time=123240 Track=5 note_off channel=4 note=54 velocity=0 time=0
Time=123240 Track=5 note_off channel=4 note=58 velocity=0 time=0
Time=123240 Track=10 note_on channel=9 note=40 velocity=120 time=60
Time=123240 Track=10 note_on channel=9 note=42 velocity=100 time=0
Time=123300 Track=10 note_off channel=9 note=40 velocity=0 time=60
Time=123300 Track=10 note_off channel=9 note=42 velocity=0 time=0
Time=123360 Track=2 note_off channel=1 note=30 velocity=64 time=120
Time=123360 Track=2 note_on channel=1 note=34 velocity=100 time=0
Time=123360 Track=4 note_on channel=3 note=63 velocity=100 time=120
Time=123360 Track=4 note_on channel=3 note=66 velocity=100 time=0
Time=123360 Track=4 note_on channel=3 note=70 velocity=100 time=0
Time=123360 Track=10 note_on channel=9 note=36 velocity=127 time=60
Time=123360 Track=10 note_on channel=9 note=42 velocity=100 time=0
Time=123420 Track=10 note_off channel=9 note=36 velocity=0 time=60
Time=123420 Track=10 note_off channel=9 note=42 velocity=0 time=0
Time=123480 Track=2 note_off channel=1 note=34 velocity=64 time=120
Time=123480 Track=3 note_on channel=2 note=82 velocity=83 time=8
Time=123480 Track=4 note_off channel=3 note=63 velocity=0 time=120
Time=123480 Track=4 note_off channel=3 note=66 velocity=0 time=0
Time=123480 Track=4 note_off channel=3 note=70 velocity=0 time=0
Time=123540 Track=3 note_off channel=2 note=82 velocity=0 time=60
Time=123600 Track=2 note_on channel=1 note=34 velocity=100 time=120
Time=123600 Track=3 note_on channel=2 note=85 velocity=100 time=24
Time=123600 Track=4 note_on channel=3 note=63 velocity=100 time=120
Time=123600 Track=4 note_on channel=3 note=66 velocity=100 time=0
Time=123600 Track=4 note_on channel=3 note=70 velocity=100 time=0
Time=123600 Track=5 note_on channel=4 note=51 velocity=100 time=360
Time=123600 Track=5 note_on channel=4 note=54 velocity=100 time=0
Time=123600 Track=5 note_on channel=4 note=58 velocity=100 time=0
Time=123600 Track=10 note_on channel=9 note=40 velocity=120 time=180
Time=123600 Track=10 note_on channel=9 note=42 velocity=100 time=0
Time=123660 Track=3 note_off channel=2 note=85 velocity=0 time=2
Time=123660 Track=10 note_off channel=9 note=40 velocity=0 time=60
Time=123660 Track=10 note_off channel=9 note=42 velocity=0 time=0
Time=123720 Track=2 note_off channel=1 note=34 velocity=64 time=120
Time=123720 Track=3 note_on channel=2 note=84 velocity=99 time=32
Time=123720 Track=4 note_off channel=3 note=63 velocity=0 time=120
Time=123720 Track=4 note_off channel=3 note=66 velocity=0 time=0
Time=123720 Track=4 note_off channel=3 note=70 velocity=0 time=0
Time=123720 Track=5 note_off channel=4 note=51 velocity=0 time=120
Time=123720 Track=5 note_off channel=4 note=54 velocity=0 time=0
Time=123720 Track=5 note_off channel=4 note=58 velocity=0 time=0
Time=123780 Track=3 note_off channel=2 note=84 velocity=0 time=3
Time=123840 Track=2 note_on channel=1 note=27 velocity=100 time=120
Time=123840 Track=3 note_on channel=2 note=85 velocity=104 time=32
Time=123840 Track=10 note_on channel=9 note=36 velocity=127 time=180
Time=123840 Track=10 note_on channel=9 note=40 velocity=60 time=0
Time=123840 Track=10 note_on channel=9 note=45 velocity=119 time=0
Time=123900 Track=3 note_off channel=2 note=85 velocity=0 time=18
Time=123900 Track=10 note_off channel=9 note=36 velocity=0 time=60
Time=123900 Track=10 note_off channel=9 note=40 velocity=0 time=0
Time=123900 Track=10 note_off channel=9 note=45 velocity=0 time=0
Time=123960 Track=3 note_on channel=2 note=85 velocity=91 time=11
Time=124020 Track=3 note_off channel=2 note=85 velocity=0 time=10
Time=124080 Track=2 note_off channel=1 note=27 velocity=64 time=240
Time=124080 Track=3 note_on channel=2 note=82 velocity=99 time=33
Time=124080 Track=10 note_on channel=9 note=40 velocity=120 time=180
Time=124080 Track=10 note_on channel=9 note=42 velocity=100 time=0
Time=124140 Track=3 note_off channel=2 note=82 velocity=0 time=24
Time=124140 Track=10 note_off channel=9 note=40 velocity=0 time=60
Time=124140 Track=10 note_off channel=9 note=42 velocity=0 time=0
Time=124200 Track=2 note_on channel=1 note=27 velocity=100 time=120
Time=124200 Track=10 note_on channel=9 note=40 velocity=120 time=60
Time=124240 Track=10 note_off channel=9 note=40 velocity=0 time=40
Time=124260 Track=10 note_on channel=9 note=40 velocity=120 time=20
Time=124300 Track=10 note_off channel=9 note=40 velocity=0 time=40
Time=124320 Track=2 note_off channel=1 note=27 velocity=64 time=120
Time=124320 Track=2 note_on channel=1 note=37 velocity=100 time=0
Time=124320 Track=10 note_on channel=9 note=40 velocity=120 time=20
Time=124380 Track=10 note_off channel=9 note=40 velocity=0 time=60
Time=124440 Track=2 note_off channel=1 note=37 velocity=64 time=120
Time=124440 Track=10 note_on channel=9 note=40 velocity=120 time=60
Time=124500 Track=10 note_off channel=9 note=40 velocity=0 time=60
Time=124560 Track=2 note_on channel=1 note=37 velocity=100 time=120
Time=124560 Track=3 note_on channel=2 note=85 velocity=99 time=5
Time=124560 Track=10 note_on channel=9 note=40 velocity=120 time=60
Time=124619 Track=10 note_off channel=9 note=40 velocity=0 time=59
Time=124620 Track=3 note_off channel=2 note=85 velocity=0 time=22
Time=124680 Track=2 note_off channel=1 note=37 velocity=64 time=120
