Archivo MIDI: midifiles/P.FLOYD.Another brick in the wall K.mid
Ticks per beat: 120
Tiempo total de la canción: 47440 ticks
Número de pistas: 18
Eventos:
Time=900 Track=3 note_on channel=0 note=36 velocity=101 time=775
Time=900 Track=4 note_on channel=1 note=36 velocity=99 time=770
Time=900 Track=11 note_on channel=9 note=36 velocity=121 time=720
Time=925 Track=11 note_on channel=9 note=36 velocity=0 time=25
Time=935 Track=5 note_on channel=2 note=50 velocity=101 time=800
Time=935 Track=6 note_on channel=3 note=50 velocity=101 time=795
Time=945 Track=5 note_on channel=2 note=57 velocity=91 time=10
Time=945 Track=6 note_on channel=3 note=57 velocity=91 time=10
Time=950 Track=5 note_on channel=2 note=62 velocity=104 time=5
Time=950 Track=6 note_on channel=3 note=62 velocity=104 time=5
Time=960 Track=3 note_on channel=0 note=38 velocity=103 time=60
Time=960 Track=3 note_on channel=0 note=36 velocity=0 time=0
Time=960 Track=4 note_on channel=1 note=38 velocity=101 time=60
Time=960 Track=4 note_on channel=1 note=36 velocity=0 time=0
Time=960 Track=5 note_on channel=2 note=65 velocity=94 time=10
Time=960 Track=6 note_on channel=3 note=65 velocity=94 time=10
Time=960 Track=11 note_on channel=9 note=36 velocity=121 time=35
Time=960 Track=11 note_on channel=9 note=42 velocity=112 time=0
Time=960 Track=11 note_on channel=9 note=49 velocity=92 time=0
Time=965 Track=5 note_on channel=2 note=69 velocity=96 time=5
Time=965 Track=6 note_on channel=3 note=69 velocity=96 time=5
Time=995 Track=11 note_on channel=9 note=42 velocity=0 time=35
Time=1015 Track=11 note_on channel=9 note=49 velocity=0 time=20
Time=1015 Track=11 note_on channel=9 note=36 velocity=0 time=0
Time=1020 Track=11 note_on channel=9 note=42 velocity=83 time=5
Time=1040 Track=5 note_on channel=2 note=65 velocity=0 time=0
Time=1040 Track=6 note_on channel=3 note=65 velocity=0 time=75
Time=1045 Track=5 note_on channel=2 note=65 velocity=108 time=0
Time=1045 Track=5 note_on channel=2 note=62 velocity=0 time=0
Time=1045 Track=6 note_on channel=3 note=65 velocity=108 time=5
Time=1045 Track=6 note_on channel=3 note=62 velocity=0 time=0
Time=1045 Track=7 note_on channel=4 note=65 velocity=107 time=0
Time=1050 Track=5 note_on channel=2 note=62 velocity=97 time=5
Time=1050 Track=6 note_on channel=3 note=62 velocity=97 time=5
Time=1050 Track=7 note_on channel=4 note=62 velocity=105 time=5
Time=1050 Track=7 note_on channel=4 note=65 velocity=0 time=0
Time=1055 Track=7 note_on channel=4 note=62 velocity=0 time=5
Time=1065 Track=11 note_on channel=9 note=42 velocity=0 time=45
Time=1070 Track=5 note_on channel=2 note=57 velocity=100 time=0
Time=1070 Track=5 note_on channel=2 note=57 velocity=0 time=0
Time=1070 Track=6 note_on channel=3 note=57 velocity=100 time=20
Time=1070 Track=6 note_on channel=3 note=57 velocity=0 time=0
Time=1070 Track=7 note_on channel=4 note=57 velocity=107 time=0
Time=1075 Track=5 note_on channel=2 note=62 velocity=108 time=5
Time=1075 Track=5 note_on channel=2 note=62 velocity=0 time=0
Time=1075 Track=5 note_on channel=2 note=65 velocity=0 time=0
Time=1075 Track=5 note_on channel=2 note=69 velocity=0 time=0
Time=1075 Track=6 note_on channel=3 note=62 velocity=108 time=5
Time=1075 Track=6 note_on channel=3 note=62 velocity=0 time=0
Time=1075 Track=6 note_on channel=3 note=65 velocity=0 time=0
Time=1075 Track=6 note_on channel=3 note=69 velocity=0 time=0
Time=1075 Track=7 note_on channel=4 note=62 velocity=107 time=5
Time=1080 Track=5 note_on channel=2 note=65 velocity=90 time=5
Time=1080 Track=5 note_on channel=2 note=50 velocity=0 time=0
Time=1080 Track=6 note_on channel=3 note=65 velocity=90 time=5
Time=1080 Track=6 note_on channel=3 note=50 velocity=0 time=0
Time=1080 Track=7 note_on channel=4 note=65 velocity=98 time=5
Time=1080 Track=7 note_on channel=4 note=57 velocity=0 time=0
Time=1080 Track=11 note_on channel=9 note=36 velocity=120 time=15
Time=1080 Track=11 note_on channel=9 note=40 velocity=127 time=0
Time=1080 Track=11 note_on channel=9 note=42 velocity=125 time=0
Time=1085 Track=7 note_on channel=4 note=65 velocity=0 time=5
Time=1085 Track=7 note_on channel=4 note=62 velocity=0 time=0
Time=1100 Track=5 note_on channel=2 note=62 velocity=0 time=20
Time=1100 Track=6 note_on channel=3 note=62 velocity=0 time=20
Time=1125 Track=6 note_on channel=3 note=57 velocity=0 time=25
Time=1125 Track=6 note_on channel=3 note=65 velocity=0 time=0
Time=1130 Track=5 note_on channel=2 note=57 velocity=89 time=30
Time=1130 Track=5 note_on channel=2 note=60 velocity=116 time=0
Time=1130 Track=5 note_on channel=2 note=57 velocity=0 time=0
Time=1130 Track=5 note_on channel=2 note=65 velocity=0 time=0
Time=1130 Track=6 note_on channel=3 note=57 velocity=89 time=5
Time=1130 Track=6 note_on channel=3 note=60 velocity=116 time=0
Time=1130 Track=11 note_on channel=9 note=42 velocity=0 time=50
Time=1135 Track=11 note_on channel=9 note=40 velocity=0 time=5
Time=1135 Track=11 note_on channel=9 note=36 velocity=0 time=0
Time=1140 Track=5 note_on channel=2 note=65 velocity=106 time=5
Time=1140 Track=6 note_on channel=3 note=65 velocity=106 time=10
Time=1140 Track=11 note_on channel=9 note=42 velocity=93 time=5
Time=1185 Track=11 note_on channel=9 note=42 velocity=0 time=45
Time=1195 Track=5 note_on channel=2 note=57 velocity=91 time=5
Time=1195 Track=5 note_on channel=2 note=62 velocity=113 time=0
Time=1195 Track=5 note_on channel=2 note=65 velocity=0 time=0
Time=1195 Track=5 note_on channel=2 note=60 velocity=0 time=0
Time=1195 Track=5 note_on channel=2 note=57 velocity=0 time=0
Time=1195 Track=6 note_on channel=3 note=57 velocity=91 time=55
Time=1195 Track=6 note_on channel=3 note=62 velocity=113 time=0
Time=1195 Track=6 note_on channel=3 note=65 velocity=0 time=0
Time=1195 Track=6 note_on channel=3 note=57 velocity=0 time=0
Time=1195 Track=6 note_on channel=3 note=60 velocity=0 time=0
Time=1195 Track=7 note_on channel=4 note=57 velocity=99 time=5
Time=1195 Track=7 note_on channel=4 note=62 velocity=107 time=0
Time=1200 Track=5 note_on channel=2 note=65 velocity=96 time=5
Time=1200 Track=6 note_on channel=3 note=65 velocity=96 time=5
Time=1200 Track=7 note_on channel=4 note=65 velocity=104 time=5
Time=1200 Track=11 note_on channel=9 note=36 velocity=120 time=15
Time=1200 Track=11 note_on channel=9 note=42 velocity=114 time=0
Time=1205 Track=7 note_on channel=4 note=65 velocity=0 time=5
Time=1205 Track=7 note_on channel=4 note=62 velocity=0 time=0
Time=1205 Track=7 note_on channel=4 note=57 velocity=0 time=0
Time=1225 Track=5 note_on channel=2 note=65 velocity=115 time=25
Time=1225 Track=5 note_on channel=2 note=65 velocity=0 time=0
Time=1225 Track=6 note_on channel=3 note=65 velocity=115 time=25
Time=1225 Track=6 note_on channel=3 note=65 velocity=0 time=0
Time=1225 Track=6 note_on channel=3 note=62 velocity=0 time=0
Time=1225 Track=7 note_on channel=4 note=65 velocity=107 time=20
Time=1230 Track=5 note_on channel=2 note=62 velocity=94 time=5
Time=1230 Track=5 note_on channel=2 note=62 velocity=0 time=0
Time=1230 Track=6 note_on channel=3 note=62 velocity=94 time=5
Time=1230 Track=7 note_on channel=4 note=62 velocity=102 time=5
Time=1235 Track=7 note_on channel=4 note=62 velocity=0 time=5
Time=1235 Track=7 note_on channel=4 note=65 velocity=0 time=0
Time=1245 Track=11 note_on channel=9 note=42 velocity=0 time=45
Time=1255 Track=6 note_on channel=3 note=65 velocity=0 time=25
Time=1255 Track=7 note_on channel=4 note=65 velocity=78 time=20
Time=1255 Track=11 note_on channel=9 note=36 velocity=0 time=10
Time=1256 Track=7 note_on channel=4 note=65 velocity=0 time=1
Time=1260 Track=5 note_on channel=2 note=62 velocity=1 time=30
Time=1260 Track=5 note_on channel=2 note=65 velocity=0 time=0
Time=1260 Track=5 note_on channel=2 note=62 velocity=0 time=0
Time=1260 Track=5 note_on channel=2 note=57 velocity=0 time=0
Time=1260 Track=6 note_on channel=3 note=62 velocity=1 time=5
Time=1260 Track=6 note_on channel=3 note=62 velocity=0 time=0
Time=1260 Track=6 note_on channel=3 note=57 velocity=0 time=0
Time=1260 Track=7 note_on channel=4 note=62 velocity=78 time=4
Time=1260 Track=11 note_on channel=9 note=42 velocity=94 time=5
Time=1261 Track=5 note_on channel=2 note=62 velocity=0 time=1
Time=1261 Track=6 note_on channel=3 note=62 velocity=0 time=1
Time=1261 Track=7 note_on channel=4 note=62 velocity=0 time=1
Time=1285 Track=5 note_on channel=2 note=65 velocity=1 time=24
Time=1285 Track=6 note_on channel=3 note=65 velocity=1 time=24
Time=1285 Track=7 note_on channel=4 note=65 velocity=76 time=24
Time=1286 Track=5 note_on channel=2 note=65 velocity=0 time=1
Time=1286 Track=6 note_on channel=3 note=65 velocity=0 time=1
Time=1286 Track=7 note_on channel=4 note=65 velocity=0 time=1
Time=1290 Track=5 note_on channel=2 note=62 velocity=1 time=4
Time=1290 Track=6 note_on channel=3 note=62 velocity=1 time=4
Time=1290 Track=7 note_on channel=4 note=62 velocity=76 time=4
Time=1291 Track=5 note_on channel=2 note=62 velocity=0 time=1
Time=1291 Track=6 note_on channel=3 note=62 velocity=0 time=1
Time=1291 Track=7 note_on channel=4 note=62 velocity=0 time=1
Time=1305 Track=11 note_on channel=9 note=42 velocity=0 time=45
Time=1310 Track=5 note_on channel=2 note=57 velocity=90 time=19
Time=1310 Track=6 note_on channel=3 note=57 velocity=90 time=19
Time=1310 Track=7 note_on channel=4 note=57 velocity=98 time=19
Time=1315 Track=5 note_on channel=2 note=62 velocity=115 time=0
Time=1315 Track=5 note_on channel=2 note=65 velocity=97 time=0
Time=1315 Track=6 note_on channel=3 note=62 velocity=115 time=5
Time=1315 Track=6 note_on channel=3 note=65 velocity=97 time=0
Time=1315 Track=7 note_on channel=4 note=62 velocity=107 time=0
Time=1315 Track=7 note_on channel=4 note=65 velocity=105 time=0
Time=1320 Track=5 note_on channel=2 note=69 velocity=96 time=5
Time=1320 Track=6 note_on channel=3 note=69 velocity=96 time=5
Time=1320 Track=7 note_on channel=4 note=69 velocity=104 time=5
Time=1320 Track=7 note_on channel=4 note=57 velocity=0 time=0
Time=1320 Track=11 note_on channel=9 note=36 velocity=119 time=15
Time=1320 Track=11 note_on channel=9 note=40 velocity=127 time=0
Time=1320 Track=11 note_on channel=9 note=42 velocity=126 time=0
Time=1325 Track=7 note_on channel=4 note=62 velocity=0 time=5
Time=1325 Track=7 note_on channel=4 note=65 velocity=0 time=0
Time=1325 Track=7 note_on channel=4 note=69 velocity=0 time=0
Time=1345 Track=5 note_on channel=2 note=65 velocity=118 time=25
Time=1345 Track=5 note_on channel=2 note=65 velocity=0 time=0
Time=1345 Track=6 note_on channel=3 note=65 velocity=118 time=25
Time=1345 Track=6 note_on channel=3 note=65 velocity=0 time=0
Time=1345 Track=6 note_on channel=3 note=62 velocity=0 time=0
Time=1345 Track=7 note_on channel=4 note=65 velocity=107 time=20
Time=1350 Track=5 note_on channel=2 note=62 velocity=91 time=5
Time=1350 Track=5 note_on channel=2 note=62 velocity=0 time=0
Time=1350 Track=6 note_on channel=3 note=62 velocity=91 time=5
Time=1350 Track=7 note_on channel=4 note=62 velocity=99 time=5
Time=1355 Track=7 note_on channel=4 note=62 velocity=0 time=5
Time=1355 Track=7 note_on channel=4 note=65 velocity=0 time=0
Time=1360 Track=5 note_on channel=2 note=57 velocity=0 time=10
Time=1360 Track=6 note_on channel=3 note=57 velocity=0 time=10
Time=1360 Track=11 note_on channel=9 note=42 velocity=0 time=40
Time=1370 Track=5 note_on channel=2 note=65 velocity=0 time=10
Time=1370 Track=6 note_on channel=3 note=65 velocity=0 time=10
Time=1375 Track=6 note_on channel=3 note=69 velocity=0 time=5
Time=1375 Track=6 note_on channel=3 note=62 velocity=0 time=0
Time=1375 Track=11 note_on channel=9 note=40 velocity=0 time=15
Time=1375 Track=11 note_on channel=9 note=36 velocity=0 time=0
Time=1380 Track=5 note_on channel=2 note=62 velocity=1 time=10
Time=1380 Track=5 note_on channel=2 note=65 velocity=1 time=0
Time=1380 Track=5 note_on channel=2 note=69 velocity=0 time=0
Time=1380 Track=5 note_on channel=2 note=62 velocity=0 time=0
Time=1380 Track=6 note_on channel=3 note=62 velocity=1 time=5
Time=1380 Track=6 note_on channel=3 note=65 velocity=1 time=0
Time=1380 Track=7 note_on channel=4 note=62 velocity=72 time=25
Time=1380 Track=7 note_on channel=4 note=65 velocity=72 time=0
Time=1380 Track=11 note_on channel=9 note=46 velocity=121 time=5
Time=1381 Track=5 note_on channel=2 note=62 velocity=0 time=1
Time=1381 Track=5 note_on channel=2 note=65 velocity=0 time=0
Time=1381 Track=6 note_on channel=3 note=65 velocity=0 time=1
Time=1381 Track=6 note_on channel=3 note=62 velocity=0 time=0
Time=1381 Track=7 note_on channel=4 note=65 velocity=0 time=1
Time=1381 Track=7 note_on channel=4 note=62 velocity=0 time=0
Time=1410 Track=5 note_on channel=2 note=65 velocity=1 time=29
Time=1410 Track=6 note_on channel=3 note=65 velocity=1 time=29
Time=1410 Track=7 note_on channel=4 note=65 velocity=71 time=29
Time=1410 Track=7 note_on channel=4 note=62 velocity=71 time=0
Time=1411 Track=5 note_on channel=2 note=65 velocity=0 time=1
Time=1411 Track=6 note_on channel=3 note=65 velocity=0 time=1
Time=1411 Track=7 note_on channel=4 note=62 velocity=0 time=1
Time=1411 Track=7 note_on channel=4 note=65 velocity=0 time=0
Time=1425 Track=11 note_on channel=9 note=46 velocity=0 time=45
Time=1430 Track=5 note_on channel=2 note=50 velocity=101 time=19
Time=1430 Track=6 note_on channel=3 note=50 velocity=101 time=19
Time=1435 Track=5 note_on channel=2 note=62 velocity=104 time=5
Time=1435 Track=5 note_on channel=2 note=57 velocity=91 time=0
Time=1435 Track=6 note_on channel=3 note=62 velocity=104 time=5
Time=1435 Track=6 note_on channel=3 note=57 velocity=91 time=0
Time=1440 Track=5 note_on channel=2 note=65 velocity=94 time=5
Time=1440 Track=6 note_on channel=3 note=65 velocity=94 time=5
Time=1440 Track=11 note_on channel=9 note=36 velocity=121 time=15
Time=1440 Track=11 note_on channel=9 note=42 velocity=112 time=0
Time=1445 Track=5 note_on channel=2 note=69 velocity=96 time=5
Time=1445 Track=6 note_on channel=3 note=69 velocity=96 time=5
Time=1475 Track=11 note_on channel=9 note=42 velocity=0 time=35
Time=1495 Track=11 note_on channel=9 note=36 velocity=0 time=20
Time=1500 Track=11 note_on channel=9 note=42 velocity=83 time=5
Time=1520 Track=5 note_on channel=2 note=65 velocity=0 time=0
Time=1520 Track=6 note_on channel=3 note=65 velocity=0 time=75
Time=1525 Track=5 note_on channel=2 note=65 velocity=108 time=0
Time=1525 Track=5 note_on channel=2 note=62 velocity=0 time=0
Time=1525 Track=6 note_on channel=3 note=65 velocity=108 time=5
Time=1525 Track=6 note_on channel=3 note=62 velocity=0 time=0
Time=1525 Track=7 note_on channel=4 note=65 velocity=107 time=0
Time=1530 Track=5 note_on channel=2 note=62 velocity=97 time=5
Time=1530 Track=6 note_on channel=3 note=62 velocity=97 time=5
Time=1530 Track=7 note_on channel=4 note=62 velocity=105 time=5
Time=1530 Track=7 note_on channel=4 note=65 velocity=0 time=0
Time=1535 Track=7 note_on channel=4 note=62 velocity=0 time=5
Time=1545 Track=11 note_on channel=9 note=42 velocity=0 time=45
Time=1550 Track=5 note_on channel=2 note=57 velocity=100 time=0
Time=1550 Track=5 note_on channel=2 note=57 velocity=0 time=0
Time=1550 Track=6 note_on channel=3 note=57 velocity=100 time=20
Time=1550 Track=6 note_on channel=3 note=57 velocity=0 time=0
Time=1550 Track=7 note_on channel=4 note=57 velocity=107 time=0
Time=1555 Track=5 note_on channel=2 note=62 velocity=108 time=5
Time=1555 Track=5 note_on channel=2 note=62 velocity=0 time=0
Time=1555 Track=5 note_on channel=2 note=65 velocity=0 time=0
Time=1555 Track=5 note_on channel=2 note=69 velocity=0 time=0
Time=1555 Track=6 note_on channel=3 note=62 velocity=108 time=5
Time=1555 Track=6 note_on channel=3 note=62 velocity=0 time=0
Time=1555 Track=6 note_on channel=3 note=65 velocity=0 time=0
Time=1555 Track=6 note_on channel=3 note=69 velocity=0 time=0
Time=1555 Track=7 note_on channel=4 note=62 velocity=107 time=5
Time=1560 Track=5 note_on channel=2 note=65 velocity=90 time=5
Time=1560 Track=6 note_on channel=3 note=65 velocity=90 time=5
Time=1560 Track=7 note_on channel=4 note=65 velocity=98 time=5
Time=1560 Track=7 note_on channel=4 note=57 velocity=0 time=0
Time=1560 Track=11 note_on channel=9 note=36 velocity=120 time=15
Time=1560 Track=11 note_on channel=9 note=40 velocity=127 time=0
Time=1560 Track=11 note_on channel=9 note=42 velocity=125 time=0
Time=1565 Track=7 note_on channel=4 note=65 velocity=0 time=5
Time=1565 Track=7 note_on channel=4 note=62 velocity=0 time=0
Time=1570 Track=6 note_on channel=3 note=50 velocity=0 time=10
Time=1575 Track=5 note_on channel=2 note=50 velocity=0 time=15
Time=1585 Track=6 note_on channel=3 note=57 velocity=0 time=15
Time=1590 Track=5 note_on channel=2 note=57 velocity=0 time=15
Time=1605 Track=6 note_on channel=3 note=65 velocity=0 time=20
Time=1610 Track=5 note_on channel=2 note=57 velocity=89 time=20
Time=1610 Track=5 note_on channel=2 note=60 velocity=116 time=0
Time=1610 Track=5 note_on channel=2 note=65 velocity=0 time=0
Time=1610 Track=6 note_on channel=3 note=57 velocity=89 time=5
Time=1610 Track=6 note_on channel=3 note=60 velocity=116 time=0
Time=1610 Track=11 note_on channel=9 note=42 velocity=0 time=50
Time=1615 Track=11 note_on channel=9 note=40 velocity=0 time=5
Time=1615 Track=11 note_on channel=9 note=36 velocity=0 time=0
Time=1620 Track=5 note_on channel=2 note=65 velocity=106 time=5
Time=1620 Track=6 note_on channel=3 note=65 velocity=106 time=10
Time=1620 Track=6 note_on channel=3 note=62 velocity=0 time=0
Time=1620 Track=11 note_on channel=9 note=42 velocity=93 time=5
Time=1625 Track=5 note_on channel=2 note=62 velocity=0 time=5
Time=1665 Track=11 note_on channel=9 note=42 velocity=0 time=45
Time=1675 Track=5 note_on channel=2 note=57 velocity=91 time=5
Time=1675 Track=5 note_on channel=2 note=62 velocity=113 time=0
Time=1675 Track=5 note_on channel=2 note=60 velocity=0 time=0
Time=1675 Track=5 note_on channel=2 note=65 velocity=0 time=0
Time=1675 Track=5 note_on channel=2 note=57 velocity=0 time=0
Time=1675 Track=6 note_on channel=3 note=57 velocity=91 time=55
Time=1675 Track=6 note_on channel=3 note=62 velocity=113 time=0
Time=1675 Track=6 note_on channel=3 note=57 velocity=0 time=0
Time=1675 Track=6 note_on channel=3 note=65 velocity=0 time=0
Time=1675 Track=6 note_on channel=3 note=60 velocity=0 time=0
Time=1675 Track=7 note_on channel=4 note=57 velocity=99 time=5
Time=1675 Track=7 note_on channel=4 note=62 velocity=107 time=0
Time=1680 Track=5 note_on channel=2 note=65 velocity=96 time=5
Time=1680 Track=6 note_on channel=3 note=65 velocity=96 time=5
Time=1680 Track=7 note_on channel=4 note=65 velocity=104 time=5
Time=1680 Track=11 note_on channel=9 note=36 velocity=120 time=15
Time=1680 Track=11 note_on channel=9 note=42 velocity=114 time=0
Time=1685 Track=7 note_on channel=4 note=65 velocity=0 time=5
Time=1685 Track=7 note_on channel=4 note=62 velocity=0 time=0
Time=1685 Track=7 note_on channel=4 note=57 velocity=0 time=0
Time=1705 Track=5 note_on channel=2 note=65 velocity=115 time=25
Time=1705 Track=5 note_on channel=2 note=65 velocity=0 time=0
Time=1705 Track=6 note_on channel=3 note=65 velocity=115 time=25
Time=1705 Track=6 note_on channel=3 note=65 velocity=0 time=0
Time=1705 Track=6 note_on channel=3 note=62 velocity=0 time=0
Time=1705 Track=7 note_on channel=4 note=65 velocity=107 time=20
Time=1710 Track=5 note_on channel=2 note=62 velocity=94 time=5
Time=1710 Track=5 note_on channel=2 note=62 velocity=0 time=0
Time=1710 Track=6 note_on channel=3 note=62 velocity=94 time=5
Time=1710 Track=7 note_on channel=4 note=62 velocity=102 time=5
Time=1715 Track=7 note_on channel=4 note=62 velocity=0 time=5
Time=1715 Track=7 note_on channel=4 note=65 velocity=0 time=0
Time=1725 Track=11 note_on channel=9 note=42 velocity=0 time=45
Time=1735 Track=6 note_on channel=3 note=65 velocity=0 time=25
Time=1735 Track=7 note_on channel=4 note=65 velocity=78 time=20
Time=1735 Track=11 note_on channel=9 note=36 velocity=0 time=10
Time=1736 Track=7 note_on channel=4 note=65 velocity=0 time=1
Time=1740 Track=5 note_on channel=2 note=62 velocity=1 time=30
Time=1740 Track=5 note_on channel=2 note=65 velocity=0 time=0
Time=1740 Track=5 note_on channel=2 note=62 velocity=0 time=0
Time=1740 Track=5 note_on channel=2 note=57 velocity=0 time=0
Time=1740 Track=6 note_on channel=3 note=62 velocity=1 time=5
Time=1740 Track=6 note_on channel=3 note=62 velocity=0 time=0
Time=1740 Track=6 note_on channel=3 note=57 velocity=0 time=0
Time=1740 Track=7 note_on channel=4 note=62 velocity=78 time=4
Time=1740 Track=11 note_on channel=9 note=42 velocity=94 time=5
Time=1741 Track=5 note_on channel=2 note=62 velocity=0 time=1
Time=1741 Track=6 note_on channel=3 note=62 velocity=0 time=1
Time=1741 Track=7 note_on channel=4 note=62 velocity=0 time=1
Time=1765 Track=5 note_on channel=2 note=65 velocity=1 time=24
Time=1765 Track=6 note_on channel=3 note=65 velocity=1 time=24
Time=1765 Track=7 note_on channel=4 note=65 velocity=76 time=24
Time=1766 Track=5 note_on channel=2 note=65 velocity=0 time=1
Time=1766 Track=6 note_on channel=3 note=65 velocity=0 time=1
Time=1766 Track=7 note_on channel=4 note=65 velocity=0 time=1
Time=1770 Track=5 note_on channel=2 note=62 velocity=1 time=4
Time=1770 Track=6 note_on channel=3 note=62 velocity=1 time=4
Time=1770 Track=7 note_on channel=4 note=62 velocity=76 time=4
Time=1771 Track=5 note_on channel=2 note=62 velocity=0 time=1
Time=1771 Track=6 note_on channel=3 note=62 velocity=0 time=1
Time=1771 Track=7 note_on channel=4 note=62 velocity=0 time=1
Time=1785 Track=11 note_on channel=9 note=42 velocity=0 time=45
Time=1790 Track=5 note_on channel=2 note=57 velocity=90 time=19
Time=1790 Track=6 note_on channel=3 note=57 velocity=90 time=19
Time=1790 Track=7 note_on channel=4 note=57 velocity=98 time=19
Time=1795 Track=5 note_on channel=2 note=62 velocity=115 time=0
Time=1795 Track=5 note_on channel=2 note=65 velocity=97 time=0
Time=1795 Track=6 note_on channel=3 note=62 velocity=115 time=5
Time=1795 Track=6 note_on channel=3 note=65 velocity=97 time=0
Time=1795 Track=7 note_on channel=4 note=62 velocity=107 time=0
Time=1795 Track=7 note_on channel=4 note=65 velocity=105 time=0
Time=1800 Track=5 note_on channel=2 note=69 velocity=96 time=5
Time=1800 Track=6 note_on channel=3 note=69 velocity=96 time=5
Time=1800 Track=7 note_on channel=4 note=69 velocity=104 time=5
Time=1800 Track=7 note_on channel=4 note=57 velocity=0 time=0
Time=1800 Track=11 note_on channel=9 note=36 velocity=119 time=15
Time=1800 Track=11 note_on channel=9 note=40 velocity=127 time=0
Time=1800 Track=11 note_on channel=9 note=42 velocity=126 time=0
Time=1805 Track=7 note_on channel=4 note=62 velocity=0 time=5
Time=1805 Track=7 note_on channel=4 note=65 velocity=0 time=0
Time=1805 Track=7 note_on channel=4 note=69 velocity=0 time=0
Time=1825 Track=5 note_on channel=2 note=65 velocity=118 time=25
Time=1825 Track=5 note_on channel=2 note=65 velocity=0 time=0
Time=1825 Track=6 note_on channel=3 note=65 velocity=118 time=25
Time=1825 Track=6 note_on channel=3 note=65 velocity=0 time=0
Time=1825 Track=6 note_on channel=3 note=62 velocity=0 time=0
Time=1825 Track=7 note_on channel=4 note=65 velocity=107 time=20
Time=1830 Track=5 note_on channel=2 note=62 velocity=91 time=5
Time=1830 Track=5 note_on channel=2 note=62 velocity=0 time=0
Time=1830 Track=6 note_on channel=3 note=62 velocity=91 time=5
Time=1830 Track=7 note_on channel=4 note=62 velocity=99 time=5
Time=1835 Track=7 note_on channel=4 note=62 velocity=0 time=5
Time=1835 Track=7 note_on channel=4 note=65 velocity=0 time=0
Time=1840 Track=5 note_on channel=2 note=57 velocity=0 time=10
Time=1840 Track=6 note_on channel=3 note=57 velocity=0 time=10
Time=1840 Track=11 note_on channel=9 note=42 velocity=0 time=40
Time=1850 Track=5 note_on channel=2 note=65 velocity=0 time=10
Time=1850 Track=6 note_on channel=3 note=65 velocity=0 time=10
Time=1855 Track=6 note_on channel=3 note=69 velocity=0 time=5
Time=1855 Track=6 note_on channel=3 note=62 velocity=0 time=0
Time=1855 Track=11 note_on channel=9 note=40 velocity=0 time=15
Time=1855 Track=11 note_on channel=9 note=36 velocity=0 time=0
Time=1860 Track=5 note_on channel=2 note=62 velocity=1 time=10
Time=1860 Track=5 note_on channel=2 note=65 velocity=1 time=0
Time=1860 Track=5 note_on channel=2 note=69 velocity=0 time=0
Time=1860 Track=5 note_on channel=2 note=62 velocity=0 time=0
Time=1860 Track=6 note_on channel=3 note=62 velocity=1 time=5
Time=1860 Track=6 note_on channel=3 note=65 velocity=1 time=0
Time=1860 Track=7 note_on channel=4 note=62 velocity=72 time=25
Time=1860 Track=7 note_on channel=4 note=65 velocity=72 time=0
Time=1860 Track=11 note_on channel=9 note=46 velocity=121 time=5
Time=1861 Track=5 note_on channel=2 note=62 velocity=0 time=1
Time=1861 Track=5 note_on channel=2 note=65 velocity=0 time=0
Time=1861 Track=6 note_on channel=3 note=65 velocity=0 time=1
Time=1861 Track=6 note_on channel=3 note=62 velocity=0 time=0
Time=1861 Track=7 note_on channel=4 note=65 velocity=0 time=1
Time=1861 Track=7 note_on channel=4 note=62 velocity=0 time=0
Time=1890 Track=5 note_on channel=2 note=65 velocity=1 time=29
Time=1890 Track=6 note_on channel=3 note=65 velocity=1 time=29
Time=1890 Track=7 note_on channel=4 note=65 velocity=71 time=29
Time=1890 Track=7 note_on channel=4 note=62 velocity=71 time=0
Time=1891 Track=5 note_on channel=2 note=65 velocity=0 time=1
Time=1891 Track=6 note_on channel=3 note=65 velocity=0 time=1
Time=1891 Track=7 note_on channel=4 note=62 velocity=0 time=1
Time=1891 Track=7 note_on channel=4 note=65 velocity=0 time=0
Time=1905 Track=11 note_on channel=9 note=46 velocity=0 time=45
Time=1910 Track=5 note_on channel=2 note=50 velocity=101 time=19
Time=1910 Track=6 note_on channel=3 note=50 velocity=101 time=19
Time=1915 Track=5 note_on channel=2 note=62 velocity=104 time=5
Time=1915 Track=5 note_on channel=2 note=57 velocity=91 time=0
Time=1915 Track=6 note_on channel=3 note=62 velocity=104 time=5
Time=1915 Track=6 note_on channel=3 note=57 velocity=91 time=0
Time=1920 Track=5 note_on channel=2 note=65 velocity=94 time=5
Time=1920 Track=6 note_on channel=3 note=65 velocity=94 time=5
Time=1920 Track=11 note_on channel=9 note=36 velocity=121 time=15
Time=1920 Track=11 note_on channel=9 note=42 velocity=112 time=0
Time=1925 Track=5 note_on channel=2 note=69 velocity=96 time=5
Time=1925 Track=6 note_on channel=3 note=69 velocity=96 time=5
Time=1955 Track=11 note_on channel=9 note=42 velocity=0 time=35
Time=1975 Track=11 note_on channel=9 note=36 velocity=0 time=20
Time=1980 Track=11 note_on channel=9 note=42 velocity=83 time=5
Time=2005 Track=5 note_on channel=2 note=65 velocity=108 time=80
Time=2005 Track=5 note_on channel=2 note=65 velocity=0 time=0
Time=2005 Track=6 note_on channel=3 note=65 velocity=108 time=80
Time=2005 Track=6 note_on channel=3 note=65 velocity=0 time=0
Time=2005 Track=7 note_on channel=4 note=65 velocity=107 time=0
Time=2010 Track=5 note_on channel=2 note=62 velocity=97 time=5
Time=2010 Track=5 note_on channel=2 note=62 velocity=0 time=0
Time=2010 Track=6 note_on channel=3 note=62 velocity=97 time=5
Time=2010 Track=6 note_on channel=3 note=62 velocity=0 time=0
Time=2010 Track=7 note_on channel=4 note=62 velocity=105 time=5
Time=2010 Track=7 note_on channel=4 note=65 velocity=0 time=0
Time=2015 Track=7 note_on channel=4 note=62 velocity=0 time=5
Time=2025 Track=11 note_on channel=9 note=42 velocity=0 time=45
Time=2030 Track=5 note_on channel=2 note=57 velocity=0 time=20
Time=2030 Track=6 note_on channel=3 note=57 velocity=0 time=20
Time=2030 Track=7 note_on channel=4 note=57 velocity=107 time=0
Time=2035 Track=5 note_on channel=2 note=57 velocity=100 time=5
Time=2035 Track=5 note_on channel=2 note=62 velocity=108 time=0
Time=2035 Track=5 note_on channel=2 note=69 velocity=0 time=0
Time=2035 Track=5 note_on channel=2 note=62 velocity=0 time=0
Time=2035 Track=6 note_on channel=3 note=57 velocity=100 time=5
Time=2035 Track=6 note_on channel=3 note=62 velocity=108 time=0
Time=2035 Track=6 note_on channel=3 note=69 velocity=0 time=0
Time=2035 Track=6 note_on channel=3 note=62 velocity=0 time=0
Time=2035 Track=7 note_on channel=4 note=62 velocity=107 time=5
Time=2040 Track=5 note_on channel=2 note=65 velocity=90 time=5
Time=2040 Track=5 note_on channel=2 note=65 velocity=0 time=0
Time=2040 Track=6 note_on channel=3 note=65 velocity=90 time=5
Time=2040 Track=6 note_on channel=3 note=65 velocity=0 time=0
Time=2040 Track=7 note_on channel=4 note=65 velocity=98 time=5
Time=2040 Track=7 note_on channel=4 note=57 velocity=0 time=0
Time=2040 Track=11 note_on channel=9 note=36 velocity=120 time=15
Time=2040 Track=11 note_on channel=9 note=40 velocity=127 time=0
Time=2040 Track=11 note_on channel=9 note=42 velocity=125 time=0
Time=2045 Track=7 note_on channel=4 note=65 velocity=0 time=5
Time=2045 Track=7 note_on channel=4 note=62 velocity=0 time=0
Time=2055 Track=5 note_on channel=2 note=50 velocity=0 time=15
Time=2055 Track=6 note_on channel=3 note=50 velocity=0 time=15
Time=2070 Track=5 note_on channel=2 note=57 velocity=0 time=15
Time=2070 Track=6 note_on channel=3 note=57 velocity=0 time=15
Time=2090 Track=5 note_on channel=2 note=57 velocity=89 time=20
Time=2090 Track=5 note_on channel=2 note=65 velocity=0 time=0
Time=2090 Track=6 note_on channel=3 note=57 velocity=89 time=20
Time=2090 Track=6 note_on channel=3 note=65 velocity=0 time=0
Time=2090 Track=11 note_on channel=9 note=42 velocity=0 time=50
Time=2095 Track=5 note_on channel=2 note=60 velocity=116 time=5
Time=2095 Track=6 note_on channel=3 note=60 velocity=116 time=5
Time=2095 Track=11 note_on channel=9 note=40 velocity=0 time=5
Time=2095 Track=11 note_on channel=9 note=36 velocity=0 time=0
Time=2100 Track=5 note_on channel=2 note=65 velocity=106 time=5
Time=2100 Track=6 note_on channel=3 note=65 velocity=106 time=5
Time=2100 Track=11 note_on channel=9 note=42 velocity=93 time=5
Time=2105 Track=5 note_on channel=2 note=62 velocity=0 time=5
Time=2105 Track=6 note_on channel=3 note=62 velocity=0 time=5
Time=2145 Track=11 note_on channel=9 note=42 velocity=0 time=45
Time=2155 Track=5 note_on channel=2 note=57 velocity=91 time=50
Time=2155 Track=5 note_on channel=2 note=62 velocity=113 time=0
Time=2155 Track=5 note_on channel=2 note=57 velocity=0 time=0
Time=2155 Track=5 note_on channel=2 note=60 velocity=0 time=0
Time=2155 Track=6 note_on channel=3 note=57 velocity=91 time=50
Time=2155 Track=6 note_on channel=3 note=62 velocity=113 time=0
Time=2155 Track=6 note_on channel=3 note=57 velocity=0 time=0
Time=2155 Track=6 note_on channel=3 note=60 velocity=0 time=0
Time=2155 Track=7 note_on channel=4 note=57 velocity=99 time=5
Time=2155 Track=7 note_on channel=4 note=62 velocity=107 time=0
Time=2160 Track=5 note_on channel=2 note=65 velocity=96 time=5
Time=2160 Track=5 note_on channel=2 note=65 velocity=0 time=0
Time=2160 Track=6 note_on channel=3 note=65 velocity=96 time=5
Time=2160 Track=6 note_on channel=3 note=65 velocity=0 time=0
Time=2160 Track=7 note_on channel=4 note=65 velocity=104 time=5
Time=2160 Track=11 note_on channel=9 note=36 velocity=120 time=15
Time=2160 Track=11 note_on channel=9 note=42 velocity=114 time=0
Time=2165 Track=7 note_on channel=4 note=65 velocity=0 time=5
Time=2165 Track=7 note_on channel=4 note=62 velocity=0 time=0
Time=2165 Track=7 note_on channel=4 note=57 velocity=0 time=0
Time=2185 Track=5 note_on channel=2 note=65 velocity=115 time=25
Time=2185 Track=5 note_on channel=2 note=65 velocity=0 time=0
Time=2185 Track=6 note_on channel=3 note=65 velocity=115 time=25
Time=2185 Track=6 note_on channel=3 note=65 velocity=0 time=0
Time=2185 Track=7 note_on channel=4 note=65 velocity=107 time=20
Time=2190 Track=5 note_on channel=2 note=62 velocity=94 time=5
Time=2190 Track=5 note_on channel=2 note=62 velocity=0 time=0
Time=2190 Track=6 note_on channel=3 note=62 velocity=94 time=5
Time=2190 Track=6 note_on channel=3 note=62 velocity=0 time=0
Time=2190 Track=7 note_on channel=4 note=62 velocity=102 time=5
Time=2195 Track=7 note_on channel=4 note=62 velocity=0 time=5
Time=2195 Track=7 note_on channel=4 note=65 velocity=0 time=0
Time=2205 Track=11 note_on channel=9 note=42 velocity=0 time=45
Time=2215 Track=7 note_on channel=4 note=65 velocity=78 time=20
Time=2215 Track=11 note_on channel=9 note=36 velocity=0 time=10
Time=2216 Track=7 note_on channel=4 note=65 velocity=0 time=1
Time=2220 Track=5 note_on channel=2 note=62 velocity=1 time=30
Time=2220 Track=5 note_on channel=2 note=65 velocity=0 time=0
Time=2220 Track=5 note_on channel=2 note=62 velocity=0 time=0
Time=2220 Track=5 note_on channel=2 note=57 velocity=0 time=0
Time=2220 Track=6 note_on channel=3 note=62 velocity=1 time=30
Time=2220 Track=6 note_on channel=3 note=65 velocity=0 time=0
Time=2220 Track=6 note_on channel=3 note=62 velocity=0 time=0
Time=2220 Track=6 note_on channel=3 note=57 velocity=0 time=0
Time=2220 Track=7 note_on channel=4 note=62 velocity=78 time=4
Time=2220 Track=11 note_on channel=9 note=42 velocity=94 time=5
Time=2221 Track=6 note_on channel=3 note=62 velocity=0 time=1
Time=2221 Track=7 note_on channel=4 note=62 velocity=0 time=1
Time=2225 Track=5 note_on channel=2 note=62 velocity=0 time=5
Time=2245 Track=7 note_on channel=4 note=65 velocity=76 time=24
Time=2246 Track=7 note_on channel=4 note=65 velocity=0 time=1
Time=2250 Track=5 note_on channel=2 note=65 velocity=1 time=25
Time=2250 Track=5 note_on channel=2 note=62 velocity=1 time=0
Time=2250 Track=6 note_on channel=3 note=65 velocity=1 time=29
Time=2250 Track=6 note_on channel=3 note=62 velocity=1 time=0
Time=2250 Track=7 note_on channel=4 note=62 velocity=76 time=4
Time=2251 Track=5 note_on channel=2 note=62 velocity=0 time=1
Time=2251 Track=5 note_on channel=2 note=65 velocity=0 time=0
Time=2251 Track=6 note_on channel=3 note=62 velocity=0 time=1
Time=2251 Track=6 note_on channel=3 note=65 velocity=0 time=0
Time=2251 Track=7 note_on channel=4 note=62 velocity=0 time=1
Time=2265 Track=11 note_on channel=9 note=42 velocity=0 time=45
Time=2270 Track=7 note_on channel=4 note=57 velocity=98 time=19
Time=2275 Track=5 note_on channel=2 note=57 velocity=90 time=24
Time=2275 Track=5 note_on channel=2 note=62 velocity=115 time=0
Time=2275 Track=6 note_on channel=3 note=57 velocity=90 time=24
Time=2275 Track=6 note_on channel=3 note=62 velocity=115 time=0
Time=2275 Track=7 note_on channel=4 note=62 velocity=107 time=0
Time=2275 Track=7 note_on channel=4 note=65 velocity=105 time=0
Time=2280 Track=5 note_on channel=2 note=65 velocity=97 time=5
Time=2280 Track=5 note_on channel=2 note=69 velocity=96 time=0
Time=2280 Track=6 note_on channel=3 note=65 velocity=97 time=5
Time=2280 Track=6 note_on channel=3 note=69 velocity=96 time=0
Time=2280 Track=7 note_on channel=4 note=69 velocity=104 time=5
Time=2280 Track=7 note_on channel=4 note=57 velocity=0 time=0
Time=2280 Track=11 note_on channel=9 note=36 velocity=119 time=15
Time=2280 Track=11 note_on channel=9 note=40 velocity=127 time=0
Time=2280 Track=11 note_on channel=9 note=42 velocity=126 time=0
Time=2285 Track=7 note_on channel=4 note=62 velocity=0 time=5
Time=2285 Track=7 note_on channel=4 note=65 velocity=0 time=0
Time=2285 Track=7 note_on channel=4 note=69 velocity=0 time=0
Time=2305 Track=5 note_on channel=2 note=65 velocity=118 time=25
Time=2305 Track=5 note_on channel=2 note=65 velocity=0 time=0
Time=2305 Track=6 note_on channel=3 note=65 velocity=118 time=25
Time=2305 Track=6 note_on channel=3 note=65 velocity=0 time=0
Time=2305 Track=7 note_on channel=4 note=65 velocity=107 time=20
Time=2310 Track=5 note_on channel=2 note=62 velocity=91 time=5
Time=2310 Track=5 note_on channel=2 note=62 velocity=0 time=0
Time=2310 Track=6 note_on channel=3 note=62 velocity=91 time=5
Time=2310 Track=6 note_on channel=3 note=62 velocity=0 time=0
Time=2310 Track=7 note_on channel=4 note=62 velocity=99 time=5
Time=2315 Track=7 note_on channel=4 note=62 velocity=0 time=5
Time=2315 Track=7 note_on channel=4 note=65 velocity=0 time=0
Time=2320 Track=5 note_on channel=2 note=57 velocity=0 time=10
Time=2320 Track=6 note_on channel=3 note=57 velocity=0 time=10
Time=2320 Track=11 note_on channel=9 note=42 velocity=0 time=40
Time=2330 Track=6 note_on channel=3 note=65 velocity=0 time=10
Time=2335 Track=5 note_on channel=2 note=65 velocity=0 time=15
Time=2335 Track=11 note_on channel=9 note=40 velocity=0 time=15
Time=2335 Track=11 note_on channel=9 note=36 velocity=0 time=0
Time=2340 Track=5 note_on channel=2 note=62 velocity=1 time=5
Time=2340 Track=5 note_on channel=2 note=65 velocity=1 time=0
Time=2340 Track=5 note_on channel=2 note=69 velocity=0 time=0
Time=2340 Track=5 note_on channel=2 note=62 velocity=0 time=0
Time=2340 Track=6 note_on channel=3 note=62 velocity=1 time=10
Time=2340 Track=6 note_on channel=3 note=65 velocity=1 time=0
Time=2340 Track=6 note_on channel=3 note=69 velocity=0 time=0
Time=2340 Track=6 note_on channel=3 note=62 velocity=0 time=0
Time=2340 Track=7 note_on channel=4 note=62 velocity=72 time=25
Time=2340 Track=7 note_on channel=4 note=65 velocity=72 time=0
Time=2340 Track=11 note_on channel=9 note=46 velocity=121 time=5
Time=2341 Track=5 note_on channel=2 note=65 velocity=0 time=1
Time=2341 Track=6 note_on channel=3 note=62 velocity=0 time=1
Time=2341 Track=6 note_on channel=3 note=65 velocity=0 time=0
Time=2341 Track=7 note_on channel=4 note=65 velocity=0 time=1
Time=2341 Track=7 note_on channel=4 note=62 velocity=0 time=0
Time=2345 Track=5 note_on channel=2 note=62 velocity=0 time=4
Time=2370 Track=5 note_on channel=2 note=65 velocity=1 time=25
Time=2370 Track=6 note_on channel=3 note=65 velocity=1 time=29
Time=2370 Track=7 note_on channel=4 note=65 velocity=71 time=29
Time=2370 Track=7 note_on channel=4 note=62 velocity=71 time=0
Time=2371 Track=5 note_on channel=2 note=65 velocity=0 time=1
Time=2371 Track=6 note_on channel=3 note=65 velocity=0 time=1
Time=2371 Track=7 note_on channel=4 note=62 velocity=0 time=1
Time=2371 Track=7 note_on channel=4 note=65 velocity=0 time=0
Time=2385 Track=11 note_on channel=9 note=46 velocity=0 time=45
Time=2390 Track=5 note_on channel=2 note=50 velocity=101 time=19
Time=2390 Track=6 note_on channel=3 note=50 velocity=101 time=19
Time=2395 Track=5 note_on channel=2 note=62 velocity=104 time=5
Time=2395 Track=5 note_on channel=2 note=57 velocity=91 time=0
Time=2395 Track=6 note_on channel=3 note=62 velocity=104 time=5
Time=2395 Track=6 note_on channel=3 note=57 velocity=91 time=0
Time=2400 Track=5 note_on channel=2 note=65 velocity=94 time=5
Time=2400 Track=6 note_on channel=3 note=65 velocity=94 time=5
Time=2400 Track=11 note_on channel=9 note=36 velocity=121 time=15
Time=2400 Track=11 note_on channel=9 note=42 velocity=112 time=0
Time=2405 Track=5 note_on channel=2 note=69 velocity=96 time=5
Time=2405 Track=6 note_on channel=3 note=69 velocity=96 time=5
Time=2435 Track=11 note_on channel=9 note=42 velocity=0 time=35
Time=2455 Track=11 note_on channel=9 note=36 velocity=0 time=20
Time=2460 Track=11 note_on channel=9 note=42 velocity=83 time=5
Time=2485 Track=5 note_on channel=2 note=65 velocity=108 time=80
Time=2485 Track=5 note_on channel=2 note=65 velocity=0 time=0
Time=2485 Track=6 note_on channel=3 note=65 velocity=108 time=80
Time=2485 Track=6 note_on channel=3 note=65 velocity=0 time=0
Time=2485 Track=7 note_on channel=4 note=65 velocity=107 time=0
Time=2490 Track=5 note_on channel=2 note=62 velocity=97 time=5
Time=2490 Track=5 note_on channel=2 note=62 velocity=0 time=0
Time=2490 Track=6 note_on channel=3 note=62 velocity=97 time=5
Time=2490 Track=6 note_on channel=3 note=62 velocity=0 time=0
Time=2490 Track=7 note_on channel=4 note=62 velocity=105 time=5
Time=2490 Track=7 note_on channel=4 note=65 velocity=0 time=0
Time=2495 Track=7 note_on channel=4 note=62 velocity=0 time=5
Time=2505 Track=11 note_on channel=9 note=42 velocity=0 time=45
Time=2510 Track=5 note_on channel=2 note=57 velocity=0 time=20
Time=2510 Track=6 note_on channel=3 note=57 velocity=0 time=20
Time=2510 Track=7 note_on channel=4 note=57 velocity=107 time=0
Time=2515 Track=5 note_on channel=2 note=57 velocity=100 time=5
Time=2515 Track=5 note_on channel=2 note=62 velocity=108 time=0
Time=2515 Track=5 note_on channel=2 note=69 velocity=0 time=0
Time=2515 Track=5 note_on channel=2 note=62 velocity=0 time=0
Time=2515 Track=6 note_on channel=3 note=57 velocity=100 time=5
Time=2515 Track=6 note_on channel=3 note=62 velocity=108 time=0
Time=2515 Track=6 note_on channel=3 note=69 velocity=0 time=0
Time=2515 Track=6 note_on channel=3 note=62 velocity=0 time=0
Time=2515 Track=7 note_on channel=4 note=62 velocity=107 time=5
Time=2520 Track=5 note_on channel=2 note=65 velocity=90 time=5
Time=2520 Track=5 note_on channel=2 note=65 velocity=0 time=0
Time=2520 Track=6 note_on channel=3 note=65 velocity=90 time=5
Time=2520 Track=6 note_on channel=3 note=65 velocity=0 time=0
Time=2520 Track=7 note_on channel=4 note=65 velocity=98 time=5
Time=2520 Track=7 note_on channel=4 note=57 velocity=0 time=0
Time=2520 Track=11 note_on channel=9 note=36 velocity=120 time=15
Time=2520 Track=11 note_on channel=9 note=40 velocity=127 time=0
Time=2520 Track=11 note_on channel=9 note=42 velocity=125 time=0
Time=2525 Track=7 note_on channel=4 note=65 velocity=0 time=5
Time=2525 Track=7 note_on channel=4 note=62 velocity=0 time=0
Time=2535 Track=5 note_on channel=2 note=50 velocity=0 time=15
Time=2535 Track=6 note_on channel=3 note=50 velocity=0 time=15
Time=2550 Track=5 note_on channel=2 note=57 velocity=0 time=15
Time=2550 Track=6 note_on channel=3 note=57 velocity=0 time=15
Time=2570 Track=5 note_on channel=2 note=57 velocity=89 time=20
Time=2570 Track=5 note_on channel=2 note=65 velocity=0 time=0
Time=2570 Track=6 note_on channel=3 note=57 velocity=89 time=20
Time=2570 Track=6 note_on channel=3 note=65 velocity=0 time=0
Time=2570 Track=11 note_on channel=9 note=42 velocity=0 time=50
Time=2575 Track=5 note_on channel=2 note=60 velocity=116 time=5
Time=2575 Track=6 note_on channel=3 note=60 velocity=116 time=5
Time=2575 Track=11 note_on channel=9 note=40 velocity=0 time=5
Time=2575 Track=11 note_on channel=9 note=36 velocity=0 time=0
Time=2580 Track=5 note_on channel=2 note=65 velocity=106 time=5
Time=2580 Track=6 note_on channel=3 note=65 velocity=106 time=5
Time=2580 Track=11 note_on channel=9 note=42 velocity=93 time=5
Time=2585 Track=5 note_on channel=2 note=62 velocity=0 time=5
Time=2585 Track=6 note_on channel=3 note=62 velocity=0 time=5
Time=2595 Track=3 note_on channel=0 note=38 velocity=0 time=1635
Time=2595 Track=4 note_on channel=1 note=38 velocity=0 time=1635
Time=2625 Track=11 note_on channel=9 note=42 velocity=0 time=45
Time=2635 Track=5 note_on channel=2 note=57 velocity=91 time=50
Time=2635 Track=5 note_on channel=2 note=62 velocity=113 time=0
Time=2635 Track=5 note_on channel=2 note=57 velocity=0 time=0
Time=2635 Track=5 note_on channel=2 note=60 velocity=0 time=0
Time=2635 Track=6 note_on channel=3 note=57 velocity=91 time=50
Time=2635 Track=6 note_on channel=3 note=62 velocity=113 time=0
Time=2635 Track=6 note_on channel=3 note=57 velocity=0 time=0
Time=2635 Track=6 note_on channel=3 note=60 velocity=0 time=0
Time=2635 Track=7 note_on channel=4 note=57 velocity=99 time=5
Time=2635 Track=7 note_on channel=4 note=62 velocity=107 time=0
Time=2640 Track=5 note_on channel=2 note=65 velocity=96 time=5
Time=2640 Track=5 note_on channel=2 note=65 velocity=0 time=0
Time=2640 Track=6 note_on channel=3 note=65 velocity=96 time=5
Time=2640 Track=6 note_on channel=3 note=65 velocity=0 time=0
Time=2640 Track=7 note_on channel=4 note=65 velocity=104 time=5
Time=2640 Track=11 note_on channel=9 note=36 velocity=120 time=15
Time=2640 Track=11 note_on channel=9 note=42 velocity=114 time=0
Time=2645 Track=7 note_on channel=4 note=65 velocity=0 time=5
Time=2645 Track=7 note_on channel=4 note=62 velocity=0 time=0
Time=2645 Track=7 note_on channel=4 note=57 velocity=0 time=0
Time=2665 Track=5 note_on channel=2 note=65 velocity=115 time=25
Time=2665 Track=5 note_on channel=2 note=65 velocity=0 time=0
Time=2665 Track=6 note_on channel=3 note=65 velocity=115 time=25
Time=2665 Track=6 note_on channel=3 note=65 velocity=0 time=0
Time=2665 Track=7 note_on channel=4 note=65 velocity=107 time=20
Time=2670 Track=5 note_on channel=2 note=62 velocity=94 time=5
Time=2670 Track=5 note_on channel=2 note=62 velocity=0 time=0
Time=2670 Track=6 note_on channel=3 note=62 velocity=94 time=5
Time=2670 Track=6 note_on channel=3 note=62 velocity=0 time=0
Time=2670 Track=7 note_on channel=4 note=62 velocity=102 time=5
Time=2675 Track=7 note_on channel=4 note=62 velocity=0 time=5
Time=2675 Track=7 note_on channel=4 note=65 velocity=0 time=0
Time=2685 Track=11 note_on channel=9 note=42 velocity=0 time=45
Time=2695 Track=7 note_on channel=4 note=65 velocity=78 time=20
Time=2695 Track=11 note_on channel=9 note=36 velocity=0 time=10
Time=2696 Track=7 note_on channel=4 note=65 velocity=0 time=1
Time=2700 Track=5 note_on channel=2 note=62 velocity=1 time=30
Time=2700 Track=5 note_on channel=2 note=65 velocity=0 time=0
Time=2700 Track=5 note_on channel=2 note=62 velocity=0 time=0
Time=2700 Track=5 note_on channel=2 note=57 velocity=0 time=0
Time=2700 Track=6 note_on channel=3 note=62 velocity=1 time=30
Time=2700 Track=6 note_on channel=3 note=65 velocity=0 time=0
Time=2700 Track=6 note_on channel=3 note=62 velocity=0 time=0
Time=2700 Track=6 note_on channel=3 note=57 velocity=0 time=0
Time=2700 Track=7 note_on channel=4 note=62 velocity=78 time=4
Time=2700 Track=11 note_on channel=9 note=42 velocity=94 time=5
Time=2701 Track=6 note_on channel=3 note=62 velocity=0 time=1
Time=2701 Track=7 note_on channel=4 note=62 velocity=0 time=1
Time=2705 Track=5 note_on channel=2 note=62 velocity=0 time=5
Time=2725 Track=7 note_on channel=4 note=65 velocity=76 time=24
Time=2726 Track=7 note_on channel=4 note=65 velocity=0 time=1
Time=2730 Track=5 note_on channel=2 note=65 velocity=1 time=25
Time=2730 Track=5 note_on channel=2 note=62 velocity=1 time=0
Time=2730 Track=6 note_on channel=3 note=65 velocity=1 time=29
Time=2730 Track=6 note_on channel=3 note=62 velocity=1 time=0
Time=2730 Track=7 note_on channel=4 note=62 velocity=76 time=4
Time=2731 Track=5 note_on channel=2 note=62 velocity=0 time=1
Time=2731 Track=5 note_on channel=2 note=65 velocity=0 time=0
Time=2731 Track=6 note_on channel=3 note=62 velocity=0 time=1
Time=2731 Track=6 note_on channel=3 note=65 velocity=0 time=0
Time=2731 Track=7 note_on channel=4 note=62 velocity=0 time=1
Time=2745 Track=11 note_on channel=9 note=42 velocity=0 time=45
Time=2750 Track=7 note_on channel=4 note=57 velocity=98 time=19
Time=2755 Track=5 note_on channel=2 note=57 velocity=90 time=24
Time=2755 Track=5 note_on channel=2 note=62 velocity=115 time=0
Time=2755 Track=6 note_on channel=3 note=57 velocity=90 time=24
Time=2755 Track=6 note_on channel=3 note=62 velocity=115 time=0
Time=2755 Track=7 note_on channel=4 note=62 velocity=107 time=0
Time=2755 Track=7 note_on channel=4 note=65 velocity=105 time=0
Time=2760 Track=5 note_on channel=2 note=65 velocity=97 time=5
Time=2760 Track=5 note_on channel=2 note=69 velocity=96 time=0
Time=2760 Track=6 note_on channel=3 note=65 velocity=97 time=5
Time=2760 Track=6 note_on channel=3 note=69 velocity=96 time=0
Time=2760 Track=7 note_on channel=4 note=69 velocity=104 time=5
Time=2760 Track=7 note_on channel=4 note=57 velocity=0 time=0
Time=2760 Track=11 note_on channel=9 note=36 velocity=119 time=15
Time=2760 Track=11 note_on channel=9 note=40 velocity=127 time=0
Time=2760 Track=11 note_on channel=9 note=42 velocity=126 time=0
Time=2765 Track=7 note_on channel=4 note=62 velocity=0 time=5
Time=2765 Track=7 note_on channel=4 note=65 velocity=0 time=0
Time=2765 Track=7 note_on channel=4 note=69 velocity=0 time=0
Time=2785 Track=5 note_on channel=2 note=65 velocity=118 time=25
Time=2785 Track=5 note_on channel=2 note=65 velocity=0 time=0
Time=2785 Track=6 note_on channel=3 note=65 velocity=118 time=25
Time=2785 Track=6 note_on channel=3 note=65 velocity=0 time=0
Time=2785 Track=7 note_on channel=4 note=65 velocity=107 time=20
Time=2790 Track=5 note_on channel=2 note=62 velocity=91 time=5
Time=2790 Track=5 note_on channel=2 note=62 velocity=0 time=0
Time=2790 Track=6 note_on channel=3 note=62 velocity=91 time=5
Time=2790 Track=6 note_on channel=3 note=62 velocity=0 time=0
Time=2790 Track=7 note_on channel=4 note=62 velocity=99 time=5
Time=2795 Track=7 note_on channel=4 note=62 velocity=0 time=5
Time=2795 Track=7 note_on channel=4 note=65 velocity=0 time=0
Time=2800 Track=5 note_on channel=2 note=57 velocity=0 time=10
Time=2800 Track=6 note_on channel=3 note=57 velocity=0 time=10
Time=2800 Track=11 note_on channel=9 note=42 velocity=0 time=40
Time=2810 Track=6 note_on channel=3 note=65 velocity=0 time=10
Time=2815 Track=5 note_on channel=2 note=65 velocity=0 time=15
Time=2815 Track=11 note_on channel=9 note=40 velocity=0 time=15
Time=2815 Track=11 note_on channel=9 note=36 velocity=0 time=0
Time=2820 Track=5 note_on channel=2 note=62 velocity=1 time=5
Time=2820 Track=5 note_on channel=2 note=65 velocity=1 time=0
Time=2820 Track=5 note_on channel=2 note=69 velocity=0 time=0
Time=2820 Track=5 note_on channel=2 note=62 velocity=0 time=0
Time=2820 Track=6 note_on channel=3 note=62 velocity=1 time=10
Time=2820 Track=6 note_on channel=3 note=65 velocity=1 time=0
Time=2820 Track=6 note_on channel=3 note=69 velocity=0 time=0
Time=2820 Track=6 note_on channel=3 note=62 velocity=0 time=0
Time=2820 Track=7 note_on channel=4 note=62 velocity=72 time=25
Time=2820 Track=7 note_on channel=4 note=65 velocity=72 time=0
Time=2820 Track=11 note_on channel=9 note=46 velocity=121 time=5
Time=2821 Track=5 note_on channel=2 note=65 velocity=0 time=1
Time=2821 Track=6 note_on channel=3 note=62 velocity=0 time=1
Time=2821 Track=6 note_on channel=3 note=65 velocity=0 time=0
Time=2821 Track=7 note_on channel=4 note=65 velocity=0 time=1
Time=2821 Track=7 note_on channel=4 note=62 velocity=0 time=0
Time=2825 Track=5 note_on channel=2 note=62 velocity=0 time=4
Time=2850 Track=5 note_on channel=2 note=65 velocity=1 time=25
Time=2850 Track=6 note_on channel=3 note=65 velocity=1 time=29
Time=2850 Track=7 note_on channel=4 note=65 velocity=71 time=29
Time=2850 Track=7 note_on channel=4 note=62 velocity=71 time=0
Time=2851 Track=5 note_on channel=2 note=65 velocity=0 time=1
Time=2851 Track=6 note_on channel=3 note=65 velocity=0 time=1
Time=2851 Track=7 note_on channel=4 note=62 velocity=0 time=1
Time=2851 Track=7 note_on channel=4 note=65 velocity=0 time=0
Time=2865 Track=11 note_on channel=9 note=46 velocity=0 time=45
Time=2870 Track=5 note_on channel=2 note=50 velocity=101 time=19
Time=2870 Track=6 note_on channel=3 note=50 velocity=101 time=19
Time=2875 Track=5 note_on channel=2 note=62 velocity=104 time=5
Time=2875 Track=5 note_on channel=2 note=57 velocity=91 time=0
Time=2875 Track=6 note_on channel=3 note=62 velocity=104 time=5
Time=2875 Track=6 note_on channel=3 note=57 velocity=91 time=0
Time=2880 Track=5 note_on channel=2 note=65 velocity=94 time=0
Time=2880 Track=6 note_on channel=3 note=65 velocity=94 time=5
Time=2880 Track=11 note_on channel=9 note=36 velocity=121 time=15
Time=2880 Track=11 note_on channel=9 note=42 velocity=112 time=0
Time=2880 Track=12 note_on channel=10 note=50 velocity=109 time=2695
Time=2885 Track=5 note_on channel=2 note=69 velocity=96 time=5
Time=2885 Track=6 note_on channel=3 note=69 velocity=96 time=5
Time=2915 Track=11 note_on channel=9 note=42 velocity=0 time=35
Time=2935 Track=11 note_on channel=9 note=36 velocity=0 time=20
Time=2940 Track=11 note_on channel=9 note=42 velocity=83 time=5
Time=2965 Track=5 note_on channel=2 note=65 velocity=108 time=0
Time=2965 Track=5 note_on channel=2 note=65 velocity=0 time=0
Time=2965 Track=6 note_on channel=3 note=65 velocity=108 time=80
Time=2965 Track=6 note_on channel=3 note=65 velocity=0 time=0
Time=2965 Track=7 note_on channel=4 note=65 velocity=107 time=0
Time=2970 Track=5 note_on channel=2 note=62 velocity=97 time=5
Time=2970 Track=5 note_on channel=2 note=62 velocity=0 time=0
Time=2970 Track=6 note_on channel=3 note=62 velocity=97 time=5
Time=2970 Track=6 note_on channel=3 note=62 velocity=0 time=0
Time=2970 Track=7 note_on channel=4 note=62 velocity=105 time=5
Time=2970 Track=7 note_on channel=4 note=65 velocity=0 time=0
Time=2975 Track=7 note_on channel=4 note=62 velocity=0 time=5
Time=2985 Track=11 note_on channel=9 note=42 velocity=0 time=45
Time=2990 Track=5 note_on channel=2 note=57 velocity=0 time=0
Time=2990 Track=6 note_on channel=3 note=57 velocity=0 time=20
Time=2990 Track=7 note_on channel=4 note=57 velocity=107 time=0
Time=2995 Track=5 note_on channel=2 note=57 velocity=100 time=5
Time=2995 Track=5 note_on channel=2 note=62 velocity=108 time=0
Time=2995 Track=5 note_on channel=2 note=69 velocity=0 time=0
Time=2995 Track=5 note_on channel=2 note=62 velocity=0 time=0
Time=2995 Track=6 note_on channel=3 note=57 velocity=100 time=5
Time=2995 Track=6 note_on channel=3 note=62 velocity=108 time=0
Time=2995 Track=6 note_on channel=3 note=69 velocity=0 time=0
Time=2995 Track=6 note_on channel=3 note=62 velocity=0 time=0
Time=2995 Track=7 note_on channel=4 note=62 velocity=107 time=5
Time=2995 Track=12 note_on channel=10 note=50 velocity=0 time=115
Time=3000 Track=5 note_on channel=2 note=65 velocity=90 time=5
Time=3000 Track=5 note_on channel=2 note=65 velocity=0 time=0
Time=3000 Track=6 note_on channel=3 note=65 velocity=90 time=5
Time=3000 Track=6 note_on channel=3 note=65 velocity=0 time=0
Time=3000 Track=7 note_on channel=4 note=65 velocity=98 time=5
Time=3000 Track=7 note_on channel=4 note=57 velocity=0 time=0
Time=3000 Track=11 note_on channel=9 note=36 velocity=120 time=15
Time=3000 Track=11 note_on channel=9 note=40 velocity=127 time=0
Time=3000 Track=11 note_on channel=9 note=42 velocity=125 time=0
Time=3000 Track=12 note_on channel=10 note=52 velocity=109 time=5
Time=3005 Track=7 note_on channel=4 note=65 velocity=0 time=5
Time=3005 Track=7 note_on channel=4 note=62 velocity=0 time=0
Time=3015 Track=5 note_on channel=2 note=50 velocity=0 time=15
Time=3015 Track=6 note_on channel=3 note=50 velocity=0 time=15
Time=3030 Track=5 note_on channel=2 note=57 velocity=0 time=15
Time=3030 Track=6 note_on channel=3 note=57 velocity=0 time=15
Time=3050 Track=5 note_on channel=2 note=57 velocity=89 time=20
Time=3050 Track=5 note_on channel=2 note=65 velocity=0 time=0
Time=3050 Track=6 note_on channel=3 note=57 velocity=89 time=20
Time=3050 Track=6 note_on channel=3 note=65 velocity=0 time=0
Time=3050 Track=11 note_on channel=9 note=42 velocity=0 time=50
Time=3055 Track=5 note_on channel=2 note=60 velocity=116 time=5
Time=3055 Track=6 note_on channel=3 note=60 velocity=116 time=5
Time=3055 Track=11 note_on channel=9 note=40 velocity=0 time=5
Time=3055 Track=11 note_on channel=9 note=36 velocity=0 time=0
Time=3055 Track=12 note_on channel=10 note=52 velocity=0 time=55
Time=3060 Track=5 note_on channel=2 note=65 velocity=106 time=0
Time=3060 Track=6 note_on channel=3 note=65 velocity=106 time=5
Time=3060 Track=11 note_on channel=9 note=42 velocity=93 time=5
Time=3060 Track=12 note_on channel=10 note=53 velocity=109 time=5
Time=3065 Track=5 note_on channel=2 note=62 velocity=0 time=5
Time=3065 Track=6 note_on channel=3 note=62 velocity=0 time=5
Time=3105 Track=11 note_on channel=9 note=42 velocity=0 time=45
Time=3115 Track=5 note_on channel=2 note=57 velocity=91 time=0
Time=3115 Track=5 note_on channel=2 note=62 velocity=113 time=0
Time=3115 Track=5 note_on channel=2 note=57 velocity=0 time=0
Time=3115 Track=5 note_on channel=2 note=60 velocity=0 time=0
Time=3115 Track=6 note_on channel=3 note=57 velocity=91 time=50
Time=3115 Track=6 note_on channel=3 note=62 velocity=113 time=0
Time=3115 Track=6 note_on channel=3 note=57 velocity=0 time=0
Time=3115 Track=6 note_on channel=3 note=60 velocity=0 time=0
Time=3115 Track=7 note_on channel=4 note=57 velocity=99 time=5
Time=3115 Track=7 note_on channel=4 note=62 velocity=107 time=0
Time=3120 Track=5 note_on channel=2 note=65 velocity=96 time=5
Time=3120 Track=5 note_on channel=2 note=65 velocity=0 time=0
Time=3120 Track=6 note_on channel=3 note=65 velocity=96 time=5
Time=3120 Track=6 note_on channel=3 note=65 velocity=0 time=0
Time=3120 Track=7 note_on channel=4 note=65 velocity=104 time=5
Time=3120 Track=11 note_on channel=9 note=36 velocity=120 time=15
Time=3120 Track=11 note_on channel=9 note=42 velocity=114 time=0
Time=3125 Track=7 note_on channel=4 note=65 velocity=0 time=5
Time=3125 Track=7 note_on channel=4 note=62 velocity=0 time=0
Time=3125 Track=7 note_on channel=4 note=57 velocity=0 time=0
Time=3150 Track=5 note_on channel=2 note=62 velocity=0 time=5
Time=3150 Track=6 note_on channel=3 note=62 velocity=0 time=30
Time=3165 Track=11 note_on channel=9 note=42 velocity=0 time=45
Time=3175 Track=7 note_on channel=4 note=65 velocity=78 time=30
Time=3175 Track=11 note_on channel=9 note=36 velocity=0 time=10
Time=3175 Track=12 note_on channel=10 note=53 velocity=0 time=115
Time=3176 Track=7 note_on channel=4 note=65 velocity=0 time=1
Time=3180 Track=5 note_on channel=2 note=57 velocity=0 time=30
Time=3180 Track=5 note_on channel=2 note=65 velocity=0 time=0
Time=3180 Track=6 note_on channel=3 note=57 velocity=0 time=30
Time=3180 Track=6 note_on channel=3 note=65 velocity=0 time=0
Time=3180 Track=7 note_on channel=4 note=62 velocity=78 time=4
Time=3180 Track=11 note_on channel=9 note=42 velocity=94 time=5
Time=3180 Track=12 note_on channel=10 note=52 velocity=109 time=5
Time=3181 Track=7 note_on channel=4 note=62 velocity=0 time=1
Time=3205 Track=7 note_on channel=4 note=65 velocity=76 time=24
Time=3206 Track=7 note_on channel=4 note=65 velocity=0 time=1
Time=3210 Track=7 note_on channel=4 note=62 velocity=76 time=4
Time=3211 Track=7 note_on channel=4 note=62 velocity=0 time=1
Time=3225 Track=11 note_on channel=9 note=42 velocity=0 time=45
Time=3230 Track=7 note_on channel=4 note=57 velocity=98 time=19
Time=3235 Track=5 note_on channel=2 note=57 velocity=90 time=55
Time=3235 Track=5 note_on channel=2 note=62 velocity=115 time=0
Time=3235 Track=6 note_on channel=3 note=57 velocity=90 time=55
Time=3235 Track=6 note_on channel=3 note=62 velocity=115 time=0
Time=3235 Track=7 note_on channel=4 note=62 velocity=107 time=0
Time=3235 Track=7 note_on channel=4 note=65 velocity=105 time=0
Time=3240 Track=5 note_on channel=2 note=65 velocity=97 time=5
Time=3240 Track=5 note_on channel=2 note=69 velocity=96 time=0
Time=3240 Track=6 note_on channel=3 note=65 velocity=97 time=5
Time=3240 Track=6 note_on channel=3 note=69 velocity=96 time=0
Time=3240 Track=7 note_on channel=4 note=69 velocity=104 time=5
Time=3240 Track=7 note_on channel=4 note=57 velocity=0 time=0
Time=3240 Track=11 note_on channel=9 note=36 velocity=119 time=15
Time=3240 Track=11 note_on channel=9 note=40 velocity=127 time=0
Time=3240 Track=11 note_on channel=9 note=42 velocity=126 time=0
Time=3245 Track=7 note_on channel=4 note=62 velocity=0 time=5
Time=3245 Track=7 note_on channel=4 note=65 velocity=0 time=0
Time=3245 Track=7 note_on channel=4 note=69 velocity=0 time=0
Time=3270 Track=5 note_on channel=2 note=65 velocity=0 time=0
Time=3270 Track=6 note_on channel=3 note=65 velocity=0 time=30
Time=3270 Track=6 note_on channel=3 note=62 velocity=0 time=0
Time=3275 Track=5 note_on channel=2 note=62 velocity=0 time=5
Time=3280 Track=5 note_on channel=2 note=57 velocity=0 time=5
Time=3280 Track=6 note_on channel=3 note=57 velocity=0 time=10
Time=3280 Track=11 note_on channel=9 note=42 velocity=0 time=40
Time=3295 Track=11 note_on channel=9 note=40 velocity=0 time=15
Time=3295 Track=11 note_on channel=9 note=36 velocity=0 time=0
Time=3300 Track=5 note_on channel=2 note=69 velocity=0 time=20
Time=3300 Track=6 note_on channel=3 note=69 velocity=0 time=20
Time=3300 Track=7 note_on channel=4 note=62 velocity=72 time=30
Time=3300 Track=7 note_on channel=4 note=65 velocity=72 time=0
Time=3300 Track=11 note_on channel=9 note=46 velocity=121 time=5
Time=3301 Track=7 note_on channel=4 note=65 velocity=0 time=1
Time=3301 Track=7 note_on channel=4 note=62 velocity=0 time=0
Time=3330 Track=7 note_on channel=4 note=65 velocity=71 time=29
Time=3330 Track=7 note_on channel=4 note=62 velocity=71 time=0
Time=3331 Track=7 note_on channel=4 note=62 velocity=0 time=1
Time=3331 Track=7 note_on channel=4 note=65 velocity=0 time=0
Time=3345 Track=11 note_on channel=9 note=46 velocity=0 time=45
Time=3350 Track=5 note_on channel=2 note=50 velocity=101 time=50
Time=3350 Track=6 note_on channel=3 note=50 velocity=101 time=50
Time=3355 Track=5 note_on channel=2 note=62 velocity=104 time=5
Time=3355 Track=5 note_on channel=2 note=57 velocity=91 time=0
Time=3355 Track=6 note_on channel=3 note=62 velocity=104 time=5
Time=3355 Track=6 note_on channel=3 note=57 velocity=91 time=0
Time=3355 Track=12 note_on channel=10 note=52 velocity=0 time=175
Time=3360 Track=5 note_on channel=2 note=65 velocity=94 time=5
Time=3360 Track=6 note_on channel=3 note=65 velocity=94 time=5
Time=3360 Track=11 note_on channel=9 note=36 velocity=121 time=15
Time=3360 Track=11 note_on channel=9 note=42 velocity=112 time=0
Time=3360 Track=12 note_on channel=10 note=50 velocity=109 time=5
Time=3365 Track=5 note_on channel=2 note=69 velocity=96 time=5
Time=3365 Track=6 note_on channel=3 note=69 velocity=96 time=5
Time=3395 Track=11 note_on channel=9 note=42 velocity=0 time=35
Time=3415 Track=11 note_on channel=9 note=36 velocity=0 time=20
Time=3420 Track=11 note_on channel=9 note=42 velocity=83 time=5
Time=3440 Track=5 note_on channel=2 note=65 velocity=0 time=0
Time=3440 Track=6 note_on channel=3 note=65 velocity=0 time=75
Time=3445 Track=5 note_on channel=2 note=65 velocity=108 time=0
Time=3445 Track=5 note_on channel=2 note=62 velocity=0 time=0
Time=3445 Track=6 note_on channel=3 note=65 velocity=108 time=5
Time=3445 Track=6 note_on channel=3 note=62 velocity=0 time=0
Time=3445 Track=7 note_on channel=4 note=65 velocity=107 time=0
Time=3450 Track=5 note_on channel=2 note=62 velocity=97 time=5
Time=3450 Track=6 note_on channel=3 note=62 velocity=97 time=5
Time=3450 Track=7 note_on channel=4 note=62 velocity=105 time=5
Time=3450 Track=7 note_on channel=4 note=65 velocity=0 time=0
Time=3455 Track=7 note_on channel=4 note=62 velocity=0 time=5
Time=3465 Track=11 note_on channel=9 note=42 velocity=0 time=45
Time=3470 Track=5 note_on channel=2 note=57 velocity=100 time=0
Time=3470 Track=5 note_on channel=2 note=57 velocity=0 time=0
Time=3470 Track=6 note_on channel=3 note=57 velocity=100 time=20
Time=3470 Track=6 note_on channel=3 note=57 velocity=0 time=0
Time=3470 Track=7 note_on channel=4 note=57 velocity=107 time=0
Time=3475 Track=5 note_on channel=2 note=62 velocity=108 time=5
Time=3475 Track=5 note_on channel=2 note=62 velocity=0 time=0
Time=3475 Track=5 note_on channel=2 note=65 velocity=0 time=0
Time=3475 Track=5 note_on channel=2 note=69 velocity=0 time=0
Time=3475 Track=6 note_on channel=3 note=62 velocity=108 time=5
Time=3475 Track=6 note_on channel=3 note=62 velocity=0 time=0
Time=3475 Track=6 note_on channel=3 note=65 velocity=0 time=0
Time=3475 Track=6 note_on channel=3 note=69 velocity=0 time=0
Time=3475 Track=7 note_on channel=4 note=62 velocity=107 time=5
Time=3480 Track=5 note_on channel=2 note=65 velocity=90 time=5
Time=3480 Track=6 note_on channel=3 note=65 velocity=90 time=5
Time=3480 Track=7 note_on channel=4 note=65 velocity=98 time=5
Time=3480 Track=7 note_on channel=4 note=57 velocity=0 time=0
Time=3480 Track=11 note_on channel=9 note=36 velocity=120 time=15
Time=3480 Track=11 note_on channel=9 note=40 velocity=127 time=0
Time=3480 Track=11 note_on channel=9 note=42 velocity=125 time=0
Time=3480 Track=12 note_on channel=10 note=52 velocity=109 time=120
Time=3480 Track=12 note_on channel=10 note=50 velocity=0 time=0
Time=3485 Track=7 note_on channel=4 note=65 velocity=0 time=5
Time=3485 Track=7 note_on channel=4 note=62 velocity=0 time=0
Time=3490 Track=6 note_on channel=3 note=50 velocity=0 time=10
Time=3495 Track=5 note_on channel=2 note=50 velocity=0 time=15
Time=3505 Track=6 note_on channel=3 note=57 velocity=0 time=15
Time=3510 Track=5 note_on channel=2 note=57 velocity=0 time=15
Time=3525 Track=6 note_on channel=3 note=65 velocity=0 time=20
Time=3530 Track=5 note_on channel=2 note=57 velocity=89 time=20
Time=3530 Track=5 note_on channel=2 note=60 velocity=116 time=0
Time=3530 Track=5 note_on channel=2 note=65 velocity=0 time=0
Time=3530 Track=6 note_on channel=3 note=57 velocity=89 time=5
Time=3530 Track=6 note_on channel=3 note=60 velocity=116 time=0
Time=3530 Track=11 note_on channel=9 note=42 velocity=0 time=50
Time=3535 Track=11 note_on channel=9 note=40 velocity=0 time=5
Time=3535 Track=11 note_on channel=9 note=36 velocity=0 time=0
Time=3535 Track=12 note_on channel=10 note=52 velocity=0 time=55
Time=3540 Track=5 note_on channel=2 note=65 velocity=106 time=5
Time=3540 Track=6 note_on channel=3 note=65 velocity=106 time=10
Time=3540 Track=6 note_on channel=3 note=62 velocity=0 time=0
Time=3540 Track=11 note_on channel=9 note=42 velocity=93 time=5
Time=3540 Track=12 note_on channel=10 note=53 velocity=109 time=5
Time=3545 Track=5 note_on channel=2 note=62 velocity=0 time=5
Time=3585 Track=11 note_on channel=9 note=42 velocity=0 time=45
Time=3595 Track=5 note_on channel=2 note=57 velocity=91 time=5
Time=3595 Track=5 note_on channel=2 note=62 velocity=113 time=0
Time=3595 Track=5 note_on channel=2 note=60 velocity=0 time=0
Time=3595 Track=5 note_on channel=2 note=65 velocity=0 time=0
Time=3595 Track=5 note_on channel=2 note=57 velocity=0 time=0
Time=3595 Track=6 note_on channel=3 note=57 velocity=91 time=55
Time=3595 Track=6 note_on channel=3 note=62 velocity=113 time=0
Time=3595 Track=6 note_on channel=3 note=57 velocity=0 time=0
Time=3595 Track=6 note_on channel=3 note=65 velocity=0 time=0
Time=3595 Track=6 note_on channel=3 note=60 velocity=0 time=0
Time=3595 Track=7 note_on channel=4 note=57 velocity=99 time=5
Time=3595 Track=7 note_on channel=4 note=62 velocity=107 time=0
Time=3600 Track=5 note_on channel=2 note=65 velocity=96 time=5
Time=3600 Track=6 note_on channel=3 note=65 velocity=96 time=5
Time=3600 Track=7 note_on channel=4 note=65 velocity=104 time=5
Time=3600 Track=11 note_on channel=9 note=36 velocity=120 time=15
Time=3600 Track=11 note_on channel=9 note=42 velocity=114 time=0
Time=3605 Track=7 note_on channel=4 note=65 velocity=0 time=5
Time=3605 Track=7 note_on channel=4 note=62 velocity=0 time=0
Time=3605 Track=7 note_on channel=4 note=57 velocity=0 time=0
Time=3630 Track=5 note_on channel=2 note=62 velocity=0 time=5
Time=3630 Track=6 note_on channel=3 note=62 velocity=0 time=30
Time=3645 Track=11 note_on channel=9 note=42 velocity=0 time=45
Time=3655 Track=5 note_on channel=2 note=65 velocity=0 time=25
Time=3655 Track=6 note_on channel=3 note=65 velocity=0 time=25
Time=3655 Track=7 note_on channel=4 note=65 velocity=78 time=30
Time=3655 Track=11 note_on channel=9 note=36 velocity=0 time=10
Time=3656 Track=7 note_on channel=4 note=65 velocity=0 time=1
Time=3660 Track=5 note_on channel=2 note=57 velocity=0 time=5
Time=3660 Track=6 note_on channel=3 note=57 velocity=0 time=5
Time=3660 Track=7 note_on channel=4 note=62 velocity=78 time=4
Time=3660 Track=11 note_on channel=9 note=42 velocity=94 time=5
Time=3660 Track=12 note_on channel=10 note=52 velocity=97 time=120
Time=3660 Track=12 note_on channel=10 note=53 velocity=0 time=0
Time=3661 Track=7 note_on channel=4 note=62 velocity=0 time=1
Time=3685 Track=7 note_on channel=4 note=65 velocity=76 time=24
Time=3686 Track=7 note_on channel=4 note=65 velocity=0 time=1
Time=3690 Track=7 note_on channel=4 note=62 velocity=76 time=4
Time=3691 Track=7 note_on channel=4 note=62 velocity=0 time=1
Time=3705 Track=11 note_on channel=9 note=42 velocity=0 time=45
Time=3710 Track=5 note_on channel=2 note=57 velocity=90 time=50
Time=3710 Track=6 note_on channel=3 note=57 velocity=90 time=50
Time=3710 Track=7 note_on channel=4 note=57 velocity=98 time=19
Time=3715 Track=5 note_on channel=2 note=62 velocity=115 time=0
Time=3715 Track=5 note_on channel=2 note=65 velocity=97 time=0
Time=3715 Track=6 note_on channel=3 note=62 velocity=115 time=5
Time=3715 Track=6 note_on channel=3 note=65 velocity=97 time=0
Time=3715 Track=7 note_on channel=4 note=62 velocity=107 time=0
Time=3715 Track=7 note_on channel=4 note=65 velocity=105 time=0
Time=3720 Track=5 note_on channel=2 note=69 velocity=96 time=5
Time=3720 Track=6 note_on channel=3 note=69 velocity=96 time=5
Time=3720 Track=7 note_on channel=4 note=69 velocity=104 time=5
Time=3720 Track=7 note_on channel=4 note=57 velocity=0 time=0
Time=3720 Track=11 note_on channel=9 note=36 velocity=119 time=15
Time=3720 Track=11 note_on channel=9 note=40 velocity=127 time=0
Time=3720 Track=11 note_on channel=9 note=42 velocity=126 time=0
Time=3725 Track=7 note_on channel=4 note=62 velocity=0 time=5
Time=3725 Track=7 note_on channel=4 note=65 velocity=0 time=0
Time=3725 Track=7 note_on channel=4 note=69 velocity=0 time=0
Time=3745 Track=5 note_on channel=2 note=65 velocity=0 time=25
Time=3745 Track=6 note_on channel=3 note=65 velocity=0 time=25
Time=3750 Track=5 note_on channel=2 note=62 velocity=0 time=0
Time=3750 Track=6 note_on channel=3 note=62 velocity=0 time=5
Time=3760 Track=5 note_on channel=2 note=57 velocity=0 time=10
Time=3760 Track=6 note_on channel=3 note=57 velocity=0 time=10
Time=3760 Track=11 note_on channel=9 note=42 velocity=0 time=40
Time=3775 Track=6 note_on channel=3 note=69 velocity=0 time=15
Time=3775 Track=11 note_on channel=9 note=40 velocity=0 time=15
Time=3775 Track=11 note_on channel=9 note=36 velocity=0 time=0
Time=3780 Track=5 note_on channel=2 note=69 velocity=0 time=20
Time=3780 Track=7 note_on channel=4 note=62 velocity=72 time=30
Time=3780 Track=7 note_on channel=4 note=65 velocity=72 time=0
Time=3780 Track=11 note_on channel=9 note=46 velocity=121 time=5
Time=3781 Track=7 note_on channel=4 note=65 velocity=0 time=1
Time=3781 Track=7 note_on channel=4 note=62 velocity=0 time=0
Time=3810 Track=7 note_on channel=4 note=65 velocity=71 time=29
Time=3810 Track=7 note_on channel=4 note=62 velocity=71 time=0
Time=3811 Track=7 note_on channel=4 note=62 velocity=0 time=1
Time=3811 Track=7 note_on channel=4 note=65 velocity=0 time=0
Time=3825 Track=11 note_on channel=9 note=46 velocity=0 time=45
Time=3830 Track=5 note_on channel=2 note=50 velocity=101 time=50
Time=3830 Track=6 note_on channel=3 note=50 velocity=101 time=55
Time=3835 Track=5 note_on channel=2 note=62 velocity=104 time=5
Time=3835 Track=5 note_on channel=2 note=57 velocity=91 time=0
Time=3835 Track=6 note_on channel=3 note=62 velocity=104 time=5
Time=3835 Track=6 note_on channel=3 note=57 velocity=91 time=0
Time=3840 Track=3 note_on channel=0 note=26 velocity=103 time=1245
Time=3840 Track=4 note_on channel=1 note=26 velocity=101 time=1245
Time=3840 Track=5 note_on channel=2 note=65 velocity=94 time=5
Time=3840 Track=6 note_on channel=3 note=65 velocity=94 time=5
Time=3840 Track=11 note_on channel=9 note=36 velocity=121 time=15
Time=3840 Track=11 note_on channel=9 note=42 velocity=112 time=0
Time=3845 Track=5 note_on channel=2 note=69 velocity=96 time=5
Time=3845 Track=6 note_on channel=3 note=69 velocity=96 time=5
Time=3875 Track=11 note_on channel=9 note=42 velocity=0 time=35
Time=3895 Track=11 note_on channel=9 note=36 velocity=0 time=20
Time=3900 Track=11 note_on channel=9 note=42 velocity=83 time=5
Time=3925 Track=5 note_on channel=2 note=65 velocity=108 time=80
Time=3925 Track=5 note_on channel=2 note=65 velocity=0 time=0
Time=3925 Track=6 note_on channel=3 note=65 velocity=108 time=80
Time=3925 Track=6 note_on channel=3 note=65 velocity=0 time=0
Time=3925 Track=7 note_on channel=4 note=65 velocity=107 time=0
Time=3930 Track=5 note_on channel=2 note=62 velocity=97 time=5
Time=3930 Track=5 note_on channel=2 note=62 velocity=0 time=0
Time=3930 Track=6 note_on channel=3 note=62 velocity=97 time=5
Time=3930 Track=6 note_on channel=3 note=62 velocity=0 time=0
Time=3930 Track=7 note_on channel=4 note=62 velocity=105 time=5
Time=3930 Track=7 note_on channel=4 note=65 velocity=0 time=0
Time=3935 Track=7 note_on channel=4 note=62 velocity=0 time=5
Time=3945 Track=11 note_on channel=9 note=42 velocity=0 time=45
Time=3950 Track=5 note_on channel=2 note=57 velocity=0 time=20
Time=3950 Track=6 note_on channel=3 note=57 velocity=0 time=20
Time=3950 Track=7 note_on channel=4 note=57 velocity=107 time=0
Time=3955 Track=5 note_on channel=2 note=57 velocity=100 time=5
Time=3955 Track=5 note_on channel=2 note=62 velocity=108 time=0
Time=3955 Track=5 note_on channel=2 note=69 velocity=0 time=0
Time=3955 Track=5 note_on channel=2 note=62 velocity=0 time=0
Time=3955 Track=6 note_on channel=3 note=57 velocity=100 time=5
Time=3955 Track=6 note_on channel=3 note=62 velocity=108 time=0
Time=3955 Track=6 note_on channel=3 note=69 velocity=0 time=0
Time=3955 Track=6 note_on channel=3 note=62 velocity=0 time=0
Time=3955 Track=7 note_on channel=4 note=62 velocity=107 time=5
Time=3960 Track=5 note_on channel=2 note=65 velocity=90 time=5
Time=3960 Track=5 note_on channel=2 note=65 velocity=0 time=0
Time=3960 Track=6 note_on channel=3 note=65 velocity=90 time=5
Time=3960 Track=6 note_on channel=3 note=65 velocity=0 time=0
Time=3960 Track=7 note_on channel=4 note=65 velocity=98 time=5
Time=3960 Track=7 note_on channel=4 note=57 velocity=0 time=0
Time=3960 Track=11 note_on channel=9 note=36 velocity=120 time=15
Time=3960 Track=11 note_on channel=9 note=40 velocity=127 time=0
Time=3960 Track=11 note_on channel=9 note=42 velocity=125 time=0
Time=3965 Track=7 note_on channel=4 note=65 velocity=0 time=5
Time=3965 Track=7 note_on channel=4 note=62 velocity=0 time=0
Time=3975 Track=5 note_on channel=2 note=50 velocity=0 time=15
Time=3975 Track=6 note_on channel=3 note=50 velocity=0 time=15
Time=3990 Track=5 note_on channel=2 note=57 velocity=0 time=15
Time=3990 Track=6 note_on channel=3 note=57 velocity=0 time=15
Time=4010 Track=5 note_on channel=2 note=57 velocity=89 time=20
Time=4010 Track=5 note_on channel=2 note=65 velocity=0 time=0
Time=4010 Track=6 note_on channel=3 note=57 velocity=89 time=20
Time=4010 Track=6 note_on channel=3 note=65 velocity=0 time=0
Time=4010 Track=11 note_on channel=9 note=42 velocity=0 time=50
Time=4015 Track=5 note_on channel=2 note=60 velocity=116 time=5
Time=4015 Track=6 note_on channel=3 note=60 velocity=116 time=5
Time=4015 Track=11 note_on channel=9 note=40 velocity=0 time=5
Time=4015 Track=11 note_on channel=9 note=36 velocity=0 time=0
Time=4020 Track=5 note_on channel=2 note=65 velocity=106 time=5
Time=4020 Track=6 note_on channel=3 note=65 velocity=106 time=5
Time=4020 Track=11 note_on channel=9 note=42 velocity=93 time=5
Time=4025 Track=5 note_on channel=2 note=62 velocity=0 time=5
Time=4025 Track=6 note_on channel=3 note=62 velocity=0 time=5
Time=4065 Track=11 note_on channel=9 note=42 velocity=0 time=45
Time=4075 Track=5 note_on channel=2 note=57 velocity=91 time=50
Time=4075 Track=5 note_on channel=2 note=62 velocity=113 time=0
Time=4075 Track=5 note_on channel=2 note=57 velocity=0 time=0
Time=4075 Track=5 note_on channel=2 note=60 velocity=0 time=0
Time=4075 Track=6 note_on channel=3 note=57 velocity=91 time=50
Time=4075 Track=6 note_on channel=3 note=62 velocity=113 time=0
Time=4075 Track=6 note_on channel=3 note=57 velocity=0 time=0
Time=4075 Track=6 note_on channel=3 note=60 velocity=0 time=0
Time=4075 Track=7 note_on channel=4 note=57 velocity=99 time=5
Time=4075 Track=7 note_on channel=4 note=62 velocity=107 time=0
Time=4080 Track=5 note_on channel=2 note=65 velocity=96 time=5
Time=4080 Track=5 note_on channel=2 note=65 velocity=0 time=0
Time=4080 Track=6 note_on channel=3 note=65 velocity=96 time=5
Time=4080 Track=6 note_on channel=3 note=65 velocity=0 time=0
Time=4080 Track=7 note_on channel=4 note=65 velocity=104 time=5
Time=4080 Track=11 note_on channel=9 note=36 velocity=120 time=15
Time=4080 Track=11 note_on channel=9 note=42 velocity=114 time=0
Time=4085 Track=7 note_on channel=4 note=65 velocity=0 time=5
Time=4085 Track=7 note_on channel=4 note=62 velocity=0 time=0
Time=4085 Track=7 note_on channel=4 note=57 velocity=0 time=0
Time=4105 Track=5 note_on channel=2 note=65 velocity=115 time=25
Time=4105 Track=5 note_on channel=2 note=65 velocity=0 time=0
Time=4105 Track=6 note_on channel=3 note=65 velocity=115 time=25
Time=4105 Track=6 note_on channel=3 note=65 velocity=0 time=0
Time=4105 Track=7 note_on channel=4 note=65 velocity=107 time=20
Time=4110 Track=5 note_on channel=2 note=62 velocity=94 time=5
Time=4110 Track=5 note_on channel=2 note=62 velocity=0 time=0
Time=4110 Track=6 note_on channel=3 note=62 velocity=94 time=5
Time=4110 Track=6 note_on channel=3 note=62 velocity=0 time=0
Time=4110 Track=7 note_on channel=4 note=62 velocity=102 time=5
Time=4115 Track=7 note_on channel=4 note=62 velocity=0 time=5
Time=4115 Track=7 note_on channel=4 note=65 velocity=0 time=0
Time=4125 Track=11 note_on channel=9 note=42 velocity=0 time=45
Time=4135 Track=7 note_on channel=4 note=65 velocity=78 time=20
Time=4135 Track=11 note_on channel=9 note=36 velocity=0 time=10
Time=4136 Track=7 note_on channel=4 note=65 velocity=0 time=1
Time=4140 Track=5 note_on channel=2 note=62 velocity=1 time=30
Time=4140 Track=5 note_on channel=2 note=65 velocity=0 time=0
Time=4140 Track=5 note_on channel=2 note=62 velocity=0 time=0
Time=4140 Track=5 note_on channel=2 note=57 velocity=0 time=0
Time=4140 Track=6 note_on channel=3 note=62 velocity=1 time=30
Time=4140 Track=6 note_on channel=3 note=65 velocity=0 time=0
Time=4140 Track=6 note_on channel=3 note=62 velocity=0 time=0
Time=4140 Track=6 note_on channel=3 note=57 velocity=0 time=0
Time=4140 Track=7 note_on channel=4 note=62 velocity=78 time=4
Time=4140 Track=11 note_on channel=9 note=42 velocity=94 time=5
Time=4141 Track=6 note_on channel=3 note=62 velocity=0 time=1
Time=4141 Track=7 note_on channel=4 note=62 velocity=0 time=1
Time=4145 Track=5 note_on channel=2 note=62 velocity=0 time=5
Time=4165 Track=7 note_on channel=4 note=65 velocity=76 time=24
Time=4166 Track=7 note_on channel=4 note=65 velocity=0 time=1
Time=4170 Track=5 note_on channel=2 note=65 velocity=1 time=25
Time=4170 Track=5 note_on channel=2 note=62 velocity=1 time=0
Time=4170 Track=6 note_on channel=3 note=65 velocity=1 time=29
Time=4170 Track=6 note_on channel=3 note=62 velocity=1 time=0
Time=4170 Track=7 note_on channel=4 note=62 velocity=76 time=4
Time=4171 Track=5 note_on channel=2 note=62 velocity=0 time=1
Time=4171 Track=5 note_on channel=2 note=65 velocity=0 time=0
Time=4171 Track=6 note_on channel=3 note=62 velocity=0 time=1
Time=4171 Track=6 note_on channel=3 note=65 velocity=0 time=0
Time=4171 Track=7 note_on channel=4 note=62 velocity=0 time=1
Time=4185 Track=11 note_on channel=9 note=42 velocity=0 time=45
Time=4190 Track=7 note_on channel=4 note=57 velocity=98 time=19
Time=4195 Track=5 note_on channel=2 note=57 velocity=90 time=24
Time=4195 Track=5 note_on channel=2 note=62 velocity=115 time=0
Time=4195 Track=6 note_on channel=3 note=57 velocity=90 time=24
Time=4195 Track=6 note_on channel=3 note=62 velocity=115 time=0
Time=4195 Track=7 note_on channel=4 note=62 velocity=107 time=0
Time=4195 Track=7 note_on channel=4 note=65 velocity=105 time=0
Time=4200 Track=5 note_on channel=2 note=65 velocity=97 time=5
Time=4200 Track=5 note_on channel=2 note=69 velocity=96 time=0
Time=4200 Track=6 note_on channel=3 note=65 velocity=97 time=5
Time=4200 Track=6 note_on channel=3 note=69 velocity=96 time=0
Time=4200 Track=7 note_on channel=4 note=69 velocity=104 time=5
Time=4200 Track=7 note_on channel=4 note=57 velocity=0 time=0
Time=4200 Track=11 note_on channel=9 note=36 velocity=119 time=15
Time=4200 Track=11 note_on channel=9 note=40 velocity=127 time=0
Time=4200 Track=11 note_on channel=9 note=42 velocity=126 time=0
Time=4205 Track=7 note_on channel=4 note=62 velocity=0 time=5
Time=4205 Track=7 note_on channel=4 note=65 velocity=0 time=0
Time=4205 Track=7 note_on channel=4 note=69 velocity=0 time=0
Time=4225 Track=5 note_on channel=2 note=65 velocity=118 time=25
Time=4225 Track=5 note_on channel=2 note=65 velocity=0 time=0
Time=4225 Track=6 note_on channel=3 note=65 velocity=118 time=25
Time=4225 Track=6 note_on channel=3 note=65 velocity=0 time=0
Time=4225 Track=7 note_on channel=4 note=65 velocity=107 time=20
Time=4230 Track=5 note_on channel=2 note=62 velocity=91 time=5
Time=4230 Track=5 note_on channel=2 note=62 velocity=0 time=0
Time=4230 Track=6 note_on channel=3 note=62 velocity=91 time=5
Time=4230 Track=6 note_on channel=3 note=62 velocity=0 time=0
Time=4230 Track=7 note_on channel=4 note=62 velocity=99 time=5
Time=4235 Track=7 note_on channel=4 note=62 velocity=0 time=5
Time=4235 Track=7 note_on channel=4 note=65 velocity=0 time=0
Time=4240 Track=5 note_on channel=2 note=57 velocity=0 time=10
Time=4240 Track=6 note_on channel=3 note=57 velocity=0 time=10
Time=4240 Track=11 note_on channel=9 note=42 velocity=0 time=40
Time=4250 Track=6 note_on channel=3 note=65 velocity=0 time=10
Time=4255 Track=5 note_on channel=2 note=65 velocity=0 time=15
Time=4255 Track=11 note_on channel=9 note=40 velocity=0 time=15
Time=4255 Track=11 note_on channel=9 note=36 velocity=0 time=0
Time=4260 Track=5 note_on channel=2 note=62 velocity=1 time=5
Time=4260 Track=5 note_on channel=2 note=65 velocity=1 time=0
Time=4260 Track=5 note_on channel=2 note=69 velocity=0 time=0
Time=4260 Track=5 note_on channel=2 note=62 velocity=0 time=0
Time=4260 Track=6 note_on channel=3 note=62 velocity=1 time=10
Time=4260 Track=6 note_on channel=3 note=65 velocity=1 time=0
Time=4260 Track=6 note_on channel=3 note=69 velocity=0 time=0
Time=4260 Track=6 note_on channel=3 note=62 velocity=0 time=0
Time=4260 Track=7 note_on channel=4 note=62 velocity=72 time=25
Time=4260 Track=7 note_on channel=4 note=65 velocity=72 time=0
Time=4260 Track=11 note_on channel=9 note=46 velocity=121 time=5
Time=4261 Track=5 note_on channel=2 note=65 velocity=0 time=1
Time=4261 Track=6 note_on channel=3 note=62 velocity=0 time=1
Time=4261 Track=6 note_on channel=3 note=65 velocity=0 time=0
Time=4261 Track=7 note_on channel=4 note=65 velocity=0 time=1
Time=4261 Track=7 note_on channel=4 note=62 velocity=0 time=0
Time=4265 Track=5 note_on channel=2 note=62 velocity=0 time=4
Time=4290 Track=5 note_on channel=2 note=65 velocity=1 time=25
Time=4290 Track=6 note_on channel=3 note=65 velocity=1 time=29
Time=4290 Track=7 note_on channel=4 note=65 velocity=71 time=29
Time=4290 Track=7 note_on channel=4 note=62 velocity=71 time=0
Time=4291 Track=5 note_on channel=2 note=65 velocity=0 time=1
Time=4291 Track=6 note_on channel=3 note=65 velocity=0 time=1
Time=4291 Track=7 note_on channel=4 note=62 velocity=0 time=1
Time=4291 Track=7 note_on channel=4 note=65 velocity=0 time=0
Time=4305 Track=11 note_on channel=9 note=46 velocity=0 time=45
Time=4310 Track=5 note_on channel=2 note=50 velocity=101 time=19
Time=4310 Track=6 note_on channel=3 note=50 velocity=101 time=19
Time=4315 Track=5 note_on channel=2 note=62 velocity=104 time=5
Time=4315 Track=5 note_on channel=2 note=57 velocity=91 time=0
Time=4315 Track=6 note_on channel=3 note=62 velocity=104 time=5
Time=4315 Track=6 note_on channel=3 note=57 velocity=91 time=0
Time=4320 Track=5 note_on channel=2 note=65 velocity=94 time=5
Time=4320 Track=6 note_on channel=3 note=65 velocity=94 time=5
Time=4320 Track=11 note_on channel=9 note=36 velocity=121 time=15
Time=4320 Track=11 note_on channel=9 note=42 velocity=112 time=0
Time=4325 Track=5 note_on channel=2 note=69 velocity=96 time=5
Time=4325 Track=6 note_on channel=3 note=69 velocity=96 time=5
Time=4355 Track=11 note_on channel=9 note=42 velocity=0 time=35
Time=4375 Track=11 note_on channel=9 note=36 velocity=0 time=20
Time=4380 Track=11 note_on channel=9 note=42 velocity=83 time=5
Time=4405 Track=5 note_on channel=2 note=65 velocity=108 time=80
Time=4405 Track=5 note_on channel=2 note=65 velocity=0 time=0
Time=4405 Track=6 note_on channel=3 note=65 velocity=108 time=80
Time=4405 Track=6 note_on channel=3 note=65 velocity=0 time=0
Time=4405 Track=7 note_on channel=4 note=65 velocity=107 time=0
Time=4410 Track=5 note_on channel=2 note=62 velocity=97 time=5
Time=4410 Track=5 note_on channel=2 note=62 velocity=0 time=0
Time=4410 Track=6 note_on channel=3 note=62 velocity=97 time=5
Time=4410 Track=6 note_on channel=3 note=62 velocity=0 time=0
Time=4410 Track=7 note_on channel=4 note=62 velocity=105 time=5
Time=4410 Track=7 note_on channel=4 note=65 velocity=0 time=0
Time=4415 Track=7 note_on channel=4 note=62 velocity=0 time=5
Time=4425 Track=11 note_on channel=9 note=42 velocity=0 time=45
Time=4430 Track=5 note_on channel=2 note=57 velocity=0 time=20
Time=4430 Track=6 note_on channel=3 note=57 velocity=0 time=20
Time=4430 Track=7 note_on channel=4 note=57 velocity=107 time=0
Time=4435 Track=5 note_on channel=2 note=57 velocity=100 time=5
Time=4435 Track=5 note_on channel=2 note=62 velocity=108 time=0
Time=4435 Track=5 note_on channel=2 note=69 velocity=0 time=0
Time=4435 Track=5 note_on channel=2 note=62 velocity=0 time=0
Time=4435 Track=6 note_on channel=3 note=57 velocity=100 time=5
Time=4435 Track=6 note_on channel=3 note=62 velocity=108 time=0
Time=4435 Track=6 note_on channel=3 note=69 velocity=0 time=0
Time=4435 Track=6 note_on channel=3 note=62 velocity=0 time=0
Time=4435 Track=7 note_on channel=4 note=62 velocity=107 time=5
Time=4440 Track=5 note_on channel=2 note=65 velocity=90 time=5
Time=4440 Track=5 note_on channel=2 note=65 velocity=0 time=0
Time=4440 Track=6 note_on channel=3 note=65 velocity=90 time=5
Time=4440 Track=6 note_on channel=3 note=65 velocity=0 time=0
Time=4440 Track=7 note_on channel=4 note=65 velocity=98 time=5
Time=4440 Track=7 note_on channel=4 note=57 velocity=0 time=0
Time=4440 Track=11 note_on channel=9 note=36 velocity=120 time=15
Time=4440 Track=11 note_on channel=9 note=40 velocity=127 time=0
Time=4440 Track=11 note_on channel=9 note=42 velocity=125 time=0
Time=4445 Track=7 note_on channel=4 note=65 velocity=0 time=5
Time=4445 Track=7 note_on channel=4 note=62 velocity=0 time=0
Time=4455 Track=5 note_on channel=2 note=50 velocity=0 time=15
Time=4455 Track=6 note_on channel=3 note=50 velocity=0 time=15
Time=4470 Track=5 note_on channel=2 note=57 velocity=0 time=15
Time=4470 Track=6 note_on channel=3 note=57 velocity=0 time=15
Time=4490 Track=5 note_on channel=2 note=57 velocity=89 time=20
Time=4490 Track=5 note_on channel=2 note=65 velocity=0 time=0
Time=4490 Track=6 note_on channel=3 note=57 velocity=89 time=20
Time=4490 Track=6 note_on channel=3 note=65 velocity=0 time=0
Time=4490 Track=11 note_on channel=9 note=42 velocity=0 time=50
Time=4495 Track=5 note_on channel=2 note=60 velocity=116 time=5
Time=4495 Track=6 note_on channel=3 note=60 velocity=116 time=5
Time=4495 Track=11 note_on channel=9 note=40 velocity=0 time=5
Time=4495 Track=11 note_on channel=9 note=36 velocity=0 time=0
Time=4500 Track=5 note_on channel=2 note=65 velocity=106 time=5
Time=4500 Track=6 note_on channel=3 note=65 velocity=106 time=5
Time=4500 Track=11 note_on channel=9 note=42 velocity=93 time=5
Time=4505 Track=5 note_on channel=2 note=62 velocity=0 time=5
Time=4505 Track=6 note_on channel=3 note=62 velocity=0 time=5
Time=4545 Track=11 note_on channel=9 note=42 velocity=0 time=45
Time=4555 Track=5 note_on channel=2 note=57 velocity=91 time=50
Time=4555 Track=5 note_on channel=2 note=62 velocity=113 time=0
Time=4555 Track=5 note_on channel=2 note=57 velocity=0 time=0
Time=4555 Track=5 note_on channel=2 note=60 velocity=0 time=0
Time=4555 Track=6 note_on channel=3 note=57 velocity=91 time=50
Time=4555 Track=6 note_on channel=3 note=62 velocity=113 time=0
Time=4555 Track=6 note_on channel=3 note=57 velocity=0 time=0
Time=4555 Track=6 note_on channel=3 note=60 velocity=0 time=0
Time=4555 Track=7 note_on channel=4 note=57 velocity=99 time=5
Time=4555 Track=7 note_on channel=4 note=62 velocity=107 time=0
Time=4560 Track=5 note_on channel=2 note=65 velocity=96 time=5
Time=4560 Track=5 note_on channel=2 note=65 velocity=0 time=0
Time=4560 Track=6 note_on channel=3 note=65 velocity=96 time=5
Time=4560 Track=6 note_on channel=3 note=65 velocity=0 time=0
Time=4560 Track=7 note_on channel=4 note=65 velocity=104 time=5
Time=4560 Track=11 note_on channel=9 note=36 velocity=120 time=15
Time=4560 Track=11 note_on channel=9 note=42 velocity=114 time=0
Time=4565 Track=7 note_on channel=4 note=65 velocity=0 time=5
Time=4565 Track=7 note_on channel=4 note=62 velocity=0 time=0
Time=4565 Track=7 note_on channel=4 note=57 velocity=0 time=0
Time=4585 Track=5 note_on channel=2 note=65 velocity=115 time=25
Time=4585 Track=5 note_on channel=2 note=65 velocity=0 time=0
Time=4585 Track=6 note_on channel=3 note=65 velocity=115 time=25
Time=4585 Track=6 note_on channel=3 note=65 velocity=0 time=0
Time=4585 Track=7 note_on channel=4 note=65 velocity=107 time=20
Time=4590 Track=5 note_on channel=2 note=62 velocity=94 time=5
Time=4590 Track=5 note_on channel=2 note=62 velocity=0 time=0
Time=4590 Track=6 note_on channel=3 note=62 velocity=94 time=5
Time=4590 Track=6 note_on channel=3 note=62 velocity=0 time=0
Time=4590 Track=7 note_on channel=4 note=62 velocity=102 time=5
Time=4595 Track=7 note_on channel=4 note=62 velocity=0 time=5
Time=4595 Track=7 note_on channel=4 note=65 velocity=0 time=0
Time=4605 Track=11 note_on channel=9 note=42 velocity=0 time=45
Time=4615 Track=7 note_on channel=4 note=65 velocity=78 time=20
Time=4615 Track=11 note_on channel=9 note=36 velocity=0 time=10
Time=4616 Track=7 note_on channel=4 note=65 velocity=0 time=1
Time=4620 Track=5 note_on channel=2 note=62 velocity=1 time=30
Time=4620 Track=5 note_on channel=2 note=65 velocity=0 time=0
Time=4620 Track=5 note_on channel=2 note=62 velocity=0 time=0
Time=4620 Track=5 note_on channel=2 note=57 velocity=0 time=0
Time=4620 Track=6 note_on channel=3 note=62 velocity=1 time=30
Time=4620 Track=6 note_on channel=3 note=65 velocity=0 time=0
Time=4620 Track=6 note_on channel=3 note=62 velocity=0 time=0
Time=4620 Track=6 note_on channel=3 note=57 velocity=0 time=0
Time=4620 Track=7 note_on channel=4 note=62 velocity=78 time=4
Time=4620 Track=11 note_on channel=9 note=42 velocity=94 time=5
Time=4621 Track=6 note_on channel=3 note=62 velocity=0 time=1
Time=4621 Track=7 note_on channel=4 note=62 velocity=0 time=1
Time=4625 Track=5 note_on channel=2 note=62 velocity=0 time=5
Time=4645 Track=7 note_on channel=4 note=65 velocity=76 time=24
Time=4646 Track=7 note_on channel=4 note=65 velocity=0 time=1
Time=4650 Track=5 note_on channel=2 note=65 velocity=1 time=25
Time=4650 Track=5 note_on channel=2 note=62 velocity=1 time=0
Time=4650 Track=6 note_on channel=3 note=65 velocity=1 time=29
Time=4650 Track=6 note_on channel=3 note=62 velocity=1 time=0
Time=4650 Track=7 note_on channel=4 note=62 velocity=76 time=4
Time=4651 Track=5 note_on channel=2 note=62 velocity=0 time=1
Time=4651 Track=5 note_on channel=2 note=65 velocity=0 time=0
Time=4651 Track=6 note_on channel=3 note=62 velocity=0 time=1
Time=4651 Track=6 note_on channel=3 note=65 velocity=0 time=0
Time=4651 Track=7 note_on channel=4 note=62 velocity=0 time=1
Time=4665 Track=11 note_on channel=9 note=42 velocity=0 time=45
Time=4670 Track=7 note_on channel=4 note=57 velocity=98 time=19
Time=4675 Track=5 note_on channel=2 note=57 velocity=90 time=24
Time=4675 Track=5 note_on channel=2 note=62 velocity=115 time=0
Time=4675 Track=6 note_on channel=3 note=57 velocity=90 time=24
Time=4675 Track=6 note_on channel=3 note=62 velocity=115 time=0
Time=4675 Track=7 note_on channel=4 note=62 velocity=107 time=0
Time=4675 Track=7 note_on channel=4 note=65 velocity=105 time=0
Time=4680 Track=5 note_on channel=2 note=65 velocity=97 time=5
Time=4680 Track=5 note_on channel=2 note=69 velocity=96 time=0
Time=4680 Track=6 note_on channel=3 note=65 velocity=97 time=5
Time=4680 Track=6 note_on channel=3 note=69 velocity=96 time=0
Time=4680 Track=7 note_on channel=4 note=69 velocity=104 time=5
Time=4680 Track=7 note_on channel=4 note=57 velocity=0 time=0
Time=4680 Track=11 note_on channel=9 note=36 velocity=119 time=15
Time=4680 Track=11 note_on channel=9 note=40 velocity=127 time=0
Time=4680 Track=11 note_on channel=9 note=42 velocity=126 time=0
Time=4685 Track=7 note_on channel=4 note=62 velocity=0 time=5
Time=4685 Track=7 note_on channel=4 note=65 velocity=0 time=0
Time=4685 Track=7 note_on channel=4 note=69 velocity=0 time=0
Time=4705 Track=5 note_on channel=2 note=65 velocity=118 time=25
Time=4705 Track=5 note_on channel=2 note=65 velocity=0 time=0
Time=4705 Track=6 note_on channel=3 note=65 velocity=118 time=25
Time=4705 Track=6 note_on channel=3 note=65 velocity=0 time=0
Time=4705 Track=7 note_on channel=4 note=65 velocity=107 time=20
Time=4710 Track=5 note_on channel=2 note=62 velocity=91 time=5
Time=4710 Track=5 note_on channel=2 note=62 velocity=0 time=0
Time=4710 Track=6 note_on channel=3 note=62 velocity=91 time=5
Time=4710 Track=6 note_on channel=3 note=62 velocity=0 time=0
Time=4710 Track=7 note_on channel=4 note=62 velocity=99 time=5
Time=4715 Track=7 note_on channel=4 note=62 velocity=0 time=5
Time=4715 Track=7 note_on channel=4 note=65 velocity=0 time=0
Time=4720 Track=5 note_on channel=2 note=57 velocity=0 time=10
Time=4720 Track=6 note_on channel=3 note=57 velocity=0 time=10
Time=4720 Track=11 note_on channel=9 note=42 velocity=0 time=40
Time=4730 Track=6 note_on channel=3 note=65 velocity=0 time=10
Time=4735 Track=5 note_on channel=2 note=65 velocity=0 time=15
Time=4735 Track=11 note_on channel=9 note=40 velocity=0 time=15
Time=4735 Track=11 note_on channel=9 note=36 velocity=0 time=0
Time=4740 Track=5 note_on channel=2 note=62 velocity=1 time=5
Time=4740 Track=5 note_on channel=2 note=65 velocity=1 time=0
Time=4740 Track=5 note_on channel=2 note=69 velocity=0 time=0
Time=4740 Track=5 note_on channel=2 note=62 velocity=0 time=0
Time=4740 Track=6 note_on channel=3 note=62 velocity=1 time=10
Time=4740 Track=6 note_on channel=3 note=65 velocity=1 time=0
Time=4740 Track=6 note_on channel=3 note=69 velocity=0 time=0
Time=4740 Track=6 note_on channel=3 note=62 velocity=0 time=0
Time=4740 Track=7 note_on channel=4 note=62 velocity=72 time=25
Time=4740 Track=7 note_on channel=4 note=65 velocity=72 time=0
Time=4740 Track=11 note_on channel=9 note=46 velocity=121 time=5
Time=4741 Track=5 note_on channel=2 note=65 velocity=0 time=1
Time=4741 Track=6 note_on channel=3 note=62 velocity=0 time=1
Time=4741 Track=6 note_on channel=3 note=65 velocity=0 time=0
Time=4741 Track=7 note_on channel=4 note=65 velocity=0 time=1
Time=4741 Track=7 note_on channel=4 note=62 velocity=0 time=0
Time=4745 Track=5 note_on channel=2 note=62 velocity=0 time=4
Time=4770 Track=5 note_on channel=2 note=65 velocity=1 time=25
Time=4770 Track=6 note_on channel=3 note=65 velocity=1 time=29
Time=4770 Track=7 note_on channel=4 note=65 velocity=71 time=29
Time=4770 Track=7 note_on channel=4 note=62 velocity=71 time=0
Time=4771 Track=5 note_on channel=2 note=65 velocity=0 time=1
Time=4771 Track=6 note_on channel=3 note=65 velocity=0 time=1
Time=4771 Track=7 note_on channel=4 note=62 velocity=0 time=1
Time=4771 Track=7 note_on channel=4 note=65 velocity=0 time=0
Time=4785 Track=11 note_on channel=9 note=46 velocity=0 time=45
Time=4790 Track=5 note_on channel=2 note=50 velocity=101 time=19
Time=4790 Track=6 note_on channel=3 note=50 velocity=101 time=19
Time=4795 Track=5 note_on channel=2 note=62 velocity=104 time=5
Time=4795 Track=5 note_on channel=2 note=57 velocity=91 time=0
Time=4795 Track=6 note_on channel=3 note=62 velocity=104 time=5
Time=4795 Track=6 note_on channel=3 note=57 velocity=91 time=0
Time=4795 Track=12 note_on channel=10 note=52 velocity=0 time=1135
Time=4800 Track=5 note_on channel=2 note=65 velocity=94 time=0
Time=4800 Track=6 note_on channel=3 note=65 velocity=94 time=5
Time=4800 Track=11 note_on channel=9 note=36 velocity=121 time=15
Time=4800 Track=11 note_on channel=9 note=42 velocity=112 time=0
Time=4800 Track=12 note_on channel=10 note=50 velocity=108 time=5
Time=4805 Track=5 note_on channel=2 note=69 velocity=96 time=5
Time=4805 Track=6 note_on channel=3 note=69 velocity=96 time=5
Time=4835 Track=11 note_on channel=9 note=42 velocity=0 time=35
Time=4855 Track=11 note_on channel=9 note=36 velocity=0 time=20
Time=4860 Track=11 note_on channel=9 note=42 velocity=83 time=5
Time=4885 Track=5 note_on channel=2 note=65 velocity=108 time=0
Time=4885 Track=5 note_on channel=2 note=65 velocity=0 time=0
Time=4885 Track=6 note_on channel=3 note=65 velocity=108 time=80
Time=4885 Track=6 note_on channel=3 note=65 velocity=0 time=0
Time=4885 Track=7 note_on channel=4 note=65 velocity=107 time=0
Time=4890 Track=5 note_on channel=2 note=62 velocity=97 time=5
Time=4890 Track=5 note_on channel=2 note=62 velocity=0 time=0
Time=4890 Track=6 note_on channel=3 note=62 velocity=97 time=5
Time=4890 Track=6 note_on channel=3 note=62 velocity=0 time=0
Time=4890 Track=7 note_on channel=4 note=62 velocity=105 time=5
Time=4890 Track=7 note_on channel=4 note=65 velocity=0 time=0
Time=4895 Track=7 note_on channel=4 note=62 velocity=0 time=5
Time=4905 Track=11 note_on channel=9 note=42 velocity=0 time=45
Time=4910 Track=5 note_on channel=2 note=57 velocity=0 time=0
Time=4910 Track=6 note_on channel=3 note=57 velocity=0 time=20
Time=4910 Track=7 note_on channel=4 note=57 velocity=107 time=0
Time=4915 Track=5 note_on channel=2 note=57 velocity=100 time=5
Time=4915 Track=5 note_on channel=2 note=62 velocity=108 time=0
Time=4915 Track=5 note_on channel=2 note=69 velocity=0 time=0
Time=4915 Track=5 note_on channel=2 note=62 velocity=0 time=0
Time=4915 Track=6 note_on channel=3 note=57 velocity=100 time=5
Time=4915 Track=6 note_on channel=3 note=62 velocity=108 time=0
Time=4915 Track=6 note_on channel=3 note=69 velocity=0 time=0
Time=4915 Track=6 note_on channel=3 note=62 velocity=0 time=0
Time=4915 Track=7 note_on channel=4 note=62 velocity=107 time=5
Time=4915 Track=12 note_on channel=10 note=50 velocity=0 time=115
Time=4920 Track=5 note_on channel=2 note=65 velocity=90 time=5
Time=4920 Track=5 note_on channel=2 note=65 velocity=0 time=0
Time=4920 Track=6 note_on channel=3 note=65 velocity=90 time=5
Time=4920 Track=6 note_on channel=3 note=65 velocity=0 time=0
Time=4920 Track=7 note_on channel=4 note=65 velocity=98 time=5
Time=4920 Track=7 note_on channel=4 note=57 velocity=0 time=0
Time=4920 Track=11 note_on channel=9 note=36 velocity=120 time=15
Time=4920 Track=11 note_on channel=9 note=40 velocity=127 time=0
Time=4920 Track=11 note_on channel=9 note=42 velocity=125 time=0
Time=4920 Track=12 note_on channel=10 note=52 velocity=108 time=5
Time=4925 Track=7 note_on channel=4 note=65 velocity=0 time=5
Time=4925 Track=7 note_on channel=4 note=62 velocity=0 time=0
Time=4935 Track=5 note_on channel=2 note=50 velocity=0 time=15
Time=4935 Track=6 note_on channel=3 note=50 velocity=0 time=15
Time=4950 Track=5 note_on channel=2 note=57 velocity=0 time=15
Time=4950 Track=6 note_on channel=3 note=57 velocity=0 time=15
Time=4970 Track=5 note_on channel=2 note=57 velocity=89 time=20
Time=4970 Track=5 note_on channel=2 note=65 velocity=0 time=0
Time=4970 Track=6 note_on channel=3 note=57 velocity=89 time=20
Time=4970 Track=6 note_on channel=3 note=65 velocity=0 time=0
Time=4970 Track=11 note_on channel=9 note=42 velocity=0 time=50
Time=4975 Track=5 note_on channel=2 note=60 velocity=116 time=5
Time=4975 Track=6 note_on channel=3 note=60 velocity=116 time=5
Time=4975 Track=11 note_on channel=9 note=40 velocity=0 time=5
Time=4975 Track=11 note_on channel=9 note=36 velocity=0 time=0
Time=4975 Track=12 note_on channel=10 note=52 velocity=0 time=55
Time=4980 Track=5 note_on channel=2 note=65 velocity=106 time=0
Time=4980 Track=6 note_on channel=3 note=65 velocity=106 time=5
Time=4980 Track=11 note_on channel=9 note=42 velocity=93 time=5
Time=4980 Track=12 note_on channel=10 note=53 velocity=108 time=5
Time=4985 Track=5 note_on channel=2 note=62 velocity=0 time=5
Time=4985 Track=6 note_on channel=3 note=62 velocity=0 time=5
Time=5025 Track=11 note_on channel=9 note=42 velocity=0 time=45
Time=5035 Track=5 note_on channel=2 note=57 velocity=91 time=0
Time=5035 Track=5 note_on channel=2 note=62 velocity=113 time=0
Time=5035 Track=5 note_on channel=2 note=57 velocity=0 time=0
Time=5035 Track=5 note_on channel=2 note=60 velocity=0 time=0
Time=5035 Track=6 note_on channel=3 note=57 velocity=91 time=50
Time=5035 Track=6 note_on channel=3 note=62 velocity=113 time=0
Time=5035 Track=6 note_on channel=3 note=57 velocity=0 time=0
Time=5035 Track=6 note_on channel=3 note=60 velocity=0 time=0
Time=5035 Track=7 note_on channel=4 note=57 velocity=99 time=5
Time=5035 Track=7 note_on channel=4 note=62 velocity=107 time=0
Time=5040 Track=5 note_on channel=2 note=65 velocity=96 time=5
Time=5040 Track=5 note_on channel=2 note=65 velocity=0 time=0
Time=5040 Track=6 note_on channel=3 note=65 velocity=96 time=5
Time=5040 Track=6 note_on channel=3 note=65 velocity=0 time=0
Time=5040 Track=7 note_on channel=4 note=65 velocity=104 time=5
Time=5040 Track=11 note_on channel=9 note=36 velocity=120 time=15
Time=5040 Track=11 note_on channel=9 note=42 velocity=114 time=0
Time=5045 Track=7 note_on channel=4 note=65 velocity=0 time=5
Time=5045 Track=7 note_on channel=4 note=62 velocity=0 time=0
Time=5045 Track=7 note_on channel=4 note=57 velocity=0 time=0
Time=5070 Track=5 note_on channel=2 note=62 velocity=0 time=5
Time=5070 Track=6 note_on channel=3 note=62 velocity=0 time=30
Time=5085 Track=11 note_on channel=9 note=42 velocity=0 time=45
Time=5095 Track=7 note_on channel=4 note=65 velocity=78 time=30
Time=5095 Track=11 note_on channel=9 note=36 velocity=0 time=10
Time=5095 Track=12 note_on channel=10 note=53 velocity=0 time=115
Time=5096 Track=7 note_on channel=4 note=65 velocity=0 time=1
Time=5100 Track=5 note_on channel=2 note=57 velocity=0 time=30
Time=5100 Track=5 note_on channel=2 note=65 velocity=0 time=0
Time=5100 Track=6 note_on channel=3 note=57 velocity=0 time=30
Time=5100 Track=6 note_on channel=3 note=65 velocity=0 time=0
Time=5100 Track=7 note_on channel=4 note=62 velocity=78 time=4
Time=5100 Track=11 note_on channel=9 note=42 velocity=94 time=5
Time=5100 Track=12 note_on channel=10 note=52 velocity=108 time=5
Time=5101 Track=7 note_on channel=4 note=62 velocity=0 time=1
Time=5125 Track=7 note_on channel=4 note=65 velocity=76 time=24
Time=5126 Track=7 note_on channel=4 note=65 velocity=0 time=1
Time=5130 Track=7 note_on channel=4 note=62 velocity=76 time=4
Time=5131 Track=7 note_on channel=4 note=62 velocity=0 time=1
Time=5145 Track=11 note_on channel=9 note=42 velocity=0 time=45
Time=5150 Track=7 note_on channel=4 note=57 velocity=98 time=19
Time=5155 Track=5 note_on channel=2 note=57 velocity=90 time=55
Time=5155 Track=5 note_on channel=2 note=62 velocity=115 time=0
Time=5155 Track=6 note_on channel=3 note=57 velocity=90 time=55
Time=5155 Track=6 note_on channel=3 note=62 velocity=115 time=0
Time=5155 Track=7 note_on channel=4 note=62 velocity=107 time=0
Time=5155 Track=7 note_on channel=4 note=65 velocity=105 time=0
Time=5160 Track=5 note_on channel=2 note=65 velocity=97 time=5
Time=5160 Track=5 note_on channel=2 note=69 velocity=96 time=0
Time=5160 Track=6 note_on channel=3 note=65 velocity=97 time=5
Time=5160 Track=6 note_on channel=3 note=69 velocity=96 time=0
Time=5160 Track=7 note_on channel=4 note=69 velocity=104 time=5
Time=5160 Track=7 note_on channel=4 note=57 velocity=0 time=0
Time=5160 Track=11 note_on channel=9 note=36 velocity=119 time=15
Time=5160 Track=11 note_on channel=9 note=40 velocity=127 time=0
Time=5160 Track=11 note_on channel=9 note=42 velocity=126 time=0
Time=5165 Track=7 note_on channel=4 note=62 velocity=0 time=5
Time=5165 Track=7 note_on channel=4 note=65 velocity=0 time=0
Time=5165 Track=7 note_on channel=4 note=69 velocity=0 time=0
Time=5190 Track=5 note_on channel=2 note=65 velocity=0 time=0
Time=5190 Track=6 note_on channel=3 note=65 velocity=0 time=30
Time=5190 Track=6 note_on channel=3 note=62 velocity=0 time=0
Time=5195 Track=5 note_on channel=2 note=62 velocity=0 time=5
Time=5200 Track=5 note_on channel=2 note=57 velocity=0 time=5
Time=5200 Track=6 note_on channel=3 note=57 velocity=0 time=10
Time=5200 Track=11 note_on channel=9 note=42 velocity=0 time=40
Time=5215 Track=11 note_on channel=9 note=40 velocity=0 time=15
Time=5215 Track=11 note_on channel=9 note=36 velocity=0 time=0
Time=5220 Track=5 note_on channel=2 note=69 velocity=0 time=20
Time=5220 Track=6 note_on channel=3 note=69 velocity=0 time=20
Time=5220 Track=7 note_on channel=4 note=62 velocity=72 time=30
Time=5220 Track=7 note_on channel=4 note=65 velocity=72 time=0
Time=5220 Track=11 note_on channel=9 note=46 velocity=121 time=5
Time=5221 Track=7 note_on channel=4 note=65 velocity=0 time=1
Time=5221 Track=7 note_on channel=4 note=62 velocity=0 time=0
Time=5250 Track=7 note_on channel=4 note=65 velocity=71 time=29
Time=5250 Track=7 note_on channel=4 note=62 velocity=71 time=0
Time=5251 Track=7 note_on channel=4 note=62 velocity=0 time=1
Time=5251 Track=7 note_on channel=4 note=65 velocity=0 time=0
Time=5265 Track=11 note_on channel=9 note=46 velocity=0 time=45
Time=5270 Track=5 note_on channel=2 note=50 velocity=101 time=50
Time=5270 Track=6 note_on channel=3 note=50 velocity=101 time=50
Time=5275 Track=5 note_on channel=2 note=62 velocity=104 time=5
Time=5275 Track=5 note_on channel=2 note=57 velocity=91 time=0
Time=5275 Track=6 note_on channel=3 note=62 velocity=104 time=5
Time=5275 Track=6 note_on channel=3 note=57 velocity=91 time=0
Time=5275 Track=12 note_on channel=10 note=52 velocity=0 time=175
Time=5280 Track=5 note_on channel=2 note=65 velocity=94 time=5
Time=5280 Track=6 note_on channel=3 note=65 velocity=94 time=5
Time=5280 Track=11 note_on channel=9 note=36 velocity=121 time=15
Time=5280 Track=11 note_on channel=9 note=42 velocity=112 time=0
Time=5280 Track=12 note_on channel=10 note=50 velocity=108 time=5
Time=5285 Track=5 note_on channel=2 note=69 velocity=96 time=5
Time=5285 Track=6 note_on channel=3 note=69 velocity=96 time=5
Time=5315 Track=11 note_on channel=9 note=42 velocity=0 time=35
Time=5335 Track=11 note_on channel=9 note=36 velocity=0 time=20
Time=5340 Track=11 note_on channel=9 note=42 velocity=83 time=5
Time=5360 Track=5 note_on channel=2 note=65 velocity=0 time=0
Time=5360 Track=6 note_on channel=3 note=65 velocity=0 time=75
Time=5365 Track=5 note_on channel=2 note=65 velocity=108 time=0
Time=5365 Track=5 note_on channel=2 note=62 velocity=0 time=0
Time=5365 Track=6 note_on channel=3 note=65 velocity=108 time=5
Time=5365 Track=6 note_on channel=3 note=62 velocity=0 time=0
Time=5365 Track=7 note_on channel=4 note=65 velocity=107 time=0
Time=5370 Track=5 note_on channel=2 note=62 velocity=97 time=5
Time=5370 Track=6 note_on channel=3 note=62 velocity=97 time=5
Time=5370 Track=7 note_on channel=4 note=62 velocity=105 time=5
Time=5370 Track=7 note_on channel=4 note=65 velocity=0 time=0
Time=5375 Track=7 note_on channel=4 note=62 velocity=0 time=5
Time=5385 Track=11 note_on channel=9 note=42 velocity=0 time=45
Time=5390 Track=5 note_on channel=2 note=57 velocity=100 time=0
Time=5390 Track=5 note_on channel=2 note=57 velocity=0 time=0
Time=5390 Track=6 note_on channel=3 note=57 velocity=100 time=20
Time=5390 Track=6 note_on channel=3 note=57 velocity=0 time=0
Time=5390 Track=7 note_on channel=4 note=57 velocity=107 time=0
Time=5395 Track=5 note_on channel=2 note=62 velocity=108 time=5
Time=5395 Track=5 note_on channel=2 note=62 velocity=0 time=0
Time=5395 Track=5 note_on channel=2 note=65 velocity=0 time=0
Time=5395 Track=5 note_on channel=2 note=69 velocity=0 time=0
Time=5395 Track=6 note_on channel=3 note=62 velocity=108 time=5
Time=5395 Track=6 note_on channel=3 note=62 velocity=0 time=0
Time=5395 Track=6 note_on channel=3 note=65 velocity=0 time=0
Time=5395 Track=6 note_on channel=3 note=69 velocity=0 time=0
Time=5395 Track=7 note_on channel=4 note=62 velocity=107 time=5
Time=5400 Track=5 note_on channel=2 note=65 velocity=90 time=5
Time=5400 Track=6 note_on channel=3 note=65 velocity=90 time=5
Time=5400 Track=7 note_on channel=4 note=65 velocity=98 time=5
Time=5400 Track=7 note_on channel=4 note=57 velocity=0 time=0
Time=5400 Track=11 note_on channel=9 note=36 velocity=120 time=15
Time=5400 Track=11 note_on channel=9 note=40 velocity=127 time=0
Time=5400 Track=11 note_on channel=9 note=42 velocity=125 time=0
Time=5400 Track=12 note_on channel=10 note=52 velocity=108 time=120
Time=5400 Track=12 note_on channel=10 note=50 velocity=0 time=0
Time=5405 Track=7 note_on channel=4 note=65 velocity=0 time=5
Time=5405 Track=7 note_on channel=4 note=62 velocity=0 time=0
Time=5410 Track=6 note_on channel=3 note=50 velocity=0 time=10
Time=5415 Track=5 note_on channel=2 note=50 velocity=0 time=15
Time=5425 Track=6 note_on channel=3 note=57 velocity=0 time=15
Time=5430 Track=5 note_on channel=2 note=57 velocity=0 time=15
Time=5445 Track=6 note_on channel=3 note=65 velocity=0 time=20
Time=5450 Track=5 note_on channel=2 note=57 velocity=89 time=20
Time=5450 Track=5 note_on channel=2 note=60 velocity=116 time=0
Time=5450 Track=5 note_on channel=2 note=65 velocity=0 time=0
Time=5450 Track=6 note_on channel=3 note=57 velocity=89 time=5
Time=5450 Track=6 note_on channel=3 note=60 velocity=116 time=0
Time=5450 Track=11 note_on channel=9 note=42 velocity=0 time=50
Time=5455 Track=11 note_on channel=9 note=40 velocity=0 time=5
Time=5455 Track=11 note_on channel=9 note=36 velocity=0 time=0
Time=5455 Track=12 note_on channel=10 note=52 velocity=0 time=55
Time=5460 Track=5 note_on channel=2 note=65 velocity=106 time=5
Time=5460 Track=6 note_on channel=3 note=65 velocity=106 time=10
Time=5460 Track=6 note_on channel=3 note=62 velocity=0 time=0
Time=5460 Track=11 note_on channel=9 note=42 velocity=93 time=5
Time=5460 Track=12 note_on channel=10 note=53 velocity=97 time=5
Time=5465 Track=5 note_on channel=2 note=62 velocity=0 time=5
Time=5505 Track=11 note_on channel=9 note=42 velocity=0 time=45
Time=5515 Track=5 note_on channel=2 note=57 velocity=91 time=5
Time=5515 Track=5 note_on channel=2 note=62 velocity=113 time=0
Time=5515 Track=5 note_on channel=2 note=60 velocity=0 time=0
Time=5515 Track=5 note_on channel=2 note=65 velocity=0 time=0
Time=5515 Track=5 note_on channel=2 note=57 velocity=0 time=0
Time=5515 Track=6 note_on channel=3 note=57 velocity=91 time=55
Time=5515 Track=6 note_on channel=3 note=62 velocity=113 time=0
Time=5515 Track=6 note_on channel=3 note=57 velocity=0 time=0
Time=5515 Track=6 note_on channel=3 note=65 velocity=0 time=0
Time=5515 Track=6 note_on channel=3 note=60 velocity=0 time=0
Time=5515 Track=7 note_on channel=4 note=57 velocity=99 time=5
Time=5515 Track=7 note_on channel=4 note=62 velocity=107 time=0
Time=5520 Track=5 note_on channel=2 note=65 velocity=96 time=5
Time=5520 Track=6 note_on channel=3 note=65 velocity=96 time=5
Time=5520 Track=7 note_on channel=4 note=65 velocity=104 time=5
Time=5520 Track=11 note_on channel=9 note=36 velocity=120 time=15
Time=5520 Track=11 note_on channel=9 note=42 velocity=114 time=0
Time=5525 Track=7 note_on channel=4 note=65 velocity=0 time=5
Time=5525 Track=7 note_on channel=4 note=62 velocity=0 time=0
Time=5525 Track=7 note_on channel=4 note=57 velocity=0 time=0
Time=5550 Track=5 note_on channel=2 note=62 velocity=0 time=5
Time=5550 Track=6 note_on channel=3 note=62 velocity=0 time=30
Time=5565 Track=11 note_on channel=9 note=42 velocity=0 time=45
Time=5575 Track=6 note_on channel=3 note=65 velocity=0 time=25
Time=5575 Track=7 note_on channel=4 note=65 velocity=78 time=30
Time=5575 Track=11 note_on channel=9 note=36 velocity=0 time=10
Time=5576 Track=7 note_on channel=4 note=65 velocity=0 time=1
Time=5580 Track=5 note_on channel=2 note=65 velocity=0 time=30
Time=5580 Track=5 note_on channel=2 note=57 velocity=0 time=0
Time=5580 Track=6 note_on channel=3 note=57 velocity=0 time=5
Time=5580 Track=7 note_on channel=4 note=62 velocity=78 time=4
Time=5580 Track=11 note_on channel=9 note=42 velocity=94 time=5
Time=5581 Track=7 note_on channel=4 note=62 velocity=0 time=1
Time=5605 Track=7 note_on channel=4 note=65 velocity=76 time=24
Time=5606 Track=7 note_on channel=4 note=65 velocity=0 time=1
Time=5610 Track=7 note_on channel=4 note=62 velocity=76 time=4
Time=5611 Track=7 note_on channel=4 note=62 velocity=0 time=1
Time=5625 Track=11 note_on channel=9 note=42 velocity=0 time=45
Time=5630 Track=5 note_on channel=2 note=57 velocity=90 time=50
Time=5630 Track=6 note_on channel=3 note=57 velocity=90 time=50
Time=5630 Track=7 note_on channel=4 note=57 velocity=98 time=19
Time=5635 Track=5 note_on channel=2 note=62 velocity=115 time=0
Time=5635 Track=5 note_on channel=2 note=65 velocity=97 time=0
Time=5635 Track=6 note_on channel=3 note=62 velocity=115 time=5
Time=5635 Track=6 note_on channel=3 note=65 velocity=97 time=0
Time=5635 Track=7 note_on channel=4 note=62 velocity=107 time=0
Time=5635 Track=7 note_on channel=4 note=65 velocity=105 time=0
Time=5640 Track=5 note_on channel=2 note=69 velocity=96 time=5
Time=5640 Track=6 note_on channel=3 note=69 velocity=96 time=5
Time=5640 Track=7 note_on channel=4 note=69 velocity=104 time=5
Time=5640 Track=7 note_on channel=4 note=57 velocity=0 time=0
Time=5640 Track=11 note_on channel=9 note=36 velocity=119 time=15
Time=5640 Track=11 note_on channel=9 note=40 velocity=127 time=0
Time=5640 Track=11 note_on channel=9 note=42 velocity=126 time=0
Time=5645 Track=7 note_on channel=4 note=62 velocity=0 time=5
Time=5645 Track=7 note_on channel=4 note=65 velocity=0 time=0
Time=5645 Track=7 note_on channel=4 note=69 velocity=0 time=0
Time=5665 Track=5 note_on channel=2 note=65 velocity=0 time=25
Time=5665 Track=6 note_on channel=3 note=65 velocity=0 time=25
Time=5670 Track=5 note_on channel=2 note=62 velocity=0 time=0
Time=5670 Track=6 note_on channel=3 note=62 velocity=0 time=5
Time=5680 Track=5 note_on channel=2 note=57 velocity=0 time=10
Time=5680 Track=6 note_on channel=3 note=57 velocity=0 time=10
Time=5680 Track=11 note_on channel=9 note=42 velocity=0 time=40
Time=5695 Track=6 note_on channel=3 note=69 velocity=0 time=15
Time=5695 Track=11 note_on channel=9 note=40 velocity=0 time=15
Time=5695 Track=11 note_on channel=9 note=36 velocity=0 time=0
Time=5700 Track=5 note_on channel=2 note=69 velocity=0 time=20
Time=5700 Track=7 note_on channel=4 note=62 velocity=72 time=30
Time=5700 Track=7 note_on channel=4 note=65 velocity=72 time=0
Time=5700 Track=11 note_on channel=9 note=46 velocity=121 time=5
Time=5701 Track=7 note_on channel=4 note=65 velocity=0 time=1
Time=5701 Track=7 note_on channel=4 note=62 velocity=0 time=0
Time=5730 Track=7 note_on channel=4 note=65 velocity=71 time=29
Time=5730 Track=7 note_on channel=4 note=62 velocity=71 time=0
Time=5731 Track=7 note_on channel=4 note=62 velocity=0 time=1
Time=5731 Track=7 note_on channel=4 note=65 velocity=0 time=0
Time=5745 Track=11 note_on channel=9 note=46 velocity=0 time=45
Time=5750 Track=5 note_on channel=2 note=50 velocity=101 time=50
Time=5750 Track=6 note_on channel=3 note=50 velocity=101 time=55
Time=5755 Track=3 note_on channel=0 note=26 velocity=0 time=1915
Time=5755 Track=4 note_on channel=1 note=26 velocity=0 time=1915
Time=5755 Track=5 note_on channel=2 note=62 velocity=104 time=5
Time=5755 Track=5 note_on channel=2 note=57 velocity=91 time=0
Time=5755 Track=6 note_on channel=3 note=62 velocity=104 time=5
Time=5755 Track=6 note_on channel=3 note=57 velocity=91 time=0
Time=5760 Track=3 note_on channel=0 note=38 velocity=103 time=5
Time=5760 Track=4 note_on channel=1 note=38 velocity=101 time=5
Time=5760 Track=5 note_on channel=2 note=65 velocity=94 time=5
Time=5760 Track=6 note_on channel=3 note=65 velocity=94 time=5
Time=5760 Track=11 note_on channel=9 note=36 velocity=121 time=15
Time=5760 Track=11 note_on channel=9 note=42 velocity=112 time=0
Time=5765 Track=5 note_on channel=2 note=69 velocity=96 time=5
Time=5765 Track=6 note_on channel=3 note=69 velocity=96 time=5
Time=5795 Track=11 note_on channel=9 note=42 velocity=0 time=35
Time=5815 Track=11 note_on channel=9 note=36 velocity=0 time=20
Time=5820 Track=11 note_on channel=9 note=42 velocity=83 time=5
Time=5845 Track=5 note_on channel=2 note=65 velocity=108 time=80
Time=5845 Track=5 note_on channel=2 note=65 velocity=0 time=0
Time=5845 Track=6 note_on channel=3 note=65 velocity=108 time=80
Time=5845 Track=6 note_on channel=3 note=65 velocity=0 time=0
Time=5845 Track=7 note_on channel=4 note=65 velocity=107 time=0
Time=5850 Track=5 note_on channel=2 note=62 velocity=97 time=5
Time=5850 Track=5 note_on channel=2 note=62 velocity=0 time=0
Time=5850 Track=6 note_on channel=3 note=62 velocity=97 time=5
Time=5850 Track=6 note_on channel=3 note=62 velocity=0 time=0
Time=5850 Track=7 note_on channel=4 note=62 velocity=105 time=5
Time=5850 Track=7 note_on channel=4 note=65 velocity=0 time=0
Time=5855 Track=7 note_on channel=4 note=62 velocity=0 time=5
Time=5865 Track=11 note_on channel=9 note=42 velocity=0 time=45
Time=5870 Track=5 note_on channel=2 note=57 velocity=0 time=20
Time=5870 Track=6 note_on channel=3 note=57 velocity=0 time=20
Time=5870 Track=7 note_on channel=4 note=57 velocity=107 time=0
Time=5875 Track=4 note_on channel=1 note=38 velocity=0 time=115
Time=5875 Track=5 note_on channel=2 note=57 velocity=100 time=5
Time=5875 Track=5 note_on channel=2 note=62 velocity=108 time=0
Time=5875 Track=5 note_on channel=2 note=69 velocity=0 time=0
Time=5875 Track=5 note_on channel=2 note=62 velocity=0 time=0
Time=5875 Track=6 note_on channel=3 note=57 velocity=100 time=5
Time=5875 Track=6 note_on channel=3 note=62 velocity=108 time=0
Time=5875 Track=6 note_on channel=3 note=69 velocity=0 time=0
Time=5875 Track=6 note_on channel=3 note=62 velocity=0 time=0
Time=5875 Track=7 note_on channel=4 note=62 velocity=107 time=5
Time=5880 Track=3 note_on channel=0 note=38 velocity=0 time=120
Time=5880 Track=5 note_on channel=2 note=65 velocity=90 time=5
Time=5880 Track=5 note_on channel=2 note=65 velocity=0 time=0
Time=5880 Track=6 note_on channel=3 note=65 velocity=90 time=5
Time=5880 Track=6 note_on channel=3 note=65 velocity=0 time=0
Time=5880 Track=7 note_on channel=4 note=65 velocity=98 time=5
Time=5880 Track=7 note_on channel=4 note=57 velocity=0 time=0
Time=5880 Track=11 note_on channel=9 note=36 velocity=120 time=15
Time=5880 Track=11 note_on channel=9 note=40 velocity=127 time=0
Time=5880 Track=11 note_on channel=9 note=42 velocity=125 time=0
Time=5885 Track=7 note_on channel=4 note=65 velocity=0 time=5
Time=5885 Track=7 note_on channel=4 note=62 velocity=0 time=0
Time=5895 Track=5 note_on channel=2 note=50 velocity=0 time=15
Time=5895 Track=6 note_on channel=3 note=50 velocity=0 time=15
Time=5910 Track=5 note_on channel=2 note=57 velocity=0 time=15
Time=5910 Track=6 note_on channel=3 note=57 velocity=0 time=15
Time=5930 Track=5 note_on channel=2 note=57 velocity=89 time=20
Time=5930 Track=5 note_on channel=2 note=65 velocity=0 time=0
Time=5930 Track=6 note_on channel=3 note=57 velocity=89 time=20
Time=5930 Track=6 note_on channel=3 note=65 velocity=0 time=0
Time=5930 Track=11 note_on channel=9 note=42 velocity=0 time=50
Time=5935 Track=5 note_on channel=2 note=60 velocity=116 time=5
Time=5935 Track=6 note_on channel=3 note=60 velocity=116 time=5
Time=5935 Track=11 note_on channel=9 note=40 velocity=0 time=5
Time=5935 Track=11 note_on channel=9 note=36 velocity=0 time=0
Time=5940 Track=3 note_on channel=0 note=36 velocity=102 time=60
Time=5940 Track=4 note_on channel=1 note=36 velocity=101 time=65
Time=5940 Track=5 note_on channel=2 note=65 velocity=106 time=5
Time=5940 Track=6 note_on channel=3 note=65 velocity=106 time=5
Time=5940 Track=11 note_on channel=9 note=42 velocity=93 time=5
Time=5945 Track=5 note_on channel=2 note=62 velocity=0 time=5
Time=5945 Track=6 note_on channel=3 note=62 velocity=0 time=5
Time=5985 Track=11 note_on channel=9 note=42 velocity=0 time=45
Time=5995 Track=3 note_on channel=0 note=36 velocity=0 time=55
Time=5995 Track=4 note_on channel=1 note=36 velocity=0 time=55
Time=5995 Track=5 note_on channel=2 note=57 velocity=91 time=50
Time=5995 Track=5 note_on channel=2 note=62 velocity=113 time=0
Time=5995 Track=5 note_on channel=2 note=57 velocity=0 time=0
Time=5995 Track=5 note_on channel=2 note=60 velocity=0 time=0
Time=5995 Track=6 note_on channel=3 note=57 velocity=91 time=50
Time=5995 Track=6 note_on channel=3 note=62 velocity=113 time=0
Time=5995 Track=6 note_on channel=3 note=57 velocity=0 time=0
Time=5995 Track=6 note_on channel=3 note=60 velocity=0 time=0
Time=5995 Track=7 note_on channel=4 note=57 velocity=99 time=5
Time=5995 Track=7 note_on channel=4 note=62 velocity=107 time=0
Time=6000 Track=3 note_on channel=0 note=38 velocity=102 time=5
Time=6000 Track=4 note_on channel=1 note=38 velocity=101 time=5
Time=6000 Track=5 note_on channel=2 note=65 velocity=96 time=5
Time=6000 Track=5 note_on channel=2 note=65 velocity=0 time=0
Time=6000 Track=6 note_on channel=3 note=65 velocity=96 time=5
Time=6000 Track=6 note_on channel=3 note=65 velocity=0 time=0
Time=6000 Track=7 note_on channel=4 note=65 velocity=104 time=5
Time=6000 Track=11 note_on channel=9 note=36 velocity=120 time=15
Time=6000 Track=11 note_on channel=9 note=42 velocity=114 time=0
Time=6005 Track=7 note_on channel=4 note=65 velocity=0 time=5
Time=6005 Track=7 note_on channel=4 note=62 velocity=0 time=0
Time=6005 Track=7 note_on channel=4 note=57 velocity=0 time=0
Time=6025 Track=5 note_on channel=2 note=65 velocity=115 time=25
Time=6025 Track=5 note_on channel=2 note=65 velocity=0 time=0
Time=6025 Track=6 note_on channel=3 note=65 velocity=115 time=25
Time=6025 Track=6 note_on channel=3 note=65 velocity=0 time=0
Time=6025 Track=7 note_on channel=4 note=65 velocity=107 time=20
Time=6030 Track=5 note_on channel=2 note=62 velocity=94 time=5
Time=6030 Track=5 note_on channel=2 note=62 velocity=0 time=0
Time=6030 Track=6 note_on channel=3 note=62 velocity=94 time=5
Time=6030 Track=6 note_on channel=3 note=62 velocity=0 time=0
Time=6030 Track=7 note_on channel=4 note=62 velocity=102 time=5
Time=6035 Track=7 note_on channel=4 note=62 velocity=0 time=5
Time=6035 Track=7 note_on channel=4 note=65 velocity=0 time=0
Time=6040 Track=4 note_on channel=1 note=38 velocity=0 time=40
Time=6045 Track=3 note_on channel=0 note=38 velocity=0 time=45
Time=6045 Track=11 note_on channel=9 note=42 velocity=0 time=45
Time=6055 Track=7 note_on channel=4 note=65 velocity=78 time=20
Time=6055 Track=11 note_on channel=9 note=36 velocity=0 time=10
Time=6056 Track=7 note_on channel=4 note=65 velocity=0 time=1
Time=6060 Track=5 note_on channel=2 note=62 velocity=1 time=30
Time=6060 Track=5 note_on channel=2 note=65 velocity=0 time=0
Time=6060 Track=5 note_on channel=2 note=62 velocity=0 time=0
Time=6060 Track=5 note_on channel=2 note=57 velocity=0 time=0
Time=6060 Track=6 note_on channel=3 note=62 velocity=1 time=30
Time=6060 Track=6 note_on channel=3 note=65 velocity=0 time=0
Time=6060 Track=6 note_on channel=3 note=62 velocity=0 time=0
Time=6060 Track=6 note_on channel=3 note=57 velocity=0 time=0
Time=6060 Track=7 note_on channel=4 note=62 velocity=78 time=4
Time=6060 Track=11 note_on channel=9 note=42 velocity=94 time=5
Time=6061 Track=6 note_on channel=3 note=62 velocity=0 time=1
Time=6061 Track=7 note_on channel=4 note=62 velocity=0 time=1
Time=6065 Track=5 note_on channel=2 note=62 velocity=0 time=5
Time=6085 Track=7 note_on channel=4 note=65 velocity=76 time=24
Time=6086 Track=7 note_on channel=4 note=65 velocity=0 time=1
Time=6090 Track=5 note_on channel=2 note=65 velocity=1 time=25
Time=6090 Track=5 note_on channel=2 note=62 velocity=1 time=0
Time=6090 Track=6 note_on channel=3 note=65 velocity=1 time=29
Time=6090 Track=6 note_on channel=3 note=62 velocity=1 time=0
Time=6090 Track=7 note_on channel=4 note=62 velocity=76 time=4
Time=6091 Track=5 note_on channel=2 note=62 velocity=0 time=1
Time=6091 Track=5 note_on channel=2 note=65 velocity=0 time=0
Time=6091 Track=6 note_on channel=3 note=62 velocity=0 time=1
Time=6091 Track=6 note_on channel=3 note=65 velocity=0 time=0
Time=6091 Track=7 note_on channel=4 note=62 velocity=0 time=1
Time=6105 Track=11 note_on channel=9 note=42 velocity=0 time=45
Time=6110 Track=7 note_on channel=4 note=57 velocity=98 time=19
Time=6115 Track=5 note_on channel=2 note=57 velocity=90 time=24
Time=6115 Track=5 note_on channel=2 note=62 velocity=115 time=0
Time=6115 Track=6 note_on channel=3 note=57 velocity=90 time=24
Time=6115 Track=6 note_on channel=3 note=62 velocity=115 time=0
Time=6115 Track=7 note_on channel=4 note=62 velocity=107 time=0
Time=6115 Track=7 note_on channel=4 note=65 velocity=105 time=0
Time=6120 Track=5 note_on channel=2 note=65 velocity=97 time=5
Time=6120 Track=5 note_on channel=2 note=69 velocity=96 time=0
Time=6120 Track=6 note_on channel=3 note=65 velocity=97 time=5
Time=6120 Track=6 note_on channel=3 note=69 velocity=96 time=0
Time=6120 Track=7 note_on channel=4 note=69 velocity=104 time=5
Time=6120 Track=7 note_on channel=4 note=57 velocity=0 time=0
Time=6120 Track=11 note_on channel=9 note=36 velocity=119 time=15
Time=6120 Track=11 note_on channel=9 note=40 velocity=127 time=0
Time=6120 Track=11 note_on channel=9 note=42 velocity=126 time=0
Time=6125 Track=7 note_on channel=4 note=62 velocity=0 time=5
Time=6125 Track=7 note_on channel=4 note=65 velocity=0 time=0
Time=6125 Track=7 note_on channel=4 note=69 velocity=0 time=0
Time=6145 Track=5 note_on channel=2 note=65 velocity=118 time=25
Time=6145 Track=5 note_on channel=2 note=65 velocity=0 time=0
Time=6145 Track=6 note_on channel=3 note=65 velocity=118 time=25
Time=6145 Track=6 note_on channel=3 note=65 velocity=0 time=0
Time=6145 Track=7 note_on channel=4 note=65 velocity=107 time=20
Time=6150 Track=5 note_on channel=2 note=62 velocity=91 time=5
Time=6150 Track=5 note_on channel=2 note=62 velocity=0 time=0
Time=6150 Track=6 note_on channel=3 note=62 velocity=91 time=5
Time=6150 Track=6 note_on channel=3 note=62 velocity=0 time=0
Time=6150 Track=7 note_on channel=4 note=62 velocity=99 time=5
Time=6155 Track=7 note_on channel=4 note=62 velocity=0 time=5
Time=6155 Track=7 note_on channel=4 note=65 velocity=0 time=0
Time=6160 Track=5 note_on channel=2 note=57 velocity=0 time=10
Time=6160 Track=6 note_on channel=3 note=57 velocity=0 time=10
Time=6160 Track=11 note_on channel=9 note=42 velocity=0 time=40
Time=6170 Track=6 note_on channel=3 note=65 velocity=0 time=10
Time=6175 Track=5 note_on channel=2 note=65 velocity=0 time=15
Time=6175 Track=11 note_on channel=9 note=40 velocity=0 time=15
Time=6175 Track=11 note_on channel=9 note=36 velocity=0 time=0
Time=6180 Track=5 note_on channel=2 note=62 velocity=1 time=5
Time=6180 Track=5 note_on channel=2 note=65 velocity=1 time=0
Time=6180 Track=5 note_on channel=2 note=69 velocity=0 time=0
Time=6180 Track=5 note_on channel=2 note=62 velocity=0 time=0
Time=6180 Track=6 note_on channel=3 note=62 velocity=1 time=10
Time=6180 Track=6 note_on channel=3 note=65 velocity=1 time=0
Time=6180 Track=6 note_on channel=3 note=69 velocity=0 time=0
Time=6180 Track=6 note_on channel=3 note=62 velocity=0 time=0
Time=6180 Track=7 note_on channel=4 note=62 velocity=72 time=25
Time=6180 Track=7 note_on channel=4 note=65 velocity=72 time=0
Time=6180 Track=11 note_on channel=9 note=46 velocity=121 time=5
Time=6181 Track=5 note_on channel=2 note=65 velocity=0 time=1
Time=6181 Track=6 note_on channel=3 note=62 velocity=0 time=1
Time=6181 Track=6 note_on channel=3 note=65 velocity=0 time=0
Time=6181 Track=7 note_on channel=4 note=65 velocity=0 time=1
Time=6181 Track=7 note_on channel=4 note=62 velocity=0 time=0
Time=6185 Track=5 note_on channel=2 note=62 velocity=0 time=4
Time=6210 Track=5 note_on channel=2 note=65 velocity=1 time=25
Time=6210 Track=6 note_on channel=3 note=65 velocity=1 time=29
Time=6210 Track=7 note_on channel=4 note=65 velocity=71 time=29
Time=6210 Track=7 note_on channel=4 note=62 velocity=71 time=0
Time=6211 Track=5 note_on channel=2 note=65 velocity=0 time=1
Time=6211 Track=6 note_on channel=3 note=65 velocity=0 time=1
Time=6211 Track=7 note_on channel=4 note=62 velocity=0 time=1
Time=6211 Track=7 note_on channel=4 note=65 velocity=0 time=0
Time=6225 Track=11 note_on channel=9 note=46 velocity=0 time=45
Time=6230 Track=5 note_on channel=2 note=50 velocity=101 time=19
Time=6230 Track=6 note_on channel=3 note=50 velocity=101 time=19
Time=6235 Track=5 note_on channel=2 note=62 velocity=104 time=5
Time=6235 Track=5 note_on channel=2 note=57 velocity=91 time=0
Time=6235 Track=6 note_on channel=3 note=62 velocity=104 time=5
Time=6235 Track=6 note_on channel=3 note=57 velocity=91 time=0
Time=6240 Track=3 note_on channel=0 note=38 velocity=101 time=195
Time=6240 Track=4 note_on channel=1 note=38 velocity=100 time=200
Time=6240 Track=5 note_on channel=2 note=65 velocity=94 time=5
Time=6240 Track=6 note_on channel=3 note=65 velocity=94 time=5
Time=6240 Track=11 note_on channel=9 note=36 velocity=121 time=15
Time=6240 Track=11 note_on channel=9 note=42 velocity=112 time=0
Time=6245 Track=5 note_on channel=2 note=69 velocity=96 time=5
Time=6245 Track=6 note_on channel=3 note=69 velocity=96 time=5
Time=6275 Track=11 note_on channel=9 note=42 velocity=0 time=35
Time=6295 Track=11 note_on channel=9 note=36 velocity=0 time=20
Time=6300 Track=11 note_on channel=9 note=42 velocity=83 time=5
Time=6325 Track=5 note_on channel=2 note=65 velocity=108 time=80
Time=6325 Track=5 note_on channel=2 note=65 velocity=0 time=0
Time=6325 Track=6 note_on channel=3 note=65 velocity=108 time=80
Time=6325 Track=6 note_on channel=3 note=65 velocity=0 time=0
Time=6325 Track=7 note_on channel=4 note=65 velocity=107 time=0
Time=6330 Track=5 note_on channel=2 note=62 velocity=97 time=5
Time=6330 Track=5 note_on channel=2 note=62 velocity=0 time=0
Time=6330 Track=6 note_on channel=3 note=62 velocity=97 time=5
Time=6330 Track=6 note_on channel=3 note=62 velocity=0 time=0
Time=6330 Track=7 note_on channel=4 note=62 velocity=105 time=5
Time=6330 Track=7 note_on channel=4 note=65 velocity=0 time=0
Time=6335 Track=7 note_on channel=4 note=62 velocity=0 time=5
Time=6345 Track=11 note_on channel=9 note=42 velocity=0 time=45
Time=6350 Track=5 note_on channel=2 note=57 velocity=0 time=20
Time=6350 Track=6 note_on channel=3 note=57 velocity=0 time=20
Time=6350 Track=7 note_on channel=4 note=57 velocity=107 time=0
Time=6355 Track=4 note_on channel=1 note=38 velocity=0 time=115
Time=6355 Track=5 note_on channel=2 note=57 velocity=100 time=5
Time=6355 Track=5 note_on channel=2 note=62 velocity=108 time=0
Time=6355 Track=5 note_on channel=2 note=69 velocity=0 time=0
Time=6355 Track=5 note_on channel=2 note=62 velocity=0 time=0
Time=6355 Track=6 note_on channel=3 note=57 velocity=100 time=5
Time=6355 Track=6 note_on channel=3 note=62 velocity=108 time=0
Time=6355 Track=6 note_on channel=3 note=69 velocity=0 time=0
Time=6355 Track=6 note_on channel=3 note=62 velocity=0 time=0
Time=6355 Track=7 note_on channel=4 note=62 velocity=107 time=5
Time=6360 Track=3 note_on channel=0 note=38 velocity=0 time=120
Time=6360 Track=5 note_on channel=2 note=65 velocity=90 time=5
Time=6360 Track=5 note_on channel=2 note=65 velocity=0 time=0
Time=6360 Track=6 note_on channel=3 note=65 velocity=90 time=5
Time=6360 Track=6 note_on channel=3 note=65 velocity=0 time=0
Time=6360 Track=7 note_on channel=4 note=65 velocity=98 time=5
Time=6360 Track=7 note_on channel=4 note=57 velocity=0 time=0
Time=6360 Track=11 note_on channel=9 note=36 velocity=120 time=15
Time=6360 Track=11 note_on channel=9 note=40 velocity=127 time=0
Time=6360 Track=11 note_on channel=9 note=42 velocity=125 time=0
Time=6365 Track=7 note_on channel=4 note=65 velocity=0 time=5
Time=6365 Track=7 note_on channel=4 note=62 velocity=0 time=0
Time=6375 Track=5 note_on channel=2 note=50 velocity=0 time=15
Time=6375 Track=6 note_on channel=3 note=50 velocity=0 time=15
Time=6390 Track=5 note_on channel=2 note=57 velocity=0 time=15
Time=6390 Track=6 note_on channel=3 note=57 velocity=0 time=15
Time=6410 Track=5 note_on channel=2 note=57 velocity=89 time=20
Time=6410 Track=5 note_on channel=2 note=65 velocity=0 time=0
Time=6410 Track=6 note_on channel=3 note=57 velocity=89 time=20
Time=6410 Track=6 note_on channel=3 note=65 velocity=0 time=0
Time=6410 Track=11 note_on channel=9 note=42 velocity=0 time=50
Time=6415 Track=5 note_on channel=2 note=60 velocity=116 time=5
Time=6415 Track=6 note_on channel=3 note=60 velocity=116 time=5
Time=6415 Track=11 note_on channel=9 note=40 velocity=0 time=5
Time=6415 Track=11 note_on channel=9 note=36 velocity=0 time=0
Time=6420 Track=3 note_on channel=0 note=38 velocity=101 time=60
Time=6420 Track=4 note_on channel=1 note=38 velocity=99 time=65
Time=6420 Track=5 note_on channel=2 note=65 velocity=106 time=5
Time=6420 Track=6 note_on channel=3 note=65 velocity=106 time=5
Time=6420 Track=11 note_on channel=9 note=42 velocity=93 time=5
Time=6425 Track=5 note_on channel=2 note=62 velocity=0 time=5
Time=6425 Track=6 note_on channel=3 note=62 velocity=0 time=5
Time=6465 Track=3 note_on channel=0 note=38 velocity=0 time=45
Time=6465 Track=4 note_on channel=1 note=38 velocity=0 time=45
Time=6465 Track=11 note_on channel=9 note=42 velocity=0 time=45
Time=6475 Track=5 note_on channel=2 note=57 velocity=91 time=50
Time=6475 Track=5 note_on channel=2 note=62 velocity=113 time=0
Time=6475 Track=5 note_on channel=2 note=57 velocity=0 time=0
Time=6475 Track=5 note_on channel=2 note=60 velocity=0 time=0
Time=6475 Track=6 note_on channel=3 note=57 velocity=91 time=50
Time=6475 Track=6 note_on channel=3 note=62 velocity=113 time=0
Time=6475 Track=6 note_on channel=3 note=57 velocity=0 time=0
Time=6475 Track=6 note_on channel=3 note=60 velocity=0 time=0
Time=6475 Track=7 note_on channel=4 note=57 velocity=99 time=5
Time=6475 Track=7 note_on channel=4 note=62 velocity=107 time=0
Time=6480 Track=3 note_on channel=0 note=33 velocity=101 time=15
Time=6480 Track=4 note_on channel=1 note=33 velocity=99 time=15
Time=6480 Track=5 note_on channel=2 note=65 velocity=96 time=5
Time=6480 Track=5 note_on channel=2 note=65 velocity=0 time=0
Time=6480 Track=6 note_on channel=3 note=65 velocity=96 time=5
Time=6480 Track=6 note_on channel=3 note=65 velocity=0 time=0
Time=6480 Track=7 note_on channel=4 note=65 velocity=104 time=5
Time=6480 Track=11 note_on channel=9 note=36 velocity=120 time=15
Time=6480 Track=11 note_on channel=9 note=42 velocity=114 time=0
Time=6485 Track=7 note_on channel=4 note=65 velocity=0 time=5
Time=6485 Track=7 note_on channel=4 note=62 velocity=0 time=0
Time=6485 Track=7 note_on channel=4 note=57 velocity=0 time=0
Time=6505 Track=5 note_on channel=2 note=65 velocity=115 time=25
Time=6505 Track=5 note_on channel=2 note=65 velocity=0 time=0
Time=6505 Track=6 note_on channel=3 note=65 velocity=115 time=25
Time=6505 Track=6 note_on channel=3 note=65 velocity=0 time=0
Time=6505 Track=7 note_on channel=4 note=65 velocity=107 time=20
Time=6510 Track=5 note_on channel=2 note=62 velocity=94 time=5
Time=6510 Track=5 note_on channel=2 note=62 velocity=0 time=0
Time=6510 Track=6 note_on channel=3 note=62 velocity=94 time=5
Time=6510 Track=6 note_on channel=3 note=62 velocity=0 time=0
Time=6510 Track=7 note_on channel=4 note=62 velocity=102 time=5
Time=6515 Track=7 note_on channel=4 note=62 velocity=0 time=5
Time=6515 Track=7 note_on channel=4 note=65 velocity=0 time=0
Time=6525 Track=11 note_on channel=9 note=42 velocity=0 time=45
Time=6535 Track=7 note_on channel=4 note=65 velocity=78 time=20
Time=6535 Track=11 note_on channel=9 note=36 velocity=0 time=10
Time=6536 Track=7 note_on channel=4 note=65 velocity=0 time=1
Time=6540 Track=5 note_on channel=2 note=62 velocity=1 time=30
Time=6540 Track=5 note_on channel=2 note=65 velocity=0 time=0
Time=6540 Track=5 note_on channel=2 note=62 velocity=0 time=0
Time=6540 Track=5 note_on channel=2 note=57 velocity=0 time=0
Time=6540 Track=6 note_on channel=3 note=62 velocity=1 time=30
Time=6540 Track=6 note_on channel=3 note=65 velocity=0 time=0
Time=6540 Track=6 note_on channel=3 note=62 velocity=0 time=0
Time=6540 Track=6 note_on channel=3 note=57 velocity=0 time=0
Time=6540 Track=7 note_on channel=4 note=62 velocity=78 time=4
Time=6540 Track=11 note_on channel=9 note=42 velocity=94 time=5
Time=6541 Track=6 note_on channel=3 note=62 velocity=0 time=1
Time=6541 Track=7 note_on channel=4 note=62 velocity=0 time=1
Time=6545 Track=5 note_on channel=2 note=62 velocity=0 time=5
Time=6565 Track=7 note_on channel=4 note=65 velocity=76 time=24
Time=6566 Track=7 note_on channel=4 note=65 velocity=0 time=1
Time=6570 Track=5 note_on channel=2 note=65 velocity=1 time=25
Time=6570 Track=5 note_on channel=2 note=62 velocity=1 time=0
Time=6570 Track=6 note_on channel=3 note=65 velocity=1 time=29
Time=6570 Track=6 note_on channel=3 note=62 velocity=1 time=0
Time=6570 Track=7 note_on channel=4 note=62 velocity=76 time=4
Time=6571 Track=5 note_on channel=2 note=62 velocity=0 time=1
Time=6571 Track=5 note_on channel=2 note=65 velocity=0 time=0
Time=6571 Track=6 note_on channel=3 note=62 velocity=0 time=1
Time=6571 Track=6 note_on channel=3 note=65 velocity=0 time=0
Time=6571 Track=7 note_on channel=4 note=62 velocity=0 time=1
Time=6585 Track=11 note_on channel=9 note=42 velocity=0 time=45
Time=6590 Track=7 note_on channel=4 note=57 velocity=98 time=19
Time=6595 Track=4 note_on channel=1 note=33 velocity=0 time=115
Time=6595 Track=5 note_on channel=2 note=57 velocity=90 time=24
Time=6595 Track=5 note_on channel=2 note=62 velocity=115 time=0
Time=6595 Track=6 note_on channel=3 note=57 velocity=90 time=24
Time=6595 Track=6 note_on channel=3 note=62 velocity=115 time=0
Time=6595 Track=7 note_on channel=4 note=62 velocity=107 time=0
Time=6595 Track=7 note_on channel=4 note=65 velocity=105 time=0
Time=6600 Track=3 note_on channel=0 note=36 velocity=100 time=120
Time=6600 Track=3 note_on channel=0 note=33 velocity=0 time=0
Time=6600 Track=4 note_on channel=1 note=36 velocity=99 time=5
Time=6600 Track=5 note_on channel=2 note=65 velocity=97 time=5
Time=6600 Track=5 note_on channel=2 note=69 velocity=96 time=0
Time=6600 Track=6 note_on channel=3 note=65 velocity=97 time=5
Time=6600 Track=6 note_on channel=3 note=69 velocity=96 time=0
Time=6600 Track=7 note_on channel=4 note=69 velocity=104 time=5
Time=6600 Track=7 note_on channel=4 note=57 velocity=0 time=0
Time=6600 Track=11 note_on channel=9 note=36 velocity=119 time=15
Time=6600 Track=11 note_on channel=9 note=40 velocity=127 time=0
Time=6600 Track=11 note_on channel=9 note=42 velocity=126 time=0
Time=6605 Track=7 note_on channel=4 note=62 velocity=0 time=5
Time=6605 Track=7 note_on channel=4 note=65 velocity=0 time=0
Time=6605 Track=7 note_on channel=4 note=69 velocity=0 time=0
Time=6625 Track=5 note_on channel=2 note=65 velocity=118 time=25
Time=6625 Track=5 note_on channel=2 note=65 velocity=0 time=0
Time=6625 Track=6 note_on channel=3 note=65 velocity=118 time=25
Time=6625 Track=6 note_on channel=3 note=65 velocity=0 time=0
Time=6625 Track=7 note_on channel=4 note=65 velocity=107 time=20
Time=6630 Track=5 note_on channel=2 note=62 velocity=91 time=5
Time=6630 Track=5 note_on channel=2 note=62 velocity=0 time=0
Time=6630 Track=6 note_on channel=3 note=62 velocity=91 time=5
Time=6630 Track=6 note_on channel=3 note=62 velocity=0 time=0
Time=6630 Track=7 note_on channel=4 note=62 velocity=99 time=5
Time=6635 Track=7 note_on channel=4 note=62 velocity=0 time=5
Time=6635 Track=7 note_on channel=4 note=65 velocity=0 time=0
Time=6640 Track=5 note_on channel=2 note=57 velocity=0 time=10
Time=6640 Track=6 note_on channel=3 note=57 velocity=0 time=10
Time=6640 Track=11 note_on channel=9 note=42 velocity=0 time=40
Time=6650 Track=6 note_on channel=3 note=65 velocity=0 time=10
Time=6655 Track=5 note_on channel=2 note=65 velocity=0 time=15
Time=6655 Track=11 note_on channel=9 note=40 velocity=0 time=15
Time=6655 Track=11 note_on channel=9 note=36 velocity=0 time=0
Time=6660 Track=5 note_on channel=2 note=62 velocity=1 time=5
Time=6660 Track=5 note_on channel=2 note=65 velocity=1 time=0
Time=6660 Track=5 note_on channel=2 note=69 velocity=0 time=0
Time=6660 Track=5 note_on channel=2 note=62 velocity=0 time=0
Time=6660 Track=6 note_on channel=3 note=62 velocity=1 time=10
Time=6660 Track=6 note_on channel=3 note=65 velocity=1 time=0
Time=6660 Track=6 note_on channel=3 note=69 velocity=0 time=0
Time=6660 Track=6 note_on channel=3 note=62 velocity=0 time=0
Time=6660 Track=7 note_on channel=4 note=62 velocity=72 time=25
Time=6660 Track=7 note_on channel=4 note=65 velocity=72 time=0
Time=6660 Track=11 note_on channel=9 note=46 velocity=121 time=5
Time=6661 Track=5 note_on channel=2 note=65 velocity=0 time=1
Time=6661 Track=6 note_on channel=3 note=62 velocity=0 time=1
Time=6661 Track=6 note_on channel=3 note=65 velocity=0 time=0
Time=6661 Track=7 note_on channel=4 note=65 velocity=0 time=1
Time=6661 Track=7 note_on channel=4 note=62 velocity=0 time=0
Time=6665 Track=5 note_on channel=2 note=62 velocity=0 time=4
Time=6690 Track=5 note_on channel=2 note=65 velocity=1 time=25
Time=6690 Track=6 note_on channel=3 note=65 velocity=1 time=29
Time=6690 Track=7 note_on channel=4 note=65 velocity=71 time=29
Time=6690 Track=7 note_on channel=4 note=62 velocity=71 time=0
Time=6691 Track=5 note_on channel=2 note=65 velocity=0 time=1
Time=6691 Track=6 note_on channel=3 note=65 velocity=0 time=1
Time=6691 Track=7 note_on channel=4 note=62 velocity=0 time=1
Time=6691 Track=7 note_on channel=4 note=65 velocity=0 time=0
Time=6705 Track=11 note_on channel=9 note=46 velocity=0 time=45
Time=6710 Track=5 note_on channel=2 note=50 velocity=101 time=19
Time=6710 Track=6 note_on channel=3 note=50 velocity=101 time=19
Time=6715 Track=3 note_on channel=0 note=36 velocity=0 time=115
Time=6715 Track=4 note_on channel=1 note=36 velocity=0 time=115
Time=6715 Track=5 note_on channel=2 note=62 velocity=104 time=5
Time=6715 Track=5 note_on channel=2 note=57 velocity=91 time=0
Time=6715 Track=6 note_on channel=3 note=62 velocity=104 time=5
Time=6715 Track=6 note_on channel=3 note=57 velocity=91 time=0
Time=6715 Track=12 note_on channel=10 note=53 velocity=0 time=1255
Time=6720 Track=3 note_on channel=0 note=38 velocity=103 time=5
Time=6720 Track=4 note_on channel=1 note=38 velocity=101 time=5
Time=6720 Track=5 note_on channel=2 note=65 velocity=94 time=0
Time=6720 Track=6 note_on channel=3 note=65 velocity=94 time=5
Time=6720 Track=11 note_on channel=9 note=36 velocity=121 time=15
Time=6720 Track=11 note_on channel=9 note=42 velocity=112 time=0
Time=6720 Track=12 note_on channel=10 note=50 velocity=108 time=5
Time=6725 Track=5 note_on channel=2 note=69 velocity=96 time=5
Time=6725 Track=6 note_on channel=3 note=69 velocity=96 time=5
Time=6755 Track=11 note_on channel=9 note=42 velocity=0 time=35
Time=6775 Track=11 note_on channel=9 note=36 velocity=0 time=20
Time=6780 Track=11 note_on channel=9 note=42 velocity=83 time=5
Time=6805 Track=5 note_on channel=2 note=65 velocity=108 time=0
Time=6805 Track=5 note_on channel=2 note=65 velocity=0 time=0
Time=6805 Track=6 note_on channel=3 note=65 velocity=108 time=80
Time=6805 Track=6 note_on channel=3 note=65 velocity=0 time=0
Time=6805 Track=7 note_on channel=4 note=65 velocity=107 time=0
Time=6810 Track=5 note_on channel=2 note=62 velocity=97 time=5
Time=6810 Track=5 note_on channel=2 note=62 velocity=0 time=0
Time=6810 Track=6 note_on channel=3 note=62 velocity=97 time=5
Time=6810 Track=6 note_on channel=3 note=62 velocity=0 time=0
Time=6810 Track=7 note_on channel=4 note=62 velocity=105 time=5
Time=6810 Track=7 note_on channel=4 note=65 velocity=0 time=0
Time=6815 Track=7 note_on channel=4 note=62 velocity=0 time=5
Time=6825 Track=11 note_on channel=9 note=42 velocity=0 time=45
Time=6830 Track=5 note_on channel=2 note=57 velocity=0 time=0
Time=6830 Track=6 note_on channel=3 note=57 velocity=0 time=20
Time=6830 Track=7 note_on channel=4 note=57 velocity=107 time=0
Time=6835 Track=4 note_on channel=1 note=38 velocity=0 time=115
Time=6835 Track=5 note_on channel=2 note=57 velocity=100 time=5
Time=6835 Track=5 note_on channel=2 note=62 velocity=108 time=0
Time=6835 Track=5 note_on channel=2 note=69 velocity=0 time=0
Time=6835 Track=5 note_on channel=2 note=62 velocity=0 time=0
Time=6835 Track=6 note_on channel=3 note=57 velocity=100 time=5
Time=6835 Track=6 note_on channel=3 note=62 velocity=108 time=0
Time=6835 Track=6 note_on channel=3 note=69 velocity=0 time=0
Time=6835 Track=6 note_on channel=3 note=62 velocity=0 time=0
Time=6835 Track=7 note_on channel=4 note=62 velocity=107 time=5
Time=6835 Track=12 note_on channel=10 note=50 velocity=0 time=115
Time=6840 Track=3 note_on channel=0 note=38 velocity=0 time=120
Time=6840 Track=5 note_on channel=2 note=65 velocity=90 time=5
Time=6840 Track=5 note_on channel=2 note=65 velocity=0 time=0
Time=6840 Track=6 note_on channel=3 note=65 velocity=90 time=5
Time=6840 Track=6 note_on channel=3 note=65 velocity=0 time=0
Time=6840 Track=7 note_on channel=4 note=65 velocity=98 time=5
Time=6840 Track=7 note_on channel=4 note=57 velocity=0 time=0
Time=6840 Track=11 note_on channel=9 note=36 velocity=120 time=15
Time=6840 Track=11 note_on channel=9 note=40 velocity=127 time=0
Time=6840 Track=11 note_on channel=9 note=42 velocity=125 time=0
Time=6840 Track=12 note_on channel=10 note=52 velocity=108 time=5
Time=6845 Track=7 note_on channel=4 note=65 velocity=0 time=5
Time=6845 Track=7 note_on channel=4 note=62 velocity=0 time=0
Time=6855 Track=5 note_on channel=2 note=50 velocity=0 time=15
Time=6855 Track=6 note_on channel=3 note=50 velocity=0 time=15
Time=6870 Track=5 note_on channel=2 note=57 velocity=0 time=15
Time=6870 Track=6 note_on channel=3 note=57 velocity=0 time=15
Time=6890 Track=5 note_on channel=2 note=57 velocity=89 time=20
Time=6890 Track=5 note_on channel=2 note=65 velocity=0 time=0
Time=6890 Track=6 note_on channel=3 note=57 velocity=89 time=20
Time=6890 Track=6 note_on channel=3 note=65 velocity=0 time=0
Time=6890 Track=11 note_on channel=9 note=42 velocity=0 time=50
Time=6895 Track=5 note_on channel=2 note=60 velocity=116 time=5
Time=6895 Track=6 note_on channel=3 note=60 velocity=116 time=5
Time=6895 Track=11 note_on channel=9 note=40 velocity=0 time=5
Time=6895 Track=11 note_on channel=9 note=36 velocity=0 time=0
Time=6895 Track=12 note_on channel=10 note=52 velocity=0 time=55
Time=6900 Track=3 note_on channel=0 note=36 velocity=102 time=60
Time=6900 Track=4 note_on channel=1 note=36 velocity=101 time=65
Time=6900 Track=5 note_on channel=2 note=65 velocity=106 time=0
Time=6900 Track=6 note_on channel=3 note=65 velocity=106 time=5
Time=6900 Track=11 note_on channel=9 note=42 velocity=93 time=5
Time=6900 Track=12 note_on channel=10 note=53 velocity=108 time=5
Time=6905 Track=5 note_on channel=2 note=62 velocity=0 time=5
Time=6905 Track=6 note_on channel=3 note=62 velocity=0 time=5
Time=6945 Track=11 note_on channel=9 note=42 velocity=0 time=45
Time=6955 Track=3 note_on channel=0 note=36 velocity=0 time=55
Time=6955 Track=4 note_on channel=1 note=36 velocity=0 time=55
Time=6955 Track=5 note_on channel=2 note=57 velocity=91 time=0
Time=6955 Track=5 note_on channel=2 note=62 velocity=113 time=0
Time=6955 Track=5 note_on channel=2 note=57 velocity=0 time=0
Time=6955 Track=5 note_on channel=2 note=60 velocity=0 time=0
Time=6955 Track=6 note_on channel=3 note=57 velocity=91 time=50
Time=6955 Track=6 note_on channel=3 note=62 velocity=113 time=0
Time=6955 Track=6 note_on channel=3 note=57 velocity=0 time=0
Time=6955 Track=6 note_on channel=3 note=60 velocity=0 time=0
Time=6955 Track=7 note_on channel=4 note=57 velocity=99 time=5
Time=6955 Track=7 note_on channel=4 note=62 velocity=107 time=0
Time=6960 Track=3 note_on channel=0 note=38 velocity=102 time=5
Time=6960 Track=4 note_on channel=1 note=38 velocity=101 time=5
Time=6960 Track=5 note_on channel=2 note=65 velocity=96 time=5
Time=6960 Track=5 note_on channel=2 note=65 velocity=0 time=0
Time=6960 Track=6 note_on channel=3 note=65 velocity=96 time=5
Time=6960 Track=6 note_on channel=3 note=65 velocity=0 time=0
Time=6960 Track=7 note_on channel=4 note=65 velocity=104 time=5
Time=6960 Track=11 note_on channel=9 note=36 velocity=120 time=15
Time=6960 Track=11 note_on channel=9 note=42 velocity=114 time=0
Time=6965 Track=7 note_on channel=4 note=65 velocity=0 time=5
Time=6965 Track=7 note_on channel=4 note=62 velocity=0 time=0
Time=6965 Track=7 note_on channel=4 note=57 velocity=0 time=0
Time=6990 Track=5 note_on channel=2 note=62 velocity=0 time=5
Time=6990 Track=6 note_on channel=3 note=62 velocity=0 time=30
Time=7000 Track=4 note_on channel=1 note=38 velocity=0 time=40
Time=7005 Track=3 note_on channel=0 note=38 velocity=0 time=45
Time=7005 Track=11 note_on channel=9 note=42 velocity=0 time=45
Time=7015 Track=7 note_on channel=4 note=65 velocity=78 time=30
Time=7015 Track=11 note_on channel=9 note=36 velocity=0 time=10
Time=7015 Track=12 note_on channel=10 note=53 velocity=0 time=115
Time=7016 Track=7 note_on channel=4 note=65 velocity=0 time=1
Time=7020 Track=5 note_on channel=2 note=57 velocity=0 time=30
Time=7020 Track=5 note_on channel=2 note=65 velocity=0 time=0
Time=7020 Track=6 note_on channel=3 note=57 velocity=0 time=30
Time=7020 Track=6 note_on channel=3 note=65 velocity=0 time=0
Time=7020 Track=7 note_on channel=4 note=62 velocity=78 time=4
Time=7020 Track=11 note_on channel=9 note=42 velocity=94 time=5
Time=7020 Track=12 note_on channel=10 note=52 velocity=108 time=5
Time=7021 Track=7 note_on channel=4 note=62 velocity=0 time=1
Time=7045 Track=7 note_on channel=4 note=65 velocity=76 time=24
Time=7046 Track=7 note_on channel=4 note=65 velocity=0 time=1
Time=7050 Track=7 note_on channel=4 note=62 velocity=76 time=4
Time=7051 Track=7 note_on channel=4 note=62 velocity=0 time=1
Time=7065 Track=11 note_on channel=9 note=42 velocity=0 time=45
Time=7070 Track=7 note_on channel=4 note=57 velocity=98 time=19
Time=7075 Track=5 note_on channel=2 note=57 velocity=90 time=55
Time=7075 Track=5 note_on channel=2 note=62 velocity=115 time=0
Time=7075 Track=6 note_on channel=3 note=57 velocity=90 time=55
Time=7075 Track=6 note_on channel=3 note=62 velocity=115 time=0
Time=7075 Track=7 note_on channel=4 note=62 velocity=107 time=0
Time=7075 Track=7 note_on channel=4 note=65 velocity=105 time=0
Time=7080 Track=5 note_on channel=2 note=65 velocity=97 time=5
Time=7080 Track=5 note_on channel=2 note=69 velocity=96 time=0
Time=7080 Track=6 note_on channel=3 note=65 velocity=97 time=5
Time=7080 Track=6 note_on channel=3 note=69 velocity=96 time=0
Time=7080 Track=7 note_on channel=4 note=69 velocity=104 time=5
Time=7080 Track=7 note_on channel=4 note=57 velocity=0 time=0
Time=7080 Track=11 note_on channel=9 note=36 velocity=119 time=15
Time=7080 Track=11 note_on channel=9 note=40 velocity=127 time=0
Time=7080 Track=11 note_on channel=9 note=42 velocity=126 time=0
Time=7085 Track=7 note_on channel=4 note=62 velocity=0 time=5
Time=7085 Track=7 note_on channel=4 note=65 velocity=0 time=0
Time=7085 Track=7 note_on channel=4 note=69 velocity=0 time=0
Time=7110 Track=5 note_on channel=2 note=65 velocity=0 time=0
Time=7110 Track=6 note_on channel=3 note=65 velocity=0 time=30
Time=7110 Track=6 note_on channel=3 note=62 velocity=0 time=0
Time=7115 Track=5 note_on channel=2 note=62 velocity=0 time=5
Time=7120 Track=5 note_on channel=2 note=57 velocity=0 time=5
Time=7120 Track=6 note_on channel=3 note=57 velocity=0 time=10
Time=7120 Track=11 note_on channel=9 note=42 velocity=0 time=40
Time=7135 Track=11 note_on channel=9 note=40 velocity=0 time=15
Time=7135 Track=11 note_on channel=9 note=36 velocity=0 time=0
Time=7140 Track=5 note_on channel=2 note=69 velocity=0 time=20
Time=7140 Track=6 note_on channel=3 note=69 velocity=0 time=20
Time=7140 Track=7 note_on channel=4 note=62 velocity=72 time=30
Time=7140 Track=7 note_on channel=4 note=65 velocity=72 time=0
Time=7140 Track=11 note_on channel=9 note=46 velocity=121 time=5
Time=7141 Track=7 note_on channel=4 note=65 velocity=0 time=1
Time=7141 Track=7 note_on channel=4 note=62 velocity=0 time=0
Time=7170 Track=7 note_on channel=4 note=65 velocity=71 time=29
Time=7170 Track=7 note_on channel=4 note=62 velocity=71 time=0
Time=7171 Track=7 note_on channel=4 note=62 velocity=0 time=1
Time=7171 Track=7 note_on channel=4 note=65 velocity=0 time=0
Time=7185 Track=11 note_on channel=9 note=46 velocity=0 time=45
Time=7190 Track=5 note_on channel=2 note=50 velocity=101 time=50
Time=7190 Track=6 note_on channel=3 note=50 velocity=101 time=50
Time=7195 Track=5 note_on channel=2 note=62 velocity=104 time=5
Time=7195 Track=5 note_on channel=2 note=57 velocity=91 time=0
Time=7195 Track=6 note_on channel=3 note=62 velocity=104 time=5
Time=7195 Track=6 note_on channel=3 note=57 velocity=91 time=0
Time=7195 Track=12 note_on channel=10 note=52 velocity=0 time=175
Time=7200 Track=3 note_on channel=0 note=38 velocity=101 time=195
Time=7200 Track=4 note_on channel=1 note=38 velocity=100 time=200
Time=7200 Track=5 note_on channel=2 note=65 velocity=94 time=5
Time=7200 Track=6 note_on channel=3 note=65 velocity=94 time=5
Time=7200 Track=11 note_on channel=9 note=36 velocity=121 time=15
Time=7200 Track=11 note_on channel=9 note=42 velocity=112 time=0
Time=7200 Track=12 note_on channel=10 note=50 velocity=108 time=5
Time=7205 Track=5 note_on channel=2 note=69 velocity=96 time=5
Time=7205 Track=6 note_on channel=3 note=69 velocity=96 time=5
Time=7235 Track=11 note_on channel=9 note=42 velocity=0 time=35
Time=7255 Track=11 note_on channel=9 note=36 velocity=0 time=20
Time=7260 Track=11 note_on channel=9 note=42 velocity=83 time=5
Time=7280 Track=5 note_on channel=2 note=65 velocity=0 time=0
Time=7280 Track=6 note_on channel=3 note=65 velocity=0 time=75
Time=7285 Track=5 note_on channel=2 note=65 velocity=108 time=0
Time=7285 Track=5 note_on channel=2 note=62 velocity=0 time=0
Time=7285 Track=6 note_on channel=3 note=65 velocity=108 time=5
Time=7285 Track=6 note_on channel=3 note=62 velocity=0 time=0
Time=7285 Track=7 note_on channel=4 note=65 velocity=107 time=0
Time=7290 Track=5 note_on channel=2 note=62 velocity=97 time=5
Time=7290 Track=6 note_on channel=3 note=62 velocity=97 time=5
Time=7290 Track=7 note_on channel=4 note=62 velocity=105 time=5
Time=7290 Track=7 note_on channel=4 note=65 velocity=0 time=0
Time=7295 Track=7 note_on channel=4 note=62 velocity=0 time=5
Time=7305 Track=11 note_on channel=9 note=42 velocity=0 time=45
Time=7310 Track=5 note_on channel=2 note=57 velocity=100 time=0
Time=7310 Track=5 note_on channel=2 note=57 velocity=0 time=0
Time=7310 Track=6 note_on channel=3 note=57 velocity=100 time=20
Time=7310 Track=6 note_on channel=3 note=57 velocity=0 time=0
Time=7310 Track=7 note_on channel=4 note=57 velocity=107 time=0
Time=7315 Track=4 note_on channel=1 note=38 velocity=0 time=115
Time=7315 Track=5 note_on channel=2 note=62 velocity=108 time=5
Time=7315 Track=5 note_on channel=2 note=62 velocity=0 time=0
Time=7315 Track=5 note_on channel=2 note=65 velocity=0 time=0
Time=7315 Track=5 note_on channel=2 note=69 velocity=0 time=0
Time=7315 Track=6 note_on channel=3 note=62 velocity=108 time=5
Time=7315 Track=6 note_on channel=3 note=62 velocity=0 time=0
Time=7315 Track=6 note_on channel=3 note=65 velocity=0 time=0
Time=7315 Track=6 note_on channel=3 note=69 velocity=0 time=0
Time=7315 Track=7 note_on channel=4 note=62 velocity=107 time=5
Time=7320 Track=3 note_on channel=0 note=38 velocity=0 time=120
Time=7320 Track=5 note_on channel=2 note=65 velocity=90 time=5
Time=7320 Track=6 note_on channel=3 note=65 velocity=90 time=5
Time=7320 Track=7 note_on channel=4 note=65 velocity=98 time=5
Time=7320 Track=7 note_on channel=4 note=57 velocity=0 time=0
Time=7320 Track=11 note_on channel=9 note=36 velocity=120 time=15
Time=7320 Track=11 note_on channel=9 note=40 velocity=127 time=0
Time=7320 Track=11 note_on channel=9 note=42 velocity=125 time=0
Time=7320 Track=12 note_on channel=10 note=52 velocity=108 time=120
Time=7320 Track=12 note_on channel=10 note=50 velocity=0 time=0
Time=7325 Track=7 note_on channel=4 note=65 velocity=0 time=5
Time=7325 Track=7 note_on channel=4 note=62 velocity=0 time=0
Time=7330 Track=6 note_on channel=3 note=50 velocity=0 time=10
Time=7335 Track=5 note_on channel=2 note=50 velocity=0 time=15
Time=7345 Track=6 note_on channel=3 note=57 velocity=0 time=15
Time=7350 Track=5 note_on channel=2 note=57 velocity=0 time=15
Time=7365 Track=6 note_on channel=3 note=65 velocity=0 time=20
Time=7370 Track=5 note_on channel=2 note=57 velocity=89 time=20
Time=7370 Track=5 note_on channel=2 note=60 velocity=116 time=0
Time=7370 Track=5 note_on channel=2 note=65 velocity=0 time=0
Time=7370 Track=6 note_on channel=3 note=57 velocity=89 time=5
Time=7370 Track=6 note_on channel=3 note=60 velocity=116 time=0
Time=7370 Track=11 note_on channel=9 note=42 velocity=0 time=50
Time=7375 Track=11 note_on channel=9 note=40 velocity=0 time=5
Time=7375 Track=11 note_on channel=9 note=36 velocity=0 time=0
Time=7375 Track=12 note_on channel=10 note=52 velocity=0 time=55
Time=7380 Track=3 note_on channel=0 note=38 velocity=101 time=60
Time=7380 Track=4 note_on channel=1 note=38 velocity=99 time=65
Time=7380 Track=5 note_on channel=2 note=65 velocity=106 time=5
Time=7380 Track=6 note_on channel=3 note=65 velocity=106 time=10
Time=7380 Track=6 note_on channel=3 note=62 velocity=0 time=0
Time=7380 Track=11 note_on channel=9 note=42 velocity=93 time=5
Time=7380 Track=12 note_on channel=10 note=53 velocity=108 time=5
Time=7385 Track=5 note_on channel=2 note=62 velocity=0 time=5
Time=7425 Track=3 note_on channel=0 note=38 velocity=0 time=45
Time=7425 Track=4 note_on channel=1 note=38 velocity=0 time=45
Time=7425 Track=11 note_on channel=9 note=42 velocity=0 time=45
Time=7435 Track=5 note_on channel=2 note=57 velocity=91 time=5
Time=7435 Track=5 note_on channel=2 note=62 velocity=113 time=0
Time=7435 Track=5 note_on channel=2 note=60 velocity=0 time=0
Time=7435 Track=5 note_on channel=2 note=65 velocity=0 time=0
Time=7435 Track=5 note_on channel=2 note=57 velocity=0 time=0
Time=7435 Track=6 note_on channel=3 note=57 velocity=91 time=55
Time=7435 Track=6 note_on channel=3 note=62 velocity=113 time=0
Time=7435 Track=6 note_on channel=3 note=57 velocity=0 time=0
Time=7435 Track=6 note_on channel=3 note=65 velocity=0 time=0
Time=7435 Track=6 note_on channel=3 note=60 velocity=0 time=0
Time=7435 Track=7 note_on channel=4 note=57 velocity=99 time=5
Time=7435 Track=7 note_on channel=4 note=62 velocity=107 time=0
Time=7440 Track=3 note_on channel=0 note=33 velocity=101 time=15
Time=7440 Track=4 note_on channel=1 note=33 velocity=99 time=15
Time=7440 Track=5 note_on channel=2 note=65 velocity=96 time=5
Time=7440 Track=6 note_on channel=3 note=65 velocity=96 time=5
Time=7440 Track=7 note_on channel=4 note=65 velocity=104 time=5
Time=7440 Track=11 note_on channel=9 note=36 velocity=120 time=15
Time=7440 Track=11 note_on channel=9 note=42 velocity=114 time=0
Time=7445 Track=7 note_on channel=4 note=65 velocity=0 time=5
Time=7445 Track=7 note_on channel=4 note=62 velocity=0 time=0
Time=7445 Track=7 note_on channel=4 note=57 velocity=0 time=0
Time=7470 Track=5 note_on channel=2 note=62 velocity=0 time=5
Time=7470 Track=6 note_on channel=3 note=62 velocity=0 time=30
Time=7485 Track=11 note_on channel=9 note=42 velocity=0 time=45
Time=7495 Track=5 note_on channel=2 note=65 velocity=0 time=25
Time=7495 Track=6 note_on channel=3 note=65 velocity=0 time=25
Time=7495 Track=7 note_on channel=4 note=65 velocity=78 time=30
Time=7495 Track=11 note_on channel=9 note=36 velocity=0 time=10
Time=7496 Track=7 note_on channel=4 note=65 velocity=0 time=1
Time=7500 Track=5 note_on channel=2 note=57 velocity=0 time=5
Time=7500 Track=6 note_on channel=3 note=57 velocity=0 time=5
Time=7500 Track=7 note_on channel=4 note=62 velocity=78 time=4
Time=7500 Track=11 note_on channel=9 note=42 velocity=94 time=5
Time=7500 Track=12 note_on channel=10 note=52 velocity=97 time=120
Time=7500 Track=12 note_on channel=10 note=53 velocity=0 time=0
Time=7501 Track=7 note_on channel=4 note=62 velocity=0 time=1
Time=7525 Track=7 note_on channel=4 note=65 velocity=76 time=24
Time=7526 Track=7 note_on channel=4 note=65 velocity=0 time=1
Time=7530 Track=7 note_on channel=4 note=62 velocity=76 time=4
Time=7531 Track=7 note_on channel=4 note=62 velocity=0 time=1
Time=7545 Track=11 note_on channel=9 note=42 velocity=0 time=45
Time=7550 Track=5 note_on channel=2 note=57 velocity=90 time=50
Time=7550 Track=6 note_on channel=3 note=57 velocity=90 time=50
Time=7550 Track=7 note_on channel=4 note=57 velocity=98 time=19
Time=7555 Track=4 note_on channel=1 note=33 velocity=0 time=115
Time=7555 Track=5 note_on channel=2 note=62 velocity=115 time=0
Time=7555 Track=5 note_on channel=2 note=65 velocity=97 time=0
Time=7555 Track=6 note_on channel=3 note=62 velocity=115 time=5
Time=7555 Track=6 note_on channel=3 note=65 velocity=97 time=0
Time=7555 Track=7 note_on channel=4 note=62 velocity=107 time=0
Time=7555 Track=7 note_on channel=4 note=65 velocity=105 time=0
Time=7560 Track=3 note_on channel=0 note=36 velocity=100 time=120
Time=7560 Track=3 note_on channel=0 note=33 velocity=0 time=0
Time=7560 Track=4 note_on channel=1 note=36 velocity=99 time=5
Time=7560 Track=5 note_on channel=2 note=69 velocity=96 time=5
Time=7560 Track=6 note_on channel=3 note=69 velocity=96 time=5
Time=7560 Track=7 note_on channel=4 note=69 velocity=104 time=5
Time=7560 Track=7 note_on channel=4 note=57 velocity=0 time=0
Time=7560 Track=11 note_on channel=9 note=36 velocity=119 time=15
Time=7560 Track=11 note_on channel=9 note=40 velocity=127 time=0
Time=7560 Track=11 note_on channel=9 note=42 velocity=126 time=0
Time=7565 Track=7 note_on channel=4 note=62 velocity=0 time=5
Time=7565 Track=7 note_on channel=4 note=65 velocity=0 time=0
Time=7565 Track=7 note_on channel=4 note=69 velocity=0 time=0
Time=7585 Track=5 note_on channel=2 note=65 velocity=0 time=25
Time=7585 Track=6 note_on channel=3 note=65 velocity=0 time=25
Time=7590 Track=5 note_on channel=2 note=62 velocity=0 time=0
Time=7590 Track=6 note_on channel=3 note=62 velocity=0 time=5
Time=7600 Track=5 note_on channel=2 note=57 velocity=0 time=10
Time=7600 Track=6 note_on channel=3 note=57 velocity=0 time=10
Time=7600 Track=11 note_on channel=9 note=42 velocity=0 time=40
Time=7615 Track=6 note_on channel=3 note=69 velocity=0 time=15
Time=7615 Track=11 note_on channel=9 note=40 velocity=0 time=15
Time=7615 Track=11 note_on channel=9 note=36 velocity=0 time=0
Time=7620 Track=5 note_on channel=2 note=69 velocity=0 time=20
Time=7620 Track=7 note_on channel=4 note=62 velocity=72 time=30
Time=7620 Track=7 note_on channel=4 note=65 velocity=72 time=0
Time=7620 Track=11 note_on channel=9 note=46 velocity=121 time=5
Time=7621 Track=7 note_on channel=4 note=65 velocity=0 time=1
Time=7621 Track=7 note_on channel=4 note=62 velocity=0 time=0
Time=7650 Track=7 note_on channel=4 note=65 velocity=71 time=29
Time=7650 Track=7 note_on channel=4 note=62 velocity=71 time=0
Time=7651 Track=7 note_on channel=4 note=62 velocity=0 time=1
Time=7651 Track=7 note_on channel=4 note=65 velocity=0 time=0
Time=7665 Track=11 note_on channel=9 note=46 velocity=0 time=45
Time=7670 Track=5 note_on channel=2 note=50 velocity=101 time=50
Time=7670 Track=6 note_on channel=3 note=50 velocity=101 time=55
Time=7675 Track=3 note_on channel=0 note=36 velocity=0 time=115
Time=7675 Track=4 note_on channel=1 note=36 velocity=0 time=115
Time=7675 Track=5 note_on channel=2 note=62 velocity=104 time=5
Time=7675 Track=5 note_on channel=2 note=57 velocity=91 time=0
Time=7675 Track=6 note_on channel=3 note=62 velocity=104 time=5
Time=7675 Track=6 note_on channel=3 note=57 velocity=91 time=0
Time=7680 Track=3 note_on channel=0 note=38 velocity=103 time=5
Time=7680 Track=4 note_on channel=1 note=38 velocity=101 time=5
Time=7680 Track=5 note_on channel=2 note=65 velocity=94 time=5
Time=7680 Track=6 note_on channel=3 note=65 velocity=94 time=5
Time=7680 Track=11 note_on channel=9 note=36 velocity=121 time=15
Time=7680 Track=11 note_on channel=9 note=42 velocity=112 time=0
Time=7685 Track=5 note_on channel=2 note=69 velocity=96 time=5
Time=7685 Track=6 note_on channel=3 note=69 velocity=96 time=5
Time=7715 Track=11 note_on channel=9 note=42 velocity=0 time=35
Time=7735 Track=11 note_on channel=9 note=36 velocity=0 time=20
Time=7740 Track=11 note_on channel=9 note=42 velocity=83 time=5
Time=7765 Track=5 note_on channel=2 note=65 velocity=108 time=80
Time=7765 Track=5 note_on channel=2 note=65 velocity=0 time=0
Time=7765 Track=6 note_on channel=3 note=65 velocity=108 time=80
Time=7765 Track=6 note_on channel=3 note=65 velocity=0 time=0
Time=7765 Track=7 note_on channel=4 note=65 velocity=107 time=0
Time=7770 Track=5 note_on channel=2 note=62 velocity=97 time=5
Time=7770 Track=5 note_on channel=2 note=62 velocity=0 time=0
Time=7770 Track=6 note_on channel=3 note=62 velocity=97 time=5
Time=7770 Track=6 note_on channel=3 note=62 velocity=0 time=0
Time=7770 Track=7 note_on channel=4 note=62 velocity=105 time=5
Time=7770 Track=7 note_on channel=4 note=65 velocity=0 time=0
Time=7775 Track=7 note_on channel=4 note=62 velocity=0 time=5
Time=7785 Track=11 note_on channel=9 note=42 velocity=0 time=45
Time=7790 Track=5 note_on channel=2 note=57 velocity=0 time=20
Time=7790 Track=6 note_on channel=3 note=57 velocity=0 time=20
Time=7790 Track=7 note_on channel=4 note=57 velocity=107 time=0
Time=7795 Track=4 note_on channel=1 note=38 velocity=0 time=115
Time=7795 Track=5 note_on channel=2 note=57 velocity=100 time=5
Time=7795 Track=5 note_on channel=2 note=62 velocity=108 time=0
Time=7795 Track=5 note_on channel=2 note=69 velocity=0 time=0
Time=7795 Track=5 note_on channel=2 note=62 velocity=0 time=0
Time=7795 Track=6 note_on channel=3 note=57 velocity=100 time=5
Time=7795 Track=6 note_on channel=3 note=62 velocity=108 time=0
Time=7795 Track=6 note_on channel=3 note=69 velocity=0 time=0
Time=7795 Track=6 note_on channel=3 note=62 velocity=0 time=0
Time=7795 Track=7 note_on channel=4 note=62 velocity=107 time=5
Time=7800 Track=3 note_on channel=0 note=38 velocity=0 time=120
Time=7800 Track=5 note_on channel=2 note=65 velocity=90 time=5
Time=7800 Track=5 note_on channel=2 note=65 velocity=0 time=0
Time=7800 Track=6 note_on channel=3 note=65 velocity=90 time=5
Time=7800 Track=6 note_on channel=3 note=65 velocity=0 time=0
Time=7800 Track=7 note_on channel=4 note=65 velocity=98 time=5
Time=7800 Track=7 note_on channel=4 note=57 velocity=0 time=0
Time=7800 Track=11 note_on channel=9 note=36 velocity=120 time=15
Time=7800 Track=11 note_on channel=9 note=40 velocity=127 time=0
Time=7800 Track=11 note_on channel=9 note=42 velocity=125 time=0
Time=7805 Track=7 note_on channel=4 note=65 velocity=0 time=5
Time=7805 Track=7 note_on channel=4 note=62 velocity=0 time=0
Time=7815 Track=5 note_on channel=2 note=50 velocity=0 time=15
Time=7815 Track=6 note_on channel=3 note=50 velocity=0 time=15
Time=7830 Track=5 note_on channel=2 note=57 velocity=0 time=15
Time=7830 Track=6 note_on channel=3 note=57 velocity=0 time=15
Time=7850 Track=5 note_on channel=2 note=57 velocity=89 time=20
Time=7850 Track=5 note_on channel=2 note=65 velocity=0 time=0
Time=7850 Track=6 note_on channel=3 note=57 velocity=89 time=20
Time=7850 Track=6 note_on channel=3 note=65 velocity=0 time=0
Time=7850 Track=11 note_on channel=9 note=42 velocity=0 time=50
Time=7855 Track=5 note_on channel=2 note=60 velocity=116 time=5
Time=7855 Track=6 note_on channel=3 note=60 velocity=116 time=5
Time=7855 Track=11 note_on channel=9 note=40 velocity=0 time=5
Time=7855 Track=11 note_on channel=9 note=36 velocity=0 time=0
Time=7860 Track=3 note_on channel=0 note=36 velocity=102 time=60
Time=7860 Track=4 note_on channel=1 note=36 velocity=101 time=65
Time=7860 Track=5 note_on channel=2 note=65 velocity=106 time=5
Time=7860 Track=6 note_on channel=3 note=65 velocity=106 time=5
Time=7860 Track=11 note_on channel=9 note=42 velocity=93 time=5
Time=7865 Track=5 note_on channel=2 note=62 velocity=0 time=5
Time=7865 Track=6 note_on channel=3 note=62 velocity=0 time=5
Time=7905 Track=11 note_on channel=9 note=42 velocity=0 time=45
Time=7915 Track=3 note_on channel=0 note=36 velocity=0 time=55
Time=7915 Track=4 note_on channel=1 note=36 velocity=0 time=55
Time=7915 Track=5 note_on channel=2 note=57 velocity=91 time=50
Time=7915 Track=5 note_on channel=2 note=62 velocity=113 time=0
Time=7915 Track=5 note_on channel=2 note=57 velocity=0 time=0
Time=7915 Track=5 note_on channel=2 note=60 velocity=0 time=0
Time=7915 Track=6 note_on channel=3 note=57 velocity=91 time=50
Time=7915 Track=6 note_on channel=3 note=62 velocity=113 time=0
Time=7915 Track=6 note_on channel=3 note=57 velocity=0 time=0
Time=7915 Track=6 note_on channel=3 note=60 velocity=0 time=0
Time=7915 Track=7 note_on channel=4 note=57 velocity=99 time=5
Time=7915 Track=7 note_on channel=4 note=62 velocity=107 time=0
Time=7920 Track=3 note_on channel=0 note=38 velocity=102 time=5
Time=7920 Track=4 note_on channel=1 note=38 velocity=101 time=5
Time=7920 Track=5 note_on channel=2 note=65 velocity=96 time=5
Time=7920 Track=5 note_on channel=2 note=65 velocity=0 time=0
Time=7920 Track=6 note_on channel=3 note=65 velocity=96 time=5
Time=7920 Track=6 note_on channel=3 note=65 velocity=0 time=0
Time=7920 Track=7 note_on channel=4 note=65 velocity=104 time=5
Time=7920 Track=11 note_on channel=9 note=36 velocity=120 time=15
Time=7920 Track=11 note_on channel=9 note=42 velocity=114 time=0
Time=7925 Track=7 note_on channel=4 note=65 velocity=0 time=5
Time=7925 Track=7 note_on channel=4 note=62 velocity=0 time=0
Time=7925 Track=7 note_on channel=4 note=57 velocity=0 time=0
Time=7945 Track=5 note_on channel=2 note=65 velocity=115 time=25
Time=7945 Track=5 note_on channel=2 note=65 velocity=0 time=0
Time=7945 Track=6 note_on channel=3 note=65 velocity=115 time=25
Time=7945 Track=6 note_on channel=3 note=65 velocity=0 time=0
Time=7945 Track=7 note_on channel=4 note=65 velocity=107 time=20
Time=7950 Track=5 note_on channel=2 note=62 velocity=94 time=5
Time=7950 Track=5 note_on channel=2 note=62 velocity=0 time=0
Time=7950 Track=6 note_on channel=3 note=62 velocity=94 time=5
Time=7950 Track=6 note_on channel=3 note=62 velocity=0 time=0
Time=7950 Track=7 note_on channel=4 note=62 velocity=102 time=5
Time=7955 Track=7 note_on channel=4 note=62 velocity=0 time=5
Time=7955 Track=7 note_on channel=4 note=65 velocity=0 time=0
Time=7960 Track=4 note_on channel=1 note=38 velocity=0 time=40
Time=7965 Track=3 note_on channel=0 note=38 velocity=0 time=45
Time=7965 Track=11 note_on channel=9 note=42 velocity=0 time=45
Time=7975 Track=7 note_on channel=4 note=65 velocity=78 time=20
Time=7975 Track=11 note_on channel=9 note=36 velocity=0 time=10
Time=7976 Track=7 note_on channel=4 note=65 velocity=0 time=1
Time=7980 Track=5 note_on channel=2 note=62 velocity=1 time=30
Time=7980 Track=5 note_on channel=2 note=65 velocity=0 time=0
Time=7980 Track=5 note_on channel=2 note=62 velocity=0 time=0
Time=7980 Track=5 note_on channel=2 note=57 velocity=0 time=0
Time=7980 Track=6 note_on channel=3 note=62 velocity=1 time=30
Time=7980 Track=6 note_on channel=3 note=65 velocity=0 time=0
Time=7980 Track=6 note_on channel=3 note=62 velocity=0 time=0
Time=7980 Track=6 note_on channel=3 note=57 velocity=0 time=0
Time=7980 Track=7 note_on channel=4 note=62 velocity=78 time=4
Time=7980 Track=11 note_on channel=9 note=42 velocity=94 time=5
Time=7981 Track=6 note_on channel=3 note=62 velocity=0 time=1
Time=7981 Track=7 note_on channel=4 note=62 velocity=0 time=1
Time=7985 Track=5 note_on channel=2 note=62 velocity=0 time=5
Time=8005 Track=7 note_on channel=4 note=65 velocity=76 time=24
Time=8006 Track=7 note_on channel=4 note=65 velocity=0 time=1
Time=8010 Track=5 note_on channel=2 note=65 velocity=1 time=25
Time=8010 Track=5 note_on channel=2 note=62 velocity=1 time=0
Time=8010 Track=6 note_on channel=3 note=65 velocity=1 time=29
Time=8010 Track=6 note_on channel=3 note=62 velocity=1 time=0
Time=8010 Track=7 note_on channel=4 note=62 velocity=76 time=4
Time=8011 Track=5 note_on channel=2 note=62 velocity=0 time=1
Time=8011 Track=5 note_on channel=2 note=65 velocity=0 time=0
Time=8011 Track=6 note_on channel=3 note=62 velocity=0 time=1
Time=8011 Track=6 note_on channel=3 note=65 velocity=0 time=0
Time=8011 Track=7 note_on channel=4 note=62 velocity=0 time=1
Time=8025 Track=11 note_on channel=9 note=42 velocity=0 time=45
Time=8030 Track=7 note_on channel=4 note=57 velocity=98 time=19
Time=8035 Track=5 note_on channel=2 note=57 velocity=90 time=24
Time=8035 Track=5 note_on channel=2 note=62 velocity=115 time=0
Time=8035 Track=6 note_on channel=3 note=57 velocity=90 time=24
Time=8035 Track=6 note_on channel=3 note=62 velocity=115 time=0
Time=8035 Track=7 note_on channel=4 note=62 velocity=107 time=0
Time=8035 Track=7 note_on channel=4 note=65 velocity=105 time=0
Time=8040 Track=5 note_on channel=2 note=65 velocity=97 time=5
Time=8040 Track=5 note_on channel=2 note=69 velocity=96 time=0
Time=8040 Track=6 note_on channel=3 note=65 velocity=97 time=5
Time=8040 Track=6 note_on channel=3 note=69 velocity=96 time=0
Time=8040 Track=7 note_on channel=4 note=69 velocity=104 time=5
Time=8040 Track=7 note_on channel=4 note=57 velocity=0 time=0
Time=8040 Track=11 note_on channel=9 note=36 velocity=119 time=15
Time=8040 Track=11 note_on channel=9 note=40 velocity=127 time=0
Time=8040 Track=11 note_on channel=9 note=42 velocity=126 time=0
Time=8045 Track=7 note_on channel=4 note=62 velocity=0 time=5
Time=8045 Track=7 note_on channel=4 note=65 velocity=0 time=0
Time=8045 Track=7 note_on channel=4 note=69 velocity=0 time=0
Time=8065 Track=5 note_on channel=2 note=65 velocity=118 time=25
Time=8065 Track=5 note_on channel=2 note=65 velocity=0 time=0
Time=8065 Track=6 note_on channel=3 note=65 velocity=118 time=25
Time=8065 Track=6 note_on channel=3 note=65 velocity=0 time=0
Time=8065 Track=7 note_on channel=4 note=65 velocity=107 time=20
Time=8070 Track=5 note_on channel=2 note=62 velocity=91 time=5
Time=8070 Track=5 note_on channel=2 note=62 velocity=0 time=0
Time=8070 Track=6 note_on channel=3 note=62 velocity=91 time=5
Time=8070 Track=6 note_on channel=3 note=62 velocity=0 time=0
Time=8070 Track=7 note_on channel=4 note=62 velocity=99 time=5
Time=8075 Track=7 note_on channel=4 note=62 velocity=0 time=5
Time=8075 Track=7 note_on channel=4 note=65 velocity=0 time=0
Time=8080 Track=5 note_on channel=2 note=57 velocity=0 time=10
Time=8080 Track=6 note_on channel=3 note=57 velocity=0 time=10
Time=8080 Track=11 note_on channel=9 note=42 velocity=0 time=40
Time=8090 Track=6 note_on channel=3 note=65 velocity=0 time=10
Time=8095 Track=5 note_on channel=2 note=65 velocity=0 time=15
Time=8095 Track=11 note_on channel=9 note=40 velocity=0 time=15
Time=8095 Track=11 note_on channel=9 note=36 velocity=0 time=0
Time=8100 Track=5 note_on channel=2 note=62 velocity=1 time=5
Time=8100 Track=5 note_on channel=2 note=65 velocity=1 time=0
Time=8100 Track=5 note_on channel=2 note=69 velocity=0 time=0
Time=8100 Track=5 note_on channel=2 note=62 velocity=0 time=0
Time=8100 Track=6 note_on channel=3 note=62 velocity=1 time=10
Time=8100 Track=6 note_on channel=3 note=65 velocity=1 time=0
Time=8100 Track=6 note_on channel=3 note=69 velocity=0 time=0
Time=8100 Track=6 note_on channel=3 note=62 velocity=0 time=0
Time=8100 Track=7 note_on channel=4 note=62 velocity=72 time=25
Time=8100 Track=7 note_on channel=4 note=65 velocity=72 time=0
Time=8100 Track=11 note_on channel=9 note=46 velocity=121 time=5
Time=8101 Track=5 note_on channel=2 note=65 velocity=0 time=1
Time=8101 Track=6 note_on channel=3 note=62 velocity=0 time=1
Time=8101 Track=6 note_on channel=3 note=65 velocity=0 time=0
Time=8101 Track=7 note_on channel=4 note=65 velocity=0 time=1
Time=8101 Track=7 note_on channel=4 note=62 velocity=0 time=0
Time=8105 Track=5 note_on channel=2 note=62 velocity=0 time=4
Time=8130 Track=5 note_on channel=2 note=65 velocity=1 time=25
Time=8130 Track=6 note_on channel=3 note=65 velocity=1 time=29
Time=8130 Track=7 note_on channel=4 note=65 velocity=71 time=29
Time=8130 Track=7 note_on channel=4 note=62 velocity=71 time=0
Time=8131 Track=5 note_on channel=2 note=65 velocity=0 time=1
Time=8131 Track=6 note_on channel=3 note=65 velocity=0 time=1
Time=8131 Track=7 note_on channel=4 note=62 velocity=0 time=1
Time=8131 Track=7 note_on channel=4 note=65 velocity=0 time=0
Time=8145 Track=11 note_on channel=9 note=46 velocity=0 time=45
Time=8150 Track=5 note_on channel=2 note=50 velocity=101 time=19
Time=8150 Track=6 note_on channel=3 note=50 velocity=101 time=19
Time=8155 Track=5 note_on channel=2 note=62 velocity=104 time=5
Time=8155 Track=5 note_on channel=2 note=57 velocity=91 time=0
Time=8155 Track=6 note_on channel=3 note=62 velocity=104 time=5
Time=8155 Track=6 note_on channel=3 note=57 velocity=91 time=0
Time=8160 Track=3 note_on channel=0 note=38 velocity=101 time=195
Time=8160 Track=4 note_on channel=1 note=38 velocity=100 time=200
Time=8160 Track=5 note_on channel=2 note=65 velocity=94 time=5
Time=8160 Track=6 note_on channel=3 note=65 velocity=94 time=5
Time=8160 Track=11 note_on channel=9 note=36 velocity=121 time=15
Time=8160 Track=11 note_on channel=9 note=42 velocity=112 time=0
Time=8165 Track=5 note_on channel=2 note=69 velocity=96 time=5
Time=8165 Track=6 note_on channel=3 note=69 velocity=96 time=5
Time=8195 Track=11 note_on channel=9 note=42 velocity=0 time=35
Time=8215 Track=11 note_on channel=9 note=36 velocity=0 time=20
Time=8220 Track=11 note_on channel=9 note=42 velocity=83 time=5
Time=8245 Track=5 note_on channel=2 note=65 velocity=108 time=80
Time=8245 Track=5 note_on channel=2 note=65 velocity=0 time=0
Time=8245 Track=6 note_on channel=3 note=65 velocity=108 time=80
Time=8245 Track=6 note_on channel=3 note=65 velocity=0 time=0
Time=8245 Track=7 note_on channel=4 note=65 velocity=107 time=0
Time=8250 Track=5 note_on channel=2 note=62 velocity=97 time=5
Time=8250 Track=5 note_on channel=2 note=62 velocity=0 time=0
Time=8250 Track=6 note_on channel=3 note=62 velocity=97 time=5
Time=8250 Track=6 note_on channel=3 note=62 velocity=0 time=0
Time=8250 Track=7 note_on channel=4 note=62 velocity=105 time=5
Time=8250 Track=7 note_on channel=4 note=65 velocity=0 time=0
Time=8255 Track=7 note_on channel=4 note=62 velocity=0 time=5
Time=8265 Track=11 note_on channel=9 note=42 velocity=0 time=45
Time=8270 Track=5 note_on channel=2 note=57 velocity=0 time=20
Time=8270 Track=6 note_on channel=3 note=57 velocity=0 time=20
Time=8270 Track=7 note_on channel=4 note=57 velocity=107 time=0
Time=8275 Track=4 note_on channel=1 note=38 velocity=0 time=115
Time=8275 Track=5 note_on channel=2 note=57 velocity=100 time=5
Time=8275 Track=5 note_on channel=2 note=62 velocity=108 time=0
Time=8275 Track=5 note_on channel=2 note=69 velocity=0 time=0
Time=8275 Track=5 note_on channel=2 note=62 velocity=0 time=0
Time=8275 Track=6 note_on channel=3 note=57 velocity=100 time=5
Time=8275 Track=6 note_on channel=3 note=62 velocity=108 time=0
Time=8275 Track=6 note_on channel=3 note=69 velocity=0 time=0
Time=8275 Track=6 note_on channel=3 note=62 velocity=0 time=0
Time=8275 Track=7 note_on channel=4 note=62 velocity=107 time=5
Time=8280 Track=3 note_on channel=0 note=38 velocity=0 time=120
Time=8280 Track=5 note_on channel=2 note=65 velocity=90 time=5
Time=8280 Track=5 note_on channel=2 note=65 velocity=0 time=0
Time=8280 Track=6 note_on channel=3 note=65 velocity=90 time=5
Time=8280 Track=6 note_on channel=3 note=65 velocity=0 time=0
Time=8280 Track=7 note_on channel=4 note=65 velocity=98 time=5
Time=8280 Track=7 note_on channel=4 note=57 velocity=0 time=0
Time=8280 Track=11 note_on channel=9 note=36 velocity=120 time=15
Time=8280 Track=11 note_on channel=9 note=40 velocity=127 time=0
Time=8280 Track=11 note_on channel=9 note=42 velocity=125 time=0
Time=8285 Track=7 note_on channel=4 note=65 velocity=0 time=5
Time=8285 Track=7 note_on channel=4 note=62 velocity=0 time=0
Time=8295 Track=5 note_on channel=2 note=50 velocity=0 time=15
Time=8295 Track=6 note_on channel=3 note=50 velocity=0 time=15
Time=8310 Track=5 note_on channel=2 note=57 velocity=0 time=15
Time=8310 Track=6 note_on channel=3 note=57 velocity=0 time=15
Time=8330 Track=5 note_on channel=2 note=57 velocity=89 time=20
Time=8330 Track=5 note_on channel=2 note=65 velocity=0 time=0
Time=8330 Track=6 note_on channel=3 note=57 velocity=89 time=20
Time=8330 Track=6 note_on channel=3 note=65 velocity=0 time=0
Time=8330 Track=11 note_on channel=9 note=42 velocity=0 time=50
Time=8335 Track=5 note_on channel=2 note=60 velocity=116 time=5
Time=8335 Track=6 note_on channel=3 note=60 velocity=116 time=5
Time=8335 Track=11 note_on channel=9 note=40 velocity=0 time=5
Time=8335 Track=11 note_on channel=9 note=36 velocity=0 time=0
Time=8340 Track=3 note_on channel=0 note=38 velocity=101 time=60
Time=8340 Track=4 note_on channel=1 note=38 velocity=99 time=65
Time=8340 Track=5 note_on channel=2 note=65 velocity=106 time=5
Time=8340 Track=6 note_on channel=3 note=65 velocity=106 time=5
Time=8340 Track=11 note_on channel=9 note=42 velocity=93 time=5
Time=8345 Track=5 note_on channel=2 note=62 velocity=0 time=5
Time=8345 Track=6 note_on channel=3 note=62 velocity=0 time=5
Time=8385 Track=3 note_on channel=0 note=38 velocity=0 time=45
Time=8385 Track=4 note_on channel=1 note=38 velocity=0 time=45
Time=8385 Track=11 note_on channel=9 note=42 velocity=0 time=45
Time=8395 Track=5 note_on channel=2 note=57 velocity=91 time=50
Time=8395 Track=5 note_on channel=2 note=62 velocity=113 time=0
Time=8395 Track=5 note_on channel=2 note=57 velocity=0 time=0
Time=8395 Track=5 note_on channel=2 note=60 velocity=0 time=0
Time=8395 Track=6 note_on channel=3 note=57 velocity=91 time=50
Time=8395 Track=6 note_on channel=3 note=62 velocity=113 time=0
Time=8395 Track=6 note_on channel=3 note=57 velocity=0 time=0
Time=8395 Track=6 note_on channel=3 note=60 velocity=0 time=0
Time=8395 Track=7 note_on channel=4 note=57 velocity=99 time=5
Time=8395 Track=7 note_on channel=4 note=62 velocity=107 time=0
Time=8400 Track=3 note_on channel=0 note=33 velocity=101 time=15
Time=8400 Track=4 note_on channel=1 note=33 velocity=99 time=15
Time=8400 Track=5 note_on channel=2 note=65 velocity=96 time=5
Time=8400 Track=5 note_on channel=2 note=65 velocity=0 time=0
Time=8400 Track=6 note_on channel=3 note=65 velocity=96 time=5
Time=8400 Track=6 note_on channel=3 note=65 velocity=0 time=0
Time=8400 Track=7 note_on channel=4 note=65 velocity=104 time=5
Time=8400 Track=11 note_on channel=9 note=36 velocity=120 time=15
Time=8400 Track=11 note_on channel=9 note=42 velocity=114 time=0
Time=8405 Track=7 note_on channel=4 note=65 velocity=0 time=5
Time=8405 Track=7 note_on channel=4 note=62 velocity=0 time=0
Time=8405 Track=7 note_on channel=4 note=57 velocity=0 time=0
Time=8425 Track=5 note_on channel=2 note=65 velocity=115 time=25
Time=8425 Track=5 note_on channel=2 note=65 velocity=0 time=0
Time=8425 Track=6 note_on channel=3 note=65 velocity=115 time=25
Time=8425 Track=6 note_on channel=3 note=65 velocity=0 time=0
Time=8425 Track=7 note_on channel=4 note=65 velocity=107 time=20
Time=8430 Track=5 note_on channel=2 note=62 velocity=94 time=5
Time=8430 Track=5 note_on channel=2 note=62 velocity=0 time=0
Time=8430 Track=6 note_on channel=3 note=62 velocity=94 time=5
Time=8430 Track=6 note_on channel=3 note=62 velocity=0 time=0
Time=8430 Track=7 note_on channel=4 note=62 velocity=102 time=5
Time=8435 Track=7 note_on channel=4 note=62 velocity=0 time=5
Time=8435 Track=7 note_on channel=4 note=65 velocity=0 time=0
Time=8445 Track=11 note_on channel=9 note=42 velocity=0 time=45
Time=8455 Track=7 note_on channel=4 note=65 velocity=78 time=20
Time=8455 Track=11 note_on channel=9 note=36 velocity=0 time=10
Time=8456 Track=7 note_on channel=4 note=65 velocity=0 time=1
Time=8460 Track=5 note_on channel=2 note=62 velocity=1 time=30
Time=8460 Track=5 note_on channel=2 note=65 velocity=0 time=0
Time=8460 Track=5 note_on channel=2 note=62 velocity=0 time=0
Time=8460 Track=5 note_on channel=2 note=57 velocity=0 time=0
Time=8460 Track=6 note_on channel=3 note=62 velocity=1 time=30
Time=8460 Track=6 note_on channel=3 note=65 velocity=0 time=0
Time=8460 Track=6 note_on channel=3 note=62 velocity=0 time=0
Time=8460 Track=6 note_on channel=3 note=57 velocity=0 time=0
Time=8460 Track=7 note_on channel=4 note=62 velocity=78 time=4
Time=8460 Track=11 note_on channel=9 note=42 velocity=94 time=5
Time=8461 Track=6 note_on channel=3 note=62 velocity=0 time=1
Time=8461 Track=7 note_on channel=4 note=62 velocity=0 time=1
Time=8465 Track=5 note_on channel=2 note=62 velocity=0 time=5
Time=8485 Track=7 note_on channel=4 note=65 velocity=76 time=24
Time=8486 Track=7 note_on channel=4 note=65 velocity=0 time=1
Time=8490 Track=5 note_on channel=2 note=65 velocity=1 time=25
Time=8490 Track=5 note_on channel=2 note=62 velocity=1 time=0
Time=8490 Track=6 note_on channel=3 note=65 velocity=1 time=29
Time=8490 Track=6 note_on channel=3 note=62 velocity=1 time=0
Time=8490 Track=7 note_on channel=4 note=62 velocity=76 time=4
Time=8491 Track=5 note_on channel=2 note=62 velocity=0 time=1
Time=8491 Track=5 note_on channel=2 note=65 velocity=0 time=0
Time=8491 Track=6 note_on channel=3 note=62 velocity=0 time=1
Time=8491 Track=6 note_on channel=3 note=65 velocity=0 time=0
Time=8491 Track=7 note_on channel=4 note=62 velocity=0 time=1
Time=8505 Track=11 note_on channel=9 note=42 velocity=0 time=45
Time=8510 Track=7 note_on channel=4 note=57 velocity=98 time=19
Time=8515 Track=4 note_on channel=1 note=33 velocity=0 time=115
Time=8515 Track=5 note_on channel=2 note=57 velocity=90 time=24
Time=8515 Track=5 note_on channel=2 note=62 velocity=115 time=0
Time=8515 Track=6 note_on channel=3 note=57 velocity=90 time=24
Time=8515 Track=6 note_on channel=3 note=62 velocity=115 time=0
Time=8515 Track=7 note_on channel=4 note=62 velocity=107 time=0
Time=8515 Track=7 note_on channel=4 note=65 velocity=105 time=0
Time=8520 Track=3 note_on channel=0 note=36 velocity=100 time=120
Time=8520 Track=3 note_on channel=0 note=33 velocity=0 time=0
Time=8520 Track=4 note_on channel=1 note=36 velocity=99 time=5
Time=8520 Track=5 note_on channel=2 note=65 velocity=97 time=5
Time=8520 Track=5 note_on channel=2 note=69 velocity=96 time=0
Time=8520 Track=6 note_on channel=3 note=65 velocity=97 time=5
Time=8520 Track=6 note_on channel=3 note=69 velocity=96 time=0
Time=8520 Track=7 note_on channel=4 note=69 velocity=104 time=5
Time=8520 Track=7 note_on channel=4 note=57 velocity=0 time=0
Time=8520 Track=11 note_on channel=9 note=36 velocity=119 time=15
Time=8520 Track=11 note_on channel=9 note=40 velocity=127 time=0
Time=8520 Track=11 note_on channel=9 note=42 velocity=126 time=0
Time=8525 Track=7 note_on channel=4 note=62 velocity=0 time=5
Time=8525 Track=7 note_on channel=4 note=65 velocity=0 time=0
Time=8525 Track=7 note_on channel=4 note=69 velocity=0 time=0
Time=8545 Track=5 note_on channel=2 note=65 velocity=118 time=25
Time=8545 Track=5 note_on channel=2 note=65 velocity=0 time=0
Time=8545 Track=6 note_on channel=3 note=65 velocity=118 time=25
Time=8545 Track=6 note_on channel=3 note=65 velocity=0 time=0
Time=8545 Track=7 note_on channel=4 note=65 velocity=107 time=20
Time=8550 Track=5 note_on channel=2 note=62 velocity=91 time=5
Time=8550 Track=5 note_on channel=2 note=62 velocity=0 time=0
Time=8550 Track=6 note_on channel=3 note=62 velocity=91 time=5
Time=8550 Track=6 note_on channel=3 note=62 velocity=0 time=0
Time=8550 Track=7 note_on channel=4 note=62 velocity=99 time=5
Time=8555 Track=7 note_on channel=4 note=62 velocity=0 time=5
Time=8555 Track=7 note_on channel=4 note=65 velocity=0 time=0
Time=8560 Track=5 note_on channel=2 note=57 velocity=0 time=10
Time=8560 Track=6 note_on channel=3 note=57 velocity=0 time=10
Time=8560 Track=11 note_on channel=9 note=42 velocity=0 time=40
Time=8570 Track=6 note_on channel=3 note=65 velocity=0 time=10
Time=8575 Track=5 note_on channel=2 note=65 velocity=0 time=15
Time=8575 Track=11 note_on channel=9 note=40 velocity=0 time=15
Time=8575 Track=11 note_on channel=9 note=36 velocity=0 time=0
Time=8580 Track=5 note_on channel=2 note=62 velocity=1 time=5
Time=8580 Track=5 note_on channel=2 note=65 velocity=1 time=0
Time=8580 Track=5 note_on channel=2 note=69 velocity=0 time=0
Time=8580 Track=5 note_on channel=2 note=62 velocity=0 time=0
Time=8580 Track=6 note_on channel=3 note=62 velocity=1 time=10
Time=8580 Track=6 note_on channel=3 note=65 velocity=1 time=0
Time=8580 Track=6 note_on channel=3 note=69 velocity=0 time=0
Time=8580 Track=6 note_on channel=3 note=62 velocity=0 time=0
Time=8580 Track=7 note_on channel=4 note=62 velocity=72 time=25
Time=8580 Track=7 note_on channel=4 note=65 velocity=72 time=0
Time=8580 Track=11 note_on channel=9 note=46 velocity=121 time=5
Time=8581 Track=5 note_on channel=2 note=65 velocity=0 time=1
Time=8581 Track=6 note_on channel=3 note=62 velocity=0 time=1
Time=8581 Track=6 note_on channel=3 note=65 velocity=0 time=0
Time=8581 Track=7 note_on channel=4 note=65 velocity=0 time=1
Time=8581 Track=7 note_on channel=4 note=62 velocity=0 time=0
Time=8585 Track=5 note_on channel=2 note=62 velocity=0 time=4
Time=8610 Track=5 note_on channel=2 note=65 velocity=1 time=25
Time=8610 Track=6 note_on channel=3 note=65 velocity=1 time=29
Time=8610 Track=7 note_on channel=4 note=65 velocity=71 time=29
Time=8610 Track=7 note_on channel=4 note=62 velocity=71 time=0
Time=8611 Track=5 note_on channel=2 note=65 velocity=0 time=1
Time=8611 Track=6 note_on channel=3 note=65 velocity=0 time=1
Time=8611 Track=7 note_on channel=4 note=62 velocity=0 time=1
Time=8611 Track=7 note_on channel=4 note=65 velocity=0 time=0
Time=8625 Track=11 note_on channel=9 note=46 velocity=0 time=45
Time=8630 Track=5 note_on channel=2 note=50 velocity=101 time=19
Time=8630 Track=6 note_on channel=3 note=50 velocity=101 time=19
Time=8635 Track=3 note_on channel=0 note=36 velocity=0 time=115
Time=8635 Track=4 note_on channel=1 note=36 velocity=0 time=115
Time=8635 Track=5 note_on channel=2 note=62 velocity=104 time=5
Time=8635 Track=5 note_on channel=2 note=57 velocity=91 time=0
Time=8635 Track=6 note_on channel=3 note=62 velocity=104 time=5
Time=8635 Track=6 note_on channel=3 note=57 velocity=91 time=0
Time=8635 Track=12 note_on channel=10 note=52 velocity=0 time=1135
Time=8640 Track=3 note_on channel=0 note=38 velocity=103 time=5
Time=8640 Track=4 note_on channel=1 note=38 velocity=101 time=5
Time=8640 Track=5 note_on channel=2 note=65 velocity=94 time=0
Time=8640 Track=6 note_on channel=3 note=65 velocity=94 time=5
Time=8640 Track=11 note_on channel=9 note=36 velocity=121 time=15
Time=8640 Track=11 note_on channel=9 note=42 velocity=112 time=0
Time=8640 Track=12 note_on channel=10 note=50 velocity=107 time=5
Time=8645 Track=5 note_on channel=2 note=69 velocity=96 time=5
Time=8645 Track=6 note_on channel=3 note=69 velocity=96 time=5
Time=8675 Track=11 note_on channel=9 note=42 velocity=0 time=35
Time=8695 Track=11 note_on channel=9 note=36 velocity=0 time=20
Time=8700 Track=11 note_on channel=9 note=42 velocity=83 time=5
Time=8725 Track=5 note_on channel=2 note=65 velocity=108 time=0
Time=8725 Track=5 note_on channel=2 note=65 velocity=0 time=0
Time=8725 Track=6 note_on channel=3 note=65 velocity=108 time=80
Time=8725 Track=6 note_on channel=3 note=65 velocity=0 time=0
Time=8725 Track=7 note_on channel=4 note=65 velocity=107 time=0
Time=8730 Track=5 note_on channel=2 note=62 velocity=97 time=5
Time=8730 Track=5 note_on channel=2 note=62 velocity=0 time=0
Time=8730 Track=6 note_on channel=3 note=62 velocity=97 time=5
Time=8730 Track=6 note_on channel=3 note=62 velocity=0 time=0
Time=8730 Track=7 note_on channel=4 note=62 velocity=105 time=5
Time=8730 Track=7 note_on channel=4 note=65 velocity=0 time=0
Time=8735 Track=7 note_on channel=4 note=62 velocity=0 time=5
Time=8745 Track=11 note_on channel=9 note=42 velocity=0 time=45
Time=8750 Track=5 note_on channel=2 note=57 velocity=0 time=0
Time=8750 Track=6 note_on channel=3 note=57 velocity=0 time=20
Time=8750 Track=7 note_on channel=4 note=57 velocity=107 time=0
Time=8755 Track=4 note_on channel=1 note=38 velocity=0 time=115
Time=8755 Track=5 note_on channel=2 note=57 velocity=100 time=5
Time=8755 Track=5 note_on channel=2 note=62 velocity=108 time=0
Time=8755 Track=5 note_on channel=2 note=69 velocity=0 time=0
Time=8755 Track=5 note_on channel=2 note=62 velocity=0 time=0
Time=8755 Track=6 note_on channel=3 note=57 velocity=100 time=5
Time=8755 Track=6 note_on channel=3 note=62 velocity=108 time=0
Time=8755 Track=6 note_on channel=3 note=69 velocity=0 time=0
Time=8755 Track=6 note_on channel=3 note=62 velocity=0 time=0
Time=8755 Track=7 note_on channel=4 note=62 velocity=107 time=5
Time=8755 Track=12 note_on channel=10 note=50 velocity=0 time=115
Time=8760 Track=3 note_on channel=0 note=38 velocity=0 time=120
Time=8760 Track=5 note_on channel=2 note=65 velocity=90 time=5
Time=8760 Track=5 note_on channel=2 note=65 velocity=0 time=0
Time=8760 Track=6 note_on channel=3 note=65 velocity=90 time=5
Time=8760 Track=6 note_on channel=3 note=65 velocity=0 time=0
Time=8760 Track=7 note_on channel=4 note=65 velocity=98 time=5
Time=8760 Track=7 note_on channel=4 note=57 velocity=0 time=0
Time=8760 Track=11 note_on channel=9 note=36 velocity=120 time=15
Time=8760 Track=11 note_on channel=9 note=40 velocity=127 time=0
Time=8760 Track=11 note_on channel=9 note=42 velocity=125 time=0
Time=8760 Track=12 note_on channel=10 note=52 velocity=107 time=5
Time=8765 Track=7 note_on channel=4 note=65 velocity=0 time=5
Time=8765 Track=7 note_on channel=4 note=62 velocity=0 time=0
Time=8775 Track=5 note_on channel=2 note=50 velocity=0 time=15
Time=8775 Track=6 note_on channel=3 note=50 velocity=0 time=15
Time=8790 Track=5 note_on channel=2 note=57 velocity=0 time=15
Time=8790 Track=6 note_on channel=3 note=57 velocity=0 time=15
Time=8810 Track=5 note_on channel=2 note=57 velocity=89 time=20
Time=8810 Track=5 note_on channel=2 note=65 velocity=0 time=0
Time=8810 Track=6 note_on channel=3 note=57 velocity=89 time=20
Time=8810 Track=6 note_on channel=3 note=65 velocity=0 time=0
Time=8810 Track=11 note_on channel=9 note=42 velocity=0 time=50
Time=8815 Track=5 note_on channel=2 note=60 velocity=116 time=5
Time=8815 Track=6 note_on channel=3 note=60 velocity=116 time=5
Time=8815 Track=11 note_on channel=9 note=40 velocity=0 time=5
Time=8815 Track=11 note_on channel=9 note=36 velocity=0 time=0
Time=8815 Track=12 note_on channel=10 note=52 velocity=0 time=55
Time=8820 Track=3 note_on channel=0 note=36 velocity=102 time=60
Time=8820 Track=4 note_on channel=1 note=36 velocity=101 time=65
Time=8820 Track=5 note_on channel=2 note=65 velocity=106 time=0
Time=8820 Track=6 note_on channel=3 note=65 velocity=106 time=5
Time=8820 Track=11 note_on channel=9 note=42 velocity=93 time=5
Time=8820 Track=12 note_on channel=10 note=53 velocity=107 time=5
Time=8825 Track=5 note_on channel=2 note=62 velocity=0 time=5
Time=8825 Track=6 note_on channel=3 note=62 velocity=0 time=5
Time=8865 Track=11 note_on channel=9 note=42 velocity=0 time=45
Time=8875 Track=3 note_on channel=0 note=36 velocity=0 time=55
Time=8875 Track=4 note_on channel=1 note=36 velocity=0 time=55
Time=8875 Track=5 note_on channel=2 note=57 velocity=91 time=0
Time=8875 Track=5 note_on channel=2 note=62 velocity=113 time=0
Time=8875 Track=5 note_on channel=2 note=57 velocity=0 time=0
Time=8875 Track=5 note_on channel=2 note=60 velocity=0 time=0
Time=8875 Track=6 note_on channel=3 note=57 velocity=91 time=50
Time=8875 Track=6 note_on channel=3 note=62 velocity=113 time=0
Time=8875 Track=6 note_on channel=3 note=57 velocity=0 time=0
Time=8875 Track=6 note_on channel=3 note=60 velocity=0 time=0
Time=8875 Track=7 note_on channel=4 note=57 velocity=99 time=5
Time=8875 Track=7 note_on channel=4 note=62 velocity=107 time=0
Time=8880 Track=3 note_on channel=0 note=38 velocity=102 time=5
Time=8880 Track=4 note_on channel=1 note=38 velocity=101 time=5
Time=8880 Track=5 note_on channel=2 note=65 velocity=96 time=5
Time=8880 Track=5 note_on channel=2 note=65 velocity=0 time=0
Time=8880 Track=6 note_on channel=3 note=65 velocity=96 time=5
Time=8880 Track=6 note_on channel=3 note=65 velocity=0 time=0
Time=8880 Track=7 note_on channel=4 note=65 velocity=104 time=5
Time=8880 Track=11 note_on channel=9 note=36 velocity=120 time=15
Time=8880 Track=11 note_on channel=9 note=42 velocity=114 time=0
Time=8885 Track=7 note_on channel=4 note=65 velocity=0 time=5
Time=8885 Track=7 note_on channel=4 note=62 velocity=0 time=0
Time=8885 Track=7 note_on channel=4 note=57 velocity=0 time=0
Time=8910 Track=5 note_on channel=2 note=62 velocity=0 time=5
Time=8910 Track=6 note_on channel=3 note=62 velocity=0 time=30
Time=8920 Track=4 note_on channel=1 note=38 velocity=0 time=40
Time=8925 Track=3 note_on channel=0 note=38 velocity=0 time=45
Time=8925 Track=11 note_on channel=9 note=42 velocity=0 time=45
Time=8935 Track=7 note_on channel=4 note=65 velocity=78 time=30
Time=8935 Track=11 note_on channel=9 note=36 velocity=0 time=10
Time=8935 Track=12 note_on channel=10 note=53 velocity=0 time=115
Time=8936 Track=7 note_on channel=4 note=65 velocity=0 time=1
Time=8940 Track=5 note_on channel=2 note=57 velocity=0 time=30
Time=8940 Track=5 note_on channel=2 note=65 velocity=0 time=0
Time=8940 Track=6 note_on channel=3 note=57 velocity=0 time=30
Time=8940 Track=6 note_on channel=3 note=65 velocity=0 time=0
Time=8940 Track=7 note_on channel=4 note=62 velocity=78 time=4
Time=8940 Track=11 note_on channel=9 note=42 velocity=94 time=5
Time=8940 Track=12 note_on channel=10 note=52 velocity=107 time=5
Time=8941 Track=7 note_on channel=4 note=62 velocity=0 time=1
Time=8965 Track=7 note_on channel=4 note=65 velocity=76 time=24
Time=8966 Track=7 note_on channel=4 note=65 velocity=0 time=1
Time=8970 Track=7 note_on channel=4 note=62 velocity=76 time=4
Time=8971 Track=7 note_on channel=4 note=62 velocity=0 time=1
Time=8985 Track=11 note_on channel=9 note=42 velocity=0 time=45
Time=8990 Track=7 note_on channel=4 note=57 velocity=98 time=19
Time=8995 Track=5 note_on channel=2 note=57 velocity=90 time=55
Time=8995 Track=5 note_on channel=2 note=62 velocity=115 time=0
Time=8995 Track=6 note_on channel=3 note=57 velocity=90 time=55
Time=8995 Track=6 note_on channel=3 note=62 velocity=115 time=0
Time=8995 Track=7 note_on channel=4 note=62 velocity=107 time=0
Time=8995 Track=7 note_on channel=4 note=65 velocity=105 time=0
Time=9000 Track=5 note_on channel=2 note=65 velocity=97 time=5
Time=9000 Track=5 note_on channel=2 note=69 velocity=96 time=0
Time=9000 Track=6 note_on channel=3 note=65 velocity=97 time=5
Time=9000 Track=6 note_on channel=3 note=69 velocity=96 time=0
Time=9000 Track=7 note_on channel=4 note=69 velocity=104 time=5
Time=9000 Track=7 note_on channel=4 note=57 velocity=0 time=0
Time=9000 Track=11 note_on channel=9 note=36 velocity=119 time=15
Time=9000 Track=11 note_on channel=9 note=40 velocity=127 time=0
Time=9000 Track=11 note_on channel=9 note=42 velocity=126 time=0
Time=9005 Track=7 note_on channel=4 note=62 velocity=0 time=5
Time=9005 Track=7 note_on channel=4 note=65 velocity=0 time=0
Time=9005 Track=7 note_on channel=4 note=69 velocity=0 time=0
Time=9030 Track=5 note_on channel=2 note=65 velocity=0 time=0
Time=9030 Track=6 note_on channel=3 note=65 velocity=0 time=30
Time=9030 Track=6 note_on channel=3 note=62 velocity=0 time=0
Time=9035 Track=5 note_on channel=2 note=62 velocity=0 time=5
Time=9040 Track=5 note_on channel=2 note=57 velocity=0 time=5
Time=9040 Track=6 note_on channel=3 note=57 velocity=0 time=10
Time=9040 Track=11 note_on channel=9 note=42 velocity=0 time=40
Time=9055 Track=11 note_on channel=9 note=40 velocity=0 time=15
Time=9055 Track=11 note_on channel=9 note=36 velocity=0 time=0
Time=9060 Track=5 note_on channel=2 note=69 velocity=0 time=20
Time=9060 Track=6 note_on channel=3 note=69 velocity=0 time=20
Time=9060 Track=7 note_on channel=4 note=62 velocity=72 time=55
Time=9060 Track=7 note_on channel=4 note=65 velocity=72 time=0
Time=9060 Track=11 note_on channel=9 note=46 velocity=121 time=5
Time=9061 Track=7 note_on channel=4 note=65 velocity=0 time=1
Time=9061 Track=7 note_on channel=4 note=62 velocity=0 time=0
Time=9090 Track=7 note_on channel=4 note=65 velocity=71 time=29
Time=9090 Track=7 note_on channel=4 note=62 velocity=71 time=0
Time=9091 Track=7 note_on channel=4 note=62 velocity=0 time=1
Time=9091 Track=7 note_on channel=4 note=65 velocity=0 time=0
Time=9105 Track=11 note_on channel=9 note=46 velocity=0 time=45
Time=9110 Track=5 note_on channel=2 note=50 velocity=101 time=50
Time=9110 Track=6 note_on channel=3 note=50 velocity=101 time=50
Time=9115 Track=5 note_on channel=2 note=62 velocity=104 time=5
Time=9115 Track=5 note_on channel=2 note=57 velocity=91 time=0
Time=9115 Track=6 note_on channel=3 note=62 velocity=104 time=5
Time=9115 Track=6 note_on channel=3 note=57 velocity=91 time=0
Time=9115 Track=12 note_on channel=10 note=52 velocity=0 time=175
Time=9120 Track=3 note_on channel=0 note=38 velocity=101 time=195
Time=9120 Track=4 note_on channel=1 note=38 velocity=100 time=200
Time=9120 Track=5 note_on channel=2 note=65 velocity=94 time=5
Time=9120 Track=6 note_on channel=3 note=65 velocity=94 time=5
Time=9120 Track=11 note_on channel=9 note=36 velocity=121 time=15
Time=9120 Track=11 note_on channel=9 note=42 velocity=112 time=0
Time=9120 Track=12 note_on channel=10 note=50 velocity=107 time=5
Time=9125 Track=5 note_on channel=2 note=69 velocity=96 time=5
Time=9125 Track=6 note_on channel=3 note=69 velocity=96 time=5
Time=9155 Track=11 note_on channel=9 note=42 velocity=0 time=35
Time=9175 Track=11 note_on channel=9 note=36 velocity=0 time=20
Time=9180 Track=11 note_on channel=9 note=42 velocity=83 time=5
Time=9200 Track=5 note_on channel=2 note=65 velocity=0 time=0
Time=9200 Track=6 note_on channel=3 note=65 velocity=0 time=75
Time=9205 Track=5 note_on channel=2 note=65 velocity=108 time=0
Time=9205 Track=5 note_on channel=2 note=62 velocity=0 time=0
Time=9205 Track=6 note_on channel=3 note=65 velocity=108 time=5
Time=9205 Track=6 note_on channel=3 note=62 velocity=0 time=0
Time=9205 Track=7 note_on channel=4 note=65 velocity=107 time=0
Time=9210 Track=5 note_on channel=2 note=62 velocity=97 time=5
Time=9210 Track=6 note_on channel=3 note=62 velocity=97 time=5
Time=9210 Track=7 note_on channel=4 note=62 velocity=105 time=5
Time=9210 Track=7 note_on channel=4 note=65 velocity=0 time=0
Time=9215 Track=7 note_on channel=4 note=62 velocity=0 time=5
Time=9225 Track=11 note_on channel=9 note=42 velocity=0 time=45
Time=9230 Track=5 note_on channel=2 note=57 velocity=100 time=0
Time=9230 Track=5 note_on channel=2 note=57 velocity=0 time=0
Time=9230 Track=6 note_on channel=3 note=57 velocity=100 time=20
Time=9230 Track=6 note_on channel=3 note=57 velocity=0 time=0
Time=9230 Track=7 note_on channel=4 note=57 velocity=107 time=0
Time=9235 Track=4 note_on channel=1 note=38 velocity=0 time=115
Time=9235 Track=5 note_on channel=2 note=62 velocity=108 time=5
Time=9235 Track=5 note_on channel=2 note=62 velocity=0 time=0
Time=9235 Track=5 note_on channel=2 note=65 velocity=0 time=0
Time=9235 Track=5 note_on channel=2 note=69 velocity=0 time=0
Time=9235 Track=6 note_on channel=3 note=62 velocity=108 time=5
Time=9235 Track=6 note_on channel=3 note=62 velocity=0 time=0
Time=9235 Track=6 note_on channel=3 note=65 velocity=0 time=0
Time=9235 Track=6 note_on channel=3 note=69 velocity=0 time=0
Time=9235 Track=7 note_on channel=4 note=62 velocity=107 time=5
Time=9240 Track=3 note_on channel=0 note=38 velocity=0 time=120
Time=9240 Track=5 note_on channel=2 note=65 velocity=90 time=5
Time=9240 Track=6 note_on channel=3 note=65 velocity=90 time=5
Time=9240 Track=7 note_on channel=4 note=65 velocity=98 time=5
Time=9240 Track=7 note_on channel=4 note=57 velocity=0 time=0
Time=9240 Track=11 note_on channel=9 note=36 velocity=120 time=15
Time=9240 Track=11 note_on channel=9 note=40 velocity=127 time=0
Time=9240 Track=11 note_on channel=9 note=42 velocity=125 time=0
Time=9240 Track=12 note_on channel=10 note=52 velocity=107 time=120
Time=9240 Track=12 note_on channel=10 note=50 velocity=0 time=0
Time=9245 Track=7 note_on channel=4 note=65 velocity=0 time=5
Time=9245 Track=7 note_on channel=4 note=62 velocity=0 time=0
Time=9250 Track=6 note_on channel=3 note=50 velocity=0 time=10
Time=9255 Track=5 note_on channel=2 note=50 velocity=0 time=15
Time=9265 Track=6 note_on channel=3 note=57 velocity=0 time=15
Time=9270 Track=5 note_on channel=2 note=57 velocity=0 time=15
Time=9285 Track=6 note_on channel=3 note=65 velocity=0 time=20
Time=9290 Track=5 note_on channel=2 note=57 velocity=89 time=20
Time=9290 Track=5 note_on channel=2 note=60 velocity=116 time=0
Time=9290 Track=5 note_on channel=2 note=65 velocity=0 time=0
Time=9290 Track=6 note_on channel=3 note=57 velocity=89 time=5
Time=9290 Track=6 note_on channel=3 note=60 velocity=116 time=0
Time=9290 Track=11 note_on channel=9 note=42 velocity=0 time=50
Time=9295 Track=11 note_on channel=9 note=40 velocity=0 time=5
Time=9295 Track=11 note_on channel=9 note=36 velocity=0 time=0
Time=9295 Track=12 note_on channel=10 note=52 velocity=0 time=55
Time=9300 Track=3 note_on channel=0 note=38 velocity=101 time=60
Time=9300 Track=4 note_on channel=1 note=38 velocity=99 time=65
Time=9300 Track=5 note_on channel=2 note=65 velocity=106 time=5
Time=9300 Track=6 note_on channel=3 note=65 velocity=106 time=10
Time=9300 Track=6 note_on channel=3 note=62 velocity=0 time=0
Time=9300 Track=11 note_on channel=9 note=42 velocity=93 time=5
Time=9300 Track=12 note_on channel=10 note=53 velocity=107 time=5
Time=9305 Track=5 note_on channel=2 note=62 velocity=0 time=5
Time=9345 Track=3 note_on channel=0 note=38 velocity=0 time=45
Time=9345 Track=4 note_on channel=1 note=38 velocity=0 time=45
Time=9345 Track=11 note_on channel=9 note=42 velocity=0 time=45
Time=9355 Track=5 note_on channel=2 note=57 velocity=91 time=5
Time=9355 Track=5 note_on channel=2 note=62 velocity=113 time=0
Time=9355 Track=5 note_on channel=2 note=60 velocity=0 time=0
Time=9355 Track=5 note_on channel=2 note=65 velocity=0 time=0
Time=9355 Track=5 note_on channel=2 note=57 velocity=0 time=0
Time=9355 Track=6 note_on channel=3 note=57 velocity=91 time=55
Time=9355 Track=6 note_on channel=3 note=62 velocity=113 time=0
Time=9355 Track=6 note_on channel=3 note=57 velocity=0 time=0
Time=9355 Track=6 note_on channel=3 note=65 velocity=0 time=0
Time=9355 Track=6 note_on channel=3 note=60 velocity=0 time=0
Time=9355 Track=7 note_on channel=4 note=57 velocity=99 time=5
Time=9355 Track=7 note_on channel=4 note=62 velocity=107 time=0
Time=9360 Track=3 note_on channel=0 note=33 velocity=101 time=15
Time=9360 Track=4 note_on channel=1 note=33 velocity=99 time=15
Time=9360 Track=5 note_on channel=2 note=65 velocity=96 time=5
Time=9360 Track=6 note_on channel=3 note=65 velocity=96 time=5
Time=9360 Track=7 note_on channel=4 note=65 velocity=104 time=5
Time=9360 Track=11 note_on channel=9 note=36 velocity=120 time=15
Time=9360 Track=11 note_on channel=9 note=42 velocity=114 time=0
Time=9365 Track=7 note_on channel=4 note=65 velocity=0 time=5
Time=9365 Track=7 note_on channel=4 note=62 velocity=0 time=0
Time=9365 Track=7 note_on channel=4 note=57 velocity=0 time=0
Time=9390 Track=5 note_on channel=2 note=62 velocity=0 time=5
Time=9390 Track=6 note_on channel=3 note=62 velocity=0 time=30
Time=9405 Track=11 note_on channel=9 note=42 velocity=0 time=45
Time=9415 Track=6 note_on channel=3 note=65 velocity=0 time=25
Time=9415 Track=7 note_on channel=4 note=65 velocity=78 time=30
Time=9415 Track=11 note_on channel=9 note=36 velocity=0 time=10
Time=9416 Track=7 note_on channel=4 note=65 velocity=0 time=1
Time=9420 Track=5 note_on channel=2 note=65 velocity=0 time=30
Time=9420 Track=5 note_on channel=2 note=57 velocity=0 time=0
Time=9420 Track=6 note_on channel=3 note=57 velocity=0 time=5
Time=9420 Track=7 note_on channel=4 note=62 velocity=78 time=4
Time=9420 Track=11 note_on channel=9 note=42 velocity=94 time=5
Time=9421 Track=7 note_on channel=4 note=62 velocity=0 time=1
Time=9445 Track=7 note_on channel=4 note=65 velocity=76 time=24
Time=9446 Track=7 note_on channel=4 note=65 velocity=0 time=1
Time=9450 Track=7 note_on channel=4 note=62 velocity=76 time=4
Time=9451 Track=7 note_on channel=4 note=62 velocity=0 time=1
Time=9465 Track=11 note_on channel=9 note=42 velocity=0 time=45
Time=9470 Track=5 note_on channel=2 note=57 velocity=90 time=50
Time=9470 Track=6 note_on channel=3 note=57 velocity=90 time=50
Time=9470 Track=7 note_on channel=4 note=57 velocity=98 time=19
Time=9475 Track=4 note_on channel=1 note=33 velocity=0 time=115
Time=9475 Track=5 note_on channel=2 note=62 velocity=115 time=0
Time=9475 Track=5 note_on channel=2 note=65 velocity=97 time=0
Time=9475 Track=6 note_on channel=3 note=62 velocity=115 time=5
Time=9475 Track=6 note_on channel=3 note=65 velocity=97 time=0
Time=9475 Track=7 note_on channel=4 note=62 velocity=107 time=0
Time=9475 Track=7 note_on channel=4 note=65 velocity=105 time=0
Time=9480 Track=3 note_on channel=0 note=36 velocity=100 time=120
Time=9480 Track=3 note_on channel=0 note=33 velocity=0 time=0
Time=9480 Track=4 note_on channel=1 note=36 velocity=99 time=5
Time=9480 Track=5 note_on channel=2 note=69 velocity=96 time=5
Time=9480 Track=6 note_on channel=3 note=69 velocity=96 time=5
Time=9480 Track=7 note_on channel=4 note=69 velocity=104 time=5
Time=9480 Track=7 note_on channel=4 note=57 velocity=0 time=0
Time=9480 Track=11 note_on channel=9 note=36 velocity=119 time=15
Time=9480 Track=11 note_on channel=9 note=40 velocity=127 time=0
Time=9480 Track=11 note_on channel=9 note=42 velocity=126 time=0
Time=9485 Track=7 note_on channel=4 note=62 velocity=0 time=5
Time=9485 Track=7 note_on channel=4 note=65 velocity=0 time=0
Time=9485 Track=7 note_on channel=4 note=69 velocity=0 time=0
Time=9505 Track=5 note_on channel=2 note=65 velocity=0 time=25
Time=9505 Track=6 note_on channel=3 note=65 velocity=0 time=25
Time=9510 Track=5 note_on channel=2 note=62 velocity=0 time=0
Time=9510 Track=6 note_on channel=3 note=62 velocity=0 time=5
Time=9520 Track=5 note_on channel=2 note=57 velocity=0 time=10
Time=9520 Track=6 note_on channel=3 note=57 velocity=0 time=10
Time=9520 Track=11 note_on channel=9 note=42 velocity=0 time=40
Time=9535 Track=6 note_on channel=3 note=69 velocity=0 time=15
Time=9535 Track=11 note_on channel=9 note=40 velocity=0 time=15
Time=9535 Track=11 note_on channel=9 note=36 velocity=0 time=0
Time=9540 Track=5 note_on channel=2 note=69 velocity=0 time=20
Time=9540 Track=7 note_on channel=4 note=62 velocity=72 time=30
Time=9540 Track=7 note_on channel=4 note=65 velocity=72 time=0
Time=9540 Track=11 note_on channel=9 note=46 velocity=121 time=5
Time=9541 Track=7 note_on channel=4 note=65 velocity=0 time=1
Time=9541 Track=7 note_on channel=4 note=62 velocity=0 time=0
Time=9570 Track=7 note_on channel=4 note=65 velocity=71 time=29
Time=9570 Track=7 note_on channel=4 note=62 velocity=71 time=0
Time=9571 Track=7 note_on channel=4 note=62 velocity=0 time=1
Time=9571 Track=7 note_on channel=4 note=65 velocity=0 time=0
Time=9585 Track=11 note_on channel=9 note=46 velocity=0 time=45
Time=9590 Track=5 note_on channel=2 note=50 velocity=101 time=50
Time=9590 Track=6 note_on channel=3 note=50 velocity=101 time=55
Time=9595 Track=3 note_on channel=0 note=36 velocity=0 time=115
Time=9595 Track=4 note_on channel=1 note=36 velocity=0 time=115
Time=9595 Track=5 note_on channel=2 note=62 velocity=104 time=5
Time=9595 Track=5 note_on channel=2 note=57 velocity=91 time=0
Time=9595 Track=5 note_on channel=2 note=50 velocity=0 time=0
Time=9595 Track=6 note_on channel=3 note=62 velocity=104 time=5
Time=9595 Track=6 note_on channel=3 note=57 velocity=91 time=0
Time=9595 Track=6 note_on channel=3 note=50 velocity=0 time=0
Time=9595 Track=12 note_on channel=10 note=53 velocity=0 time=295
Time=9596 Track=5 note_on channel=2 note=57 velocity=0 time=1
Time=9596 Track=5 note_on channel=2 note=62 velocity=0 time=0
Time=9596 Track=6 note_on channel=3 note=57 velocity=0 time=1
Time=9596 Track=6 note_on channel=3 note=62 velocity=0 time=0
Time=9600 Track=3 note_on channel=0 note=31 velocity=103 time=5
Time=9600 Track=4 note_on channel=1 note=31 velocity=101 time=5
Time=9600 Track=5 note_on channel=2 note=71 velocity=104 time=4
Time=9600 Track=5 note_on channel=2 note=67 velocity=104 time=0
Time=9600 Track=5 note_on channel=2 note=62 velocity=104 time=0
Time=9600 Track=10 note_on channel=8 note=55 velocity=100 time=9425
Time=9600 Track=10 note_on channel=8 note=43 velocity=100 time=0
Time=9600 Track=11 note_on channel=9 note=36 velocity=121 time=15
Time=9600 Track=11 note_on channel=9 note=42 velocity=112 time=0
Time=9600 Track=11 note_on channel=9 note=49 velocity=92 time=0
Time=9600 Track=12 note_on channel=10 note=55 velocity=107 time=5
Time=9600 Track=13 note_on channel=12 note=59 velocity=127 time=9400
Time=9600 Track=13 note_on channel=12 note=62 velocity=127 time=0
Time=9600 Track=13 note_on channel=12 note=67 velocity=127 time=0
Time=9620 Track=13 note_on channel=12 note=67 velocity=0 time=20
Time=9625 Track=5 note_on channel=2 note=71 velocity=0 time=0
Time=9625 Track=13 note_on channel=12 note=67 velocity=127 time=0
Time=9625 Track=13 note_on channel=12 note=62 velocity=0 time=0
Time=9630 Track=5 note_on channel=2 note=71 velocity=104 time=5
Time=9630 Track=13 note_on channel=12 note=62 velocity=127 time=5
Time=9635 Track=11 note_on channel=9 note=42 velocity=0 time=35
Time=9645 Track=5 note_on channel=2 note=67 velocity=0 time=15
Time=9650 Track=5 note_on channel=2 note=62 velocity=0 time=5
Time=9655 Track=5 note_on channel=2 note=71 velocity=0 time=0
Time=9655 Track=11 note_on channel=9 note=49 velocity=0 time=20
Time=9655 Track=11 note_on channel=9 note=36 velocity=0 time=0
Time=9655 Track=13 note_on channel=12 note=62 velocity=0 time=0
Time=9655 Track=13 note_on channel=12 note=59 velocity=0 time=0
Time=9660 Track=5 note_on channel=2 note=71 velocity=104 time=5
Time=9660 Track=5 note_on channel=2 note=67 velocity=104 time=0
Time=9660 Track=5 note_on channel=2 note=62 velocity=104 time=0
Time=9660 Track=11 note_on channel=9 note=42 velocity=83 time=5
Time=9660 Track=13 note_on channel=12 note=59 velocity=127 time=5
Time=9660 Track=13 note_on channel=12 note=62 velocity=127 time=0
Time=9685 Track=5 note_on channel=2 note=71 velocity=0 time=0
Time=9685 Track=13 note_on channel=12 note=67 velocity=127 time=0
Time=9685 Track=13 note_on channel=12 note=62 velocity=0 time=0
Time=9685 Track=13 note_on channel=12 note=67 velocity=0 time=0
Time=9690 Track=5 note_on channel=2 note=71 velocity=104 time=5
Time=9690 Track=13 note_on channel=12 note=62 velocity=127 time=5
Time=9705 Track=11 note_on channel=9 note=42 velocity=0 time=45
Time=9710 Track=5 note_on channel=2 note=67 velocity=0 time=20
Time=9715 Track=5 note_on channel=2 note=71 velocity=0 time=0
Time=9715 Track=5 note_on channel=2 note=62 velocity=0 time=0
Time=9715 Track=13 note_on channel=12 note=59 velocity=127 time=0
Time=9715 Track=13 note_on channel=12 note=59 velocity=0 time=0
Time=9720 Track=5 note_on channel=2 note=71 velocity=104 time=5
Time=9720 Track=5 note_on channel=2 note=67 velocity=104 time=0
Time=9720 Track=5 note_on channel=2 note=62 velocity=104 time=0
Time=9720 Track=11 note_on channel=9 note=36 velocity=120 time=15
Time=9720 Track=11 note_on channel=9 note=40 velocity=127 time=0
Time=9720 Track=11 note_on channel=9 note=42 velocity=125 time=0
Time=9720 Track=13 note_on channel=12 note=62 velocity=127 time=5
Time=9720 Track=13 note_on channel=12 note=67 velocity=127 time=0
Time=9720 Track=13 note_on channel=12 note=67 velocity=0 time=0
Time=9720 Track=13 note_on channel=12 note=62 velocity=0 time=0
Time=9745 Track=5 note_on channel=2 note=71 velocity=0 time=5
Time=9750 Track=5 note_on channel=2 note=71 velocity=103 time=5
Time=9765 Track=13 note_on channel=12 note=59 velocity=0 time=45
Time=9765 Track=13 note_on channel=12 note=62 velocity=0 time=0
Time=9770 Track=11 note_on channel=9 note=42 velocity=0 time=50
Time=9775 Track=5 note_on channel=2 note=71 velocity=0 time=0
Time=9775 Track=5 note_on channel=2 note=67 velocity=0 time=0
Time=9775 Track=11 note_on channel=9 note=40 velocity=0 time=5
Time=9775 Track=11 note_on channel=9 note=36 velocity=0 time=0
Time=9775 Track=13 note_on channel=12 note=67 velocity=0 time=10
Time=9780 Track=5 note_on channel=2 note=71 velocity=103 time=5
Time=9780 Track=5 note_on channel=2 note=67 velocity=103 time=0
Time=9780 Track=11 note_on channel=9 note=42 velocity=93 time=5
Time=9780 Track=13 note_on channel=12 note=62 velocity=82 time=0
Time=9781 Track=13 note_on channel=12 note=62 velocity=0 time=1
Time=9785 Track=13 note_on channel=12 note=67 velocity=68 time=0
Time=9786 Track=13 note_on channel=12 note=67 velocity=0 time=1
Time=9805 Track=5 note_on channel=2 note=71 velocity=0 time=0
Time=9805 Track=13 note_on channel=12 note=67 velocity=82 time=0
Time=9806 Track=13 note_on channel=12 note=67 velocity=0 time=1
Time=9810 Track=5 note_on channel=2 note=71 velocity=103 time=5
Time=9810 Track=13 note_on channel=12 note=62 velocity=80 time=0
Time=9811 Track=13 note_on channel=12 note=62 velocity=0 time=1
Time=9825 Track=11 note_on channel=9 note=42 velocity=0 time=45
Time=9835 Track=5 note_on channel=2 note=71 velocity=0 time=0
Time=9835 Track=5 note_on channel=2 note=67 velocity=0 time=0
Time=9835 Track=5 note_on channel=2 note=62 velocity=0 time=0
Time=9835 Track=13 note_on channel=12 note=59 velocity=127 time=0
Time=9840 Track=5 note_on channel=2 note=71 velocity=103 time=5
Time=9840 Track=5 note_on channel=2 note=67 velocity=103 time=0
Time=9840 Track=5 note_on channel=2 note=62 velocity=103 time=0
Time=9840 Track=11 note_on channel=9 note=36 velocity=120 time=15
Time=9840 Track=11 note_on channel=9 note=42 velocity=114 time=0
Time=9840 Track=13 note_on channel=12 note=62 velocity=127 time=5
Time=9840 Track=13 note_on channel=12 note=67 velocity=127 time=0
Time=9865 Track=5 note_on channel=2 note=67 velocity=0 time=0
Time=9870 Track=5 note_on channel=2 note=67 velocity=103 time=5
Time=9870 Track=5 note_on channel=2 note=71 velocity=103 time=0
Time=9870 Track=5 note_on channel=2 note=71 velocity=0 time=0
Time=9875 Track=13 note_on channel=12 note=67 velocity=0 time=35
Time=9880 Track=13 note_on channel=12 note=62 velocity=0 time=5
Time=9880 Track=13 note_on channel=12 note=59 velocity=0 time=0
Time=9885 Track=11 note_on channel=9 note=42 velocity=0 time=45
Time=9895 Track=5 note_on channel=2 note=62 velocity=0 time=0
Time=9895 Track=5 note_on channel=2 note=67 velocity=0 time=0
Time=9895 Track=11 note_on channel=9 note=36 velocity=0 time=10
Time=9900 Track=5 note_on channel=2 note=71 velocity=102 time=5
Time=9900 Track=5 note_on channel=2 note=67 velocity=103 time=0
Time=9900 Track=5 note_on channel=2 note=62 velocity=103 time=0
Time=9900 Track=5 note_on channel=2 note=71 velocity=0 time=0
Time=9900 Track=11 note_on channel=9 note=42 velocity=94 time=5
Time=9900 Track=13 note_on channel=12 note=58 velocity=54 time=0
Time=9900 Track=13 note_on channel=12 note=62 velocity=76 time=0
Time=9901 Track=13 note_on channel=12 note=58 velocity=0 time=1
Time=9905 Track=13 note_on channel=12 note=67 velocity=78 time=0
Time=9905 Track=13 note_on channel=12 note=62 velocity=0 time=0
Time=9910 Track=13 note_on channel=12 note=67 velocity=0 time=5
Time=9925 Track=5 note_on channel=2 note=67 velocity=0 time=0
Time=9930 Track=5 note_on channel=2 note=67 velocity=102 time=5
Time=9930 Track=5 note_on channel=2 note=71 velocity=102 time=0
Time=9930 Track=5 note_on channel=2 note=71 velocity=0 time=0
Time=9930 Track=13 note_on channel=12 note=67 velocity=54 time=0
Time=9931 Track=13 note_on channel=12 note=67 velocity=0 time=1
Time=9945 Track=11 note_on channel=9 note=42 velocity=0 time=45
Time=9955 Track=5 note_on channel=2 note=62 velocity=0 time=0
Time=9955 Track=5 note_on channel=2 note=67 velocity=0 time=0
Time=9955 Track=5 note_on channel=2 note=71 velocity=0 time=0
Time=9960 Track=5 note_on channel=2 note=71 velocity=102 time=5
Time=9960 Track=5 note_on channel=2 note=67 velocity=102 time=0
Time=9960 Track=5 note_on channel=2 note=62 velocity=102 time=0
Time=9960 Track=11 note_on channel=9 note=36 velocity=119 time=15
Time=9960 Track=11 note_on channel=9 note=40 velocity=127 time=0
Time=9960 Track=11 note_on channel=9 note=42 velocity=126 time=0
Time=9960 Track=13 note_on channel=12 note=59 velocity=127 time=29
Time=9960 Track=13 note_on channel=12 note=62 velocity=127 time=0
Time=9960 Track=13 note_on channel=12 note=67 velocity=95 time=0
Time=9985 Track=5 note_on channel=2 note=71 velocity=0 time=0
Time=9990 Track=5 note_on channel=2 note=71 velocity=102 time=5
Time=9990 Track=13 note_on channel=12 note=62 velocity=0 time=30
Time=9990 Track=13 note_on channel=12 note=59 velocity=0 time=0
Time=9995 Track=13 note_on channel=12 note=67 velocity=0 time=5
Time=10000 Track=11 note_on channel=9 note=42 velocity=0 time=40
Time=10010 Track=5 note_on channel=2 note=67 velocity=0 time=0
Time=10015 Track=5 note_on channel=2 note=62 velocity=0 time=0
Time=10015 Track=11 note_on channel=9 note=40 velocity=0 time=15
Time=10015 Track=11 note_on channel=9 note=36 velocity=0 time=0
Time=10020 Track=5 note_on channel=2 note=71 velocity=102 time=5
Time=10020 Track=5 note_on channel=2 note=67 velocity=102 time=0
Time=10020 Track=5 note_on channel=2 note=62 velocity=102 time=0
Time=10020 Track=5 note_on channel=2 note=71 velocity=0 time=0
Time=10020 Track=11 note_on channel=9 note=46 velocity=121 time=5
Time=10020 Track=13 note_on channel=12 note=59 velocity=127 time=25
Time=10020 Track=13 note_on channel=12 note=62 velocity=127 time=0
Time=10020 Track=13 note_on channel=12 note=67 velocity=127 time=0
Time=10040 Track=13 note_on channel=12 note=67 velocity=0 time=15
Time=10045 Track=5 note_on channel=2 note=71 velocity=0 time=0
Time=10045 Track=13 note_on channel=12 note=67 velocity=127 time=5
Time=10045 Track=13 note_on channel=12 note=62 velocity=127 time=0
Time=10045 Track=13 note_on channel=12 note=62 velocity=0 time=0
Time=10050 Track=5 note_on channel=2 note=71 velocity=102 time=5
Time=10065 Track=11 note_on channel=9 note=46 velocity=0 time=45
Time=10070 Track=13 note_on channel=12 note=59 velocity=0 time=25
Time=10075 Track=3 note_on channel=0 note=31 velocity=0 time=475
Time=10075 Track=4 note_on channel=1 note=31 velocity=0 time=475
Time=10075 Track=5 note_on channel=2 note=71 velocity=0 time=0
Time=10075 Track=5 note_on channel=2 note=67 velocity=0 time=0
Time=10075 Track=5 note_on channel=2 note=62 velocity=0 time=0
Time=10075 Track=13 note_on channel=12 note=59 velocity=127 time=5
Time=10075 Track=13 note_on channel=12 note=62 velocity=127 time=0
Time=10075 Track=13 note_on channel=12 note=62 velocity=0 time=0
Time=10080 Track=3 note_on channel=0 note=31 velocity=103 time=5
Time=10080 Track=4 note_on channel=1 note=31 velocity=101 time=5
Time=10080 Track=5 note_on channel=2 note=71 velocity=104 time=5
Time=10080 Track=5 note_on channel=2 note=67 velocity=104 time=0
Time=10080 Track=5 note_on channel=2 note=62 velocity=104 time=0
Time=10080 Track=11 note_on channel=9 note=36 velocity=121 time=15
Time=10080 Track=11 note_on channel=9 note=42 velocity=112 time=0
Time=10095 Track=13 note_on channel=12 note=67 velocity=0 time=20
Time=10100 Track=13 note_on channel=12 note=67 velocity=127 time=0
Time=10105 Track=5 note_on channel=2 note=71 velocity=0 time=0
Time=10105 Track=13 note_on channel=12 note=62 velocity=127 time=5
Time=10105 Track=13 note_on channel=12 note=62 velocity=0 time=0
Time=10110 Track=5 note_on channel=2 note=71 velocity=104 time=5
Time=10115 Track=11 note_on channel=9 note=42 velocity=0 time=35
Time=10125 Track=5 note_on channel=2 note=67 velocity=0 time=15
Time=10130 Track=5 note_on channel=2 note=62 velocity=0 time=5
Time=10130 Track=13 note_on channel=12 note=62 velocity=0 time=0
Time=10135 Track=11 note_on channel=9 note=36 velocity=0 time=20
Time=10135 Track=13 note_on channel=12 note=59 velocity=127 time=5
Time=10135 Track=13 note_on channel=12 note=62 velocity=127 time=0
Time=10135 Track=13 note_on channel=12 note=59 velocity=0 time=0
Time=10140 Track=5 note_on channel=2 note=71 velocity=104 time=5
Time=10140 Track=5 note_on channel=2 note=67 velocity=104 time=0
Time=10140 Track=5 note_on channel=2 note=62 velocity=104 time=0
Time=10140 Track=5 note_on channel=2 note=71 velocity=0 time=0
Time=10140 Track=11 note_on channel=9 note=42 velocity=83 time=5
Time=10160 Track=13 note_on channel=12 note=67 velocity=127 time=0
Time=10160 Track=13 note_on channel=12 note=67 velocity=0 time=0
Time=10165 Track=5 note_on channel=2 note=71 velocity=0 time=0
Time=10165 Track=13 note_on channel=12 note=62 velocity=127 time=5
Time=10165 Track=13 note_on channel=12 note=62 velocity=0 time=0
Time=10170 Track=5 note_on channel=2 note=71 velocity=104 time=5
Time=10185 Track=11 note_on channel=9 note=42 velocity=0 time=45
Time=10190 Track=5 note_on channel=2 note=67 velocity=0 time=20
Time=10190 Track=13 note_on channel=12 note=59 velocity=0 time=0
Time=10195 Track=5 note_on channel=2 note=71 velocity=0 time=0
Time=10195 Track=5 note_on channel=2 note=62 velocity=0 time=0
Time=10195 Track=13 note_on channel=12 note=59 velocity=127 time=0
Time=10195 Track=13 note_on channel=12 note=62 velocity=127 time=0
Time=10195 Track=13 note_on channel=12 note=67 velocity=127 time=0
Time=10195 Track=13 note_on channel=12 note=67 velocity=0 time=0
Time=10195 Track=13 note_on channel=12 note=62 velocity=0 time=0
Time=10200 Track=5 note_on channel=2 note=71 velocity=104 time=5
Time=10200 Track=5 note_on channel=2 note=67 velocity=104 time=0
Time=10200 Track=5 note_on channel=2 note=62 velocity=104 time=0
Time=10200 Track=11 note_on channel=9 note=36 velocity=120 time=15
Time=10200 Track=11 note_on channel=9 note=40 velocity=127 time=0
Time=10200 Track=11 note_on channel=9 note=42 velocity=125 time=0
Time=10225 Track=5 note_on channel=2 note=71 velocity=0 time=5
Time=10230 Track=5 note_on channel=2 note=71 velocity=103 time=5
Time=10240 Track=13 note_on channel=12 note=62 velocity=0 time=45
Time=10240 Track=13 note_on channel=12 note=59 velocity=0 time=0
Time=10250 Track=11 note_on channel=9 note=42 velocity=0 time=50
Time=10250 Track=13 note_on channel=12 note=67 velocity=0 time=10
Time=10255 Track=5 note_on channel=2 note=71 velocity=0 time=0
Time=10255 Track=5 note_on channel=2 note=67 velocity=0 time=0
Time=10255 Track=11 note_on channel=9 note=40 velocity=0 time=5
Time=10255 Track=11 note_on channel=9 note=36 velocity=0 time=0
Time=10260 Track=5 note_on channel=2 note=71 velocity=103 time=5
Time=10260 Track=5 note_on channel=2 note=67 velocity=103 time=0
Time=10260 Track=11 note_on channel=9 note=42 velocity=93 time=5
Time=10260 Track=13 note_on channel=12 note=63 velocity=106 time=10
Time=10260 Track=13 note_on channel=12 note=67 velocity=42 time=0
Time=10261 Track=13 note_on channel=12 note=63 velocity=0 time=1
Time=10265 Track=13 note_on channel=12 note=67 velocity=0 time=4
Time=10280 Track=13 note_on channel=12 note=67 velocity=80 time=0
Time=10285 Track=5 note_on channel=2 note=71 velocity=0 time=0
Time=10285 Track=13 note_on channel=12 note=63 velocity=34 time=0
Time=10285 Track=13 note_on channel=12 note=67 velocity=0 time=0
Time=10286 Track=13 note_on channel=12 note=63 velocity=0 time=1
Time=10290 Track=5 note_on channel=2 note=71 velocity=103 time=5
Time=10305 Track=11 note_on channel=9 note=42 velocity=0 time=45
Time=10315 Track=5 note_on channel=2 note=71 velocity=0 time=0
Time=10315 Track=5 note_on channel=2 note=67 velocity=0 time=0
Time=10315 Track=5 note_on channel=2 note=62 velocity=0 time=0
Time=10315 Track=13 note_on channel=12 note=67 velocity=127 time=0
Time=10315 Track=13 note_on channel=12 note=62 velocity=127 time=0
Time=10315 Track=13 note_on channel=12 note=59 velocity=127 time=0
Time=10320 Track=5 note_on channel=2 note=71 velocity=103 time=5
Time=10320 Track=5 note_on channel=2 note=67 velocity=103 time=0
Time=10320 Track=5 note_on channel=2 note=62 velocity=103 time=0
Time=10320 Track=11 note_on channel=9 note=36 velocity=120 time=15
Time=10320 Track=11 note_on channel=9 note=42 velocity=114 time=0
Time=10345 Track=5 note_on channel=2 note=67 velocity=0 time=0
Time=10350 Track=5 note_on channel=2 note=67 velocity=103 time=5
Time=10350 Track=5 note_on channel=2 note=71 velocity=103 time=0
Time=10350 Track=5 note_on channel=2 note=71 velocity=0 time=0
Time=10360 Track=13 note_on channel=12 note=59 velocity=0 time=45
Time=10360 Track=13 note_on channel=12 note=62 velocity=0 time=0
Time=10360 Track=13 note_on channel=12 note=67 velocity=0 time=0
Time=10365 Track=11 note_on channel=9 note=42 velocity=0 time=45
Time=10375 Track=5 note_on channel=2 note=62 velocity=0 time=0
Time=10375 Track=5 note_on channel=2 note=67 velocity=0 time=0
Time=10375 Track=5 note_on channel=2 note=71 velocity=0 time=0
Time=10375 Track=11 note_on channel=9 note=36 velocity=0 time=10
Time=10375 Track=13 note_on channel=12 note=59 velocity=51 time=0
Time=10380 Track=5 note_on channel=2 note=71 velocity=102 time=5
Time=10380 Track=5 note_on channel=2 note=67 velocity=103 time=0
Time=10380 Track=5 note_on channel=2 note=62 velocity=103 time=0
Time=10380 Track=11 note_on channel=9 note=42 velocity=94 time=5
Time=10380 Track=13 note_on channel=12 note=63 velocity=76 time=0
Time=10380 Track=13 note_on channel=12 note=67 velocity=29 time=0
Time=10380 Track=13 note_on channel=12 note=59 velocity=0 time=0
Time=10381 Track=13 note_on channel=12 note=63 velocity=0 time=1
Time=10385 Track=13 note_on channel=12 note=67 velocity=0 time=4
Time=10405 Track=5 note_on channel=2 note=67 velocity=0 time=0
Time=10405 Track=5 note_on channel=2 note=71 velocity=0 time=0
Time=10405 Track=13 note_on channel=12 note=67 velocity=73 time=0
Time=10410 Track=5 note_on channel=2 note=67 velocity=102 time=5
Time=10410 Track=5 note_on channel=2 note=71 velocity=102 time=0
Time=10410 Track=13 note_on channel=12 note=67 velocity=0 time=5
Time=10425 Track=11 note_on channel=9 note=42 velocity=0 time=45
Time=10435 Track=5 note_on channel=2 note=71 velocity=0 time=0
Time=10435 Track=5 note_on channel=2 note=67 velocity=0 time=0
Time=10435 Track=5 note_on channel=2 note=62 velocity=0 time=0
Time=10440 Track=5 note_on channel=2 note=71 velocity=102 time=5
Time=10440 Track=5 note_on channel=2 note=67 velocity=102 time=0
Time=10440 Track=5 note_on channel=2 note=62 velocity=102 time=0
Time=10440 Track=11 note_on channel=9 note=36 velocity=119 time=15
Time=10440 Track=11 note_on channel=9 note=40 velocity=127 time=0
Time=10440 Track=11 note_on channel=9 note=42 velocity=126 time=0
Time=10440 Track=13 note_on channel=12 note=59 velocity=127 time=30
Time=10440 Track=13 note_on channel=12 note=62 velocity=127 time=0
Time=10440 Track=13 note_on channel=12 note=67 velocity=95 time=0
Time=10465 Track=5 note_on channel=2 note=71 velocity=0 time=0
Time=10470 Track=5 note_on channel=2 note=71 velocity=102 time=5
Time=10470 Track=13 note_on channel=12 note=62 velocity=0 time=30
Time=10470 Track=13 note_on channel=12 note=59 velocity=0 time=0
Time=10475 Track=13 note_on channel=12 note=67 velocity=0 time=5
Time=10480 Track=11 note_on channel=9 note=42 velocity=0 time=40
Time=10490 Track=5 note_on channel=2 note=67 velocity=0 time=0
Time=10495 Track=5 note_on channel=2 note=62 velocity=0 time=0
Time=10495 Track=11 note_on channel=9 note=40 velocity=0 time=15
Time=10495 Track=11 note_on channel=9 note=36 velocity=0 time=0
Time=10500 Track=5 note_on channel=2 note=71 velocity=102 time=5
Time=10500 Track=5 note_on channel=2 note=67 velocity=102 time=0
Time=10500 Track=5 note_on channel=2 note=62 velocity=102 time=0
Time=10500 Track=5 note_on channel=2 note=71 velocity=0 time=0
Time=10500 Track=11 note_on channel=9 note=46 velocity=121 time=5
Time=10500 Track=13 note_on channel=12 note=59 velocity=127 time=25
Time=10500 Track=13 note_on channel=12 note=62 velocity=127 time=0
Time=10500 Track=13 note_on channel=12 note=67 velocity=127 time=0
Time=10520 Track=13 note_on channel=12 note=67 velocity=0 time=20
Time=10525 Track=5 note_on channel=2 note=71 velocity=0 time=0
Time=10525 Track=13 note_on channel=12 note=67 velocity=127 time=0
Time=10525 Track=13 note_on channel=12 note=62 velocity=127 time=0
Time=10525 Track=13 note_on channel=12 note=62 velocity=0 time=0
Time=10530 Track=5 note_on channel=2 note=71 velocity=102 time=5
Time=10545 Track=11 note_on channel=9 note=46 velocity=0 time=45
Time=10550 Track=13 note_on channel=12 note=59 velocity=0 time=25
Time=10555 Track=3 note_on channel=0 note=31 velocity=0 time=475
Time=10555 Track=4 note_on channel=1 note=31 velocity=0 time=475
Time=10555 Track=5 note_on channel=2 note=71 velocity=0 time=0
Time=10555 Track=5 note_on channel=2 note=67 velocity=0 time=0
Time=10555 Track=5 note_on channel=2 note=62 velocity=0 time=0
Time=10555 Track=13 note_on channel=12 note=59 velocity=127 time=0
Time=10555 Track=13 note_on channel=12 note=62 velocity=127 time=0
Time=10555 Track=13 note_on channel=12 note=62 velocity=0 time=0
Time=10560 Track=3 note_on channel=0 note=31 velocity=102 time=5
Time=10560 Track=4 note_on channel=1 note=31 velocity=100 time=5
Time=10560 Track=5 note_on channel=2 note=71 velocity=104 time=5
Time=10560 Track=5 note_on channel=2 note=67 velocity=104 time=0
Time=10560 Track=5 note_on channel=2 note=62 velocity=104 time=0
Time=10560 Track=11 note_on channel=9 note=36 velocity=121 time=15
Time=10560 Track=11 note_on channel=9 note=42 velocity=112 time=0
Time=10575 Track=13 note_on channel=12 note=67 velocity=0 time=20
Time=10580 Track=13 note_on channel=12 note=67 velocity=127 time=5
Time=10585 Track=5 note_on channel=2 note=71 velocity=0 time=0
Time=10585 Track=13 note_on channel=12 note=62 velocity=127 time=0
Time=10585 Track=13 note_on channel=12 note=62 velocity=0 time=0
Time=10590 Track=5 note_on channel=2 note=71 velocity=104 time=5
Time=10595 Track=11 note_on channel=9 note=42 velocity=0 time=35
Time=10605 Track=5 note_on channel=2 note=67 velocity=0 time=15
Time=10610 Track=5 note_on channel=2 note=62 velocity=0 time=5
Time=10610 Track=13 note_on channel=12 note=62 velocity=0 time=25
Time=10615 Track=5 note_on channel=2 note=71 velocity=0 time=0
Time=10615 Track=11 note_on channel=9 note=36 velocity=0 time=20
Time=10615 Track=13 note_on channel=12 note=59 velocity=127 time=5
Time=10615 Track=13 note_on channel=12 note=62 velocity=127 time=0
Time=10615 Track=13 note_on channel=12 note=59 velocity=0 time=0
Time=10620 Track=5 note_on channel=2 note=71 velocity=104 time=5
Time=10620 Track=5 note_on channel=2 note=67 velocity=104 time=0
Time=10620 Track=5 note_on channel=2 note=62 velocity=104 time=0
Time=10620 Track=11 note_on channel=9 note=42 velocity=83 time=5
Time=10640 Track=13 note_on channel=12 note=67 velocity=127 time=0
Time=10640 Track=13 note_on channel=12 note=67 velocity=0 time=0
Time=10645 Track=5 note_on channel=2 note=71 velocity=0 time=0
Time=10645 Track=13 note_on channel=12 note=62 velocity=127 time=0
Time=10645 Track=13 note_on channel=12 note=62 velocity=0 time=0
Time=10650 Track=5 note_on channel=2 note=71 velocity=104 time=5
Time=10665 Track=11 note_on channel=9 note=42 velocity=0 time=45
Time=10670 Track=5 note_on channel=2 note=67 velocity=0 time=20
Time=10670 Track=13 note_on channel=12 note=59 velocity=0 time=25
Time=10675 Track=5 note_on channel=2 note=71 velocity=0 time=0
Time=10675 Track=5 note_on channel=2 note=62 velocity=0 time=0
Time=10675 Track=13 note_on channel=12 note=59 velocity=127 time=0
Time=10675 Track=13 note_on channel=12 note=62 velocity=127 time=0
Time=10675 Track=13 note_on channel=12 note=67 velocity=127 time=0
Time=10675 Track=13 note_on channel=12 note=67 velocity=0 time=0
Time=10675 Track=13 note_on channel=12 note=62 velocity=0 time=0
Time=10680 Track=5 note_on channel=2 note=71 velocity=104 time=5
Time=10680 Track=5 note_on channel=2 note=67 velocity=104 time=0
Time=10680 Track=5 note_on channel=2 note=62 velocity=104 time=0
Time=10680 Track=11 note_on channel=9 note=36 velocity=120 time=15
Time=10680 Track=11 note_on channel=9 note=40 velocity=127 time=0
Time=10680 Track=11 note_on channel=9 note=42 velocity=125 time=0
Time=10705 Track=5 note_on channel=2 note=71 velocity=0 time=5
Time=10710 Track=5 note_on channel=2 note=71 velocity=103 time=5
Time=10720 Track=13 note_on channel=12 note=62 velocity=0 time=45
Time=10720 Track=13 note_on channel=12 note=59 velocity=0 time=0
Time=10730 Track=11 note_on channel=9 note=42 velocity=0 time=50
Time=10730 Track=13 note_on channel=12 note=67 velocity=0 time=10
Time=10735 Track=5 note_on channel=2 note=67 velocity=0 time=0
Time=10735 Track=11 note_on channel=9 note=40 velocity=0 time=5
Time=10735 Track=11 note_on channel=9 note=36 velocity=0 time=0
Time=10740 Track=5 note_on channel=2 note=71 velocity=103 time=5
Time=10740 Track=5 note_on channel=2 note=67 velocity=103 time=0
Time=10740 Track=5 note_on channel=2 note=71 velocity=0 time=0
Time=10740 Track=11 note_on channel=9 note=42 velocity=93 time=5
Time=10740 Track=13 note_on channel=12 note=63 velocity=116 time=0
Time=10741 Track=13 note_on channel=12 note=63 velocity=0 time=1
Time=10765 Track=5 note_on channel=2 note=71 velocity=0 time=0
Time=10765 Track=13 note_on channel=12 note=67 velocity=121 time=24
Time=10766 Track=13 note_on channel=12 note=67 velocity=0 time=1
Time=10770 Track=5 note_on channel=2 note=71 velocity=103 time=5
Time=10785 Track=11 note_on channel=9 note=42 velocity=0 time=45
Time=10795 Track=4 note_on channel=1 note=31 velocity=0 time=235
Time=10795 Track=5 note_on channel=2 note=71 velocity=0 time=0
Time=10795 Track=5 note_on channel=2 note=62 velocity=0 time=0
Time=10795 Track=5 note_on channel=2 note=67 velocity=0 time=0
Time=10800 Track=3 note_on channel=0 note=31 velocity=102 time=240
Time=10800 Track=3 note_on channel=0 note=31 velocity=0 time=0
Time=10800 Track=4 note_on channel=1 note=31 velocity=100 time=5
Time=10800 Track=5 note_on channel=2 note=71 velocity=103 time=5
Time=10800 Track=5 note_on channel=2 note=67 velocity=103 time=0
Time=10800 Track=5 note_on channel=2 note=62 velocity=103 time=0
Time=10800 Track=11 note_on channel=9 note=36 velocity=120 time=15
Time=10800 Track=11 note_on channel=9 note=42 velocity=114 time=0
Time=10800 Track=13 note_on channel=12 note=59 velocity=127 time=0
Time=10800 Track=13 note_on channel=12 note=67 velocity=127 time=0
Time=10800 Track=13 note_on channel=12 note=62 velocity=127 time=0
Time=10825 Track=5 note_on channel=2 note=67 velocity=0 time=0
Time=10830 Track=5 note_on channel=2 note=67 velocity=103 time=5
Time=10830 Track=5 note_on channel=2 note=71 velocity=103 time=0
Time=10830 Track=5 note_on channel=2 note=71 velocity=0 time=0
Time=10840 Track=13 note_on channel=12 note=62 velocity=0 time=40
Time=10840 Track=13 note_on channel=12 note=59 velocity=0 time=0
Time=10845 Track=11 note_on channel=9 note=42 velocity=0 time=45
Time=10845 Track=13 note_on channel=12 note=67 velocity=0 time=5
Time=10855 Track=5 note_on channel=2 note=62 velocity=0 time=0
Time=10855 Track=5 note_on channel=2 note=67 velocity=0 time=0
Time=10855 Track=5 note_on channel=2 note=71 velocity=0 time=0
Time=10855 Track=11 note_on channel=9 note=36 velocity=0 time=10
Time=10855 Track=13 note_on channel=12 note=59 velocity=70 time=10
Time=10860 Track=5 note_on channel=2 note=71 velocity=102 time=5
Time=10860 Track=5 note_on channel=2 note=67 velocity=103 time=0
Time=10860 Track=5 note_on channel=2 note=62 velocity=103 time=0
Time=10860 Track=11 note_on channel=9 note=42 velocity=94 time=5
Time=10860 Track=13 note_on channel=12 note=62 velocity=82 time=0
Time=10860 Track=13 note_on channel=12 note=63 velocity=82 time=0
Time=10860 Track=13 note_on channel=12 note=59 velocity=0 time=0
Time=10861 Track=13 note_on channel=12 note=63 velocity=0 time=1
Time=10861 Track=13 note_on channel=12 note=62 velocity=0 time=0
Time=10885 Track=5 note_on channel=2 note=67 velocity=0 time=0
Time=10890 Track=5 note_on channel=2 note=67 velocity=102 time=5
Time=10890 Track=5 note_on channel=2 note=71 velocity=102 time=0
Time=10890 Track=5 note_on channel=2 note=71 velocity=0 time=0
Time=10890 Track=13 note_on channel=12 note=67 velocity=102 time=0
Time=10890 Track=13 note_on channel=12 note=63 velocity=37 time=0
Time=10891 Track=13 note_on channel=12 note=63 velocity=0 time=1
Time=10891 Track=13 note_on channel=12 note=67 velocity=0 time=0
Time=10905 Track=11 note_on channel=9 note=42 velocity=0 time=45
Time=10915 Track=5 note_on channel=2 note=62 velocity=0 time=0
Time=10915 Track=5 note_on channel=2 note=67 velocity=0 time=0
Time=10915 Track=5 note_on channel=2 note=71 velocity=0 time=0
Time=10920 Track=5 note_on channel=2 note=71 velocity=102 time=5
Time=10920 Track=5 note_on channel=2 note=67 velocity=102 time=0
Time=10920 Track=5 note_on channel=2 note=62 velocity=102 time=0
Time=10920 Track=11 note_on channel=9 note=36 velocity=119 time=15
Time=10920 Track=11 note_on channel=9 note=40 velocity=127 time=0
Time=10920 Track=11 note_on channel=9 note=42 velocity=126 time=0
Time=10920 Track=13 note_on channel=12 note=59 velocity=92 time=0
Time=10925 Track=13 note_on channel=12 note=67 velocity=127 time=0
Time=10925 Track=13 note_on channel=12 note=62 velocity=127 time=0
Time=10945 Track=5 note_on channel=2 note=71 velocity=0 time=0
Time=10950 Track=5 note_on channel=2 note=71 velocity=102 time=5
Time=10955 Track=13 note_on channel=12 note=62 velocity=0 time=30
Time=10960 Track=11 note_on channel=9 note=42 velocity=0 time=40
Time=10960 Track=13 note_on channel=12 note=67 velocity=0 time=5
Time=10960 Track=13 note_on channel=12 note=59 velocity=0 time=0
Time=10970 Track=5 note_on channel=2 note=67 velocity=0 time=0
Time=10975 Track=5 note_on channel=2 note=62 velocity=0 time=0
Time=10975 Track=11 note_on channel=9 note=40 velocity=0 time=15
Time=10975 Track=11 note_on channel=9 note=36 velocity=0 time=0
Time=10980 Track=5 note_on channel=2 note=71 velocity=102 time=5
Time=10980 Track=5 note_on channel=2 note=67 velocity=102 time=0
Time=10980 Track=5 note_on channel=2 note=62 velocity=102 time=0
Time=10980 Track=5 note_on channel=2 note=71 velocity=0 time=0
Time=10980 Track=11 note_on channel=9 note=46 velocity=121 time=5
Time=10980 Track=13 note_on channel=12 note=59 velocity=127 time=20
Time=10980 Track=13 note_on channel=12 note=62 velocity=127 time=0
Time=10980 Track=13 note_on channel=12 note=67 velocity=127 time=0
Time=11000 Track=13 note_on channel=12 note=67 velocity=0 time=15
Time=11005 Track=5 note_on channel=2 note=71 velocity=0 time=0
Time=11005 Track=13 note_on channel=12 note=67 velocity=127 time=5
Time=11005 Track=13 note_on channel=12 note=62 velocity=127 time=0
Time=11005 Track=13 note_on channel=12 note=62 velocity=0 time=0
Time=11010 Track=5 note_on channel=2 note=71 velocity=102 time=5
Time=11025 Track=11 note_on channel=9 note=46 velocity=0 time=45
Time=11030 Track=13 note_on channel=12 note=59 velocity=0 time=25
Time=11035 Track=3 note_on channel=0 note=31 velocity=0 time=235
Time=11035 Track=4 note_on channel=1 note=31 velocity=0 time=235
Time=11035 Track=5 note_on channel=2 note=71 velocity=0 time=0
Time=11035 Track=5 note_on channel=2 note=67 velocity=0 time=0
Time=11035 Track=5 note_on channel=2 note=62 velocity=0 time=0
Time=11035 Track=13 note_on channel=12 note=59 velocity=127 time=5
Time=11035 Track=13 note_on channel=12 note=62 velocity=127 time=0
Time=11035 Track=13 note_on channel=12 note=62 velocity=0 time=0
Time=11040 Track=3 note_on channel=0 note=31 velocity=101 time=5
Time=11040 Track=4 note_on channel=1 note=31 velocity=99 time=5
Time=11040 Track=5 note_on channel=2 note=71 velocity=104 time=5
Time=11040 Track=5 note_on channel=2 note=67 velocity=104 time=0
Time=11040 Track=5 note_on channel=2 note=62 velocity=104 time=0
Time=11040 Track=11 note_on channel=9 note=36 velocity=121 time=15
Time=11040 Track=11 note_on channel=9 note=42 velocity=112 time=0
Time=11055 Track=13 note_on channel=12 note=67 velocity=0 time=20
Time=11060 Track=13 note_on channel=12 note=67 velocity=127 time=5
Time=11060 Track=13 note_on channel=12 note=62 velocity=0 time=0
Time=11065 Track=5 note_on channel=2 note=71 velocity=0 time=0
Time=11065 Track=13 note_on channel=12 note=62 velocity=127 time=5
Time=11070 Track=5 note_on channel=2 note=71 velocity=104 time=5
Time=11075 Track=11 note_on channel=9 note=42 velocity=0 time=35
Time=11085 Track=5 note_on channel=2 note=67 velocity=0 time=15
Time=11090 Track=5 note_on channel=2 note=62 velocity=0 time=0
Time=11090 Track=13 note_on channel=12 note=62 velocity=0 time=25
Time=11090 Track=13 note_on channel=12 note=59 velocity=0 time=0
Time=11095 Track=5 note_on channel=2 note=71 velocity=0 time=0
Time=11095 Track=11 note_on channel=9 note=36 velocity=0 time=20
Time=11095 Track=13 note_on channel=12 note=59 velocity=127 time=5
Time=11095 Track=13 note_on channel=12 note=62 velocity=127 time=0
Time=11100 Track=5 note_on channel=2 note=71 velocity=104 time=5
Time=11100 Track=5 note_on channel=2 note=67 velocity=104 time=0
Time=11100 Track=5 note_on channel=2 note=62 velocity=104 time=0
Time=11100 Track=11 note_on channel=9 note=42 velocity=83 time=5
Time=11120 Track=13 note_on channel=12 note=67 velocity=127 time=25
Time=11120 Track=13 note_on channel=12 note=67 velocity=0 time=0
Time=11125 Track=5 note_on channel=2 note=71 velocity=0 time=0
Time=11125 Track=13 note_on channel=12 note=62 velocity=127 time=5
Time=11125 Track=13 note_on channel=12 note=62 velocity=0 time=0
Time=11130 Track=5 note_on channel=2 note=71 velocity=104 time=5
Time=11145 Track=11 note_on channel=9 note=42 velocity=0 time=45
Time=11150 Track=5 note_on channel=2 note=67 velocity=0 time=0
Time=11150 Track=13 note_on channel=12 note=59 velocity=0 time=25
Time=11155 Track=4 note_on channel=1 note=31 velocity=0 time=115
Time=11155 Track=5 note_on channel=2 note=71 velocity=0 time=0
Time=11155 Track=5 note_on channel=2 note=62 velocity=0 time=0
Time=11155 Track=13 note_on channel=12 note=59 velocity=127 time=5
Time=11155 Track=13 note_on channel=12 note=62 velocity=127 time=0
Time=11155 Track=13 note_on channel=12 note=67 velocity=127 time=0
Time=11155 Track=13 note_on channel=12 note=67 velocity=0 time=0
Time=11155 Track=13 note_on channel=12 note=62 velocity=0 time=0
Time=11160 Track=3 note_on channel=0 note=31 velocity=101 time=120
Time=11160 Track=3 note_on channel=0 note=31 velocity=0 time=0
Time=11160 Track=4 note_on channel=1 note=31 velocity=99 time=5
Time=11160 Track=5 note_on channel=2 note=71 velocity=104 time=5
Time=11160 Track=5 note_on channel=2 note=67 velocity=104 time=0
Time=11160 Track=5 note_on channel=2 note=62 velocity=104 time=0
Time=11160 Track=11 note_on channel=9 note=36 velocity=120 time=15
Time=11160 Track=11 note_on channel=9 note=40 velocity=127 time=0
Time=11160 Track=11 note_on channel=9 note=42 velocity=125 time=0
Time=11185 Track=5 note_on channel=2 note=71 velocity=0 time=5
Time=11190 Track=5 note_on channel=2 note=71 velocity=103 time=5
Time=11200 Track=13 note_on channel=12 note=62 velocity=0 time=45
Time=11200 Track=13 note_on channel=12 note=59 velocity=0 time=0
Time=11210 Track=11 note_on channel=9 note=42 velocity=0 time=50
Time=11210 Track=13 note_on channel=12 note=67 velocity=0 time=10
Time=11215 Track=5 note_on channel=2 note=71 velocity=0 time=0
Time=11215 Track=5 note_on channel=2 note=67 velocity=0 time=0
Time=11215 Track=11 note_on channel=9 note=40 velocity=0 time=5
Time=11215 Track=11 note_on channel=9 note=36 velocity=0 time=0
Time=11220 Track=5 note_on channel=2 note=71 velocity=103 time=5
Time=11220 Track=5 note_on channel=2 note=67 velocity=103 time=0
Time=11220 Track=11 note_on channel=9 note=42 velocity=93 time=5
Time=11220 Track=13 note_on channel=12 note=63 velocity=106 time=10
Time=11220 Track=13 note_on channel=12 note=67 velocity=42 time=0
Time=11221 Track=13 note_on channel=12 note=63 velocity=0 time=1
Time=11225 Track=13 note_on channel=12 note=67 velocity=0 time=4
Time=11240 Track=13 note_on channel=12 note=67 velocity=80 time=15
Time=11245 Track=5 note_on channel=2 note=71 velocity=0 time=0
Time=11245 Track=13 note_on channel=12 note=63 velocity=34 time=5
Time=11245 Track=13 note_on channel=12 note=67 velocity=0 time=0
Time=11246 Track=13 note_on channel=12 note=63 velocity=0 time=1
Time=11250 Track=5 note_on channel=2 note=71 velocity=103 time=5
Time=11265 Track=11 note_on channel=9 note=42 velocity=0 time=45
Time=11275 Track=4 note_on channel=1 note=31 velocity=0 time=115
Time=11275 Track=5 note_on channel=2 note=71 velocity=0 time=0
Time=11275 Track=5 note_on channel=2 note=67 velocity=0 time=0
Time=11275 Track=5 note_on channel=2 note=62 velocity=0 time=0
Time=11275 Track=13 note_on channel=12 note=67 velocity=127 time=29
Time=11275 Track=13 note_on channel=12 note=62 velocity=127 time=0
Time=11275 Track=13 note_on channel=12 note=59 velocity=127 time=0
Time=11280 Track=3 note_on channel=0 note=31 velocity=101 time=120
Time=11280 Track=3 note_on channel=0 note=31 velocity=0 time=0
Time=11280 Track=4 note_on channel=1 note=31 velocity=99 time=5
Time=11280 Track=5 note_on channel=2 note=71 velocity=103 time=5
Time=11280 Track=5 note_on channel=2 note=67 velocity=103 time=0
Time=11280 Track=5 note_on channel=2 note=62 velocity=103 time=0
Time=11280 Track=11 note_on channel=9 note=36 velocity=120 time=15
Time=11280 Track=11 note_on channel=9 note=42 velocity=114 time=0
Time=11305 Track=5 note_on channel=2 note=67 velocity=0 time=0
Time=11310 Track=5 note_on channel=2 note=67 velocity=103 time=5
Time=11310 Track=5 note_on channel=2 note=71 velocity=103 time=0
Time=11310 Track=5 note_on channel=2 note=71 velocity=0 time=0
Time=11320 Track=13 note_on channel=12 note=59 velocity=0 time=45
Time=11320 Track=13 note_on channel=12 note=62 velocity=0 time=0
Time=11320 Track=13 note_on channel=12 note=67 velocity=0 time=0
Time=11325 Track=11 note_on channel=9 note=42 velocity=0 time=45
Time=11335 Track=5 note_on channel=2 note=62 velocity=0 time=0
Time=11335 Track=5 note_on channel=2 note=67 velocity=0 time=0
Time=11335 Track=5 note_on channel=2 note=71 velocity=0 time=0
Time=11335 Track=11 note_on channel=9 note=36 velocity=0 time=10
Time=11335 Track=13 note_on channel=12 note=59 velocity=51 time=15
Time=11340 Track=5 note_on channel=2 note=71 velocity=102 time=5
Time=11340 Track=5 note_on channel=2 note=67 velocity=103 time=0
Time=11340 Track=5 note_on channel=2 note=62 velocity=103 time=0
Time=11340 Track=11 note_on channel=9 note=42 velocity=94 time=5
Time=11340 Track=13 note_on channel=12 note=63 velocity=76 time=5
Time=11340 Track=13 note_on channel=12 note=67 velocity=29 time=0
Time=11340 Track=13 note_on channel=12 note=59 velocity=0 time=0
Time=11341 Track=13 note_on channel=12 note=63 velocity=0 time=1
Time=11345 Track=13 note_on channel=12 note=67 velocity=0 time=4
Time=11365 Track=5 note_on channel=2 note=67 velocity=0 time=0
Time=11365 Track=5 note_on channel=2 note=71 velocity=0 time=0
Time=11365 Track=13 note_on channel=12 note=67 velocity=73 time=20
Time=11370 Track=5 note_on channel=2 note=67 velocity=102 time=5
Time=11370 Track=5 note_on channel=2 note=71 velocity=102 time=0
Time=11370 Track=13 note_on channel=12 note=67 velocity=0 time=5
Time=11385 Track=11 note_on channel=9 note=42 velocity=0 time=45
Time=11395 Track=4 note_on channel=1 note=31 velocity=0 time=115
Time=11395 Track=5 note_on channel=2 note=71 velocity=0 time=0
Time=11395 Track=5 note_on channel=2 note=67 velocity=0 time=0
Time=11395 Track=5 note_on channel=2 note=62 velocity=0 time=0
Time=11400 Track=3 note_on channel=0 note=31 velocity=101 time=120
Time=11400 Track=3 note_on channel=0 note=31 velocity=0 time=0
Time=11400 Track=4 note_on channel=1 note=31 velocity=99 time=5
Time=11400 Track=5 note_on channel=2 note=71 velocity=102 time=5
Time=11400 Track=5 note_on channel=2 note=67 velocity=102 time=0
Time=11400 Track=5 note_on channel=2 note=62 velocity=102 time=0
Time=11400 Track=11 note_on channel=9 note=36 velocity=119 time=15
Time=11400 Track=11 note_on channel=9 note=40 velocity=127 time=0
Time=11400 Track=11 note_on channel=9 note=42 velocity=126 time=0
Time=11400 Track=13 note_on channel=12 note=59 velocity=127 time=30
Time=11400 Track=13 note_on channel=12 note=62 velocity=127 time=0
Time=11400 Track=13 note_on channel=12 note=67 velocity=95 time=0
Time=11425 Track=5 note_on channel=2 note=71 velocity=0 time=0
Time=11430 Track=5 note_on channel=2 note=71 velocity=102 time=5
Time=11430 Track=13 note_on channel=12 note=62 velocity=0 time=30
Time=11430 Track=13 note_on channel=12 note=59 velocity=0 time=0
Time=11435 Track=13 note_on channel=12 note=67 velocity=0 time=5
Time=11440 Track=11 note_on channel=9 note=42 velocity=0 time=40
Time=11450 Track=5 note_on channel=2 note=67 velocity=0 time=0
Time=11455 Track=5 note_on channel=2 note=62 velocity=0 time=0
Time=11455 Track=11 note_on channel=9 note=40 velocity=0 time=15
Time=11455 Track=11 note_on channel=9 note=36 velocity=0 time=0
Time=11460 Track=5 note_on channel=2 note=71 velocity=102 time=5
Time=11460 Track=5 note_on channel=2 note=67 velocity=102 time=0
Time=11460 Track=5 note_on channel=2 note=62 velocity=102 time=0
Time=11460 Track=5 note_on channel=2 note=71 velocity=0 time=0
Time=11460 Track=11 note_on channel=9 note=46 velocity=121 time=5
Time=11460 Track=13 note_on channel=12 note=63 velocity=116 time=25
Time=11461 Track=13 note_on channel=12 note=63 velocity=0 time=1
Time=11485 Track=5 note_on channel=2 note=71 velocity=0 time=5
Time=11485 Track=13 note_on channel=12 note=67 velocity=121 time=24
Time=11486 Track=13 note_on channel=12 note=67 velocity=0 time=1
Time=11490 Track=5 note_on channel=2 note=71 velocity=102 time=5
Time=11505 Track=11 note_on channel=9 note=46 velocity=0 time=45
Time=11510 Track=5 note_on channel=2 note=50 velocity=101 time=20
Time=11510 Track=6 note_on channel=3 note=50 velocity=101 time=1914
Time=11515 Track=3 note_on channel=0 note=31 velocity=0 time=115
Time=11515 Track=4 note_on channel=1 note=31 velocity=0 time=115
Time=11515 Track=5 note_on channel=2 note=62 velocity=104 time=5
Time=11515 Track=5 note_on channel=2 note=57 velocity=91 time=0
Time=11515 Track=5 note_on channel=2 note=71 velocity=0 time=0
Time=11515 Track=5 note_on channel=2 note=62 velocity=0 time=0
Time=11515 Track=5 note_on channel=2 note=67 velocity=0 time=0
Time=11515 Track=6 note_on channel=3 note=62 velocity=104 time=5
Time=11515 Track=6 note_on channel=3 note=57 velocity=91 time=0
Time=11515 Track=10 note_on channel=8 note=43 velocity=0 time=1915
Time=11515 Track=10 note_on channel=8 note=55 velocity=0 time=0
Time=11515 Track=12 note_on channel=10 note=55 velocity=0 time=1915
Time=11520 Track=3 note_on channel=0 note=38 velocity=103 time=5
Time=11520 Track=4 note_on channel=1 note=38 velocity=101 time=5
Time=11520 Track=5 note_on channel=2 note=65 velocity=94 time=5
Time=11520 Track=6 note_on channel=3 note=65 velocity=94 time=5
Time=11520 Track=11 note_on channel=9 note=36 velocity=121 time=15
Time=11520 Track=11 note_on channel=9 note=42 velocity=112 time=0
Time=11520 Track=11 note_on channel=9 note=49 velocity=92 time=0
Time=11525 Track=5 note_on channel=2 note=69 velocity=96 time=5
Time=11525 Track=6 note_on channel=3 note=69 velocity=96 time=5
Time=11555 Track=11 note_on channel=9 note=42 velocity=0 time=35
Time=11570 Track=5 note_on channel=2 note=62 velocity=0 time=45
Time=11575 Track=11 note_on channel=9 note=49 velocity=0 time=20
Time=11575 Track=11 note_on channel=9 note=36 velocity=0 time=0
Time=11580 Track=11 note_on channel=9 note=42 velocity=83 time=5
Time=11605 Track=5 note_on channel=2 note=65 velocity=108 time=35
Time=11605 Track=5 note_on channel=2 note=65 velocity=0 time=0
Time=11605 Track=6 note_on channel=3 note=65 velocity=108 time=80
Time=11605 Track=6 note_on channel=3 note=65 velocity=0 time=0
Time=11605 Track=7 note_on channel=4 note=65 velocity=107 time=0
Time=11610 Track=5 note_on channel=2 note=62 velocity=97 time=5
Time=11610 Track=6 note_on channel=3 note=62 velocity=97 time=5
Time=11610 Track=6 note_on channel=3 note=62 velocity=0 time=0
Time=11610 Track=7 note_on channel=4 note=62 velocity=105 time=5
Time=11610 Track=7 note_on channel=4 note=65 velocity=0 time=0
Time=11611 Track=5 note_on channel=2 note=62 velocity=0 time=1
Time=11615 Track=7 note_on channel=4 note=62 velocity=0 time=5
Time=11625 Track=11 note_on channel=9 note=42 velocity=0 time=45
Time=11630 Track=5 note_on channel=2 note=57 velocity=0 time=19
Time=11630 Track=6 note_on channel=3 note=57 velocity=0 time=20
Time=11630 Track=7 note_on channel=4 note=57 velocity=107 time=0
Time=11635 Track=4 note_on channel=1 note=38 velocity=0 time=115
Time=11635 Track=5 note_on channel=2 note=57 velocity=100 time=5
Time=11635 Track=5 note_on channel=2 note=62 velocity=108 time=0
Time=11635 Track=5 note_on channel=2 note=69 velocity=0 time=0
Time=11635 Track=6 note_on channel=3 note=57 velocity=100 time=5
Time=11635 Track=6 note_on channel=3 note=62 velocity=108 time=0
Time=11635 Track=6 note_on channel=3 note=69 velocity=0 time=0
Time=11635 Track=6 note_on channel=3 note=62 velocity=0 time=0
Time=11635 Track=7 note_on channel=4 note=62 velocity=107 time=5
Time=11640 Track=3 note_on channel=0 note=38 velocity=0 time=120
Time=11640 Track=5 note_on channel=2 note=65 velocity=90 time=5
Time=11640 Track=5 note_on channel=2 note=62 velocity=0 time=0
Time=11640 Track=5 note_on channel=2 note=65 velocity=0 time=0
Time=11640 Track=6 note_on channel=3 note=65 velocity=90 time=5
Time=11640 Track=6 note_on channel=3 note=65 velocity=0 time=0
Time=11640 Track=7 note_on channel=4 note=65 velocity=98 time=5
Time=11640 Track=7 note_on channel=4 note=57 velocity=0 time=0
Time=11640 Track=11 note_on channel=9 note=36 velocity=120 time=15
Time=11640 Track=11 note_on channel=9 note=40 velocity=127 time=0
Time=11640 Track=11 note_on channel=9 note=42 velocity=125 time=0
Time=11645 Track=7 note_on channel=4 note=65 velocity=0 time=5
Time=11645 Track=7 note_on channel=4 note=62 velocity=0 time=0
Time=11655 Track=5 note_on channel=2 note=50 velocity=0 time=15
Time=11655 Track=6 note_on channel=3 note=50 velocity=0 time=15
Time=11670 Track=5 note_on channel=2 note=57 velocity=0 time=15
Time=11670 Track=6 note_on channel=3 note=57 velocity=0 time=15
Time=11690 Track=5 note_on channel=2 note=57 velocity=89 time=20
Time=11690 Track=5 note_on channel=2 note=65 velocity=0 time=0
Time=11690 Track=6 note_on channel=3 note=57 velocity=89 time=20
Time=11690 Track=6 note_on channel=3 note=65 velocity=0 time=0
Time=11690 Track=11 note_on channel=9 note=42 velocity=0 time=50
Time=11695 Track=5 note_on channel=2 note=60 velocity=116 time=5
Time=11695 Track=6 note_on channel=3 note=60 velocity=116 time=5
Time=11695 Track=11 note_on channel=9 note=40 velocity=0 time=5
Time=11695 Track=11 note_on channel=9 note=36 velocity=0 time=0
Time=11700 Track=3 note_on channel=0 note=36 velocity=102 time=60
Time=11700 Track=4 note_on channel=1 note=36 velocity=101 time=65
Time=11700 Track=5 note_on channel=2 note=65 velocity=106 time=5
Time=11700 Track=6 note_on channel=3 note=65 velocity=106 time=5
Time=11700 Track=11 note_on channel=9 note=42 velocity=93 time=5
Time=11705 Track=6 note_on channel=3 note=62 velocity=0 time=5
Time=11745 Track=11 note_on channel=9 note=42 velocity=0 time=45
Time=11755 Track=3 note_on channel=0 note=36 velocity=0 time=55
Time=11755 Track=4 note_on channel=1 note=36 velocity=0 time=55
Time=11755 Track=5 note_on channel=2 note=57 velocity=91 time=55
Time=11755 Track=5 note_on channel=2 note=62 velocity=113 time=0
Time=11755 Track=5 note_on channel=2 note=60 velocity=0 time=0
Time=11755 Track=5 note_on channel=2 note=57 velocity=0 time=0
Time=11755 Track=6 note_on channel=3 note=57 velocity=91 time=50
Time=11755 Track=6 note_on channel=3 note=62 velocity=113 time=0
Time=11755 Track=6 note_on channel=3 note=57 velocity=0 time=0
Time=11755 Track=6 note_on channel=3 note=60 velocity=0 time=0
Time=11755 Track=7 note_on channel=4 note=57 velocity=99 time=5
Time=11755 Track=7 note_on channel=4 note=62 velocity=107 time=0
Time=11760 Track=3 note_on channel=0 note=38 velocity=102 time=5
Time=11760 Track=4 note_on channel=1 note=38 velocity=101 time=5
Time=11760 Track=5 note_on channel=2 note=65 velocity=96 time=5
Time=11760 Track=5 note_on channel=2 note=65 velocity=0 time=0
Time=11760 Track=6 note_on channel=3 note=65 velocity=96 time=5
Time=11760 Track=6 note_on channel=3 note=65 velocity=0 time=0
Time=11760 Track=7 note_on channel=4 note=65 velocity=104 time=5
Time=11760 Track=11 note_on channel=9 note=36 velocity=120 time=15
Time=11760 Track=11 note_on channel=9 note=42 velocity=114 time=0
Time=11765 Track=7 note_on channel=4 note=65 velocity=0 time=5
Time=11765 Track=7 note_on channel=4 note=62 velocity=0 time=0
Time=11765 Track=7 note_on channel=4 note=57 velocity=0 time=0
Time=11790 Track=5 note_on channel=2 note=62 velocity=0 time=30
Time=11790 Track=6 note_on channel=3 note=62 velocity=0 time=30
Time=11800 Track=4 note_on channel=1 note=38 velocity=0 time=40
Time=11805 Track=3 note_on channel=0 note=38 velocity=0 time=45
Time=11805 Track=11 note_on channel=9 note=42 velocity=0 time=45
Time=11815 Track=11 note_on channel=9 note=36 velocity=0 time=10
Time=11820 Track=5 note_on channel=2 note=74 velocity=113 time=30
Time=11820 Track=5 note_on channel=2 note=69 velocity=113 time=0
Time=11820 Track=5 note_on channel=2 note=65 velocity=113 time=0
Time=11820 Track=5 note_on channel=2 note=57 velocity=0 time=0
Time=11820 Track=5 note_on channel=2 note=65 velocity=0 time=0
Time=11820 Track=6 note_on channel=3 note=57 velocity=0 time=30
Time=11820 Track=6 note_on channel=3 note=65 velocity=0 time=0
Time=11820 Track=11 note_on channel=9 note=42 velocity=94 time=5
Time=11820 Track=14 note_on channel=13 note=68 velocity=127 time=11615
Time=11820 Track=14 note_on channel=13 note=73 velocity=127 time=0
Time=11820 Track=14 note_on channel=13 note=64 velocity=126 time=0
Time=11821 Track=14 note_on channel=13 note=73 velocity=0 time=1
Time=11830 Track=14 note_on channel=13 note=74 velocity=127 time=5
Time=11830 Track=14 note_on channel=13 note=69 velocity=127 time=0
Time=11830 Track=14 note_on channel=13 note=64 velocity=0 time=0
Time=11830 Track=14 note_on channel=13 note=68 velocity=0 time=0
Time=11835 Track=14 note_on channel=13 note=65 velocity=126 time=0
Time=11845 Track=5 note_on channel=2 note=74 velocity=0 time=20
Time=11845 Track=14 note_on channel=13 note=65 velocity=0 time=10
Time=11850 Track=5 note_on channel=2 note=69 velocity=0 time=5
Time=11850 Track=14 note_on channel=13 note=74 velocity=0 time=5
Time=11850 Track=14 note_on channel=13 note=69 velocity=0 time=0
Time=11855 Track=5 note_on channel=2 note=65 velocity=0 time=5
Time=11865 Track=11 note_on channel=9 note=42 velocity=0 time=45
Time=11880 Track=11 note_on channel=9 note=36 velocity=119 time=15
Time=11880 Track=11 note_on channel=9 note=40 velocity=127 time=0
Time=11880 Track=11 note_on channel=9 note=42 velocity=126 time=0
Time=11910 Track=5 note_on channel=2 note=64 velocity=113 time=55
Time=11910 Track=14 note_on channel=13 note=64 velocity=127 time=60
Time=11910 Track=14 note_on channel=13 note=67 velocity=127 time=0
Time=11910 Track=14 note_on channel=13 note=72 velocity=127 time=0
Time=11915 Track=5 note_on channel=2 note=72 velocity=113 time=0
Time=11915 Track=5 note_on channel=2 note=67 velocity=113 time=0
Time=11920 Track=11 note_on channel=9 note=42 velocity=0 time=40
Time=11935 Track=11 note_on channel=9 note=40 velocity=0 time=15
Time=11935 Track=11 note_on channel=9 note=36 velocity=0 time=0
Time=11935 Track=14 note_on channel=13 note=72 velocity=0 time=20
Time=11940 Track=11 note_on channel=9 note=46 velocity=121 time=5
Time=11940 Track=14 note_on channel=13 note=67 velocity=0 time=5
Time=11940 Track=14 note_on channel=13 note=64 velocity=0 time=0
Time=11950 Track=5 note_on channel=2 note=67 velocity=0 time=35
Time=11950 Track=5 note_on channel=2 note=72 velocity=0 time=0
Time=11950 Track=5 note_on channel=2 note=64 velocity=0 time=0
Time=11985 Track=11 note_on channel=9 note=46 velocity=0 time=45
Time=11995 Track=14 note_on channel=13 note=65 velocity=127 time=0
Time=12000 Track=3 note_on channel=0 note=38 velocity=101 time=195
Time=12000 Track=4 note_on channel=1 note=38 velocity=100 time=200
Time=12000 Track=5 note_on channel=2 note=65 velocity=113 time=0
Time=12000 Track=5 note_on channel=2 note=74 velocity=113 time=0
Time=12000 Track=11 note_on channel=9 note=36 velocity=121 time=15
Time=12000 Track=11 note_on channel=9 note=42 velocity=112 time=0
Time=12000 Track=14 note_on channel=13 note=74 velocity=127 time=0
Time=12000 Track=14 note_on channel=13 note=69 velocity=72 time=0
Time=12005 Track=5 note_on channel=2 note=69 velocity=113 time=0
Time=12035 Track=11 note_on channel=9 note=42 velocity=0 time=35
Time=12055 Track=11 note_on channel=9 note=36 velocity=0 time=20
Time=12060 Track=11 note_on channel=9 note=42 velocity=83 time=5
Time=12085 Track=14 note_on channel=13 note=74 velocity=127 time=0
Time=12085 Track=14 note_on channel=13 note=74 velocity=0 time=0
Time=12090 Track=5 note_on channel=2 note=74 velocity=0 time=85
Time=12090 Track=14 note_on channel=13 note=69 velocity=123 time=0
Time=12090 Track=14 note_on channel=13 note=69 velocity=0 time=0
Time=12095 Track=5 note_on channel=2 note=74 velocity=65 time=0
Time=12095 Track=5 note_on channel=2 note=69 velocity=0 time=0
Time=12100 Track=5 note_on channel=2 note=69 velocity=113 time=5
Time=12105 Track=11 note_on channel=9 note=42 velocity=0 time=45
Time=12115 Track=4 note_on channel=1 note=38 velocity=0 time=115
Time=12115 Track=5 note_on channel=2 note=69 velocity=0 time=15
Time=12120 Track=3 note_on channel=0 note=38 velocity=0 time=120
Time=12120 Track=11 note_on channel=9 note=36 velocity=120 time=15
Time=12120 Track=11 note_on channel=9 note=40 velocity=127 time=0
Time=12120 Track=11 note_on channel=9 note=42 velocity=125 time=0
Time=12120 Track=14 note_on channel=13 note=65 velocity=0 time=30
Time=12125 Track=5 note_on channel=2 note=74 velocity=104 time=0
Time=12125 Track=5 note_on channel=2 note=69 velocity=113 time=0
Time=12125 Track=5 note_on channel=2 note=74 velocity=0 time=0
Time=12125 Track=5 note_on channel=2 note=65 velocity=0 time=0
Time=12125 Track=14 note_on channel=13 note=69 velocity=0 time=5
Time=12130 Track=5 note_on channel=2 note=74 velocity=0 time=5
Time=12130 Track=5 note_on channel=2 note=69 velocity=0 time=0
Time=12130 Track=14 note_on channel=13 note=74 velocity=0 time=5
Time=12170 Track=11 note_on channel=9 note=42 velocity=0 time=50
Time=12175 Track=5 note_on channel=2 note=64 velocity=113 time=45
Time=12175 Track=11 note_on channel=9 note=40 velocity=0 time=5
Time=12175 Track=11 note_on channel=9 note=36 velocity=0 time=0
Time=12175 Track=14 note_on channel=13 note=64 velocity=127 time=45
Time=12175 Track=14 note_on channel=13 note=67 velocity=127 time=0
Time=12180 Track=3 note_on channel=0 note=38 velocity=101 time=60
Time=12180 Track=4 note_on channel=1 note=38 velocity=99 time=65
Time=12180 Track=5 note_on channel=2 note=72 velocity=113 time=0
Time=12180 Track=11 note_on channel=9 note=42 velocity=93 time=5
Time=12180 Track=14 note_on channel=13 note=72 velocity=127 time=5
Time=12185 Track=5 note_on channel=2 note=67 velocity=113 time=0
Time=12200 Track=5 note_on channel=2 note=67 velocity=0 time=15
Time=12200 Track=14 note_on channel=13 note=72 velocity=0 time=20
Time=12200 Track=14 note_on channel=13 note=67 velocity=0 time=0
Time=12200 Track=14 note_on channel=13 note=64 velocity=0 time=0
Time=12205 Track=5 note_on channel=2 note=72 velocity=0 time=5
Time=12205 Track=5 note_on channel=2 note=64 velocity=0 time=0
Time=12225 Track=3 note_on channel=0 note=38 velocity=0 time=45
Time=12225 Track=4 note_on channel=1 note=38 velocity=0 time=45
Time=12225 Track=11 note_on channel=9 note=42 velocity=0 time=45
Time=12230 Track=14 note_on channel=13 note=64 velocity=127 time=0
Time=12235 Track=5 note_on channel=2 note=64 velocity=113 time=0
Time=12235 Track=14 note_on channel=13 note=67 velocity=127 time=0
Time=12235 Track=14 note_on channel=13 note=72 velocity=127 time=0
Time=12240 Track=3 note_on channel=0 note=33 velocity=101 time=15
Time=12240 Track=4 note_on channel=1 note=33 velocity=99 time=15
Time=12240 Track=5 note_on channel=2 note=72 velocity=113 time=0
Time=12240 Track=5 note_on channel=2 note=67 velocity=113 time=0
Time=12240 Track=11 note_on channel=9 note=36 velocity=120 time=15
Time=12240 Track=11 note_on channel=9 note=42 velocity=114 time=0
Time=12255 Track=14 note_on channel=13 note=64 velocity=0 time=20
Time=12260 Track=5 note_on channel=2 note=64 velocity=0 time=20
Time=12260 Track=14 note_on channel=13 note=72 velocity=0 time=5
Time=12260 Track=14 note_on channel=13 note=67 velocity=0 time=0
Time=12270 Track=5 note_on channel=2 note=67 velocity=0 time=10
Time=12270 Track=5 note_on channel=2 note=72 velocity=0 time=0
Time=12285 Track=11 note_on channel=9 note=42 velocity=0 time=45
Time=12295 Track=11 note_on channel=9 note=36 velocity=0 time=10
Time=12295 Track=14 note_on channel=13 note=62 velocity=127 time=0
Time=12300 Track=5 note_on channel=2 note=62 velocity=113 time=0
Time=12300 Track=11 note_on channel=9 note=42 velocity=94 time=5
Time=12300 Track=14 note_on channel=13 note=67 velocity=127 time=0
Time=12300 Track=14 note_on channel=13 note=71 velocity=73 time=0
Time=12305 Track=5 note_on channel=2 note=67 velocity=113 time=5
Time=12305 Track=5 note_on channel=2 note=71 velocity=113 time=0
Time=12320 Track=14 note_on channel=13 note=71 velocity=0 time=20
Time=12325 Track=5 note_on channel=2 note=71 velocity=0 time=20
Time=12325 Track=14 note_on channel=13 note=71 velocity=106 time=0
Time=12330 Track=5 note_on channel=2 note=71 velocity=113 time=0
Time=12330 Track=5 note_on channel=2 note=67 velocity=0 time=0
Time=12335 Track=5 note_on channel=2 note=67 velocity=54 time=0
Time=12345 Track=11 note_on channel=9 note=42 velocity=0 time=45
Time=12350 Track=5 note_on channel=2 note=62 velocity=0 time=15
Time=12350 Track=14 note_on channel=13 note=62 velocity=0 time=25
Time=12355 Track=4 note_on channel=1 note=33 velocity=0 time=115
Time=12355 Track=5 note_on channel=2 note=62 velocity=113 time=0
Time=12355 Track=5 note_on channel=2 note=67 velocity=0 time=0
Time=12355 Track=5 note_on channel=2 note=71 velocity=0 time=0
Time=12355 Track=14 note_on channel=13 note=62 velocity=127 time=0
Time=12355 Track=14 note_on channel=13 note=71 velocity=107 time=0
Time=12355 Track=14 note_on channel=13 note=67 velocity=127 time=0
Time=12355 Track=14 note_on channel=13 note=71 velocity=0 time=0
Time=12355 Track=14 note_on channel=13 note=67 velocity=0 time=0
Time=12356 Track=14 note_on channel=13 note=71 velocity=0 time=1
Time=12360 Track=3 note_on channel=0 note=31 velocity=100 time=120
Time=12360 Track=3 note_on channel=0 note=33 velocity=0 time=0
Time=12360 Track=4 note_on channel=1 note=31 velocity=99 time=5
Time=12360 Track=5 note_on channel=2 note=67 velocity=113 time=0
Time=12360 Track=5 note_on channel=2 note=71 velocity=113 time=0
Time=12360 Track=11 note_on channel=9 note=36 velocity=119 time=15
Time=12360 Track=11 note_on channel=9 note=40 velocity=127 time=0
Time=12360 Track=11 note_on channel=9 note=42 velocity=126 time=0
Time=12360 Track=14 note_on channel=13 note=71 velocity=127 time=0
Time=12385 Track=5 note_on channel=2 note=71 velocity=0 time=25
Time=12385 Track=5 note_on channel=2 note=67 velocity=0 time=0
Time=12385 Track=5 note_on channel=2 note=62 velocity=0 time=0
Time=12385 Track=14 note_on channel=13 note=71 velocity=0 time=25
Time=12385 Track=14 note_on channel=13 note=62 velocity=0 time=0
Time=12385 Track=14 note_on channel=13 note=67 velocity=0 time=0
Time=12400 Track=11 note_on channel=9 note=42 velocity=0 time=40
Time=12415 Track=11 note_on channel=9 note=40 velocity=0 time=15
Time=12415 Track=11 note_on channel=9 note=36 velocity=0 time=0
Time=12415 Track=14 note_on channel=13 note=65 velocity=127 time=0
Time=12415 Track=14 note_on channel=13 note=69 velocity=127 time=0
Time=12420 Track=5 note_on channel=2 note=65 velocity=113 time=5
Time=12420 Track=5 note_on channel=2 note=60 velocity=113 time=0
Time=12420 Track=11 note_on channel=9 note=46 velocity=121 time=5
Time=12420 Track=14 note_on channel=13 note=60 velocity=127 time=5
Time=12425 Track=5 note_on channel=2 note=69 velocity=113 time=5
Time=12455 Track=14 note_on channel=13 note=69 velocity=0 time=35
Time=12460 Track=14 note_on channel=13 note=65 velocity=0 time=5
Time=12465 Track=11 note_on channel=9 note=46 velocity=0 time=45
Time=12465 Track=14 note_on channel=13 note=60 velocity=0 time=5
Time=12475 Track=3 note_on channel=0 note=31 velocity=0 time=115
Time=12475 Track=4 note_on channel=1 note=31 velocity=0 time=115
Time=12475 Track=5 note_on channel=2 note=69 velocity=0 time=0
Time=12475 Track=5 note_on channel=2 note=60 velocity=0 time=0
Time=12475 Track=5 note_on channel=2 note=65 velocity=0 time=0
Time=12480 Track=3 note_on channel=0 note=29 velocity=103 time=5
Time=12480 Track=4 note_on channel=1 note=29 velocity=101 time=5
Time=12480 Track=5 note_on channel=2 note=72 velocity=107 time=5
Time=12480 Track=5 note_on channel=2 note=60 velocity=107 time=0
Time=12480 Track=5 note_on channel=2 note=65 velocity=107 time=0
Time=12480 Track=10 note_on channel=8 note=41 velocity=100 time=965
Time=12480 Track=10 note_on channel=8 note=53 velocity=100 time=0
Time=12480 Track=11 note_on channel=9 note=36 velocity=121 time=15
Time=12480 Track=11 note_on channel=9 note=42 velocity=112 time=0
Time=12480 Track=11 note_on channel=9 note=49 velocity=92 time=0
Time=12480 Track=12 note_on channel=10 note=41 velocity=107 time=965
Time=12480 Track=13 note_on channel=12 note=41 velocity=107 time=994
Time=12480 Track=13 note_on channel=12 note=48 velocity=107 time=0
Time=12480 Track=13 note_on channel=12 note=53 velocity=107 time=0
Time=12515 Track=11 note_on channel=9 note=42 velocity=0 time=35
Time=12520 Track=5 note_on channel=2 note=72 velocity=0 time=40
Time=12530 Track=5 note_on channel=2 note=65 velocity=0 time=10
Time=12535 Track=11 note_on channel=9 note=49 velocity=0 time=20
Time=12535 Track=11 note_on channel=9 note=36 velocity=0 time=0
Time=12540 Track=5 note_on channel=2 note=60 velocity=0 time=10
Time=12540 Track=11 note_on channel=9 note=42 velocity=83 time=5
Time=12585 Track=11 note_on channel=9 note=42 velocity=0 time=45
Time=12600 Track=5 note_on channel=2 note=72 velocity=106 time=60
Time=12600 Track=5 note_on channel=2 note=65 velocity=106 time=0
Time=12600 Track=5 note_on channel=2 note=60 velocity=106 time=0
Time=12600 Track=11 note_on channel=9 note=36 velocity=120 time=15
Time=12600 Track=11 note_on channel=9 note=40 velocity=127 time=0
Time=12600 Track=11 note_on channel=9 note=42 velocity=125 time=0
Time=12640 Track=5 note_on channel=2 note=72 velocity=0 time=35
Time=12645 Track=5 note_on channel=2 note=60 velocity=0 time=5
Time=12645 Track=5 note_on channel=2 note=65 velocity=0 time=0
Time=12650 Track=11 note_on channel=9 note=42 velocity=0 time=50
Time=12655 Track=11 note_on channel=9 note=40 velocity=0 time=5
Time=12655 Track=11 note_on channel=9 note=36 velocity=0 time=0
Time=12660 Track=11 note_on channel=9 note=42 velocity=93 time=5
Time=12705 Track=11 note_on channel=9 note=42 velocity=0 time=45
Time=12720 Track=5 note_on channel=2 note=65 velocity=106 time=5
Time=12720 Track=5 note_on channel=2 note=72 velocity=106 time=0
Time=12720 Track=5 note_on channel=2 note=60 velocity=106 time=0
Time=12720 Track=11 note_on channel=9 note=36 velocity=120 time=15
Time=12720 Track=11 note_on channel=9 note=42 velocity=114 time=0
Time=12755 Track=5 note_on channel=2 note=72 velocity=0 time=35
Time=12765 Track=11 note_on channel=9 note=42 velocity=0 time=45
Time=12770 Track=5 note_on channel=2 note=60 velocity=0 time=15
Time=12770 Track=5 note_on channel=2 note=65 velocity=0 time=0
Time=12775 Track=11 note_on channel=9 note=36 velocity=0 time=10
Time=12780 Track=11 note_on channel=9 note=42 velocity=94 time=5
Time=12825 Track=11 note_on channel=9 note=42 velocity=0 time=45
Time=12840 Track=5 note_on channel=2 note=72 velocity=105 time=5
Time=12840 Track=5 note_on channel=2 note=65 velocity=105 time=0
Time=12840 Track=5 note_on channel=2 note=60 velocity=105 time=0
Time=12840 Track=11 note_on channel=9 note=36 velocity=119 time=15
Time=12840 Track=11 note_on channel=9 note=40 velocity=127 time=0
Time=12840 Track=11 note_on channel=9 note=42 velocity=126 time=0
Time=12875 Track=5 note_on channel=2 note=72 velocity=0 time=35
Time=12880 Track=5 note_on channel=2 note=65 velocity=0 time=5
Time=12880 Track=11 note_on channel=9 note=42 velocity=0 time=40
Time=12885 Track=5 note_on channel=2 note=60 velocity=0 time=5
Time=12895 Track=3 note_on channel=0 note=29 velocity=0 time=415
Time=12895 Track=4 note_on channel=1 note=29 velocity=0 time=415
Time=12895 Track=11 note_on channel=9 note=40 velocity=0 time=15
Time=12895 Track=11 note_on channel=9 note=36 velocity=0 time=0
Time=12900 Track=3 note_on channel=0 note=29 velocity=102 time=5
Time=12900 Track=4 note_on channel=1 note=29 velocity=100 time=5
Time=12900 Track=11 note_on channel=9 note=46 velocity=121 time=5
Time=12945 Track=11 note_on channel=9 note=46 velocity=0 time=45
Time=12955 Track=3 note_on channel=0 note=29 velocity=0 time=55
Time=12955 Track=4 note_on channel=1 note=29 velocity=0 time=55
Time=12955 Track=10 note_on channel=8 note=53 velocity=0 time=475
Time=12955 Track=10 note_on channel=8 note=41 velocity=0 time=0
Time=12955 Track=12 note_on channel=10 note=41 velocity=0 time=475
Time=12955 Track=13 note_on channel=12 note=53 velocity=0 time=475
Time=12955 Track=13 note_on channel=12 note=48 velocity=0 time=0
Time=12955 Track=13 note_on channel=12 note=41 velocity=0 time=0
Time=12960 Track=3 note_on channel=0 note=36 velocity=102 time=5
Time=12960 Track=4 note_on channel=1 note=36 velocity=100 time=5
Time=12960 Track=5 note_on channel=2 note=72 velocity=105 time=5
Time=12960 Track=5 note_on channel=2 note=64 velocity=105 time=0
Time=12960 Track=5 note_on channel=2 note=60 velocity=105 time=0
Time=12960 Track=10 note_on channel=8 note=48 velocity=100 time=5
Time=12960 Track=10 note_on channel=8 note=60 velocity=100 time=0
Time=12960 Track=11 note_on channel=9 note=36 velocity=121 time=15
Time=12960 Track=11 note_on channel=9 note=42 velocity=112 time=0
Time=12960 Track=11 note_on channel=9 note=49 velocity=92 time=0
Time=12960 Track=12 note_on channel=10 note=48 velocity=107 time=5
Time=12960 Track=13 note_on channel=12 note=48 velocity=107 time=5
Time=12960 Track=13 note_on channel=12 note=55 velocity=107 time=0
Time=12960 Track=13 note_on channel=12 note=60 velocity=107 time=0
Time=12995 Track=5 note_on channel=2 note=72 velocity=0 time=35
Time=12995 Track=11 note_on channel=9 note=42 velocity=0 time=35
Time=13000 Track=5 note_on channel=2 note=60 velocity=0 time=5
Time=13005 Track=5 note_on channel=2 note=64 velocity=0 time=5
Time=13015 Track=11 note_on channel=9 note=49 velocity=0 time=20
Time=13015 Track=11 note_on channel=9 note=36 velocity=0 time=0
Time=13020 Track=11 note_on channel=9 note=42 velocity=83 time=5
Time=13065 Track=11 note_on channel=9 note=42 velocity=0 time=45
Time=13080 Track=5 note_on channel=2 note=64 velocity=95 time=5
Time=13080 Track=5 note_on channel=2 note=60 velocity=95 time=0
Time=13080 Track=5 note_on channel=2 note=72 velocity=100 time=0
Time=13080 Track=11 note_on channel=9 note=36 velocity=120 time=15
Time=13080 Track=11 note_on channel=9 note=40 velocity=127 time=0
Time=13080 Track=11 note_on channel=9 note=42 velocity=125 time=0
Time=13105 Track=5 note_on channel=2 note=72 velocity=0 time=20
Time=13110 Track=5 note_on channel=2 note=72 velocity=100 time=5
Time=13130 Track=11 note_on channel=9 note=42 velocity=0 time=50
Time=13135 Track=5 note_on channel=2 note=72 velocity=0 time=0
Time=13135 Track=5 note_on channel=2 note=60 velocity=0 time=0
Time=13135 Track=11 note_on channel=9 note=40 velocity=0 time=5
Time=13135 Track=11 note_on channel=9 note=36 velocity=0 time=0
Time=13140 Track=5 note_on channel=2 note=64 velocity=95 time=5
Time=13140 Track=5 note_on channel=2 note=60 velocity=95 time=0
Time=13140 Track=5 note_on channel=2 note=72 velocity=100 time=0
Time=13140 Track=5 note_on channel=2 note=72 velocity=100 time=0
Time=13140 Track=5 note_on channel=2 note=64 velocity=0 time=0
Time=13140 Track=11 note_on channel=9 note=42 velocity=93 time=5
Time=13141 Track=5 note_on channel=2 note=72 velocity=0 time=1
Time=13165 Track=5 note_on channel=2 note=72 velocity=0 time=0
Time=13170 Track=5 note_on channel=2 note=72 velocity=100 time=5
Time=13185 Track=11 note_on channel=9 note=42 velocity=0 time=45
Time=13195 Track=5 note_on channel=2 note=72 velocity=0 time=0
Time=13195 Track=5 note_on channel=2 note=60 velocity=0 time=0
Time=13200 Track=5 note_on channel=2 note=64 velocity=94 time=5
Time=13200 Track=5 note_on channel=2 note=60 velocity=94 time=0
Time=13200 Track=5 note_on channel=2 note=72 velocity=99 time=0
Time=13200 Track=5 note_on channel=2 note=64 velocity=0 time=0
Time=13200 Track=11 note_on channel=9 note=36 velocity=120 time=15
Time=13200 Track=11 note_on channel=9 note=42 velocity=114 time=0
Time=13225 Track=5 note_on channel=2 note=72 velocity=0 time=0
Time=13230 Track=5 note_on channel=2 note=72 velocity=99 time=5
Time=13230 Track=5 note_on channel=2 note=72 velocity=99 time=0
Time=13231 Track=5 note_on channel=2 note=72 velocity=0 time=1
Time=13245 Track=11 note_on channel=9 note=42 velocity=0 time=45
Time=13255 Track=5 note_on channel=2 note=72 velocity=0 time=0
Time=13255 Track=5 note_on channel=2 note=60 velocity=0 time=0
Time=13255 Track=11 note_on channel=9 note=36 velocity=0 time=10
Time=13260 Track=5 note_on channel=2 note=64 velocity=94 time=5
Time=13260 Track=5 note_on channel=2 note=60 velocity=94 time=0
Time=13260 Track=5 note_on channel=2 note=72 velocity=99 time=0
Time=13260 Track=5 note_on channel=2 note=64 velocity=0 time=0
Time=13260 Track=11 note_on channel=9 note=42 velocity=94 time=5
Time=13285 Track=5 note_on channel=2 note=72 velocity=0 time=5
Time=13290 Track=5 note_on channel=2 note=72 velocity=99 time=5
Time=13305 Track=11 note_on channel=9 note=42 velocity=0 time=45
Time=13315 Track=5 note_on channel=2 note=72 velocity=0 time=0
Time=13315 Track=5 note_on channel=2 note=60 velocity=0 time=0
Time=13320 Track=5 note_on channel=2 note=64 velocity=93 time=5
Time=13320 Track=5 note_on channel=2 note=60 velocity=93 time=0
Time=13320 Track=5 note_on channel=2 note=72 velocity=98 time=0
Time=13320 Track=5 note_on channel=2 note=64 velocity=0 time=0
Time=13320 Track=11 note_on channel=9 note=36 velocity=119 time=15
Time=13320 Track=11 note_on channel=9 note=40 velocity=127 time=0
Time=13320 Track=11 note_on channel=9 note=42 velocity=126 time=0
Time=13345 Track=5 note_on channel=2 note=72 velocity=0 time=5
Time=13350 Track=5 note_on channel=2 note=72 velocity=98 time=5
Time=13360 Track=11 note_on channel=9 note=42 velocity=0 time=40
Time=13370 Track=3 note_on channel=0 note=36 velocity=0 time=410
Time=13370 Track=4 note_on channel=1 note=36 velocity=0 time=410
Time=13375 Track=5 note_on channel=2 note=72 velocity=0 time=0
Time=13375 Track=5 note_on channel=2 note=60 velocity=0 time=0
Time=13375 Track=11 note_on channel=9 note=40 velocity=0 time=15
Time=13375 Track=11 note_on channel=9 note=36 velocity=0 time=0
Time=13380 Track=3 note_on channel=0 note=36 velocity=101 time=10
Time=13380 Track=4 note_on channel=1 note=36 velocity=99 time=10
Time=13380 Track=5 note_on channel=2 note=64 velocity=93 time=5
Time=13380 Track=5 note_on channel=2 note=60 velocity=93 time=0
Time=13380 Track=5 note_on channel=2 note=72 velocity=98 time=0
Time=13380 Track=5 note_on channel=2 note=64 velocity=0 time=0
Time=13380 Track=11 note_on channel=9 note=46 velocity=121 time=5
Time=13405 Track=5 note_on channel=2 note=72 velocity=0 time=0
Time=13410 Track=5 note_on channel=2 note=72 velocity=98 time=5
Time=13425 Track=11 note_on channel=9 note=46 velocity=0 time=45
Time=13430 Track=3 note_on channel=0 note=36 velocity=0 time=50
Time=13430 Track=5 note_on channel=2 note=50 velocity=101 time=20
Time=13430 Track=6 note_on channel=3 note=50 velocity=101 time=1610
Time=13435 Track=4 note_on channel=1 note=36 velocity=0 time=55
Time=13435 Track=5 note_on channel=2 note=62 velocity=104 time=5
Time=13435 Track=5 note_on channel=2 note=57 velocity=91 time=0
Time=13435 Track=5 note_on channel=2 note=60 velocity=0 time=0
Time=13435 Track=5 note_on channel=2 note=64 velocity=0 time=0
Time=13435 Track=6 note_on channel=3 note=62 velocity=104 time=5
Time=13435 Track=6 note_on channel=3 note=57 velocity=91 time=0
Time=13435 Track=10 note_on channel=8 note=60 velocity=0 time=475
Time=13435 Track=10 note_on channel=8 note=48 velocity=0 time=0
Time=13435 Track=12 note_on channel=10 note=48 velocity=0 time=475
Time=13435 Track=13 note_on channel=12 note=55 velocity=0 time=475
Time=13435 Track=13 note_on channel=12 note=48 velocity=0 time=0
Time=13440 Track=3 note_on channel=0 note=38 velocity=103 time=10
Time=13440 Track=4 note_on channel=1 note=38 velocity=101 time=5
Time=13440 Track=5 note_on channel=2 note=65 velocity=94 time=5
Time=13440 Track=6 note_on channel=3 note=65 velocity=94 time=5
Time=13440 Track=10 note_on channel=8 note=50 velocity=100 time=5
Time=13440 Track=10 note_on channel=8 note=62 velocity=100 time=0
Time=13440 Track=11 note_on channel=9 note=36 velocity=121 time=15
Time=13440 Track=11 note_on channel=9 note=42 velocity=112 time=0
Time=13440 Track=11 note_on channel=9 note=49 velocity=92 time=0
Time=13440 Track=12 note_on channel=10 note=50 velocity=106 time=5
Time=13440 Track=13 note_on channel=12 note=62 velocity=106 time=5
Time=13440 Track=13 note_on channel=12 note=50 velocity=106 time=0
Time=13440 Track=13 note_on channel=12 note=57 velocity=106 time=0
Time=13440 Track=13 note_on channel=12 note=60 velocity=0 time=0
Time=13445 Track=5 note_on channel=2 note=69 velocity=96 time=5
Time=13445 Track=6 note_on channel=3 note=69 velocity=96 time=5
Time=13475 Track=11 note_on channel=9 note=42 velocity=0 time=35
Time=13495 Track=11 note_on channel=9 note=49 velocity=0 time=20
Time=13495 Track=11 note_on channel=9 note=36 velocity=0 time=0
Time=13500 Track=11 note_on channel=9 note=42 velocity=83 time=5
Time=13525 Track=5 note_on channel=2 note=65 velocity=108 time=80
Time=13525 Track=5 note_on channel=2 note=65 velocity=0 time=0
Time=13525 Track=6 note_on channel=3 note=65 velocity=108 time=80
Time=13525 Track=6 note_on channel=3 note=65 velocity=0 time=0
Time=13525 Track=7 note_on channel=4 note=65 velocity=107 time=0
Time=13530 Track=5 note_on channel=2 note=62 velocity=97 time=5
Time=13530 Track=5 note_on channel=2 note=62 velocity=0 time=0
Time=13530 Track=6 note_on channel=3 note=62 velocity=97 time=5
Time=13530 Track=6 note_on channel=3 note=62 velocity=0 time=0
Time=13530 Track=7 note_on channel=4 note=62 velocity=105 time=5
Time=13530 Track=7 note_on channel=4 note=65 velocity=0 time=0
Time=13535 Track=7 note_on channel=4 note=62 velocity=0 time=5
Time=13545 Track=11 note_on channel=9 note=42 velocity=0 time=45
Time=13550 Track=5 note_on channel=2 note=57 velocity=0 time=20
Time=13550 Track=6 note_on channel=3 note=57 velocity=0 time=20
Time=13550 Track=7 note_on channel=4 note=57 velocity=107 time=0
Time=13555 Track=3 note_on channel=0 note=38 velocity=0 time=115
Time=13555 Track=4 note_on channel=1 note=38 velocity=0 time=115
Time=13555 Track=5 note_on channel=2 note=57 velocity=100 time=5
Time=13555 Track=5 note_on channel=2 note=62 velocity=108 time=0
Time=13555 Track=5 note_on channel=2 note=69 velocity=0 time=0
Time=13555 Track=5 note_on channel=2 note=62 velocity=0 time=0
Time=13555 Track=6 note_on channel=3 note=57 velocity=100 time=5
Time=13555 Track=6 note_on channel=3 note=62 velocity=108 time=0
Time=13555 Track=6 note_on channel=3 note=69 velocity=0 time=0
Time=13555 Track=6 note_on channel=3 note=62 velocity=0 time=0
Time=13555 Track=7 note_on channel=4 note=62 velocity=107 time=5
Time=13560 Track=5 note_on channel=2 note=65 velocity=90 time=5
Time=13560 Track=5 note_on channel=2 note=65 velocity=0 time=0
Time=13560 Track=6 note_on channel=3 note=65 velocity=90 time=5
Time=13560 Track=6 note_on channel=3 note=65 velocity=0 time=0
Time=13560 Track=7 note_on channel=4 note=65 velocity=98 time=5
Time=13560 Track=7 note_on channel=4 note=57 velocity=0 time=0
Time=13560 Track=11 note_on channel=9 note=36 velocity=120 time=15
Time=13560 Track=11 note_on channel=9 note=40 velocity=127 time=0
Time=13560 Track=11 note_on channel=9 note=42 velocity=125 time=0
Time=13565 Track=7 note_on channel=4 note=65 velocity=0 time=5
Time=13565 Track=7 note_on channel=4 note=62 velocity=0 time=0
Time=13575 Track=5 note_on channel=2 note=50 velocity=0 time=15
Time=13575 Track=6 note_on channel=3 note=50 velocity=0 time=15
Time=13590 Track=5 note_on channel=2 note=57 velocity=0 time=15
Time=13590 Track=6 note_on channel=3 note=57 velocity=0 time=15
Time=13610 Track=5 note_on channel=2 note=57 velocity=89 time=20
Time=13610 Track=5 note_on channel=2 note=65 velocity=0 time=0
Time=13610 Track=6 note_on channel=3 note=57 velocity=89 time=20
Time=13610 Track=6 note_on channel=3 note=65 velocity=0 time=0
Time=13610 Track=11 note_on channel=9 note=42 velocity=0 time=50
Time=13615 Track=5 note_on channel=2 note=60 velocity=116 time=5
Time=13615 Track=6 note_on channel=3 note=60 velocity=116 time=5
Time=13615 Track=11 note_on channel=9 note=40 velocity=0 time=5
Time=13615 Track=11 note_on channel=9 note=36 velocity=0 time=0
Time=13620 Track=3 note_on channel=0 note=36 velocity=102 time=65
Time=13620 Track=4 note_on channel=1 note=36 velocity=101 time=65
Time=13620 Track=5 note_on channel=2 note=65 velocity=106 time=5
Time=13620 Track=6 note_on channel=3 note=65 velocity=106 time=5
Time=13620 Track=11 note_on channel=9 note=42 velocity=93 time=5
Time=13625 Track=5 note_on channel=2 note=62 velocity=0 time=5
Time=13625 Track=6 note_on channel=3 note=62 velocity=0 time=5
Time=13665 Track=11 note_on channel=9 note=42 velocity=0 time=45
Time=13675 Track=3 note_on channel=0 note=36 velocity=0 time=55
Time=13675 Track=4 note_on channel=1 note=36 velocity=0 time=55
Time=13675 Track=5 note_on channel=2 note=57 velocity=91 time=50
Time=13675 Track=5 note_on channel=2 note=62 velocity=113 time=0
Time=13675 Track=5 note_on channel=2 note=60 velocity=0 time=0
Time=13675 Track=5 note_on channel=2 note=57 velocity=0 time=0
Time=13675 Track=6 note_on channel=3 note=57 velocity=91 time=50
Time=13675 Track=6 note_on channel=3 note=62 velocity=113 time=0
Time=13675 Track=6 note_on channel=3 note=57 velocity=0 time=0
Time=13675 Track=6 note_on channel=3 note=60 velocity=0 time=0
Time=13675 Track=7 note_on channel=4 note=57 velocity=99 time=5
Time=13675 Track=7 note_on channel=4 note=62 velocity=107 time=0
Time=13680 Track=3 note_on channel=0 note=38 velocity=102 time=5
Time=13680 Track=4 note_on channel=1 note=38 velocity=101 time=5
Time=13680 Track=5 note_on channel=2 note=65 velocity=96 time=5
Time=13680 Track=5 note_on channel=2 note=65 velocity=0 time=0
Time=13680 Track=6 note_on channel=3 note=65 velocity=96 time=5
Time=13680 Track=6 note_on channel=3 note=65 velocity=0 time=0
Time=13680 Track=7 note_on channel=4 note=65 velocity=104 time=5
Time=13680 Track=11 note_on channel=9 note=36 velocity=120 time=15
Time=13680 Track=11 note_on channel=9 note=42 velocity=114 time=0
Time=13685 Track=7 note_on channel=4 note=65 velocity=0 time=5
Time=13685 Track=7 note_on channel=4 note=62 velocity=0 time=0
Time=13685 Track=7 note_on channel=4 note=57 velocity=0 time=0
Time=13705 Track=5 note_on channel=2 note=65 velocity=115 time=25
Time=13705 Track=5 note_on channel=2 note=65 velocity=0 time=0
Time=13705 Track=6 note_on channel=3 note=65 velocity=115 time=25
Time=13705 Track=6 note_on channel=3 note=65 velocity=0 time=0
Time=13705 Track=7 note_on channel=4 note=65 velocity=107 time=20
Time=13710 Track=5 note_on channel=2 note=62 velocity=94 time=5
Time=13710 Track=5 note_on channel=2 note=62 velocity=0 time=0
Time=13710 Track=6 note_on channel=3 note=62 velocity=94 time=5
Time=13710 Track=6 note_on channel=3 note=62 velocity=0 time=0
Time=13710 Track=7 note_on channel=4 note=62 velocity=102 time=5
Time=13715 Track=7 note_on channel=4 note=62 velocity=0 time=5
Time=13715 Track=7 note_on channel=4 note=65 velocity=0 time=0
Time=13720 Track=4 note_on channel=1 note=38 velocity=0 time=40
Time=13725 Track=3 note_on channel=0 note=38 velocity=0 time=45
Time=13725 Track=11 note_on channel=9 note=42 velocity=0 time=45
Time=13735 Track=7 note_on channel=4 note=65 velocity=78 time=20
Time=13735 Track=11 note_on channel=9 note=36 velocity=0 time=10
Time=13736 Track=7 note_on channel=4 note=65 velocity=0 time=1
Time=13740 Track=5 note_on channel=2 note=62 velocity=1 time=30
Time=13740 Track=5 note_on channel=2 note=65 velocity=0 time=0
Time=13740 Track=5 note_on channel=2 note=62 velocity=0 time=0
Time=13740 Track=5 note_on channel=2 note=57 velocity=0 time=0
Time=13740 Track=6 note_on channel=3 note=62 velocity=1 time=30
Time=13740 Track=6 note_on channel=3 note=65 velocity=0 time=0
Time=13740 Track=6 note_on channel=3 note=62 velocity=0 time=0
Time=13740 Track=6 note_on channel=3 note=57 velocity=0 time=0
Time=13740 Track=7 note_on channel=4 note=62 velocity=78 time=4
Time=13740 Track=11 note_on channel=9 note=42 velocity=94 time=5
Time=13741 Track=6 note_on channel=3 note=62 velocity=0 time=1
Time=13741 Track=7 note_on channel=4 note=62 velocity=0 time=1
Time=13745 Track=5 note_on channel=2 note=62 velocity=0 time=5
Time=13765 Track=7 note_on channel=4 note=65 velocity=76 time=24
Time=13766 Track=7 note_on channel=4 note=65 velocity=0 time=1
Time=13770 Track=5 note_on channel=2 note=65 velocity=1 time=25
Time=13770 Track=5 note_on channel=2 note=62 velocity=1 time=0
Time=13770 Track=6 note_on channel=3 note=65 velocity=1 time=29
Time=13770 Track=6 note_on channel=3 note=62 velocity=1 time=0
Time=13770 Track=7 note_on channel=4 note=62 velocity=76 time=4
Time=13771 Track=5 note_on channel=2 note=62 velocity=0 time=1
Time=13771 Track=5 note_on channel=2 note=65 velocity=0 time=0
Time=13771 Track=6 note_on channel=3 note=62 velocity=0 time=1
Time=13771 Track=6 note_on channel=3 note=65 velocity=0 time=0
Time=13771 Track=7 note_on channel=4 note=62 velocity=0 time=1
Time=13785 Track=11 note_on channel=9 note=42 velocity=0 time=45
Time=13790 Track=7 note_on channel=4 note=57 velocity=98 time=19
Time=13795 Track=5 note_on channel=2 note=57 velocity=90 time=24
Time=13795 Track=5 note_on channel=2 note=62 velocity=115 time=0
Time=13795 Track=6 note_on channel=3 note=57 velocity=90 time=24
Time=13795 Track=6 note_on channel=3 note=62 velocity=115 time=0
Time=13795 Track=7 note_on channel=4 note=62 velocity=107 time=0
Time=13795 Track=7 note_on channel=4 note=65 velocity=105 time=0
Time=13800 Track=5 note_on channel=2 note=65 velocity=97 time=5
Time=13800 Track=5 note_on channel=2 note=69 velocity=96 time=0
Time=13800 Track=6 note_on channel=3 note=65 velocity=97 time=5
Time=13800 Track=6 note_on channel=3 note=69 velocity=96 time=0
Time=13800 Track=7 note_on channel=4 note=69 velocity=104 time=5
Time=13800 Track=7 note_on channel=4 note=57 velocity=0 time=0
Time=13800 Track=11 note_on channel=9 note=36 velocity=119 time=15
Time=13800 Track=11 note_on channel=9 note=40 velocity=127 time=0
Time=13800 Track=11 note_on channel=9 note=42 velocity=126 time=0
Time=13805 Track=7 note_on channel=4 note=62 velocity=0 time=5
Time=13805 Track=7 note_on channel=4 note=65 velocity=0 time=0
Time=13805 Track=7 note_on channel=4 note=69 velocity=0 time=0
Time=13825 Track=5 note_on channel=2 note=65 velocity=118 time=25
Time=13825 Track=5 note_on channel=2 note=65 velocity=0 time=0
Time=13825 Track=6 note_on channel=3 note=65 velocity=118 time=25
Time=13825 Track=6 note_on channel=3 note=65 velocity=0 time=0
Time=13825 Track=7 note_on channel=4 note=65 velocity=107 time=20
Time=13830 Track=5 note_on channel=2 note=62 velocity=91 time=5
Time=13830 Track=5 note_on channel=2 note=62 velocity=0 time=0
Time=13830 Track=6 note_on channel=3 note=62 velocity=91 time=5
Time=13830 Track=6 note_on channel=3 note=62 velocity=0 time=0
Time=13830 Track=7 note_on channel=4 note=62 velocity=99 time=5
Time=13835 Track=7 note_on channel=4 note=62 velocity=0 time=5
Time=13835 Track=7 note_on channel=4 note=65 velocity=0 time=0
Time=13840 Track=5 note_on channel=2 note=57 velocity=0 time=10
Time=13840 Track=6 note_on channel=3 note=57 velocity=0 time=10
Time=13840 Track=11 note_on channel=9 note=42 velocity=0 time=40
Time=13850 Track=6 note_on channel=3 note=65 velocity=0 time=10
Time=13855 Track=5 note_on channel=2 note=65 velocity=0 time=15
Time=13855 Track=11 note_on channel=9 note=40 velocity=0 time=15
Time=13855 Track=11 note_on channel=9 note=36 velocity=0 time=0
Time=13860 Track=5 note_on channel=2 note=62 velocity=1 time=5
Time=13860 Track=5 note_on channel=2 note=65 velocity=1 time=0
Time=13860 Track=5 note_on channel=2 note=69 velocity=0 time=0
Time=13860 Track=5 note_on channel=2 note=62 velocity=0 time=0
Time=13860 Track=6 note_on channel=3 note=62 velocity=1 time=10
Time=13860 Track=6 note_on channel=3 note=65 velocity=1 time=0
Time=13860 Track=6 note_on channel=3 note=69 velocity=0 time=0
Time=13860 Track=6 note_on channel=3 note=62 velocity=0 time=0
Time=13860 Track=7 note_on channel=4 note=62 velocity=72 time=25
Time=13860 Track=7 note_on channel=4 note=65 velocity=72 time=0
Time=13860 Track=11 note_on channel=9 note=46 velocity=121 time=5
Time=13861 Track=5 note_on channel=2 note=65 velocity=0 time=1
Time=13861 Track=6 note_on channel=3 note=62 velocity=0 time=1
Time=13861 Track=6 note_on channel=3 note=65 velocity=0 time=0
Time=13861 Track=7 note_on channel=4 note=65 velocity=0 time=1
Time=13861 Track=7 note_on channel=4 note=62 velocity=0 time=0
Time=13865 Track=5 note_on channel=2 note=62 velocity=0 time=4
Time=13890 Track=5 note_on channel=2 note=65 velocity=1 time=25
Time=13890 Track=6 note_on channel=3 note=65 velocity=1 time=29
Time=13890 Track=7 note_on channel=4 note=65 velocity=71 time=29
Time=13890 Track=7 note_on channel=4 note=62 velocity=71 time=0
Time=13891 Track=5 note_on channel=2 note=65 velocity=0 time=1
Time=13891 Track=6 note_on channel=3 note=65 velocity=0 time=1
Time=13891 Track=7 note_on channel=4 note=62 velocity=0 time=1
Time=13891 Track=7 note_on channel=4 note=65 velocity=0 time=0
Time=13905 Track=11 note_on channel=9 note=46 velocity=0 time=45
Time=13910 Track=5 note_on channel=2 note=50 velocity=101 time=19
Time=13910 Track=6 note_on channel=3 note=50 velocity=101 time=19
Time=13915 Track=5 note_on channel=2 note=62 velocity=104 time=5
Time=13915 Track=5 note_on channel=2 note=57 velocity=91 time=0
Time=13915 Track=6 note_on channel=3 note=62 velocity=104 time=5
Time=13915 Track=6 note_on channel=3 note=57 velocity=91 time=0
Time=13920 Track=3 note_on channel=0 note=38 velocity=101 time=195
Time=13920 Track=4 note_on channel=1 note=38 velocity=100 time=200
Time=13920 Track=5 note_on channel=2 note=65 velocity=94 time=5
Time=13920 Track=6 note_on channel=3 note=65 velocity=94 time=5
Time=13920 Track=11 note_on channel=9 note=36 velocity=121 time=15
Time=13920 Track=11 note_on channel=9 note=42 velocity=112 time=0
Time=13925 Track=5 note_on channel=2 note=69 velocity=96 time=5
Time=13925 Track=6 note_on channel=3 note=69 velocity=96 time=5
Time=13955 Track=11 note_on channel=9 note=42 velocity=0 time=35
Time=13975 Track=11 note_on channel=9 note=36 velocity=0 time=20
Time=13980 Track=11 note_on channel=9 note=42 velocity=83 time=5
Time=14005 Track=5 note_on channel=2 note=65 velocity=108 time=80
Time=14005 Track=5 note_on channel=2 note=65 velocity=0 time=0
Time=14005 Track=6 note_on channel=3 note=65 velocity=108 time=80
Time=14005 Track=6 note_on channel=3 note=65 velocity=0 time=0
Time=14005 Track=7 note_on channel=4 note=65 velocity=107 time=0
Time=14010 Track=5 note_on channel=2 note=62 velocity=97 time=5
Time=14010 Track=5 note_on channel=2 note=62 velocity=0 time=0
Time=14010 Track=6 note_on channel=3 note=62 velocity=97 time=5
Time=14010 Track=6 note_on channel=3 note=62 velocity=0 time=0
Time=14010 Track=7 note_on channel=4 note=62 velocity=105 time=5
Time=14010 Track=7 note_on channel=4 note=65 velocity=0 time=0
Time=14015 Track=7 note_on channel=4 note=62 velocity=0 time=5
Time=14025 Track=11 note_on channel=9 note=42 velocity=0 time=45
Time=14030 Track=5 note_on channel=2 note=57 velocity=0 time=20
Time=14030 Track=6 note_on channel=3 note=57 velocity=0 time=20
Time=14030 Track=7 note_on channel=4 note=57 velocity=107 time=0
Time=14035 Track=3 note_on channel=0 note=38 velocity=0 time=115
Time=14035 Track=4 note_on channel=1 note=38 velocity=0 time=115
Time=14035 Track=5 note_on channel=2 note=57 velocity=100 time=5
Time=14035 Track=5 note_on channel=2 note=62 velocity=108 time=0
Time=14035 Track=5 note_on channel=2 note=69 velocity=0 time=0
Time=14035 Track=5 note_on channel=2 note=62 velocity=0 time=0
Time=14035 Track=6 note_on channel=3 note=57 velocity=100 time=5
Time=14035 Track=6 note_on channel=3 note=62 velocity=108 time=0
Time=14035 Track=6 note_on channel=3 note=69 velocity=0 time=0
Time=14035 Track=6 note_on channel=3 note=62 velocity=0 time=0
Time=14035 Track=7 note_on channel=4 note=62 velocity=107 time=5
Time=14040 Track=5 note_on channel=2 note=65 velocity=90 time=5
Time=14040 Track=5 note_on channel=2 note=65 velocity=0 time=0
Time=14040 Track=6 note_on channel=3 note=65 velocity=90 time=5
Time=14040 Track=6 note_on channel=3 note=65 velocity=0 time=0
Time=14040 Track=7 note_on channel=4 note=65 velocity=98 time=5
Time=14040 Track=7 note_on channel=4 note=57 velocity=0 time=0
Time=14040 Track=11 note_on channel=9 note=36 velocity=120 time=15
Time=14040 Track=11 note_on channel=9 note=40 velocity=127 time=0
Time=14040 Track=11 note_on channel=9 note=42 velocity=125 time=0
Time=14045 Track=7 note_on channel=4 note=65 velocity=0 time=5
Time=14045 Track=7 note_on channel=4 note=62 velocity=0 time=0
Time=14055 Track=5 note_on channel=2 note=50 velocity=0 time=15
Time=14055 Track=6 note_on channel=3 note=50 velocity=0 time=15
Time=14070 Track=5 note_on channel=2 note=57 velocity=0 time=15
Time=14070 Track=6 note_on channel=3 note=57 velocity=0 time=15
Time=14090 Track=5 note_on channel=2 note=57 velocity=89 time=20
Time=14090 Track=5 note_on channel=2 note=65 velocity=0 time=0
Time=14090 Track=6 note_on channel=3 note=57 velocity=89 time=20
Time=14090 Track=6 note_on channel=3 note=65 velocity=0 time=0
Time=14090 Track=11 note_on channel=9 note=42 velocity=0 time=50
Time=14095 Track=5 note_on channel=2 note=60 velocity=116 time=5
Time=14095 Track=6 note_on channel=3 note=60 velocity=116 time=5
Time=14095 Track=11 note_on channel=9 note=40 velocity=0 time=5
Time=14095 Track=11 note_on channel=9 note=36 velocity=0 time=0
Time=14100 Track=3 note_on channel=0 note=38 velocity=101 time=65
Time=14100 Track=4 note_on channel=1 note=38 velocity=99 time=65
Time=14100 Track=5 note_on channel=2 note=65 velocity=106 time=5
Time=14100 Track=6 note_on channel=3 note=65 velocity=106 time=5
Time=14100 Track=11 note_on channel=9 note=42 velocity=93 time=5
Time=14105 Track=5 note_on channel=2 note=62 velocity=0 time=5
Time=14105 Track=6 note_on channel=3 note=62 velocity=0 time=5
Time=14145 Track=3 note_on channel=0 note=38 velocity=0 time=45
Time=14145 Track=4 note_on channel=1 note=38 velocity=0 time=45
Time=14145 Track=11 note_on channel=9 note=42 velocity=0 time=45
Time=14155 Track=5 note_on channel=2 note=57 velocity=91 time=50
Time=14155 Track=5 note_on channel=2 note=62 velocity=113 time=0
Time=14155 Track=5 note_on channel=2 note=60 velocity=0 time=0
Time=14155 Track=5 note_on channel=2 note=57 velocity=0 time=0
Time=14155 Track=6 note_on channel=3 note=57 velocity=91 time=50
Time=14155 Track=6 note_on channel=3 note=62 velocity=113 time=0
Time=14155 Track=6 note_on channel=3 note=57 velocity=0 time=0
Time=14155 Track=6 note_on channel=3 note=60 velocity=0 time=0
Time=14155 Track=7 note_on channel=4 note=57 velocity=99 time=5
Time=14155 Track=7 note_on channel=4 note=62 velocity=107 time=0
Time=14160 Track=3 note_on channel=0 note=33 velocity=101 time=15
Time=14160 Track=4 note_on channel=1 note=33 velocity=99 time=15
Time=14160 Track=5 note_on channel=2 note=65 velocity=96 time=5
Time=14160 Track=5 note_on channel=2 note=65 velocity=0 time=0
Time=14160 Track=6 note_on channel=3 note=65 velocity=96 time=5
Time=14160 Track=6 note_on channel=3 note=65 velocity=0 time=0
Time=14160 Track=7 note_on channel=4 note=65 velocity=104 time=5
Time=14160 Track=11 note_on channel=9 note=36 velocity=120 time=15
Time=14160 Track=11 note_on channel=9 note=42 velocity=114 time=0
Time=14165 Track=7 note_on channel=4 note=65 velocity=0 time=5
Time=14165 Track=7 note_on channel=4 note=62 velocity=0 time=0
Time=14165 Track=7 note_on channel=4 note=57 velocity=0 time=0
Time=14185 Track=6 note_on channel=3 note=65 velocity=115 time=25
Time=14185 Track=6 note_on channel=3 note=65 velocity=115 time=0
Time=14185 Track=6 note_on channel=3 note=65 velocity=0 time=0
Time=14185 Track=7 note_on channel=4 note=65 velocity=107 time=20
Time=14186 Track=6 note_on channel=3 note=65 velocity=0 time=1
Time=14190 Track=5 note_on channel=2 note=62 velocity=94 time=30
Time=14190 Track=5 note_on channel=2 note=62 velocity=0 time=0
Time=14190 Track=6 note_on channel=3 note=62 velocity=94 time=4
Time=14190 Track=6 note_on channel=3 note=62 velocity=0 time=0
Time=14190 Track=7 note_on channel=4 note=62 velocity=102 time=5
Time=14195 Track=7 note_on channel=4 note=62 velocity=0 time=5
Time=14195 Track=7 note_on channel=4 note=65 velocity=0 time=0
Time=14205 Track=11 note_on channel=9 note=42 velocity=0 time=45
Time=14215 Track=7 note_on channel=4 note=65 velocity=78 time=20
Time=14215 Track=11 note_on channel=9 note=36 velocity=0 time=10
Time=14216 Track=7 note_on channel=4 note=65 velocity=0 time=1
Time=14220 Track=5 note_on channel=2 note=62 velocity=1 time=30
Time=14220 Track=5 note_on channel=2 note=65 velocity=0 time=0
Time=14220 Track=5 note_on channel=2 note=62 velocity=0 time=0
Time=14220 Track=5 note_on channel=2 note=57 velocity=0 time=0
Time=14220 Track=6 note_on channel=3 note=62 velocity=1 time=30
Time=14220 Track=6 note_on channel=3 note=65 velocity=0 time=0
Time=14220 Track=6 note_on channel=3 note=62 velocity=0 time=0
Time=14220 Track=6 note_on channel=3 note=57 velocity=0 time=0
Time=14220 Track=7 note_on channel=4 note=62 velocity=78 time=4
Time=14220 Track=11 note_on channel=9 note=42 velocity=94 time=5
Time=14221 Track=6 note_on channel=3 note=62 velocity=0 time=1
Time=14221 Track=7 note_on channel=4 note=62 velocity=0 time=1
Time=14225 Track=5 note_on channel=2 note=62 velocity=0 time=5
Time=14245 Track=7 note_on channel=4 note=65 velocity=76 time=24
Time=14246 Track=7 note_on channel=4 note=65 velocity=0 time=1
Time=14250 Track=5 note_on channel=2 note=65 velocity=1 time=25
Time=14250 Track=5 note_on channel=2 note=62 velocity=1 time=0
Time=14250 Track=6 note_on channel=3 note=65 velocity=1 time=29
Time=14250 Track=6 note_on channel=3 note=62 velocity=1 time=0
Time=14250 Track=7 note_on channel=4 note=62 velocity=76 time=4
Time=14251 Track=5 note_on channel=2 note=62 velocity=0 time=1
Time=14251 Track=5 note_on channel=2 note=65 velocity=0 time=0
Time=14251 Track=6 note_on channel=3 note=62 velocity=0 time=1
Time=14251 Track=6 note_on channel=3 note=65 velocity=0 time=0
Time=14251 Track=7 note_on channel=4 note=62 velocity=0 time=1
Time=14265 Track=11 note_on channel=9 note=42 velocity=0 time=45
Time=14270 Track=7 note_on channel=4 note=57 velocity=98 time=19
Time=14275 Track=3 note_on channel=0 note=33 velocity=0 time=115
Time=14275 Track=4 note_on channel=1 note=33 velocity=0 time=115
Time=14275 Track=5 note_on channel=2 note=57 velocity=90 time=24
Time=14275 Track=5 note_on channel=2 note=62 velocity=115 time=0
Time=14275 Track=6 note_on channel=3 note=57 velocity=90 time=24
Time=14275 Track=6 note_on channel=3 note=62 velocity=115 time=0
Time=14275 Track=7 note_on channel=4 note=62 velocity=107 time=0
Time=14275 Track=7 note_on channel=4 note=65 velocity=105 time=0
Time=14280 Track=3 note_on channel=0 note=31 velocity=100 time=5
Time=14280 Track=4 note_on channel=1 note=31 velocity=99 time=5
Time=14280 Track=5 note_on channel=2 note=65 velocity=97 time=5
Time=14280 Track=5 note_on channel=2 note=69 velocity=96 time=0
Time=14280 Track=6 note_on channel=3 note=65 velocity=97 time=5
Time=14280 Track=6 note_on channel=3 note=69 velocity=96 time=0
Time=14280 Track=7 note_on channel=4 note=69 velocity=104 time=5
Time=14280 Track=7 note_on channel=4 note=57 velocity=0 time=0
Time=14280 Track=11 note_on channel=9 note=36 velocity=119 time=15
Time=14280 Track=11 note_on channel=9 note=40 velocity=127 time=0
Time=14280 Track=11 note_on channel=9 note=42 velocity=126 time=0
Time=14285 Track=7 note_on channel=4 note=62 velocity=0 time=5
Time=14285 Track=7 note_on channel=4 note=65 velocity=0 time=0
Time=14285 Track=7 note_on channel=4 note=69 velocity=0 time=0
Time=14305 Track=5 note_on channel=2 note=65 velocity=118 time=25
Time=14305 Track=5 note_on channel=2 note=65 velocity=0 time=0
Time=14305 Track=6 note_on channel=3 note=65 velocity=118 time=25
Time=14305 Track=6 note_on channel=3 note=65 velocity=0 time=0
Time=14305 Track=7 note_on channel=4 note=65 velocity=107 time=20
Time=14310 Track=5 note_on channel=2 note=62 velocity=91 time=5
Time=14310 Track=5 note_on channel=2 note=62 velocity=0 time=0
Time=14310 Track=6 note_on channel=3 note=62 velocity=91 time=5
Time=14310 Track=6 note_on channel=3 note=62 velocity=0 time=0
Time=14310 Track=7 note_on channel=4 note=62 velocity=99 time=5
Time=14315 Track=7 note_on channel=4 note=62 velocity=0 time=5
Time=14315 Track=7 note_on channel=4 note=65 velocity=0 time=0
Time=14320 Track=5 note_on channel=2 note=57 velocity=0 time=10
Time=14320 Track=6 note_on channel=3 note=57 velocity=0 time=10
Time=14320 Track=11 note_on channel=9 note=42 velocity=0 time=40
Time=14330 Track=6 note_on channel=3 note=65 velocity=0 time=10
Time=14335 Track=5 note_on channel=2 note=65 velocity=0 time=15
Time=14335 Track=11 note_on channel=9 note=40 velocity=0 time=15
Time=14335 Track=11 note_on channel=9 note=36 velocity=0 time=0
Time=14340 Track=5 note_on channel=2 note=62 velocity=1 time=5
Time=14340 Track=5 note_on channel=2 note=65 velocity=1 time=0
Time=14340 Track=5 note_on channel=2 note=69 velocity=0 time=0
Time=14340 Track=5 note_on channel=2 note=62 velocity=0 time=0
Time=14340 Track=6 note_on channel=3 note=62 velocity=1 time=10
Time=14340 Track=6 note_on channel=3 note=65 velocity=1 time=0
Time=14340 Track=6 note_on channel=3 note=69 velocity=0 time=0
Time=14340 Track=6 note_on channel=3 note=62 velocity=0 time=0
Time=14340 Track=7 note_on channel=4 note=62 velocity=72 time=25
Time=14340 Track=7 note_on channel=4 note=65 velocity=72 time=0
Time=14340 Track=11 note_on channel=9 note=46 velocity=121 time=5
Time=14341 Track=5 note_on channel=2 note=65 velocity=0 time=1
Time=14341 Track=6 note_on channel=3 note=62 velocity=0 time=1
Time=14341 Track=6 note_on channel=3 note=65 velocity=0 time=0
Time=14341 Track=7 note_on channel=4 note=65 velocity=0 time=1
Time=14341 Track=7 note_on channel=4 note=62 velocity=0 time=0
Time=14345 Track=5 note_on channel=2 note=62 velocity=0 time=4
Time=14370 Track=5 note_on channel=2 note=65 velocity=1 time=25
Time=14370 Track=6 note_on channel=3 note=65 velocity=1 time=29
Time=14370 Track=7 note_on channel=4 note=65 velocity=71 time=29
Time=14370 Track=7 note_on channel=4 note=62 velocity=71 time=0
Time=14371 Track=5 note_on channel=2 note=65 velocity=0 time=1
Time=14371 Track=6 note_on channel=3 note=65 velocity=0 time=1
Time=14371 Track=7 note_on channel=4 note=62 velocity=0 time=1
Time=14371 Track=7 note_on channel=4 note=65 velocity=0 time=0
Time=14385 Track=11 note_on channel=9 note=46 velocity=0 time=45
Time=14390 Track=6 note_on channel=3 note=50 velocity=101 time=19
Time=14395 Track=3 note_on channel=0 note=31 velocity=0 time=115
Time=14395 Track=4 note_on channel=1 note=31 velocity=0 time=115
Time=14395 Track=5 note_on channel=2 note=72 velocity=0 time=24
Time=14395 Track=6 note_on channel=3 note=62 velocity=104 time=5
Time=14395 Track=6 note_on channel=3 note=57 velocity=91 time=0
Time=14395 Track=10 note_on channel=8 note=62 velocity=0 time=955
Time=14395 Track=10 note_on channel=8 note=50 velocity=0 time=0
Time=14395 Track=12 note_on channel=10 note=50 velocity=0 time=955
Time=14395 Track=13 note_on channel=12 note=62 velocity=0 time=955
Time=14395 Track=13 note_on channel=12 note=50 velocity=0 time=0
Time=14400 Track=3 note_on channel=0 note=29 velocity=103 time=5
Time=14400 Track=4 note_on channel=1 note=29 velocity=101 time=5
Time=14400 Track=5 note_on channel=2 note=72 velocity=107 time=5
Time=14400 Track=5 note_on channel=2 note=60 velocity=107 time=0
Time=14400 Track=5 note_on channel=2 note=65 velocity=107 time=0
Time=14400 Track=10 note_on channel=8 note=41 velocity=100 time=5
Time=14400 Track=10 note_on channel=8 note=53 velocity=100 time=0
Time=14400 Track=11 note_on channel=9 note=36 velocity=121 time=15
Time=14400 Track=11 note_on channel=9 note=42 velocity=112 time=0
Time=14400 Track=11 note_on channel=9 note=49 velocity=92 time=0
Time=14400 Track=12 note_on channel=10 note=41 velocity=106 time=5
Time=14400 Track=13 note_on channel=12 note=41 velocity=105 time=5
Time=14400 Track=13 note_on channel=12 note=53 velocity=105 time=0
Time=14400 Track=13 note_on channel=12 note=48 velocity=105 time=0
Time=14400 Track=13 note_on channel=12 note=57 velocity=0 time=0
Time=14435 Track=11 note_on channel=9 note=42 velocity=0 time=35
Time=14450 Track=5 note_on channel=2 note=65 velocity=0 time=50
Time=14450 Track=5 note_on channel=2 note=60 velocity=0 time=0
Time=14455 Track=11 note_on channel=9 note=49 velocity=0 time=20
Time=14455 Track=11 note_on channel=9 note=36 velocity=0 time=0
Time=14460 Track=11 note_on channel=9 note=42 velocity=83 time=5
Time=14490 Track=6 note_on channel=3 note=62 velocity=0 time=95
Time=14505 Track=11 note_on channel=9 note=42 velocity=0 time=45
Time=14510 Track=6 note_on channel=3 note=57 velocity=0 time=20
Time=14515 Track=5 note_on channel=2 note=72 velocity=0 time=65
Time=14520 Track=5 note_on channel=2 note=72 velocity=106 time=5
Time=14520 Track=5 note_on channel=2 note=65 velocity=106 time=0
Time=14520 Track=5 note_on channel=2 note=60 velocity=106 time=0
Time=14520 Track=11 note_on channel=9 note=36 velocity=120 time=15
Time=14520 Track=11 note_on channel=9 note=40 velocity=127 time=0
Time=14520 Track=11 note_on channel=9 note=42 velocity=125 time=0
Time=14535 Track=6 note_on channel=3 note=50 velocity=0 time=25
Time=14565 Track=5 note_on channel=2 note=60 velocity=0 time=40
Time=14565 Track=5 note_on channel=2 note=65 velocity=0 time=0
Time=14570 Track=11 note_on channel=9 note=42 velocity=0 time=50
Time=14575 Track=11 note_on channel=9 note=40 velocity=0 time=5
Time=14575 Track=11 note_on channel=9 note=36 velocity=0 time=0
Time=14580 Track=11 note_on channel=9 note=42 velocity=93 time=5
Time=14625 Track=11 note_on channel=9 note=42 velocity=0 time=45
Time=14635 Track=5 note_on channel=2 note=72 velocity=0 time=0
Time=14640 Track=5 note_on channel=2 note=65 velocity=106 time=5
Time=14640 Track=5 note_on channel=2 note=72 velocity=106 time=0
Time=14640 Track=5 note_on channel=2 note=60 velocity=106 time=0
Time=14640 Track=11 note_on channel=9 note=36 velocity=120 time=15
Time=14640 Track=11 note_on channel=9 note=42 velocity=114 time=0
Time=14685 Track=11 note_on channel=9 note=42 velocity=0 time=45
Time=14690 Track=5 note_on channel=2 note=60 velocity=0 time=50
Time=14690 Track=5 note_on channel=2 note=65 velocity=0 time=0
Time=14695 Track=11 note_on channel=9 note=36 velocity=0 time=10
Time=14700 Track=11 note_on channel=9 note=42 velocity=94 time=5
Time=14745 Track=11 note_on channel=9 note=42 velocity=0 time=45
Time=14755 Track=5 note_on channel=2 note=72 velocity=0 time=0
Time=14760 Track=5 note_on channel=2 note=72 velocity=105 time=5
Time=14760 Track=5 note_on channel=2 note=65 velocity=105 time=0
Time=14760 Track=5 note_on channel=2 note=60 velocity=105 time=0
Time=14760 Track=11 note_on channel=9 note=36 velocity=119 time=15
Time=14760 Track=11 note_on channel=9 note=40 velocity=127 time=0
Time=14760 Track=11 note_on channel=9 note=42 velocity=126 time=0
Time=14800 Track=5 note_on channel=2 note=65 velocity=0 time=40
Time=14800 Track=11 note_on channel=9 note=42 velocity=0 time=40
Time=14805 Track=5 note_on channel=2 note=60 velocity=0 time=5
Time=14815 Track=3 note_on channel=0 note=29 velocity=0 time=415
Time=14815 Track=4 note_on channel=1 note=29 velocity=0 time=415
Time=14815 Track=11 note_on channel=9 note=40 velocity=0 time=15
Time=14815 Track=11 note_on channel=9 note=36 velocity=0 time=0
Time=14820 Track=3 note_on channel=0 note=29 velocity=102 time=5
Time=14820 Track=4 note_on channel=1 note=29 velocity=100 time=5
Time=14820 Track=11 note_on channel=9 note=46 velocity=121 time=5
Time=14865 Track=11 note_on channel=9 note=46 velocity=0 time=45
Time=14875 Track=3 note_on channel=0 note=29 velocity=0 time=55
Time=14875 Track=4 note_on channel=1 note=29 velocity=0 time=55
Time=14875 Track=5 note_on channel=2 note=72 velocity=0 time=0
Time=14875 Track=10 note_on channel=8 note=53 velocity=0 time=475
Time=14875 Track=10 note_on channel=8 note=41 velocity=0 time=0
Time=14875 Track=12 note_on channel=10 note=41 velocity=0 time=475
Time=14875 Track=13 note_on channel=12 note=41 velocity=0 time=475
Time=14875 Track=13 note_on channel=12 note=53 velocity=0 time=0
Time=14875 Track=13 note_on channel=12 note=48 velocity=0 time=0
Time=14880 Track=3 note_on channel=0 note=36 velocity=102 time=5
Time=14880 Track=4 note_on channel=1 note=36 velocity=100 time=5
Time=14880 Track=5 note_on channel=2 note=72 velocity=105 time=5
Time=14880 Track=5 note_on channel=2 note=64 velocity=105 time=0
Time=14880 Track=5 note_on channel=2 note=60 velocity=105 time=0
Time=14880 Track=10 note_on channel=8 note=48 velocity=100 time=5
Time=14880 Track=10 note_on channel=8 note=60 velocity=100 time=0
Time=14880 Track=11 note_on channel=9 note=36 velocity=121 time=15
Time=14880 Track=11 note_on channel=9 note=42 velocity=112 time=0
Time=14880 Track=11 note_on channel=9 note=49 velocity=92 time=0
Time=14880 Track=12 note_on channel=10 note=48 velocity=106 time=5
Time=14880 Track=13 note_on channel=12 note=48 velocity=105 time=5
Time=14880 Track=13 note_on channel=12 note=55 velocity=105 time=0
Time=14880 Track=13 note_on channel=12 note=60 velocity=105 time=0
Time=14915 Track=11 note_on channel=9 note=42 velocity=0 time=35
Time=14920 Track=5 note_on channel=2 note=60 velocity=0 time=40
Time=14925 Track=5 note_on channel=2 note=64 velocity=0 time=5
Time=14935 Track=11 note_on channel=9 note=49 velocity=0 time=20
Time=14935 Track=11 note_on channel=9 note=36 velocity=0 time=0
Time=14940 Track=11 note_on channel=9 note=42 velocity=83 time=5
Time=14985 Track=11 note_on channel=9 note=42 velocity=0 time=45
Time=14995 Track=5 note_on channel=2 note=60 velocity=105 time=0
Time=14995 Track=5 note_on channel=2 note=72 velocity=0 time=0
Time=15000 Track=5 note_on channel=2 note=72 velocity=105 time=5
Time=15000 Track=5 note_on channel=2 note=64 velocity=105 time=0
Time=15000 Track=11 note_on channel=9 note=36 velocity=120 time=15
Time=15000 Track=11 note_on channel=9 note=40 velocity=127 time=0
Time=15000 Track=11 note_on channel=9 note=42 velocity=125 time=0
Time=15025 Track=5 note_on channel=2 note=72 velocity=0 time=20
Time=15030 Track=5 note_on channel=2 note=72 velocity=105 time=5
Time=15050 Track=5 note_on channel=2 note=60 velocity=0 time=20
Time=15050 Track=11 note_on channel=9 note=42 velocity=0 time=50
Time=15055 Track=5 note_on channel=2 note=60 velocity=105 time=0
Time=15055 Track=5 note_on channel=2 note=72 velocity=0 time=0
Time=15055 Track=5 note_on channel=2 note=64 velocity=0 time=0
Time=15055 Track=11 note_on channel=9 note=40 velocity=0 time=5
Time=15055 Track=11 note_on channel=9 note=36 velocity=0 time=0
Time=15060 Track=5 note_on channel=2 note=72 velocity=105 time=5
Time=15060 Track=5 note_on channel=2 note=72 velocity=105 time=0
Time=15060 Track=5 note_on channel=2 note=64 velocity=105 time=0
Time=15060 Track=11 note_on channel=9 note=42 velocity=93 time=5
Time=15061 Track=5 note_on channel=2 note=72 velocity=0 time=1
Time=15085 Track=5 note_on channel=2 note=72 velocity=0 time=0
Time=15090 Track=5 note_on channel=2 note=72 velocity=105 time=5
Time=15105 Track=11 note_on channel=9 note=42 velocity=0 time=45
Time=15110 Track=5 note_on channel=2 note=60 velocity=0 time=0
Time=15115 Track=5 note_on channel=2 note=60 velocity=104 time=5
Time=15115 Track=5 note_on channel=2 note=64 velocity=104 time=0
Time=15115 Track=5 note_on channel=2 note=72 velocity=0 time=0
Time=15115 Track=5 note_on channel=2 note=64 velocity=0 time=0
Time=15120 Track=5 note_on channel=2 note=72 velocity=104 time=5
Time=15120 Track=11 note_on channel=9 note=36 velocity=120 time=15
Time=15120 Track=11 note_on channel=9 note=42 velocity=114 time=0
Time=15145 Track=5 note_on channel=2 note=72 velocity=0 time=0
Time=15150 Track=5 note_on channel=2 note=72 velocity=104 time=5
Time=15150 Track=5 note_on channel=2 note=72 velocity=104 time=0
Time=15151 Track=5 note_on channel=2 note=72 velocity=0 time=1
Time=15165 Track=11 note_on channel=9 note=42 velocity=0 time=45
Time=15170 Track=5 note_on channel=2 note=60 velocity=104 time=19
Time=15170 Track=5 note_on channel=2 note=60 velocity=0 time=0
Time=15175 Track=5 note_on channel=2 note=64 velocity=104 time=0
Time=15175 Track=5 note_on channel=2 note=64 velocity=0 time=0
Time=15175 Track=5 note_on channel=2 note=72 velocity=0 time=0
Time=15175 Track=11 note_on channel=9 note=36 velocity=0 time=10
Time=15180 Track=5 note_on channel=2 note=72 velocity=104 time=5
Time=15180 Track=11 note_on channel=9 note=42 velocity=94 time=5
Time=15205 Track=5 note_on channel=2 note=72 velocity=0 time=5
Time=15210 Track=5 note_on channel=2 note=72 velocity=104 time=5
Time=15225 Track=11 note_on channel=9 note=42 velocity=0 time=45
Time=15230 Track=5 note_on channel=2 note=60 velocity=0 time=20
Time=15235 Track=5 note_on channel=2 note=60 velocity=103 time=0
Time=15235 Track=5 note_on channel=2 note=64 velocity=103 time=0
Time=15235 Track=5 note_on channel=2 note=72 velocity=0 time=0
Time=15235 Track=5 note_on channel=2 note=64 velocity=0 time=0
Time=15240 Track=5 note_on channel=2 note=72 velocity=103 time=5
Time=15240 Track=11 note_on channel=9 note=36 velocity=119 time=15
Time=15240 Track=11 note_on channel=9 note=40 velocity=127 time=0
Time=15240 Track=11 note_on channel=9 note=42 velocity=126 time=0
Time=15265 Track=5 note_on channel=2 note=72 velocity=0 time=5
Time=15270 Track=5 note_on channel=2 note=72 velocity=103 time=5
Time=15280 Track=11 note_on channel=9 note=42 velocity=0 time=40
Time=15285 Track=5 note_on channel=2 note=60 velocity=0 time=15
Time=15290 Track=3 note_on channel=0 note=36 velocity=0 time=410
Time=15290 Track=4 note_on channel=1 note=36 velocity=0 time=410
Time=15295 Track=5 note_on channel=2 note=60 velocity=103 time=0
Time=15295 Track=5 note_on channel=2 note=64 velocity=103 time=0
Time=15295 Track=5 note_on channel=2 note=72 velocity=0 time=0
Time=15295 Track=5 note_on channel=2 note=64 velocity=0 time=0
Time=15295 Track=11 note_on channel=9 note=40 velocity=0 time=15
Time=15295 Track=11 note_on channel=9 note=36 velocity=0 time=0
Time=15300 Track=3 note_on channel=0 note=36 velocity=101 time=10
Time=15300 Track=4 note_on channel=1 note=36 velocity=99 time=10
Time=15300 Track=5 note_on channel=2 note=72 velocity=103 time=5
Time=15300 Track=11 note_on channel=9 note=46 velocity=121 time=5
Time=15300 Track=12 note_on channel=10 note=48 velocity=0 time=420
Time=15325 Track=5 note_on channel=2 note=72 velocity=0 time=0
Time=15330 Track=5 note_on channel=2 note=72 velocity=102 time=5
Time=15340 Track=5 note_on channel=2 note=60 velocity=0 time=10
Time=15340 Track=5 note_on channel=2 note=64 velocity=0 time=0
Time=15345 Track=11 note_on channel=9 note=46 velocity=0 time=45
Time=15350 Track=3 note_on channel=0 note=36 velocity=0 time=50
Time=15355 Track=4 note_on channel=1 note=36 velocity=0 time=55
Time=15355 Track=10 note_on channel=8 note=60 velocity=0 time=475
Time=15355 Track=10 note_on channel=8 note=48 velocity=0 time=0
Time=15355 Track=13 note_on channel=12 note=60 velocity=0 time=475
Time=15355 Track=13 note_on channel=12 note=55 velocity=0 time=0
Time=15355 Track=13 note_on channel=12 note=48 velocity=0 time=0
Time=15360 Track=3 note_on channel=0 note=38 velocity=103 time=10
Time=15360 Track=4 note_on channel=1 note=38 velocity=101 time=5
Time=15360 Track=5 note_on channel=2 note=57 velocity=91 time=5
Time=15360 Track=5 note_on channel=2 note=62 velocity=104 time=0
Time=15360 Track=5 note_on channel=2 note=50 velocity=101 time=0
Time=15360 Track=11 note_on channel=9 note=36 velocity=121 time=15
Time=15360 Track=11 note_on channel=9 note=42 velocity=112 time=0
Time=15360 Track=13 note_on channel=12 note=50 velocity=104 time=5
Time=15360 Track=13 note_on channel=12 note=57 velocity=104 time=0
Time=15360 Track=13 note_on channel=12 note=62 velocity=104 time=0
Time=15395 Track=11 note_on channel=9 note=42 velocity=0 time=35
Time=15400 Track=5 note_on channel=2 note=50 velocity=0 time=40
Time=15405 Track=5 note_on channel=2 note=62 velocity=0 time=5
Time=15405 Track=5 note_on channel=2 note=57 velocity=0 time=0
Time=15410 Track=13 note_on channel=12 note=57 velocity=0 time=50
Time=15415 Track=11 note_on channel=9 note=36 velocity=0 time=20
Time=15415 Track=13 note_on channel=12 note=62 velocity=0 time=5
Time=15420 Track=4 note_on channel=1 note=38 velocity=0 time=60
Time=15420 Track=11 note_on channel=9 note=42 velocity=83 time=5
Time=15420 Track=13 note_on channel=12 note=50 velocity=0 time=5
Time=15425 Track=3 note_on channel=0 note=38 velocity=0 time=65
Time=15465 Track=11 note_on channel=9 note=42 velocity=0 time=45
Time=15480 Track=11 note_on channel=9 note=36 velocity=120 time=15
Time=15480 Track=11 note_on channel=9 note=40 velocity=127 time=0
Time=15480 Track=11 note_on channel=9 note=42 velocity=125 time=0
Time=15530 Track=11 note_on channel=9 note=42 velocity=0 time=50
Time=15535 Track=11 note_on channel=9 note=40 velocity=0 time=5
Time=15535 Track=11 note_on channel=9 note=36 velocity=0 time=0
Time=15540 Track=11 note_on channel=9 note=42 velocity=93 time=5
Time=15585 Track=11 note_on channel=9 note=42 velocity=0 time=45
Time=15600 Track=11 note_on channel=9 note=36 velocity=120 time=15
Time=15600 Track=11 note_on channel=9 note=42 velocity=114 time=0
Time=15645 Track=11 note_on channel=9 note=42 velocity=0 time=45
Time=15655 Track=11 note_on channel=9 note=36 velocity=0 time=10
Time=15660 Track=11 note_on channel=9 note=42 velocity=94 time=5
Time=15705 Track=11 note_on channel=9 note=42 velocity=0 time=45
Time=15720 Track=11 note_on channel=9 note=36 velocity=119 time=15
Time=15720 Track=11 note_on channel=9 note=40 velocity=127 time=0
Time=15720 Track=11 note_on channel=9 note=42 velocity=126 time=0
Time=15760 Track=11 note_on channel=9 note=42 velocity=0 time=40
Time=15775 Track=11 note_on channel=9 note=40 velocity=0 time=15
Time=15775 Track=11 note_on channel=9 note=36 velocity=0 time=0
Time=15780 Track=11 note_on channel=9 note=46 velocity=121 time=5
Time=15825 Track=11 note_on channel=9 note=46 velocity=0 time=45
Time=15840 Track=11 note_on channel=9 note=36 velocity=121 time=15
Time=15840 Track=11 note_on channel=9 note=42 velocity=112 time=0
Time=15875 Track=11 note_on channel=9 note=42 velocity=0 time=35
Time=15895 Track=11 note_on channel=9 note=36 velocity=0 time=20
Time=15900 Track=11 note_on channel=9 note=42 velocity=83 time=5
Time=15945 Track=11 note_on channel=9 note=42 velocity=0 time=45
Time=15960 Track=11 note_on channel=9 note=36 velocity=120 time=15
Time=15960 Track=11 note_on channel=9 note=40 velocity=127 time=0
Time=15960 Track=11 note_on channel=9 note=42 velocity=125 time=0
Time=16010 Track=11 note_on channel=9 note=42 velocity=0 time=50
Time=16015 Track=11 note_on channel=9 note=40 velocity=0 time=5
Time=16015 Track=11 note_on channel=9 note=36 velocity=0 time=0
Time=16020 Track=11 note_on channel=9 note=42 velocity=93 time=5
Time=16065 Track=11 note_on channel=9 note=42 velocity=0 time=45
Time=16080 Track=11 note_on channel=9 note=36 velocity=120 time=15
Time=16080 Track=11 note_on channel=9 note=42 velocity=114 time=0
Time=16125 Track=11 note_on channel=9 note=42 velocity=0 time=45
Time=16135 Track=11 note_on channel=9 note=36 velocity=0 time=10
Time=16140 Track=11 note_on channel=9 note=42 velocity=94 time=5
Time=16185 Track=11 note_on channel=9 note=42 velocity=0 time=45
Time=16200 Track=11 note_on channel=9 note=36 velocity=119 time=15
Time=16200 Track=11 note_on channel=9 note=40 velocity=127 time=0
Time=16200 Track=11 note_on channel=9 note=42 velocity=126 time=0
Time=16240 Track=11 note_on channel=9 note=42 velocity=0 time=40
Time=16255 Track=11 note_on channel=9 note=40 velocity=0 time=15
Time=16255 Track=11 note_on channel=9 note=36 velocity=0 time=0
Time=16260 Track=11 note_on channel=9 note=46 velocity=121 time=5
Time=16305 Track=11 note_on channel=9 note=46 velocity=0 time=45
Time=16320 Track=11 note_on channel=9 note=36 velocity=121 time=15
Time=16320 Track=11 note_on channel=9 note=42 velocity=112 time=0
Time=16320 Track=12 note_on channel=10 note=50 velocity=109 time=1020
Time=16355 Track=11 note_on channel=9 note=42 velocity=0 time=35
Time=16375 Track=11 note_on channel=9 note=36 velocity=0 time=20
Time=16380 Track=11 note_on channel=9 note=42 velocity=83 time=5
Time=16425 Track=11 note_on channel=9 note=42 velocity=0 time=45
Time=16435 Track=12 note_on channel=10 note=50 velocity=0 time=115
Time=16440 Track=11 note_on channel=9 note=36 velocity=120 time=15
Time=16440 Track=11 note_on channel=9 note=40 velocity=127 time=0
Time=16440 Track=11 note_on channel=9 note=42 velocity=125 time=0
Time=16440 Track=12 note_on channel=10 note=52 velocity=109 time=5
Time=16490 Track=11 note_on channel=9 note=42 velocity=0 time=50
Time=16495 Track=11 note_on channel=9 note=40 velocity=0 time=5
Time=16495 Track=11 note_on channel=9 note=36 velocity=0 time=0
Time=16495 Track=12 note_on channel=10 note=52 velocity=0 time=55
Time=16500 Track=11 note_on channel=9 note=42 velocity=93 time=5
Time=16500 Track=12 note_on channel=10 note=53 velocity=109 time=5
Time=16545 Track=11 note_on channel=9 note=42 velocity=0 time=45
Time=16560 Track=11 note_on channel=9 note=36 velocity=120 time=15
Time=16560 Track=11 note_on channel=9 note=42 velocity=114 time=0
Time=16605 Track=11 note_on channel=9 note=42 velocity=0 time=45
Time=16615 Track=11 note_on channel=9 note=36 velocity=0 time=10
Time=16615 Track=12 note_on channel=10 note=53 velocity=0 time=115
Time=16620 Track=11 note_on channel=9 note=42 velocity=94 time=5
Time=16620 Track=12 note_on channel=10 note=52 velocity=109 time=5
Time=16665 Track=11 note_on channel=9 note=42 velocity=0 time=45
Time=16680 Track=11 note_on channel=9 note=36 velocity=119 time=15
Time=16680 Track=11 note_on channel=9 note=40 velocity=127 time=0
Time=16680 Track=11 note_on channel=9 note=42 velocity=126 time=0
Time=16720 Track=11 note_on channel=9 note=42 velocity=0 time=40
Time=16735 Track=11 note_on channel=9 note=40 velocity=0 time=15
Time=16735 Track=11 note_on channel=9 note=36 velocity=0 time=0
Time=16740 Track=11 note_on channel=9 note=46 velocity=121 time=5
Time=16785 Track=11 note_on channel=9 note=46 velocity=0 time=45
Time=16795 Track=12 note_on channel=10 note=52 velocity=0 time=175
Time=16800 Track=11 note_on channel=9 note=36 velocity=121 time=15
Time=16800 Track=11 note_on channel=9 note=42 velocity=112 time=0
Time=16800 Track=12 note_on channel=10 note=50 velocity=109 time=5
Time=16835 Track=11 note_on channel=9 note=42 velocity=0 time=35
Time=16855 Track=11 note_on channel=9 note=36 velocity=0 time=20
Time=16860 Track=11 note_on channel=9 note=42 velocity=83 time=5
Time=16905 Track=11 note_on channel=9 note=42 velocity=0 time=45
Time=16915 Track=12 note_on channel=10 note=50 velocity=0 time=115
Time=16920 Track=11 note_on channel=9 note=36 velocity=120 time=15
Time=16920 Track=11 note_on channel=9 note=40 velocity=127 time=0
Time=16920 Track=11 note_on channel=9 note=42 velocity=125 time=0
Time=16920 Track=12 note_on channel=10 note=52 velocity=109 time=5
Time=16970 Track=11 note_on channel=9 note=42 velocity=0 time=50
Time=16975 Track=11 note_on channel=9 note=40 velocity=0 time=5
Time=16975 Track=11 note_on channel=9 note=36 velocity=0 time=0
Time=16975 Track=12 note_on channel=10 note=52 velocity=0 time=55
Time=16980 Track=11 note_on channel=9 note=42 velocity=93 time=5
Time=16980 Track=12 note_on channel=10 note=53 velocity=109 time=5
Time=17025 Track=11 note_on channel=9 note=42 velocity=0 time=45
Time=17040 Track=11 note_on channel=9 note=36 velocity=120 time=15
Time=17040 Track=11 note_on channel=9 note=42 velocity=114 time=0
Time=17085 Track=11 note_on channel=9 note=42 velocity=0 time=45
Time=17095 Track=11 note_on channel=9 note=36 velocity=0 time=10
Time=17095 Track=12 note_on channel=10 note=53 velocity=0 time=115
Time=17100 Track=11 note_on channel=9 note=42 velocity=94 time=5
Time=17100 Track=12 note_on channel=10 note=52 velocity=97 time=5
Time=17145 Track=11 note_on channel=9 note=42 velocity=0 time=45
Time=17160 Track=11 note_on channel=9 note=36 velocity=119 time=15
Time=17160 Track=11 note_on channel=9 note=40 velocity=127 time=0
Time=17160 Track=11 note_on channel=9 note=42 velocity=126 time=0
Time=17200 Track=11 note_on channel=9 note=42 velocity=0 time=40
Time=17215 Track=11 note_on channel=9 note=40 velocity=0 time=15
Time=17215 Track=11 note_on channel=9 note=36 velocity=0 time=0
Time=17220 Track=11 note_on channel=9 note=46 velocity=121 time=5
Time=17265 Track=11 note_on channel=9 note=46 velocity=0 time=45
Time=17270 Track=5 note_on channel=2 note=50 velocity=101 time=80
Time=17270 Track=6 note_on channel=3 note=50 velocity=101 time=2735
Time=17275 Track=5 note_on channel=2 note=62 velocity=104 time=5
Time=17275 Track=5 note_on channel=2 note=57 velocity=91 time=0
Time=17275 Track=6 note_on channel=3 note=62 velocity=104 time=5
Time=17275 Track=6 note_on channel=3 note=57 velocity=91 time=0
Time=17280 Track=3 note_on channel=0 note=26 velocity=103 time=1855
Time=17280 Track=4 note_on channel=1 note=26 velocity=101 time=1860
Time=17280 Track=5 note_on channel=2 note=65 velocity=94 time=5
Time=17280 Track=6 note_on channel=3 note=65 velocity=94 time=5
Time=17280 Track=11 note_on channel=9 note=36 velocity=121 time=15
Time=17280 Track=11 note_on channel=9 note=42 velocity=112 time=0
Time=17285 Track=5 note_on channel=2 note=69 velocity=96 time=5
Time=17285 Track=6 note_on channel=3 note=69 velocity=96 time=5
Time=17315 Track=11 note_on channel=9 note=42 velocity=0 time=35
Time=17335 Track=11 note_on channel=9 note=36 velocity=0 time=20
Time=17340 Track=11 note_on channel=9 note=42 velocity=83 time=5
Time=17365 Track=5 note_on channel=2 note=65 velocity=108 time=80
Time=17365 Track=5 note_on channel=2 note=65 velocity=0 time=0
Time=17365 Track=6 note_on channel=3 note=65 velocity=108 time=80
Time=17365 Track=6 note_on channel=3 note=65 velocity=0 time=0
Time=17365 Track=7 note_on channel=4 note=65 velocity=107 time=2970
Time=17370 Track=5 note_on channel=2 note=62 velocity=97 time=5
Time=17370 Track=5 note_on channel=2 note=62 velocity=0 time=0
Time=17370 Track=6 note_on channel=3 note=62 velocity=97 time=5
Time=17370 Track=6 note_on channel=3 note=62 velocity=0 time=0
Time=17370 Track=7 note_on channel=4 note=62 velocity=105 time=5
Time=17370 Track=7 note_on channel=4 note=65 velocity=0 time=0
Time=17375 Track=7 note_on channel=4 note=62 velocity=0 time=5
Time=17385 Track=11 note_on channel=9 note=42 velocity=0 time=45
Time=17390 Track=5 note_on channel=2 note=57 velocity=0 time=20
Time=17390 Track=6 note_on channel=3 note=57 velocity=0 time=20
Time=17390 Track=7 note_on channel=4 note=57 velocity=107 time=15
Time=17395 Track=5 note_on channel=2 note=57 velocity=100 time=5
Time=17395 Track=5 note_on channel=2 note=62 velocity=108 time=0
Time=17395 Track=5 note_on channel=2 note=69 velocity=0 time=0
Time=17395 Track=5 note_on channel=2 note=62 velocity=0 time=0
Time=17395 Track=6 note_on channel=3 note=57 velocity=100 time=5
Time=17395 Track=6 note_on channel=3 note=62 velocity=108 time=0
Time=17395 Track=6 note_on channel=3 note=69 velocity=0 time=0
Time=17395 Track=6 note_on channel=3 note=62 velocity=0 time=0
Time=17395 Track=7 note_on channel=4 note=62 velocity=107 time=5
Time=17400 Track=5 note_on channel=2 note=65 velocity=90 time=5
Time=17400 Track=5 note_on channel=2 note=65 velocity=0 time=0
Time=17400 Track=6 note_on channel=3 note=65 velocity=90 time=5
Time=17400 Track=6 note_on channel=3 note=65 velocity=0 time=0
Time=17400 Track=7 note_on channel=4 note=65 velocity=98 time=5
Time=17400 Track=7 note_on channel=4 note=57 velocity=0 time=0
Time=17400 Track=11 note_on channel=9 note=36 velocity=120 time=15
Time=17400 Track=11 note_on channel=9 note=40 velocity=127 time=0
Time=17400 Track=11 note_on channel=9 note=42 velocity=125 time=0
Time=17405 Track=7 note_on channel=4 note=65 velocity=0 time=5
Time=17405 Track=7 note_on channel=4 note=62 velocity=0 time=0
Time=17415 Track=5 note_on channel=2 note=50 velocity=0 time=15
Time=17415 Track=6 note_on channel=3 note=50 velocity=0 time=15
Time=17430 Track=5 note_on channel=2 note=57 velocity=0 time=15
Time=17430 Track=6 note_on channel=3 note=57 velocity=0 time=15
Time=17450 Track=5 note_on channel=2 note=57 velocity=89 time=20
Time=17450 Track=5 note_on channel=2 note=65 velocity=0 time=0
Time=17450 Track=6 note_on channel=3 note=57 velocity=89 time=20
Time=17450 Track=6 note_on channel=3 note=65 velocity=0 time=0
Time=17450 Track=11 note_on channel=9 note=42 velocity=0 time=50
Time=17455 Track=5 note_on channel=2 note=60 velocity=116 time=5
Time=17455 Track=6 note_on channel=3 note=60 velocity=116 time=5
Time=17455 Track=11 note_on channel=9 note=40 velocity=0 time=5
Time=17455 Track=11 note_on channel=9 note=36 velocity=0 time=0
Time=17460 Track=5 note_on channel=2 note=65 velocity=106 time=5
Time=17460 Track=6 note_on channel=3 note=65 velocity=106 time=5
Time=17460 Track=11 note_on channel=9 note=42 velocity=93 time=5
Time=17465 Track=5 note_on channel=2 note=62 velocity=0 time=5
Time=17465 Track=6 note_on channel=3 note=62 velocity=0 time=5
Time=17505 Track=11 note_on channel=9 note=42 velocity=0 time=45
Time=17515 Track=5 note_on channel=2 note=57 velocity=91 time=50
Time=17515 Track=5 note_on channel=2 note=62 velocity=113 time=0
Time=17515 Track=5 note_on channel=2 note=60 velocity=0 time=0
Time=17515 Track=5 note_on channel=2 note=57 velocity=0 time=0
Time=17515 Track=6 note_on channel=3 note=57 velocity=91 time=50
Time=17515 Track=6 note_on channel=3 note=62 velocity=113 time=0
Time=17515 Track=6 note_on channel=3 note=57 velocity=0 time=0
Time=17515 Track=6 note_on channel=3 note=60 velocity=0 time=0
Time=17515 Track=7 note_on channel=4 note=57 velocity=99 time=110
Time=17515 Track=7 note_on channel=4 note=62 velocity=107 time=0
Time=17520 Track=5 note_on channel=2 note=65 velocity=96 time=5
Time=17520 Track=5 note_on channel=2 note=65 velocity=0 time=0
Time=17520 Track=6 note_on channel=3 note=65 velocity=96 time=5
Time=17520 Track=6 note_on channel=3 note=65 velocity=0 time=0
Time=17520 Track=7 note_on channel=4 note=65 velocity=104 time=5
Time=17520 Track=11 note_on channel=9 note=36 velocity=120 time=15
Time=17520 Track=11 note_on channel=9 note=42 velocity=114 time=0
Time=17525 Track=7 note_on channel=4 note=65 velocity=0 time=5
Time=17525 Track=7 note_on channel=4 note=62 velocity=0 time=0
Time=17525 Track=7 note_on channel=4 note=57 velocity=0 time=0
Time=17545 Track=5 note_on channel=2 note=65 velocity=115 time=25
Time=17545 Track=5 note_on channel=2 note=65 velocity=0 time=0
Time=17545 Track=6 note_on channel=3 note=65 velocity=115 time=25
Time=17545 Track=6 note_on channel=3 note=65 velocity=0 time=0
Time=17545 Track=7 note_on channel=4 note=65 velocity=107 time=20
Time=17550 Track=5 note_on channel=2 note=62 velocity=94 time=5
Time=17550 Track=5 note_on channel=2 note=62 velocity=0 time=0
Time=17550 Track=6 note_on channel=3 note=62 velocity=94 time=5
Time=17550 Track=6 note_on channel=3 note=62 velocity=0 time=0
Time=17550 Track=7 note_on channel=4 note=62 velocity=102 time=5
Time=17555 Track=7 note_on channel=4 note=62 velocity=0 time=5
Time=17555 Track=7 note_on channel=4 note=65 velocity=0 time=0
Time=17565 Track=11 note_on channel=9 note=42 velocity=0 time=45
Time=17575 Track=7 note_on channel=4 note=65 velocity=78 time=20
Time=17575 Track=11 note_on channel=9 note=36 velocity=0 time=10
Time=17576 Track=7 note_on channel=4 note=65 velocity=0 time=1
Time=17580 Track=5 note_on channel=2 note=62 velocity=1 time=30
Time=17580 Track=5 note_on channel=2 note=65 velocity=0 time=0
Time=17580 Track=5 note_on channel=2 note=62 velocity=0 time=0
Time=17580 Track=5 note_on channel=2 note=57 velocity=0 time=0
Time=17580 Track=6 note_on channel=3 note=62 velocity=1 time=30
Time=17580 Track=6 note_on channel=3 note=65 velocity=0 time=0
Time=17580 Track=6 note_on channel=3 note=62 velocity=0 time=0
Time=17580 Track=6 note_on channel=3 note=57 velocity=0 time=0
Time=17580 Track=7 note_on channel=4 note=62 velocity=78 time=4
Time=17580 Track=11 note_on channel=9 note=42 velocity=94 time=5
Time=17581 Track=6 note_on channel=3 note=62 velocity=0 time=1
Time=17581 Track=7 note_on channel=4 note=62 velocity=0 time=1
Time=17585 Track=5 note_on channel=2 note=62 velocity=0 time=5
Time=17605 Track=7 note_on channel=4 note=65 velocity=76 time=24
Time=17606 Track=7 note_on channel=4 note=65 velocity=0 time=1
Time=17610 Track=5 note_on channel=2 note=65 velocity=1 time=25
Time=17610 Track=5 note_on channel=2 note=62 velocity=1 time=0
Time=17610 Track=6 note_on channel=3 note=65 velocity=1 time=29
Time=17610 Track=6 note_on channel=3 note=62 velocity=1 time=0
Time=17610 Track=7 note_on channel=4 note=62 velocity=76 time=4
Time=17611 Track=5 note_on channel=2 note=62 velocity=0 time=1
Time=17611 Track=5 note_on channel=2 note=65 velocity=0 time=0
Time=17611 Track=6 note_on channel=3 note=62 velocity=0 time=1
Time=17611 Track=6 note_on channel=3 note=65 velocity=0 time=0
Time=17611 Track=7 note_on channel=4 note=62 velocity=0 time=1
Time=17625 Track=11 note_on channel=9 note=42 velocity=0 time=45
Time=17630 Track=7 note_on channel=4 note=57 velocity=98 time=19
Time=17635 Track=5 note_on channel=2 note=57 velocity=90 time=24
Time=17635 Track=5 note_on channel=2 note=62 velocity=115 time=0
Time=17635 Track=6 note_on channel=3 note=57 velocity=90 time=24
Time=17635 Track=6 note_on channel=3 note=62 velocity=115 time=0
Time=17635 Track=7 note_on channel=4 note=62 velocity=107 time=5
Time=17635 Track=7 note_on channel=4 note=65 velocity=105 time=0
Time=17640 Track=5 note_on channel=2 note=65 velocity=97 time=5
Time=17640 Track=5 note_on channel=2 note=69 velocity=96 time=0
Time=17640 Track=6 note_on channel=3 note=65 velocity=97 time=5
Time=17640 Track=6 note_on channel=3 note=69 velocity=96 time=0
Time=17640 Track=7 note_on channel=4 note=69 velocity=104 time=5
Time=17640 Track=7 note_on channel=4 note=57 velocity=0 time=0
Time=17640 Track=11 note_on channel=9 note=36 velocity=119 time=15
Time=17640 Track=11 note_on channel=9 note=40 velocity=127 time=0
Time=17640 Track=11 note_on channel=9 note=42 velocity=126 time=0
Time=17645 Track=7 note_on channel=4 note=62 velocity=0 time=5
Time=17645 Track=7 note_on channel=4 note=65 velocity=0 time=0
Time=17645 Track=7 note_on channel=4 note=69 velocity=0 time=0
Time=17665 Track=5 note_on channel=2 note=65 velocity=118 time=25
Time=17665 Track=5 note_on channel=2 note=65 velocity=0 time=0
Time=17665 Track=6 note_on channel=3 note=65 velocity=118 time=25
Time=17665 Track=6 note_on channel=3 note=65 velocity=0 time=0
Time=17665 Track=7 note_on channel=4 note=65 velocity=107 time=20
Time=17670 Track=5 note_on channel=2 note=62 velocity=91 time=5
Time=17670 Track=5 note_on channel=2 note=62 velocity=0 time=0
Time=17670 Track=6 note_on channel=3 note=62 velocity=91 time=5
Time=17670 Track=6 note_on channel=3 note=62 velocity=0 time=0
Time=17670 Track=7 note_on channel=4 note=62 velocity=99 time=5
Time=17675 Track=7 note_on channel=4 note=62 velocity=0 time=5
Time=17675 Track=7 note_on channel=4 note=65 velocity=0 time=0
Time=17680 Track=5 note_on channel=2 note=57 velocity=0 time=10
Time=17680 Track=6 note_on channel=3 note=57 velocity=0 time=10
Time=17680 Track=11 note_on channel=9 note=42 velocity=0 time=40
Time=17690 Track=6 note_on channel=3 note=65 velocity=0 time=10
Time=17695 Track=5 note_on channel=2 note=65 velocity=0 time=15
Time=17695 Track=11 note_on channel=9 note=40 velocity=0 time=15
Time=17695 Track=11 note_on channel=9 note=36 velocity=0 time=0
Time=17700 Track=5 note_on channel=2 note=62 velocity=1 time=5
Time=17700 Track=5 note_on channel=2 note=65 velocity=1 time=0
Time=17700 Track=5 note_on channel=2 note=69 velocity=0 time=0
Time=17700 Track=5 note_on channel=2 note=62 velocity=0 time=0
Time=17700 Track=6 note_on channel=3 note=62 velocity=1 time=10
Time=17700 Track=6 note_on channel=3 note=65 velocity=1 time=0
Time=17700 Track=6 note_on channel=3 note=69 velocity=0 time=0
Time=17700 Track=6 note_on channel=3 note=62 velocity=0 time=0
Time=17700 Track=7 note_on channel=4 note=62 velocity=72 time=25
Time=17700 Track=7 note_on channel=4 note=65 velocity=72 time=0
Time=17700 Track=11 note_on channel=9 note=46 velocity=121 time=5
Time=17701 Track=5 note_on channel=2 note=65 velocity=0 time=1
Time=17701 Track=6 note_on channel=3 note=62 velocity=0 time=1
Time=17701 Track=6 note_on channel=3 note=65 velocity=0 time=0
Time=17701 Track=7 note_on channel=4 note=65 velocity=0 time=1
Time=17701 Track=7 note_on channel=4 note=62 velocity=0 time=0
Time=17705 Track=5 note_on channel=2 note=62 velocity=0 time=4
Time=17730 Track=5 note_on channel=2 note=65 velocity=1 time=25
Time=17730 Track=6 note_on channel=3 note=65 velocity=1 time=29
Time=17730 Track=7 note_on channel=4 note=65 velocity=71 time=29
Time=17730 Track=7 note_on channel=4 note=62 velocity=71 time=0
Time=17731 Track=5 note_on channel=2 note=65 velocity=0 time=1
Time=17731 Track=6 note_on channel=3 note=65 velocity=0 time=1
Time=17731 Track=7 note_on channel=4 note=62 velocity=0 time=1
Time=17731 Track=7 note_on channel=4 note=65 velocity=0 time=0
Time=17745 Track=11 note_on channel=9 note=46 velocity=0 time=45
Time=17750 Track=5 note_on channel=2 note=50 velocity=101 time=19
Time=17750 Track=6 note_on channel=3 note=50 velocity=101 time=19
Time=17755 Track=5 note_on channel=2 note=62 velocity=104 time=5
Time=17755 Track=5 note_on channel=2 note=57 velocity=91 time=0
Time=17755 Track=6 note_on channel=3 note=62 velocity=104 time=5
Time=17755 Track=6 note_on channel=3 note=57 velocity=91 time=0
Time=17760 Track=5 note_on channel=2 note=65 velocity=94 time=5
Time=17760 Track=6 note_on channel=3 note=65 velocity=94 time=5
Time=17760 Track=11 note_on channel=9 note=36 velocity=121 time=15
Time=17760 Track=11 note_on channel=9 note=42 velocity=112 time=0
Time=17765 Track=5 note_on channel=2 note=69 velocity=96 time=5
Time=17765 Track=6 note_on channel=3 note=69 velocity=96 time=5
Time=17795 Track=11 note_on channel=9 note=42 velocity=0 time=35
Time=17815 Track=11 note_on channel=9 note=36 velocity=0 time=20
Time=17820 Track=11 note_on channel=9 note=42 velocity=83 time=5
Time=17845 Track=5 note_on channel=2 note=65 velocity=108 time=80
Time=17845 Track=5 note_on channel=2 note=65 velocity=0 time=0
Time=17845 Track=6 note_on channel=3 note=65 velocity=108 time=80
Time=17845 Track=6 note_on channel=3 note=65 velocity=0 time=0
Time=17845 Track=7 note_on channel=4 note=65 velocity=107 time=114
Time=17850 Track=5 note_on channel=2 note=62 velocity=97 time=5
Time=17850 Track=5 note_on channel=2 note=62 velocity=0 time=0
Time=17850 Track=6 note_on channel=3 note=62 velocity=97 time=5
Time=17850 Track=6 note_on channel=3 note=62 velocity=0 time=0
Time=17850 Track=7 note_on channel=4 note=62 velocity=105 time=5
Time=17850 Track=7 note_on channel=4 note=65 velocity=0 time=0
Time=17855 Track=7 note_on channel=4 note=62 velocity=0 time=5
Time=17865 Track=11 note_on channel=9 note=42 velocity=0 time=45
Time=17870 Track=5 note_on channel=2 note=57 velocity=0 time=20
Time=17870 Track=6 note_on channel=3 note=57 velocity=0 time=20
Time=17870 Track=7 note_on channel=4 note=57 velocity=107 time=15
Time=17875 Track=5 note_on channel=2 note=57 velocity=100 time=5
Time=17875 Track=5 note_on channel=2 note=62 velocity=108 time=0
Time=17875 Track=5 note_on channel=2 note=69 velocity=0 time=0
Time=17875 Track=5 note_on channel=2 note=62 velocity=0 time=0
Time=17875 Track=6 note_on channel=3 note=57 velocity=100 time=5
Time=17875 Track=6 note_on channel=3 note=62 velocity=108 time=0
Time=17875 Track=6 note_on channel=3 note=69 velocity=0 time=0
Time=17875 Track=6 note_on channel=3 note=62 velocity=0 time=0
Time=17875 Track=7 note_on channel=4 note=62 velocity=107 time=5
Time=17880 Track=5 note_on channel=2 note=65 velocity=90 time=5
Time=17880 Track=5 note_on channel=2 note=65 velocity=0 time=0
Time=17880 Track=6 note_on channel=3 note=65 velocity=90 time=5
Time=17880 Track=6 note_on channel=3 note=65 velocity=0 time=0
Time=17880 Track=7 note_on channel=4 note=65 velocity=98 time=5
Time=17880 Track=7 note_on channel=4 note=57 velocity=0 time=0
Time=17880 Track=11 note_on channel=9 note=36 velocity=120 time=15
Time=17880 Track=11 note_on channel=9 note=40 velocity=127 time=0
Time=17880 Track=11 note_on channel=9 note=42 velocity=125 time=0
Time=17885 Track=7 note_on channel=4 note=65 velocity=0 time=5
Time=17885 Track=7 note_on channel=4 note=62 velocity=0 time=0
Time=17895 Track=5 note_on channel=2 note=50 velocity=0 time=15
Time=17895 Track=6 note_on channel=3 note=50 velocity=0 time=15
Time=17910 Track=5 note_on channel=2 note=57 velocity=0 time=15
Time=17910 Track=6 note_on channel=3 note=57 velocity=0 time=15
Time=17930 Track=5 note_on channel=2 note=57 velocity=89 time=20
Time=17930 Track=5 note_on channel=2 note=65 velocity=0 time=0
Time=17930 Track=6 note_on channel=3 note=57 velocity=89 time=20
Time=17930 Track=6 note_on channel=3 note=65 velocity=0 time=0
Time=17930 Track=11 note_on channel=9 note=42 velocity=0 time=50
Time=17935 Track=5 note_on channel=2 note=60 velocity=116 time=5
Time=17935 Track=6 note_on channel=3 note=60 velocity=116 time=5
Time=17935 Track=11 note_on channel=9 note=40 velocity=0 time=5
Time=17935 Track=11 note_on channel=9 note=36 velocity=0 time=0
Time=17940 Track=5 note_on channel=2 note=65 velocity=106 time=5
Time=17940 Track=6 note_on channel=3 note=65 velocity=106 time=5
Time=17940 Track=11 note_on channel=9 note=42 velocity=93 time=5
Time=17945 Track=5 note_on channel=2 note=62 velocity=0 time=5
Time=17945 Track=6 note_on channel=3 note=62 velocity=0 time=5
Time=17985 Track=11 note_on channel=9 note=42 velocity=0 time=45
Time=17995 Track=5 note_on channel=2 note=57 velocity=91 time=50
Time=17995 Track=5 note_on channel=2 note=62 velocity=113 time=0
Time=17995 Track=5 note_on channel=2 note=60 velocity=0 time=0
Time=17995 Track=5 note_on channel=2 note=57 velocity=0 time=0
Time=17995 Track=6 note_on channel=3 note=57 velocity=91 time=50
Time=17995 Track=6 note_on channel=3 note=62 velocity=113 time=0
Time=17995 Track=6 note_on channel=3 note=57 velocity=0 time=0
Time=17995 Track=6 note_on channel=3 note=60 velocity=0 time=0
Time=17995 Track=7 note_on channel=4 note=57 velocity=99 time=110
Time=17995 Track=7 note_on channel=4 note=62 velocity=107 time=0
Time=18000 Track=5 note_on channel=2 note=65 velocity=96 time=5
Time=18000 Track=5 note_on channel=2 note=65 velocity=0 time=0
Time=18000 Track=6 note_on channel=3 note=65 velocity=96 time=5
Time=18000 Track=6 note_on channel=3 note=65 velocity=0 time=0
Time=18000 Track=7 note_on channel=4 note=65 velocity=104 time=5
Time=18000 Track=11 note_on channel=9 note=36 velocity=120 time=15
Time=18000 Track=11 note_on channel=9 note=42 velocity=114 time=0
Time=18005 Track=7 note_on channel=4 note=65 velocity=0 time=5
Time=18005 Track=7 note_on channel=4 note=62 velocity=0 time=0
Time=18005 Track=7 note_on channel=4 note=57 velocity=0 time=0
Time=18025 Track=5 note_on channel=2 note=65 velocity=115 time=25
Time=18025 Track=5 note_on channel=2 note=65 velocity=0 time=0
Time=18025 Track=6 note_on channel=3 note=65 velocity=115 time=25
Time=18025 Track=6 note_on channel=3 note=65 velocity=0 time=0
Time=18025 Track=7 note_on channel=4 note=65 velocity=107 time=20
Time=18030 Track=5 note_on channel=2 note=62 velocity=94 time=5
Time=18030 Track=5 note_on channel=2 note=62 velocity=0 time=0
Time=18030 Track=6 note_on channel=3 note=62 velocity=94 time=5
Time=18030 Track=6 note_on channel=3 note=62 velocity=0 time=0
Time=18030 Track=7 note_on channel=4 note=62 velocity=102 time=5
Time=18035 Track=7 note_on channel=4 note=62 velocity=0 time=5
Time=18035 Track=7 note_on channel=4 note=65 velocity=0 time=0
Time=18045 Track=11 note_on channel=9 note=42 velocity=0 time=45
Time=18055 Track=7 note_on channel=4 note=65 velocity=78 time=20
Time=18055 Track=11 note_on channel=9 note=36 velocity=0 time=10
Time=18056 Track=7 note_on channel=4 note=65 velocity=0 time=1
Time=18060 Track=5 note_on channel=2 note=62 velocity=1 time=30
Time=18060 Track=5 note_on channel=2 note=65 velocity=0 time=0
Time=18060 Track=5 note_on channel=2 note=62 velocity=0 time=0
Time=18060 Track=5 note_on channel=2 note=57 velocity=0 time=0
Time=18060 Track=6 note_on channel=3 note=62 velocity=1 time=30
Time=18060 Track=6 note_on channel=3 note=65 velocity=0 time=0
Time=18060 Track=6 note_on channel=3 note=62 velocity=0 time=0
Time=18060 Track=6 note_on channel=3 note=57 velocity=0 time=0
Time=18060 Track=7 note_on channel=4 note=62 velocity=78 time=4
Time=18060 Track=11 note_on channel=9 note=42 velocity=94 time=5
Time=18061 Track=6 note_on channel=3 note=62 velocity=0 time=1
Time=18061 Track=7 note_on channel=4 note=62 velocity=0 time=1
Time=18065 Track=5 note_on channel=2 note=62 velocity=0 time=5
Time=18085 Track=7 note_on channel=4 note=65 velocity=76 time=24
Time=18086 Track=7 note_on channel=4 note=65 velocity=0 time=1
Time=18090 Track=5 note_on channel=2 note=65 velocity=1 time=25
Time=18090 Track=5 note_on channel=2 note=62 velocity=1 time=0
Time=18090 Track=6 note_on channel=3 note=65 velocity=1 time=29
Time=18090 Track=6 note_on channel=3 note=62 velocity=1 time=0
Time=18090 Track=7 note_on channel=4 note=62 velocity=76 time=4
Time=18091 Track=5 note_on channel=2 note=62 velocity=0 time=1
Time=18091 Track=5 note_on channel=2 note=65 velocity=0 time=0
Time=18091 Track=6 note_on channel=3 note=62 velocity=0 time=1
Time=18091 Track=6 note_on channel=3 note=65 velocity=0 time=0
Time=18091 Track=7 note_on channel=4 note=62 velocity=0 time=1
Time=18105 Track=11 note_on channel=9 note=42 velocity=0 time=45
Time=18110 Track=7 note_on channel=4 note=57 velocity=98 time=19
Time=18115 Track=5 note_on channel=2 note=57 velocity=90 time=24
Time=18115 Track=5 note_on channel=2 note=62 velocity=115 time=0
Time=18115 Track=6 note_on channel=3 note=57 velocity=90 time=24
Time=18115 Track=6 note_on channel=3 note=62 velocity=115 time=0
Time=18115 Track=7 note_on channel=4 note=62 velocity=107 time=5
Time=18115 Track=7 note_on channel=4 note=65 velocity=105 time=0
Time=18120 Track=5 note_on channel=2 note=65 velocity=97 time=5
Time=18120 Track=5 note_on channel=2 note=69 velocity=96 time=0
Time=18120 Track=6 note_on channel=3 note=65 velocity=97 time=5
Time=18120 Track=6 note_on channel=3 note=69 velocity=96 time=0
Time=18120 Track=7 note_on channel=4 note=69 velocity=104 time=5
Time=18120 Track=7 note_on channel=4 note=57 velocity=0 time=0
Time=18120 Track=11 note_on channel=9 note=36 velocity=119 time=15
Time=18120 Track=11 note_on channel=9 note=40 velocity=127 time=0
Time=18120 Track=11 note_on channel=9 note=42 velocity=126 time=0
Time=18125 Track=7 note_on channel=4 note=62 velocity=0 time=5
Time=18125 Track=7 note_on channel=4 note=65 velocity=0 time=0
Time=18125 Track=7 note_on channel=4 note=69 velocity=0 time=0
Time=18145 Track=5 note_on channel=2 note=65 velocity=118 time=25
Time=18145 Track=5 note_on channel=2 note=65 velocity=0 time=0
Time=18145 Track=6 note_on channel=3 note=65 velocity=118 time=25
Time=18145 Track=6 note_on channel=3 note=65 velocity=0 time=0
Time=18145 Track=7 note_on channel=4 note=65 velocity=107 time=20
Time=18150 Track=5 note_on channel=2 note=62 velocity=91 time=5
Time=18150 Track=5 note_on channel=2 note=62 velocity=0 time=0
Time=18150 Track=6 note_on channel=3 note=62 velocity=91 time=5
Time=18150 Track=6 note_on channel=3 note=62 velocity=0 time=0
Time=18150 Track=7 note_on channel=4 note=62 velocity=99 time=5
Time=18155 Track=7 note_on channel=4 note=62 velocity=0 time=5
Time=18155 Track=7 note_on channel=4 note=65 velocity=0 time=0
Time=18160 Track=5 note_on channel=2 note=57 velocity=0 time=10
Time=18160 Track=6 note_on channel=3 note=57 velocity=0 time=10
Time=18160 Track=11 note_on channel=9 note=42 velocity=0 time=40
Time=18170 Track=6 note_on channel=3 note=65 velocity=0 time=10
Time=18175 Track=5 note_on channel=2 note=65 velocity=0 time=15
Time=18175 Track=11 note_on channel=9 note=40 velocity=0 time=15
Time=18175 Track=11 note_on channel=9 note=36 velocity=0 time=0
Time=18180 Track=5 note_on channel=2 note=62 velocity=1 time=5
Time=18180 Track=5 note_on channel=2 note=65 velocity=1 time=0
Time=18180 Track=5 note_on channel=2 note=69 velocity=0 time=0
Time=18180 Track=5 note_on channel=2 note=62 velocity=0 time=0
Time=18180 Track=6 note_on channel=3 note=62 velocity=1 time=10
Time=18180 Track=6 note_on channel=3 note=65 velocity=1 time=0
Time=18180 Track=6 note_on channel=3 note=69 velocity=0 time=0
Time=18180 Track=6 note_on channel=3 note=62 velocity=0 time=0
Time=18180 Track=7 note_on channel=4 note=62 velocity=72 time=25
Time=18180 Track=7 note_on channel=4 note=65 velocity=72 time=0
Time=18180 Track=11 note_on channel=9 note=46 velocity=121 time=5
Time=18181 Track=5 note_on channel=2 note=65 velocity=0 time=1
Time=18181 Track=6 note_on channel=3 note=62 velocity=0 time=1
Time=18181 Track=6 note_on channel=3 note=65 velocity=0 time=0
Time=18181 Track=7 note_on channel=4 note=65 velocity=0 time=1
Time=18181 Track=7 note_on channel=4 note=62 velocity=0 time=0
Time=18185 Track=5 note_on channel=2 note=62 velocity=0 time=4
Time=18210 Track=5 note_on channel=2 note=65 velocity=1 time=25
Time=18210 Track=6 note_on channel=3 note=65 velocity=1 time=29
Time=18210 Track=7 note_on channel=4 note=65 velocity=71 time=29
Time=18210 Track=7 note_on channel=4 note=62 velocity=71 time=0
Time=18211 Track=5 note_on channel=2 note=65 velocity=0 time=1
Time=18211 Track=6 note_on channel=3 note=65 velocity=0 time=1
Time=18211 Track=7 note_on channel=4 note=62 velocity=0 time=1
Time=18211 Track=7 note_on channel=4 note=65 velocity=0 time=0
Time=18225 Track=11 note_on channel=9 note=46 velocity=0 time=45
Time=18230 Track=5 note_on channel=2 note=50 velocity=101 time=19
Time=18230 Track=6 note_on channel=3 note=50 velocity=101 time=19
Time=18235 Track=5 note_on channel=2 note=62 velocity=104 time=5
Time=18235 Track=5 note_on channel=2 note=57 velocity=91 time=0
Time=18235 Track=6 note_on channel=3 note=62 velocity=104 time=5
Time=18235 Track=6 note_on channel=3 note=57 velocity=91 time=0
Time=18235 Track=12 note_on channel=10 note=52 velocity=0 time=1135
Time=18240 Track=5 note_on channel=2 note=65 velocity=94 time=0
Time=18240 Track=6 note_on channel=3 note=65 velocity=94 time=5
Time=18240 Track=11 note_on channel=9 note=36 velocity=121 time=15
Time=18240 Track=11 note_on channel=9 note=42 velocity=112 time=0
Time=18240 Track=12 note_on channel=10 note=50 velocity=108 time=5
Time=18245 Track=5 note_on channel=2 note=69 velocity=96 time=5
Time=18245 Track=6 note_on channel=3 note=69 velocity=96 time=5
Time=18275 Track=11 note_on channel=9 note=42 velocity=0 time=35
Time=18295 Track=11 note_on channel=9 note=36 velocity=0 time=20
Time=18300 Track=11 note_on channel=9 note=42 velocity=83 time=5
Time=18325 Track=5 note_on channel=2 note=65 velocity=108 time=0
Time=18325 Track=5 note_on channel=2 note=65 velocity=0 time=0
Time=18325 Track=6 note_on channel=3 note=65 velocity=108 time=80
Time=18325 Track=6 note_on channel=3 note=65 velocity=0 time=0
Time=18325 Track=7 note_on channel=4 note=65 velocity=107 time=114
Time=18330 Track=5 note_on channel=2 note=62 velocity=97 time=5
Time=18330 Track=5 note_on channel=2 note=62 velocity=0 time=0
Time=18330 Track=6 note_on channel=3 note=62 velocity=97 time=5
Time=18330 Track=6 note_on channel=3 note=62 velocity=0 time=0
Time=18330 Track=7 note_on channel=4 note=62 velocity=105 time=5
Time=18330 Track=7 note_on channel=4 note=65 velocity=0 time=0
Time=18335 Track=7 note_on channel=4 note=62 velocity=0 time=5
Time=18345 Track=11 note_on channel=9 note=42 velocity=0 time=45
Time=18350 Track=5 note_on channel=2 note=57 velocity=0 time=0
Time=18350 Track=6 note_on channel=3 note=57 velocity=0 time=20
Time=18350 Track=7 note_on channel=4 note=57 velocity=107 time=15
Time=18355 Track=5 note_on channel=2 note=57 velocity=100 time=5
Time=18355 Track=5 note_on channel=2 note=62 velocity=108 time=0
Time=18355 Track=5 note_on channel=2 note=69 velocity=0 time=0
Time=18355 Track=5 note_on channel=2 note=62 velocity=0 time=0
Time=18355 Track=6 note_on channel=3 note=57 velocity=100 time=5
Time=18355 Track=6 note_on channel=3 note=62 velocity=108 time=0
Time=18355 Track=6 note_on channel=3 note=69 velocity=0 time=0
Time=18355 Track=6 note_on channel=3 note=62 velocity=0 time=0
Time=18355 Track=7 note_on channel=4 note=62 velocity=107 time=5
Time=18355 Track=12 note_on channel=10 note=50 velocity=0 time=115
Time=18360 Track=5 note_on channel=2 note=65 velocity=90 time=5
Time=18360 Track=5 note_on channel=2 note=65 velocity=0 time=0
Time=18360 Track=6 note_on channel=3 note=65 velocity=90 time=5
Time=18360 Track=6 note_on channel=3 note=65 velocity=0 time=0
Time=18360 Track=7 note_on channel=4 note=65 velocity=98 time=5
Time=18360 Track=7 note_on channel=4 note=57 velocity=0 time=0
Time=18360 Track=11 note_on channel=9 note=36 velocity=120 time=15
Time=18360 Track=11 note_on channel=9 note=40 velocity=127 time=0
Time=18360 Track=11 note_on channel=9 note=42 velocity=125 time=0
Time=18360 Track=12 note_on channel=10 note=52 velocity=108 time=5
Time=18365 Track=7 note_on channel=4 note=65 velocity=0 time=5
Time=18365 Track=7 note_on channel=4 note=62 velocity=0 time=0
Time=18375 Track=5 note_on channel=2 note=50 velocity=0 time=15
Time=18375 Track=6 note_on channel=3 note=50 velocity=0 time=15
Time=18390 Track=5 note_on channel=2 note=57 velocity=0 time=15
Time=18390 Track=6 note_on channel=3 note=57 velocity=0 time=15
Time=18410 Track=5 note_on channel=2 note=57 velocity=89 time=20
Time=18410 Track=5 note_on channel=2 note=65 velocity=0 time=0
Time=18410 Track=6 note_on channel=3 note=57 velocity=89 time=20
Time=18410 Track=6 note_on channel=3 note=65 velocity=0 time=0
Time=18410 Track=11 note_on channel=9 note=42 velocity=0 time=50
Time=18415 Track=5 note_on channel=2 note=60 velocity=116 time=5
Time=18415 Track=6 note_on channel=3 note=60 velocity=116 time=5
Time=18415 Track=11 note_on channel=9 note=40 velocity=0 time=5
Time=18415 Track=11 note_on channel=9 note=36 velocity=0 time=0
Time=18415 Track=12 note_on channel=10 note=52 velocity=0 time=55
Time=18420 Track=5 note_on channel=2 note=65 velocity=106 time=0
Time=18420 Track=6 note_on channel=3 note=65 velocity=106 time=5
Time=18420 Track=11 note_on channel=9 note=42 velocity=93 time=5
Time=18420 Track=12 note_on channel=10 note=53 velocity=108 time=5
Time=18425 Track=5 note_on channel=2 note=62 velocity=0 time=5
Time=18425 Track=6 note_on channel=3 note=62 velocity=0 time=5
Time=18465 Track=11 note_on channel=9 note=42 velocity=0 time=45
Time=18475 Track=5 note_on channel=2 note=57 velocity=91 time=0
Time=18475 Track=5 note_on channel=2 note=62 velocity=113 time=0
Time=18475 Track=5 note_on channel=2 note=60 velocity=0 time=0
Time=18475 Track=5 note_on channel=2 note=57 velocity=0 time=0
Time=18475 Track=6 note_on channel=3 note=57 velocity=91 time=50
Time=18475 Track=6 note_on channel=3 note=62 velocity=113 time=0
Time=18475 Track=6 note_on channel=3 note=57 velocity=0 time=0
Time=18475 Track=6 note_on channel=3 note=60 velocity=0 time=0
Time=18475 Track=7 note_on channel=4 note=57 velocity=99 time=110
Time=18475 Track=7 note_on channel=4 note=62 velocity=107 time=0
Time=18480 Track=5 note_on channel=2 note=65 velocity=96 time=5
Time=18480 Track=5 note_on channel=2 note=65 velocity=0 time=0
Time=18480 Track=6 note_on channel=3 note=65 velocity=96 time=5
Time=18480 Track=6 note_on channel=3 note=65 velocity=0 time=0
Time=18480 Track=7 note_on channel=4 note=65 velocity=104 time=5
Time=18480 Track=11 note_on channel=9 note=36 velocity=120 time=15
Time=18480 Track=11 note_on channel=9 note=42 velocity=114 time=0
Time=18485 Track=7 note_on channel=4 note=65 velocity=0 time=5
Time=18485 Track=7 note_on channel=4 note=62 velocity=0 time=0
Time=18485 Track=7 note_on channel=4 note=57 velocity=0 time=0
Time=18510 Track=5 note_on channel=2 note=62 velocity=0 time=5
Time=18510 Track=6 note_on channel=3 note=62 velocity=0 time=30
Time=18525 Track=11 note_on channel=9 note=42 velocity=0 time=45
Time=18535 Track=7 note_on channel=4 note=65 velocity=78 time=50
Time=18535 Track=11 note_on channel=9 note=36 velocity=0 time=10
Time=18535 Track=12 note_on channel=10 note=53 velocity=0 time=115
Time=18536 Track=7 note_on channel=4 note=65 velocity=0 time=1
Time=18540 Track=5 note_on channel=2 note=65 velocity=0 time=30
Time=18540 Track=5 note_on channel=2 note=57 velocity=0 time=0
Time=18540 Track=6 note_on channel=3 note=57 velocity=0 time=30
Time=18540 Track=6 note_on channel=3 note=65 velocity=0 time=0
Time=18540 Track=7 note_on channel=4 note=62 velocity=78 time=4
Time=18540 Track=11 note_on channel=9 note=42 velocity=94 time=5
Time=18540 Track=12 note_on channel=10 note=52 velocity=108 time=5
Time=18541 Track=7 note_on channel=4 note=62 velocity=0 time=1
Time=18565 Track=7 note_on channel=4 note=65 velocity=76 time=24
Time=18566 Track=7 note_on channel=4 note=65 velocity=0 time=1
Time=18570 Track=7 note_on channel=4 note=62 velocity=76 time=4
Time=18571 Track=7 note_on channel=4 note=62 velocity=0 time=1
Time=18585 Track=11 note_on channel=9 note=42 velocity=0 time=45
Time=18590 Track=7 note_on channel=4 note=57 velocity=98 time=19
Time=18595 Track=5 note_on channel=2 note=57 velocity=90 time=55
Time=18595 Track=5 note_on channel=2 note=62 velocity=115 time=0
Time=18595 Track=6 note_on channel=3 note=57 velocity=90 time=55
Time=18595 Track=6 note_on channel=3 note=62 velocity=115 time=0
Time=18595 Track=7 note_on channel=4 note=62 velocity=107 time=5
Time=18595 Track=7 note_on channel=4 note=65 velocity=105 time=0
Time=18600 Track=5 note_on channel=2 note=65 velocity=97 time=5
Time=18600 Track=5 note_on channel=2 note=69 velocity=96 time=0
Time=18600 Track=6 note_on channel=3 note=65 velocity=97 time=5
Time=18600 Track=6 note_on channel=3 note=69 velocity=96 time=0
Time=18600 Track=7 note_on channel=4 note=69 velocity=104 time=5
Time=18600 Track=7 note_on channel=4 note=57 velocity=0 time=0
Time=18600 Track=11 note_on channel=9 note=36 velocity=119 time=15
Time=18600 Track=11 note_on channel=9 note=40 velocity=127 time=0
Time=18600 Track=11 note_on channel=9 note=42 velocity=126 time=0
Time=18605 Track=7 note_on channel=4 note=62 velocity=0 time=5
Time=18605 Track=7 note_on channel=4 note=65 velocity=0 time=0
Time=18605 Track=7 note_on channel=4 note=69 velocity=0 time=0
Time=18630 Track=5 note_on channel=2 note=65 velocity=0 time=0
Time=18630 Track=6 note_on channel=3 note=65 velocity=0 time=30
Time=18630 Track=6 note_on channel=3 note=62 velocity=0 time=0
Time=18635 Track=5 note_on channel=2 note=62 velocity=0 time=5
Time=18640 Track=5 note_on channel=2 note=57 velocity=0 time=5
Time=18640 Track=6 note_on channel=3 note=57 velocity=0 time=10
Time=18640 Track=11 note_on channel=9 note=42 velocity=0 time=40
Time=18655 Track=11 note_on channel=9 note=40 velocity=0 time=15
Time=18655 Track=11 note_on channel=9 note=36 velocity=0 time=0
Time=18660 Track=5 note_on channel=2 note=69 velocity=0 time=20
Time=18660 Track=6 note_on channel=3 note=69 velocity=0 time=20
Time=18660 Track=7 note_on channel=4 note=62 velocity=72 time=55
Time=18660 Track=7 note_on channel=4 note=65 velocity=72 time=0
Time=18660 Track=11 note_on channel=9 note=46 velocity=121 time=5
Time=18661 Track=7 note_on channel=4 note=65 velocity=0 time=1
Time=18661 Track=7 note_on channel=4 note=62 velocity=0 time=0
Time=18690 Track=7 note_on channel=4 note=65 velocity=71 time=29
Time=18690 Track=7 note_on channel=4 note=62 velocity=71 time=0
Time=18691 Track=7 note_on channel=4 note=62 velocity=0 time=1
Time=18691 Track=7 note_on channel=4 note=65 velocity=0 time=0
Time=18705 Track=11 note_on channel=9 note=46 velocity=0 time=45
Time=18710 Track=5 note_on channel=2 note=50 velocity=101 time=50
Time=18710 Track=6 note_on channel=3 note=50 velocity=101 time=50
Time=18715 Track=5 note_on channel=2 note=62 velocity=104 time=5
Time=18715 Track=5 note_on channel=2 note=57 velocity=91 time=0
Time=18715 Track=6 note_on channel=3 note=62 velocity=104 time=5
Time=18715 Track=6 note_on channel=3 note=57 velocity=91 time=0
Time=18715 Track=12 note_on channel=10 note=52 velocity=0 time=175
Time=18720 Track=5 note_on channel=2 note=65 velocity=94 time=5
Time=18720 Track=6 note_on channel=3 note=65 velocity=94 time=5
Time=18720 Track=11 note_on channel=9 note=36 velocity=121 time=15
Time=18720 Track=11 note_on channel=9 note=42 velocity=112 time=0
Time=18720 Track=12 note_on channel=10 note=50 velocity=108 time=5
Time=18725 Track=5 note_on channel=2 note=69 velocity=96 time=5
Time=18725 Track=6 note_on channel=3 note=69 velocity=96 time=5
Time=18755 Track=11 note_on channel=9 note=42 velocity=0 time=35
Time=18775 Track=11 note_on channel=9 note=36 velocity=0 time=20
Time=18780 Track=11 note_on channel=9 note=42 velocity=83 time=5
Time=18800 Track=5 note_on channel=2 note=65 velocity=0 time=0
Time=18800 Track=6 note_on channel=3 note=65 velocity=0 time=75
Time=18805 Track=5 note_on channel=2 note=65 velocity=108 time=0
Time=18805 Track=5 note_on channel=2 note=62 velocity=0 time=0
Time=18805 Track=6 note_on channel=3 note=65 velocity=108 time=5
Time=18805 Track=6 note_on channel=3 note=62 velocity=0 time=0
Time=18805 Track=7 note_on channel=4 note=65 velocity=107 time=114
Time=18810 Track=5 note_on channel=2 note=62 velocity=97 time=5
Time=18810 Track=6 note_on channel=3 note=62 velocity=97 time=5
Time=18810 Track=7 note_on channel=4 note=62 velocity=105 time=5
Time=18810 Track=7 note_on channel=4 note=65 velocity=0 time=0
Time=18815 Track=7 note_on channel=4 note=62 velocity=0 time=5
Time=18825 Track=11 note_on channel=9 note=42 velocity=0 time=45
Time=18830 Track=5 note_on channel=2 note=57 velocity=100 time=0
Time=18830 Track=5 note_on channel=2 note=57 velocity=0 time=0
Time=18830 Track=6 note_on channel=3 note=57 velocity=100 time=20
Time=18830 Track=6 note_on channel=3 note=57 velocity=0 time=0
Time=18830 Track=7 note_on channel=4 note=57 velocity=107 time=15
Time=18835 Track=5 note_on channel=2 note=62 velocity=108 time=5
Time=18835 Track=5 note_on channel=2 note=69 velocity=0 time=0
Time=18835 Track=5 note_on channel=2 note=62 velocity=0 time=0
Time=18835 Track=5 note_on channel=2 note=65 velocity=0 time=0
Time=18835 Track=6 note_on channel=3 note=62 velocity=108 time=5
Time=18835 Track=6 note_on channel=3 note=62 velocity=0 time=0
Time=18835 Track=6 note_on channel=3 note=65 velocity=0 time=0
Time=18835 Track=6 note_on channel=3 note=69 velocity=0 time=0
Time=18835 Track=7 note_on channel=4 note=62 velocity=107 time=5
Time=18840 Track=5 note_on channel=2 note=65 velocity=90 time=5
Time=18840 Track=6 note_on channel=3 note=65 velocity=90 time=5
Time=18840 Track=7 note_on channel=4 note=65 velocity=98 time=5
Time=18840 Track=7 note_on channel=4 note=57 velocity=0 time=0
Time=18840 Track=11 note_on channel=9 note=36 velocity=120 time=15
Time=18840 Track=11 note_on channel=9 note=40 velocity=127 time=0
Time=18840 Track=11 note_on channel=9 note=42 velocity=125 time=0
Time=18840 Track=12 note_on channel=10 note=52 velocity=108 time=120
Time=18840 Track=12 note_on channel=10 note=50 velocity=0 time=0
Time=18845 Track=7 note_on channel=4 note=65 velocity=0 time=5
Time=18845 Track=7 note_on channel=4 note=62 velocity=0 time=0
Time=18850 Track=5 note_on channel=2 note=50 velocity=0 time=10
Time=18850 Track=6 note_on channel=3 note=50 velocity=0 time=10
Time=18865 Track=6 note_on channel=3 note=57 velocity=0 time=15
Time=18870 Track=5 note_on channel=2 note=57 velocity=0 time=20
Time=18885 Track=6 note_on channel=3 note=65 velocity=0 time=20
Time=18890 Track=5 note_on channel=2 note=57 velocity=89 time=20
Time=18890 Track=5 note_on channel=2 note=60 velocity=116 time=0
Time=18890 Track=5 note_on channel=2 note=65 velocity=0 time=0
Time=18890 Track=6 note_on channel=3 note=57 velocity=89 time=5
Time=18890 Track=6 note_on channel=3 note=60 velocity=116 time=0
Time=18890 Track=11 note_on channel=9 note=42 velocity=0 time=50
Time=18895 Track=11 note_on channel=9 note=40 velocity=0 time=5
Time=18895 Track=11 note_on channel=9 note=36 velocity=0 time=0
Time=18895 Track=12 note_on channel=10 note=52 velocity=0 time=55
Time=18900 Track=5 note_on channel=2 note=65 velocity=106 time=5
Time=18900 Track=5 note_on channel=2 note=62 velocity=0 time=0
Time=18900 Track=6 note_on channel=3 note=65 velocity=106 time=10
Time=18900 Track=6 note_on channel=3 note=62 velocity=0 time=0
Time=18900 Track=11 note_on channel=9 note=42 velocity=93 time=5
Time=18900 Track=12 note_on channel=10 note=53 velocity=97 time=5
Time=18945 Track=11 note_on channel=9 note=42 velocity=0 time=45
Time=18955 Track=5 note_on channel=2 note=57 velocity=91 time=5
Time=18955 Track=5 note_on channel=2 note=62 velocity=113 time=0
Time=18955 Track=5 note_on channel=2 note=60 velocity=0 time=0
Time=18955 Track=5 note_on channel=2 note=65 velocity=0 time=0
Time=18955 Track=5 note_on channel=2 note=57 velocity=0 time=0
Time=18955 Track=6 note_on channel=3 note=57 velocity=91 time=55
Time=18955 Track=6 note_on channel=3 note=62 velocity=113 time=0
Time=18955 Track=6 note_on channel=3 note=57 velocity=0 time=0
Time=18955 Track=6 note_on channel=3 note=65 velocity=0 time=0
Time=18955 Track=6 note_on channel=3 note=60 velocity=0 time=0
Time=18955 Track=7 note_on channel=4 note=57 velocity=99 time=110
Time=18955 Track=7 note_on channel=4 note=62 velocity=107 time=0
Time=18960 Track=5 note_on channel=2 note=65 velocity=96 time=5
Time=18960 Track=6 note_on channel=3 note=65 velocity=96 time=5
Time=18960 Track=7 note_on channel=4 note=65 velocity=104 time=5
Time=18960 Track=11 note_on channel=9 note=36 velocity=120 time=15
Time=18960 Track=11 note_on channel=9 note=42 velocity=114 time=0
Time=18965 Track=7 note_on channel=4 note=65 velocity=0 time=5
Time=18965 Track=7 note_on channel=4 note=62 velocity=0 time=0
Time=18965 Track=7 note_on channel=4 note=57 velocity=0 time=0
Time=18990 Track=5 note_on channel=2 note=62 velocity=0 time=5
Time=18990 Track=6 note_on channel=3 note=62 velocity=0 time=30
Time=19005 Track=11 note_on channel=9 note=42 velocity=0 time=45
Time=19015 Track=6 note_on channel=3 note=65 velocity=0 time=25
Time=19015 Track=7 note_on channel=4 note=65 velocity=78 time=50
Time=19015 Track=11 note_on channel=9 note=36 velocity=0 time=10
Time=19016 Track=7 note_on channel=4 note=65 velocity=0 time=1
Time=19020 Track=5 note_on channel=2 note=65 velocity=0 time=30
Time=19020 Track=5 note_on channel=2 note=57 velocity=0 time=0
Time=19020 Track=6 note_on channel=3 note=57 velocity=0 time=5
Time=19020 Track=7 note_on channel=4 note=62 velocity=78 time=4
Time=19020 Track=11 note_on channel=9 note=42 velocity=94 time=5
Time=19021 Track=7 note_on channel=4 note=62 velocity=0 time=1
Time=19045 Track=7 note_on channel=4 note=65 velocity=76 time=24
Time=19046 Track=7 note_on channel=4 note=65 velocity=0 time=1
Time=19050 Track=7 note_on channel=4 note=62 velocity=76 time=4
Time=19051 Track=7 note_on channel=4 note=62 velocity=0 time=1
Time=19065 Track=11 note_on channel=9 note=42 velocity=0 time=45
Time=19070 Track=5 note_on channel=2 note=57 velocity=90 time=50
Time=19070 Track=6 note_on channel=3 note=57 velocity=90 time=50
Time=19070 Track=7 note_on channel=4 note=57 velocity=98 time=19
Time=19075 Track=5 note_on channel=2 note=62 velocity=115 time=0
Time=19075 Track=5 note_on channel=2 note=65 velocity=97 time=0
Time=19075 Track=6 note_on channel=3 note=62 velocity=115 time=5
Time=19075 Track=6 note_on channel=3 note=65 velocity=97 time=0
Time=19075 Track=7 note_on channel=4 note=62 velocity=107 time=5
Time=19075 Track=7 note_on channel=4 note=65 velocity=105 time=0
Time=19080 Track=5 note_on channel=2 note=69 velocity=96 time=5
Time=19080 Track=6 note_on channel=3 note=69 velocity=96 time=5
Time=19080 Track=7 note_on channel=4 note=69 velocity=104 time=5
Time=19080 Track=7 note_on channel=4 note=57 velocity=0 time=0
Time=19080 Track=11 note_on channel=9 note=36 velocity=119 time=15
Time=19080 Track=11 note_on channel=9 note=40 velocity=127 time=0
Time=19080 Track=11 note_on channel=9 note=42 velocity=126 time=0
Time=19085 Track=7 note_on channel=4 note=62 velocity=0 time=5
Time=19085 Track=7 note_on channel=4 note=65 velocity=0 time=0
Time=19085 Track=7 note_on channel=4 note=69 velocity=0 time=0
Time=19105 Track=5 note_on channel=2 note=65 velocity=0 time=25
Time=19105 Track=6 note_on channel=3 note=65 velocity=0 time=25
Time=19110 Track=6 note_on channel=3 note=62 velocity=0 time=5
Time=19120 Track=5 note_on channel=2 note=57 velocity=0 time=10
Time=19120 Track=6 note_on channel=3 note=57 velocity=0 time=10
Time=19120 Track=11 note_on channel=9 note=42 velocity=0 time=40
Time=19135 Track=6 note_on channel=3 note=69 velocity=0 time=15
Time=19135 Track=11 note_on channel=9 note=40 velocity=0 time=15
Time=19135 Track=11 note_on channel=9 note=36 velocity=0 time=0
Time=19140 Track=5 note_on channel=2 note=69 velocity=0 time=20
Time=19140 Track=7 note_on channel=4 note=62 velocity=72 time=55
Time=19140 Track=7 note_on channel=4 note=65 velocity=72 time=0
Time=19140 Track=11 note_on channel=9 note=46 velocity=121 time=5
Time=19141 Track=7 note_on channel=4 note=65 velocity=0 time=1
Time=19141 Track=7 note_on channel=4 note=62 velocity=0 time=0
Time=19170 Track=7 note_on channel=4 note=65 velocity=71 time=29
Time=19170 Track=7 note_on channel=4 note=62 velocity=71 time=0
Time=19171 Track=7 note_on channel=4 note=62 velocity=0 time=1
Time=19171 Track=7 note_on channel=4 note=65 velocity=0 time=0
Time=19185 Track=11 note_on channel=9 note=46 velocity=0 time=45
Time=19190 Track=5 note_on channel=2 note=50 velocity=101 time=50
Time=19190 Track=6 note_on channel=3 note=50 velocity=101 time=55
Time=19195 Track=3 note_on channel=0 note=26 velocity=0 time=1915
Time=19195 Track=4 note_on channel=1 note=26 velocity=0 time=1915
Time=19195 Track=5 note_on channel=2 note=62 velocity=104 time=5
Time=19195 Track=5 note_on channel=2 note=57 velocity=91 time=0
Time=19195 Track=5 note_on channel=2 note=62 velocity=0 time=0
Time=19195 Track=6 note_on channel=3 note=62 velocity=104 time=5
Time=19195 Track=6 note_on channel=3 note=57 velocity=91 time=0
Time=19200 Track=3 note_on channel=0 note=38 velocity=103 time=5
Time=19200 Track=4 note_on channel=1 note=38 velocity=101 time=5
Time=19200 Track=5 note_on channel=2 note=65 velocity=94 time=5
Time=19200 Track=6 note_on channel=3 note=65 velocity=94 time=5
Time=19200 Track=11 note_on channel=9 note=36 velocity=121 time=15
Time=19200 Track=11 note_on channel=9 note=42 velocity=112 time=0
Time=19205 Track=5 note_on channel=2 note=69 velocity=96 time=5
Time=19205 Track=6 note_on channel=3 note=69 velocity=96 time=5
Time=19235 Track=11 note_on channel=9 note=42 velocity=0 time=35
Time=19255 Track=11 note_on channel=9 note=36 velocity=0 time=20
Time=19260 Track=11 note_on channel=9 note=42 velocity=83 time=5
Time=19285 Track=5 note_on channel=2 note=65 velocity=108 time=80
Time=19285 Track=5 note_on channel=2 note=65 velocity=0 time=0
Time=19285 Track=6 note_on channel=3 note=65 velocity=108 time=80
Time=19285 Track=6 note_on channel=3 note=65 velocity=0 time=0
Time=19285 Track=7 note_on channel=4 note=65 velocity=107 time=114
Time=19290 Track=5 note_on channel=2 note=62 velocity=97 time=5
Time=19290 Track=5 note_on channel=2 note=62 velocity=0 time=0
Time=19290 Track=6 note_on channel=3 note=62 velocity=97 time=5
Time=19290 Track=6 note_on channel=3 note=62 velocity=0 time=0
Time=19290 Track=7 note_on channel=4 note=62 velocity=105 time=5
Time=19290 Track=7 note_on channel=4 note=65 velocity=0 time=0
Time=19295 Track=7 note_on channel=4 note=62 velocity=0 time=5
Time=19305 Track=11 note_on channel=9 note=42 velocity=0 time=45
Time=19310 Track=5 note_on channel=2 note=57 velocity=0 time=20
Time=19310 Track=6 note_on channel=3 note=57 velocity=0 time=20
Time=19310 Track=7 note_on channel=4 note=57 velocity=107 time=15
Time=19315 Track=4 note_on channel=1 note=38 velocity=0 time=115
Time=19315 Track=5 note_on channel=2 note=57 velocity=100 time=5
Time=19315 Track=5 note_on channel=2 note=62 velocity=108 time=0
Time=19315 Track=5 note_on channel=2 note=69 velocity=0 time=0
Time=19315 Track=5 note_on channel=2 note=62 velocity=0 time=0
Time=19315 Track=6 note_on channel=3 note=57 velocity=100 time=5
Time=19315 Track=6 note_on channel=3 note=62 velocity=108 time=0
Time=19315 Track=6 note_on channel=3 note=69 velocity=0 time=0
Time=19315 Track=6 note_on channel=3 note=62 velocity=0 time=0
Time=19315 Track=7 note_on channel=4 note=62 velocity=107 time=5
Time=19320 Track=3 note_on channel=0 note=38 velocity=0 time=120
Time=19320 Track=5 note_on channel=2 note=65 velocity=90 time=5
Time=19320 Track=5 note_on channel=2 note=65 velocity=0 time=0
Time=19320 Track=6 note_on channel=3 note=65 velocity=90 time=5
Time=19320 Track=6 note_on channel=3 note=65 velocity=0 time=0
Time=19320 Track=7 note_on channel=4 note=65 velocity=98 time=5
Time=19320 Track=7 note_on channel=4 note=57 velocity=0 time=0
Time=19320 Track=11 note_on channel=9 note=36 velocity=120 time=15
Time=19320 Track=11 note_on channel=9 note=40 velocity=127 time=0
Time=19320 Track=11 note_on channel=9 note=42 velocity=125 time=0
Time=19325 Track=7 note_on channel=4 note=65 velocity=0 time=5
Time=19325 Track=7 note_on channel=4 note=62 velocity=0 time=0
Time=19335 Track=5 note_on channel=2 note=50 velocity=0 time=15
Time=19335 Track=6 note_on channel=3 note=50 velocity=0 time=15
Time=19350 Track=5 note_on channel=2 note=57 velocity=0 time=15
Time=19350 Track=6 note_on channel=3 note=57 velocity=0 time=15
Time=19370 Track=5 note_on channel=2 note=57 velocity=89 time=20
Time=19370 Track=5 note_on channel=2 note=65 velocity=0 time=0
Time=19370 Track=6 note_on channel=3 note=57 velocity=89 time=20
Time=19370 Track=6 note_on channel=3 note=65 velocity=0 time=0
Time=19370 Track=11 note_on channel=9 note=42 velocity=0 time=50
Time=19375 Track=5 note_on channel=2 note=60 velocity=116 time=5
Time=19375 Track=6 note_on channel=3 note=60 velocity=116 time=5
Time=19375 Track=11 note_on channel=9 note=40 velocity=0 time=5
Time=19375 Track=11 note_on channel=9 note=36 velocity=0 time=0
Time=19380 Track=3 note_on channel=0 note=36 velocity=102 time=60
Time=19380 Track=4 note_on channel=1 note=36 velocity=101 time=65
Time=19380 Track=5 note_on channel=2 note=65 velocity=106 time=5
Time=19380 Track=6 note_on channel=3 note=65 velocity=106 time=5
Time=19380 Track=11 note_on channel=9 note=42 velocity=93 time=5
Time=19385 Track=5 note_on channel=2 note=62 velocity=0 time=5
Time=19385 Track=6 note_on channel=3 note=62 velocity=0 time=5
Time=19425 Track=11 note_on channel=9 note=42 velocity=0 time=45
Time=19435 Track=3 note_on channel=0 note=36 velocity=0 time=55
Time=19435 Track=4 note_on channel=1 note=36 velocity=0 time=55
Time=19435 Track=5 note_on channel=2 note=57 velocity=91 time=50
Time=19435 Track=5 note_on channel=2 note=62 velocity=113 time=0
Time=19435 Track=5 note_on channel=2 note=60 velocity=0 time=0
Time=19435 Track=5 note_on channel=2 note=57 velocity=0 time=0
Time=19435 Track=6 note_on channel=3 note=57 velocity=91 time=50
Time=19435 Track=6 note_on channel=3 note=62 velocity=113 time=0
Time=19435 Track=6 note_on channel=3 note=57 velocity=0 time=0
Time=19435 Track=6 note_on channel=3 note=60 velocity=0 time=0
Time=19435 Track=7 note_on channel=4 note=57 velocity=99 time=110
Time=19435 Track=7 note_on channel=4 note=62 velocity=107 time=0
Time=19440 Track=3 note_on channel=0 note=38 velocity=102 time=5
Time=19440 Track=4 note_on channel=1 note=38 velocity=101 time=5
Time=19440 Track=5 note_on channel=2 note=65 velocity=96 time=5
Time=19440 Track=5 note_on channel=2 note=65 velocity=0 time=0
Time=19440 Track=6 note_on channel=3 note=65 velocity=96 time=5
Time=19440 Track=6 note_on channel=3 note=65 velocity=0 time=0
Time=19440 Track=7 note_on channel=4 note=65 velocity=104 time=5
Time=19440 Track=11 note_on channel=9 note=36 velocity=120 time=15
Time=19440 Track=11 note_on channel=9 note=42 velocity=114 time=0
Time=19445 Track=7 note_on channel=4 note=65 velocity=0 time=5
Time=19445 Track=7 note_on channel=4 note=62 velocity=0 time=0
Time=19445 Track=7 note_on channel=4 note=57 velocity=0 time=0
Time=19465 Track=5 note_on channel=2 note=65 velocity=115 time=25
Time=19465 Track=5 note_on channel=2 note=65 velocity=0 time=0
Time=19465 Track=6 note_on channel=3 note=65 velocity=115 time=25
Time=19465 Track=6 note_on channel=3 note=65 velocity=0 time=0
Time=19465 Track=7 note_on channel=4 note=65 velocity=107 time=20
Time=19470 Track=5 note_on channel=2 note=62 velocity=94 time=5
Time=19470 Track=5 note_on channel=2 note=62 velocity=0 time=0
Time=19470 Track=6 note_on channel=3 note=62 velocity=94 time=5
Time=19470 Track=6 note_on channel=3 note=62 velocity=0 time=0
Time=19470 Track=7 note_on channel=4 note=62 velocity=102 time=5
Time=19475 Track=7 note_on channel=4 note=62 velocity=0 time=5
Time=19475 Track=7 note_on channel=4 note=65 velocity=0 time=0
Time=19480 Track=4 note_on channel=1 note=38 velocity=0 time=40
Time=19485 Track=3 note_on channel=0 note=38 velocity=0 time=45
Time=19485 Track=11 note_on channel=9 note=42 velocity=0 time=45
Time=19495 Track=7 note_on channel=4 note=65 velocity=78 time=20
Time=19495 Track=11 note_on channel=9 note=36 velocity=0 time=10
Time=19496 Track=7 note_on channel=4 note=65 velocity=0 time=1
Time=19500 Track=5 note_on channel=2 note=62 velocity=1 time=30
Time=19500 Track=5 note_on channel=2 note=65 velocity=0 time=0
Time=19500 Track=5 note_on channel=2 note=62 velocity=0 time=0
Time=19500 Track=5 note_on channel=2 note=57 velocity=0 time=0
Time=19500 Track=6 note_on channel=3 note=62 velocity=1 time=30
Time=19500 Track=6 note_on channel=3 note=65 velocity=0 time=0
Time=19500 Track=6 note_on channel=3 note=62 velocity=0 time=0
Time=19500 Track=6 note_on channel=3 note=57 velocity=0 time=0
Time=19500 Track=7 note_on channel=4 note=62 velocity=78 time=4
Time=19500 Track=11 note_on channel=9 note=42 velocity=94 time=5
Time=19501 Track=6 note_on channel=3 note=62 velocity=0 time=1
Time=19501 Track=7 note_on channel=4 note=62 velocity=0 time=1
Time=19505 Track=5 note_on channel=2 note=62 velocity=0 time=5
Time=19525 Track=7 note_on channel=4 note=65 velocity=76 time=24
Time=19526 Track=7 note_on channel=4 note=65 velocity=0 time=1
Time=19530 Track=5 note_on channel=2 note=65 velocity=1 time=25
Time=19530 Track=5 note_on channel=2 note=62 velocity=1 time=0
Time=19530 Track=6 note_on channel=3 note=65 velocity=1 time=29
Time=19530 Track=6 note_on channel=3 note=62 velocity=1 time=0
Time=19530 Track=7 note_on channel=4 note=62 velocity=76 time=4
Time=19531 Track=5 note_on channel=2 note=62 velocity=0 time=1
Time=19531 Track=5 note_on channel=2 note=65 velocity=0 time=0
Time=19531 Track=6 note_on channel=3 note=62 velocity=0 time=1
Time=19531 Track=6 note_on channel=3 note=65 velocity=0 time=0
Time=19531 Track=7 note_on channel=4 note=62 velocity=0 time=1
Time=19545 Track=11 note_on channel=9 note=42 velocity=0 time=45
Time=19550 Track=7 note_on channel=4 note=57 velocity=98 time=19
Time=19555 Track=5 note_on channel=2 note=57 velocity=90 time=24
Time=19555 Track=5 note_on channel=2 note=62 velocity=115 time=0
Time=19555 Track=6 note_on channel=3 note=57 velocity=90 time=24
Time=19555 Track=6 note_on channel=3 note=62 velocity=115 time=0
Time=19555 Track=7 note_on channel=4 note=62 velocity=107 time=5
Time=19555 Track=7 note_on channel=4 note=65 velocity=105 time=0
Time=19560 Track=5 note_on channel=2 note=65 velocity=97 time=5
Time=19560 Track=5 note_on channel=2 note=69 velocity=96 time=0
Time=19560 Track=6 note_on channel=3 note=65 velocity=97 time=5
Time=19560 Track=6 note_on channel=3 note=69 velocity=96 time=0
Time=19560 Track=7 note_on channel=4 note=69 velocity=104 time=5
Time=19560 Track=7 note_on channel=4 note=57 velocity=0 time=0
Time=19560 Track=11 note_on channel=9 note=36 velocity=119 time=15
Time=19560 Track=11 note_on channel=9 note=40 velocity=127 time=0
Time=19560 Track=11 note_on channel=9 note=42 velocity=126 time=0
Time=19565 Track=7 note_on channel=4 note=62 velocity=0 time=5
Time=19565 Track=7 note_on channel=4 note=65 velocity=0 time=0
Time=19565 Track=7 note_on channel=4 note=69 velocity=0 time=0
Time=19585 Track=5 note_on channel=2 note=65 velocity=118 time=25
Time=19585 Track=5 note_on channel=2 note=65 velocity=0 time=0
Time=19585 Track=6 note_on channel=3 note=65 velocity=118 time=25
Time=19585 Track=6 note_on channel=3 note=65 velocity=0 time=0
Time=19585 Track=7 note_on channel=4 note=65 velocity=107 time=20
Time=19590 Track=5 note_on channel=2 note=62 velocity=91 time=5
Time=19590 Track=5 note_on channel=2 note=62 velocity=0 time=0
Time=19590 Track=6 note_on channel=3 note=62 velocity=91 time=5
Time=19590 Track=6 note_on channel=3 note=62 velocity=0 time=0
Time=19590 Track=7 note_on channel=4 note=62 velocity=99 time=5
Time=19595 Track=7 note_on channel=4 note=62 velocity=0 time=5
Time=19595 Track=7 note_on channel=4 note=65 velocity=0 time=0
Time=19600 Track=5 note_on channel=2 note=57 velocity=0 time=10
Time=19600 Track=6 note_on channel=3 note=57 velocity=0 time=10
Time=19600 Track=11 note_on channel=9 note=42 velocity=0 time=40
Time=19610 Track=6 note_on channel=3 note=65 velocity=0 time=10
Time=19615 Track=5 note_on channel=2 note=65 velocity=0 time=15
Time=19615 Track=11 note_on channel=9 note=40 velocity=0 time=15
Time=19615 Track=11 note_on channel=9 note=36 velocity=0 time=0
Time=19620 Track=5 note_on channel=2 note=62 velocity=1 time=5
Time=19620 Track=5 note_on channel=2 note=65 velocity=1 time=0
Time=19620 Track=5 note_on channel=2 note=69 velocity=0 time=0
Time=19620 Track=5 note_on channel=2 note=62 velocity=0 time=0
Time=19620 Track=6 note_on channel=3 note=62 velocity=1 time=10
Time=19620 Track=6 note_on channel=3 note=65 velocity=1 time=0
Time=19620 Track=6 note_on channel=3 note=69 velocity=0 time=0
Time=19620 Track=6 note_on channel=3 note=62 velocity=0 time=0
Time=19620 Track=7 note_on channel=4 note=62 velocity=72 time=25
Time=19620 Track=7 note_on channel=4 note=65 velocity=72 time=0
Time=19620 Track=11 note_on channel=9 note=46 velocity=121 time=5
Time=19621 Track=5 note_on channel=2 note=65 velocity=0 time=1
Time=19621 Track=6 note_on channel=3 note=62 velocity=0 time=1
Time=19621 Track=6 note_on channel=3 note=65 velocity=0 time=0
Time=19621 Track=7 note_on channel=4 note=65 velocity=0 time=1
Time=19621 Track=7 note_on channel=4 note=62 velocity=0 time=0
Time=19625 Track=5 note_on channel=2 note=62 velocity=0 time=4
Time=19650 Track=5 note_on channel=2 note=65 velocity=1 time=25
Time=19650 Track=6 note_on channel=3 note=65 velocity=1 time=29
Time=19650 Track=7 note_on channel=4 note=65 velocity=71 time=29
Time=19650 Track=7 note_on channel=4 note=62 velocity=71 time=0
Time=19651 Track=5 note_on channel=2 note=65 velocity=0 time=1
Time=19651 Track=6 note_on channel=3 note=65 velocity=0 time=1
Time=19651 Track=7 note_on channel=4 note=62 velocity=0 time=1
Time=19651 Track=7 note_on channel=4 note=65 velocity=0 time=0
Time=19665 Track=11 note_on channel=9 note=46 velocity=0 time=45
Time=19670 Track=5 note_on channel=2 note=50 velocity=101 time=19
Time=19670 Track=6 note_on channel=3 note=50 velocity=101 time=19
Time=19675 Track=5 note_on channel=2 note=62 velocity=104 time=5
Time=19675 Track=5 note_on channel=2 note=57 velocity=91 time=0
Time=19675 Track=6 note_on channel=3 note=62 velocity=104 time=5
Time=19675 Track=6 note_on channel=3 note=57 velocity=91 time=0
Time=19680 Track=3 note_on channel=0 note=38 velocity=101 time=195
Time=19680 Track=4 note_on channel=1 note=38 velocity=100 time=200
Time=19680 Track=5 note_on channel=2 note=65 velocity=94 time=5
Time=19680 Track=6 note_on channel=3 note=65 velocity=94 time=5
Time=19680 Track=11 note_on channel=9 note=36 velocity=121 time=15
Time=19680 Track=11 note_on channel=9 note=42 velocity=112 time=0
Time=19685 Track=5 note_on channel=2 note=69 velocity=96 time=5
Time=19685 Track=6 note_on channel=3 note=69 velocity=96 time=5
Time=19715 Track=11 note_on channel=9 note=42 velocity=0 time=35
Time=19735 Track=11 note_on channel=9 note=36 velocity=0 time=20
Time=19740 Track=11 note_on channel=9 note=42 velocity=83 time=5
Time=19765 Track=5 note_on channel=2 note=65 velocity=108 time=80
Time=19765 Track=5 note_on channel=2 note=65 velocity=0 time=0
Time=19765 Track=6 note_on channel=3 note=65 velocity=108 time=80
Time=19765 Track=6 note_on channel=3 note=65 velocity=0 time=0
Time=19765 Track=7 note_on channel=4 note=65 velocity=107 time=114
Time=19770 Track=5 note_on channel=2 note=62 velocity=97 time=5
Time=19770 Track=5 note_on channel=2 note=62 velocity=0 time=0
Time=19770 Track=6 note_on channel=3 note=62 velocity=97 time=5
Time=19770 Track=6 note_on channel=3 note=62 velocity=0 time=0
Time=19770 Track=7 note_on channel=4 note=62 velocity=105 time=5
Time=19770 Track=7 note_on channel=4 note=65 velocity=0 time=0
Time=19775 Track=7 note_on channel=4 note=62 velocity=0 time=5
Time=19785 Track=11 note_on channel=9 note=42 velocity=0 time=45
Time=19790 Track=5 note_on channel=2 note=57 velocity=0 time=20
Time=19790 Track=6 note_on channel=3 note=57 velocity=0 time=20
Time=19790 Track=7 note_on channel=4 note=57 velocity=107 time=15
Time=19795 Track=4 note_on channel=1 note=38 velocity=0 time=115
Time=19795 Track=5 note_on channel=2 note=57 velocity=100 time=5
Time=19795 Track=5 note_on channel=2 note=62 velocity=108 time=0
Time=19795 Track=5 note_on channel=2 note=69 velocity=0 time=0
Time=19795 Track=5 note_on channel=2 note=62 velocity=0 time=0
Time=19795 Track=6 note_on channel=3 note=57 velocity=100 time=5
Time=19795 Track=6 note_on channel=3 note=62 velocity=108 time=0
Time=19795 Track=6 note_on channel=3 note=69 velocity=0 time=0
Time=19795 Track=6 note_on channel=3 note=62 velocity=0 time=0
Time=19795 Track=7 note_on channel=4 note=62 velocity=107 time=5
Time=19800 Track=3 note_on channel=0 note=38 velocity=0 time=120
Time=19800 Track=5 note_on channel=2 note=65 velocity=90 time=5
Time=19800 Track=5 note_on channel=2 note=65 velocity=0 time=0
Time=19800 Track=6 note_on channel=3 note=65 velocity=90 time=5
Time=19800 Track=6 note_on channel=3 note=65 velocity=0 time=0
Time=19800 Track=7 note_on channel=4 note=65 velocity=98 time=5
Time=19800 Track=7 note_on channel=4 note=57 velocity=0 time=0
Time=19800 Track=11 note_on channel=9 note=36 velocity=120 time=15
Time=19800 Track=11 note_on channel=9 note=40 velocity=127 time=0
Time=19800 Track=11 note_on channel=9 note=42 velocity=125 time=0
Time=19805 Track=7 note_on channel=4 note=65 velocity=0 time=5
Time=19805 Track=7 note_on channel=4 note=62 velocity=0 time=0
Time=19815 Track=5 note_on channel=2 note=50 velocity=0 time=15
Time=19815 Track=6 note_on channel=3 note=50 velocity=0 time=15
Time=19830 Track=5 note_on channel=2 note=57 velocity=0 time=15
Time=19830 Track=6 note_on channel=3 note=57 velocity=0 time=15
Time=19850 Track=5 note_on channel=2 note=57 velocity=89 time=20
Time=19850 Track=5 note_on channel=2 note=65 velocity=0 time=0
Time=19850 Track=6 note_on channel=3 note=57 velocity=89 time=20
Time=19850 Track=6 note_on channel=3 note=65 velocity=0 time=0
Time=19850 Track=11 note_on channel=9 note=42 velocity=0 time=50
Time=19855 Track=5 note_on channel=2 note=60 velocity=116 time=5
Time=19855 Track=6 note_on channel=3 note=60 velocity=116 time=5
Time=19855 Track=11 note_on channel=9 note=40 velocity=0 time=5
Time=19855 Track=11 note_on channel=9 note=36 velocity=0 time=0
Time=19860 Track=3 note_on channel=0 note=38 velocity=101 time=60
Time=19860 Track=4 note_on channel=1 note=38 velocity=99 time=65
Time=19860 Track=5 note_on channel=2 note=65 velocity=106 time=5
Time=19860 Track=6 note_on channel=3 note=65 velocity=106 time=5
Time=19860 Track=11 note_on channel=9 note=42 velocity=93 time=5
Time=19865 Track=5 note_on channel=2 note=62 velocity=0 time=5
Time=19865 Track=6 note_on channel=3 note=62 velocity=0 time=5
Time=19905 Track=3 note_on channel=0 note=38 velocity=0 time=45
Time=19905 Track=4 note_on channel=1 note=38 velocity=0 time=45
Time=19905 Track=11 note_on channel=9 note=42 velocity=0 time=45
Time=19915 Track=5 note_on channel=2 note=57 velocity=91 time=50
Time=19915 Track=5 note_on channel=2 note=62 velocity=113 time=0
Time=19915 Track=5 note_on channel=2 note=60 velocity=0 time=0
Time=19915 Track=5 note_on channel=2 note=57 velocity=0 time=0
Time=19915 Track=6 note_on channel=3 note=57 velocity=91 time=50
Time=19915 Track=6 note_on channel=3 note=62 velocity=113 time=0
Time=19915 Track=6 note_on channel=3 note=57 velocity=0 time=0
Time=19915 Track=6 note_on channel=3 note=60 velocity=0 time=0
Time=19915 Track=7 note_on channel=4 note=57 velocity=99 time=110
Time=19915 Track=7 note_on channel=4 note=62 velocity=107 time=0
Time=19920 Track=3 note_on channel=0 note=33 velocity=101 time=15
Time=19920 Track=4 note_on channel=1 note=33 velocity=99 time=15
Time=19920 Track=5 note_on channel=2 note=65 velocity=96 time=5
Time=19920 Track=5 note_on channel=2 note=65 velocity=0 time=0
Time=19920 Track=6 note_on channel=3 note=65 velocity=96 time=5
Time=19920 Track=6 note_on channel=3 note=65 velocity=0 time=0
Time=19920 Track=7 note_on channel=4 note=65 velocity=104 time=5
Time=19920 Track=11 note_on channel=9 note=36 velocity=120 time=15
Time=19920 Track=11 note_on channel=9 note=42 velocity=114 time=0
Time=19925 Track=7 note_on channel=4 note=65 velocity=0 time=5
Time=19925 Track=7 note_on channel=4 note=62 velocity=0 time=0
Time=19925 Track=7 note_on channel=4 note=57 velocity=0 time=0
Time=19945 Track=5 note_on channel=2 note=65 velocity=115 time=25
Time=19945 Track=5 note_on channel=2 note=65 velocity=0 time=0
Time=19945 Track=6 note_on channel=3 note=65 velocity=115 time=25
Time=19945 Track=6 note_on channel=3 note=65 velocity=0 time=0
Time=19945 Track=7 note_on channel=4 note=65 velocity=107 time=20
Time=19950 Track=5 note_on channel=2 note=62 velocity=94 time=5
Time=19950 Track=5 note_on channel=2 note=62 velocity=0 time=0
Time=19950 Track=6 note_on channel=3 note=62 velocity=94 time=5
Time=19950 Track=6 note_on channel=3 note=62 velocity=0 time=0
Time=19950 Track=7 note_on channel=4 note=62 velocity=102 time=5
Time=19955 Track=7 note_on channel=4 note=62 velocity=0 time=5
Time=19955 Track=7 note_on channel=4 note=65 velocity=0 time=0
Time=19965 Track=11 note_on channel=9 note=42 velocity=0 time=45
Time=19975 Track=7 note_on channel=4 note=65 velocity=78 time=20
Time=19975 Track=11 note_on channel=9 note=36 velocity=0 time=10
Time=19976 Track=7 note_on channel=4 note=65 velocity=0 time=1
Time=19980 Track=5 note_on channel=2 note=62 velocity=1 time=30
Time=19980 Track=5 note_on channel=2 note=65 velocity=0 time=0
Time=19980 Track=5 note_on channel=2 note=62 velocity=0 time=0
Time=19980 Track=5 note_on channel=2 note=57 velocity=0 time=0
Time=19980 Track=6 note_on channel=3 note=62 velocity=1 time=30
Time=19980 Track=6 note_on channel=3 note=65 velocity=0 time=0
Time=19980 Track=6 note_on channel=3 note=62 velocity=0 time=0
Time=19980 Track=6 note_on channel=3 note=57 velocity=0 time=0
Time=19980 Track=7 note_on channel=4 note=62 velocity=78 time=4
Time=19980 Track=11 note_on channel=9 note=42 velocity=94 time=5
Time=19981 Track=6 note_on channel=3 note=62 velocity=0 time=1
Time=19981 Track=7 note_on channel=4 note=62 velocity=0 time=1
Time=19985 Track=5 note_on channel=2 note=62 velocity=0 time=5
Time=20005 Track=7 note_on channel=4 note=65 velocity=76 time=24
Time=20006 Track=7 note_on channel=4 note=65 velocity=0 time=1
Time=20010 Track=5 note_on channel=2 note=65 velocity=1 time=25
Time=20010 Track=5 note_on channel=2 note=62 velocity=1 time=0
Time=20010 Track=6 note_on channel=3 note=65 velocity=1 time=29
Time=20010 Track=6 note_on channel=3 note=62 velocity=1 time=0
Time=20010 Track=7 note_on channel=4 note=62 velocity=76 time=4
Time=20011 Track=5 note_on channel=2 note=62 velocity=0 time=1
Time=20011 Track=5 note_on channel=2 note=65 velocity=0 time=0
Time=20011 Track=6 note_on channel=3 note=62 velocity=0 time=1
Time=20011 Track=6 note_on channel=3 note=65 velocity=0 time=0
Time=20011 Track=7 note_on channel=4 note=62 velocity=0 time=1
Time=20025 Track=11 note_on channel=9 note=42 velocity=0 time=45
Time=20030 Track=7 note_on channel=4 note=57 velocity=98 time=19
Time=20035 Track=4 note_on channel=1 note=33 velocity=0 time=115
Time=20035 Track=5 note_on channel=2 note=57 velocity=90 time=24
Time=20035 Track=5 note_on channel=2 note=62 velocity=115 time=0
Time=20035 Track=6 note_on channel=3 note=57 velocity=90 time=24
Time=20035 Track=6 note_on channel=3 note=62 velocity=115 time=0
Time=20035 Track=7 note_on channel=4 note=62 velocity=107 time=5
Time=20035 Track=7 note_on channel=4 note=65 velocity=105 time=0
Time=20040 Track=3 note_on channel=0 note=36 velocity=100 time=120
Time=20040 Track=3 note_on channel=0 note=33 velocity=0 time=0
Time=20040 Track=4 note_on channel=1 note=36 velocity=99 time=5
Time=20040 Track=5 note_on channel=2 note=65 velocity=97 time=5
Time=20040 Track=5 note_on channel=2 note=69 velocity=96 time=0
Time=20040 Track=6 note_on channel=3 note=65 velocity=97 time=5
Time=20040 Track=6 note_on channel=3 note=69 velocity=96 time=0
Time=20040 Track=7 note_on channel=4 note=69 velocity=104 time=5
Time=20040 Track=7 note_on channel=4 note=57 velocity=0 time=0
Time=20040 Track=11 note_on channel=9 note=36 velocity=119 time=15
Time=20040 Track=11 note_on channel=9 note=40 velocity=127 time=0
Time=20040 Track=11 note_on channel=9 note=42 velocity=126 time=0
Time=20045 Track=7 note_on channel=4 note=62 velocity=0 time=5
Time=20045 Track=7 note_on channel=4 note=65 velocity=0 time=0
Time=20045 Track=7 note_on channel=4 note=69 velocity=0 time=0
Time=20065 Track=5 note_on channel=2 note=65 velocity=118 time=25
Time=20065 Track=5 note_on channel=2 note=65 velocity=0 time=0
Time=20065 Track=6 note_on channel=3 note=65 velocity=118 time=25
Time=20065 Track=6 note_on channel=3 note=65 velocity=0 time=0
Time=20065 Track=7 note_on channel=4 note=65 velocity=107 time=20
Time=20070 Track=5 note_on channel=2 note=62 velocity=91 time=5
Time=20070 Track=5 note_on channel=2 note=62 velocity=0 time=0
Time=20070 Track=6 note_on channel=3 note=62 velocity=91 time=5
Time=20070 Track=6 note_on channel=3 note=62 velocity=0 time=0
Time=20070 Track=7 note_on channel=4 note=62 velocity=99 time=5
Time=20075 Track=7 note_on channel=4 note=62 velocity=0 time=5
Time=20075 Track=7 note_on channel=4 note=65 velocity=0 time=0
Time=20080 Track=5 note_on channel=2 note=57 velocity=0 time=10
Time=20080 Track=6 note_on channel=3 note=57 velocity=0 time=10
Time=20080 Track=11 note_on channel=9 note=42 velocity=0 time=40
Time=20090 Track=6 note_on channel=3 note=65 velocity=0 time=10
Time=20095 Track=5 note_on channel=2 note=65 velocity=0 time=15
Time=20095 Track=11 note_on channel=9 note=40 velocity=0 time=15
Time=20095 Track=11 note_on channel=9 note=36 velocity=0 time=0
Time=20100 Track=5 note_on channel=2 note=62 velocity=1 time=5
Time=20100 Track=5 note_on channel=2 note=65 velocity=1 time=0
Time=20100 Track=5 note_on channel=2 note=69 velocity=0 time=0
Time=20100 Track=5 note_on channel=2 note=62 velocity=0 time=0
Time=20100 Track=6 note_on channel=3 note=62 velocity=1 time=10
Time=20100 Track=6 note_on channel=3 note=65 velocity=1 time=0
Time=20100 Track=6 note_on channel=3 note=69 velocity=0 time=0
Time=20100 Track=6 note_on channel=3 note=62 velocity=0 time=0
Time=20100 Track=7 note_on channel=4 note=62 velocity=72 time=25
Time=20100 Track=7 note_on channel=4 note=65 velocity=72 time=0
Time=20100 Track=11 note_on channel=9 note=46 velocity=121 time=5
Time=20101 Track=5 note_on channel=2 note=65 velocity=0 time=1
Time=20101 Track=6 note_on channel=3 note=62 velocity=0 time=1
Time=20101 Track=6 note_on channel=3 note=65 velocity=0 time=0
Time=20101 Track=7 note_on channel=4 note=65 velocity=0 time=1
Time=20101 Track=7 note_on channel=4 note=62 velocity=0 time=0
Time=20105 Track=5 note_on channel=2 note=62 velocity=0 time=4
Time=20130 Track=5 note_on channel=2 note=65 velocity=1 time=25
Time=20130 Track=6 note_on channel=3 note=65 velocity=1 time=29
Time=20130 Track=7 note_on channel=4 note=65 velocity=71 time=29
Time=20130 Track=7 note_on channel=4 note=62 velocity=71 time=0
Time=20131 Track=5 note_on channel=2 note=65 velocity=0 time=1
Time=20131 Track=6 note_on channel=3 note=65 velocity=0 time=1
Time=20131 Track=7 note_on channel=4 note=62 velocity=0 time=1
Time=20131 Track=7 note_on channel=4 note=65 velocity=0 time=0
Time=20145 Track=11 note_on channel=9 note=46 velocity=0 time=45
Time=20150 Track=5 note_on channel=2 note=50 velocity=101 time=19
Time=20150 Track=6 note_on channel=3 note=50 velocity=101 time=19
Time=20155 Track=3 note_on channel=0 note=36 velocity=0 time=115
Time=20155 Track=4 note_on channel=1 note=36 velocity=0 time=115
Time=20155 Track=5 note_on channel=2 note=62 velocity=104 time=5
Time=20155 Track=5 note_on channel=2 note=57 velocity=91 time=0
Time=20155 Track=6 note_on channel=3 note=62 velocity=104 time=5
Time=20155 Track=6 note_on channel=3 note=57 velocity=91 time=0
Time=20155 Track=12 note_on channel=10 note=53 velocity=0 time=1255
Time=20160 Track=3 note_on channel=0 note=38 velocity=103 time=5
Time=20160 Track=4 note_on channel=1 note=38 velocity=101 time=5
Time=20160 Track=5 note_on channel=2 note=65 velocity=94 time=0
Time=20160 Track=6 note_on channel=3 note=65 velocity=94 time=5
Time=20160 Track=11 note_on channel=9 note=36 velocity=121 time=15
Time=20160 Track=11 note_on channel=9 note=42 velocity=112 time=0
Time=20160 Track=12 note_on channel=10 note=50 velocity=108 time=5
Time=20165 Track=5 note_on channel=2 note=69 velocity=96 time=5
Time=20165 Track=6 note_on channel=3 note=69 velocity=96 time=5
Time=20195 Track=11 note_on channel=9 note=42 velocity=0 time=35
Time=20215 Track=11 note_on channel=9 note=36 velocity=0 time=20
Time=20220 Track=11 note_on channel=9 note=42 velocity=83 time=5
Time=20245 Track=5 note_on channel=2 note=65 velocity=108 time=0
Time=20245 Track=5 note_on channel=2 note=65 velocity=0 time=0
Time=20245 Track=6 note_on channel=3 note=65 velocity=108 time=80
Time=20245 Track=6 note_on channel=3 note=65 velocity=0 time=0
Time=20245 Track=7 note_on channel=4 note=65 velocity=107 time=114
Time=20250 Track=5 note_on channel=2 note=62 velocity=97 time=5
Time=20250 Track=5 note_on channel=2 note=62 velocity=0 time=0
Time=20250 Track=6 note_on channel=3 note=62 velocity=97 time=5
Time=20250 Track=6 note_on channel=3 note=62 velocity=0 time=0
Time=20250 Track=7 note_on channel=4 note=62 velocity=105 time=5
Time=20250 Track=7 note_on channel=4 note=65 velocity=0 time=0
Time=20255 Track=7 note_on channel=4 note=62 velocity=0 time=5
Time=20265 Track=11 note_on channel=9 note=42 velocity=0 time=45
Time=20270 Track=5 note_on channel=2 note=57 velocity=0 time=0
Time=20270 Track=6 note_on channel=3 note=57 velocity=0 time=20
Time=20270 Track=7 note_on channel=4 note=57 velocity=107 time=15
Time=20275 Track=4 note_on channel=1 note=38 velocity=0 time=115
Time=20275 Track=5 note_on channel=2 note=57 velocity=100 time=5
Time=20275 Track=5 note_on channel=2 note=62 velocity=108 time=0
Time=20275 Track=5 note_on channel=2 note=69 velocity=0 time=0
Time=20275 Track=5 note_on channel=2 note=62 velocity=0 time=0
Time=20275 Track=6 note_on channel=3 note=57 velocity=100 time=5
Time=20275 Track=6 note_on channel=3 note=62 velocity=108 time=0
Time=20275 Track=6 note_on channel=3 note=69 velocity=0 time=0
Time=20275 Track=6 note_on channel=3 note=62 velocity=0 time=0
Time=20275 Track=7 note_on channel=4 note=62 velocity=107 time=5
Time=20275 Track=12 note_on channel=10 note=50 velocity=0 time=115
Time=20280 Track=3 note_on channel=0 note=38 velocity=0 time=120
Time=20280 Track=5 note_on channel=2 note=65 velocity=90 time=5
Time=20280 Track=5 note_on channel=2 note=65 velocity=0 time=0
Time=20280 Track=6 note_on channel=3 note=65 velocity=90 time=5
Time=20280 Track=6 note_on channel=3 note=65 velocity=0 time=0
Time=20280 Track=7 note_on channel=4 note=65 velocity=98 time=5
Time=20280 Track=7 note_on channel=4 note=57 velocity=0 time=0
Time=20280 Track=11 note_on channel=9 note=36 velocity=120 time=15
Time=20280 Track=11 note_on channel=9 note=40 velocity=127 time=0
Time=20280 Track=11 note_on channel=9 note=42 velocity=125 time=0
Time=20280 Track=12 note_on channel=10 note=52 velocity=108 time=5
Time=20285 Track=7 note_on channel=4 note=65 velocity=0 time=5
Time=20285 Track=7 note_on channel=4 note=62 velocity=0 time=0
Time=20295 Track=5 note_on channel=2 note=50 velocity=0 time=15
Time=20295 Track=6 note_on channel=3 note=50 velocity=0 time=15
Time=20310 Track=5 note_on channel=2 note=57 velocity=0 time=15
Time=20310 Track=6 note_on channel=3 note=57 velocity=0 time=15
Time=20330 Track=5 note_on channel=2 note=57 velocity=89 time=20
Time=20330 Track=5 note_on channel=2 note=65 velocity=0 time=0
Time=20330 Track=6 note_on channel=3 note=57 velocity=89 time=20
Time=20330 Track=6 note_on channel=3 note=65 velocity=0 time=0
Time=20330 Track=11 note_on channel=9 note=42 velocity=0 time=50
Time=20335 Track=5 note_on channel=2 note=60 velocity=116 time=5
Time=20335 Track=6 note_on channel=3 note=60 velocity=116 time=5
Time=20335 Track=11 note_on channel=9 note=40 velocity=0 time=5
Time=20335 Track=11 note_on channel=9 note=36 velocity=0 time=0
Time=20335 Track=12 note_on channel=10 note=52 velocity=0 time=55
Time=20340 Track=3 note_on channel=0 note=36 velocity=102 time=60
Time=20340 Track=4 note_on channel=1 note=36 velocity=101 time=65
Time=20340 Track=5 note_on channel=2 note=65 velocity=106 time=0
Time=20340 Track=6 note_on channel=3 note=65 velocity=106 time=5
Time=20340 Track=11 note_on channel=9 note=42 velocity=93 time=5
Time=20340 Track=12 note_on channel=10 note=53 velocity=108 time=5
Time=20345 Track=5 note_on channel=2 note=62 velocity=0 time=5
Time=20345 Track=6 note_on channel=3 note=62 velocity=0 time=5
Time=20385 Track=11 note_on channel=9 note=42 velocity=0 time=45
Time=20395 Track=3 note_on channel=0 note=36 velocity=0 time=55
Time=20395 Track=4 note_on channel=1 note=36 velocity=0 time=55
Time=20395 Track=5 note_on channel=2 note=57 velocity=91 time=0
Time=20395 Track=5 note_on channel=2 note=62 velocity=113 time=0
Time=20395 Track=5 note_on channel=2 note=60 velocity=0 time=0
Time=20395 Track=5 note_on channel=2 note=57 velocity=0 time=0
Time=20395 Track=6 note_on channel=3 note=57 velocity=91 time=50
Time=20395 Track=6 note_on channel=3 note=62 velocity=113 time=0
Time=20395 Track=6 note_on channel=3 note=57 velocity=0 time=0
Time=20395 Track=6 note_on channel=3 note=60 velocity=0 time=0
Time=20395 Track=7 note_on channel=4 note=57 velocity=99 time=110
Time=20395 Track=7 note_on channel=4 note=62 velocity=107 time=0
Time=20400 Track=3 note_on channel=0 note=38 velocity=102 time=5
Time=20400 Track=4 note_on channel=1 note=38 velocity=101 time=5
Time=20400 Track=5 note_on channel=2 note=65 velocity=96 time=5
Time=20400 Track=5 note_on channel=2 note=65 velocity=0 time=0
Time=20400 Track=6 note_on channel=3 note=65 velocity=96 time=5
Time=20400 Track=6 note_on channel=3 note=65 velocity=0 time=0
Time=20400 Track=7 note_on channel=4 note=65 velocity=104 time=5
Time=20400 Track=11 note_on channel=9 note=36 velocity=120 time=15
Time=20400 Track=11 note_on channel=9 note=42 velocity=114 time=0
Time=20405 Track=7 note_on channel=4 note=65 velocity=0 time=5
Time=20405 Track=7 note_on channel=4 note=62 velocity=0 time=0
Time=20405 Track=7 note_on channel=4 note=57 velocity=0 time=0
Time=20430 Track=5 note_on channel=2 note=62 velocity=0 time=5
Time=20430 Track=6 note_on channel=3 note=62 velocity=0 time=30
Time=20440 Track=4 note_on channel=1 note=38 velocity=0 time=40
Time=20445 Track=3 note_on channel=0 note=38 velocity=0 time=45
Time=20445 Track=11 note_on channel=9 note=42 velocity=0 time=45
Time=20455 Track=7 note_on channel=4 note=65 velocity=78 time=50
Time=20455 Track=11 note_on channel=9 note=36 velocity=0 time=10
Time=20455 Track=12 note_on channel=10 note=53 velocity=0 time=115
Time=20456 Track=7 note_on channel=4 note=65 velocity=0 time=1
Time=20460 Track=5 note_on channel=2 note=65 velocity=0 time=30
Time=20460 Track=5 note_on channel=2 note=57 velocity=0 time=0
Time=20460 Track=6 note_on channel=3 note=57 velocity=0 time=30
Time=20460 Track=6 note_on channel=3 note=65 velocity=0 time=0
Time=20460 Track=7 note_on channel=4 note=62 velocity=78 time=4
Time=20460 Track=11 note_on channel=9 note=42 velocity=94 time=5
Time=20460 Track=12 note_on channel=10 note=52 velocity=108 time=5
Time=20461 Track=7 note_on channel=4 note=62 velocity=0 time=1
Time=20485 Track=7 note_on channel=4 note=65 velocity=76 time=24
Time=20486 Track=7 note_on channel=4 note=65 velocity=0 time=1
Time=20490 Track=7 note_on channel=4 note=62 velocity=76 time=4
Time=20491 Track=7 note_on channel=4 note=62 velocity=0 time=1
Time=20505 Track=11 note_on channel=9 note=42 velocity=0 time=45
Time=20510 Track=7 note_on channel=4 note=57 velocity=98 time=19
Time=20515 Track=5 note_on channel=2 note=57 velocity=90 time=55
Time=20515 Track=5 note_on channel=2 note=62 velocity=115 time=0
Time=20515 Track=6 note_on channel=3 note=57 velocity=90 time=55
Time=20515 Track=6 note_on channel=3 note=62 velocity=115 time=0
Time=20515 Track=7 note_on channel=4 note=62 velocity=107 time=5
Time=20515 Track=7 note_on channel=4 note=65 velocity=105 time=0
Time=20520 Track=5 note_on channel=2 note=65 velocity=97 time=5
Time=20520 Track=5 note_on channel=2 note=69 velocity=96 time=0
Time=20520 Track=6 note_on channel=3 note=65 velocity=97 time=5
Time=20520 Track=6 note_on channel=3 note=69 velocity=96 time=0
Time=20520 Track=7 note_on channel=4 note=69 velocity=104 time=5
Time=20520 Track=7 note_on channel=4 note=57 velocity=0 time=0
Time=20520 Track=11 note_on channel=9 note=36 velocity=119 time=15
Time=20520 Track=11 note_on channel=9 note=40 velocity=127 time=0
Time=20520 Track=11 note_on channel=9 note=42 velocity=126 time=0
Time=20525 Track=7 note_on channel=4 note=62 velocity=0 time=5
Time=20525 Track=7 note_on channel=4 note=65 velocity=0 time=0
Time=20525 Track=7 note_on channel=4 note=69 velocity=0 time=0
Time=20550 Track=5 note_on channel=2 note=65 velocity=0 time=0
Time=20550 Track=6 note_on channel=3 note=65 velocity=0 time=30
Time=20550 Track=6 note_on channel=3 note=62 velocity=0 time=0
Time=20555 Track=5 note_on channel=2 note=62 velocity=0 time=5
Time=20560 Track=5 note_on channel=2 note=57 velocity=0 time=5
Time=20560 Track=6 note_on channel=3 note=57 velocity=0 time=10
Time=20560 Track=11 note_on channel=9 note=42 velocity=0 time=40
Time=20575 Track=11 note_on channel=9 note=40 velocity=0 time=15
Time=20575 Track=11 note_on channel=9 note=36 velocity=0 time=0
Time=20580 Track=5 note_on channel=2 note=69 velocity=0 time=20
Time=20580 Track=6 note_on channel=3 note=69 velocity=0 time=20
Time=20580 Track=7 note_on channel=4 note=62 velocity=72 time=55
Time=20580 Track=7 note_on channel=4 note=65 velocity=72 time=0
Time=20580 Track=11 note_on channel=9 note=46 velocity=121 time=5
Time=20581 Track=7 note_on channel=4 note=65 velocity=0 time=1
Time=20581 Track=7 note_on channel=4 note=62 velocity=0 time=0
Time=20610 Track=7 note_on channel=4 note=65 velocity=71 time=29
Time=20610 Track=7 note_on channel=4 note=62 velocity=71 time=0
Time=20611 Track=7 note_on channel=4 note=62 velocity=0 time=1
Time=20611 Track=7 note_on channel=4 note=65 velocity=0 time=0
Time=20625 Track=11 note_on channel=9 note=46 velocity=0 time=45
Time=20630 Track=5 note_on channel=2 note=50 velocity=101 time=50
Time=20630 Track=6 note_on channel=3 note=50 velocity=101 time=50
Time=20635 Track=5 note_on channel=2 note=62 velocity=104 time=5
Time=20635 Track=5 note_on channel=2 note=57 velocity=91 time=0
Time=20635 Track=6 note_on channel=3 note=62 velocity=104 time=5
Time=20635 Track=6 note_on channel=3 note=57 velocity=91 time=0
Time=20635 Track=12 note_on channel=10 note=52 velocity=0 time=175
Time=20640 Track=3 note_on channel=0 note=38 velocity=101 time=195
Time=20640 Track=4 note_on channel=1 note=38 velocity=100 time=200
Time=20640 Track=5 note_on channel=2 note=65 velocity=94 time=5
Time=20640 Track=6 note_on channel=3 note=65 velocity=94 time=5
Time=20640 Track=11 note_on channel=9 note=36 velocity=121 time=15
Time=20640 Track=11 note_on channel=9 note=42 velocity=112 time=0
Time=20640 Track=12 note_on channel=10 note=50 velocity=108 time=5
Time=20645 Track=5 note_on channel=2 note=69 velocity=96 time=5
Time=20645 Track=6 note_on channel=3 note=69 velocity=96 time=5
Time=20675 Track=11 note_on channel=9 note=42 velocity=0 time=35
Time=20695 Track=11 note_on channel=9 note=36 velocity=0 time=20
Time=20700 Track=11 note_on channel=9 note=42 velocity=83 time=5
Time=20720 Track=5 note_on channel=2 note=65 velocity=0 time=0
Time=20720 Track=6 note_on channel=3 note=65 velocity=0 time=75
Time=20725 Track=5 note_on channel=2 note=65 velocity=108 time=0
Time=20725 Track=5 note_on channel=2 note=62 velocity=0 time=0
Time=20725 Track=6 note_on channel=3 note=65 velocity=108 time=5
Time=20725 Track=6 note_on channel=3 note=62 velocity=0 time=0
Time=20725 Track=7 note_on channel=4 note=65 velocity=107 time=114
Time=20730 Track=5 note_on channel=2 note=62 velocity=97 time=5
Time=20730 Track=6 note_on channel=3 note=62 velocity=97 time=5
Time=20730 Track=7 note_on channel=4 note=62 velocity=105 time=5
Time=20730 Track=7 note_on channel=4 note=65 velocity=0 time=0
Time=20735 Track=7 note_on channel=4 note=62 velocity=0 time=5
Time=20745 Track=11 note_on channel=9 note=42 velocity=0 time=45
Time=20750 Track=5 note_on channel=2 note=57 velocity=100 time=0
Time=20750 Track=5 note_on channel=2 note=57 velocity=0 time=0
Time=20750 Track=6 note_on channel=3 note=57 velocity=100 time=20
Time=20750 Track=6 note_on channel=3 note=57 velocity=0 time=0
Time=20750 Track=7 note_on channel=4 note=57 velocity=107 time=15
Time=20755 Track=4 note_on channel=1 note=38 velocity=0 time=115
Time=20755 Track=5 note_on channel=2 note=62 velocity=108 time=5
Time=20755 Track=5 note_on channel=2 note=69 velocity=0 time=0
Time=20755 Track=5 note_on channel=2 note=62 velocity=0 time=0
Time=20755 Track=5 note_on channel=2 note=65 velocity=0 time=0
Time=20755 Track=6 note_on channel=3 note=62 velocity=108 time=5
Time=20755 Track=6 note_on channel=3 note=62 velocity=0 time=0
Time=20755 Track=6 note_on channel=3 note=65 velocity=0 time=0
Time=20755 Track=6 note_on channel=3 note=69 velocity=0 time=0
Time=20755 Track=7 note_on channel=4 note=62 velocity=107 time=5
Time=20760 Track=3 note_on channel=0 note=38 velocity=0 time=120
Time=20760 Track=5 note_on channel=2 note=65 velocity=90 time=5
Time=20760 Track=6 note_on channel=3 note=65 velocity=90 time=5
Time=20760 Track=7 note_on channel=4 note=65 velocity=98 time=5
Time=20760 Track=7 note_on channel=4 note=57 velocity=0 time=0
Time=20760 Track=11 note_on channel=9 note=36 velocity=120 time=15
Time=20760 Track=11 note_on channel=9 note=40 velocity=127 time=0
Time=20760 Track=11 note_on channel=9 note=42 velocity=125 time=0
Time=20760 Track=12 note_on channel=10 note=52 velocity=108 time=120
Time=20760 Track=12 note_on channel=10 note=50 velocity=0 time=0
Time=20765 Track=7 note_on channel=4 note=65 velocity=0 time=5
Time=20765 Track=7 note_on channel=4 note=62 velocity=0 time=0
Time=20770 Track=5 note_on channel=2 note=50 velocity=0 time=10
Time=20770 Track=6 note_on channel=3 note=50 velocity=0 time=10
Time=20785 Track=6 note_on channel=3 note=57 velocity=0 time=15
Time=20790 Track=5 note_on channel=2 note=57 velocity=0 time=20
Time=20805 Track=6 note_on channel=3 note=65 velocity=0 time=20
Time=20810 Track=5 note_on channel=2 note=57 velocity=89 time=20
Time=20810 Track=5 note_on channel=2 note=60 velocity=116 time=0
Time=20810 Track=5 note_on channel=2 note=65 velocity=0 time=0
Time=20810 Track=6 note_on channel=3 note=57 velocity=89 time=5
Time=20810 Track=6 note_on channel=3 note=60 velocity=116 time=0
Time=20810 Track=11 note_on channel=9 note=42 velocity=0 time=50
Time=20815 Track=11 note_on channel=9 note=40 velocity=0 time=5
Time=20815 Track=11 note_on channel=9 note=36 velocity=0 time=0
Time=20815 Track=12 note_on channel=10 note=52 velocity=0 time=55
Time=20820 Track=3 note_on channel=0 note=38 velocity=101 time=60
Time=20820 Track=4 note_on channel=1 note=38 velocity=99 time=65
Time=20820 Track=5 note_on channel=2 note=65 velocity=106 time=5
Time=20820 Track=5 note_on channel=2 note=62 velocity=0 time=0
Time=20820 Track=6 note_on channel=3 note=65 velocity=106 time=10
Time=20820 Track=6 note_on channel=3 note=62 velocity=0 time=0
Time=20820 Track=11 note_on channel=9 note=42 velocity=93 time=5
Time=20820 Track=12 note_on channel=10 note=53 velocity=108 time=5
Time=20865 Track=3 note_on channel=0 note=38 velocity=0 time=45
Time=20865 Track=4 note_on channel=1 note=38 velocity=0 time=45
Time=20865 Track=11 note_on channel=9 note=42 velocity=0 time=45
Time=20875 Track=5 note_on channel=2 note=57 velocity=91 time=5
Time=20875 Track=5 note_on channel=2 note=62 velocity=113 time=0
Time=20875 Track=5 note_on channel=2 note=60 velocity=0 time=0
Time=20875 Track=5 note_on channel=2 note=65 velocity=0 time=0
Time=20875 Track=5 note_on channel=2 note=57 velocity=0 time=0
Time=20875 Track=6 note_on channel=3 note=57 velocity=91 time=55
Time=20875 Track=6 note_on channel=3 note=62 velocity=113 time=0
Time=20875 Track=6 note_on channel=3 note=57 velocity=0 time=0
Time=20875 Track=6 note_on channel=3 note=65 velocity=0 time=0
Time=20875 Track=6 note_on channel=3 note=60 velocity=0 time=0
Time=20875 Track=7 note_on channel=4 note=57 velocity=99 time=110
Time=20875 Track=7 note_on channel=4 note=62 velocity=107 time=0
Time=20880 Track=3 note_on channel=0 note=33 velocity=101 time=15
Time=20880 Track=4 note_on channel=1 note=33 velocity=99 time=15
Time=20880 Track=5 note_on channel=2 note=65 velocity=96 time=5
Time=20880 Track=6 note_on channel=3 note=65 velocity=96 time=5
Time=20880 Track=7 note_on channel=4 note=65 velocity=104 time=5
Time=20880 Track=11 note_on channel=9 note=36 velocity=120 time=15
Time=20880 Track=11 note_on channel=9 note=42 velocity=114 time=0
Time=20885 Track=7 note_on channel=4 note=65 velocity=0 time=5
Time=20885 Track=7 note_on channel=4 note=62 velocity=0 time=0
Time=20885 Track=7 note_on channel=4 note=57 velocity=0 time=0
Time=20910 Track=5 note_on channel=2 note=62 velocity=0 time=5
Time=20910 Track=6 note_on channel=3 note=62 velocity=0 time=30
Time=20925 Track=11 note_on channel=9 note=42 velocity=0 time=45
Time=20935 Track=5 note_on channel=2 note=65 velocity=0 time=25
Time=20935 Track=6 note_on channel=3 note=65 velocity=0 time=25
Time=20935 Track=7 note_on channel=4 note=65 velocity=78 time=50
Time=20935 Track=11 note_on channel=9 note=36 velocity=0 time=10
Time=20936 Track=7 note_on channel=4 note=65 velocity=0 time=1
Time=20940 Track=5 note_on channel=2 note=57 velocity=0 time=5
Time=20940 Track=6 note_on channel=3 note=57 velocity=0 time=5
Time=20940 Track=7 note_on channel=4 note=62 velocity=78 time=4
Time=20940 Track=11 note_on channel=9 note=42 velocity=94 time=5
Time=20940 Track=12 note_on channel=10 note=52 velocity=97 time=120
Time=20940 Track=12 note_on channel=10 note=53 velocity=0 time=0
Time=20941 Track=7 note_on channel=4 note=62 velocity=0 time=1
Time=20965 Track=7 note_on channel=4 note=65 velocity=76 time=24
Time=20966 Track=7 note_on channel=4 note=65 velocity=0 time=1
Time=20970 Track=7 note_on channel=4 note=62 velocity=76 time=4
Time=20971 Track=7 note_on channel=4 note=62 velocity=0 time=1
Time=20985 Track=11 note_on channel=9 note=42 velocity=0 time=45
Time=20990 Track=5 note_on channel=2 note=57 velocity=90 time=50
Time=20990 Track=6 note_on channel=3 note=57 velocity=90 time=50
Time=20990 Track=7 note_on channel=4 note=57 velocity=98 time=19
Time=20995 Track=4 note_on channel=1 note=33 velocity=0 time=115
Time=20995 Track=5 note_on channel=2 note=62 velocity=115 time=0
Time=20995 Track=5 note_on channel=2 note=65 velocity=97 time=0
Time=20995 Track=6 note_on channel=3 note=62 velocity=115 time=5
Time=20995 Track=6 note_on channel=3 note=65 velocity=97 time=0
Time=20995 Track=7 note_on channel=4 note=62 velocity=107 time=5
Time=20995 Track=7 note_on channel=4 note=65 velocity=105 time=0
Time=21000 Track=3 note_on channel=0 note=36 velocity=100 time=120
Time=21000 Track=3 note_on channel=0 note=33 velocity=0 time=0
Time=21000 Track=4 note_on channel=1 note=36 velocity=99 time=5
Time=21000 Track=5 note_on channel=2 note=69 velocity=96 time=5
Time=21000 Track=6 note_on channel=3 note=69 velocity=96 time=5
Time=21000 Track=7 note_on channel=4 note=69 velocity=104 time=5
Time=21000 Track=7 note_on channel=4 note=57 velocity=0 time=0
Time=21000 Track=11 note_on channel=9 note=36 velocity=119 time=15
Time=21000 Track=11 note_on channel=9 note=40 velocity=127 time=0
Time=21000 Track=11 note_on channel=9 note=42 velocity=126 time=0
Time=21005 Track=7 note_on channel=4 note=62 velocity=0 time=5
Time=21005 Track=7 note_on channel=4 note=65 velocity=0 time=0
Time=21005 Track=7 note_on channel=4 note=69 velocity=0 time=0
Time=21025 Track=5 note_on channel=2 note=65 velocity=0 time=25
Time=21025 Track=6 note_on channel=3 note=65 velocity=0 time=25
Time=21030 Track=5 note_on channel=2 note=62 velocity=0 time=0
Time=21030 Track=6 note_on channel=3 note=62 velocity=0 time=5
Time=21040 Track=5 note_on channel=2 note=57 velocity=0 time=10
Time=21040 Track=6 note_on channel=3 note=57 velocity=0 time=10
Time=21040 Track=11 note_on channel=9 note=42 velocity=0 time=40
Time=21055 Track=6 note_on channel=3 note=69 velocity=0 time=15
Time=21055 Track=11 note_on channel=9 note=40 velocity=0 time=15
Time=21055 Track=11 note_on channel=9 note=36 velocity=0 time=0
Time=21060 Track=5 note_on channel=2 note=69 velocity=0 time=20
Time=21060 Track=7 note_on channel=4 note=62 velocity=72 time=55
Time=21060 Track=7 note_on channel=4 note=65 velocity=72 time=0
Time=21060 Track=11 note_on channel=9 note=46 velocity=121 time=5
Time=21061 Track=7 note_on channel=4 note=65 velocity=0 time=1
Time=21061 Track=7 note_on channel=4 note=62 velocity=0 time=0
Time=21090 Track=7 note_on channel=4 note=65 velocity=71 time=29
Time=21090 Track=7 note_on channel=4 note=62 velocity=71 time=0
Time=21091 Track=7 note_on channel=4 note=62 velocity=0 time=1
Time=21091 Track=7 note_on channel=4 note=65 velocity=0 time=0
Time=21105 Track=11 note_on channel=9 note=46 velocity=0 time=45
Time=21110 Track=5 note_on channel=2 note=50 velocity=101 time=50
Time=21110 Track=6 note_on channel=3 note=50 velocity=101 time=55
Time=21115 Track=3 note_on channel=0 note=36 velocity=0 time=115
Time=21115 Track=4 note_on channel=1 note=36 velocity=0 time=115
Time=21115 Track=5 note_on channel=2 note=62 velocity=104 time=5
Time=21115 Track=5 note_on channel=2 note=57 velocity=91 time=0
Time=21115 Track=6 note_on channel=3 note=62 velocity=104 time=5
Time=21115 Track=6 note_on channel=3 note=57 velocity=91 time=0
Time=21120 Track=3 note_on channel=0 note=38 velocity=103 time=5
Time=21120 Track=4 note_on channel=1 note=38 velocity=101 time=5
Time=21120 Track=5 note_on channel=2 note=65 velocity=94 time=5
Time=21120 Track=6 note_on channel=3 note=65 velocity=94 time=5
Time=21120 Track=11 note_on channel=9 note=36 velocity=121 time=15
Time=21120 Track=11 note_on channel=9 note=42 velocity=112 time=0
Time=21125 Track=5 note_on channel=2 note=69 velocity=96 time=5
Time=21125 Track=6 note_on channel=3 note=69 velocity=96 time=5
Time=21155 Track=11 note_on channel=9 note=42 velocity=0 time=35
Time=21175 Track=11 note_on channel=9 note=36 velocity=0 time=20
Time=21180 Track=11 note_on channel=9 note=42 velocity=83 time=5
Time=21205 Track=5 note_on channel=2 note=65 velocity=108 time=80
Time=21205 Track=5 note_on channel=2 note=65 velocity=0 time=0
Time=21205 Track=6 note_on channel=3 note=65 velocity=108 time=80
Time=21205 Track=6 note_on channel=3 note=65 velocity=0 time=0
Time=21205 Track=7 note_on channel=4 note=65 velocity=107 time=114
Time=21210 Track=5 note_on channel=2 note=62 velocity=97 time=5
Time=21210 Track=5 note_on channel=2 note=62 velocity=0 time=0
Time=21210 Track=6 note_on channel=3 note=62 velocity=97 time=5
Time=21210 Track=6 note_on channel=3 note=62 velocity=0 time=0
Time=21210 Track=7 note_on channel=4 note=62 velocity=105 time=5
Time=21210 Track=7 note_on channel=4 note=65 velocity=0 time=0
Time=21215 Track=7 note_on channel=4 note=62 velocity=0 time=5
Time=21225 Track=11 note_on channel=9 note=42 velocity=0 time=45
Time=21230 Track=5 note_on channel=2 note=57 velocity=0 time=20
Time=21230 Track=6 note_on channel=3 note=57 velocity=0 time=20
Time=21230 Track=7 note_on channel=4 note=57 velocity=107 time=15
Time=21235 Track=4 note_on channel=1 note=38 velocity=0 time=115
Time=21235 Track=5 note_on channel=2 note=57 velocity=100 time=5
Time=21235 Track=5 note_on channel=2 note=62 velocity=108 time=0
Time=21235 Track=5 note_on channel=2 note=69 velocity=0 time=0
Time=21235 Track=5 note_on channel=2 note=62 velocity=0 time=0
Time=21235 Track=6 note_on channel=3 note=57 velocity=100 time=5
Time=21235 Track=6 note_on channel=3 note=62 velocity=108 time=0
Time=21235 Track=6 note_on channel=3 note=69 velocity=0 time=0
Time=21235 Track=6 note_on channel=3 note=62 velocity=0 time=0
Time=21235 Track=7 note_on channel=4 note=62 velocity=107 time=5
Time=21240 Track=3 note_on channel=0 note=38 velocity=0 time=120
Time=21240 Track=5 note_on channel=2 note=65 velocity=90 time=5
Time=21240 Track=5 note_on channel=2 note=65 velocity=0 time=0
Time=21240 Track=6 note_on channel=3 note=65 velocity=90 time=5
Time=21240 Track=6 note_on channel=3 note=65 velocity=0 time=0
Time=21240 Track=7 note_on channel=4 note=65 velocity=98 time=5
Time=21240 Track=7 note_on channel=4 note=57 velocity=0 time=0
Time=21240 Track=11 note_on channel=9 note=36 velocity=120 time=15
Time=21240 Track=11 note_on channel=9 note=40 velocity=127 time=0
Time=21240 Track=11 note_on channel=9 note=42 velocity=125 time=0
Time=21245 Track=7 note_on channel=4 note=65 velocity=0 time=5
Time=21245 Track=7 note_on channel=4 note=62 velocity=0 time=0
Time=21255 Track=5 note_on channel=2 note=50 velocity=0 time=15
Time=21255 Track=6 note_on channel=3 note=50 velocity=0 time=15
Time=21270 Track=5 note_on channel=2 note=57 velocity=0 time=15
Time=21270 Track=6 note_on channel=3 note=57 velocity=0 time=15
Time=21290 Track=5 note_on channel=2 note=57 velocity=89 time=20
Time=21290 Track=5 note_on channel=2 note=65 velocity=0 time=0
Time=21290 Track=6 note_on channel=3 note=57 velocity=89 time=20
Time=21290 Track=6 note_on channel=3 note=65 velocity=0 time=0
Time=21290 Track=11 note_on channel=9 note=42 velocity=0 time=50
Time=21295 Track=5 note_on channel=2 note=60 velocity=116 time=5
Time=21295 Track=6 note_on channel=3 note=60 velocity=116 time=5
Time=21295 Track=11 note_on channel=9 note=40 velocity=0 time=5
Time=21295 Track=11 note_on channel=9 note=36 velocity=0 time=0
Time=21300 Track=3 note_on channel=0 note=36 velocity=102 time=60
Time=21300 Track=4 note_on channel=1 note=36 velocity=101 time=65
Time=21300 Track=5 note_on channel=2 note=65 velocity=106 time=5
Time=21300 Track=6 note_on channel=3 note=65 velocity=106 time=5
Time=21300 Track=11 note_on channel=9 note=42 velocity=93 time=5
Time=21305 Track=5 note_on channel=2 note=62 velocity=0 time=5
Time=21305 Track=6 note_on channel=3 note=62 velocity=0 time=5
Time=21345 Track=11 note_on channel=9 note=42 velocity=0 time=45
Time=21355 Track=3 note_on channel=0 note=36 velocity=0 time=55
Time=21355 Track=4 note_on channel=1 note=36 velocity=0 time=55
Time=21355 Track=5 note_on channel=2 note=57 velocity=91 time=50
Time=21355 Track=5 note_on channel=2 note=62 velocity=113 time=0
Time=21355 Track=5 note_on channel=2 note=60 velocity=0 time=0
Time=21355 Track=5 note_on channel=2 note=57 velocity=0 time=0
Time=21355 Track=6 note_on channel=3 note=57 velocity=91 time=50
Time=21355 Track=6 note_on channel=3 note=62 velocity=113 time=0
Time=21355 Track=6 note_on channel=3 note=57 velocity=0 time=0
Time=21355 Track=6 note_on channel=3 note=60 velocity=0 time=0
Time=21355 Track=7 note_on channel=4 note=57 velocity=99 time=110
Time=21355 Track=7 note_on channel=4 note=62 velocity=107 time=0
Time=21360 Track=3 note_on channel=0 note=38 velocity=102 time=5
Time=21360 Track=4 note_on channel=1 note=38 velocity=101 time=5
Time=21360 Track=5 note_on channel=2 note=65 velocity=96 time=5
Time=21360 Track=5 note_on channel=2 note=65 velocity=0 time=0
Time=21360 Track=6 note_on channel=3 note=65 velocity=96 time=5
Time=21360 Track=6 note_on channel=3 note=65 velocity=0 time=0
Time=21360 Track=7 note_on channel=4 note=65 velocity=104 time=5
Time=21360 Track=11 note_on channel=9 note=36 velocity=120 time=15
Time=21360 Track=11 note_on channel=9 note=42 velocity=114 time=0
Time=21365 Track=7 note_on channel=4 note=65 velocity=0 time=5
Time=21365 Track=7 note_on channel=4 note=62 velocity=0 time=0
Time=21365 Track=7 note_on channel=4 note=57 velocity=0 time=0
Time=21385 Track=5 note_on channel=2 note=65 velocity=115 time=25
Time=21385 Track=5 note_on channel=2 note=65 velocity=0 time=0
Time=21385 Track=6 note_on channel=3 note=65 velocity=115 time=25
Time=21385 Track=6 note_on channel=3 note=65 velocity=0 time=0
Time=21385 Track=7 note_on channel=4 note=65 velocity=107 time=20
Time=21390 Track=5 note_on channel=2 note=62 velocity=94 time=5
Time=21390 Track=5 note_on channel=2 note=62 velocity=0 time=0
Time=21390 Track=6 note_on channel=3 note=62 velocity=94 time=5
Time=21390 Track=6 note_on channel=3 note=62 velocity=0 time=0
Time=21390 Track=7 note_on channel=4 note=62 velocity=102 time=5
Time=21395 Track=7 note_on channel=4 note=62 velocity=0 time=5
Time=21395 Track=7 note_on channel=4 note=65 velocity=0 time=0
Time=21400 Track=4 note_on channel=1 note=38 velocity=0 time=40
Time=21405 Track=3 note_on channel=0 note=38 velocity=0 time=45
Time=21405 Track=11 note_on channel=9 note=42 velocity=0 time=45
Time=21415 Track=7 note_on channel=4 note=65 velocity=78 time=20
Time=21415 Track=11 note_on channel=9 note=36 velocity=0 time=10
Time=21416 Track=7 note_on channel=4 note=65 velocity=0 time=1
Time=21420 Track=5 note_on channel=2 note=62 velocity=1 time=30
Time=21420 Track=5 note_on channel=2 note=65 velocity=0 time=0
Time=21420 Track=5 note_on channel=2 note=62 velocity=0 time=0
Time=21420 Track=5 note_on channel=2 note=57 velocity=0 time=0
Time=21420 Track=6 note_on channel=3 note=62 velocity=1 time=30
Time=21420 Track=6 note_on channel=3 note=65 velocity=0 time=0
Time=21420 Track=6 note_on channel=3 note=62 velocity=0 time=0
Time=21420 Track=6 note_on channel=3 note=57 velocity=0 time=0
Time=21420 Track=7 note_on channel=4 note=62 velocity=78 time=4
Time=21420 Track=11 note_on channel=9 note=42 velocity=94 time=5
Time=21421 Track=6 note_on channel=3 note=62 velocity=0 time=1
Time=21421 Track=7 note_on channel=4 note=62 velocity=0 time=1
Time=21425 Track=5 note_on channel=2 note=62 velocity=0 time=5
Time=21445 Track=7 note_on channel=4 note=65 velocity=76 time=24
Time=21446 Track=7 note_on channel=4 note=65 velocity=0 time=1
Time=21450 Track=5 note_on channel=2 note=65 velocity=1 time=25
Time=21450 Track=5 note_on channel=2 note=62 velocity=1 time=0
Time=21450 Track=6 note_on channel=3 note=65 velocity=1 time=29
Time=21450 Track=6 note_on channel=3 note=62 velocity=1 time=0
Time=21450 Track=7 note_on channel=4 note=62 velocity=76 time=4
Time=21451 Track=5 note_on channel=2 note=62 velocity=0 time=1
Time=21451 Track=5 note_on channel=2 note=65 velocity=0 time=0
Time=21451 Track=6 note_on channel=3 note=62 velocity=0 time=1
Time=21451 Track=6 note_on channel=3 note=65 velocity=0 time=0
Time=21451 Track=7 note_on channel=4 note=62 velocity=0 time=1
Time=21465 Track=11 note_on channel=9 note=42 velocity=0 time=45
Time=21470 Track=7 note_on channel=4 note=57 velocity=98 time=19
Time=21475 Track=5 note_on channel=2 note=57 velocity=90 time=24
Time=21475 Track=5 note_on channel=2 note=62 velocity=115 time=0
Time=21475 Track=6 note_on channel=3 note=57 velocity=90 time=24
Time=21475 Track=6 note_on channel=3 note=62 velocity=115 time=0
Time=21475 Track=7 note_on channel=4 note=62 velocity=107 time=5
Time=21475 Track=7 note_on channel=4 note=65 velocity=105 time=0
Time=21480 Track=5 note_on channel=2 note=65 velocity=97 time=5
Time=21480 Track=5 note_on channel=2 note=69 velocity=96 time=0
Time=21480 Track=6 note_on channel=3 note=65 velocity=97 time=5
Time=21480 Track=6 note_on channel=3 note=69 velocity=96 time=0
Time=21480 Track=7 note_on channel=4 note=69 velocity=104 time=5
Time=21480 Track=7 note_on channel=4 note=57 velocity=0 time=0
Time=21480 Track=11 note_on channel=9 note=36 velocity=119 time=15
Time=21480 Track=11 note_on channel=9 note=40 velocity=127 time=0
Time=21480 Track=11 note_on channel=9 note=42 velocity=126 time=0
Time=21485 Track=7 note_on channel=4 note=62 velocity=0 time=5
Time=21485 Track=7 note_on channel=4 note=65 velocity=0 time=0
Time=21485 Track=7 note_on channel=4 note=69 velocity=0 time=0
Time=21505 Track=5 note_on channel=2 note=65 velocity=118 time=25
Time=21505 Track=5 note_on channel=2 note=65 velocity=0 time=0
Time=21505 Track=6 note_on channel=3 note=65 velocity=118 time=25
Time=21505 Track=6 note_on channel=3 note=65 velocity=0 time=0
Time=21505 Track=7 note_on channel=4 note=65 velocity=107 time=20
Time=21510 Track=5 note_on channel=2 note=62 velocity=91 time=5
Time=21510 Track=5 note_on channel=2 note=62 velocity=0 time=0
Time=21510 Track=6 note_on channel=3 note=62 velocity=91 time=5
Time=21510 Track=6 note_on channel=3 note=62 velocity=0 time=0
Time=21510 Track=7 note_on channel=4 note=62 velocity=99 time=5
Time=21515 Track=7 note_on channel=4 note=62 velocity=0 time=5
Time=21515 Track=7 note_on channel=4 note=65 velocity=0 time=0
Time=21520 Track=5 note_on channel=2 note=57 velocity=0 time=10
Time=21520 Track=6 note_on channel=3 note=57 velocity=0 time=10
Time=21520 Track=11 note_on channel=9 note=42 velocity=0 time=40
Time=21530 Track=6 note_on channel=3 note=65 velocity=0 time=10
Time=21535 Track=5 note_on channel=2 note=65 velocity=0 time=15
Time=21535 Track=11 note_on channel=9 note=40 velocity=0 time=15
Time=21535 Track=11 note_on channel=9 note=36 velocity=0 time=0
Time=21540 Track=5 note_on channel=2 note=62 velocity=1 time=5
Time=21540 Track=5 note_on channel=2 note=65 velocity=1 time=0
Time=21540 Track=5 note_on channel=2 note=69 velocity=0 time=0
Time=21540 Track=5 note_on channel=2 note=62 velocity=0 time=0
Time=21540 Track=6 note_on channel=3 note=62 velocity=1 time=10
Time=21540 Track=6 note_on channel=3 note=65 velocity=1 time=0
Time=21540 Track=6 note_on channel=3 note=69 velocity=0 time=0
Time=21540 Track=6 note_on channel=3 note=62 velocity=0 time=0
Time=21540 Track=7 note_on channel=4 note=62 velocity=72 time=25
Time=21540 Track=7 note_on channel=4 note=65 velocity=72 time=0
Time=21540 Track=11 note_on channel=9 note=46 velocity=121 time=5
Time=21541 Track=5 note_on channel=2 note=65 velocity=0 time=1
Time=21541 Track=6 note_on channel=3 note=62 velocity=0 time=1
Time=21541 Track=6 note_on channel=3 note=65 velocity=0 time=0
Time=21541 Track=7 note_on channel=4 note=65 velocity=0 time=1
Time=21541 Track=7 note_on channel=4 note=62 velocity=0 time=0
Time=21545 Track=5 note_on channel=2 note=62 velocity=0 time=4
Time=21570 Track=5 note_on channel=2 note=65 velocity=1 time=25
Time=21570 Track=6 note_on channel=3 note=65 velocity=1 time=29
Time=21570 Track=7 note_on channel=4 note=65 velocity=71 time=29
Time=21570 Track=7 note_on channel=4 note=62 velocity=71 time=0
Time=21571 Track=5 note_on channel=2 note=65 velocity=0 time=1
Time=21571 Track=6 note_on channel=3 note=65 velocity=0 time=1
Time=21571 Track=7 note_on channel=4 note=62 velocity=0 time=1
Time=21571 Track=7 note_on channel=4 note=65 velocity=0 time=0
Time=21585 Track=11 note_on channel=9 note=46 velocity=0 time=45
Time=21590 Track=5 note_on channel=2 note=50 velocity=101 time=19
Time=21590 Track=6 note_on channel=3 note=50 velocity=101 time=19
Time=21595 Track=5 note_on channel=2 note=62 velocity=104 time=5
Time=21595 Track=5 note_on channel=2 note=57 velocity=91 time=0
Time=21595 Track=6 note_on channel=3 note=62 velocity=104 time=5
Time=21595 Track=6 note_on channel=3 note=57 velocity=91 time=0
Time=21600 Track=3 note_on channel=0 note=38 velocity=101 time=195
Time=21600 Track=4 note_on channel=1 note=38 velocity=100 time=200
Time=21600 Track=5 note_on channel=2 note=65 velocity=94 time=5
Time=21600 Track=6 note_on channel=3 note=65 velocity=94 time=5
Time=21600 Track=11 note_on channel=9 note=36 velocity=121 time=15
Time=21600 Track=11 note_on channel=9 note=42 velocity=112 time=0
Time=21605 Track=5 note_on channel=2 note=69 velocity=96 time=5
Time=21605 Track=6 note_on channel=3 note=69 velocity=96 time=5
Time=21635 Track=11 note_on channel=9 note=42 velocity=0 time=35
Time=21655 Track=11 note_on channel=9 note=36 velocity=0 time=20
Time=21660 Track=11 note_on channel=9 note=42 velocity=83 time=5
Time=21685 Track=5 note_on channel=2 note=65 velocity=108 time=80
Time=21685 Track=5 note_on channel=2 note=65 velocity=0 time=0
Time=21685 Track=6 note_on channel=3 note=65 velocity=108 time=80
Time=21685 Track=6 note_on channel=3 note=65 velocity=0 time=0
Time=21685 Track=7 note_on channel=4 note=65 velocity=107 time=114
Time=21690 Track=5 note_on channel=2 note=62 velocity=97 time=5
Time=21690 Track=5 note_on channel=2 note=62 velocity=0 time=0
Time=21690 Track=6 note_on channel=3 note=62 velocity=97 time=5
Time=21690 Track=6 note_on channel=3 note=62 velocity=0 time=0
Time=21690 Track=7 note_on channel=4 note=62 velocity=105 time=5
Time=21690 Track=7 note_on channel=4 note=65 velocity=0 time=0
Time=21695 Track=7 note_on channel=4 note=62 velocity=0 time=5
Time=21705 Track=11 note_on channel=9 note=42 velocity=0 time=45
Time=21710 Track=5 note_on channel=2 note=57 velocity=0 time=20
Time=21710 Track=6 note_on channel=3 note=57 velocity=0 time=20
Time=21710 Track=7 note_on channel=4 note=57 velocity=107 time=15
Time=21715 Track=4 note_on channel=1 note=38 velocity=0 time=115
Time=21715 Track=5 note_on channel=2 note=57 velocity=100 time=5
Time=21715 Track=5 note_on channel=2 note=62 velocity=108 time=0
Time=21715 Track=5 note_on channel=2 note=69 velocity=0 time=0
Time=21715 Track=5 note_on channel=2 note=62 velocity=0 time=0
Time=21715 Track=6 note_on channel=3 note=57 velocity=100 time=5
Time=21715 Track=6 note_on channel=3 note=62 velocity=108 time=0
Time=21715 Track=6 note_on channel=3 note=69 velocity=0 time=0
Time=21715 Track=6 note_on channel=3 note=62 velocity=0 time=0
Time=21715 Track=7 note_on channel=4 note=62 velocity=107 time=5
Time=21720 Track=3 note_on channel=0 note=38 velocity=0 time=120
Time=21720 Track=5 note_on channel=2 note=65 velocity=90 time=5
Time=21720 Track=5 note_on channel=2 note=65 velocity=0 time=0
Time=21720 Track=6 note_on channel=3 note=65 velocity=90 time=5
Time=21720 Track=6 note_on channel=3 note=65 velocity=0 time=0
Time=21720 Track=7 note_on channel=4 note=65 velocity=98 time=5
Time=21720 Track=7 note_on channel=4 note=57 velocity=0 time=0
Time=21720 Track=11 note_on channel=9 note=36 velocity=120 time=15
Time=21720 Track=11 note_on channel=9 note=40 velocity=127 time=0
Time=21720 Track=11 note_on channel=9 note=42 velocity=125 time=0
Time=21725 Track=7 note_on channel=4 note=65 velocity=0 time=5
Time=21725 Track=7 note_on channel=4 note=62 velocity=0 time=0
Time=21735 Track=5 note_on channel=2 note=50 velocity=0 time=15
Time=21735 Track=6 note_on channel=3 note=50 velocity=0 time=15
Time=21750 Track=5 note_on channel=2 note=57 velocity=0 time=15
Time=21750 Track=6 note_on channel=3 note=57 velocity=0 time=15
Time=21770 Track=5 note_on channel=2 note=57 velocity=89 time=20
Time=21770 Track=5 note_on channel=2 note=65 velocity=0 time=0
Time=21770 Track=6 note_on channel=3 note=57 velocity=89 time=20
Time=21770 Track=6 note_on channel=3 note=65 velocity=0 time=0
Time=21770 Track=11 note_on channel=9 note=42 velocity=0 time=50
Time=21775 Track=5 note_on channel=2 note=60 velocity=116 time=5
Time=21775 Track=6 note_on channel=3 note=60 velocity=116 time=5
Time=21775 Track=11 note_on channel=9 note=40 velocity=0 time=5
Time=21775 Track=11 note_on channel=9 note=36 velocity=0 time=0
Time=21780 Track=3 note_on channel=0 note=38 velocity=101 time=60
Time=21780 Track=4 note_on channel=1 note=38 velocity=99 time=65
Time=21780 Track=5 note_on channel=2 note=65 velocity=106 time=5
Time=21780 Track=6 note_on channel=3 note=65 velocity=106 time=5
Time=21780 Track=11 note_on channel=9 note=42 velocity=93 time=5
Time=21785 Track=5 note_on channel=2 note=62 velocity=0 time=5
Time=21785 Track=6 note_on channel=3 note=62 velocity=0 time=5
Time=21825 Track=3 note_on channel=0 note=38 velocity=0 time=45
Time=21825 Track=4 note_on channel=1 note=38 velocity=0 time=45
Time=21825 Track=11 note_on channel=9 note=42 velocity=0 time=45
Time=21835 Track=5 note_on channel=2 note=57 velocity=91 time=50
Time=21835 Track=5 note_on channel=2 note=62 velocity=113 time=0
Time=21835 Track=5 note_on channel=2 note=60 velocity=0 time=0
Time=21835 Track=5 note_on channel=2 note=57 velocity=0 time=0
Time=21835 Track=6 note_on channel=3 note=57 velocity=91 time=50
Time=21835 Track=6 note_on channel=3 note=62 velocity=113 time=0
Time=21835 Track=6 note_on channel=3 note=57 velocity=0 time=0
Time=21835 Track=6 note_on channel=3 note=60 velocity=0 time=0
Time=21835 Track=7 note_on channel=4 note=57 velocity=99 time=110
Time=21835 Track=7 note_on channel=4 note=62 velocity=107 time=0
Time=21840 Track=3 note_on channel=0 note=33 velocity=101 time=15
Time=21840 Track=4 note_on channel=1 note=33 velocity=99 time=15
Time=21840 Track=5 note_on channel=2 note=65 velocity=96 time=5
Time=21840 Track=5 note_on channel=2 note=65 velocity=0 time=0
Time=21840 Track=6 note_on channel=3 note=65 velocity=96 time=5
Time=21840 Track=6 note_on channel=3 note=65 velocity=0 time=0
Time=21840 Track=7 note_on channel=4 note=65 velocity=104 time=5
Time=21840 Track=11 note_on channel=9 note=36 velocity=120 time=15
Time=21840 Track=11 note_on channel=9 note=42 velocity=114 time=0
Time=21845 Track=7 note_on channel=4 note=65 velocity=0 time=5
Time=21845 Track=7 note_on channel=4 note=62 velocity=0 time=0
Time=21845 Track=7 note_on channel=4 note=57 velocity=0 time=0
Time=21865 Track=5 note_on channel=2 note=65 velocity=115 time=25
Time=21865 Track=5 note_on channel=2 note=65 velocity=0 time=0
Time=21865 Track=6 note_on channel=3 note=65 velocity=115 time=25
Time=21865 Track=6 note_on channel=3 note=65 velocity=0 time=0
Time=21865 Track=7 note_on channel=4 note=65 velocity=107 time=20
Time=21870 Track=5 note_on channel=2 note=62 velocity=94 time=5
Time=21870 Track=5 note_on channel=2 note=62 velocity=0 time=0
Time=21870 Track=6 note_on channel=3 note=62 velocity=94 time=5
Time=21870 Track=6 note_on channel=3 note=62 velocity=0 time=0
Time=21870 Track=7 note_on channel=4 note=62 velocity=102 time=5
Time=21875 Track=7 note_on channel=4 note=62 velocity=0 time=5
Time=21875 Track=7 note_on channel=4 note=65 velocity=0 time=0
Time=21885 Track=11 note_on channel=9 note=42 velocity=0 time=45
Time=21895 Track=7 note_on channel=4 note=65 velocity=78 time=20
Time=21895 Track=11 note_on channel=9 note=36 velocity=0 time=10
Time=21896 Track=7 note_on channel=4 note=65 velocity=0 time=1
Time=21900 Track=5 note_on channel=2 note=62 velocity=1 time=30
Time=21900 Track=5 note_on channel=2 note=65 velocity=0 time=0
Time=21900 Track=5 note_on channel=2 note=62 velocity=0 time=0
Time=21900 Track=5 note_on channel=2 note=57 velocity=0 time=0
Time=21900 Track=6 note_on channel=3 note=62 velocity=1 time=30
Time=21900 Track=6 note_on channel=3 note=65 velocity=0 time=0
Time=21900 Track=6 note_on channel=3 note=62 velocity=0 time=0
Time=21900 Track=6 note_on channel=3 note=57 velocity=0 time=0
Time=21900 Track=7 note_on channel=4 note=62 velocity=78 time=4
Time=21900 Track=11 note_on channel=9 note=42 velocity=94 time=5
Time=21901 Track=6 note_on channel=3 note=62 velocity=0 time=1
Time=21901 Track=7 note_on channel=4 note=62 velocity=0 time=1
Time=21905 Track=5 note_on channel=2 note=62 velocity=0 time=5
Time=21925 Track=7 note_on channel=4 note=65 velocity=76 time=24
Time=21926 Track=7 note_on channel=4 note=65 velocity=0 time=1
Time=21930 Track=5 note_on channel=2 note=65 velocity=1 time=25
Time=21930 Track=5 note_on channel=2 note=62 velocity=1 time=0
Time=21930 Track=6 note_on channel=3 note=65 velocity=1 time=29
Time=21930 Track=6 note_on channel=3 note=62 velocity=1 time=0
Time=21930 Track=7 note_on channel=4 note=62 velocity=76 time=4
Time=21931 Track=5 note_on channel=2 note=62 velocity=0 time=1
Time=21931 Track=5 note_on channel=2 note=65 velocity=0 time=0
Time=21931 Track=6 note_on channel=3 note=62 velocity=0 time=1
Time=21931 Track=6 note_on channel=3 note=65 velocity=0 time=0
Time=21931 Track=7 note_on channel=4 note=62 velocity=0 time=1
Time=21945 Track=11 note_on channel=9 note=42 velocity=0 time=45
Time=21950 Track=7 note_on channel=4 note=57 velocity=98 time=19
Time=21955 Track=4 note_on channel=1 note=33 velocity=0 time=115
Time=21955 Track=5 note_on channel=2 note=57 velocity=90 time=24
Time=21955 Track=5 note_on channel=2 note=62 velocity=115 time=0
Time=21955 Track=6 note_on channel=3 note=57 velocity=90 time=24
Time=21955 Track=6 note_on channel=3 note=62 velocity=115 time=0
Time=21955 Track=7 note_on channel=4 note=62 velocity=107 time=5
Time=21955 Track=7 note_on channel=4 note=65 velocity=105 time=0
Time=21960 Track=3 note_on channel=0 note=36 velocity=100 time=120
Time=21960 Track=3 note_on channel=0 note=33 velocity=0 time=0
Time=21960 Track=4 note_on channel=1 note=36 velocity=99 time=5
Time=21960 Track=5 note_on channel=2 note=65 velocity=97 time=5
Time=21960 Track=5 note_on channel=2 note=69 velocity=96 time=0
Time=21960 Track=6 note_on channel=3 note=65 velocity=97 time=5
Time=21960 Track=6 note_on channel=3 note=69 velocity=96 time=0
Time=21960 Track=7 note_on channel=4 note=69 velocity=104 time=5
Time=21960 Track=7 note_on channel=4 note=57 velocity=0 time=0
Time=21960 Track=11 note_on channel=9 note=36 velocity=119 time=15
Time=21960 Track=11 note_on channel=9 note=40 velocity=127 time=0
Time=21960 Track=11 note_on channel=9 note=42 velocity=126 time=0
Time=21965 Track=7 note_on channel=4 note=62 velocity=0 time=5
Time=21965 Track=7 note_on channel=4 note=65 velocity=0 time=0
Time=21965 Track=7 note_on channel=4 note=69 velocity=0 time=0
Time=21985 Track=5 note_on channel=2 note=65 velocity=118 time=25
Time=21985 Track=5 note_on channel=2 note=65 velocity=0 time=0
Time=21985 Track=6 note_on channel=3 note=65 velocity=118 time=25
Time=21985 Track=6 note_on channel=3 note=65 velocity=0 time=0
Time=21985 Track=7 note_on channel=4 note=65 velocity=107 time=20
Time=21990 Track=5 note_on channel=2 note=62 velocity=91 time=5
Time=21990 Track=5 note_on channel=2 note=62 velocity=0 time=0
Time=21990 Track=6 note_on channel=3 note=62 velocity=91 time=5
Time=21990 Track=6 note_on channel=3 note=62 velocity=0 time=0
Time=21990 Track=7 note_on channel=4 note=62 velocity=99 time=5
Time=21995 Track=7 note_on channel=4 note=62 velocity=0 time=5
Time=21995 Track=7 note_on channel=4 note=65 velocity=0 time=0
Time=22000 Track=5 note_on channel=2 note=57 velocity=0 time=10
Time=22000 Track=6 note_on channel=3 note=57 velocity=0 time=10
Time=22000 Track=11 note_on channel=9 note=42 velocity=0 time=40
Time=22010 Track=6 note_on channel=3 note=65 velocity=0 time=10
Time=22015 Track=5 note_on channel=2 note=65 velocity=0 time=15
Time=22015 Track=11 note_on channel=9 note=40 velocity=0 time=15
Time=22015 Track=11 note_on channel=9 note=36 velocity=0 time=0
Time=22020 Track=5 note_on channel=2 note=62 velocity=1 time=5
Time=22020 Track=5 note_on channel=2 note=65 velocity=1 time=0
Time=22020 Track=5 note_on channel=2 note=69 velocity=0 time=0
Time=22020 Track=5 note_on channel=2 note=62 velocity=0 time=0
Time=22020 Track=6 note_on channel=3 note=62 velocity=1 time=10
Time=22020 Track=6 note_on channel=3 note=65 velocity=1 time=0
Time=22020 Track=6 note_on channel=3 note=69 velocity=0 time=0
Time=22020 Track=6 note_on channel=3 note=62 velocity=0 time=0
Time=22020 Track=7 note_on channel=4 note=62 velocity=72 time=25
Time=22020 Track=7 note_on channel=4 note=65 velocity=72 time=0
Time=22020 Track=11 note_on channel=9 note=46 velocity=121 time=5
Time=22021 Track=5 note_on channel=2 note=65 velocity=0 time=1
Time=22021 Track=6 note_on channel=3 note=62 velocity=0 time=1
Time=22021 Track=6 note_on channel=3 note=65 velocity=0 time=0
Time=22021 Track=7 note_on channel=4 note=65 velocity=0 time=1
Time=22021 Track=7 note_on channel=4 note=62 velocity=0 time=0
Time=22025 Track=5 note_on channel=2 note=62 velocity=0 time=4
Time=22050 Track=5 note_on channel=2 note=65 velocity=1 time=25
Time=22050 Track=6 note_on channel=3 note=65 velocity=1 time=29
Time=22050 Track=7 note_on channel=4 note=65 velocity=71 time=29
Time=22050 Track=7 note_on channel=4 note=62 velocity=71 time=0
Time=22051 Track=5 note_on channel=2 note=65 velocity=0 time=1
Time=22051 Track=6 note_on channel=3 note=65 velocity=0 time=1
Time=22051 Track=7 note_on channel=4 note=62 velocity=0 time=1
Time=22051 Track=7 note_on channel=4 note=65 velocity=0 time=0
Time=22065 Track=11 note_on channel=9 note=46 velocity=0 time=45
Time=22070 Track=5 note_on channel=2 note=50 velocity=101 time=19
Time=22070 Track=6 note_on channel=3 note=50 velocity=101 time=19
Time=22075 Track=3 note_on channel=0 note=36 velocity=0 time=115
Time=22075 Track=4 note_on channel=1 note=36 velocity=0 time=115
Time=22075 Track=5 note_on channel=2 note=62 velocity=104 time=5
Time=22075 Track=5 note_on channel=2 note=57 velocity=91 time=0
Time=22075 Track=6 note_on channel=3 note=62 velocity=104 time=5
Time=22075 Track=6 note_on channel=3 note=57 velocity=91 time=0
Time=22075 Track=12 note_on channel=10 note=52 velocity=0 time=1135
Time=22080 Track=3 note_on channel=0 note=38 velocity=103 time=5
Time=22080 Track=4 note_on channel=1 note=38 velocity=101 time=5
Time=22080 Track=5 note_on channel=2 note=65 velocity=94 time=0
Time=22080 Track=6 note_on channel=3 note=65 velocity=94 time=5
Time=22080 Track=11 note_on channel=9 note=36 velocity=121 time=15
Time=22080 Track=11 note_on channel=9 note=42 velocity=112 time=0
Time=22080 Track=12 note_on channel=10 note=50 velocity=107 time=5
Time=22085 Track=5 note_on channel=2 note=69 velocity=96 time=5
Time=22085 Track=6 note_on channel=3 note=69 velocity=96 time=5
Time=22115 Track=11 note_on channel=9 note=42 velocity=0 time=35
Time=22135 Track=11 note_on channel=9 note=36 velocity=0 time=20
Time=22140 Track=11 note_on channel=9 note=42 velocity=83 time=5
Time=22165 Track=5 note_on channel=2 note=65 velocity=108 time=0
Time=22165 Track=5 note_on channel=2 note=65 velocity=0 time=0
Time=22165 Track=6 note_on channel=3 note=65 velocity=108 time=80
Time=22165 Track=6 note_on channel=3 note=65 velocity=0 time=0
Time=22165 Track=7 note_on channel=4 note=65 velocity=107 time=114
Time=22170 Track=5 note_on channel=2 note=62 velocity=97 time=5
Time=22170 Track=5 note_on channel=2 note=62 velocity=0 time=0
Time=22170 Track=6 note_on channel=3 note=62 velocity=97 time=5
Time=22170 Track=6 note_on channel=3 note=62 velocity=0 time=0
Time=22170 Track=7 note_on channel=4 note=62 velocity=105 time=5
Time=22170 Track=7 note_on channel=4 note=65 velocity=0 time=0
Time=22175 Track=7 note_on channel=4 note=62 velocity=0 time=5
Time=22185 Track=11 note_on channel=9 note=42 velocity=0 time=45
Time=22190 Track=5 note_on channel=2 note=57 velocity=0 time=0
Time=22190 Track=6 note_on channel=3 note=57 velocity=0 time=20
Time=22190 Track=7 note_on channel=4 note=57 velocity=107 time=15
Time=22195 Track=4 note_on channel=1 note=38 velocity=0 time=115
Time=22195 Track=5 note_on channel=2 note=57 velocity=100 time=5
Time=22195 Track=5 note_on channel=2 note=62 velocity=108 time=0
Time=22195 Track=5 note_on channel=2 note=69 velocity=0 time=0
Time=22195 Track=5 note_on channel=2 note=62 velocity=0 time=0
Time=22195 Track=6 note_on channel=3 note=57 velocity=100 time=5
Time=22195 Track=6 note_on channel=3 note=62 velocity=108 time=0
Time=22195 Track=6 note_on channel=3 note=69 velocity=0 time=0
Time=22195 Track=6 note_on channel=3 note=62 velocity=0 time=0
Time=22195 Track=7 note_on channel=4 note=62 velocity=107 time=5
Time=22195 Track=12 note_on channel=10 note=50 velocity=0 time=115
Time=22200 Track=3 note_on channel=0 note=38 velocity=0 time=120
Time=22200 Track=5 note_on channel=2 note=65 velocity=90 time=5
Time=22200 Track=5 note_on channel=2 note=65 velocity=0 time=0
Time=22200 Track=6 note_on channel=3 note=65 velocity=90 time=5
Time=22200 Track=6 note_on channel=3 note=65 velocity=0 time=0
Time=22200 Track=7 note_on channel=4 note=65 velocity=98 time=5
Time=22200 Track=7 note_on channel=4 note=57 velocity=0 time=0
Time=22200 Track=11 note_on channel=9 note=36 velocity=120 time=15
Time=22200 Track=11 note_on channel=9 note=40 velocity=127 time=0
Time=22200 Track=11 note_on channel=9 note=42 velocity=125 time=0
Time=22200 Track=12 note_on channel=10 note=52 velocity=107 time=5
Time=22205 Track=7 note_on channel=4 note=65 velocity=0 time=5
Time=22205 Track=7 note_on channel=4 note=62 velocity=0 time=0
Time=22215 Track=5 note_on channel=2 note=50 velocity=0 time=15
Time=22215 Track=6 note_on channel=3 note=50 velocity=0 time=15
Time=22230 Track=5 note_on channel=2 note=57 velocity=0 time=15
Time=22230 Track=6 note_on channel=3 note=57 velocity=0 time=15
Time=22250 Track=5 note_on channel=2 note=57 velocity=89 time=20
Time=22250 Track=5 note_on channel=2 note=65 velocity=0 time=0
Time=22250 Track=6 note_on channel=3 note=57 velocity=89 time=20
Time=22250 Track=6 note_on channel=3 note=65 velocity=0 time=0
Time=22250 Track=11 note_on channel=9 note=42 velocity=0 time=50
Time=22255 Track=5 note_on channel=2 note=60 velocity=116 time=5
Time=22255 Track=6 note_on channel=3 note=60 velocity=116 time=5
Time=22255 Track=11 note_on channel=9 note=40 velocity=0 time=5
Time=22255 Track=11 note_on channel=9 note=36 velocity=0 time=0
Time=22255 Track=12 note_on channel=10 note=52 velocity=0 time=55
Time=22260 Track=3 note_on channel=0 note=36 velocity=102 time=60
Time=22260 Track=4 note_on channel=1 note=36 velocity=101 time=65
Time=22260 Track=5 note_on channel=2 note=65 velocity=106 time=0
Time=22260 Track=6 note_on channel=3 note=65 velocity=106 time=5
Time=22260 Track=11 note_on channel=9 note=42 velocity=93 time=5
Time=22260 Track=12 note_on channel=10 note=53 velocity=107 time=5
Time=22265 Track=5 note_on channel=2 note=62 velocity=0 time=5
Time=22265 Track=6 note_on channel=3 note=62 velocity=0 time=5
Time=22305 Track=11 note_on channel=9 note=42 velocity=0 time=45
Time=22315 Track=3 note_on channel=0 note=36 velocity=0 time=55
Time=22315 Track=4 note_on channel=1 note=36 velocity=0 time=55
Time=22315 Track=5 note_on channel=2 note=57 velocity=91 time=0
Time=22315 Track=5 note_on channel=2 note=62 velocity=113 time=0
Time=22315 Track=5 note_on channel=2 note=60 velocity=0 time=0
Time=22315 Track=5 note_on channel=2 note=57 velocity=0 time=0
Time=22315 Track=6 note_on channel=3 note=57 velocity=91 time=50
Time=22315 Track=6 note_on channel=3 note=62 velocity=113 time=0
Time=22315 Track=6 note_on channel=3 note=57 velocity=0 time=0
Time=22315 Track=6 note_on channel=3 note=60 velocity=0 time=0
Time=22315 Track=7 note_on channel=4 note=57 velocity=99 time=110
Time=22315 Track=7 note_on channel=4 note=62 velocity=107 time=0
Time=22320 Track=3 note_on channel=0 note=38 velocity=102 time=5
Time=22320 Track=4 note_on channel=1 note=38 velocity=101 time=5
Time=22320 Track=5 note_on channel=2 note=65 velocity=96 time=5
Time=22320 Track=5 note_on channel=2 note=65 velocity=0 time=0
Time=22320 Track=6 note_on channel=3 note=65 velocity=96 time=5
Time=22320 Track=6 note_on channel=3 note=65 velocity=0 time=0
Time=22320 Track=7 note_on channel=4 note=65 velocity=104 time=5
Time=22320 Track=11 note_on channel=9 note=36 velocity=120 time=15
Time=22320 Track=11 note_on channel=9 note=42 velocity=114 time=0
Time=22325 Track=7 note_on channel=4 note=65 velocity=0 time=5
Time=22325 Track=7 note_on channel=4 note=62 velocity=0 time=0
Time=22325 Track=7 note_on channel=4 note=57 velocity=0 time=0
Time=22350 Track=5 note_on channel=2 note=62 velocity=0 time=5
Time=22350 Track=6 note_on channel=3 note=62 velocity=0 time=30
Time=22360 Track=4 note_on channel=1 note=38 velocity=0 time=40
Time=22365 Track=3 note_on channel=0 note=38 velocity=0 time=45
Time=22365 Track=11 note_on channel=9 note=42 velocity=0 time=45
Time=22375 Track=7 note_on channel=4 note=65 velocity=78 time=50
Time=22375 Track=11 note_on channel=9 note=36 velocity=0 time=10
Time=22375 Track=12 note_on channel=10 note=53 velocity=0 time=115
Time=22376 Track=7 note_on channel=4 note=65 velocity=0 time=1
Time=22380 Track=5 note_on channel=2 note=65 velocity=0 time=30
Time=22380 Track=5 note_on channel=2 note=57 velocity=0 time=0
Time=22380 Track=6 note_on channel=3 note=57 velocity=0 time=30
Time=22380 Track=6 note_on channel=3 note=65 velocity=0 time=0
Time=22380 Track=7 note_on channel=4 note=62 velocity=78 time=4
Time=22380 Track=11 note_on channel=9 note=42 velocity=94 time=5
Time=22380 Track=12 note_on channel=10 note=52 velocity=107 time=5
Time=22381 Track=7 note_on channel=4 note=62 velocity=0 time=1
Time=22405 Track=7 note_on channel=4 note=65 velocity=76 time=24
Time=22406 Track=7 note_on channel=4 note=65 velocity=0 time=1
Time=22410 Track=7 note_on channel=4 note=62 velocity=76 time=4
Time=22411 Track=7 note_on channel=4 note=62 velocity=0 time=1
Time=22425 Track=11 note_on channel=9 note=42 velocity=0 time=45
Time=22430 Track=7 note_on channel=4 note=57 velocity=98 time=19
Time=22435 Track=5 note_on channel=2 note=57 velocity=90 time=55
Time=22435 Track=5 note_on channel=2 note=62 velocity=115 time=0
Time=22435 Track=6 note_on channel=3 note=57 velocity=90 time=55
Time=22435 Track=6 note_on channel=3 note=62 velocity=115 time=0
Time=22435 Track=7 note_on channel=4 note=62 velocity=107 time=5
Time=22435 Track=7 note_on channel=4 note=65 velocity=105 time=0
Time=22440 Track=5 note_on channel=2 note=65 velocity=97 time=5
Time=22440 Track=5 note_on channel=2 note=69 velocity=96 time=0
Time=22440 Track=6 note_on channel=3 note=65 velocity=97 time=5
Time=22440 Track=6 note_on channel=3 note=69 velocity=96 time=0
Time=22440 Track=7 note_on channel=4 note=69 velocity=104 time=5
Time=22440 Track=7 note_on channel=4 note=57 velocity=0 time=0
Time=22440 Track=11 note_on channel=9 note=36 velocity=119 time=15
Time=22440 Track=11 note_on channel=9 note=40 velocity=127 time=0
Time=22440 Track=11 note_on channel=9 note=42 velocity=126 time=0
Time=22445 Track=7 note_on channel=4 note=62 velocity=0 time=5
Time=22445 Track=7 note_on channel=4 note=65 velocity=0 time=0
Time=22445 Track=7 note_on channel=4 note=69 velocity=0 time=0
Time=22470 Track=5 note_on channel=2 note=65 velocity=0 time=0
Time=22470 Track=6 note_on channel=3 note=65 velocity=0 time=30
Time=22470 Track=6 note_on channel=3 note=62 velocity=0 time=0
Time=22475 Track=5 note_on channel=2 note=62 velocity=0 time=5
Time=22480 Track=5 note_on channel=2 note=57 velocity=0 time=5
Time=22480 Track=6 note_on channel=3 note=57 velocity=0 time=10
Time=22480 Track=11 note_on channel=9 note=42 velocity=0 time=40
Time=22495 Track=11 note_on channel=9 note=40 velocity=0 time=15
Time=22495 Track=11 note_on channel=9 note=36 velocity=0 time=0
Time=22500 Track=5 note_on channel=2 note=69 velocity=0 time=20
Time=22500 Track=6 note_on channel=3 note=69 velocity=0 time=20
Time=22500 Track=7 note_on channel=4 note=62 velocity=72 time=55
Time=22500 Track=7 note_on channel=4 note=65 velocity=72 time=0
Time=22500 Track=11 note_on channel=9 note=46 velocity=121 time=5
Time=22501 Track=7 note_on channel=4 note=65 velocity=0 time=1
Time=22501 Track=7 note_on channel=4 note=62 velocity=0 time=0
Time=22530 Track=7 note_on channel=4 note=65 velocity=71 time=29
Time=22530 Track=7 note_on channel=4 note=62 velocity=71 time=0
Time=22531 Track=7 note_on channel=4 note=62 velocity=0 time=1
Time=22531 Track=7 note_on channel=4 note=65 velocity=0 time=0
Time=22545 Track=11 note_on channel=9 note=46 velocity=0 time=45
Time=22550 Track=5 note_on channel=2 note=50 velocity=101 time=50
Time=22550 Track=6 note_on channel=3 note=50 velocity=101 time=50
Time=22555 Track=5 note_on channel=2 note=62 velocity=104 time=5
Time=22555 Track=5 note_on channel=2 note=57 velocity=91 time=0
Time=22555 Track=6 note_on channel=3 note=62 velocity=104 time=5
Time=22555 Track=6 note_on channel=3 note=57 velocity=91 time=0
Time=22555 Track=12 note_on channel=10 note=52 velocity=0 time=175
Time=22560 Track=3 note_on channel=0 note=38 velocity=101 time=195
Time=22560 Track=4 note_on channel=1 note=38 velocity=100 time=200
Time=22560 Track=5 note_on channel=2 note=65 velocity=94 time=5
Time=22560 Track=6 note_on channel=3 note=65 velocity=94 time=5
Time=22560 Track=11 note_on channel=9 note=36 velocity=121 time=15
Time=22560 Track=11 note_on channel=9 note=42 velocity=112 time=0
Time=22560 Track=12 note_on channel=10 note=50 velocity=107 time=5
Time=22565 Track=5 note_on channel=2 note=69 velocity=96 time=5
Time=22565 Track=6 note_on channel=3 note=69 velocity=96 time=5
Time=22595 Track=11 note_on channel=9 note=42 velocity=0 time=35
Time=22615 Track=11 note_on channel=9 note=36 velocity=0 time=20
Time=22620 Track=11 note_on channel=9 note=42 velocity=83 time=5
Time=22640 Track=5 note_on channel=2 note=65 velocity=0 time=0
Time=22640 Track=6 note_on channel=3 note=65 velocity=0 time=75
Time=22645 Track=5 note_on channel=2 note=65 velocity=108 time=0
Time=22645 Track=5 note_on channel=2 note=62 velocity=0 time=0
Time=22645 Track=6 note_on channel=3 note=65 velocity=108 time=5
Time=22645 Track=6 note_on channel=3 note=62 velocity=0 time=0
Time=22645 Track=7 note_on channel=4 note=65 velocity=107 time=114
Time=22650 Track=5 note_on channel=2 note=62 velocity=97 time=5
Time=22650 Track=6 note_on channel=3 note=62 velocity=97 time=5
Time=22650 Track=7 note_on channel=4 note=62 velocity=105 time=5
Time=22650 Track=7 note_on channel=4 note=65 velocity=0 time=0
Time=22655 Track=7 note_on channel=4 note=62 velocity=0 time=5
Time=22665 Track=11 note_on channel=9 note=42 velocity=0 time=45
Time=22670 Track=5 note_on channel=2 note=57 velocity=100 time=0
Time=22670 Track=5 note_on channel=2 note=57 velocity=0 time=0
Time=22670 Track=6 note_on channel=3 note=57 velocity=100 time=20
Time=22670 Track=6 note_on channel=3 note=57 velocity=0 time=0
Time=22670 Track=7 note_on channel=4 note=57 velocity=107 time=15
Time=22675 Track=4 note_on channel=1 note=38 velocity=0 time=115
Time=22675 Track=5 note_on channel=2 note=62 velocity=108 time=5
Time=22675 Track=5 note_on channel=2 note=69 velocity=0 time=0
Time=22675 Track=5 note_on channel=2 note=62 velocity=0 time=0
Time=22675 Track=5 note_on channel=2 note=65 velocity=0 time=0
Time=22675 Track=6 note_on channel=3 note=62 velocity=108 time=5
Time=22675 Track=6 note_on channel=3 note=62 velocity=0 time=0
Time=22675 Track=6 note_on channel=3 note=65 velocity=0 time=0
Time=22675 Track=6 note_on channel=3 note=69 velocity=0 time=0
Time=22675 Track=7 note_on channel=4 note=62 velocity=107 time=5
Time=22680 Track=3 note_on channel=0 note=38 velocity=0 time=120
Time=22680 Track=5 note_on channel=2 note=65 velocity=90 time=5
Time=22680 Track=6 note_on channel=3 note=65 velocity=90 time=5
Time=22680 Track=7 note_on channel=4 note=65 velocity=98 time=5
Time=22680 Track=7 note_on channel=4 note=57 velocity=0 time=0
Time=22680 Track=11 note_on channel=9 note=36 velocity=120 time=15
Time=22680 Track=11 note_on channel=9 note=40 velocity=127 time=0
Time=22680 Track=11 note_on channel=9 note=42 velocity=125 time=0
Time=22680 Track=12 note_on channel=10 note=52 velocity=107 time=120
Time=22680 Track=12 note_on channel=10 note=50 velocity=0 time=0
Time=22685 Track=7 note_on channel=4 note=65 velocity=0 time=5
Time=22685 Track=7 note_on channel=4 note=62 velocity=0 time=0
Time=22690 Track=5 note_on channel=2 note=50 velocity=0 time=10
Time=22690 Track=6 note_on channel=3 note=50 velocity=0 time=10
Time=22705 Track=6 note_on channel=3 note=57 velocity=0 time=15
Time=22710 Track=5 note_on channel=2 note=57 velocity=0 time=20
Time=22725 Track=6 note_on channel=3 note=65 velocity=0 time=20
Time=22730 Track=5 note_on channel=2 note=57 velocity=89 time=20
Time=22730 Track=5 note_on channel=2 note=60 velocity=116 time=0
Time=22730 Track=5 note_on channel=2 note=65 velocity=0 time=0
Time=22730 Track=6 note_on channel=3 note=57 velocity=89 time=5
Time=22730 Track=6 note_on channel=3 note=60 velocity=116 time=0
Time=22730 Track=11 note_on channel=9 note=42 velocity=0 time=50
Time=22735 Track=11 note_on channel=9 note=40 velocity=0 time=5
Time=22735 Track=11 note_on channel=9 note=36 velocity=0 time=0
Time=22735 Track=12 note_on channel=10 note=52 velocity=0 time=55
Time=22740 Track=3 note_on channel=0 note=38 velocity=101 time=60
Time=22740 Track=4 note_on channel=1 note=38 velocity=99 time=65
Time=22740 Track=5 note_on channel=2 note=65 velocity=106 time=5
Time=22740 Track=5 note_on channel=2 note=62 velocity=0 time=0
Time=22740 Track=6 note_on channel=3 note=65 velocity=106 time=10
Time=22740 Track=6 note_on channel=3 note=62 velocity=0 time=0
Time=22740 Track=11 note_on channel=9 note=42 velocity=93 time=5
Time=22740 Track=12 note_on channel=10 note=53 velocity=107 time=5
Time=22785 Track=3 note_on channel=0 note=38 velocity=0 time=45
Time=22785 Track=4 note_on channel=1 note=38 velocity=0 time=45
Time=22785 Track=11 note_on channel=9 note=42 velocity=0 time=45
Time=22795 Track=5 note_on channel=2 note=57 velocity=91 time=5
Time=22795 Track=5 note_on channel=2 note=62 velocity=113 time=0
Time=22795 Track=5 note_on channel=2 note=60 velocity=0 time=0
Time=22795 Track=5 note_on channel=2 note=65 velocity=0 time=0
Time=22795 Track=5 note_on channel=2 note=57 velocity=0 time=0
Time=22795 Track=6 note_on channel=3 note=57 velocity=91 time=55
Time=22795 Track=6 note_on channel=3 note=62 velocity=113 time=0
Time=22795 Track=6 note_on channel=3 note=57 velocity=0 time=0
Time=22795 Track=6 note_on channel=3 note=65 velocity=0 time=0
Time=22795 Track=6 note_on channel=3 note=60 velocity=0 time=0
Time=22795 Track=7 note_on channel=4 note=57 velocity=99 time=110
Time=22795 Track=7 note_on channel=4 note=62 velocity=107 time=0
Time=22800 Track=3 note_on channel=0 note=33 velocity=101 time=15
Time=22800 Track=4 note_on channel=1 note=33 velocity=99 time=15
Time=22800 Track=5 note_on channel=2 note=65 velocity=96 time=5
Time=22800 Track=6 note_on channel=3 note=65 velocity=96 time=5
Time=22800 Track=7 note_on channel=4 note=65 velocity=104 time=5
Time=22800 Track=11 note_on channel=9 note=36 velocity=120 time=15
Time=22800 Track=11 note_on channel=9 note=42 velocity=114 time=0
Time=22805 Track=7 note_on channel=4 note=65 velocity=0 time=5
Time=22805 Track=7 note_on channel=4 note=62 velocity=0 time=0
Time=22805 Track=7 note_on channel=4 note=57 velocity=0 time=0
Time=22830 Track=5 note_on channel=2 note=62 velocity=0 time=5
Time=22830 Track=6 note_on channel=3 note=62 velocity=0 time=30
Time=22845 Track=11 note_on channel=9 note=42 velocity=0 time=45
Time=22855 Track=6 note_on channel=3 note=65 velocity=0 time=25
Time=22855 Track=7 note_on channel=4 note=65 velocity=78 time=50
Time=22855 Track=11 note_on channel=9 note=36 velocity=0 time=10
Time=22856 Track=7 note_on channel=4 note=65 velocity=0 time=1
Time=22860 Track=5 note_on channel=2 note=65 velocity=0 time=30
Time=22860 Track=5 note_on channel=2 note=57 velocity=0 time=0
Time=22860 Track=6 note_on channel=3 note=57 velocity=0 time=5
Time=22860 Track=7 note_on channel=4 note=62 velocity=78 time=4
Time=22860 Track=11 note_on channel=9 note=42 velocity=94 time=5
Time=22861 Track=7 note_on channel=4 note=62 velocity=0 time=1
Time=22885 Track=7 note_on channel=4 note=65 velocity=76 time=24
Time=22886 Track=7 note_on channel=4 note=65 velocity=0 time=1
Time=22890 Track=7 note_on channel=4 note=62 velocity=76 time=4
Time=22891 Track=7 note_on channel=4 note=62 velocity=0 time=1
Time=22905 Track=11 note_on channel=9 note=42 velocity=0 time=45
Time=22910 Track=5 note_on channel=2 note=57 velocity=90 time=50
Time=22910 Track=6 note_on channel=3 note=57 velocity=90 time=50
Time=22910 Track=7 note_on channel=4 note=57 velocity=98 time=19
Time=22915 Track=4 note_on channel=1 note=33 velocity=0 time=115
Time=22915 Track=5 note_on channel=2 note=62 velocity=115 time=0
Time=22915 Track=5 note_on channel=2 note=65 velocity=97 time=0
Time=22915 Track=6 note_on channel=3 note=62 velocity=115 time=5
Time=22915 Track=6 note_on channel=3 note=65 velocity=97 time=0
Time=22915 Track=7 note_on channel=4 note=62 velocity=107 time=5
Time=22915 Track=7 note_on channel=4 note=65 velocity=105 time=0
Time=22920 Track=3 note_on channel=0 note=36 velocity=100 time=120
Time=22920 Track=3 note_on channel=0 note=33 velocity=0 time=0
Time=22920 Track=4 note_on channel=1 note=36 velocity=99 time=5
Time=22920 Track=5 note_on channel=2 note=69 velocity=96 time=5
Time=22920 Track=6 note_on channel=3 note=69 velocity=96 time=5
Time=22920 Track=7 note_on channel=4 note=69 velocity=104 time=5
Time=22920 Track=7 note_on channel=4 note=57 velocity=0 time=0
Time=22920 Track=11 note_on channel=9 note=36 velocity=119 time=15
Time=22920 Track=11 note_on channel=9 note=40 velocity=127 time=0
Time=22920 Track=11 note_on channel=9 note=42 velocity=126 time=0
Time=22925 Track=7 note_on channel=4 note=62 velocity=0 time=5
Time=22925 Track=7 note_on channel=4 note=65 velocity=0 time=0
Time=22925 Track=7 note_on channel=4 note=69 velocity=0 time=0
Time=22945 Track=5 note_on channel=2 note=65 velocity=0 time=25
Time=22945 Track=6 note_on channel=3 note=65 velocity=0 time=25
Time=22950 Track=5 note_on channel=2 note=62 velocity=0 time=0
Time=22950 Track=6 note_on channel=3 note=62 velocity=0 time=5
Time=22960 Track=5 note_on channel=2 note=57 velocity=0 time=10
Time=22960 Track=6 note_on channel=3 note=57 velocity=0 time=10
Time=22960 Track=11 note_on channel=9 note=42 velocity=0 time=40
Time=22975 Track=6 note_on channel=3 note=69 velocity=0 time=15
Time=22975 Track=11 note_on channel=9 note=40 velocity=0 time=15
Time=22975 Track=11 note_on channel=9 note=36 velocity=0 time=0
Time=22980 Track=5 note_on channel=2 note=69 velocity=0 time=20
Time=22980 Track=7 note_on channel=4 note=62 velocity=72 time=55
Time=22980 Track=7 note_on channel=4 note=65 velocity=72 time=0
Time=22980 Track=11 note_on channel=9 note=46 velocity=121 time=5
Time=22981 Track=7 note_on channel=4 note=65 velocity=0 time=1
Time=22981 Track=7 note_on channel=4 note=62 velocity=0 time=0
Time=23010 Track=7 note_on channel=4 note=65 velocity=71 time=29
Time=23010 Track=7 note_on channel=4 note=62 velocity=71 time=0
Time=23011 Track=7 note_on channel=4 note=62 velocity=0 time=1
Time=23011 Track=7 note_on channel=4 note=65 velocity=0 time=0
Time=23025 Track=11 note_on channel=9 note=46 velocity=0 time=45
Time=23030 Track=5 note_on channel=2 note=50 velocity=101 time=50
Time=23030 Track=6 note_on channel=3 note=50 velocity=101 time=55
Time=23035 Track=3 note_on channel=0 note=36 velocity=0 time=115
Time=23035 Track=4 note_on channel=1 note=36 velocity=0 time=115
Time=23035 Track=5 note_on channel=2 note=62 velocity=104 time=5
Time=23035 Track=5 note_on channel=2 note=57 velocity=91 time=0
Time=23035 Track=5 note_on channel=2 note=50 velocity=0 time=0
Time=23035 Track=6 note_on channel=3 note=62 velocity=104 time=5
Time=23035 Track=6 note_on channel=3 note=57 velocity=91 time=0
Time=23035 Track=6 note_on channel=3 note=50 velocity=0 time=0
Time=23035 Track=12 note_on channel=10 note=53 velocity=0 time=295
Time=23036 Track=5 note_on channel=2 note=57 velocity=0 time=1
Time=23036 Track=5 note_on channel=2 note=62 velocity=0 time=0
Time=23036 Track=6 note_on channel=3 note=57 velocity=0 time=1
Time=23036 Track=6 note_on channel=3 note=62 velocity=0 time=0
Time=23040 Track=3 note_on channel=0 note=31 velocity=103 time=5
Time=23040 Track=4 note_on channel=1 note=31 velocity=101 time=5
Time=23040 Track=5 note_on channel=2 note=71 velocity=104 time=4
Time=23040 Track=5 note_on channel=2 note=67 velocity=104 time=0
Time=23040 Track=5 note_on channel=2 note=62 velocity=104 time=0
Time=23040 Track=10 note_on channel=8 note=55 velocity=100 time=7685
Time=23040 Track=10 note_on channel=8 note=43 velocity=100 time=0
Time=23040 Track=11 note_on channel=9 note=36 velocity=121 time=15
Time=23040 Track=11 note_on channel=9 note=42 velocity=112 time=0
Time=23040 Track=11 note_on channel=9 note=49 velocity=92 time=0
Time=23040 Track=12 note_on channel=10 note=55 velocity=107 time=5
Time=23040 Track=13 note_on channel=12 note=59 velocity=127 time=7620
Time=23040 Track=13 note_on channel=12 note=62 velocity=127 time=0
Time=23040 Track=13 note_on channel=12 note=67 velocity=127 time=0
Time=23060 Track=13 note_on channel=12 note=67 velocity=0 time=20
Time=23065 Track=5 note_on channel=2 note=71 velocity=0 time=0
Time=23065 Track=13 note_on channel=12 note=67 velocity=127 time=0
Time=23065 Track=13 note_on channel=12 note=62 velocity=0 time=0
Time=23070 Track=5 note_on channel=2 note=71 velocity=104 time=5
Time=23070 Track=13 note_on channel=12 note=62 velocity=127 time=5
Time=23075 Track=11 note_on channel=9 note=42 velocity=0 time=35
Time=23085 Track=5 note_on channel=2 note=67 velocity=0 time=15
Time=23090 Track=5 note_on channel=2 note=62 velocity=0 time=5
Time=23095 Track=11 note_on channel=9 note=49 velocity=0 time=20
Time=23095 Track=11 note_on channel=9 note=36 velocity=0 time=0
Time=23095 Track=13 note_on channel=12 note=62 velocity=0 time=0
Time=23095 Track=13 note_on channel=12 note=59 velocity=0 time=0
Time=23100 Track=5 note_on channel=2 note=71 velocity=104 time=5
Time=23100 Track=5 note_on channel=2 note=67 velocity=104 time=0
Time=23100 Track=5 note_on channel=2 note=62 velocity=104 time=0
Time=23100 Track=5 note_on channel=2 note=71 velocity=0 time=0
Time=23100 Track=11 note_on channel=9 note=42 velocity=83 time=5
Time=23100 Track=13 note_on channel=12 note=59 velocity=127 time=5
Time=23100 Track=13 note_on channel=12 note=62 velocity=127 time=0
Time=23125 Track=5 note_on channel=2 note=71 velocity=0 time=0
Time=23125 Track=13 note_on channel=12 note=67 velocity=127 time=0
Time=23125 Track=13 note_on channel=12 note=62 velocity=0 time=0
Time=23125 Track=13 note_on channel=12 note=67 velocity=0 time=0
Time=23130 Track=5 note_on channel=2 note=71 velocity=104 time=5
Time=23130 Track=13 note_on channel=12 note=62 velocity=127 time=5
Time=23145 Track=11 note_on channel=9 note=42 velocity=0 time=45
Time=23150 Track=5 note_on channel=2 note=67 velocity=0 time=20
Time=23155 Track=5 note_on channel=2 note=71 velocity=0 time=0
Time=23155 Track=5 note_on channel=2 note=62 velocity=0 time=0
Time=23155 Track=13 note_on channel=12 note=59 velocity=127 time=0
Time=23155 Track=13 note_on channel=12 note=59 velocity=0 time=0
Time=23160 Track=5 note_on channel=2 note=71 velocity=104 time=5
Time=23160 Track=5 note_on channel=2 note=67 velocity=104 time=0
Time=23160 Track=5 note_on channel=2 note=62 velocity=104 time=0
Time=23160 Track=11 note_on channel=9 note=36 velocity=120 time=15
Time=23160 Track=11 note_on channel=9 note=40 velocity=127 time=0
Time=23160 Track=11 note_on channel=9 note=42 velocity=125 time=0
Time=23160 Track=13 note_on channel=12 note=62 velocity=127 time=5
Time=23160 Track=13 note_on channel=12 note=67 velocity=127 time=0
Time=23160 Track=13 note_on channel=12 note=67 velocity=0 time=0
Time=23160 Track=13 note_on channel=12 note=62 velocity=0 time=0
Time=23185 Track=5 note_on channel=2 note=71 velocity=0 time=5
Time=23190 Track=5 note_on channel=2 note=71 velocity=103 time=5
Time=23205 Track=13 note_on channel=12 note=59 velocity=0 time=45
Time=23205 Track=13 note_on channel=12 note=62 velocity=0 time=0
Time=23210 Track=11 note_on channel=9 note=42 velocity=0 time=50
Time=23215 Track=5 note_on channel=2 note=71 velocity=0 time=0
Time=23215 Track=5 note_on channel=2 note=67 velocity=0 time=0
Time=23215 Track=11 note_on channel=9 note=40 velocity=0 time=5
Time=23215 Track=11 note_on channel=9 note=36 velocity=0 time=0
Time=23215 Track=13 note_on channel=12 note=67 velocity=0 time=10
Time=23220 Track=5 note_on channel=2 note=71 velocity=103 time=5
Time=23220 Track=5 note_on channel=2 note=67 velocity=103 time=0
Time=23220 Track=11 note_on channel=9 note=42 velocity=93 time=5
Time=23220 Track=13 note_on channel=12 note=62 velocity=82 time=0
Time=23221 Track=13 note_on channel=12 note=62 velocity=0 time=1
Time=23225 Track=13 note_on channel=12 note=67 velocity=68 time=0
Time=23226 Track=13 note_on channel=12 note=67 velocity=0 time=1
Time=23245 Track=5 note_on channel=2 note=71 velocity=0 time=0
Time=23245 Track=13 note_on channel=12 note=67 velocity=82 time=0
Time=23246 Track=13 note_on channel=12 note=67 velocity=0 time=1
Time=23250 Track=5 note_on channel=2 note=71 velocity=103 time=5
Time=23250 Track=13 note_on channel=12 note=62 velocity=80 time=0
Time=23251 Track=13 note_on channel=12 note=62 velocity=0 time=1
Time=23265 Track=11 note_on channel=9 note=42 velocity=0 time=45
Time=23275 Track=5 note_on channel=2 note=71 velocity=0 time=0
Time=23275 Track=5 note_on channel=2 note=67 velocity=0 time=0
Time=23275 Track=5 note_on channel=2 note=62 velocity=0 time=0
Time=23275 Track=13 note_on channel=12 note=59 velocity=127 time=0
Time=23280 Track=5 note_on channel=2 note=71 velocity=103 time=5
Time=23280 Track=5 note_on channel=2 note=67 velocity=103 time=0
Time=23280 Track=5 note_on channel=2 note=62 velocity=103 time=0
Time=23280 Track=11 note_on channel=9 note=36 velocity=120 time=15
Time=23280 Track=11 note_on channel=9 note=42 velocity=114 time=0
Time=23280 Track=13 note_on channel=12 note=62 velocity=127 time=5
Time=23280 Track=13 note_on channel=12 note=67 velocity=127 time=0
Time=23305 Track=5 note_on channel=2 note=67 velocity=0 time=0
Time=23310 Track=5 note_on channel=2 note=67 velocity=103 time=5
Time=23310 Track=5 note_on channel=2 note=71 velocity=103 time=0
Time=23310 Track=5 note_on channel=2 note=71 velocity=0 time=0
Time=23315 Track=13 note_on channel=12 note=67 velocity=0 time=35
Time=23320 Track=13 note_on channel=12 note=62 velocity=0 time=5
Time=23320 Track=13 note_on channel=12 note=59 velocity=0 time=0
Time=23325 Track=11 note_on channel=9 note=42 velocity=0 time=45
Time=23335 Track=5 note_on channel=2 note=67 velocity=0 time=0
Time=23335 Track=5 note_on channel=2 note=62 velocity=0 time=0
Time=23335 Track=11 note_on channel=9 note=36 velocity=0 time=10
Time=23340 Track=5 note_on channel=2 note=71 velocity=102 time=5
Time=23340 Track=5 note_on channel=2 note=67 velocity=103 time=0
Time=23340 Track=5 note_on channel=2 note=62 velocity=103 time=0
Time=23340 Track=5 note_on channel=2 note=71 velocity=0 time=0
Time=23340 Track=11 note_on channel=9 note=42 velocity=94 time=5
Time=23340 Track=13 note_on channel=12 note=58 velocity=54 time=0
Time=23340 Track=13 note_on channel=12 note=62 velocity=76 time=0
Time=23341 Track=13 note_on channel=12 note=58 velocity=0 time=1
Time=23345 Track=13 note_on channel=12 note=67 velocity=78 time=0
Time=23345 Track=13 note_on channel=12 note=62 velocity=0 time=0
Time=23350 Track=13 note_on channel=12 note=67 velocity=0 time=5
Time=23365 Track=5 note_on channel=2 note=67 velocity=0 time=0
Time=23370 Track=5 note_on channel=2 note=67 velocity=102 time=5
Time=23370 Track=5 note_on channel=2 note=71 velocity=102 time=0
Time=23370 Track=5 note_on channel=2 note=71 velocity=0 time=0
Time=23370 Track=13 note_on channel=12 note=67 velocity=54 time=0
Time=23371 Track=13 note_on channel=12 note=67 velocity=0 time=1
Time=23385 Track=11 note_on channel=9 note=42 velocity=0 time=45
Time=23395 Track=5 note_on channel=2 note=67 velocity=0 time=0
Time=23395 Track=5 note_on channel=2 note=62 velocity=0 time=0
Time=23395 Track=5 note_on channel=2 note=71 velocity=0 time=0
Time=23400 Track=5 note_on channel=2 note=71 velocity=102 time=5
Time=23400 Track=5 note_on channel=2 note=67 velocity=102 time=0
Time=23400 Track=5 note_on channel=2 note=62 velocity=102 time=0
Time=23400 Track=11 note_on channel=9 note=36 velocity=119 time=15
Time=23400 Track=11 note_on channel=9 note=40 velocity=127 time=0
Time=23400 Track=11 note_on channel=9 note=42 velocity=126 time=0
Time=23400 Track=13 note_on channel=12 note=59 velocity=127 time=29
Time=23400 Track=13 note_on channel=12 note=62 velocity=127 time=0
Time=23400 Track=13 note_on channel=12 note=67 velocity=95 time=0
Time=23425 Track=5 note_on channel=2 note=71 velocity=0 time=0
Time=23430 Track=5 note_on channel=2 note=71 velocity=102 time=5
Time=23430 Track=13 note_on channel=12 note=62 velocity=0 time=30
Time=23430 Track=13 note_on channel=12 note=59 velocity=0 time=0
Time=23435 Track=13 note_on channel=12 note=67 velocity=0 time=5
Time=23440 Track=11 note_on channel=9 note=42 velocity=0 time=40
Time=23450 Track=5 note_on channel=2 note=67 velocity=0 time=0
Time=23455 Track=5 note_on channel=2 note=62 velocity=0 time=0
Time=23455 Track=5 note_on channel=2 note=71 velocity=0 time=0
Time=23455 Track=11 note_on channel=9 note=40 velocity=0 time=15
Time=23455 Track=11 note_on channel=9 note=36 velocity=0 time=0
Time=23460 Track=5 note_on channel=2 note=71 velocity=102 time=5
Time=23460 Track=5 note_on channel=2 note=67 velocity=102 time=0
Time=23460 Track=5 note_on channel=2 note=62 velocity=102 time=0
Time=23460 Track=11 note_on channel=9 note=46 velocity=121 time=5
Time=23460 Track=13 note_on channel=12 note=59 velocity=127 time=25
Time=23460 Track=13 note_on channel=12 note=62 velocity=127 time=0
Time=23460 Track=13 note_on channel=12 note=67 velocity=127 time=0
Time=23480 Track=13 note_on channel=12 note=67 velocity=0 time=15
Time=23485 Track=5 note_on channel=2 note=71 velocity=0 time=0
Time=23485 Track=13 note_on channel=12 note=67 velocity=127 time=5
Time=23485 Track=13 note_on channel=12 note=62 velocity=127 time=0
Time=23485 Track=13 note_on channel=12 note=62 velocity=0 time=0
Time=23490 Track=5 note_on channel=2 note=71 velocity=102 time=5
Time=23505 Track=11 note_on channel=9 note=46 velocity=0 time=45
Time=23510 Track=13 note_on channel=12 note=59 velocity=0 time=25
Time=23515 Track=3 note_on channel=0 note=31 velocity=0 time=475
Time=23515 Track=4 note_on channel=1 note=31 velocity=0 time=475
Time=23515 Track=5 note_on channel=2 note=71 velocity=0 time=0
Time=23515 Track=5 note_on channel=2 note=62 velocity=0 time=0
Time=23515 Track=5 note_on channel=2 note=67 velocity=0 time=0
Time=23515 Track=13 note_on channel=12 note=59 velocity=127 time=5
Time=23515 Track=13 note_on channel=12 note=62 velocity=127 time=0
Time=23515 Track=13 note_on channel=12 note=62 velocity=0 time=0
Time=23520 Track=3 note_on channel=0 note=31 velocity=103 time=5
Time=23520 Track=4 note_on channel=1 note=31 velocity=101 time=5
Time=23520 Track=5 note_on channel=2 note=71 velocity=104 time=5
Time=23520 Track=5 note_on channel=2 note=67 velocity=104 time=0
Time=23520 Track=5 note_on channel=2 note=62 velocity=104 time=0
Time=23520 Track=11 note_on channel=9 note=36 velocity=121 time=15
Time=23520 Track=11 note_on channel=9 note=42 velocity=112 time=0
Time=23535 Track=13 note_on channel=12 note=67 velocity=0 time=20
Time=23540 Track=13 note_on channel=12 note=67 velocity=127 time=0
Time=23545 Track=5 note_on channel=2 note=71 velocity=0 time=0
Time=23545 Track=13 note_on channel=12 note=62 velocity=127 time=5
Time=23545 Track=13 note_on channel=12 note=62 velocity=0 time=0
Time=23550 Track=5 note_on channel=2 note=71 velocity=104 time=5
Time=23555 Track=11 note_on channel=9 note=42 velocity=0 time=35
Time=23565 Track=5 note_on channel=2 note=67 velocity=0 time=15
Time=23570 Track=5 note_on channel=2 note=62 velocity=0 time=5
Time=23570 Track=13 note_on channel=12 note=62 velocity=0 time=0
Time=23575 Track=5 note_on channel=2 note=71 velocity=0 time=0
Time=23575 Track=11 note_on channel=9 note=36 velocity=0 time=20
Time=23575 Track=13 note_on channel=12 note=59 velocity=127 time=5
Time=23575 Track=13 note_on channel=12 note=62 velocity=127 time=0
Time=23575 Track=13 note_on channel=12 note=59 velocity=0 time=0
Time=23580 Track=5 note_on channel=2 note=71 velocity=104 time=5
Time=23580 Track=5 note_on channel=2 note=67 velocity=104 time=0
Time=23580 Track=5 note_on channel=2 note=62 velocity=104 time=0
Time=23580 Track=11 note_on channel=9 note=42 velocity=83 time=5
Time=23600 Track=13 note_on channel=12 note=67 velocity=127 time=0
Time=23600 Track=13 note_on channel=12 note=67 velocity=0 time=0
Time=23605 Track=5 note_on channel=2 note=71 velocity=0 time=0
Time=23605 Track=13 note_on channel=12 note=62 velocity=127 time=5
Time=23605 Track=13 note_on channel=12 note=62 velocity=0 time=0
Time=23610 Track=5 note_on channel=2 note=71 velocity=104 time=5
Time=23625 Track=11 note_on channel=9 note=42 velocity=0 time=45
Time=23630 Track=5 note_on channel=2 note=67 velocity=0 time=20
Time=23630 Track=13 note_on channel=12 note=59 velocity=0 time=0
Time=23635 Track=5 note_on channel=2 note=62 velocity=0 time=0
Time=23635 Track=5 note_on channel=2 note=71 velocity=0 time=0
Time=23635 Track=13 note_on channel=12 note=59 velocity=127 time=0
Time=23635 Track=13 note_on channel=12 note=62 velocity=127 time=0
Time=23635 Track=13 note_on channel=12 note=67 velocity=127 time=0
Time=23635 Track=13 note_on channel=12 note=67 velocity=0 time=0
Time=23635 Track=13 note_on channel=12 note=62 velocity=0 time=0
Time=23640 Track=5 note_on channel=2 note=71 velocity=104 time=5
Time=23640 Track=5 note_on channel=2 note=67 velocity=104 time=0
Time=23640 Track=5 note_on channel=2 note=62 velocity=104 time=0
Time=23640 Track=11 note_on channel=9 note=36 velocity=120 time=15
Time=23640 Track=11 note_on channel=9 note=40 velocity=127 time=0
Time=23640 Track=11 note_on channel=9 note=42 velocity=125 time=0
Time=23665 Track=5 note_on channel=2 note=71 velocity=0 time=5
Time=23670 Track=5 note_on channel=2 note=71 velocity=103 time=5
Time=23680 Track=13 note_on channel=12 note=62 velocity=0 time=45
Time=23680 Track=13 note_on channel=12 note=59 velocity=0 time=0
Time=23690 Track=11 note_on channel=9 note=42 velocity=0 time=50
Time=23690 Track=13 note_on channel=12 note=67 velocity=0 time=10
Time=23695 Track=5 note_on channel=2 note=71 velocity=0 time=0
Time=23695 Track=5 note_on channel=2 note=67 velocity=0 time=0
Time=23695 Track=11 note_on channel=9 note=40 velocity=0 time=5
Time=23695 Track=11 note_on channel=9 note=36 velocity=0 time=0
Time=23700 Track=5 note_on channel=2 note=71 velocity=103 time=5
Time=23700 Track=5 note_on channel=2 note=67 velocity=103 time=0
Time=23700 Track=11 note_on channel=9 note=42 velocity=93 time=5
Time=23700 Track=13 note_on channel=12 note=63 velocity=106 time=10
Time=23700 Track=13 note_on channel=12 note=67 velocity=42 time=0
Time=23701 Track=13 note_on channel=12 note=63 velocity=0 time=1
Time=23705 Track=13 note_on channel=12 note=67 velocity=0 time=4
Time=23720 Track=13 note_on channel=12 note=67 velocity=80 time=0
Time=23725 Track=5 note_on channel=2 note=71 velocity=0 time=0
Time=23725 Track=13 note_on channel=12 note=63 velocity=34 time=0
Time=23725 Track=13 note_on channel=12 note=67 velocity=0 time=0
Time=23726 Track=13 note_on channel=12 note=63 velocity=0 time=1
Time=23730 Track=5 note_on channel=2 note=71 velocity=103 time=5
Time=23745 Track=11 note_on channel=9 note=42 velocity=0 time=45
Time=23755 Track=5 note_on channel=2 note=71 velocity=0 time=0
Time=23755 Track=5 note_on channel=2 note=67 velocity=0 time=0
Time=23755 Track=5 note_on channel=2 note=62 velocity=0 time=0
Time=23755 Track=13 note_on channel=12 note=67 velocity=127 time=0
Time=23755 Track=13 note_on channel=12 note=62 velocity=127 time=0
Time=23755 Track=13 note_on channel=12 note=59 velocity=127 time=0
Time=23760 Track=5 note_on channel=2 note=71 velocity=103 time=5
Time=23760 Track=5 note_on channel=2 note=67 velocity=103 time=0
Time=23760 Track=5 note_on channel=2 note=62 velocity=103 time=0
Time=23760 Track=11 note_on channel=9 note=36 velocity=120 time=15
Time=23760 Track=11 note_on channel=9 note=42 velocity=114 time=0
Time=23785 Track=5 note_on channel=2 note=67 velocity=0 time=0
Time=23790 Track=5 note_on channel=2 note=67 velocity=103 time=5
Time=23790 Track=5 note_on channel=2 note=71 velocity=103 time=0
Time=23790 Track=5 note_on channel=2 note=71 velocity=0 time=0
Time=23800 Track=13 note_on channel=12 note=59 velocity=0 time=45
Time=23800 Track=13 note_on channel=12 note=62 velocity=0 time=0
Time=23800 Track=13 note_on channel=12 note=67 velocity=0 time=0
Time=23805 Track=11 note_on channel=9 note=42 velocity=0 time=45
Time=23815 Track=5 note_on channel=2 note=67 velocity=0 time=0
Time=23815 Track=5 note_on channel=2 note=62 velocity=0 time=0
Time=23815 Track=5 note_on channel=2 note=71 velocity=0 time=0
Time=23815 Track=11 note_on channel=9 note=36 velocity=0 time=10
Time=23815 Track=13 note_on channel=12 note=59 velocity=51 time=0
Time=23820 Track=5 note_on channel=2 note=71 velocity=102 time=5
Time=23820 Track=5 note_on channel=2 note=67 velocity=103 time=0
Time=23820 Track=5 note_on channel=2 note=62 velocity=103 time=0
Time=23820 Track=11 note_on channel=9 note=42 velocity=94 time=5
Time=23820 Track=13 note_on channel=12 note=63 velocity=76 time=0
Time=23820 Track=13 note_on channel=12 note=67 velocity=29 time=0
Time=23820 Track=13 note_on channel=12 note=59 velocity=0 time=0
Time=23821 Track=13 note_on channel=12 note=63 velocity=0 time=1
Time=23825 Track=13 note_on channel=12 note=67 velocity=0 time=4
Time=23845 Track=5 note_on channel=2 note=67 velocity=0 time=0
Time=23845 Track=5 note_on channel=2 note=71 velocity=0 time=0
Time=23845 Track=13 note_on channel=12 note=67 velocity=73 time=0
Time=23850 Track=5 note_on channel=2 note=67 velocity=102 time=5
Time=23850 Track=5 note_on channel=2 note=71 velocity=102 time=0
Time=23850 Track=13 note_on channel=12 note=67 velocity=0 time=5
Time=23865 Track=11 note_on channel=9 note=42 velocity=0 time=45
Time=23875 Track=5 note_on channel=2 note=71 velocity=0 time=0
Time=23875 Track=5 note_on channel=2 note=67 velocity=0 time=0
Time=23875 Track=5 note_on channel=2 note=62 velocity=0 time=0
Time=23880 Track=5 note_on channel=2 note=71 velocity=102 time=5
Time=23880 Track=5 note_on channel=2 note=67 velocity=102 time=0
Time=23880 Track=5 note_on channel=2 note=62 velocity=102 time=0
Time=23880 Track=11 note_on channel=9 note=36 velocity=119 time=15
Time=23880 Track=11 note_on channel=9 note=40 velocity=127 time=0
Time=23880 Track=11 note_on channel=9 note=42 velocity=126 time=0
Time=23880 Track=13 note_on channel=12 note=59 velocity=127 time=30
Time=23880 Track=13 note_on channel=12 note=62 velocity=127 time=0
Time=23880 Track=13 note_on channel=12 note=67 velocity=95 time=0
Time=23905 Track=5 note_on channel=2 note=71 velocity=0 time=0
Time=23910 Track=5 note_on channel=2 note=71 velocity=102 time=5
Time=23910 Track=13 note_on channel=12 note=62 velocity=0 time=30
Time=23910 Track=13 note_on channel=12 note=59 velocity=0 time=0
Time=23915 Track=13 note_on channel=12 note=67 velocity=0 time=5
Time=23920 Track=11 note_on channel=9 note=42 velocity=0 time=40
Time=23930 Track=5 note_on channel=2 note=67 velocity=0 time=0
Time=23935 Track=5 note_on channel=2 note=62 velocity=0 time=0
Time=23935 Track=11 note_on channel=9 note=40 velocity=0 time=15
Time=23935 Track=11 note_on channel=9 note=36 velocity=0 time=0
Time=23940 Track=5 note_on channel=2 note=71 velocity=102 time=5
Time=23940 Track=5 note_on channel=2 note=67 velocity=102 time=0
Time=23940 Track=5 note_on channel=2 note=62 velocity=102 time=0
Time=23940 Track=5 note_on channel=2 note=71 velocity=0 time=0
Time=23940 Track=11 note_on channel=9 note=46 velocity=121 time=5
Time=23940 Track=13 note_on channel=12 note=59 velocity=127 time=25
Time=23940 Track=13 note_on channel=12 note=62 velocity=127 time=0
Time=23940 Track=13 note_on channel=12 note=67 velocity=127 time=0
Time=23960 Track=13 note_on channel=12 note=67 velocity=0 time=20
Time=23965 Track=5 note_on channel=2 note=71 velocity=0 time=0
Time=23965 Track=13 note_on channel=12 note=67 velocity=127 time=0
Time=23965 Track=13 note_on channel=12 note=62 velocity=127 time=0
Time=23965 Track=13 note_on channel=12 note=62 velocity=0 time=0
Time=23970 Track=5 note_on channel=2 note=71 velocity=102 time=5
Time=23985 Track=11 note_on channel=9 note=46 velocity=0 time=45
Time=23990 Track=13 note_on channel=12 note=59 velocity=0 time=25
Time=23995 Track=3 note_on channel=0 note=31 velocity=0 time=475
Time=23995 Track=4 note_on channel=1 note=31 velocity=0 time=475
Time=23995 Track=5 note_on channel=2 note=71 velocity=0 time=0
Time=23995 Track=5 note_on channel=2 note=62 velocity=0 time=0
Time=23995 Track=5 note_on channel=2 note=67 velocity=0 time=0
Time=23995 Track=13 note_on channel=12 note=59 velocity=127 time=0
Time=23995 Track=13 note_on channel=12 note=62 velocity=127 time=0
Time=23995 Track=13 note_on channel=12 note=62 velocity=0 time=0
Time=24000 Track=3 note_on channel=0 note=31 velocity=102 time=5
Time=24000 Track=4 note_on channel=1 note=31 velocity=100 time=5
Time=24000 Track=5 note_on channel=2 note=71 velocity=104 time=5
Time=24000 Track=5 note_on channel=2 note=67 velocity=104 time=0
Time=24000 Track=5 note_on channel=2 note=62 velocity=104 time=0
Time=24000 Track=11 note_on channel=9 note=36 velocity=121 time=15
Time=24000 Track=11 note_on channel=9 note=42 velocity=112 time=0
Time=24015 Track=13 note_on channel=12 note=67 velocity=0 time=20
Time=24020 Track=13 note_on channel=12 note=67 velocity=127 time=5
Time=24025 Track=5 note_on channel=2 note=71 velocity=0 time=0
Time=24025 Track=13 note_on channel=12 note=62 velocity=127 time=0
Time=24025 Track=13 note_on channel=12 note=62 velocity=0 time=0
Time=24030 Track=5 note_on channel=2 note=71 velocity=104 time=5
Time=24035 Track=11 note_on channel=9 note=42 velocity=0 time=35
Time=24045 Track=5 note_on channel=2 note=67 velocity=0 time=15
Time=24050 Track=5 note_on channel=2 note=62 velocity=0 time=5
Time=24050 Track=13 note_on channel=12 note=62 velocity=0 time=25
Time=24055 Track=5 note_on channel=2 note=71 velocity=0 time=0
Time=24055 Track=11 note_on channel=9 note=36 velocity=0 time=20
Time=24055 Track=13 note_on channel=12 note=59 velocity=127 time=5
Time=24055 Track=13 note_on channel=12 note=62 velocity=127 time=0
Time=24055 Track=13 note_on channel=12 note=59 velocity=0 time=0
Time=24060 Track=5 note_on channel=2 note=71 velocity=104 time=5
Time=24060 Track=5 note_on channel=2 note=67 velocity=104 time=0
Time=24060 Track=5 note_on channel=2 note=62 velocity=104 time=0
Time=24060 Track=11 note_on channel=9 note=42 velocity=83 time=5
Time=24080 Track=13 note_on channel=12 note=67 velocity=127 time=0
Time=24080 Track=13 note_on channel=12 note=67 velocity=0 time=0
Time=24085 Track=5 note_on channel=2 note=71 velocity=0 time=0
Time=24085 Track=13 note_on channel=12 note=62 velocity=127 time=0
Time=24085 Track=13 note_on channel=12 note=62 velocity=0 time=0
Time=24090 Track=5 note_on channel=2 note=71 velocity=104 time=5
Time=24105 Track=11 note_on channel=9 note=42 velocity=0 time=45
Time=24110 Track=5 note_on channel=2 note=67 velocity=0 time=20
Time=24110 Track=13 note_on channel=12 note=59 velocity=0 time=25
Time=24115 Track=5 note_on channel=2 note=62 velocity=0 time=0
Time=24115 Track=5 note_on channel=2 note=71 velocity=0 time=0
Time=24115 Track=13 note_on channel=12 note=59 velocity=127 time=0
Time=24115 Track=13 note_on channel=12 note=62 velocity=127 time=0
Time=24115 Track=13 note_on channel=12 note=67 velocity=127 time=0
Time=24115 Track=13 note_on channel=12 note=67 velocity=0 time=0
Time=24115 Track=13 note_on channel=12 note=62 velocity=0 time=0
Time=24120 Track=5 note_on channel=2 note=71 velocity=104 time=5
Time=24120 Track=5 note_on channel=2 note=67 velocity=104 time=0
Time=24120 Track=5 note_on channel=2 note=62 velocity=104 time=0
Time=24120 Track=11 note_on channel=9 note=36 velocity=120 time=15
Time=24120 Track=11 note_on channel=9 note=40 velocity=127 time=0
Time=24120 Track=11 note_on channel=9 note=42 velocity=125 time=0
Time=24145 Track=5 note_on channel=2 note=71 velocity=0 time=5
Time=24150 Track=5 note_on channel=2 note=71 velocity=103 time=5
Time=24160 Track=13 note_on channel=12 note=62 velocity=0 time=45
Time=24160 Track=13 note_on channel=12 note=59 velocity=0 time=0
Time=24170 Track=11 note_on channel=9 note=42 velocity=0 time=50
Time=24170 Track=13 note_on channel=12 note=67 velocity=0 time=10
Time=24175 Track=5 note_on channel=2 note=71 velocity=0 time=0
Time=24175 Track=5 note_on channel=2 note=67 velocity=0 time=0
Time=24175 Track=11 note_on channel=9 note=40 velocity=0 time=5
Time=24175 Track=11 note_on channel=9 note=36 velocity=0 time=0
Time=24180 Track=5 note_on channel=2 note=71 velocity=103 time=5
Time=24180 Track=5 note_on channel=2 note=67 velocity=103 time=0
Time=24180 Track=11 note_on channel=9 note=42 velocity=93 time=5
Time=24180 Track=13 note_on channel=12 note=63 velocity=116 time=0
Time=24181 Track=13 note_on channel=12 note=63 velocity=0 time=1
Time=24205 Track=5 note_on channel=2 note=71 velocity=0 time=0
Time=24205 Track=13 note_on channel=12 note=67 velocity=121 time=24
Time=24210 Track=5 note_on channel=2 note=71 velocity=103 time=5
Time=24210 Track=13 note_on channel=12 note=67 velocity=0 time=5
Time=24225 Track=11 note_on channel=9 note=42 velocity=0 time=45
Time=24235 Track=4 note_on channel=1 note=31 velocity=0 time=235
Time=24235 Track=5 note_on channel=2 note=71 velocity=0 time=0
Time=24235 Track=5 note_on channel=2 note=67 velocity=0 time=0
Time=24235 Track=5 note_on channel=2 note=62 velocity=0 time=0
Time=24240 Track=3 note_on channel=0 note=31 velocity=102 time=240
Time=24240 Track=3 note_on channel=0 note=31 velocity=0 time=0
Time=24240 Track=4 note_on channel=1 note=31 velocity=100 time=5
Time=24240 Track=5 note_on channel=2 note=71 velocity=103 time=5
Time=24240 Track=5 note_on channel=2 note=67 velocity=103 time=0
Time=24240 Track=5 note_on channel=2 note=62 velocity=103 time=0
Time=24240 Track=11 note_on channel=9 note=36 velocity=120 time=15
Time=24240 Track=11 note_on channel=9 note=42 velocity=114 time=0
Time=24240 Track=13 note_on channel=12 note=59 velocity=127 time=0
Time=24240 Track=13 note_on channel=12 note=67 velocity=127 time=0
Time=24240 Track=13 note_on channel=12 note=62 velocity=127 time=0
Time=24265 Track=5 note_on channel=2 note=67 velocity=0 time=0
Time=24270 Track=5 note_on channel=2 note=67 velocity=103 time=5
Time=24270 Track=5 note_on channel=2 note=71 velocity=103 time=0
Time=24270 Track=5 note_on channel=2 note=71 velocity=0 time=0
Time=24280 Track=13 note_on channel=12 note=62 velocity=0 time=40
Time=24280 Track=13 note_on channel=12 note=59 velocity=0 time=0
Time=24285 Track=11 note_on channel=9 note=42 velocity=0 time=45
Time=24285 Track=13 note_on channel=12 note=67 velocity=0 time=5
Time=24295 Track=5 note_on channel=2 note=67 velocity=0 time=0
Time=24295 Track=5 note_on channel=2 note=62 velocity=0 time=0
Time=24295 Track=5 note_on channel=2 note=71 velocity=0 time=0
Time=24295 Track=11 note_on channel=9 note=36 velocity=0 time=10
Time=24295 Track=13 note_on channel=12 note=59 velocity=70 time=10
Time=24300 Track=5 note_on channel=2 note=71 velocity=102 time=5
Time=24300 Track=5 note_on channel=2 note=67 velocity=103 time=0
Time=24300 Track=5 note_on channel=2 note=62 velocity=103 time=0
Time=24300 Track=11 note_on channel=9 note=42 velocity=94 time=5
Time=24300 Track=13 note_on channel=12 note=62 velocity=82 time=0
Time=24300 Track=13 note_on channel=12 note=63 velocity=82 time=0
Time=24300 Track=13 note_on channel=12 note=59 velocity=0 time=0
Time=24301 Track=13 note_on channel=12 note=63 velocity=0 time=1
Time=24301 Track=13 note_on channel=12 note=62 velocity=0 time=0
Time=24325 Track=5 note_on channel=2 note=67 velocity=0 time=0
Time=24330 Track=5 note_on channel=2 note=67 velocity=102 time=5
Time=24330 Track=5 note_on channel=2 note=71 velocity=102 time=0
Time=24330 Track=5 note_on channel=2 note=71 velocity=0 time=0
Time=24330 Track=13 note_on channel=12 note=67 velocity=102 time=0
Time=24330 Track=13 note_on channel=12 note=63 velocity=37 time=0
Time=24331 Track=13 note_on channel=12 note=63 velocity=0 time=1
Time=24331 Track=13 note_on channel=12 note=67 velocity=0 time=0
Time=24345 Track=11 note_on channel=9 note=42 velocity=0 time=45
Time=24355 Track=5 note_on channel=2 note=67 velocity=0 time=0
Time=24355 Track=5 note_on channel=2 note=62 velocity=0 time=0
Time=24355 Track=5 note_on channel=2 note=71 velocity=0 time=0
Time=24360 Track=5 note_on channel=2 note=71 velocity=102 time=5
Time=24360 Track=5 note_on channel=2 note=67 velocity=102 time=0
Time=24360 Track=5 note_on channel=2 note=62 velocity=102 time=0
Time=24360 Track=11 note_on channel=9 note=36 velocity=119 time=15
Time=24360 Track=11 note_on channel=9 note=40 velocity=127 time=0
Time=24360 Track=11 note_on channel=9 note=42 velocity=126 time=0
Time=24360 Track=13 note_on channel=12 note=59 velocity=92 time=0
Time=24365 Track=13 note_on channel=12 note=67 velocity=127 time=0
Time=24365 Track=13 note_on channel=12 note=62 velocity=127 time=0
Time=24385 Track=5 note_on channel=2 note=71 velocity=0 time=0
Time=24390 Track=5 note_on channel=2 note=71 velocity=102 time=5
Time=24395 Track=13 note_on channel=12 note=62 velocity=0 time=30
Time=24400 Track=11 note_on channel=9 note=42 velocity=0 time=40
Time=24400 Track=13 note_on channel=12 note=67 velocity=0 time=5
Time=24400 Track=13 note_on channel=12 note=59 velocity=0 time=0
Time=24410 Track=5 note_on channel=2 note=67 velocity=0 time=0
Time=24415 Track=5 note_on channel=2 note=62 velocity=0 time=0
Time=24415 Track=11 note_on channel=9 note=40 velocity=0 time=15
Time=24415 Track=11 note_on channel=9 note=36 velocity=0 time=0
Time=24420 Track=5 note_on channel=2 note=71 velocity=102 time=5
Time=24420 Track=5 note_on channel=2 note=67 velocity=102 time=0
Time=24420 Track=5 note_on channel=2 note=62 velocity=102 time=0
Time=24420 Track=5 note_on channel=2 note=71 velocity=0 time=0
Time=24420 Track=11 note_on channel=9 note=46 velocity=121 time=5
Time=24420 Track=13 note_on channel=12 note=59 velocity=127 time=20
Time=24420 Track=13 note_on channel=12 note=62 velocity=127 time=0
Time=24420 Track=13 note_on channel=12 note=67 velocity=127 time=0
Time=24440 Track=13 note_on channel=12 note=67 velocity=0 time=15
Time=24445 Track=5 note_on channel=2 note=71 velocity=0 time=0
Time=24445 Track=13 note_on channel=12 note=67 velocity=127 time=5
Time=24445 Track=13 note_on channel=12 note=62 velocity=127 time=0
Time=24445 Track=13 note_on channel=12 note=62 velocity=0 time=0
Time=24450 Track=5 note_on channel=2 note=71 velocity=102 time=5
Time=24465 Track=11 note_on channel=9 note=46 velocity=0 time=45
Time=24470 Track=13 note_on channel=12 note=59 velocity=0 time=25
Time=24475 Track=3 note_on channel=0 note=31 velocity=0 time=235
Time=24475 Track=4 note_on channel=1 note=31 velocity=0 time=235
Time=24475 Track=5 note_on channel=2 note=71 velocity=0 time=0
Time=24475 Track=5 note_on channel=2 note=62 velocity=0 time=0
Time=24475 Track=5 note_on channel=2 note=67 velocity=0 time=0
Time=24475 Track=13 note_on channel=12 note=59 velocity=127 time=5
Time=24475 Track=13 note_on channel=12 note=62 velocity=127 time=0
Time=24475 Track=13 note_on channel=12 note=62 velocity=0 time=0
Time=24480 Track=3 note_on channel=0 note=31 velocity=101 time=5
Time=24480 Track=4 note_on channel=1 note=31 velocity=99 time=5
Time=24480 Track=5 note_on channel=2 note=71 velocity=104 time=5
Time=24480 Track=5 note_on channel=2 note=67 velocity=104 time=0
Time=24480 Track=5 note_on channel=2 note=62 velocity=104 time=0
Time=24480 Track=11 note_on channel=9 note=36 velocity=121 time=15
Time=24480 Track=11 note_on channel=9 note=42 velocity=112 time=0
Time=24495 Track=13 note_on channel=12 note=67 velocity=0 time=20
Time=24500 Track=13 note_on channel=12 note=67 velocity=127 time=5
Time=24500 Track=13 note_on channel=12 note=62 velocity=0 time=0
Time=24505 Track=5 note_on channel=2 note=71 velocity=0 time=0
Time=24505 Track=13 note_on channel=12 note=62 velocity=127 time=5
Time=24510 Track=5 note_on channel=2 note=71 velocity=104 time=5
Time=24515 Track=11 note_on channel=9 note=42 velocity=0 time=35
Time=24525 Track=5 note_on channel=2 note=67 velocity=0 time=15
Time=24530 Track=5 note_on channel=2 note=62 velocity=0 time=0
Time=24530 Track=13 note_on channel=12 note=62 velocity=0 time=25
Time=24530 Track=13 note_on channel=12 note=59 velocity=0 time=0
Time=24535 Track=5 note_on channel=2 note=71 velocity=0 time=0
Time=24535 Track=11 note_on channel=9 note=36 velocity=0 time=20
Time=24535 Track=13 note_on channel=12 note=59 velocity=127 time=5
Time=24535 Track=13 note_on channel=12 note=62 velocity=127 time=0
Time=24540 Track=5 note_on channel=2 note=71 velocity=104 time=5
Time=24540 Track=5 note_on channel=2 note=67 velocity=104 time=0
Time=24540 Track=5 note_on channel=2 note=62 velocity=104 time=0
Time=24540 Track=11 note_on channel=9 note=42 velocity=83 time=5
Time=24560 Track=13 note_on channel=12 note=67 velocity=127 time=25
Time=24560 Track=13 note_on channel=12 note=67 velocity=0 time=0
Time=24565 Track=5 note_on channel=2 note=71 velocity=0 time=0
Time=24565 Track=13 note_on channel=12 note=62 velocity=127 time=5
Time=24565 Track=13 note_on channel=12 note=62 velocity=0 time=0
Time=24570 Track=5 note_on channel=2 note=71 velocity=104 time=5
Time=24585 Track=11 note_on channel=9 note=42 velocity=0 time=45
Time=24590 Track=5 note_on channel=2 note=67 velocity=0 time=0
Time=24590 Track=13 note_on channel=12 note=59 velocity=0 time=25
Time=24595 Track=4 note_on channel=1 note=31 velocity=0 time=115
Time=24595 Track=5 note_on channel=2 note=62 velocity=0 time=0
Time=24595 Track=5 note_on channel=2 note=71 velocity=0 time=0
Time=24595 Track=13 note_on channel=12 note=59 velocity=127 time=5
Time=24595 Track=13 note_on channel=12 note=62 velocity=127 time=0
Time=24595 Track=13 note_on channel=12 note=67 velocity=127 time=0
Time=24595 Track=13 note_on channel=12 note=67 velocity=0 time=0
Time=24595 Track=13 note_on channel=12 note=62 velocity=0 time=0
Time=24600 Track=3 note_on channel=0 note=31 velocity=101 time=120
Time=24600 Track=3 note_on channel=0 note=31 velocity=0 time=0
Time=24600 Track=4 note_on channel=1 note=31 velocity=99 time=5
Time=24600 Track=5 note_on channel=2 note=71 velocity=104 time=5
Time=24600 Track=5 note_on channel=2 note=67 velocity=104 time=0
Time=24600 Track=5 note_on channel=2 note=62 velocity=104 time=0
Time=24600 Track=11 note_on channel=9 note=36 velocity=120 time=15
Time=24600 Track=11 note_on channel=9 note=40 velocity=127 time=0
Time=24600 Track=11 note_on channel=9 note=42 velocity=125 time=0
Time=24625 Track=5 note_on channel=2 note=71 velocity=0 time=5
Time=24630 Track=5 note_on channel=2 note=71 velocity=103 time=5
Time=24640 Track=13 note_on channel=12 note=62 velocity=0 time=45
Time=24640 Track=13 note_on channel=12 note=59 velocity=0 time=0
Time=24650 Track=11 note_on channel=9 note=42 velocity=0 time=50
Time=24650 Track=13 note_on channel=12 note=67 velocity=0 time=10
Time=24655 Track=5 note_on channel=2 note=71 velocity=0 time=0
Time=24655 Track=5 note_on channel=2 note=67 velocity=0 time=0
Time=24655 Track=11 note_on channel=9 note=40 velocity=0 time=5
Time=24655 Track=11 note_on channel=9 note=36 velocity=0 time=0
Time=24660 Track=5 note_on channel=2 note=71 velocity=103 time=5
Time=24660 Track=5 note_on channel=2 note=67 velocity=103 time=0
Time=24660 Track=11 note_on channel=9 note=42 velocity=93 time=5
Time=24660 Track=13 note_on channel=12 note=63 velocity=106 time=10
Time=24660 Track=13 note_on channel=12 note=67 velocity=42 time=0
Time=24661 Track=13 note_on channel=12 note=63 velocity=0 time=1
Time=24665 Track=13 note_on channel=12 note=67 velocity=0 time=4
Time=24680 Track=13 note_on channel=12 note=67 velocity=80 time=15
Time=24685 Track=5 note_on channel=2 note=71 velocity=0 time=0
Time=24685 Track=13 note_on channel=12 note=63 velocity=34 time=5
Time=24685 Track=13 note_on channel=12 note=67 velocity=0 time=0
Time=24686 Track=13 note_on channel=12 note=63 velocity=0 time=1
Time=24690 Track=5 note_on channel=2 note=71 velocity=103 time=5
Time=24705 Track=11 note_on channel=9 note=42 velocity=0 time=45
Time=24715 Track=4 note_on channel=1 note=31 velocity=0 time=115
Time=24715 Track=5 note_on channel=2 note=71 velocity=0 time=0
Time=24715 Track=5 note_on channel=2 note=67 velocity=0 time=0
Time=24715 Track=5 note_on channel=2 note=62 velocity=0 time=0
Time=24715 Track=13 note_on channel=12 note=67 velocity=127 time=29
Time=24715 Track=13 note_on channel=12 note=62 velocity=127 time=0
Time=24715 Track=13 note_on channel=12 note=59 velocity=127 time=0
Time=24720 Track=3 note_on channel=0 note=31 velocity=101 time=120
Time=24720 Track=3 note_on channel=0 note=31 velocity=0 time=0
Time=24720 Track=4 note_on channel=1 note=31 velocity=99 time=5
Time=24720 Track=5 note_on channel=2 note=71 velocity=103 time=5
Time=24720 Track=5 note_on channel=2 note=67 velocity=103 time=0
Time=24720 Track=5 note_on channel=2 note=62 velocity=103 time=0
Time=24720 Track=11 note_on channel=9 note=36 velocity=120 time=15
Time=24720 Track=11 note_on channel=9 note=42 velocity=114 time=0
Time=24745 Track=5 note_on channel=2 note=67 velocity=0 time=0
Time=24750 Track=5 note_on channel=2 note=67 velocity=103 time=5
Time=24750 Track=5 note_on channel=2 note=71 velocity=103 time=0
Time=24750 Track=5 note_on channel=2 note=71 velocity=0 time=0
Time=24760 Track=13 note_on channel=12 note=59 velocity=0 time=45
Time=24760 Track=13 note_on channel=12 note=62 velocity=0 time=0
Time=24760 Track=13 note_on channel=12 note=67 velocity=0 time=0
Time=24765 Track=11 note_on channel=9 note=42 velocity=0 time=45
Time=24775 Track=5 note_on channel=2 note=67 velocity=0 time=0
Time=24775 Track=5 note_on channel=2 note=62 velocity=0 time=0
Time=24775 Track=5 note_on channel=2 note=71 velocity=0 time=0
Time=24775 Track=11 note_on channel=9 note=36 velocity=0 time=10
Time=24775 Track=13 note_on channel=12 note=59 velocity=51 time=15
Time=24780 Track=5 note_on channel=2 note=71 velocity=102 time=5
Time=24780 Track=5 note_on channel=2 note=67 velocity=103 time=0
Time=24780 Track=5 note_on channel=2 note=62 velocity=103 time=0
Time=24780 Track=11 note_on channel=9 note=42 velocity=94 time=5
Time=24780 Track=13 note_on channel=12 note=63 velocity=76 time=5
Time=24780 Track=13 note_on channel=12 note=67 velocity=29 time=0
Time=24780 Track=13 note_on channel=12 note=59 velocity=0 time=0
Time=24781 Track=13 note_on channel=12 note=63 velocity=0 time=1
Time=24785 Track=13 note_on channel=12 note=67 velocity=0 time=4
Time=24805 Track=5 note_on channel=2 note=67 velocity=0 time=0
Time=24805 Track=5 note_on channel=2 note=71 velocity=0 time=0
Time=24805 Track=13 note_on channel=12 note=67 velocity=73 time=20
Time=24810 Track=5 note_on channel=2 note=67 velocity=102 time=5
Time=24810 Track=5 note_on channel=2 note=71 velocity=102 time=0
Time=24810 Track=13 note_on channel=12 note=67 velocity=0 time=5
Time=24825 Track=11 note_on channel=9 note=42 velocity=0 time=45
Time=24835 Track=4 note_on channel=1 note=31 velocity=0 time=115
Time=24835 Track=5 note_on channel=2 note=71 velocity=0 time=0
Time=24835 Track=5 note_on channel=2 note=67 velocity=0 time=0
Time=24835 Track=5 note_on channel=2 note=62 velocity=0 time=0
Time=24840 Track=3 note_on channel=0 note=31 velocity=101 time=120
Time=24840 Track=3 note_on channel=0 note=31 velocity=0 time=0
Time=24840 Track=4 note_on channel=1 note=31 velocity=99 time=5
Time=24840 Track=5 note_on channel=2 note=71 velocity=102 time=5
Time=24840 Track=5 note_on channel=2 note=67 velocity=102 time=0
Time=24840 Track=5 note_on channel=2 note=62 velocity=102 time=0
Time=24840 Track=11 note_on channel=9 note=36 velocity=119 time=15
Time=24840 Track=11 note_on channel=9 note=40 velocity=127 time=0
Time=24840 Track=11 note_on channel=9 note=42 velocity=126 time=0
Time=24840 Track=13 note_on channel=12 note=59 velocity=127 time=30
Time=24840 Track=13 note_on channel=12 note=62 velocity=127 time=0
Time=24840 Track=13 note_on channel=12 note=67 velocity=95 time=0
Time=24865 Track=5 note_on channel=2 note=71 velocity=0 time=0
Time=24870 Track=5 note_on channel=2 note=71 velocity=102 time=5
Time=24870 Track=13 note_on channel=12 note=62 velocity=0 time=30
Time=24870 Track=13 note_on channel=12 note=59 velocity=0 time=0
Time=24875 Track=13 note_on channel=12 note=67 velocity=0 time=5
Time=24880 Track=11 note_on channel=9 note=42 velocity=0 time=40
Time=24890 Track=5 note_on channel=2 note=67 velocity=0 time=0
Time=24895 Track=5 note_on channel=2 note=62 velocity=0 time=0
Time=24895 Track=11 note_on channel=9 note=40 velocity=0 time=15
Time=24895 Track=11 note_on channel=9 note=36 velocity=0 time=0
Time=24900 Track=5 note_on channel=2 note=71 velocity=102 time=5
Time=24900 Track=5 note_on channel=2 note=67 velocity=102 time=0
Time=24900 Track=5 note_on channel=2 note=62 velocity=102 time=0
Time=24900 Track=5 note_on channel=2 note=71 velocity=0 time=0
Time=24900 Track=11 note_on channel=9 note=46 velocity=121 time=5
Time=24900 Track=13 note_on channel=12 note=63 velocity=116 time=25
Time=24901 Track=13 note_on channel=12 note=63 velocity=0 time=1
Time=24925 Track=5 note_on channel=2 note=71 velocity=0 time=5
Time=24925 Track=13 note_on channel=12 note=67 velocity=121 time=24
Time=24926 Track=13 note_on channel=12 note=67 velocity=0 time=1
Time=24930 Track=5 note_on channel=2 note=71 velocity=102 time=5
Time=24945 Track=11 note_on channel=9 note=46 velocity=0 time=45
Time=24950 Track=5 note_on channel=2 note=50 velocity=101 time=20
Time=24950 Track=6 note_on channel=3 note=50 velocity=101 time=1914
Time=24955 Track=3 note_on channel=0 note=31 velocity=0 time=115
Time=24955 Track=4 note_on channel=1 note=31 velocity=0 time=115
Time=24955 Track=5 note_on channel=2 note=62 velocity=104 time=5
Time=24955 Track=5 note_on channel=2 note=57 velocity=91 time=0
Time=24955 Track=5 note_on channel=2 note=71 velocity=0 time=0
Time=24955 Track=5 note_on channel=2 note=62 velocity=0 time=0
Time=24955 Track=5 note_on channel=2 note=67 velocity=0 time=0
Time=24955 Track=6 note_on channel=3 note=62 velocity=104 time=5
Time=24955 Track=6 note_on channel=3 note=57 velocity=91 time=0
Time=24955 Track=10 note_on channel=8 note=43 velocity=0 time=1915
Time=24955 Track=10 note_on channel=8 note=55 velocity=0 time=0
Time=24955 Track=12 note_on channel=10 note=55 velocity=0 time=1915
Time=24960 Track=3 note_on channel=0 note=38 velocity=103 time=5
Time=24960 Track=4 note_on channel=1 note=38 velocity=101 time=5
Time=24960 Track=5 note_on channel=2 note=65 velocity=94 time=5
Time=24960 Track=6 note_on channel=3 note=65 velocity=94 time=5
Time=24960 Track=11 note_on channel=9 note=36 velocity=121 time=15
Time=24960 Track=11 note_on channel=9 note=42 velocity=112 time=0
Time=24960 Track=11 note_on channel=9 note=49 velocity=92 time=0
Time=24965 Track=5 note_on channel=2 note=69 velocity=96 time=5
Time=24965 Track=6 note_on channel=3 note=69 velocity=96 time=5
Time=24995 Track=11 note_on channel=9 note=42 velocity=0 time=35
Time=25010 Track=5 note_on channel=2 note=62 velocity=0 time=45
Time=25015 Track=11 note_on channel=9 note=49 velocity=0 time=20
Time=25015 Track=11 note_on channel=9 note=36 velocity=0 time=0
Time=25020 Track=11 note_on channel=9 note=42 velocity=83 time=5
Time=25045 Track=5 note_on channel=2 note=65 velocity=108 time=35
Time=25045 Track=5 note_on channel=2 note=65 velocity=0 time=0
Time=25045 Track=6 note_on channel=3 note=65 velocity=108 time=80
Time=25045 Track=6 note_on channel=3 note=65 velocity=0 time=0
Time=25045 Track=7 note_on channel=4 note=65 velocity=107 time=0
Time=25050 Track=5 note_on channel=2 note=62 velocity=97 time=5
Time=25050 Track=6 note_on channel=3 note=62 velocity=97 time=5
Time=25050 Track=6 note_on channel=3 note=62 velocity=0 time=0
Time=25050 Track=7 note_on channel=4 note=62 velocity=105 time=5
Time=25050 Track=7 note_on channel=4 note=65 velocity=0 time=0
Time=25051 Track=5 note_on channel=2 note=62 velocity=0 time=1
Time=25055 Track=7 note_on channel=4 note=62 velocity=0 time=5
Time=25065 Track=11 note_on channel=9 note=42 velocity=0 time=45
Time=25070 Track=5 note_on channel=2 note=57 velocity=0 time=19
Time=25070 Track=6 note_on channel=3 note=57 velocity=0 time=20
Time=25070 Track=7 note_on channel=4 note=57 velocity=107 time=0
Time=25075 Track=4 note_on channel=1 note=38 velocity=0 time=115
Time=25075 Track=5 note_on channel=2 note=57 velocity=100 time=5
Time=25075 Track=5 note_on channel=2 note=62 velocity=108 time=0
Time=25075 Track=5 note_on channel=2 note=69 velocity=0 time=0
Time=25075 Track=6 note_on channel=3 note=57 velocity=100 time=5
Time=25075 Track=6 note_on channel=3 note=62 velocity=108 time=0
Time=25075 Track=6 note_on channel=3 note=69 velocity=0 time=0
Time=25075 Track=6 note_on channel=3 note=62 velocity=0 time=0
Time=25075 Track=7 note_on channel=4 note=62 velocity=107 time=5
Time=25080 Track=3 note_on channel=0 note=38 velocity=0 time=120
Time=25080 Track=5 note_on channel=2 note=65 velocity=90 time=5
Time=25080 Track=5 note_on channel=2 note=65 velocity=0 time=0
Time=25080 Track=5 note_on channel=2 note=62 velocity=0 time=0
Time=25080 Track=6 note_on channel=3 note=65 velocity=90 time=5
Time=25080 Track=6 note_on channel=3 note=65 velocity=0 time=0
Time=25080 Track=7 note_on channel=4 note=65 velocity=98 time=5
Time=25080 Track=7 note_on channel=4 note=57 velocity=0 time=0
Time=25080 Track=11 note_on channel=9 note=36 velocity=120 time=15
Time=25080 Track=11 note_on channel=9 note=40 velocity=127 time=0
Time=25080 Track=11 note_on channel=9 note=42 velocity=125 time=0
Time=25085 Track=7 note_on channel=4 note=65 velocity=0 time=5
Time=25085 Track=7 note_on channel=4 note=62 velocity=0 time=0
Time=25095 Track=5 note_on channel=2 note=50 velocity=0 time=15
Time=25095 Track=6 note_on channel=3 note=50 velocity=0 time=15
Time=25110 Track=5 note_on channel=2 note=57 velocity=0 time=15
Time=25110 Track=6 note_on channel=3 note=57 velocity=0 time=15
Time=25130 Track=5 note_on channel=2 note=57 velocity=89 time=20
Time=25130 Track=5 note_on channel=2 note=65 velocity=0 time=0
Time=25130 Track=6 note_on channel=3 note=57 velocity=89 time=20
Time=25130 Track=6 note_on channel=3 note=65 velocity=0 time=0
Time=25130 Track=11 note_on channel=9 note=42 velocity=0 time=50
Time=25135 Track=5 note_on channel=2 note=60 velocity=116 time=5
Time=25135 Track=6 note_on channel=3 note=60 velocity=116 time=5
Time=25135 Track=11 note_on channel=9 note=40 velocity=0 time=5
Time=25135 Track=11 note_on channel=9 note=36 velocity=0 time=0
Time=25140 Track=3 note_on channel=0 note=36 velocity=102 time=60
Time=25140 Track=4 note_on channel=1 note=36 velocity=101 time=65
Time=25140 Track=5 note_on channel=2 note=65 velocity=106 time=5
Time=25140 Track=6 note_on channel=3 note=65 velocity=106 time=5
Time=25140 Track=11 note_on channel=9 note=42 velocity=93 time=5
Time=25145 Track=6 note_on channel=3 note=62 velocity=0 time=5
Time=25185 Track=11 note_on channel=9 note=42 velocity=0 time=45
Time=25195 Track=3 note_on channel=0 note=36 velocity=0 time=55
Time=25195 Track=4 note_on channel=1 note=36 velocity=0 time=55
Time=25195 Track=5 note_on channel=2 note=57 velocity=91 time=55
Time=25195 Track=5 note_on channel=2 note=62 velocity=113 time=0
Time=25195 Track=5 note_on channel=2 note=60 velocity=0 time=0
Time=25195 Track=5 note_on channel=2 note=57 velocity=0 time=0
Time=25195 Track=6 note_on channel=3 note=57 velocity=91 time=50
Time=25195 Track=6 note_on channel=3 note=62 velocity=113 time=0
Time=25195 Track=6 note_on channel=3 note=57 velocity=0 time=0
Time=25195 Track=6 note_on channel=3 note=60 velocity=0 time=0
Time=25195 Track=7 note_on channel=4 note=57 velocity=99 time=5
Time=25195 Track=7 note_on channel=4 note=62 velocity=107 time=0
Time=25200 Track=3 note_on channel=0 note=38 velocity=102 time=5
Time=25200 Track=4 note_on channel=1 note=38 velocity=101 time=5
Time=25200 Track=5 note_on channel=2 note=65 velocity=96 time=5
Time=25200 Track=5 note_on channel=2 note=65 velocity=0 time=0
Time=25200 Track=6 note_on channel=3 note=65 velocity=96 time=5
Time=25200 Track=6 note_on channel=3 note=65 velocity=0 time=0
Time=25200 Track=7 note_on channel=4 note=65 velocity=104 time=5
Time=25200 Track=11 note_on channel=9 note=36 velocity=120 time=15
Time=25200 Track=11 note_on channel=9 note=42 velocity=114 time=0
Time=25205 Track=7 note_on channel=4 note=65 velocity=0 time=5
Time=25205 Track=7 note_on channel=4 note=62 velocity=0 time=0
Time=25205 Track=7 note_on channel=4 note=57 velocity=0 time=0
Time=25230 Track=5 note_on channel=2 note=62 velocity=0 time=30
Time=25230 Track=6 note_on channel=3 note=62 velocity=0 time=30
Time=25240 Track=4 note_on channel=1 note=38 velocity=0 time=40
Time=25245 Track=3 note_on channel=0 note=38 velocity=0 time=45
Time=25245 Track=11 note_on channel=9 note=42 velocity=0 time=45
Time=25255 Track=11 note_on channel=9 note=36 velocity=0 time=10
Time=25260 Track=5 note_on channel=2 note=74 velocity=113 time=30
Time=25260 Track=5 note_on channel=2 note=69 velocity=113 time=0
Time=25260 Track=5 note_on channel=2 note=65 velocity=113 time=0
Time=25260 Track=5 note_on channel=2 note=65 velocity=0 time=0
Time=25260 Track=5 note_on channel=2 note=57 velocity=0 time=0
Time=25260 Track=6 note_on channel=3 note=57 velocity=0 time=30
Time=25260 Track=6 note_on channel=3 note=65 velocity=0 time=0
Time=25260 Track=11 note_on channel=9 note=42 velocity=94 time=5
Time=25260 Track=14 note_on channel=13 note=68 velocity=127 time=12795
Time=25260 Track=14 note_on channel=13 note=73 velocity=127 time=0
Time=25260 Track=14 note_on channel=13 note=64 velocity=126 time=0
Time=25261 Track=14 note_on channel=13 note=73 velocity=0 time=1
Time=25270 Track=14 note_on channel=13 note=74 velocity=127 time=0
Time=25270 Track=14 note_on channel=13 note=69 velocity=127 time=0
Time=25270 Track=14 note_on channel=13 note=64 velocity=0 time=0
Time=25270 Track=14 note_on channel=13 note=68 velocity=0 time=0
Time=25275 Track=14 note_on channel=13 note=65 velocity=126 time=5
Time=25285 Track=5 note_on channel=2 note=74 velocity=0 time=20
Time=25285 Track=14 note_on channel=13 note=65 velocity=0 time=10
Time=25290 Track=5 note_on channel=2 note=69 velocity=0 time=5
Time=25290 Track=14 note_on channel=13 note=74 velocity=0 time=5
Time=25290 Track=14 note_on channel=13 note=69 velocity=0 time=0
Time=25295 Track=5 note_on channel=2 note=65 velocity=0 time=5
Time=25305 Track=11 note_on channel=9 note=42 velocity=0 time=45
Time=25320 Track=11 note_on channel=9 note=36 velocity=119 time=15
Time=25320 Track=11 note_on channel=9 note=40 velocity=127 time=0
Time=25320 Track=11 note_on channel=9 note=42 velocity=126 time=0
Time=25350 Track=5 note_on channel=2 note=64 velocity=113 time=55
Time=25350 Track=14 note_on channel=13 note=67 velocity=127 time=60
Time=25350 Track=14 note_on channel=13 note=72 velocity=127 time=0
Time=25350 Track=14 note_on channel=13 note=64 velocity=127 time=0
Time=25355 Track=5 note_on channel=2 note=72 velocity=113 time=0
Time=25355 Track=5 note_on channel=2 note=67 velocity=113 time=0
Time=25355 Track=5 note_on channel=2 note=72 velocity=0 time=0
Time=25360 Track=11 note_on channel=9 note=42 velocity=0 time=40
Time=25375 Track=11 note_on channel=9 note=40 velocity=0 time=15
Time=25375 Track=11 note_on channel=9 note=36 velocity=0 time=0
Time=25375 Track=14 note_on channel=13 note=72 velocity=0 time=20
Time=25380 Track=11 note_on channel=9 note=46 velocity=121 time=5
Time=25380 Track=14 note_on channel=13 note=64 velocity=0 time=5
Time=25380 Track=14 note_on channel=13 note=67 velocity=0 time=0
Time=25390 Track=5 note_on channel=2 note=64 velocity=0 time=35
Time=25390 Track=5 note_on channel=2 note=67 velocity=0 time=0
Time=25425 Track=11 note_on channel=9 note=46 velocity=0 time=45
Time=25435 Track=14 note_on channel=13 note=65 velocity=127 time=55
Time=25440 Track=3 note_on channel=0 note=38 velocity=101 time=195
Time=25440 Track=4 note_on channel=1 note=38 velocity=100 time=200
Time=25440 Track=5 note_on channel=2 note=65 velocity=113 time=0
Time=25440 Track=5 note_on channel=2 note=74 velocity=113 time=0
Time=25440 Track=11 note_on channel=9 note=36 velocity=121 time=15
Time=25440 Track=11 note_on channel=9 note=42 velocity=112 time=0
Time=25440 Track=14 note_on channel=13 note=69 velocity=72 time=5
Time=25440 Track=14 note_on channel=13 note=74 velocity=127 time=0
Time=25445 Track=5 note_on channel=2 note=69 velocity=113 time=0
Time=25475 Track=11 note_on channel=9 note=42 velocity=0 time=35
Time=25495 Track=11 note_on channel=9 note=36 velocity=0 time=20
Time=25500 Track=11 note_on channel=9 note=42 velocity=83 time=5
Time=25525 Track=14 note_on channel=13 note=74 velocity=127 time=85
Time=25525 Track=14 note_on channel=13 note=74 velocity=0 time=0
Time=25530 Track=5 note_on channel=2 note=74 velocity=0 time=85
Time=25530 Track=14 note_on channel=13 note=69 velocity=123 time=5
Time=25530 Track=14 note_on channel=13 note=69 velocity=0 time=0
Time=25535 Track=5 note_on channel=2 note=74 velocity=65 time=0
Time=25535 Track=5 note_on channel=2 note=69 velocity=0 time=0
Time=25540 Track=5 note_on channel=2 note=69 velocity=113 time=5
Time=25545 Track=11 note_on channel=9 note=42 velocity=0 time=45
Time=25555 Track=4 note_on channel=1 note=38 velocity=0 time=115
Time=25555 Track=5 note_on channel=2 note=69 velocity=0 time=15
Time=25560 Track=3 note_on channel=0 note=38 velocity=0 time=120
Time=25560 Track=11 note_on channel=9 note=36 velocity=120 time=15
Time=25560 Track=11 note_on channel=9 note=40 velocity=127 time=0
Time=25560 Track=11 note_on channel=9 note=42 velocity=125 time=0
Time=25560 Track=14 note_on channel=13 note=65 velocity=0 time=30
Time=25565 Track=5 note_on channel=2 note=74 velocity=104 time=0
Time=25565 Track=5 note_on channel=2 note=69 velocity=113 time=0
Time=25565 Track=5 note_on channel=2 note=74 velocity=0 time=0
Time=25565 Track=5 note_on channel=2 note=65 velocity=0 time=0
Time=25565 Track=14 note_on channel=13 note=69 velocity=0 time=5
Time=25570 Track=5 note_on channel=2 note=69 velocity=0 time=5
Time=25570 Track=5 note_on channel=2 note=74 velocity=0 time=0
Time=25570 Track=14 note_on channel=13 note=74 velocity=0 time=5
Time=25610 Track=11 note_on channel=9 note=42 velocity=0 time=50
Time=25615 Track=5 note_on channel=2 note=64 velocity=113 time=45
Time=25615 Track=11 note_on channel=9 note=40 velocity=0 time=5
Time=25615 Track=11 note_on channel=9 note=36 velocity=0 time=0
Time=25615 Track=14 note_on channel=13 note=64 velocity=127 time=0
Time=25615 Track=14 note_on channel=13 note=67 velocity=127 time=0
Time=25620 Track=3 note_on channel=0 note=38 velocity=101 time=60
Time=25620 Track=4 note_on channel=1 note=38 velocity=99 time=65
Time=25620 Track=5 note_on channel=2 note=72 velocity=113 time=0
Time=25620 Track=5 note_on channel=2 note=72 velocity=0 time=0
Time=25620 Track=11 note_on channel=9 note=42 velocity=93 time=5
Time=25620 Track=14 note_on channel=13 note=72 velocity=127 time=5
Time=25625 Track=5 note_on channel=2 note=67 velocity=113 time=0
Time=25640 Track=5 note_on channel=2 note=67 velocity=0 time=15
Time=25640 Track=14 note_on channel=13 note=72 velocity=0 time=20
Time=25640 Track=14 note_on channel=13 note=67 velocity=0 time=0
Time=25640 Track=14 note_on channel=13 note=64 velocity=0 time=0
Time=25645 Track=5 note_on channel=2 note=64 velocity=0 time=5
Time=25665 Track=3 note_on channel=0 note=38 velocity=0 time=45
Time=25665 Track=4 note_on channel=1 note=38 velocity=0 time=45
Time=25665 Track=11 note_on channel=9 note=42 velocity=0 time=45
Time=25675 Track=5 note_on channel=2 note=64 velocity=113 time=0
Time=25675 Track=14 note_on channel=13 note=64 velocity=127 time=5
Time=25675 Track=14 note_on channel=13 note=67 velocity=127 time=0
Time=25675 Track=14 note_on channel=13 note=72 velocity=127 time=0
Time=25680 Track=3 note_on channel=0 note=33 velocity=101 time=15
Time=25680 Track=4 note_on channel=1 note=33 velocity=99 time=15
Time=25680 Track=5 note_on channel=2 note=72 velocity=113 time=0
Time=25680 Track=5 note_on channel=2 note=67 velocity=113 time=0
Time=25680 Track=5 note_on channel=2 note=72 velocity=0 time=0
Time=25680 Track=11 note_on channel=9 note=36 velocity=120 time=15
Time=25680 Track=11 note_on channel=9 note=42 velocity=114 time=0
Time=25700 Track=5 note_on channel=2 note=64 velocity=0 time=20
Time=25700 Track=14 note_on channel=13 note=72 velocity=0 time=25
Time=25700 Track=14 note_on channel=13 note=67 velocity=0 time=0
Time=25700 Track=14 note_on channel=13 note=64 velocity=0 time=0
Time=25710 Track=5 note_on channel=2 note=67 velocity=0 time=10
Time=25725 Track=11 note_on channel=9 note=42 velocity=0 time=45
Time=25735 Track=11 note_on channel=9 note=36 velocity=0 time=10
Time=25735 Track=14 note_on channel=13 note=62 velocity=127 time=0
Time=25740 Track=5 note_on channel=2 note=62 velocity=113 time=0
Time=25740 Track=11 note_on channel=9 note=42 velocity=94 time=5
Time=25740 Track=14 note_on channel=13 note=67 velocity=127 time=5
Time=25740 Track=14 note_on channel=13 note=71 velocity=73 time=0
Time=25745 Track=5 note_on channel=2 note=67 velocity=113 time=5
Time=25745 Track=5 note_on channel=2 note=71 velocity=113 time=0
Time=25760 Track=14 note_on channel=13 note=71 velocity=0 time=20
Time=25765 Track=5 note_on channel=2 note=71 velocity=0 time=20
Time=25765 Track=14 note_on channel=13 note=71 velocity=106 time=0
Time=25770 Track=5 note_on channel=2 note=71 velocity=113 time=0
Time=25770 Track=5 note_on channel=2 note=67 velocity=0 time=0
Time=25775 Track=5 note_on channel=2 note=67 velocity=54 time=0
Time=25785 Track=11 note_on channel=9 note=42 velocity=0 time=45
Time=25790 Track=5 note_on channel=2 note=62 velocity=0 time=15
Time=25790 Track=14 note_on channel=13 note=62 velocity=0 time=25
Time=25795 Track=4 note_on channel=1 note=33 velocity=0 time=115
Time=25795 Track=5 note_on channel=2 note=62 velocity=113 time=0
Time=25795 Track=5 note_on channel=2 note=71 velocity=0 time=0
Time=25795 Track=5 note_on channel=2 note=67 velocity=0 time=0
Time=25795 Track=14 note_on channel=13 note=62 velocity=127 time=0
Time=25795 Track=14 note_on channel=13 note=67 velocity=127 time=0
Time=25795 Track=14 note_on channel=13 note=71 velocity=0 time=0
Time=25795 Track=14 note_on channel=13 note=67 velocity=0 time=0
Time=25800 Track=3 note_on channel=0 note=31 velocity=100 time=120
Time=25800 Track=3 note_on channel=0 note=33 velocity=0 time=0
Time=25800 Track=4 note_on channel=1 note=31 velocity=99 time=5
Time=25800 Track=5 note_on channel=2 note=67 velocity=113 time=0
Time=25800 Track=5 note_on channel=2 note=71 velocity=113 time=0
Time=25800 Track=11 note_on channel=9 note=36 velocity=119 time=15
Time=25800 Track=11 note_on channel=9 note=40 velocity=127 time=0
Time=25800 Track=11 note_on channel=9 note=42 velocity=126 time=0
Time=25800 Track=14 note_on channel=13 note=71 velocity=127 time=5
Time=25825 Track=5 note_on channel=2 note=71 velocity=0 time=25
Time=25825 Track=5 note_on channel=2 note=67 velocity=0 time=0
Time=25825 Track=5 note_on channel=2 note=62 velocity=0 time=0
Time=25825 Track=14 note_on channel=13 note=71 velocity=0 time=25
Time=25825 Track=14 note_on channel=13 note=62 velocity=0 time=0
Time=25825 Track=14 note_on channel=13 note=67 velocity=0 time=0
Time=25840 Track=11 note_on channel=9 note=42 velocity=0 time=40
Time=25855 Track=11 note_on channel=9 note=40 velocity=0 time=15
Time=25855 Track=11 note_on channel=9 note=36 velocity=0 time=0
Time=25855 Track=14 note_on channel=13 note=60 velocity=127 time=5
Time=25855 Track=14 note_on channel=13 note=65 velocity=127 time=0
Time=25855 Track=14 note_on channel=13 note=69 velocity=127 time=0
Time=25860 Track=5 note_on channel=2 note=65 velocity=113 time=5
Time=25860 Track=5 note_on channel=2 note=60 velocity=113 time=0
Time=25860 Track=11 note_on channel=9 note=46 velocity=121 time=5
Time=25865 Track=5 note_on channel=2 note=69 velocity=113 time=5
Time=25895 Track=14 note_on channel=13 note=69 velocity=0 time=40
Time=25900 Track=14 note_on channel=13 note=65 velocity=0 time=5
Time=25905 Track=11 note_on channel=9 note=46 velocity=0 time=45
Time=25905 Track=14 note_on channel=13 note=60 velocity=0 time=5
Time=25915 Track=3 note_on channel=0 note=31 velocity=0 time=115
Time=25915 Track=4 note_on channel=1 note=31 velocity=0 time=115
Time=25915 Track=5 note_on channel=2 note=69 velocity=0 time=0
Time=25915 Track=5 note_on channel=2 note=72 velocity=0 time=0
Time=25915 Track=5 note_on channel=2 note=65 velocity=0 time=0
Time=25915 Track=5 note_on channel=2 note=60 velocity=0 time=0
Time=25920 Track=3 note_on channel=0 note=29 velocity=103 time=5
Time=25920 Track=4 note_on channel=1 note=29 velocity=101 time=5
Time=25920 Track=5 note_on channel=2 note=72 velocity=107 time=5
Time=25920 Track=5 note_on channel=2 note=60 velocity=107 time=0
Time=25920 Track=5 note_on channel=2 note=65 velocity=107 time=0
Time=25920 Track=10 note_on channel=8 note=41 velocity=100 time=965
Time=25920 Track=10 note_on channel=8 note=53 velocity=100 time=0
Time=25920 Track=11 note_on channel=9 note=36 velocity=121 time=15
Time=25920 Track=11 note_on channel=9 note=42 velocity=112 time=0
Time=25920 Track=11 note_on channel=9 note=49 velocity=92 time=0
Time=25920 Track=12 note_on channel=10 note=41 velocity=107 time=965
Time=25920 Track=13 note_on channel=12 note=41 velocity=107 time=994
Time=25920 Track=13 note_on channel=12 note=48 velocity=107 time=0
Time=25920 Track=13 note_on channel=12 note=53 velocity=107 time=0
Time=25955 Track=11 note_on channel=9 note=42 velocity=0 time=35
Time=25970 Track=5 note_on channel=2 note=65 velocity=0 time=50
Time=25975 Track=5 note_on channel=2 note=60 velocity=0 time=5
Time=25975 Track=11 note_on channel=9 note=49 velocity=0 time=20
Time=25975 Track=11 note_on channel=9 note=36 velocity=0 time=0
Time=25980 Track=11 note_on channel=9 note=42 velocity=83 time=5
Time=26025 Track=11 note_on channel=9 note=42 velocity=0 time=45
Time=26035 Track=5 note_on channel=2 note=72 velocity=0 time=60
Time=26040 Track=5 note_on channel=2 note=72 velocity=106 time=5
Time=26040 Track=5 note_on channel=2 note=65 velocity=106 time=0
Time=26040 Track=5 note_on channel=2 note=60 velocity=106 time=0
Time=26040 Track=11 note_on channel=9 note=36 velocity=120 time=15
Time=26040 Track=11 note_on channel=9 note=40 velocity=127 time=0
Time=26040 Track=11 note_on channel=9 note=42 velocity=125 time=0
Time=26085 Track=5 note_on channel=2 note=60 velocity=0 time=40
Time=26085 Track=5 note_on channel=2 note=65 velocity=0 time=0
Time=26090 Track=11 note_on channel=9 note=42 velocity=0 time=50
Time=26095 Track=11 note_on channel=9 note=40 velocity=0 time=5
Time=26095 Track=11 note_on channel=9 note=36 velocity=0 time=0
Time=26100 Track=11 note_on channel=9 note=42 velocity=93 time=5
Time=26145 Track=11 note_on channel=9 note=42 velocity=0 time=45
Time=26155 Track=5 note_on channel=2 note=72 velocity=0 time=0
Time=26160 Track=5 note_on channel=2 note=65 velocity=106 time=5
Time=26160 Track=5 note_on channel=2 note=72 velocity=106 time=0
Time=26160 Track=5 note_on channel=2 note=60 velocity=106 time=0
Time=26160 Track=11 note_on channel=9 note=36 velocity=120 time=15
Time=26160 Track=11 note_on channel=9 note=42 velocity=114 time=0
Time=26205 Track=11 note_on channel=9 note=42 velocity=0 time=45
Time=26210 Track=5 note_on channel=2 note=60 velocity=0 time=50
Time=26210 Track=5 note_on channel=2 note=65 velocity=0 time=0
Time=26215 Track=11 note_on channel=9 note=36 velocity=0 time=10
Time=26220 Track=11 note_on channel=9 note=42 velocity=94 time=5
Time=26265 Track=11 note_on channel=9 note=42 velocity=0 time=45
Time=26275 Track=5 note_on channel=2 note=72 velocity=0 time=0
Time=26280 Track=5 note_on channel=2 note=72 velocity=105 time=5
Time=26280 Track=5 note_on channel=2 note=65 velocity=105 time=0
Time=26280 Track=5 note_on channel=2 note=60 velocity=105 time=0
Time=26280 Track=11 note_on channel=9 note=36 velocity=119 time=15
Time=26280 Track=11 note_on channel=9 note=40 velocity=127 time=0
Time=26280 Track=11 note_on channel=9 note=42 velocity=126 time=0
Time=26320 Track=5 note_on channel=2 note=65 velocity=0 time=40
Time=26320 Track=11 note_on channel=9 note=42 velocity=0 time=40
Time=26325 Track=5 note_on channel=2 note=60 velocity=0 time=5
Time=26335 Track=3 note_on channel=0 note=29 velocity=0 time=415
Time=26335 Track=4 note_on channel=1 note=29 velocity=0 time=415
Time=26335 Track=11 note_on channel=9 note=40 velocity=0 time=15
Time=26335 Track=11 note_on channel=9 note=36 velocity=0 time=0
Time=26340 Track=3 note_on channel=0 note=29 velocity=102 time=5
Time=26340 Track=4 note_on channel=1 note=29 velocity=100 time=5
Time=26340 Track=11 note_on channel=9 note=46 velocity=121 time=5
Time=26385 Track=11 note_on channel=9 note=46 velocity=0 time=45
Time=26395 Track=3 note_on channel=0 note=29 velocity=0 time=55
Time=26395 Track=4 note_on channel=1 note=29 velocity=0 time=55
Time=26395 Track=5 note_on channel=2 note=72 velocity=0 time=0
Time=26395 Track=10 note_on channel=8 note=53 velocity=0 time=475
Time=26395 Track=10 note_on channel=8 note=41 velocity=0 time=0
Time=26395 Track=12 note_on channel=10 note=41 velocity=0 time=475
Time=26395 Track=13 note_on channel=12 note=53 velocity=0 time=475
Time=26395 Track=13 note_on channel=12 note=48 velocity=0 time=0
Time=26395 Track=13 note_on channel=12 note=41 velocity=0 time=0
Time=26400 Track=3 note_on channel=0 note=36 velocity=102 time=5
Time=26400 Track=4 note_on channel=1 note=36 velocity=100 time=5
Time=26400 Track=5 note_on channel=2 note=72 velocity=105 time=5
Time=26400 Track=5 note_on channel=2 note=64 velocity=105 time=0
Time=26400 Track=5 note_on channel=2 note=60 velocity=105 time=0
Time=26400 Track=10 note_on channel=8 note=48 velocity=100 time=5
Time=26400 Track=10 note_on channel=8 note=60 velocity=100 time=0
Time=26400 Track=11 note_on channel=9 note=36 velocity=121 time=15
Time=26400 Track=11 note_on channel=9 note=42 velocity=112 time=0
Time=26400 Track=11 note_on channel=9 note=49 velocity=92 time=0
Time=26400 Track=12 note_on channel=10 note=48 velocity=107 time=5
Time=26400 Track=13 note_on channel=12 note=48 velocity=107 time=5
Time=26400 Track=13 note_on channel=12 note=55 velocity=107 time=0
Time=26400 Track=13 note_on channel=12 note=60 velocity=107 time=0
Time=26435 Track=11 note_on channel=9 note=42 velocity=0 time=35
Time=26440 Track=5 note_on channel=2 note=60 velocity=0 time=40
Time=26445 Track=5 note_on channel=2 note=64 velocity=0 time=5
Time=26455 Track=11 note_on channel=9 note=49 velocity=0 time=20
Time=26455 Track=11 note_on channel=9 note=36 velocity=0 time=0
Time=26460 Track=11 note_on channel=9 note=42 velocity=83 time=5
Time=26505 Track=11 note_on channel=9 note=42 velocity=0 time=45
Time=26515 Track=5 note_on channel=2 note=72 velocity=0 time=0
Time=26520 Track=5 note_on channel=2 note=64 velocity=95 time=5
Time=26520 Track=5 note_on channel=2 note=60 velocity=95 time=0
Time=26520 Track=5 note_on channel=2 note=72 velocity=100 time=0
Time=26520 Track=11 note_on channel=9 note=36 velocity=120 time=15
Time=26520 Track=11 note_on channel=9 note=40 velocity=127 time=0
Time=26520 Track=11 note_on channel=9 note=42 velocity=125 time=0
Time=26545 Track=5 note_on channel=2 note=72 velocity=0 time=20
Time=26550 Track=5 note_on channel=2 note=72 velocity=100 time=5
Time=26570 Track=11 note_on channel=9 note=42 velocity=0 time=50
Time=26575 Track=5 note_on channel=2 note=72 velocity=0 time=0
Time=26575 Track=5 note_on channel=2 note=60 velocity=0 time=0
Time=26575 Track=11 note_on channel=9 note=40 velocity=0 time=5
Time=26575 Track=11 note_on channel=9 note=36 velocity=0 time=0
Time=26580 Track=5 note_on channel=2 note=64 velocity=95 time=5
Time=26580 Track=5 note_on channel=2 note=60 velocity=95 time=0
Time=26580 Track=5 note_on channel=2 note=72 velocity=100 time=0
Time=26580 Track=5 note_on channel=2 note=64 velocity=0 time=0
Time=26580 Track=11 note_on channel=9 note=42 velocity=93 time=5
Time=26605 Track=5 note_on channel=2 note=72 velocity=0 time=0
Time=26610 Track=5 note_on channel=2 note=72 velocity=100 time=5
Time=26625 Track=11 note_on channel=9 note=42 velocity=0 time=45
Time=26635 Track=5 note_on channel=2 note=72 velocity=0 time=0
Time=26635 Track=5 note_on channel=2 note=60 velocity=0 time=0
Time=26640 Track=5 note_on channel=2 note=64 velocity=94 time=5
Time=26640 Track=5 note_on channel=2 note=60 velocity=94 time=0
Time=26640 Track=5 note_on channel=2 note=72 velocity=99 time=0
Time=26640 Track=5 note_on channel=2 note=64 velocity=0 time=0
Time=26640 Track=11 note_on channel=9 note=36 velocity=120 time=15
Time=26640 Track=11 note_on channel=9 note=42 velocity=114 time=0
Time=26665 Track=5 note_on channel=2 note=72 velocity=0 time=0
Time=26670 Track=5 note_on channel=2 note=72 velocity=99 time=5
Time=26685 Track=11 note_on channel=9 note=42 velocity=0 time=45
Time=26695 Track=5 note_on channel=2 note=72 velocity=0 time=0
Time=26695 Track=5 note_on channel=2 note=60 velocity=0 time=0
Time=26695 Track=11 note_on channel=9 note=36 velocity=0 time=10
Time=26700 Track=5 note_on channel=2 note=64 velocity=94 time=5
Time=26700 Track=5 note_on channel=2 note=60 velocity=94 time=0
Time=26700 Track=5 note_on channel=2 note=72 velocity=99 time=0
Time=26700 Track=5 note_on channel=2 note=64 velocity=0 time=0
Time=26700 Track=11 note_on channel=9 note=42 velocity=94 time=5
Time=26725 Track=5 note_on channel=2 note=72 velocity=0 time=5
Time=26730 Track=5 note_on channel=2 note=72 velocity=99 time=5
Time=26745 Track=11 note_on channel=9 note=42 velocity=0 time=45
Time=26755 Track=5 note_on channel=2 note=72 velocity=0 time=0
Time=26755 Track=5 note_on channel=2 note=60 velocity=0 time=0
Time=26760 Track=5 note_on channel=2 note=64 velocity=93 time=5
Time=26760 Track=5 note_on channel=2 note=60 velocity=93 time=0
Time=26760 Track=5 note_on channel=2 note=72 velocity=98 time=0
Time=26760 Track=5 note_on channel=2 note=64 velocity=0 time=0
Time=26760 Track=11 note_on channel=9 note=36 velocity=119 time=15
Time=26760 Track=11 note_on channel=9 note=40 velocity=127 time=0
Time=26760 Track=11 note_on channel=9 note=42 velocity=126 time=0
Time=26785 Track=5 note_on channel=2 note=72 velocity=0 time=5
Time=26790 Track=5 note_on channel=2 note=72 velocity=98 time=5
Time=26800 Track=11 note_on channel=9 note=42 velocity=0 time=40
Time=26810 Track=3 note_on channel=0 note=36 velocity=0 time=410
Time=26810 Track=4 note_on channel=1 note=36 velocity=0 time=410
Time=26815 Track=5 note_on channel=2 note=72 velocity=0 time=0
Time=26815 Track=5 note_on channel=2 note=60 velocity=0 time=0
Time=26815 Track=11 note_on channel=9 note=40 velocity=0 time=15
Time=26815 Track=11 note_on channel=9 note=36 velocity=0 time=0
Time=26820 Track=3 note_on channel=0 note=36 velocity=101 time=10
Time=26820 Track=4 note_on channel=1 note=36 velocity=99 time=10
Time=26820 Track=5 note_on channel=2 note=64 velocity=93 time=5
Time=26820 Track=5 note_on channel=2 note=60 velocity=93 time=0
Time=26820 Track=5 note_on channel=2 note=72 velocity=98 time=0
Time=26820 Track=5 note_on channel=2 note=64 velocity=0 time=0
Time=26820 Track=11 note_on channel=9 note=46 velocity=121 time=5
Time=26845 Track=5 note_on channel=2 note=72 velocity=0 time=0
Time=26850 Track=5 note_on channel=2 note=72 velocity=98 time=5
Time=26860 Track=5 note_on channel=2 note=60 velocity=0 time=10
Time=26865 Track=5 note_on channel=2 note=64 velocity=0 time=5
Time=26865 Track=11 note_on channel=9 note=46 velocity=0 time=45
Time=26870 Track=3 note_on channel=0 note=36 velocity=0 time=50
Time=26870 Track=5 note_on channel=2 note=50 velocity=101 time=5
Time=26870 Track=6 note_on channel=3 note=50 velocity=101 time=1610
Time=26875 Track=4 note_on channel=1 note=36 velocity=0 time=55
Time=26875 Track=5 note_on channel=2 note=62 velocity=104 time=5
Time=26875 Track=5 note_on channel=2 note=57 velocity=91 time=0
Time=26875 Track=6 note_on channel=3 note=62 velocity=104 time=5
Time=26875 Track=6 note_on channel=3 note=57 velocity=91 time=0
Time=26875 Track=10 note_on channel=8 note=60 velocity=0 time=475
Time=26875 Track=10 note_on channel=8 note=48 velocity=0 time=0
Time=26875 Track=12 note_on channel=10 note=48 velocity=0 time=475
Time=26875 Track=13 note_on channel=12 note=60 velocity=0 time=475
Time=26875 Track=13 note_on channel=12 note=55 velocity=0 time=0
Time=26875 Track=13 note_on channel=12 note=48 velocity=0 time=0
Time=26880 Track=3 note_on channel=0 note=38 velocity=103 time=10
Time=26880 Track=4 note_on channel=1 note=38 velocity=101 time=5
Time=26880 Track=5 note_on channel=2 note=65 velocity=94 time=5
Time=26880 Track=6 note_on channel=3 note=65 velocity=94 time=5
Time=26880 Track=10 note_on channel=8 note=50 velocity=100 time=5
Time=26880 Track=10 note_on channel=8 note=62 velocity=100 time=0
Time=26880 Track=11 note_on channel=9 note=36 velocity=121 time=15
Time=26880 Track=11 note_on channel=9 note=42 velocity=112 time=0
Time=26880 Track=11 note_on channel=9 note=49 velocity=92 time=0
Time=26880 Track=12 note_on channel=10 note=50 velocity=106 time=5
Time=26880 Track=13 note_on channel=12 note=62 velocity=106 time=5
Time=26880 Track=13 note_on channel=12 note=50 velocity=106 time=0
Time=26880 Track=13 note_on channel=12 note=57 velocity=106 time=0
Time=26885 Track=5 note_on channel=2 note=69 velocity=96 time=5
Time=26885 Track=6 note_on channel=3 note=69 velocity=96 time=5
Time=26915 Track=11 note_on channel=9 note=42 velocity=0 time=35
Time=26935 Track=11 note_on channel=9 note=49 velocity=0 time=20
Time=26935 Track=11 note_on channel=9 note=36 velocity=0 time=0
Time=26940 Track=11 note_on channel=9 note=42 velocity=83 time=5
Time=26965 Track=5 note_on channel=2 note=65 velocity=108 time=80
Time=26965 Track=5 note_on channel=2 note=65 velocity=0 time=0
Time=26965 Track=6 note_on channel=3 note=65 velocity=108 time=80
Time=26965 Track=6 note_on channel=3 note=65 velocity=0 time=0
Time=26965 Track=7 note_on channel=4 note=65 velocity=107 time=0
Time=26970 Track=5 note_on channel=2 note=62 velocity=97 time=5
Time=26970 Track=5 note_on channel=2 note=62 velocity=0 time=0
Time=26970 Track=6 note_on channel=3 note=62 velocity=97 time=5
Time=26970 Track=6 note_on channel=3 note=62 velocity=0 time=0
Time=26970 Track=7 note_on channel=4 note=62 velocity=105 time=5
Time=26970 Track=7 note_on channel=4 note=65 velocity=0 time=0
Time=26975 Track=7 note_on channel=4 note=62 velocity=0 time=5
Time=26985 Track=11 note_on channel=9 note=42 velocity=0 time=45
Time=26990 Track=5 note_on channel=2 note=57 velocity=0 time=20
Time=26990 Track=6 note_on channel=3 note=57 velocity=0 time=20
Time=26990 Track=7 note_on channel=4 note=57 velocity=107 time=0
Time=26995 Track=3 note_on channel=0 note=38 velocity=0 time=115
Time=26995 Track=4 note_on channel=1 note=38 velocity=0 time=115
Time=26995 Track=5 note_on channel=2 note=57 velocity=100 time=5
Time=26995 Track=5 note_on channel=2 note=62 velocity=108 time=0
Time=26995 Track=5 note_on channel=2 note=69 velocity=0 time=0
Time=26995 Track=5 note_on channel=2 note=62 velocity=0 time=0
Time=26995 Track=6 note_on channel=3 note=57 velocity=100 time=5
Time=26995 Track=6 note_on channel=3 note=62 velocity=108 time=0
Time=26995 Track=6 note_on channel=3 note=69 velocity=0 time=0
Time=26995 Track=6 note_on channel=3 note=62 velocity=0 time=0
Time=26995 Track=7 note_on channel=4 note=62 velocity=107 time=5
Time=27000 Track=5 note_on channel=2 note=65 velocity=90 time=5
Time=27000 Track=5 note_on channel=2 note=65 velocity=0 time=0
Time=27000 Track=6 note_on channel=3 note=65 velocity=90 time=5
Time=27000 Track=6 note_on channel=3 note=65 velocity=0 time=0
Time=27000 Track=7 note_on channel=4 note=65 velocity=98 time=5
Time=27000 Track=7 note_on channel=4 note=57 velocity=0 time=0
Time=27000 Track=11 note_on channel=9 note=36 velocity=120 time=15
Time=27000 Track=11 note_on channel=9 note=40 velocity=127 time=0
Time=27000 Track=11 note_on channel=9 note=42 velocity=125 time=0
Time=27005 Track=7 note_on channel=4 note=65 velocity=0 time=5
Time=27005 Track=7 note_on channel=4 note=62 velocity=0 time=0
Time=27015 Track=5 note_on channel=2 note=50 velocity=0 time=15
Time=27015 Track=6 note_on channel=3 note=50 velocity=0 time=15
Time=27030 Track=5 note_on channel=2 note=57 velocity=0 time=15
Time=27030 Track=6 note_on channel=3 note=57 velocity=0 time=15
Time=27050 Track=5 note_on channel=2 note=57 velocity=89 time=20
Time=27050 Track=5 note_on channel=2 note=65 velocity=0 time=0
Time=27050 Track=6 note_on channel=3 note=57 velocity=89 time=20
Time=27050 Track=6 note_on channel=3 note=65 velocity=0 time=0
Time=27050 Track=11 note_on channel=9 note=42 velocity=0 time=50
Time=27055 Track=5 note_on channel=2 note=60 velocity=116 time=5
Time=27055 Track=6 note_on channel=3 note=60 velocity=116 time=5
Time=27055 Track=11 note_on channel=9 note=40 velocity=0 time=5
Time=27055 Track=11 note_on channel=9 note=36 velocity=0 time=0
Time=27060 Track=3 note_on channel=0 note=36 velocity=102 time=65
Time=27060 Track=4 note_on channel=1 note=36 velocity=101 time=65
Time=27060 Track=5 note_on channel=2 note=65 velocity=106 time=5
Time=27060 Track=6 note_on channel=3 note=65 velocity=106 time=5
Time=27060 Track=11 note_on channel=9 note=42 velocity=93 time=5
Time=27065 Track=5 note_on channel=2 note=62 velocity=0 time=5
Time=27065 Track=6 note_on channel=3 note=62 velocity=0 time=5
Time=27105 Track=11 note_on channel=9 note=42 velocity=0 time=45
Time=27115 Track=3 note_on channel=0 note=36 velocity=0 time=55
Time=27115 Track=4 note_on channel=1 note=36 velocity=0 time=55
Time=27115 Track=5 note_on channel=2 note=57 velocity=91 time=50
Time=27115 Track=5 note_on channel=2 note=62 velocity=113 time=0
Time=27115 Track=5 note_on channel=2 note=60 velocity=0 time=0
Time=27115 Track=5 note_on channel=2 note=57 velocity=0 time=0
Time=27115 Track=6 note_on channel=3 note=57 velocity=91 time=50
Time=27115 Track=6 note_on channel=3 note=62 velocity=113 time=0
Time=27115 Track=6 note_on channel=3 note=57 velocity=0 time=0
Time=27115 Track=6 note_on channel=3 note=60 velocity=0 time=0
Time=27115 Track=7 note_on channel=4 note=57 velocity=99 time=5
Time=27115 Track=7 note_on channel=4 note=62 velocity=107 time=0
Time=27120 Track=3 note_on channel=0 note=38 velocity=102 time=5
Time=27120 Track=4 note_on channel=1 note=38 velocity=101 time=5
Time=27120 Track=5 note_on channel=2 note=65 velocity=96 time=5
Time=27120 Track=5 note_on channel=2 note=65 velocity=0 time=0
Time=27120 Track=6 note_on channel=3 note=65 velocity=96 time=5
Time=27120 Track=6 note_on channel=3 note=65 velocity=0 time=0
Time=27120 Track=7 note_on channel=4 note=65 velocity=104 time=5
Time=27120 Track=11 note_on channel=9 note=36 velocity=120 time=15
Time=27120 Track=11 note_on channel=9 note=42 velocity=114 time=0
Time=27125 Track=7 note_on channel=4 note=65 velocity=0 time=5
Time=27125 Track=7 note_on channel=4 note=62 velocity=0 time=0
Time=27125 Track=7 note_on channel=4 note=57 velocity=0 time=0
Time=27145 Track=5 note_on channel=2 note=65 velocity=115 time=25
Time=27145 Track=5 note_on channel=2 note=65 velocity=0 time=0
Time=27145 Track=6 note_on channel=3 note=65 velocity=115 time=25
Time=27145 Track=6 note_on channel=3 note=65 velocity=0 time=0
Time=27145 Track=7 note_on channel=4 note=65 velocity=107 time=20
Time=27150 Track=5 note_on channel=2 note=62 velocity=94 time=5
Time=27150 Track=5 note_on channel=2 note=62 velocity=0 time=0
Time=27150 Track=6 note_on channel=3 note=62 velocity=94 time=5
Time=27150 Track=6 note_on channel=3 note=62 velocity=0 time=0
Time=27150 Track=7 note_on channel=4 note=62 velocity=102 time=5
Time=27155 Track=7 note_on channel=4 note=62 velocity=0 time=5
Time=27155 Track=7 note_on channel=4 note=65 velocity=0 time=0
Time=27160 Track=4 note_on channel=1 note=38 velocity=0 time=40
Time=27165 Track=3 note_on channel=0 note=38 velocity=0 time=45
Time=27165 Track=11 note_on channel=9 note=42 velocity=0 time=45
Time=27175 Track=7 note_on channel=4 note=65 velocity=78 time=20
Time=27175 Track=11 note_on channel=9 note=36 velocity=0 time=10
Time=27176 Track=7 note_on channel=4 note=65 velocity=0 time=1
Time=27180 Track=5 note_on channel=2 note=62 velocity=1 time=30
Time=27180 Track=5 note_on channel=2 note=65 velocity=0 time=0
Time=27180 Track=5 note_on channel=2 note=62 velocity=0 time=0
Time=27180 Track=5 note_on channel=2 note=57 velocity=0 time=0
Time=27180 Track=6 note_on channel=3 note=62 velocity=1 time=30
Time=27180 Track=6 note_on channel=3 note=65 velocity=0 time=0
Time=27180 Track=6 note_on channel=3 note=62 velocity=0 time=0
Time=27180 Track=6 note_on channel=3 note=57 velocity=0 time=0
Time=27180 Track=7 note_on channel=4 note=62 velocity=78 time=4
Time=27180 Track=11 note_on channel=9 note=42 velocity=94 time=5
Time=27181 Track=6 note_on channel=3 note=62 velocity=0 time=1
Time=27181 Track=7 note_on channel=4 note=62 velocity=0 time=1
Time=27185 Track=5 note_on channel=2 note=62 velocity=0 time=5
Time=27205 Track=7 note_on channel=4 note=65 velocity=76 time=24
Time=27206 Track=7 note_on channel=4 note=65 velocity=0 time=1
Time=27210 Track=5 note_on channel=2 note=65 velocity=1 time=25
Time=27210 Track=5 note_on channel=2 note=62 velocity=1 time=0
Time=27210 Track=6 note_on channel=3 note=65 velocity=1 time=29
Time=27210 Track=6 note_on channel=3 note=62 velocity=1 time=0
Time=27210 Track=7 note_on channel=4 note=62 velocity=76 time=4
Time=27211 Track=5 note_on channel=2 note=62 velocity=0 time=1
Time=27211 Track=5 note_on channel=2 note=65 velocity=0 time=0
Time=27211 Track=6 note_on channel=3 note=62 velocity=0 time=1
Time=27211 Track=6 note_on channel=3 note=65 velocity=0 time=0
Time=27211 Track=7 note_on channel=4 note=62 velocity=0 time=1
Time=27225 Track=11 note_on channel=9 note=42 velocity=0 time=45
Time=27230 Track=7 note_on channel=4 note=57 velocity=98 time=19
Time=27235 Track=5 note_on channel=2 note=57 velocity=90 time=24
Time=27235 Track=5 note_on channel=2 note=62 velocity=115 time=0
Time=27235 Track=6 note_on channel=3 note=57 velocity=90 time=24
Time=27235 Track=6 note_on channel=3 note=62 velocity=115 time=0
Time=27235 Track=7 note_on channel=4 note=62 velocity=107 time=0
Time=27235 Track=7 note_on channel=4 note=65 velocity=105 time=0
Time=27240 Track=5 note_on channel=2 note=65 velocity=97 time=5
Time=27240 Track=5 note_on channel=2 note=69 velocity=96 time=0
Time=27240 Track=6 note_on channel=3 note=65 velocity=97 time=5
Time=27240 Track=6 note_on channel=3 note=69 velocity=96 time=0
Time=27240 Track=7 note_on channel=4 note=69 velocity=104 time=5
Time=27240 Track=7 note_on channel=4 note=57 velocity=0 time=0
Time=27240 Track=11 note_on channel=9 note=36 velocity=119 time=15
Time=27240 Track=11 note_on channel=9 note=40 velocity=127 time=0
Time=27240 Track=11 note_on channel=9 note=42 velocity=126 time=0
Time=27245 Track=7 note_on channel=4 note=62 velocity=0 time=5
Time=27245 Track=7 note_on channel=4 note=65 velocity=0 time=0
Time=27245 Track=7 note_on channel=4 note=69 velocity=0 time=0
Time=27265 Track=5 note_on channel=2 note=65 velocity=118 time=25
Time=27265 Track=5 note_on channel=2 note=65 velocity=0 time=0
Time=27265 Track=6 note_on channel=3 note=65 velocity=118 time=25
Time=27265 Track=6 note_on channel=3 note=65 velocity=0 time=0
Time=27265 Track=7 note_on channel=4 note=65 velocity=107 time=20
Time=27270 Track=5 note_on channel=2 note=62 velocity=91 time=5
Time=27270 Track=5 note_on channel=2 note=62 velocity=0 time=0
Time=27270 Track=6 note_on channel=3 note=62 velocity=91 time=5
Time=27270 Track=6 note_on channel=3 note=62 velocity=0 time=0
Time=27270 Track=7 note_on channel=4 note=62 velocity=99 time=5
Time=27275 Track=7 note_on channel=4 note=62 velocity=0 time=5
Time=27275 Track=7 note_on channel=4 note=65 velocity=0 time=0
Time=27280 Track=5 note_on channel=2 note=57 velocity=0 time=10
Time=27280 Track=6 note_on channel=3 note=57 velocity=0 time=10
Time=27280 Track=11 note_on channel=9 note=42 velocity=0 time=40
Time=27290 Track=6 note_on channel=3 note=65 velocity=0 time=10
Time=27295 Track=5 note_on channel=2 note=65 velocity=0 time=15
Time=27295 Track=11 note_on channel=9 note=40 velocity=0 time=15
Time=27295 Track=11 note_on channel=9 note=36 velocity=0 time=0
Time=27300 Track=5 note_on channel=2 note=62 velocity=1 time=5
Time=27300 Track=5 note_on channel=2 note=65 velocity=1 time=0
Time=27300 Track=5 note_on channel=2 note=69 velocity=0 time=0
Time=27300 Track=5 note_on channel=2 note=62 velocity=0 time=0
Time=27300 Track=6 note_on channel=3 note=62 velocity=1 time=10
Time=27300 Track=6 note_on channel=3 note=65 velocity=1 time=0
Time=27300 Track=6 note_on channel=3 note=69 velocity=0 time=0
Time=27300 Track=6 note_on channel=3 note=62 velocity=0 time=0
Time=27300 Track=7 note_on channel=4 note=62 velocity=72 time=25
Time=27300 Track=7 note_on channel=4 note=65 velocity=72 time=0
Time=27300 Track=11 note_on channel=9 note=46 velocity=121 time=5
Time=27301 Track=5 note_on channel=2 note=65 velocity=0 time=1
Time=27301 Track=6 note_on channel=3 note=62 velocity=0 time=1
Time=27301 Track=6 note_on channel=3 note=65 velocity=0 time=0
Time=27301 Track=7 note_on channel=4 note=65 velocity=0 time=1
Time=27301 Track=7 note_on channel=4 note=62 velocity=0 time=0
Time=27305 Track=5 note_on channel=2 note=62 velocity=0 time=4
Time=27330 Track=5 note_on channel=2 note=65 velocity=1 time=25
Time=27330 Track=6 note_on channel=3 note=65 velocity=1 time=29
Time=27330 Track=7 note_on channel=4 note=65 velocity=71 time=29
Time=27330 Track=7 note_on channel=4 note=62 velocity=71 time=0
Time=27331 Track=5 note_on channel=2 note=65 velocity=0 time=1
Time=27331 Track=6 note_on channel=3 note=65 velocity=0 time=1
Time=27331 Track=7 note_on channel=4 note=62 velocity=0 time=1
Time=27331 Track=7 note_on channel=4 note=65 velocity=0 time=0
Time=27345 Track=11 note_on channel=9 note=46 velocity=0 time=45
Time=27350 Track=5 note_on channel=2 note=50 velocity=101 time=19
Time=27350 Track=6 note_on channel=3 note=50 velocity=101 time=19
Time=27355 Track=5 note_on channel=2 note=62 velocity=104 time=5
Time=27355 Track=5 note_on channel=2 note=57 velocity=91 time=0
Time=27355 Track=6 note_on channel=3 note=62 velocity=104 time=5
Time=27355 Track=6 note_on channel=3 note=57 velocity=91 time=0
Time=27360 Track=3 note_on channel=0 note=38 velocity=101 time=195
Time=27360 Track=4 note_on channel=1 note=38 velocity=100 time=200
Time=27360 Track=5 note_on channel=2 note=65 velocity=94 time=5
Time=27360 Track=6 note_on channel=3 note=65 velocity=94 time=5
Time=27360 Track=11 note_on channel=9 note=36 velocity=121 time=15
Time=27360 Track=11 note_on channel=9 note=42 velocity=112 time=0
Time=27365 Track=5 note_on channel=2 note=69 velocity=96 time=5
Time=27365 Track=6 note_on channel=3 note=69 velocity=96 time=5
Time=27395 Track=11 note_on channel=9 note=42 velocity=0 time=35
Time=27415 Track=11 note_on channel=9 note=36 velocity=0 time=20
Time=27420 Track=11 note_on channel=9 note=42 velocity=83 time=5
Time=27445 Track=5 note_on channel=2 note=65 velocity=108 time=80
Time=27445 Track=5 note_on channel=2 note=65 velocity=0 time=0
Time=27445 Track=6 note_on channel=3 note=65 velocity=108 time=80
Time=27445 Track=6 note_on channel=3 note=65 velocity=0 time=0
Time=27445 Track=7 note_on channel=4 note=65 velocity=107 time=0
Time=27450 Track=5 note_on channel=2 note=62 velocity=97 time=5
Time=27450 Track=5 note_on channel=2 note=62 velocity=0 time=0
Time=27450 Track=6 note_on channel=3 note=62 velocity=97 time=5
Time=27450 Track=6 note_on channel=3 note=62 velocity=0 time=0
Time=27450 Track=7 note_on channel=4 note=62 velocity=105 time=5
Time=27450 Track=7 note_on channel=4 note=65 velocity=0 time=0
Time=27455 Track=7 note_on channel=4 note=62 velocity=0 time=5
Time=27465 Track=11 note_on channel=9 note=42 velocity=0 time=45
Time=27470 Track=5 note_on channel=2 note=57 velocity=0 time=20
Time=27470 Track=6 note_on channel=3 note=57 velocity=0 time=20
Time=27470 Track=7 note_on channel=4 note=57 velocity=107 time=0
Time=27475 Track=3 note_on channel=0 note=38 velocity=0 time=115
Time=27475 Track=4 note_on channel=1 note=38 velocity=0 time=115
Time=27475 Track=5 note_on channel=2 note=57 velocity=100 time=5
Time=27475 Track=5 note_on channel=2 note=62 velocity=108 time=0
Time=27475 Track=5 note_on channel=2 note=69 velocity=0 time=0
Time=27475 Track=5 note_on channel=2 note=62 velocity=0 time=0
Time=27475 Track=6 note_on channel=3 note=57 velocity=100 time=5
Time=27475 Track=6 note_on channel=3 note=62 velocity=108 time=0
Time=27475 Track=6 note_on channel=3 note=69 velocity=0 time=0
Time=27475 Track=6 note_on channel=3 note=62 velocity=0 time=0
Time=27475 Track=7 note_on channel=4 note=62 velocity=107 time=5
Time=27480 Track=5 note_on channel=2 note=65 velocity=90 time=5
Time=27480 Track=5 note_on channel=2 note=65 velocity=0 time=0
Time=27480 Track=6 note_on channel=3 note=65 velocity=90 time=5
Time=27480 Track=6 note_on channel=3 note=65 velocity=0 time=0
Time=27480 Track=7 note_on channel=4 note=65 velocity=98 time=5
Time=27480 Track=7 note_on channel=4 note=57 velocity=0 time=0
Time=27480 Track=11 note_on channel=9 note=36 velocity=120 time=15
Time=27480 Track=11 note_on channel=9 note=40 velocity=127 time=0
Time=27480 Track=11 note_on channel=9 note=42 velocity=125 time=0
Time=27485 Track=7 note_on channel=4 note=65 velocity=0 time=5
Time=27485 Track=7 note_on channel=4 note=62 velocity=0 time=0
Time=27495 Track=5 note_on channel=2 note=50 velocity=0 time=15
Time=27495 Track=6 note_on channel=3 note=50 velocity=0 time=15
Time=27510 Track=5 note_on channel=2 note=57 velocity=0 time=15
Time=27510 Track=6 note_on channel=3 note=57 velocity=0 time=15
Time=27530 Track=5 note_on channel=2 note=57 velocity=89 time=20
Time=27530 Track=5 note_on channel=2 note=65 velocity=0 time=0
Time=27530 Track=6 note_on channel=3 note=57 velocity=89 time=20
Time=27530 Track=6 note_on channel=3 note=65 velocity=0 time=0
Time=27530 Track=11 note_on channel=9 note=42 velocity=0 time=50
Time=27535 Track=5 note_on channel=2 note=60 velocity=116 time=5
Time=27535 Track=6 note_on channel=3 note=60 velocity=116 time=5
Time=27535 Track=11 note_on channel=9 note=40 velocity=0 time=5
Time=27535 Track=11 note_on channel=9 note=36 velocity=0 time=0
Time=27540 Track=3 note_on channel=0 note=38 velocity=101 time=65
Time=27540 Track=4 note_on channel=1 note=38 velocity=99 time=65
Time=27540 Track=5 note_on channel=2 note=65 velocity=106 time=5
Time=27540 Track=6 note_on channel=3 note=65 velocity=106 time=5
Time=27540 Track=11 note_on channel=9 note=42 velocity=93 time=5
Time=27545 Track=5 note_on channel=2 note=62 velocity=0 time=5
Time=27545 Track=6 note_on channel=3 note=62 velocity=0 time=5
Time=27585 Track=3 note_on channel=0 note=38 velocity=0 time=45
Time=27585 Track=4 note_on channel=1 note=38 velocity=0 time=45
Time=27585 Track=11 note_on channel=9 note=42 velocity=0 time=45
Time=27595 Track=5 note_on channel=2 note=57 velocity=91 time=50
Time=27595 Track=5 note_on channel=2 note=62 velocity=113 time=0
Time=27595 Track=5 note_on channel=2 note=60 velocity=0 time=0
Time=27595 Track=5 note_on channel=2 note=57 velocity=0 time=0
Time=27595 Track=6 note_on channel=3 note=57 velocity=91 time=50
Time=27595 Track=6 note_on channel=3 note=62 velocity=113 time=0
Time=27595 Track=6 note_on channel=3 note=57 velocity=0 time=0
Time=27595 Track=6 note_on channel=3 note=60 velocity=0 time=0
Time=27595 Track=7 note_on channel=4 note=57 velocity=99 time=5
Time=27595 Track=7 note_on channel=4 note=62 velocity=107 time=0
Time=27600 Track=3 note_on channel=0 note=33 velocity=101 time=15
Time=27600 Track=4 note_on channel=1 note=33 velocity=99 time=15
Time=27600 Track=5 note_on channel=2 note=65 velocity=96 time=5
Time=27600 Track=5 note_on channel=2 note=65 velocity=0 time=0
Time=27600 Track=6 note_on channel=3 note=65 velocity=96 time=5
Time=27600 Track=6 note_on channel=3 note=65 velocity=0 time=0
Time=27600 Track=7 note_on channel=4 note=65 velocity=104 time=5
Time=27600 Track=11 note_on channel=9 note=36 velocity=120 time=15
Time=27600 Track=11 note_on channel=9 note=42 velocity=114 time=0
Time=27605 Track=7 note_on channel=4 note=65 velocity=0 time=5
Time=27605 Track=7 note_on channel=4 note=62 velocity=0 time=0
Time=27605 Track=7 note_on channel=4 note=57 velocity=0 time=0
Time=27625 Track=5 note_on channel=2 note=65 velocity=115 time=25
Time=27625 Track=5 note_on channel=2 note=65 velocity=0 time=0
Time=27625 Track=6 note_on channel=3 note=65 velocity=115 time=25
Time=27625 Track=6 note_on channel=3 note=65 velocity=0 time=0
Time=27625 Track=7 note_on channel=4 note=65 velocity=107 time=20
Time=27630 Track=5 note_on channel=2 note=62 velocity=94 time=5
Time=27630 Track=5 note_on channel=2 note=62 velocity=0 time=0
Time=27630 Track=6 note_on channel=3 note=62 velocity=94 time=5
Time=27630 Track=6 note_on channel=3 note=62 velocity=0 time=0
Time=27630 Track=7 note_on channel=4 note=62 velocity=102 time=5
Time=27635 Track=7 note_on channel=4 note=62 velocity=0 time=5
Time=27635 Track=7 note_on channel=4 note=65 velocity=0 time=0
Time=27645 Track=11 note_on channel=9 note=42 velocity=0 time=45
Time=27655 Track=7 note_on channel=4 note=65 velocity=78 time=20
Time=27655 Track=11 note_on channel=9 note=36 velocity=0 time=10
Time=27656 Track=7 note_on channel=4 note=65 velocity=0 time=1
Time=27660 Track=5 note_on channel=2 note=62 velocity=1 time=30
Time=27660 Track=5 note_on channel=2 note=65 velocity=0 time=0
Time=27660 Track=5 note_on channel=2 note=62 velocity=0 time=0
Time=27660 Track=5 note_on channel=2 note=57 velocity=0 time=0
Time=27660 Track=6 note_on channel=3 note=62 velocity=1 time=30
Time=27660 Track=6 note_on channel=3 note=65 velocity=0 time=0
Time=27660 Track=6 note_on channel=3 note=62 velocity=0 time=0
Time=27660 Track=6 note_on channel=3 note=57 velocity=0 time=0
Time=27660 Track=7 note_on channel=4 note=62 velocity=78 time=4
Time=27660 Track=11 note_on channel=9 note=42 velocity=94 time=5
Time=27661 Track=6 note_on channel=3 note=62 velocity=0 time=1
Time=27661 Track=7 note_on channel=4 note=62 velocity=0 time=1
Time=27665 Track=5 note_on channel=2 note=62 velocity=0 time=5
Time=27685 Track=7 note_on channel=4 note=65 velocity=76 time=24
Time=27686 Track=7 note_on channel=4 note=65 velocity=0 time=1
Time=27690 Track=5 note_on channel=2 note=65 velocity=1 time=25
Time=27690 Track=5 note_on channel=2 note=62 velocity=1 time=0
Time=27690 Track=6 note_on channel=3 note=65 velocity=1 time=29
Time=27690 Track=6 note_on channel=3 note=62 velocity=1 time=0
Time=27690 Track=7 note_on channel=4 note=62 velocity=76 time=4
Time=27691 Track=5 note_on channel=2 note=62 velocity=0 time=1
Time=27691 Track=5 note_on channel=2 note=65 velocity=0 time=0
Time=27691 Track=6 note_on channel=3 note=62 velocity=0 time=1
Time=27691 Track=6 note_on channel=3 note=65 velocity=0 time=0
Time=27691 Track=7 note_on channel=4 note=62 velocity=0 time=1
Time=27705 Track=11 note_on channel=9 note=42 velocity=0 time=45
Time=27710 Track=7 note_on channel=4 note=57 velocity=98 time=19
Time=27715 Track=3 note_on channel=0 note=33 velocity=0 time=115
Time=27715 Track=4 note_on channel=1 note=33 velocity=0 time=115
Time=27715 Track=5 note_on channel=2 note=57 velocity=90 time=24
Time=27715 Track=5 note_on channel=2 note=62 velocity=115 time=0
Time=27715 Track=6 note_on channel=3 note=57 velocity=90 time=24
Time=27715 Track=6 note_on channel=3 note=62 velocity=115 time=0
Time=27715 Track=7 note_on channel=4 note=62 velocity=107 time=0
Time=27715 Track=7 note_on channel=4 note=65 velocity=105 time=0
Time=27720 Track=3 note_on channel=0 note=31 velocity=100 time=5
Time=27720 Track=4 note_on channel=1 note=31 velocity=99 time=5
Time=27720 Track=5 note_on channel=2 note=65 velocity=97 time=5
Time=27720 Track=5 note_on channel=2 note=69 velocity=96 time=0
Time=27720 Track=6 note_on channel=3 note=65 velocity=97 time=5
Time=27720 Track=6 note_on channel=3 note=69 velocity=96 time=0
Time=27720 Track=7 note_on channel=4 note=69 velocity=104 time=5
Time=27720 Track=7 note_on channel=4 note=57 velocity=0 time=0
Time=27720 Track=11 note_on channel=9 note=36 velocity=119 time=15
Time=27720 Track=11 note_on channel=9 note=40 velocity=127 time=0
Time=27720 Track=11 note_on channel=9 note=42 velocity=126 time=0
Time=27725 Track=7 note_on channel=4 note=62 velocity=0 time=5
Time=27725 Track=7 note_on channel=4 note=65 velocity=0 time=0
Time=27725 Track=7 note_on channel=4 note=69 velocity=0 time=0
Time=27745 Track=5 note_on channel=2 note=65 velocity=118 time=25
Time=27745 Track=5 note_on channel=2 note=65 velocity=0 time=0
Time=27745 Track=6 note_on channel=3 note=65 velocity=118 time=25
Time=27745 Track=6 note_on channel=3 note=65 velocity=0 time=0
Time=27745 Track=7 note_on channel=4 note=65 velocity=107 time=20
Time=27750 Track=5 note_on channel=2 note=62 velocity=91 time=5
Time=27750 Track=5 note_on channel=2 note=62 velocity=0 time=0
Time=27750 Track=6 note_on channel=3 note=62 velocity=91 time=5
Time=27750 Track=6 note_on channel=3 note=62 velocity=0 time=0
Time=27750 Track=7 note_on channel=4 note=62 velocity=99 time=5
Time=27755 Track=7 note_on channel=4 note=62 velocity=0 time=5
Time=27755 Track=7 note_on channel=4 note=65 velocity=0 time=0
Time=27760 Track=5 note_on channel=2 note=57 velocity=0 time=10
Time=27760 Track=6 note_on channel=3 note=57 velocity=0 time=10
Time=27760 Track=11 note_on channel=9 note=42 velocity=0 time=40
Time=27770 Track=6 note_on channel=3 note=65 velocity=0 time=10
Time=27775 Track=5 note_on channel=2 note=65 velocity=0 time=15
Time=27775 Track=11 note_on channel=9 note=40 velocity=0 time=15
Time=27775 Track=11 note_on channel=9 note=36 velocity=0 time=0
Time=27780 Track=5 note_on channel=2 note=62 velocity=1 time=5
Time=27780 Track=5 note_on channel=2 note=65 velocity=1 time=0
Time=27780 Track=5 note_on channel=2 note=69 velocity=0 time=0
Time=27780 Track=5 note_on channel=2 note=62 velocity=0 time=0
Time=27780 Track=6 note_on channel=3 note=62 velocity=1 time=10
Time=27780 Track=6 note_on channel=3 note=65 velocity=1 time=0
Time=27780 Track=6 note_on channel=3 note=69 velocity=0 time=0
Time=27780 Track=6 note_on channel=3 note=62 velocity=0 time=0
Time=27780 Track=7 note_on channel=4 note=62 velocity=72 time=25
Time=27780 Track=7 note_on channel=4 note=65 velocity=72 time=0
Time=27780 Track=11 note_on channel=9 note=46 velocity=121 time=5
Time=27781 Track=5 note_on channel=2 note=65 velocity=0 time=1
Time=27781 Track=6 note_on channel=3 note=62 velocity=0 time=1
Time=27781 Track=6 note_on channel=3 note=65 velocity=0 time=0
Time=27781 Track=7 note_on channel=4 note=65 velocity=0 time=1
Time=27781 Track=7 note_on channel=4 note=62 velocity=0 time=0
Time=27785 Track=5 note_on channel=2 note=62 velocity=0 time=4
Time=27810 Track=5 note_on channel=2 note=65 velocity=1 time=25
Time=27810 Track=6 note_on channel=3 note=65 velocity=1 time=29
Time=27810 Track=7 note_on channel=4 note=65 velocity=71 time=29
Time=27810 Track=7 note_on channel=4 note=62 velocity=71 time=0
Time=27811 Track=5 note_on channel=2 note=65 velocity=0 time=1
Time=27811 Track=6 note_on channel=3 note=65 velocity=0 time=1
Time=27811 Track=7 note_on channel=4 note=62 velocity=0 time=1
Time=27811 Track=7 note_on channel=4 note=65 velocity=0 time=0
Time=27825 Track=11 note_on channel=9 note=46 velocity=0 time=45
Time=27830 Track=6 note_on channel=3 note=50 velocity=101 time=19
Time=27835 Track=3 note_on channel=0 note=31 velocity=0 time=115
Time=27835 Track=4 note_on channel=1 note=31 velocity=0 time=115
Time=27835 Track=5 note_on channel=2 note=72 velocity=0 time=24
Time=27835 Track=6 note_on channel=3 note=62 velocity=104 time=5
Time=27835 Track=6 note_on channel=3 note=57 velocity=91 time=0
Time=27835 Track=10 note_on channel=8 note=62 velocity=0 time=955
Time=27835 Track=10 note_on channel=8 note=50 velocity=0 time=0
Time=27835 Track=12 note_on channel=10 note=50 velocity=0 time=955
Time=27835 Track=13 note_on channel=12 note=50 velocity=0 time=955
Time=27835 Track=13 note_on channel=12 note=62 velocity=0 time=0
Time=27840 Track=3 note_on channel=0 note=29 velocity=103 time=5
Time=27840 Track=4 note_on channel=1 note=29 velocity=101 time=5
Time=27840 Track=5 note_on channel=2 note=72 velocity=107 time=5
Time=27840 Track=5 note_on channel=2 note=60 velocity=107 time=0
Time=27840 Track=5 note_on channel=2 note=65 velocity=107 time=0
Time=27840 Track=10 note_on channel=8 note=41 velocity=100 time=5
Time=27840 Track=10 note_on channel=8 note=53 velocity=100 time=0
Time=27840 Track=11 note_on channel=9 note=36 velocity=121 time=15
Time=27840 Track=11 note_on channel=9 note=42 velocity=112 time=0
Time=27840 Track=11 note_on channel=9 note=49 velocity=92 time=0
Time=27840 Track=12 note_on channel=10 note=41 velocity=106 time=5
Time=27840 Track=13 note_on channel=12 note=41 velocity=105 time=5
Time=27840 Track=13 note_on channel=12 note=53 velocity=105 time=0
Time=27840 Track=13 note_on channel=12 note=48 velocity=105 time=0
Time=27840 Track=13 note_on channel=12 note=57 velocity=0 time=0
Time=27875 Track=11 note_on channel=9 note=42 velocity=0 time=35
Time=27890 Track=5 note_on channel=2 note=65 velocity=0 time=50
Time=27890 Track=5 note_on channel=2 note=60 velocity=0 time=0
Time=27895 Track=11 note_on channel=9 note=49 velocity=0 time=20
Time=27895 Track=11 note_on channel=9 note=36 velocity=0 time=0
Time=27900 Track=11 note_on channel=9 note=42 velocity=83 time=5
Time=27930 Track=6 note_on channel=3 note=62 velocity=0 time=95
Time=27945 Track=11 note_on channel=9 note=42 velocity=0 time=45
Time=27950 Track=6 note_on channel=3 note=57 velocity=0 time=20
Time=27955 Track=5 note_on channel=2 note=72 velocity=0 time=65
Time=27960 Track=5 note_on channel=2 note=72 velocity=106 time=5
Time=27960 Track=5 note_on channel=2 note=65 velocity=106 time=0
Time=27960 Track=5 note_on channel=2 note=60 velocity=106 time=0
Time=27960 Track=11 note_on channel=9 note=36 velocity=120 time=15
Time=27960 Track=11 note_on channel=9 note=40 velocity=127 time=0
Time=27960 Track=11 note_on channel=9 note=42 velocity=125 time=0
Time=27975 Track=6 note_on channel=3 note=50 velocity=0 time=25
Time=28005 Track=5 note_on channel=2 note=60 velocity=0 time=40
Time=28005 Track=5 note_on channel=2 note=65 velocity=0 time=0
Time=28010 Track=11 note_on channel=9 note=42 velocity=0 time=50
Time=28015 Track=11 note_on channel=9 note=40 velocity=0 time=5
Time=28015 Track=11 note_on channel=9 note=36 velocity=0 time=0
Time=28020 Track=11 note_on channel=9 note=42 velocity=93 time=5
Time=28065 Track=11 note_on channel=9 note=42 velocity=0 time=45
Time=28075 Track=5 note_on channel=2 note=72 velocity=0 time=0
Time=28080 Track=5 note_on channel=2 note=65 velocity=106 time=5
Time=28080 Track=5 note_on channel=2 note=72 velocity=106 time=0
Time=28080 Track=5 note_on channel=2 note=60 velocity=106 time=0
Time=28080 Track=11 note_on channel=9 note=36 velocity=120 time=15
Time=28080 Track=11 note_on channel=9 note=42 velocity=114 time=0
Time=28125 Track=11 note_on channel=9 note=42 velocity=0 time=45
Time=28130 Track=5 note_on channel=2 note=60 velocity=0 time=50
Time=28130 Track=5 note_on channel=2 note=65 velocity=0 time=0
Time=28135 Track=11 note_on channel=9 note=36 velocity=0 time=10
Time=28140 Track=11 note_on channel=9 note=42 velocity=94 time=5
Time=28185 Track=11 note_on channel=9 note=42 velocity=0 time=45
Time=28195 Track=5 note_on channel=2 note=72 velocity=0 time=0
Time=28200 Track=5 note_on channel=2 note=72 velocity=105 time=5
Time=28200 Track=5 note_on channel=2 note=65 velocity=105 time=0
Time=28200 Track=5 note_on channel=2 note=60 velocity=105 time=0
Time=28200 Track=11 note_on channel=9 note=36 velocity=119 time=15
Time=28200 Track=11 note_on channel=9 note=40 velocity=127 time=0
Time=28200 Track=11 note_on channel=9 note=42 velocity=126 time=0
Time=28240 Track=5 note_on channel=2 note=65 velocity=0 time=40
Time=28240 Track=11 note_on channel=9 note=42 velocity=0 time=40
Time=28245 Track=5 note_on channel=2 note=60 velocity=0 time=5
Time=28255 Track=3 note_on channel=0 note=29 velocity=0 time=415
Time=28255 Track=4 note_on channel=1 note=29 velocity=0 time=415
Time=28255 Track=11 note_on channel=9 note=40 velocity=0 time=15
Time=28255 Track=11 note_on channel=9 note=36 velocity=0 time=0
Time=28260 Track=3 note_on channel=0 note=29 velocity=102 time=5
Time=28260 Track=4 note_on channel=1 note=29 velocity=100 time=5
Time=28260 Track=11 note_on channel=9 note=46 velocity=121 time=5
Time=28305 Track=11 note_on channel=9 note=46 velocity=0 time=45
Time=28315 Track=3 note_on channel=0 note=29 velocity=0 time=55
Time=28315 Track=4 note_on channel=1 note=29 velocity=0 time=55
Time=28315 Track=5 note_on channel=2 note=72 velocity=0 time=0
Time=28315 Track=10 note_on channel=8 note=53 velocity=0 time=475
Time=28315 Track=10 note_on channel=8 note=41 velocity=0 time=0
Time=28315 Track=12 note_on channel=10 note=41 velocity=0 time=475
Time=28315 Track=13 note_on channel=12 note=41 velocity=0 time=475
Time=28315 Track=13 note_on channel=12 note=53 velocity=0 time=0
Time=28315 Track=13 note_on channel=12 note=48 velocity=0 time=0
Time=28320 Track=3 note_on channel=0 note=36 velocity=102 time=5
Time=28320 Track=4 note_on channel=1 note=36 velocity=100 time=5
Time=28320 Track=5 note_on channel=2 note=72 velocity=105 time=5
Time=28320 Track=5 note_on channel=2 note=64 velocity=105 time=0
Time=28320 Track=5 note_on channel=2 note=60 velocity=105 time=0
Time=28320 Track=10 note_on channel=8 note=48 velocity=100 time=5
Time=28320 Track=10 note_on channel=8 note=60 velocity=100 time=0
Time=28320 Track=11 note_on channel=9 note=36 velocity=121 time=15
Time=28320 Track=11 note_on channel=9 note=42 velocity=112 time=0
Time=28320 Track=11 note_on channel=9 note=49 velocity=92 time=0
Time=28320 Track=12 note_on channel=10 note=48 velocity=106 time=5
Time=28320 Track=13 note_on channel=12 note=48 velocity=105 time=5
Time=28320 Track=13 note_on channel=12 note=55 velocity=105 time=0
Time=28320 Track=13 note_on channel=12 note=60 velocity=105 time=0
Time=28355 Track=11 note_on channel=9 note=42 velocity=0 time=35
Time=28360 Track=5 note_on channel=2 note=60 velocity=0 time=40
Time=28365 Track=5 note_on channel=2 note=64 velocity=0 time=5
Time=28375 Track=11 note_on channel=9 note=49 velocity=0 time=20
Time=28375 Track=11 note_on channel=9 note=36 velocity=0 time=0
Time=28380 Track=11 note_on channel=9 note=42 velocity=83 time=5
Time=28425 Track=11 note_on channel=9 note=42 velocity=0 time=45
Time=28435 Track=5 note_on channel=2 note=72 velocity=0 time=0
Time=28440 Track=5 note_on channel=2 note=64 velocity=95 time=5
Time=28440 Track=5 note_on channel=2 note=60 velocity=95 time=0
Time=28440 Track=5 note_on channel=2 note=72 velocity=100 time=0
Time=28440 Track=11 note_on channel=9 note=36 velocity=120 time=15
Time=28440 Track=11 note_on channel=9 note=40 velocity=127 time=0
Time=28440 Track=11 note_on channel=9 note=42 velocity=125 time=0
Time=28465 Track=5 note_on channel=2 note=72 velocity=0 time=20
Time=28470 Track=5 note_on channel=2 note=72 velocity=100 time=5
Time=28490 Track=11 note_on channel=9 note=42 velocity=0 time=50
Time=28495 Track=5 note_on channel=2 note=72 velocity=0 time=0
Time=28495 Track=5 note_on channel=2 note=60 velocity=0 time=0
Time=28495 Track=11 note_on channel=9 note=40 velocity=0 time=5
Time=28495 Track=11 note_on channel=9 note=36 velocity=0 time=0
Time=28500 Track=5 note_on channel=2 note=64 velocity=95 time=5
Time=28500 Track=5 note_on channel=2 note=60 velocity=95 time=0
Time=28500 Track=5 note_on channel=2 note=72 velocity=100 time=0
Time=28500 Track=5 note_on channel=2 note=72 velocity=100 time=0
Time=28500 Track=5 note_on channel=2 note=64 velocity=0 time=0
Time=28500 Track=11 note_on channel=9 note=42 velocity=93 time=5
Time=28501 Track=5 note_on channel=2 note=72 velocity=0 time=1
Time=28525 Track=5 note_on channel=2 note=72 velocity=0 time=0
Time=28530 Track=5 note_on channel=2 note=72 velocity=100 time=5
Time=28545 Track=11 note_on channel=9 note=42 velocity=0 time=45
Time=28555 Track=5 note_on channel=2 note=72 velocity=0 time=0
Time=28555 Track=5 note_on channel=2 note=60 velocity=0 time=0
Time=28560 Track=5 note_on channel=2 note=64 velocity=94 time=5
Time=28560 Track=5 note_on channel=2 note=60 velocity=94 time=0
Time=28560 Track=5 note_on channel=2 note=72 velocity=99 time=0
Time=28560 Track=5 note_on channel=2 note=64 velocity=0 time=0
Time=28560 Track=11 note_on channel=9 note=36 velocity=120 time=15
Time=28560 Track=11 note_on channel=9 note=42 velocity=114 time=0
Time=28585 Track=5 note_on channel=2 note=72 velocity=0 time=0
Time=28590 Track=5 note_on channel=2 note=72 velocity=99 time=5
Time=28590 Track=5 note_on channel=2 note=72 velocity=99 time=0
Time=28591 Track=5 note_on channel=2 note=72 velocity=0 time=1
Time=28605 Track=11 note_on channel=9 note=42 velocity=0 time=45
Time=28615 Track=5 note_on channel=2 note=72 velocity=0 time=0
Time=28615 Track=11 note_on channel=9 note=36 velocity=0 time=10
Time=28620 Track=5 note_on channel=2 note=64 velocity=94 time=5
Time=28620 Track=5 note_on channel=2 note=60 velocity=94 time=0
Time=28620 Track=5 note_on channel=2 note=72 velocity=99 time=0
Time=28620 Track=5 note_on channel=2 note=60 velocity=0 time=0
Time=28620 Track=5 note_on channel=2 note=64 velocity=0 time=0
Time=28620 Track=11 note_on channel=9 note=42 velocity=94 time=5
Time=28645 Track=5 note_on channel=2 note=72 velocity=0 time=5
Time=28650 Track=5 note_on channel=2 note=72 velocity=99 time=5
Time=28665 Track=11 note_on channel=9 note=42 velocity=0 time=45
Time=28675 Track=5 note_on channel=2 note=72 velocity=0 time=0
Time=28675 Track=5 note_on channel=2 note=60 velocity=0 time=0
Time=28680 Track=5 note_on channel=2 note=64 velocity=93 time=5
Time=28680 Track=5 note_on channel=2 note=60 velocity=93 time=0
Time=28680 Track=5 note_on channel=2 note=72 velocity=98 time=0
Time=28680 Track=5 note_on channel=2 note=64 velocity=0 time=0
Time=28680 Track=11 note_on channel=9 note=36 velocity=119 time=15
Time=28680 Track=11 note_on channel=9 note=40 velocity=127 time=0
Time=28680 Track=11 note_on channel=9 note=42 velocity=126 time=0
Time=28705 Track=5 note_on channel=2 note=72 velocity=0 time=5
Time=28710 Track=5 note_on channel=2 note=72 velocity=98 time=5
Time=28720 Track=11 note_on channel=9 note=42 velocity=0 time=40
Time=28730 Track=3 note_on channel=0 note=36 velocity=0 time=410
Time=28730 Track=4 note_on channel=1 note=36 velocity=0 time=410
Time=28735 Track=5 note_on channel=2 note=72 velocity=0 time=0
Time=28735 Track=5 note_on channel=2 note=60 velocity=0 time=0
Time=28735 Track=5 note_on channel=2 note=64 velocity=0 time=0
Time=28735 Track=11 note_on channel=9 note=40 velocity=0 time=15
Time=28735 Track=11 note_on channel=9 note=36 velocity=0 time=0
Time=28740 Track=3 note_on channel=0 note=36 velocity=101 time=10
Time=28740 Track=4 note_on channel=1 note=36 velocity=99 time=10
Time=28740 Track=5 note_on channel=2 note=64 velocity=93 time=5
Time=28740 Track=5 note_on channel=2 note=60 velocity=93 time=0
Time=28740 Track=5 note_on channel=2 note=72 velocity=98 time=0
Time=28740 Track=11 note_on channel=9 note=46 velocity=121 time=5
Time=28740 Track=12 note_on channel=10 note=48 velocity=0 time=420
Time=28765 Track=5 note_on channel=2 note=72 velocity=0 time=0
Time=28770 Track=5 note_on channel=2 note=72 velocity=98 time=5
Time=28785 Track=11 note_on channel=9 note=46 velocity=0 time=45
Time=28790 Track=3 note_on channel=0 note=36 velocity=0 time=50
Time=28795 Track=4 note_on channel=1 note=36 velocity=0 time=55
Time=28795 Track=5 note_on channel=2 note=60 velocity=0 time=0
Time=28795 Track=5 note_on channel=2 note=64 velocity=0 time=0
Time=28795 Track=10 note_on channel=8 note=60 velocity=0 time=475
Time=28795 Track=10 note_on channel=8 note=48 velocity=0 time=0
Time=28795 Track=13 note_on channel=12 note=60 velocity=0 time=475
Time=28795 Track=13 note_on channel=12 note=55 velocity=0 time=0
Time=28795 Track=13 note_on channel=12 note=48 velocity=0 time=0
Time=28800 Track=3 note_on channel=0 note=38 velocity=103 time=10
Time=28800 Track=4 note_on channel=1 note=38 velocity=101 time=5
Time=28800 Track=5 note_on channel=2 note=57 velocity=91 time=5
Time=28800 Track=5 note_on channel=2 note=62 velocity=104 time=0
Time=28800 Track=5 note_on channel=2 note=50 velocity=101 time=0
Time=28800 Track=10 note_on channel=8 note=50 velocity=100 time=5
Time=28800 Track=10 note_on channel=8 note=62 velocity=100 time=0
Time=28800 Track=11 note_on channel=9 note=36 velocity=121 time=15
Time=28800 Track=11 note_on channel=9 note=42 velocity=112 time=0
Time=28800 Track=11 note_on channel=9 note=49 velocity=92 time=0
Time=28800 Track=12 note_on channel=10 note=50 velocity=106 time=60
Time=28800 Track=13 note_on channel=12 note=50 velocity=104 time=5
Time=28800 Track=13 note_on channel=12 note=57 velocity=104 time=0
Time=28800 Track=13 note_on channel=12 note=62 velocity=104 time=0
Time=28835 Track=11 note_on channel=9 note=42 velocity=0 time=35
Time=28855 Track=11 note_on channel=9 note=49 velocity=0 time=20
Time=28855 Track=11 note_on channel=9 note=36 velocity=0 time=0
Time=28860 Track=11 note_on channel=9 note=42 velocity=83 time=5
Time=28905 Track=11 note_on channel=9 note=42 velocity=0 time=45
Time=28915 Track=3 note_on channel=0 note=38 velocity=0 time=115
Time=28915 Track=4 note_on channel=1 note=38 velocity=0 time=115
Time=28920 Track=11 note_on channel=9 note=36 velocity=120 time=15
Time=28920 Track=11 note_on channel=9 note=40 velocity=127 time=0
Time=28920 Track=11 note_on channel=9 note=42 velocity=125 time=0
Time=28970 Track=11 note_on channel=9 note=42 velocity=0 time=50
Time=28975 Track=11 note_on channel=9 note=40 velocity=0 time=5
Time=28975 Track=11 note_on channel=9 note=36 velocity=0 time=0
Time=28980 Track=3 note_on channel=0 note=36 velocity=102 time=65
Time=28980 Track=4 note_on channel=1 note=36 velocity=101 time=65
Time=28980 Track=11 note_on channel=9 note=42 velocity=93 time=5
Time=29025 Track=11 note_on channel=9 note=42 velocity=0 time=45
Time=29035 Track=3 note_on channel=0 note=36 velocity=0 time=55
Time=29035 Track=4 note_on channel=1 note=36 velocity=0 time=55
Time=29040 Track=3 note_on channel=0 note=38 velocity=102 time=5
Time=29040 Track=4 note_on channel=1 note=38 velocity=101 time=5
Time=29040 Track=11 note_on channel=9 note=36 velocity=120 time=15
Time=29040 Track=11 note_on channel=9 note=42 velocity=114 time=0
Time=29080 Track=4 note_on channel=1 note=38 velocity=0 time=40
Time=29085 Track=3 note_on channel=0 note=38 velocity=0 time=45
Time=29085 Track=11 note_on channel=9 note=42 velocity=0 time=45
Time=29095 Track=11 note_on channel=9 note=36 velocity=0 time=10
Time=29100 Track=11 note_on channel=9 note=42 velocity=94 time=5
Time=29145 Track=11 note_on channel=9 note=42 velocity=0 time=45
Time=29160 Track=11 note_on channel=9 note=36 velocity=119 time=15
Time=29160 Track=11 note_on channel=9 note=40 velocity=127 time=0
Time=29160 Track=11 note_on channel=9 note=42 velocity=126 time=0
Time=29200 Track=11 note_on channel=9 note=42 velocity=0 time=40
Time=29215 Track=11 note_on channel=9 note=40 velocity=0 time=15
Time=29215 Track=11 note_on channel=9 note=36 velocity=0 time=0
Time=29220 Track=11 note_on channel=9 note=46 velocity=121 time=5
Time=29265 Track=11 note_on channel=9 note=46 velocity=0 time=45
Time=29280 Track=3 note_on channel=0 note=38 velocity=101 time=195
Time=29280 Track=4 note_on channel=1 note=38 velocity=100 time=200
Time=29280 Track=11 note_on channel=9 note=36 velocity=121 time=15
Time=29280 Track=11 note_on channel=9 note=42 velocity=112 time=0
Time=29315 Track=11 note_on channel=9 note=42 velocity=0 time=35
Time=29335 Track=11 note_on channel=9 note=36 velocity=0 time=20
Time=29340 Track=11 note_on channel=9 note=42 velocity=83 time=5
Time=29385 Track=11 note_on channel=9 note=42 velocity=0 time=45
Time=29395 Track=3 note_on channel=0 note=38 velocity=0 time=115
Time=29395 Track=4 note_on channel=1 note=38 velocity=0 time=115
Time=29400 Track=11 note_on channel=9 note=36 velocity=120 time=15
Time=29400 Track=11 note_on channel=9 note=40 velocity=127 time=0
Time=29400 Track=11 note_on channel=9 note=42 velocity=125 time=0
Time=29450 Track=11 note_on channel=9 note=42 velocity=0 time=50
Time=29455 Track=11 note_on channel=9 note=40 velocity=0 time=5
Time=29455 Track=11 note_on channel=9 note=36 velocity=0 time=0
Time=29460 Track=3 note_on channel=0 note=38 velocity=101 time=65
Time=29460 Track=4 note_on channel=1 note=38 velocity=99 time=65
Time=29460 Track=11 note_on channel=9 note=42 velocity=93 time=5
Time=29505 Track=3 note_on channel=0 note=38 velocity=0 time=45
Time=29505 Track=4 note_on channel=1 note=38 velocity=0 time=45
Time=29505 Track=11 note_on channel=9 note=42 velocity=0 time=45
Time=29515 Track=15 note_on channel=14 note=72 velocity=127 time=0
Time=29520 Track=3 note_on channel=0 note=33 velocity=101 time=15
Time=29520 Track=4 note_on channel=1 note=33 velocity=99 time=15
Time=29520 Track=11 note_on channel=9 note=36 velocity=120 time=15
Time=29520 Track=11 note_on channel=9 note=42 velocity=114 time=0
Time=29565 Track=11 note_on channel=9 note=42 velocity=0 time=45
Time=29565 Track=15 note_on channel=14 note=72 velocity=0 time=5
Time=29575 Track=11 note_on channel=9 note=36 velocity=0 time=10
Time=29580 Track=11 note_on channel=9 note=42 velocity=94 time=5
Time=29580 Track=15 note_on channel=14 note=67 velocity=127 time=5
Time=29610 Track=15 note_on channel=14 note=65 velocity=106 time=5
Time=29615 Track=15 note_on channel=14 note=67 velocity=0 time=0
Time=29625 Track=11 note_on channel=9 note=42 velocity=0 time=45
Time=29635 Track=3 note_on channel=0 note=33 velocity=0 time=115
Time=29635 Track=4 note_on channel=1 note=33 velocity=0 time=115
Time=29635 Track=16 note_on channel=15 note=72 velocity=127 time=0
Time=29640 Track=3 note_on channel=0 note=36 velocity=100 time=5
Time=29640 Track=4 note_on channel=1 note=36 velocity=99 time=5
Time=29640 Track=11 note_on channel=9 note=36 velocity=119 time=15
Time=29640 Track=11 note_on channel=9 note=40 velocity=127 time=0
Time=29640 Track=11 note_on channel=9 note=42 velocity=126 time=0
Time=29640 Track=15 note_on channel=14 note=67 velocity=127 time=5
Time=29645 Track=15 note_on channel=14 note=65 velocity=0 time=0
Time=29680 Track=11 note_on channel=9 note=42 velocity=0 time=40
Time=29685 Track=16 note_on channel=15 note=72 velocity=0 time=5
Time=29695 Track=11 note_on channel=9 note=40 velocity=0 time=15
Time=29695 Track=11 note_on channel=9 note=36 velocity=0 time=0
Time=29695 Track=15 note_on channel=14 note=67 velocity=0 time=35
Time=29700 Track=11 note_on channel=9 note=46 velocity=121 time=5
Time=29700 Track=15 note_on channel=14 note=69 velocity=127 time=5
Time=29700 Track=16 note_on channel=15 note=67 velocity=127 time=5
Time=29730 Track=16 note_on channel=15 note=65 velocity=106 time=5
Time=29735 Track=15 note_on channel=14 note=69 velocity=0 time=30
Time=29735 Track=16 note_on channel=15 note=67 velocity=0 time=0
Time=29745 Track=9 note_on channel=7 note=50 velocity=92 time=29580
Time=29745 Track=9 note_on channel=7 note=62 velocity=92 time=0
Time=29745 Track=9 note_on channel=7 note=65 velocity=92 time=0
Time=29745 Track=9 note_on channel=7 note=69 velocity=92 time=0
Time=29745 Track=11 note_on channel=9 note=46 velocity=0 time=45
Time=29755 Track=3 note_on channel=0 note=36 velocity=0 time=115
Time=29755 Track=4 note_on channel=1 note=36 velocity=0 time=115
Time=29755 Track=10 note_on channel=8 note=62 velocity=0 time=955
Time=29755 Track=10 note_on channel=8 note=50 velocity=0 time=0
Time=29755 Track=12 note_on channel=10 note=50 velocity=0 time=955
Time=29755 Track=13 note_on channel=12 note=57 velocity=0 time=955
Time=29755 Track=13 note_on channel=12 note=50 velocity=0 time=0
Time=29760 Track=3 note_on channel=0 note=38 velocity=103 time=5
Time=29760 Track=4 note_on channel=1 note=38 velocity=101 time=5
Time=29760 Track=8 note_on channel=6 note=81 velocity=72 time=29600
Time=29760 Track=8 note_on channel=6 note=77 velocity=72 time=0
Time=29760 Track=8 note_on channel=6 note=74 velocity=72 time=0
Time=29760 Track=8 note_on channel=6 note=62 velocity=72 time=0
Time=29760 Track=11 note_on channel=9 note=36 velocity=121 time=15
Time=29760 Track=11 note_on channel=9 note=42 velocity=111 time=0
Time=29760 Track=11 note_on channel=9 note=49 velocity=92 time=0
Time=29760 Track=13 note_on channel=12 note=62 velocity=0 time=5
Time=29760 Track=15 note_on channel=14 note=72 velocity=127 time=25
Time=29760 Track=16 note_on channel=15 note=67 velocity=127 time=5
Time=29765 Track=16 note_on channel=15 note=65 velocity=0 time=0
Time=29785 Track=11 note_on channel=9 note=42 velocity=0 time=25
Time=29790 Track=11 note_on channel=9 note=42 velocity=82 time=5
Time=29815 Track=11 note_on channel=9 note=42 velocity=0 time=25
Time=29815 Track=11 note_on channel=9 note=49 velocity=0 time=0
Time=29815 Track=11 note_on channel=9 note=36 velocity=0 time=0
Time=29815 Track=16 note_on channel=15 note=67 velocity=0 time=35
Time=29820 Track=11 note_on channel=9 note=42 velocity=111 time=5
Time=29820 Track=16 note_on channel=15 note=69 velocity=127 time=5
Time=29845 Track=11 note_on channel=9 note=42 velocity=0 time=25
Time=29850 Track=11 note_on channel=9 note=42 velocity=85 time=5
Time=29855 Track=16 note_on channel=15 note=69 velocity=0 time=30
Time=29875 Track=4 note_on channel=1 note=38 velocity=0 time=115
Time=29875 Track=11 note_on channel=9 note=42 velocity=0 time=25
Time=29880 Track=3 note_on channel=0 note=38 velocity=0 time=120
Time=29880 Track=11 note_on channel=9 note=36 velocity=120 time=5
Time=29880 Track=11 note_on channel=9 note=42 velocity=115 time=0
Time=29880 Track=16 note_on channel=15 note=72 velocity=127 time=25
Time=29905 Track=11 note_on channel=9 note=42 velocity=0 time=25
Time=29910 Track=11 note_on channel=9 note=42 velocity=82 time=5
Time=29935 Track=11 note_on channel=9 note=42 velocity=0 time=25
Time=29935 Track=11 note_on channel=9 note=36 velocity=0 time=0
Time=29940 Track=3 note_on channel=0 note=36 velocity=102 time=60
Time=29940 Track=4 note_on channel=1 note=36 velocity=101 time=65
Time=29940 Track=11 note_on channel=9 note=42 velocity=111 time=5
Time=29965 Track=11 note_on channel=9 note=42 velocity=0 time=25
Time=29970 Track=11 note_on channel=9 note=42 velocity=82 time=5
Time=29995 Track=3 note_on channel=0 note=36 velocity=0 time=55
Time=29995 Track=4 note_on channel=1 note=36 velocity=0 time=55
Time=29995 Track=11 note_on channel=9 note=42 velocity=0 time=25
Time=30000 Track=3 note_on channel=0 note=38 velocity=102 time=5
Time=30000 Track=4 note_on channel=1 note=38 velocity=101 time=5
Time=30000 Track=11 note_on channel=9 note=36 velocity=120 time=5
Time=30000 Track=11 note_on channel=9 note=42 velocity=104 time=0
Time=30025 Track=11 note_on channel=9 note=42 velocity=0 time=25
Time=30030 Track=11 note_on channel=9 note=42 velocity=85 time=5
Time=30040 Track=4 note_on channel=1 note=38 velocity=0 time=40
Time=30045 Track=3 note_on channel=0 note=38 velocity=0 time=45
Time=30055 Track=11 note_on channel=9 note=42 velocity=0 time=25
Time=30055 Track=11 note_on channel=9 note=36 velocity=0 time=0
Time=30060 Track=11 note_on channel=9 note=42 velocity=111 time=5
Time=30085 Track=11 note_on channel=9 note=42 velocity=0 time=25
Time=30090 Track=11 note_on channel=9 note=42 velocity=82 time=5
Time=30115 Track=11 note_on channel=9 note=42 velocity=0 time=25
Time=30120 Track=11 note_on channel=9 note=36 velocity=119 time=5
Time=30120 Track=11 note_on channel=9 note=40 velocity=127 time=0
Time=30120 Track=11 note_on channel=9 note=42 velocity=116 time=0
Time=30125 Track=15 note_on channel=14 note=72 velocity=0 time=10
Time=30145 Track=11 note_on channel=9 note=42 velocity=0 time=25
Time=30150 Track=11 note_on channel=9 note=42 velocity=79 time=5
Time=30175 Track=11 note_on channel=9 note=42 velocity=0 time=25
Time=30175 Track=11 note_on channel=9 note=40 velocity=0 time=0
Time=30180 Track=11 note_on channel=9 note=46 velocity=111 time=5
Time=30180 Track=11 note_on channel=9 note=36 velocity=0 time=0
Time=30235 Track=11 note_on channel=9 note=46 velocity=0 time=55
Time=30235 Track=15 note_on channel=14 note=65 velocity=127 time=110
Time=30235 Track=15 note_on channel=14 note=69 velocity=110 time=0
Time=30240 Track=3 note_on channel=0 note=38 velocity=101 time=195
Time=30240 Track=4 note_on channel=1 note=38 velocity=100 time=200
Time=30240 Track=11 note_on channel=9 note=36 velocity=121 time=5
Time=30240 Track=11 note_on channel=9 note=42 velocity=108 time=0
Time=30245 Track=16 note_on channel=15 note=72 velocity=0 time=10
Time=30265 Track=11 note_on channel=9 note=42 velocity=0 time=25
Time=30265 Track=15 note_on channel=14 note=65 velocity=0 time=0
Time=30270 Track=11 note_on channel=9 note=42 velocity=79 time=5
Time=30270 Track=15 note_on channel=14 note=62 velocity=98 time=5
Time=30270 Track=15 note_on channel=14 note=69 velocity=0 time=0
Time=30290 Track=15 note_on channel=14 note=62 velocity=0 time=5
Time=30295 Track=11 note_on channel=9 note=42 velocity=0 time=25
Time=30295 Track=11 note_on channel=9 note=36 velocity=0 time=0
Time=30300 Track=11 note_on channel=9 note=42 velocity=108 time=5
Time=30325 Track=11 note_on channel=9 note=42 velocity=0 time=25
Time=30325 Track=15 note_on channel=14 note=62 velocity=127 time=0
Time=30330 Track=11 note_on channel=9 note=42 velocity=79 time=5
Time=30355 Track=3 note_on channel=0 note=38 velocity=0 time=115
Time=30355 Track=4 note_on channel=1 note=38 velocity=0 time=115
Time=30355 Track=11 note_on channel=9 note=42 velocity=0 time=25
Time=30355 Track=16 note_on channel=15 note=65 velocity=127 time=110
Time=30355 Track=16 note_on channel=15 note=69 velocity=110 time=0
Time=30360 Track=11 note_on channel=9 note=36 velocity=120 time=5
Time=30360 Track=11 note_on channel=9 note=42 velocity=115 time=0
Time=30375 Track=15 note_on channel=14 note=62 velocity=0 time=0
Time=30385 Track=11 note_on channel=9 note=42 velocity=0 time=25
Time=30385 Track=16 note_on channel=15 note=65 velocity=0 time=0
Time=30390 Track=11 note_on channel=9 note=42 velocity=76 time=5
Time=30390 Track=16 note_on channel=15 note=62 velocity=98 time=5
Time=30390 Track=16 note_on channel=15 note=69 velocity=0 time=0
Time=30410 Track=16 note_on channel=15 note=62 velocity=0 time=5
Time=30415 Track=11 note_on channel=9 note=42 velocity=0 time=25
Time=30415 Track=11 note_on channel=9 note=36 velocity=0 time=0
Time=30420 Track=3 note_on channel=0 note=38 velocity=101 time=65
Time=30420 Track=4 note_on channel=1 note=38 velocity=99 time=65
Time=30420 Track=11 note_on channel=9 note=42 velocity=111 time=5
Time=30445 Track=11 note_on channel=9 note=42 velocity=0 time=25
Time=30445 Track=16 note_on channel=15 note=62 velocity=127 time=0
Time=30450 Track=11 note_on channel=9 note=42 velocity=76 time=5
Time=30465 Track=3 note_on channel=0 note=38 velocity=0 time=45
Time=30465 Track=4 note_on channel=1 note=38 velocity=0 time=45
Time=30475 Track=11 note_on channel=9 note=42 velocity=0 time=25
Time=30480 Track=3 note_on channel=0 note=33 velocity=101 time=15
Time=30480 Track=4 note_on channel=1 note=33 velocity=99 time=15
Time=30480 Track=11 note_on channel=9 note=36 velocity=120 time=5
Time=30480 Track=11 note_on channel=9 note=42 velocity=104 time=0
Time=30495 Track=16 note_on channel=15 note=62 velocity=0 time=0
Time=30505 Track=11 note_on channel=9 note=42 velocity=0 time=25
Time=30510 Track=11 note_on channel=9 note=42 velocity=79 time=5
Time=30535 Track=11 note_on channel=9 note=42 velocity=0 time=25
Time=30535 Track=11 note_on channel=9 note=36 velocity=0 time=0
Time=30540 Track=11 note_on channel=9 note=42 velocity=108 time=5
Time=30565 Track=11 note_on channel=9 note=42 velocity=0 time=25
Time=30570 Track=9 note_on channel=7 note=69 velocity=0 time=825
Time=30570 Track=9 note_on channel=7 note=65 velocity=0 time=0
Time=30570 Track=9 note_on channel=7 note=62 velocity=0 time=0
Time=30570 Track=11 note_on channel=9 note=42 velocity=82 time=5
Time=30575 Track=9 note_on channel=7 note=50 velocity=0 time=5
Time=30585 Track=9 note_on channel=7 note=48 velocity=92 time=10
Time=30585 Track=9 note_on channel=7 note=64 velocity=92 time=0
Time=30585 Track=9 note_on channel=7 note=60 velocity=92 time=0
Time=30585 Track=9 note_on channel=7 note=67 velocity=92 time=0
Time=30595 Track=4 note_on channel=1 note=33 velocity=0 time=115
Time=30595 Track=8 note_on channel=6 note=62 velocity=0 time=835
Time=30595 Track=8 note_on channel=6 note=81 velocity=0 time=0
Time=30595 Track=8 note_on channel=6 note=77 velocity=0 time=0
Time=30595 Track=8 note_on channel=6 note=74 velocity=0 time=0
Time=30595 Track=11 note_on channel=9 note=42 velocity=0 time=25
Time=30595 Track=15 note_on channel=14 note=72 velocity=127 time=215
Time=30600 Track=3 note_on channel=0 note=36 velocity=100 time=120
Time=30600 Track=3 note_on channel=0 note=33 velocity=0 time=0
Time=30600 Track=4 note_on channel=1 note=36 velocity=99 time=5
Time=30600 Track=8 note_on channel=6 note=79 velocity=72 time=5
Time=30600 Track=8 note_on channel=6 note=72 velocity=72 time=0
Time=30600 Track=8 note_on channel=6 note=76 velocity=72 time=0
Time=30600 Track=8 note_on channel=6 note=60 velocity=72 time=0
Time=30600 Track=11 note_on channel=9 note=36 velocity=119 time=5
Time=30600 Track=11 note_on channel=9 note=40 velocity=127 time=0
Time=30600 Track=11 note_on channel=9 note=42 velocity=116 time=0
Time=30625 Track=11 note_on channel=9 note=42 velocity=0 time=25
Time=30630 Track=11 note_on channel=9 note=42 velocity=79 time=5
Time=30655 Track=11 note_on channel=9 note=42 velocity=0 time=25
Time=30655 Track=11 note_on channel=9 note=40 velocity=0 time=0
Time=30655 Track=15 note_on channel=14 note=72 velocity=0 time=10
Time=30660 Track=11 note_on channel=9 note=46 velocity=111 time=5
Time=30660 Track=11 note_on channel=9 note=36 velocity=0 time=0
Time=30690 Track=9 note_on channel=7 note=67 velocity=0 time=105
Time=30690 Track=9 note_on channel=7 note=60 velocity=0 time=0
Time=30690 Track=9 note_on channel=7 note=64 velocity=0 time=0
Time=30695 Track=9 note_on channel=7 note=48 velocity=0 time=5
Time=30695 Track=15 note_on channel=14 note=74 velocity=127 time=0
Time=30705 Track=9 note_on channel=7 note=50 velocity=92 time=10
Time=30705 Track=9 note_on channel=7 note=62 velocity=92 time=0
Time=30705 Track=9 note_on channel=7 note=65 velocity=92 time=0
Time=30705 Track=9 note_on channel=7 note=69 velocity=92 time=0
Time=30715 Track=3 note_on channel=0 note=36 velocity=0 time=115
Time=30715 Track=4 note_on channel=1 note=36 velocity=0 time=115
Time=30715 Track=8 note_on channel=6 note=60 velocity=0 time=115
Time=30715 Track=8 note_on channel=6 note=79 velocity=0 time=0
Time=30715 Track=8 note_on channel=6 note=72 velocity=0 time=0
Time=30715 Track=8 note_on channel=6 note=76 velocity=0 time=0
Time=30715 Track=11 note_on channel=9 note=46 velocity=0 time=55
Time=30715 Track=16 note_on channel=15 note=72 velocity=127 time=215
Time=30720 Track=3 note_on channel=0 note=38 velocity=103 time=5
Time=30720 Track=4 note_on channel=1 note=38 velocity=101 time=5
Time=30720 Track=8 note_on channel=6 note=81 velocity=72 time=5
Time=30720 Track=8 note_on channel=6 note=77 velocity=72 time=0
Time=30720 Track=8 note_on channel=6 note=74 velocity=72 time=0
Time=30720 Track=8 note_on channel=6 note=62 velocity=72 time=0
Time=30720 Track=11 note_on channel=9 note=36 velocity=121 time=5
Time=30720 Track=11 note_on channel=9 note=42 velocity=117 time=0
Time=30720 Track=11 note_on channel=9 note=49 velocity=92 time=0
Time=30745 Track=11 note_on channel=9 note=42 velocity=0 time=25
Time=30750 Track=11 note_on channel=9 note=42 velocity=79 time=5
Time=30775 Track=11 note_on channel=9 note=42 velocity=0 time=25
Time=30775 Track=11 note_on channel=9 note=49 velocity=0 time=0
Time=30775 Track=16 note_on channel=15 note=72 velocity=0 time=10
Time=30780 Track=11 note_on channel=9 note=42 velocity=111 time=5
Time=30780 Track=11 note_on channel=9 note=36 velocity=0 time=0
Time=30805 Track=11 note_on channel=9 note=42 velocity=0 time=25
Time=30810 Track=11 note_on channel=9 note=42 velocity=85 time=5
Time=30815 Track=16 note_on channel=15 note=74 velocity=127 time=0
Time=30825 Track=15 note_on channel=14 note=74 velocity=0 time=10
Time=30830 Track=15 note_on channel=14 note=72 velocity=127 time=0
Time=30835 Track=4 note_on channel=1 note=38 velocity=0 time=115
Time=30835 Track=11 note_on channel=9 note=42 velocity=0 time=25
Time=30840 Track=3 note_on channel=0 note=38 velocity=0 time=120
Time=30840 Track=11 note_on channel=9 note=36 velocity=120 time=5
Time=30840 Track=11 note_on channel=9 note=42 velocity=115 time=0
Time=30865 Track=11 note_on channel=9 note=42 velocity=0 time=25
Time=30870 Track=11 note_on channel=9 note=42 velocity=79 time=5
Time=30895 Track=11 note_on channel=9 note=42 velocity=0 time=25
Time=30895 Track=11 note_on channel=9 note=36 velocity=0 time=0
Time=30900 Track=3 note_on channel=0 note=36 velocity=102 time=60
Time=30900 Track=4 note_on channel=1 note=36 velocity=101 time=65
Time=30900 Track=11 note_on channel=9 note=42 velocity=117 time=5
Time=30925 Track=11 note_on channel=9 note=42 velocity=0 time=25
Time=30930 Track=11 note_on channel=9 note=42 velocity=79 time=5
Time=30945 Track=16 note_on channel=15 note=74 velocity=0 time=10
Time=30950 Track=16 note_on channel=15 note=72 velocity=127 time=0
Time=30955 Track=3 note_on channel=0 note=36 velocity=0 time=55
Time=30955 Track=4 note_on channel=1 note=36 velocity=0 time=55
Time=30955 Track=11 note_on channel=9 note=42 velocity=0 time=25
Time=30960 Track=3 note_on channel=0 note=38 velocity=102 time=5
Time=30960 Track=4 note_on channel=1 note=38 velocity=101 time=5
Time=30960 Track=11 note_on channel=9 note=36 velocity=120 time=5
Time=30960 Track=11 note_on channel=9 note=42 velocity=111 time=0
Time=30960 Track=15 note_on channel=14 note=72 velocity=0 time=5
Time=30985 Track=11 note_on channel=9 note=42 velocity=0 time=25
Time=30990 Track=11 note_on channel=9 note=42 velocity=79 time=5
Time=31000 Track=4 note_on channel=1 note=38 velocity=0 time=40
Time=31005 Track=3 note_on channel=0 note=38 velocity=0 time=45
Time=31015 Track=11 note_on channel=9 note=42 velocity=0 time=25
Time=31015 Track=11 note_on channel=9 note=36 velocity=0 time=0
Time=31020 Track=11 note_on channel=9 note=42 velocity=108 time=5
Time=31045 Track=11 note_on channel=9 note=42 velocity=0 time=25
Time=31050 Track=11 note_on channel=9 note=42 velocity=82 time=5
Time=31075 Track=11 note_on channel=9 note=42 velocity=0 time=25
Time=31075 Track=15 note_on channel=14 note=72 velocity=127 time=0
Time=31080 Track=11 note_on channel=9 note=36 velocity=119 time=5
Time=31080 Track=11 note_on channel=9 note=40 velocity=127 time=0
Time=31080 Track=11 note_on channel=9 note=42 velocity=116 time=0
Time=31080 Track=16 note_on channel=15 note=72 velocity=0 time=5
Time=31105 Track=11 note_on channel=9 note=42 velocity=0 time=25
Time=31110 Track=11 note_on channel=9 note=42 velocity=79 time=5
Time=31130 Track=15 note_on channel=14 note=72 velocity=0 time=15
Time=31135 Track=11 note_on channel=9 note=42 velocity=0 time=25
Time=31135 Track=11 note_on channel=9 note=40 velocity=0 time=0
Time=31135 Track=15 note_on channel=14 note=67 velocity=92 time=0
Time=31140 Track=11 note_on channel=9 note=46 velocity=111 time=5
Time=31140 Track=11 note_on channel=9 note=36 velocity=0 time=0
Time=31160 Track=15 note_on channel=14 note=67 velocity=0 time=0
Time=31195 Track=11 note_on channel=9 note=46 velocity=0 time=55
Time=31195 Track=15 note_on channel=14 note=67 velocity=127 time=35
Time=31195 Track=16 note_on channel=15 note=72 velocity=127 time=0
Time=31200 Track=3 note_on channel=0 note=38 velocity=103 time=195
Time=31200 Track=4 note_on channel=1 note=38 velocity=101 time=200
Time=31200 Track=11 note_on channel=9 note=36 velocity=121 time=5
Time=31200 Track=11 note_on channel=9 note=42 velocity=114 time=0
Time=31225 Track=11 note_on channel=9 note=42 velocity=0 time=25
Time=31230 Track=11 note_on channel=9 note=42 velocity=79 time=5
Time=31250 Track=16 note_on channel=15 note=72 velocity=0 time=15
Time=31255 Track=16 note_on channel=15 note=67 velocity=92 time=0
Time=31260 Track=11 note_on channel=9 note=42 velocity=111 time=30
Time=31260 Track=11 note_on channel=9 note=42 velocity=0 time=0
Time=31260 Track=11 note_on channel=9 note=36 velocity=0 time=0
Time=31280 Track=16 note_on channel=15 note=67 velocity=0 time=0
Time=31285 Track=11 note_on channel=9 note=42 velocity=0 time=25
Time=31290 Track=11 note_on channel=9 note=42 velocity=79 time=5
Time=31315 Track=4 note_on channel=1 note=38 velocity=0 time=115
Time=31315 Track=11 note_on channel=9 note=42 velocity=0 time=25
Time=31315 Track=16 note_on channel=15 note=67 velocity=127 time=35
Time=31320 Track=3 note_on channel=0 note=38 velocity=0 time=120
Time=31320 Track=11 note_on channel=9 note=36 velocity=120 time=5
Time=31320 Track=11 note_on channel=9 note=42 velocity=115 time=0
Time=31345 Track=11 note_on channel=9 note=42 velocity=0 time=25
Time=31350 Track=11 note_on channel=9 note=42 velocity=76 time=5
Time=31375 Track=11 note_on channel=9 note=42 velocity=0 time=25
Time=31375 Track=11 note_on channel=9 note=36 velocity=0 time=0
Time=31380 Track=3 note_on channel=0 note=36 velocity=102 time=60
Time=31380 Track=4 note_on channel=1 note=36 velocity=101 time=65
Time=31380 Track=11 note_on channel=9 note=42 velocity=114 time=5
Time=31405 Track=11 note_on channel=9 note=42 velocity=0 time=25
Time=31410 Track=11 note_on channel=9 note=42 velocity=76 time=5
Time=31410 Track=15 note_on channel=14 note=67 velocity=0 time=10
Time=31435 Track=3 note_on channel=0 note=36 velocity=0 time=55
Time=31435 Track=4 note_on channel=1 note=36 velocity=0 time=55
Time=31435 Track=11 note_on channel=9 note=42 velocity=0 time=25
Time=31440 Track=3 note_on channel=0 note=38 velocity=102 time=5
Time=31440 Track=4 note_on channel=1 note=38 velocity=101 time=5
Time=31440 Track=11 note_on channel=9 note=36 velocity=120 time=5
Time=31440 Track=11 note_on channel=9 note=42 velocity=104 time=0
Time=31440 Track=15 note_on channel=14 note=65 velocity=127 time=0
Time=31465 Track=11 note_on channel=9 note=42 velocity=0 time=25
Time=31470 Track=11 note_on channel=9 note=42 velocity=76 time=5
Time=31480 Track=4 note_on channel=1 note=38 velocity=0 time=40
Time=31485 Track=3 note_on channel=0 note=38 velocity=0 time=45
Time=31495 Track=11 note_on channel=9 note=42 velocity=0 time=25
Time=31495 Track=11 note_on channel=9 note=36 velocity=0 time=0
Time=31495 Track=15 note_on channel=14 note=65 velocity=0 time=5
Time=31500 Track=11 note_on channel=9 note=42 velocity=114 time=5
Time=31500 Track=15 note_on channel=14 note=62 velocity=127 time=0
Time=31525 Track=11 note_on channel=9 note=42 velocity=0 time=25
Time=31525 Track=15 note_on channel=14 note=62 velocity=0 time=10
Time=31530 Track=9 note_on channel=7 note=69 velocity=0 time=825
Time=31530 Track=9 note_on channel=7 note=50 velocity=0 time=0
Time=31530 Track=9 note_on channel=7 note=62 velocity=0 time=0
Time=31530 Track=9 note_on channel=7 note=65 velocity=0 time=0
Time=31530 Track=11 note_on channel=9 note=42 velocity=74 time=5
Time=31530 Track=15 note_on channel=14 note=64 velocity=101 time=0
Time=31535 Track=16 note_on channel=15 note=67 velocity=0 time=15
Time=31545 Track=9 note_on channel=7 note=48 velocity=92 time=15
Time=31545 Track=9 note_on channel=7 note=64 velocity=92 time=0
Time=31545 Track=9 note_on channel=7 note=60 velocity=92 time=0
Time=31545 Track=9 note_on channel=7 note=67 velocity=92 time=0
Time=31555 Track=8 note_on channel=6 note=62 velocity=0 time=835
Time=31555 Track=8 note_on channel=6 note=81 velocity=0 time=0
Time=31555 Track=8 note_on channel=6 note=77 velocity=0 time=0
Time=31555 Track=8 note_on channel=6 note=74 velocity=0 time=0
Time=31555 Track=11 note_on channel=9 note=42 velocity=0 time=25
Time=31555 Track=15 note_on channel=14 note=64 velocity=0 time=0
Time=31560 Track=8 note_on channel=6 note=79 velocity=72 time=5
Time=31560 Track=8 note_on channel=6 note=72 velocity=72 time=0
Time=31560 Track=8 note_on channel=6 note=76 velocity=72 time=0
Time=31560 Track=8 note_on channel=6 note=60 velocity=72 time=0
Time=31560 Track=11 note_on channel=9 note=36 velocity=119 time=5
Time=31560 Track=11 note_on channel=9 note=40 velocity=127 time=0
Time=31560 Track=11 note_on channel=9 note=42 velocity=116 time=0
Time=31560 Track=15 note_on channel=14 note=60 velocity=112 time=0
Time=31560 Track=16 note_on channel=15 note=65 velocity=127 time=0
Time=31585 Track=11 note_on channel=9 note=42 velocity=0 time=25
Time=31590 Track=11 note_on channel=9 note=42 velocity=74 time=5
Time=31615 Track=11 note_on channel=9 note=42 velocity=0 time=25
Time=31615 Track=11 note_on channel=9 note=40 velocity=0 time=0
Time=31615 Track=11 note_on channel=9 note=36 velocity=0 time=0
Time=31615 Track=16 note_on channel=15 note=65 velocity=0 time=5
Time=31620 Track=11 note_on channel=9 note=46 velocity=111 time=5
Time=31620 Track=15 note_on channel=14 note=67 velocity=101 time=0
Time=31620 Track=15 note_on channel=14 note=60 velocity=0 time=0
Time=31620 Track=16 note_on channel=15 note=62 velocity=127 time=0
Time=31645 Track=16 note_on channel=15 note=62 velocity=0 time=10
Time=31650 Track=9 note_on channel=7 note=67 velocity=0 time=105
Time=31650 Track=9 note_on channel=7 note=60 velocity=0 time=0
Time=31650 Track=9 note_on channel=7 note=64 velocity=0 time=0
Time=31650 Track=16 note_on channel=15 note=64 velocity=101 time=0
Time=31655 Track=9 note_on channel=7 note=48 velocity=0 time=5
Time=31665 Track=9 note_on channel=7 note=50 velocity=92 time=10
Time=31665 Track=9 note_on channel=7 note=62 velocity=92 time=0
Time=31665 Track=9 note_on channel=7 note=65 velocity=92 time=0
Time=31665 Track=9 note_on channel=7 note=69 velocity=92 time=0
Time=31665 Track=15 note_on channel=14 note=67 velocity=0 time=0
Time=31675 Track=8 note_on channel=6 note=60 velocity=0 time=115
Time=31675 Track=8 note_on channel=6 note=79 velocity=0 time=0
Time=31675 Track=8 note_on channel=6 note=72 velocity=0 time=0
Time=31675 Track=8 note_on channel=6 note=76 velocity=0 time=0
Time=31675 Track=11 note_on channel=9 note=46 velocity=0 time=55
Time=31675 Track=16 note_on channel=15 note=64 velocity=0 time=0
Time=31680 Track=3 note_on channel=0 note=38 velocity=103 time=195
Time=31680 Track=4 note_on channel=1 note=38 velocity=101 time=200
Time=31680 Track=8 note_on channel=6 note=81 velocity=72 time=5
Time=31680 Track=8 note_on channel=6 note=77 velocity=72 time=0
Time=31680 Track=8 note_on channel=6 note=74 velocity=72 time=0
Time=31680 Track=8 note_on channel=6 note=62 velocity=72 time=0
Time=31680 Track=11 note_on channel=9 note=36 velocity=121 time=5
Time=31680 Track=11 note_on channel=9 note=42 velocity=111 time=0
Time=31680 Track=11 note_on channel=9 note=49 velocity=92 time=0
Time=31680 Track=15 note_on channel=14 note=62 velocity=127 time=0
Time=31680 Track=16 note_on channel=15 note=60 velocity=112 time=0
Time=31705 Track=11 note_on channel=9 note=42 velocity=0 time=25
Time=31710 Track=11 note_on channel=9 note=42 velocity=82 time=5
Time=31735 Track=11 note_on channel=9 note=42 velocity=0 time=25
Time=31735 Track=11 note_on channel=9 note=49 velocity=0 time=0
Time=31735 Track=11 note_on channel=9 note=36 velocity=0 time=0
Time=31735 Track=16 note_on channel=15 note=60 velocity=0 time=30
Time=31740 Track=11 note_on channel=9 note=42 velocity=111 time=5
Time=31765 Track=11 note_on channel=9 note=42 velocity=0 time=25
Time=31770 Track=11 note_on channel=9 note=42 velocity=85 time=5
Time=31770 Track=15 note_on channel=14 note=62 velocity=0 time=10
Time=31795 Track=4 note_on channel=1 note=38 velocity=0 time=115
Time=31795 Track=11 note_on channel=9 note=42 velocity=0 time=25
Time=31795 Track=15 note_on channel=14 note=65 velocity=127 time=25
Time=31800 Track=3 note_on channel=0 note=38 velocity=0 time=120
Time=31800 Track=11 note_on channel=9 note=36 velocity=120 time=5
Time=31800 Track=11 note_on channel=9 note=42 velocity=115 time=0
Time=31800 Track=16 note_on channel=15 note=62 velocity=127 time=0
Time=31825 Track=11 note_on channel=9 note=42 velocity=0 time=25
Time=31830 Track=11 note_on channel=9 note=42 velocity=82 time=5
Time=31840 Track=15 note_on channel=14 note=65 velocity=0 time=10
Time=31855 Track=11 note_on channel=9 note=42 velocity=0 time=25
Time=31855 Track=11 note_on channel=9 note=36 velocity=0 time=0
Time=31860 Track=3 note_on channel=0 note=36 velocity=102 time=60
Time=31860 Track=4 note_on channel=1 note=36 velocity=101 time=65
Time=31860 Track=11 note_on channel=9 note=42 velocity=111 time=5
Time=31885 Track=11 note_on channel=9 note=42 velocity=0 time=25
Time=31890 Track=11 note_on channel=9 note=42 velocity=82 time=5
Time=31890 Track=16 note_on channel=15 note=62 velocity=0 time=10
Time=31915 Track=3 note_on channel=0 note=36 velocity=0 time=55
Time=31915 Track=4 note_on channel=1 note=36 velocity=0 time=55
Time=31915 Track=11 note_on channel=9 note=42 velocity=0 time=25
Time=31915 Track=16 note_on channel=15 note=65 velocity=127 time=25
Time=31920 Track=3 note_on channel=0 note=38 velocity=102 time=5
Time=31920 Track=4 note_on channel=1 note=38 velocity=101 time=5
Time=31920 Track=11 note_on channel=9 note=36 velocity=120 time=5
Time=31920 Track=11 note_on channel=9 note=42 velocity=104 time=0
Time=31945 Track=11 note_on channel=9 note=42 velocity=0 time=25
Time=31950 Track=11 note_on channel=9 note=42 velocity=85 time=5
Time=31960 Track=4 note_on channel=1 note=38 velocity=0 time=40
Time=31960 Track=16 note_on channel=15 note=65 velocity=0 time=10
Time=31965 Track=3 note_on channel=0 note=38 velocity=0 time=45
Time=31975 Track=11 note_on channel=9 note=42 velocity=0 time=25
Time=31975 Track=11 note_on channel=9 note=36 velocity=0 time=0
Time=31980 Track=11 note_on channel=9 note=42 velocity=111 time=5
Time=31985 Track=15 note_on channel=14 note=66 velocity=93 time=145
Time=31985 Track=15 note_on channel=14 note=71 velocity=93 time=0
Time=31986 Track=15 note_on channel=14 note=66 velocity=0 time=1
Time=31990 Track=15 note_on channel=14 note=71 velocity=0 time=4
Time=32005 Track=11 note_on channel=9 note=42 velocity=0 time=25
Time=32005 Track=15 note_on channel=14 note=71 velocity=93 time=0
Time=32010 Track=11 note_on channel=9 note=42 velocity=82 time=5
Time=32010 Track=15 note_on channel=14 note=66 velocity=93 time=0
Time=32020 Track=15 note_on channel=14 note=66 velocity=0 time=5
Time=32020 Track=15 note_on channel=14 note=71 velocity=0 time=0
Time=32035 Track=11 note_on channel=9 note=42 velocity=0 time=25
Time=32040 Track=11 note_on channel=9 note=36 velocity=119 time=5
Time=32040 Track=11 note_on channel=9 note=40 velocity=127 time=0
Time=32040 Track=11 note_on channel=9 note=42 velocity=116 time=0
Time=32040 Track=15 note_on channel=14 note=65 velocity=127 time=20
Time=32040 Track=15 note_on channel=14 note=69 velocity=127 time=0
Time=32065 Track=11 note_on channel=9 note=42 velocity=0 time=25
Time=32070 Track=11 note_on channel=9 note=42 velocity=79 time=5
Time=32070 Track=15 note_on channel=14 note=62 velocity=90 time=0
Time=32070 Track=15 note_on channel=14 note=69 velocity=0 time=0
Time=32070 Track=15 note_on channel=14 note=65 velocity=0 time=0
Time=32095 Track=11 note_on channel=9 note=42 velocity=0 time=25
Time=32095 Track=11 note_on channel=9 note=40 velocity=0 time=0
Time=32100 Track=11 note_on channel=9 note=46 velocity=111 time=5
Time=32100 Track=11 note_on channel=9 note=36 velocity=0 time=0
Time=32105 Track=16 note_on channel=15 note=66 velocity=93 time=145
Time=32105 Track=16 note_on channel=15 note=71 velocity=93 time=0
Time=32106 Track=16 note_on channel=15 note=66 velocity=0 time=1
Time=32110 Track=16 note_on channel=15 note=71 velocity=0 time=4
Time=32125 Track=15 note_on channel=14 note=62 velocity=0 time=15
Time=32125 Track=16 note_on channel=15 note=71 velocity=93 time=0
Time=32130 Track=16 note_on channel=15 note=66 velocity=93 time=0
Time=32135 Track=15 note_on channel=14 note=66 velocity=90 time=0
Time=32136 Track=15 note_on channel=14 note=66 velocity=0 time=1
Time=32140 Track=16 note_on channel=15 note=66 velocity=0 time=5
Time=32140 Track=16 note_on channel=15 note=71 velocity=0 time=0
Time=32155 Track=11 note_on channel=9 note=46 velocity=0 time=55
Time=32160 Track=3 note_on channel=0 note=38 velocity=101 time=195
Time=32160 Track=4 note_on channel=1 note=38 velocity=100 time=200
Time=32160 Track=11 note_on channel=9 note=36 velocity=121 time=5
Time=32160 Track=11 note_on channel=9 note=42 velocity=108 time=0
Time=32160 Track=15 note_on channel=14 note=65 velocity=127 time=0
Time=32160 Track=16 note_on channel=15 note=65 velocity=127 time=20
Time=32160 Track=16 note_on channel=15 note=69 velocity=127 time=0
Time=32165 Track=15 note_on channel=14 note=69 velocity=127 time=5
Time=32185 Track=11 note_on channel=9 note=42 velocity=0 time=25
Time=32190 Track=11 note_on channel=9 note=42 velocity=79 time=5
Time=32190 Track=16 note_on channel=15 note=62 velocity=90 time=0
Time=32190 Track=16 note_on channel=15 note=69 velocity=0 time=0
Time=32190 Track=16 note_on channel=15 note=65 velocity=0 time=0
Time=32195 Track=15 note_on channel=14 note=69 velocity=0 time=10
Time=32195 Track=15 note_on channel=14 note=65 velocity=0 time=0
Time=32215 Track=11 note_on channel=9 note=42 velocity=0 time=25
Time=32215 Track=11 note_on channel=9 note=36 velocity=0 time=0
Time=32220 Track=11 note_on channel=9 note=42 velocity=108 time=5
Time=32220 Track=15 note_on channel=14 note=65 velocity=109 time=0
Time=32240 Track=15 note_on channel=14 note=65 velocity=0 time=0
Time=32245 Track=11 note_on channel=9 note=42 velocity=0 time=25
Time=32245 Track=15 note_on channel=14 note=62 velocity=127 time=0
Time=32245 Track=16 note_on channel=15 note=62 velocity=0 time=15
Time=32250 Track=11 note_on channel=9 note=42 velocity=79 time=5
Time=32255 Track=16 note_on channel=15 note=66 velocity=90 time=0
Time=32256 Track=16 note_on channel=15 note=66 velocity=0 time=1
Time=32275 Track=4 note_on channel=1 note=38 velocity=0 time=115
Time=32275 Track=11 note_on channel=9 note=42 velocity=0 time=25
Time=32280 Track=3 note_on channel=0 note=38 velocity=0 time=120
Time=32280 Track=11 note_on channel=9 note=36 velocity=120 time=5
Time=32280 Track=11 note_on channel=9 note=42 velocity=115 time=0
Time=32280 Track=16 note_on channel=15 note=65 velocity=127 time=0
Time=32285 Track=16 note_on channel=15 note=69 velocity=127 time=5
Time=32295 Track=15 note_on channel=14 note=62 velocity=0 time=0
Time=32305 Track=11 note_on channel=9 note=42 velocity=0 time=25
Time=32310 Track=11 note_on channel=9 note=42 velocity=76 time=5
Time=32315 Track=16 note_on channel=15 note=69 velocity=0 time=10
Time=32315 Track=16 note_on channel=15 note=65 velocity=0 time=0
Time=32335 Track=11 note_on channel=9 note=42 velocity=0 time=25
Time=32335 Track=11 note_on channel=9 note=36 velocity=0 time=0
Time=32340 Track=3 note_on channel=0 note=38 velocity=101 time=60
Time=32340 Track=4 note_on channel=1 note=38 velocity=99 time=65
Time=32340 Track=11 note_on channel=9 note=42 velocity=111 time=5
Time=32340 Track=15 note_on channel=14 note=65 velocity=127 time=0
Time=32340 Track=15 note_on channel=14 note=69 velocity=127 time=0
Time=32340 Track=16 note_on channel=15 note=65 velocity=109 time=0
Time=32360 Track=16 note_on channel=15 note=65 velocity=0 time=0
Time=32365 Track=11 note_on channel=9 note=42 velocity=0 time=25
Time=32365 Track=15 note_on channel=14 note=69 velocity=0 time=0
Time=32365 Track=16 note_on channel=15 note=62 velocity=127 time=0
Time=32370 Track=11 note_on channel=9 note=42 velocity=76 time=5
Time=32370 Track=15 note_on channel=14 note=65 velocity=0 time=5
Time=32385 Track=3 note_on channel=0 note=38 velocity=0 time=45
Time=32385 Track=4 note_on channel=1 note=38 velocity=0 time=45
Time=32395 Track=11 note_on channel=9 note=42 velocity=0 time=25
Time=32395 Track=15 note_on channel=14 note=65 velocity=127 time=25
Time=32400 Track=3 note_on channel=0 note=33 velocity=101 time=15
Time=32400 Track=4 note_on channel=1 note=33 velocity=99 time=15
Time=32400 Track=11 note_on channel=9 note=36 velocity=120 time=5
Time=32400 Track=11 note_on channel=9 note=42 velocity=104 time=0
Time=32415 Track=16 note_on channel=15 note=62 velocity=0 time=0
Time=32425 Track=11 note_on channel=9 note=42 velocity=0 time=25
Time=32425 Track=15 note_on channel=14 note=62 velocity=127 time=0
Time=32425 Track=15 note_on channel=14 note=65 velocity=0 time=0
Time=32430 Track=11 note_on channel=9 note=42 velocity=79 time=5
Time=32455 Track=11 note_on channel=9 note=42 velocity=0 time=25
Time=32455 Track=11 note_on channel=9 note=36 velocity=0 time=0
Time=32460 Track=11 note_on channel=9 note=42 velocity=108 time=5
Time=32460 Track=15 note_on channel=14 note=62 velocity=0 time=0
Time=32460 Track=16 note_on channel=15 note=65 velocity=127 time=0
Time=32460 Track=16 note_on channel=15 note=69 velocity=127 time=0
Time=32485 Track=11 note_on channel=9 note=42 velocity=0 time=25
Time=32485 Track=16 note_on channel=15 note=69 velocity=0 time=0
Time=32490 Track=9 note_on channel=7 note=69 velocity=0 time=825
Time=32490 Track=9 note_on channel=7 note=65 velocity=0 time=0
Time=32490 Track=9 note_on channel=7 note=62 velocity=0 time=0
Time=32490 Track=11 note_on channel=9 note=42 velocity=82 time=5
Time=32490 Track=16 note_on channel=15 note=65 velocity=0 time=5
Time=32495 Track=9 note_on channel=7 note=50 velocity=0 time=5
Time=32505 Track=9 note_on channel=7 note=48 velocity=92 time=10
Time=32505 Track=9 note_on channel=7 note=64 velocity=92 time=0
Time=32505 Track=9 note_on channel=7 note=60 velocity=92 time=0
Time=32505 Track=9 note_on channel=7 note=67 velocity=92 time=0
Time=32515 Track=3 note_on channel=0 note=33 velocity=0 time=115
Time=32515 Track=4 note_on channel=1 note=33 velocity=0 time=115
Time=32515 Track=8 note_on channel=6 note=62 velocity=0 time=835
Time=32515 Track=8 note_on channel=6 note=81 velocity=0 time=0
Time=32515 Track=8 note_on channel=6 note=77 velocity=0 time=0
Time=32515 Track=8 note_on channel=6 note=74 velocity=0 time=0
Time=32515 Track=11 note_on channel=9 note=42 velocity=0 time=25
Time=32515 Track=15 note_on channel=14 note=65 velocity=127 time=0
Time=32515 Track=15 note_on channel=14 note=69 velocity=127 time=0
Time=32515 Track=16 note_on channel=15 note=65 velocity=127 time=25
Time=32520 Track=3 note_on channel=0 note=36 velocity=100 time=5
Time=32520 Track=4 note_on channel=1 note=36 velocity=99 time=5
Time=32520 Track=8 note_on channel=6 note=79 velocity=72 time=5
Time=32520 Track=8 note_on channel=6 note=72 velocity=72 time=0
Time=32520 Track=8 note_on channel=6 note=76 velocity=72 time=0
Time=32520 Track=8 note_on channel=6 note=60 velocity=72 time=0
Time=32520 Track=11 note_on channel=9 note=36 velocity=119 time=5
Time=32520 Track=11 note_on channel=9 note=40 velocity=127 time=0
Time=32520 Track=11 note_on channel=9 note=42 velocity=116 time=0
Time=32545 Track=11 note_on channel=9 note=42 velocity=0 time=25
Time=32545 Track=16 note_on channel=15 note=62 velocity=127 time=0
Time=32545 Track=16 note_on channel=15 note=65 velocity=0 time=0
Time=32550 Track=11 note_on channel=9 note=42 velocity=79 time=5
Time=32560 Track=15 note_on channel=14 note=65 velocity=0 time=0
Time=32565 Track=15 note_on channel=14 note=69 velocity=0 time=5
Time=32570 Track=15 note_on channel=14 note=67 velocity=127 time=0
Time=32575 Track=11 note_on channel=9 note=42 velocity=0 time=25
Time=32575 Track=11 note_on channel=9 note=40 velocity=0 time=0
Time=32575 Track=15 note_on channel=14 note=71 velocity=120 time=5
Time=32580 Track=11 note_on channel=9 note=46 velocity=111 time=5
Time=32580 Track=11 note_on channel=9 note=36 velocity=0 time=0
Time=32580 Track=16 note_on channel=15 note=62 velocity=0 time=0
Time=32590 Track=15 note_on channel=14 note=71 velocity=0 time=5
Time=32595 Track=15 note_on channel=14 note=70 velocity=127 time=0
Time=32600 Track=15 note_on channel=14 note=67 velocity=127 time=0
Time=32600 Track=15 note_on channel=14 note=70 velocity=0 time=0
Time=32600 Track=15 note_on channel=14 note=67 velocity=0 time=0
Time=32610 Track=9 note_on channel=7 note=67 velocity=0 time=105
Time=32610 Track=9 note_on channel=7 note=60 velocity=0 time=0
Time=32610 Track=9 note_on channel=7 note=64 velocity=0 time=0
Time=32615 Track=9 note_on channel=7 note=48 velocity=0 time=5
Time=32625 Track=9 note_on channel=7 note=50 velocity=92 time=10
Time=32625 Track=9 note_on channel=7 note=62 velocity=92 time=0
Time=32625 Track=9 note_on channel=7 note=65 velocity=92 time=0
Time=32625 Track=9 note_on channel=7 note=69 velocity=92 time=0
Time=32635 Track=3 note_on channel=0 note=36 velocity=0 time=115
Time=32635 Track=4 note_on channel=1 note=36 velocity=0 time=115
Time=32635 Track=8 note_on channel=6 note=60 velocity=0 time=115
Time=32635 Track=8 note_on channel=6 note=79 velocity=0 time=0
Time=32635 Track=8 note_on channel=6 note=72 velocity=0 time=0
Time=32635 Track=8 note_on channel=6 note=76 velocity=0 time=0
Time=32635 Track=11 note_on channel=9 note=46 velocity=0 time=55
Time=32635 Track=16 note_on channel=15 note=65 velocity=127 time=0
Time=32635 Track=16 note_on channel=15 note=69 velocity=127 time=0
Time=32640 Track=3 note_on channel=0 note=38 velocity=103 time=5
Time=32640 Track=4 note_on channel=1 note=38 velocity=101 time=5
Time=32640 Track=8 note_on channel=6 note=81 velocity=72 time=5
Time=32640 Track=8 note_on channel=6 note=77 velocity=72 time=0
Time=32640 Track=8 note_on channel=6 note=74 velocity=72 time=0
Time=32640 Track=8 note_on channel=6 note=62 velocity=72 time=0
Time=32640 Track=11 note_on channel=9 note=36 velocity=121 time=5
Time=32640 Track=11 note_on channel=9 note=42 velocity=117 time=0
Time=32640 Track=11 note_on channel=9 note=49 velocity=92 time=0
Time=32665 Track=11 note_on channel=9 note=42 velocity=0 time=25
Time=32670 Track=11 note_on channel=9 note=42 velocity=79 time=5
Time=32680 Track=16 note_on channel=15 note=65 velocity=0 time=0
Time=32685 Track=16 note_on channel=15 note=69 velocity=0 time=5
Time=32690 Track=16 note_on channel=15 note=67 velocity=127 time=0
Time=32695 Track=11 note_on channel=9 note=42 velocity=0 time=25
Time=32695 Track=11 note_on channel=9 note=49 velocity=0 time=0
Time=32695 Track=16 note_on channel=15 note=71 velocity=120 time=5
Time=32700 Track=11 note_on channel=9 note=42 velocity=111 time=5
Time=32700 Track=11 note_on channel=9 note=36 velocity=0 time=0
Time=32710 Track=16 note_on channel=15 note=71 velocity=0 time=5
Time=32715 Track=16 note_on channel=15 note=70 velocity=127 time=0
Time=32720 Track=16 note_on channel=15 note=67 velocity=127 time=0
Time=32720 Track=16 note_on channel=15 note=70 velocity=0 time=0
Time=32720 Track=16 note_on channel=15 note=67 velocity=0 time=0
Time=32725 Track=11 note_on channel=9 note=42 velocity=0 time=25
Time=32730 Track=11 note_on channel=9 note=42 velocity=85 time=5
Time=32755 Track=4 note_on channel=1 note=38 velocity=0 time=115
Time=32755 Track=11 note_on channel=9 note=42 velocity=0 time=25
Time=32760 Track=3 note_on channel=0 note=38 velocity=0 time=120
Time=32760 Track=11 note_on channel=9 note=36 velocity=120 time=5
Time=32760 Track=11 note_on channel=9 note=42 velocity=115 time=0
Time=32785 Track=11 note_on channel=9 note=42 velocity=0 time=25
Time=32790 Track=11 note_on channel=9 note=42 velocity=79 time=5
Time=32815 Track=11 note_on channel=9 note=42 velocity=0 time=25
Time=32815 Track=11 note_on channel=9 note=36 velocity=0 time=0
Time=32820 Track=3 note_on channel=0 note=36 velocity=102 time=60
Time=32820 Track=4 note_on channel=1 note=36 velocity=101 time=65
Time=32820 Track=11 note_on channel=9 note=42 velocity=117 time=5
Time=32845 Track=11 note_on channel=9 note=42 velocity=0 time=25
Time=32850 Track=11 note_on channel=9 note=42 velocity=79 time=5
Time=32875 Track=3 note_on channel=0 note=36 velocity=0 time=55
Time=32875 Track=4 note_on channel=1 note=36 velocity=0 time=55
Time=32875 Track=11 note_on channel=9 note=42 velocity=0 time=25
Time=32880 Track=3 note_on channel=0 note=38 velocity=102 time=5
Time=32880 Track=4 note_on channel=1 note=38 velocity=101 time=5
Time=32880 Track=11 note_on channel=9 note=36 velocity=120 time=5
Time=32880 Track=11 note_on channel=9 note=42 velocity=111 time=0
Time=32905 Track=11 note_on channel=9 note=42 velocity=0 time=25
Time=32910 Track=11 note_on channel=9 note=42 velocity=79 time=5
Time=32915 Track=15 note_on channel=14 note=67 velocity=0 time=10
Time=32920 Track=4 note_on channel=1 note=38 velocity=0 time=40
Time=32925 Track=3 note_on channel=0 note=38 velocity=0 time=45
Time=32935 Track=11 note_on channel=9 note=42 velocity=0 time=25
Time=32935 Track=11 note_on channel=9 note=36 velocity=0 time=0
Time=32940 Track=11 note_on channel=9 note=42 velocity=108 time=5
Time=32965 Track=11 note_on channel=9 note=42 velocity=0 time=25
Time=32970 Track=11 note_on channel=9 note=42 velocity=82 time=5
Time=32995 Track=11 note_on channel=9 note=42 velocity=0 time=25
Time=33000 Track=11 note_on channel=9 note=36 velocity=119 time=5
Time=33000 Track=11 note_on channel=9 note=40 velocity=127 time=0
Time=33000 Track=11 note_on channel=9 note=42 velocity=116 time=0
Time=33025 Track=11 note_on channel=9 note=42 velocity=0 time=25
Time=33030 Track=11 note_on channel=9 note=42 velocity=79 time=5
Time=33035 Track=16 note_on channel=15 note=67 velocity=0 time=10
Time=33055 Track=11 note_on channel=9 note=42 velocity=0 time=25
Time=33055 Track=11 note_on channel=9 note=40 velocity=0 time=0
Time=33060 Track=11 note_on channel=9 note=46 velocity=111 time=5
Time=33060 Track=11 note_on channel=9 note=36 velocity=0 time=0
Time=33115 Track=11 note_on channel=9 note=46 velocity=0 time=55
Time=33120 Track=3 note_on channel=0 note=38 velocity=103 time=195
Time=33120 Track=4 note_on channel=1 note=38 velocity=101 time=200
Time=33120 Track=11 note_on channel=9 note=36 velocity=121 time=5
Time=33120 Track=11 note_on channel=9 note=42 velocity=114 time=0
Time=33145 Track=11 note_on channel=9 note=42 velocity=0 time=25
Time=33150 Track=11 note_on channel=9 note=42 velocity=79 time=5
Time=33175 Track=11 note_on channel=9 note=42 velocity=0 time=25
Time=33175 Track=11 note_on channel=9 note=36 velocity=0 time=0
Time=33180 Track=11 note_on channel=9 note=42 velocity=111 time=5
Time=33205 Track=11 note_on channel=9 note=42 velocity=0 time=25
Time=33210 Track=11 note_on channel=9 note=42 velocity=79 time=5
Time=33235 Track=4 note_on channel=1 note=38 velocity=0 time=115
Time=33235 Track=11 note_on channel=9 note=42 velocity=0 time=25
Time=33240 Track=3 note_on channel=0 note=38 velocity=0 time=120
Time=33240 Track=11 note_on channel=9 note=36 velocity=120 time=5
Time=33240 Track=11 note_on channel=9 note=42 velocity=115 time=0
Time=33265 Track=11 note_on channel=9 note=42 velocity=0 time=25
Time=33270 Track=11 note_on channel=9 note=42 velocity=76 time=5
Time=33295 Track=11 note_on channel=9 note=42 velocity=0 time=25
Time=33295 Track=11 note_on channel=9 note=36 velocity=0 time=0
Time=33300 Track=3 note_on channel=0 note=36 velocity=102 time=60
Time=33300 Track=4 note_on channel=1 note=36 velocity=101 time=65
Time=33300 Track=11 note_on channel=9 note=42 velocity=114 time=5
Time=33325 Track=11 note_on channel=9 note=42 velocity=0 time=25
Time=33330 Track=11 note_on channel=9 note=42 velocity=76 time=5
Time=33355 Track=3 note_on channel=0 note=36 velocity=0 time=55
Time=33355 Track=4 note_on channel=1 note=36 velocity=0 time=55
Time=33355 Track=11 note_on channel=9 note=42 velocity=0 time=25
Time=33360 Track=3 note_on channel=0 note=38 velocity=102 time=5
Time=33360 Track=4 note_on channel=1 note=38 velocity=101 time=5
Time=33360 Track=11 note_on channel=9 note=36 velocity=120 time=5
Time=33360 Track=11 note_on channel=9 note=42 velocity=104 time=0
Time=33385 Track=11 note_on channel=9 note=42 velocity=0 time=25
Time=33390 Track=11 note_on channel=9 note=42 velocity=76 time=5
Time=33400 Track=4 note_on channel=1 note=38 velocity=0 time=40
Time=33405 Track=3 note_on channel=0 note=38 velocity=0 time=45
Time=33415 Track=11 note_on channel=9 note=42 velocity=0 time=25
Time=33415 Track=11 note_on channel=9 note=36 velocity=0 time=0
Time=33420 Track=11 note_on channel=9 note=42 velocity=114 time=5
Time=33420 Track=15 note_on channel=14 note=62 velocity=127 time=0
Time=33420 Track=15 note_on channel=14 note=62 velocity=42 time=0
Time=33421 Track=15 note_on channel=14 note=62 velocity=0 time=1
Time=33425 Track=15 note_on channel=14 note=62 velocity=0 time=0
Time=33430 Track=15 note_on channel=14 note=65 velocity=127 time=0
Time=33435 Track=15 note_on channel=14 note=65 velocity=0 time=0
Time=33440 Track=15 note_on channel=14 note=69 velocity=127 time=0
Time=33445 Track=11 note_on channel=9 note=42 velocity=0 time=25
Time=33450 Track=11 note_on channel=9 note=42 velocity=74 time=5
Time=33450 Track=15 note_on channel=14 note=74 velocity=127 time=0
Time=33470 Track=15 note_on channel=14 note=74 velocity=0 time=0
Time=33475 Track=11 note_on channel=9 note=42 velocity=0 time=25
Time=33475 Track=15 note_on channel=14 note=76 velocity=127 time=0
Time=33480 Track=11 note_on channel=9 note=36 velocity=119 time=5
Time=33480 Track=11 note_on channel=9 note=40 velocity=127 time=0
Time=33480 Track=11 note_on channel=9 note=42 velocity=116 time=0
Time=33480 Track=15 note_on channel=14 note=69 velocity=0 time=0
Time=33505 Track=11 note_on channel=9 note=42 velocity=0 time=25
Time=33510 Track=11 note_on channel=9 note=42 velocity=74 time=5
Time=33535 Track=11 note_on channel=9 note=42 velocity=0 time=25
Time=33535 Track=11 note_on channel=9 note=40 velocity=0 time=0
Time=33540 Track=11 note_on channel=9 note=46 velocity=111 time=5
Time=33540 Track=11 note_on channel=9 note=36 velocity=0 time=0
Time=33540 Track=16 note_on channel=15 note=62 velocity=127 time=0
Time=33540 Track=16 note_on channel=15 note=62 velocity=42 time=0
Time=33541 Track=16 note_on channel=15 note=62 velocity=0 time=1
Time=33545 Track=16 note_on channel=15 note=62 velocity=0 time=0
Time=33550 Track=16 note_on channel=15 note=65 velocity=127 time=0
Time=33555 Track=16 note_on channel=15 note=65 velocity=0 time=0
Time=33560 Track=16 note_on channel=15 note=69 velocity=127 time=0
Time=33570 Track=9 note_on channel=7 note=69 velocity=0 time=945
Time=33570 Track=9 note_on channel=7 note=65 velocity=0 time=0
Time=33570 Track=9 note_on channel=7 note=62 velocity=0 time=0
Time=33570 Track=16 note_on channel=15 note=74 velocity=127 time=0
Time=33575 Track=9 note_on channel=7 note=50 velocity=0 time=5
Time=33585 Track=9 note_on channel=7 note=64 velocity=92 time=10
Time=33585 Track=9 note_on channel=7 note=60 velocity=92 time=0
Time=33585 Track=9 note_on channel=7 note=50 velocity=92 time=0
Time=33585 Track=9 note_on channel=7 note=69 velocity=92 time=0
Time=33590 Track=16 note_on channel=15 note=74 velocity=0 time=0
Time=33595 Track=8 note_on channel=6 note=62 velocity=0 time=955
Time=33595 Track=8 note_on channel=6 note=81 velocity=0 time=0
Time=33595 Track=8 note_on channel=6 note=77 velocity=0 time=0
Time=33595 Track=8 note_on channel=6 note=74 velocity=0 time=0
Time=33595 Track=11 note_on channel=9 note=46 velocity=0 time=55
Time=33595 Track=16 note_on channel=15 note=76 velocity=127 time=0
Time=33600 Track=3 note_on channel=0 note=38 velocity=103 time=195
Time=33600 Track=4 note_on channel=1 note=38 velocity=101 time=200
Time=33600 Track=8 note_on channel=6 note=81 velocity=72 time=5
Time=33600 Track=8 note_on channel=6 note=62 velocity=72 time=0
Time=33600 Track=8 note_on channel=6 note=72 velocity=72 time=0
Time=33600 Track=8 note_on channel=6 note=76 velocity=72 time=0
Time=33600 Track=11 note_on channel=9 note=36 velocity=121 time=5
Time=33600 Track=11 note_on channel=9 note=42 velocity=111 time=0
Time=33600 Track=11 note_on channel=9 note=49 velocity=92 time=0
Time=33600 Track=16 note_on channel=15 note=69 velocity=0 time=0
Time=33625 Track=11 note_on channel=9 note=42 velocity=0 time=25
Time=33630 Track=11 note_on channel=9 note=42 velocity=82 time=5
Time=33655 Track=11 note_on channel=9 note=42 velocity=0 time=25
Time=33655 Track=11 note_on channel=9 note=49 velocity=0 time=0
Time=33660 Track=11 note_on channel=9 note=42 velocity=111 time=5
Time=33660 Track=11 note_on channel=9 note=36 velocity=0 time=0
Time=33685 Track=11 note_on channel=9 note=42 velocity=0 time=25
Time=33690 Track=11 note_on channel=9 note=42 velocity=85 time=5
Time=33715 Track=4 note_on channel=1 note=38 velocity=0 time=115
Time=33715 Track=11 note_on channel=9 note=42 velocity=0 time=25
Time=33720 Track=3 note_on channel=0 note=38 velocity=0 time=120
Time=33720 Track=11 note_on channel=9 note=36 velocity=120 time=5
Time=33720 Track=11 note_on channel=9 note=42 velocity=115 time=0
Time=33745 Track=11 note_on channel=9 note=42 velocity=0 time=25
Time=33750 Track=11 note_on channel=9 note=42 velocity=82 time=5
Time=33770 Track=15 note_on channel=14 note=76 velocity=0 time=195
Time=33775 Track=11 note_on channel=9 note=42 velocity=0 time=25
Time=33775 Track=11 note_on channel=9 note=36 velocity=0 time=0
Time=33780 Track=3 note_on channel=0 note=36 velocity=102 time=60
Time=33780 Track=4 note_on channel=1 note=36 velocity=101 time=65
Time=33780 Track=11 note_on channel=9 note=42 velocity=111 time=5
Time=33780 Track=15 note_on channel=14 note=77 velocity=100 time=0
Time=33805 Track=11 note_on channel=9 note=42 velocity=0 time=25
Time=33810 Track=11 note_on channel=9 note=42 velocity=82 time=5
Time=33820 Track=15 note_on channel=14 note=77 velocity=0 time=10
Time=33835 Track=3 note_on channel=0 note=36 velocity=0 time=55
Time=33835 Track=4 note_on channel=1 note=36 velocity=0 time=55
Time=33835 Track=11 note_on channel=9 note=42 velocity=0 time=25
Time=33840 Track=3 note_on channel=0 note=38 velocity=102 time=5
Time=33840 Track=4 note_on channel=1 note=38 velocity=101 time=5
Time=33840 Track=11 note_on channel=9 note=36 velocity=120 time=5
Time=33840 Track=11 note_on channel=9 note=42 velocity=104 time=0
Time=33840 Track=15 note_on channel=14 note=77 velocity=113 time=0
Time=33865 Track=11 note_on channel=9 note=42 velocity=0 time=25
Time=33865 Track=15 note_on channel=14 note=77 velocity=0 time=20
Time=33870 Track=11 note_on channel=9 note=42 velocity=85 time=5
Time=33870 Track=15 note_on channel=14 note=76 velocity=107 time=5
Time=33880 Track=4 note_on channel=1 note=38 velocity=0 time=40
Time=33885 Track=3 note_on channel=0 note=38 velocity=0 time=45
Time=33890 Track=16 note_on channel=15 note=76 velocity=0 time=195
Time=33895 Track=11 note_on channel=9 note=42 velocity=0 time=25
Time=33895 Track=11 note_on channel=9 note=36 velocity=0 time=0
Time=33900 Track=11 note_on channel=9 note=42 velocity=111 time=5
Time=33900 Track=16 note_on channel=15 note=77 velocity=100 time=0
Time=33925 Track=11 note_on channel=9 note=42 velocity=0 time=25
Time=33930 Track=11 note_on channel=9 note=42 velocity=82 time=5
Time=33940 Track=16 note_on channel=15 note=77 velocity=0 time=10
Time=33955 Track=11 note_on channel=9 note=42 velocity=0 time=25
Time=33955 Track=15 note_on channel=14 note=76 velocity=0 time=85
Time=33960 Track=11 note_on channel=9 note=36 velocity=119 time=5
Time=33960 Track=11 note_on channel=9 note=40 velocity=127 time=0
Time=33960 Track=11 note_on channel=9 note=42 velocity=116 time=0
Time=33960 Track=16 note_on channel=15 note=77 velocity=113 time=0
Time=33985 Track=11 note_on channel=9 note=42 velocity=0 time=25
Time=33985 Track=16 note_on channel=15 note=77 velocity=0 time=20
Time=33990 Track=11 note_on channel=9 note=42 velocity=79 time=5
Time=33990 Track=16 note_on channel=15 note=76 velocity=107 time=5
Time=34015 Track=11 note_on channel=9 note=42 velocity=0 time=25
Time=34015 Track=11 note_on channel=9 note=40 velocity=0 time=0
Time=34015 Track=11 note_on channel=9 note=36 velocity=0 time=0
Time=34020 Track=11 note_on channel=9 note=46 velocity=111 time=5
Time=34075 Track=11 note_on channel=9 note=46 velocity=0 time=55
Time=34075 Track=16 note_on channel=15 note=76 velocity=0 time=85
Time=34080 Track=3 note_on channel=0 note=38 velocity=101 time=195
Time=34080 Track=4 note_on channel=1 note=38 velocity=100 time=200
Time=34080 Track=11 note_on channel=9 note=36 velocity=121 time=5
Time=34080 Track=11 note_on channel=9 note=42 velocity=108 time=0
Time=34080 Track=15 note_on channel=14 note=72 velocity=127 time=0
Time=34105 Track=11 note_on channel=9 note=42 velocity=0 time=25
Time=34110 Track=11 note_on channel=9 note=42 velocity=79 time=5
Time=34135 Track=11 note_on channel=9 note=42 velocity=0 time=25
Time=34135 Track=11 note_on channel=9 note=36 velocity=0 time=0
Time=34140 Track=11 note_on channel=9 note=42 velocity=108 time=5
Time=34145 Track=15 note_on channel=14 note=72 velocity=0 time=10
Time=34165 Track=11 note_on channel=9 note=42 velocity=0 time=25
Time=34170 Track=11 note_on channel=9 note=42 velocity=79 time=5
Time=34170 Track=15 note_on channel=14 note=74 velocity=127 time=0
Time=34195 Track=4 note_on channel=1 note=38 velocity=0 time=115
Time=34195 Track=11 note_on channel=9 note=42 velocity=0 time=25
Time=34200 Track=3 note_on channel=0 note=38 velocity=0 time=120
Time=34200 Track=11 note_on channel=9 note=36 velocity=120 time=5
Time=34200 Track=11 note_on channel=9 note=42 velocity=115 time=0
Time=34200 Track=16 note_on channel=15 note=72 velocity=127 time=0
Time=34225 Track=11 note_on channel=9 note=42 velocity=0 time=25
Time=34230 Track=11 note_on channel=9 note=42 velocity=76 time=5
Time=34255 Track=11 note_on channel=9 note=42 velocity=0 time=25
Time=34255 Track=11 note_on channel=9 note=36 velocity=0 time=0
Time=34260 Track=3 note_on channel=0 note=38 velocity=101 time=60
Time=34260 Track=4 note_on channel=1 note=38 velocity=99 time=65
Time=34260 Track=11 note_on channel=9 note=42 velocity=111 time=5
Time=34265 Track=16 note_on channel=15 note=72 velocity=0 time=10
Time=34285 Track=11 note_on channel=9 note=42 velocity=0 time=25
Time=34290 Track=11 note_on channel=9 note=42 velocity=76 time=5
Time=34290 Track=16 note_on channel=15 note=74 velocity=127 time=0
Time=34305 Track=3 note_on channel=0 note=38 velocity=0 time=45
Time=34305 Track=4 note_on channel=1 note=38 velocity=0 time=45
Time=34315 Track=11 note_on channel=9 note=42 velocity=0 time=25
Time=34320 Track=3 note_on channel=0 note=33 velocity=101 time=15
Time=34320 Track=4 note_on channel=1 note=33 velocity=99 time=15
Time=34320 Track=11 note_on channel=9 note=36 velocity=120 time=5
Time=34320 Track=11 note_on channel=9 note=42 velocity=104 time=0
Time=34345 Track=11 note_on channel=9 note=42 velocity=0 time=25
Time=34350 Track=11 note_on channel=9 note=42 velocity=79 time=5
Time=34375 Track=11 note_on channel=9 note=42 velocity=0 time=25
Time=34375 Track=11 note_on channel=9 note=36 velocity=0 time=0
Time=34380 Track=11 note_on channel=9 note=42 velocity=108 time=5
Time=34405 Track=11 note_on channel=9 note=42 velocity=0 time=25
Time=34410 Track=11 note_on channel=9 note=42 velocity=82 time=5
Time=34435 Track=4 note_on channel=1 note=33 velocity=0 time=115
Time=34435 Track=11 note_on channel=9 note=42 velocity=0 time=25
Time=34440 Track=3 note_on channel=0 note=36 velocity=100 time=120
Time=34440 Track=3 note_on channel=0 note=33 velocity=0 time=0
Time=34440 Track=4 note_on channel=1 note=36 velocity=99 time=5
Time=34440 Track=11 note_on channel=9 note=36 velocity=119 time=5
Time=34440 Track=11 note_on channel=9 note=40 velocity=127 time=0
Time=34440 Track=11 note_on channel=9 note=42 velocity=116 time=0
Time=34465 Track=11 note_on channel=9 note=42 velocity=0 time=25
Time=34470 Track=11 note_on channel=9 note=42 velocity=79 time=5
Time=34495 Track=11 note_on channel=9 note=42 velocity=0 time=25
Time=34495 Track=11 note_on channel=9 note=40 velocity=0 time=0
Time=34500 Track=11 note_on channel=9 note=46 velocity=111 time=5
Time=34500 Track=11 note_on channel=9 note=36 velocity=0 time=0
Time=34530 Track=9 note_on channel=7 note=69 velocity=0 time=945
Time=34530 Track=9 note_on channel=7 note=50 velocity=0 time=0
Time=34530 Track=9 note_on channel=7 note=60 velocity=0 time=0
Time=34535 Track=9 note_on channel=7 note=64 velocity=0 time=5
Time=34545 Track=9 note_on channel=7 note=50 velocity=92 time=10
Time=34545 Track=9 note_on channel=7 note=62 velocity=92 time=0
Time=34545 Track=9 note_on channel=7 note=65 velocity=92 time=0
Time=34545 Track=9 note_on channel=7 note=69 velocity=92 time=0
Time=34550 Track=15 note_on channel=14 note=74 velocity=0 time=5
Time=34555 Track=3 note_on channel=0 note=36 velocity=0 time=115
Time=34555 Track=4 note_on channel=1 note=36 velocity=0 time=115
Time=34555 Track=8 note_on channel=6 note=76 velocity=0 time=955
Time=34555 Track=8 note_on channel=6 note=81 velocity=0 time=0
Time=34555 Track=8 note_on channel=6 note=62 velocity=0 time=0
Time=34555 Track=8 note_on channel=6 note=72 velocity=0 time=0
Time=34555 Track=11 note_on channel=9 note=46 velocity=0 time=55
Time=34555 Track=15 note_on channel=14 note=74 velocity=121 time=5
Time=34560 Track=3 note_on channel=0 note=38 velocity=103 time=5
Time=34560 Track=4 note_on channel=1 note=38 velocity=101 time=5
Time=34560 Track=8 note_on channel=6 note=81 velocity=72 time=5
Time=34560 Track=8 note_on channel=6 note=77 velocity=72 time=0
Time=34560 Track=8 note_on channel=6 note=74 velocity=72 time=0
Time=34560 Track=8 note_on channel=6 note=62 velocity=72 time=0
Time=34560 Track=11 note_on channel=9 note=36 velocity=121 time=5
Time=34560 Track=11 note_on channel=9 note=42 velocity=117 time=0
Time=34560 Track=11 note_on channel=9 note=49 velocity=92 time=0
Time=34585 Track=11 note_on channel=9 note=42 velocity=0 time=25
Time=34590 Track=11 note_on channel=9 note=42 velocity=79 time=5
Time=34615 Track=11 note_on channel=9 note=42 velocity=0 time=25
Time=34615 Track=11 note_on channel=9 note=49 velocity=0 time=0
Time=34620 Track=11 note_on channel=9 note=42 velocity=111 time=5
Time=34620 Track=11 note_on channel=9 note=36 velocity=0 time=0
Time=34645 Track=11 note_on channel=9 note=42 velocity=0 time=25
Time=34650 Track=11 note_on channel=9 note=42 velocity=85 time=5
Time=34670 Track=16 note_on channel=15 note=74 velocity=0 time=5
Time=34675 Track=4 note_on channel=1 note=38 velocity=0 time=115
Time=34675 Track=11 note_on channel=9 note=42 velocity=0 time=25
Time=34675 Track=16 note_on channel=15 note=74 velocity=121 time=5
Time=34680 Track=3 note_on channel=0 note=38 velocity=0 time=120
Time=34680 Track=11 note_on channel=9 note=36 velocity=120 time=5
Time=34680 Track=11 note_on channel=9 note=42 velocity=115 time=0
Time=34705 Track=11 note_on channel=9 note=42 velocity=0 time=25
Time=34710 Track=11 note_on channel=9 note=42 velocity=79 time=5
Time=34735 Track=11 note_on channel=9 note=42 velocity=0 time=25
Time=34735 Track=11 note_on channel=9 note=36 velocity=0 time=0
Time=34740 Track=3 note_on channel=0 note=36 velocity=102 time=60
Time=34740 Track=4 note_on channel=1 note=36 velocity=101 time=65
Time=34740 Track=11 note_on channel=9 note=42 velocity=117 time=5
Time=34765 Track=11 note_on channel=9 note=42 velocity=0 time=25
Time=34770 Track=11 note_on channel=9 note=42 velocity=79 time=5
Time=34795 Track=3 note_on channel=0 note=36 velocity=0 time=55
Time=34795 Track=4 note_on channel=1 note=36 velocity=0 time=55
Time=34795 Track=11 note_on channel=9 note=42 velocity=0 time=25
Time=34800 Track=3 note_on channel=0 note=38 velocity=102 time=5
Time=34800 Track=4 note_on channel=1 note=38 velocity=101 time=5
Time=34800 Track=11 note_on channel=9 note=36 velocity=120 time=5
Time=34800 Track=11 note_on channel=9 note=42 velocity=111 time=0
Time=34825 Track=11 note_on channel=9 note=42 velocity=0 time=25
Time=34830 Track=11 note_on channel=9 note=42 velocity=79 time=5
Time=34840 Track=4 note_on channel=1 note=38 velocity=0 time=40
Time=34845 Track=3 note_on channel=0 note=38 velocity=0 time=45
Time=34855 Track=11 note_on channel=9 note=42 velocity=0 time=25
Time=34855 Track=11 note_on channel=9 note=36 velocity=0 time=0
Time=34860 Track=11 note_on channel=9 note=42 velocity=108 time=5
Time=34885 Track=11 note_on channel=9 note=42 velocity=0 time=25
Time=34890 Track=11 note_on channel=9 note=42 velocity=82 time=5
Time=34915 Track=11 note_on channel=9 note=42 velocity=0 time=25
Time=34920 Track=11 note_on channel=9 note=36 velocity=119 time=5
Time=34920 Track=11 note_on channel=9 note=40 velocity=127 time=0
Time=34920 Track=11 note_on channel=9 note=42 velocity=116 time=0
Time=34930 Track=15 note_on channel=14 note=74 velocity=0 time=15
Time=34945 Track=11 note_on channel=9 note=42 velocity=0 time=25
Time=34950 Track=11 note_on channel=9 note=42 velocity=79 time=5
Time=34975 Track=11 note_on channel=9 note=42 velocity=0 time=25
Time=34975 Track=11 note_on channel=9 note=40 velocity=0 time=0
Time=34980 Track=11 note_on channel=9 note=46 velocity=111 time=5
Time=34980 Track=11 note_on channel=9 note=36 velocity=0 time=0
Time=35035 Track=11 note_on channel=9 note=46 velocity=0 time=55
Time=35040 Track=3 note_on channel=0 note=38 velocity=103 time=195
Time=35040 Track=4 note_on channel=1 note=38 velocity=101 time=200
Time=35040 Track=11 note_on channel=9 note=36 velocity=121 time=5
Time=35040 Track=11 note_on channel=9 note=42 velocity=114 time=0
Time=35050 Track=16 note_on channel=15 note=74 velocity=0 time=15
Time=35065 Track=11 note_on channel=9 note=42 velocity=0 time=25
Time=35070 Track=11 note_on channel=9 note=42 velocity=79 time=5
Time=35095 Track=11 note_on channel=9 note=42 velocity=0 time=25
Time=35095 Track=11 note_on channel=9 note=36 velocity=0 time=0
Time=35100 Track=11 note_on channel=9 note=42 velocity=111 time=5
Time=35125 Track=11 note_on channel=9 note=42 velocity=0 time=25
Time=35130 Track=11 note_on channel=9 note=42 velocity=79 time=5
Time=35155 Track=4 note_on channel=1 note=38 velocity=0 time=115
Time=35155 Track=11 note_on channel=9 note=42 velocity=0 time=25
Time=35160 Track=3 note_on channel=0 note=38 velocity=0 time=120
Time=35160 Track=11 note_on channel=9 note=36 velocity=120 time=5
Time=35160 Track=11 note_on channel=9 note=42 velocity=115 time=0
Time=35185 Track=11 note_on channel=9 note=42 velocity=0 time=25
Time=35190 Track=11 note_on channel=9 note=42 velocity=76 time=5
Time=35215 Track=11 note_on channel=9 note=42 velocity=0 time=25
Time=35215 Track=11 note_on channel=9 note=36 velocity=0 time=0
Time=35220 Track=3 note_on channel=0 note=36 velocity=102 time=60
Time=35220 Track=4 note_on channel=1 note=36 velocity=101 time=65
Time=35220 Track=11 note_on channel=9 note=42 velocity=114 time=5
Time=35245 Track=11 note_on channel=9 note=42 velocity=0 time=25
Time=35250 Track=11 note_on channel=9 note=42 velocity=76 time=5
Time=35275 Track=3 note_on channel=0 note=36 velocity=0 time=55
Time=35275 Track=4 note_on channel=1 note=36 velocity=0 time=55
Time=35275 Track=11 note_on channel=9 note=42 velocity=0 time=25
Time=35280 Track=3 note_on channel=0 note=38 velocity=102 time=5
Time=35280 Track=4 note_on channel=1 note=38 velocity=101 time=5
Time=35280 Track=11 note_on channel=9 note=36 velocity=120 time=5
Time=35280 Track=11 note_on channel=9 note=42 velocity=104 time=0
Time=35305 Track=11 note_on channel=9 note=42 velocity=0 time=25
Time=35310 Track=11 note_on channel=9 note=42 velocity=76 time=5
Time=35320 Track=4 note_on channel=1 note=38 velocity=0 time=40
Time=35325 Track=3 note_on channel=0 note=38 velocity=0 time=45
Time=35335 Track=11 note_on channel=9 note=42 velocity=0 time=25
Time=35335 Track=11 note_on channel=9 note=36 velocity=0 time=0
Time=35340 Track=11 note_on channel=9 note=42 velocity=114 time=5
Time=35365 Track=11 note_on channel=9 note=42 velocity=0 time=25
Time=35370 Track=11 note_on channel=9 note=42 velocity=74 time=5
Time=35395 Track=11 note_on channel=9 note=42 velocity=0 time=25
Time=35400 Track=11 note_on channel=9 note=36 velocity=119 time=5
Time=35400 Track=11 note_on channel=9 note=40 velocity=127 time=0
Time=35400 Track=11 note_on channel=9 note=42 velocity=116 time=0
Time=35425 Track=11 note_on channel=9 note=42 velocity=0 time=25
Time=35430 Track=11 note_on channel=9 note=42 velocity=74 time=5
Time=35455 Track=11 note_on channel=9 note=42 velocity=0 time=25
Time=35455 Track=11 note_on channel=9 note=40 velocity=0 time=0
Time=35460 Track=11 note_on channel=9 note=46 velocity=111 time=5
Time=35460 Track=11 note_on channel=9 note=36 velocity=0 time=0
Time=35490 Track=9 note_on channel=7 note=69 velocity=0 time=945
Time=35490 Track=9 note_on channel=7 note=65 velocity=0 time=0
Time=35490 Track=9 note_on channel=7 note=62 velocity=0 time=0
Time=35495 Track=9 note_on channel=7 note=50 velocity=0 time=5
Time=35505 Track=9 note_on channel=7 note=67 velocity=92 time=10
Time=35505 Track=9 note_on channel=7 note=60 velocity=92 time=0
Time=35505 Track=9 note_on channel=7 note=50 velocity=92 time=0
Time=35505 Track=9 note_on channel=7 note=69 velocity=92 time=0
Time=35515 Track=8 note_on channel=6 note=62 velocity=0 time=955
Time=35515 Track=8 note_on channel=6 note=81 velocity=0 time=0
Time=35515 Track=8 note_on channel=6 note=77 velocity=0 time=0
Time=35515 Track=8 note_on channel=6 note=74 velocity=0 time=0
Time=35515 Track=11 note_on channel=9 note=46 velocity=0 time=55
Time=35520 Track=3 note_on channel=0 note=38 velocity=103 time=195
Time=35520 Track=4 note_on channel=1 note=38 velocity=101 time=200
Time=35520 Track=8 note_on channel=6 note=81 velocity=72 time=5
Time=35520 Track=8 note_on channel=6 note=62 velocity=72 time=0
Time=35520 Track=8 note_on channel=6 note=72 velocity=72 time=0
Time=35520 Track=8 note_on channel=6 note=79 velocity=72 time=0
Time=35520 Track=11 note_on channel=9 note=36 velocity=121 time=5
Time=35520 Track=11 note_on channel=9 note=42 velocity=111 time=0
Time=35520 Track=11 note_on channel=9 note=49 velocity=92 time=0
Time=35520 Track=15 note_on channel=14 note=68 velocity=127 time=0
Time=35545 Track=11 note_on channel=9 note=42 velocity=0 time=25
Time=35550 Track=11 note_on channel=9 note=42 velocity=82 time=5
Time=35570 Track=15 note_on channel=14 note=68 velocity=0 time=10
Time=35575 Track=11 note_on channel=9 note=42 velocity=0 time=25
Time=35575 Track=11 note_on channel=9 note=49 velocity=0 time=0
Time=35575 Track=15 note_on channel=14 note=69 velocity=127 time=0
Time=35580 Track=11 note_on channel=9 note=42 velocity=111 time=5
Time=35580 Track=11 note_on channel=9 note=36 velocity=0 time=0
Time=35605 Track=11 note_on channel=9 note=42 velocity=0 time=25
Time=35605 Track=15 note_on channel=14 note=74 velocity=95 time=0
Time=35610 Track=11 note_on channel=9 note=42 velocity=85 time=5
Time=35630 Track=15 note_on channel=14 note=74 velocity=0 time=0
Time=35630 Track=15 note_on channel=14 note=69 velocity=0 time=0
Time=35635 Track=4 note_on channel=1 note=38 velocity=0 time=115
Time=35635 Track=11 note_on channel=9 note=42 velocity=0 time=25
Time=35635 Track=15 note_on channel=14 note=72 velocity=127 time=5
Time=35640 Track=3 note_on channel=0 note=38 velocity=0 time=120
Time=35640 Track=11 note_on channel=9 note=36 velocity=120 time=5
Time=35640 Track=11 note_on channel=9 note=42 velocity=115 time=0
Time=35640 Track=16 note_on channel=15 note=68 velocity=127 time=0
Time=35665 Track=11 note_on channel=9 note=42 velocity=0 time=25
Time=35670 Track=11 note_on channel=9 note=42 velocity=82 time=5
Time=35685 Track=15 note_on channel=14 note=72 velocity=0 time=10
Time=35690 Track=16 note_on channel=15 note=68 velocity=0 time=10
Time=35695 Track=11 note_on channel=9 note=42 velocity=0 time=25
Time=35695 Track=11 note_on channel=9 note=36 velocity=0 time=0
Time=35695 Track=15 note_on channel=14 note=68 velocity=112 time=0
Time=35695 Track=16 note_on channel=15 note=69 velocity=127 time=0
Time=35700 Track=3 note_on channel=0 note=36 velocity=102 time=60
Time=35700 Track=4 note_on channel=1 note=36 velocity=101 time=65
Time=35700 Track=11 note_on channel=9 note=42 velocity=111 time=5
Time=35720 Track=15 note_on channel=14 note=68 velocity=0 time=0
Time=35725 Track=11 note_on channel=9 note=42 velocity=0 time=25
Time=35725 Track=16 note_on channel=15 note=74 velocity=95 time=0
Time=35730 Track=11 note_on channel=9 note=42 velocity=82 time=5
Time=35750 Track=16 note_on channel=15 note=74 velocity=0 time=0
Time=35750 Track=16 note_on channel=15 note=69 velocity=0 time=0
Time=35755 Track=3 note_on channel=0 note=36 velocity=0 time=55
Time=35755 Track=4 note_on channel=1 note=36 velocity=0 time=55
Time=35755 Track=11 note_on channel=9 note=42 velocity=0 time=25
Time=35755 Track=15 note_on channel=14 note=68 velocity=127 time=0
Time=35755 Track=16 note_on channel=15 note=72 velocity=127 time=5
Time=35760 Track=3 note_on channel=0 note=38 velocity=102 time=5
Time=35760 Track=4 note_on channel=1 note=38 velocity=101 time=5
Time=35760 Track=11 note_on channel=9 note=36 velocity=120 time=5
Time=35760 Track=11 note_on channel=9 note=42 velocity=104 time=0
Time=35785 Track=11 note_on channel=9 note=42 velocity=0 time=25
Time=35790 Track=11 note_on channel=9 note=42 velocity=85 time=5
Time=35800 Track=4 note_on channel=1 note=38 velocity=0 time=40
Time=35805 Track=3 note_on channel=0 note=38 velocity=0 time=45
Time=35805 Track=16 note_on channel=15 note=72 velocity=0 time=10
Time=35810 Track=15 note_on channel=14 note=68 velocity=0 time=10
Time=35815 Track=11 note_on channel=9 note=42 velocity=0 time=25
Time=35815 Track=11 note_on channel=9 note=36 velocity=0 time=0
Time=35815 Track=16 note_on channel=15 note=68 velocity=112 time=0
Time=35820 Track=11 note_on channel=9 note=42 velocity=111 time=5
Time=35820 Track=15 note_on channel=14 note=65 velocity=124 time=0
Time=35840 Track=16 note_on channel=15 note=68 velocity=0 time=0
Time=35845 Track=11 note_on channel=9 note=42 velocity=0 time=25
Time=35845 Track=15 note_on channel=14 note=65 velocity=0 time=5
Time=35850 Track=11 note_on channel=9 note=42 velocity=82 time=5
Time=35875 Track=11 note_on channel=9 note=42 velocity=0 time=25
Time=35875 Track=16 note_on channel=15 note=68 velocity=127 time=0
Time=35880 Track=11 note_on channel=9 note=36 velocity=119 time=5
Time=35880 Track=11 note_on channel=9 note=40 velocity=127 time=0
Time=35880 Track=11 note_on channel=9 note=42 velocity=116 time=0
Time=35880 Track=15 note_on channel=14 note=67 velocity=127 time=0
Time=35905 Track=11 note_on channel=9 note=42 velocity=0 time=25
Time=35910 Track=11 note_on channel=9 note=42 velocity=79 time=5
Time=35930 Track=15 note_on channel=14 note=67 velocity=0 time=0
Time=35930 Track=16 note_on channel=15 note=68 velocity=0 time=10
Time=35935 Track=11 note_on channel=9 note=42 velocity=0 time=25
Time=35935 Track=11 note_on channel=9 note=40 velocity=0 time=0
Time=35940 Track=11 note_on channel=9 note=46 velocity=111 time=5
Time=35940 Track=11 note_on channel=9 note=36 velocity=0 time=0
Time=35940 Track=15 note_on channel=14 note=62 velocity=127 time=0
Time=35940 Track=16 note_on channel=15 note=65 velocity=124 time=0
Time=35965 Track=16 note_on channel=15 note=65 velocity=0 time=5
Time=35995 Track=11 note_on channel=9 note=46 velocity=0 time=55
Time=35995 Track=15 note_on channel=14 note=62 velocity=0 time=20
Time=36000 Track=3 note_on channel=0 note=38 velocity=101 time=195
Time=36000 Track=4 note_on channel=1 note=38 velocity=100 time=200
Time=36000 Track=11 note_on channel=9 note=36 velocity=121 time=5
Time=36000 Track=11 note_on channel=9 note=42 velocity=108 time=0
Time=36000 Track=16 note_on channel=15 note=67 velocity=127 time=0
Time=36005 Track=15 note_on channel=14 note=65 velocity=101 time=0
Time=36020 Track=15 note_on channel=14 note=65 velocity=0 time=5
Time=36025 Track=11 note_on channel=9 note=42 velocity=0 time=25
Time=36030 Track=11 note_on channel=9 note=42 velocity=79 time=5
Time=36035 Track=15 note_on channel=14 note=62 velocity=127 time=0
Time=36050 Track=16 note_on channel=15 note=67 velocity=0 time=0
Time=36055 Track=11 note_on channel=9 note=42 velocity=0 time=25
Time=36055 Track=11 note_on channel=9 note=36 velocity=0 time=0
Time=36060 Track=11 note_on channel=9 note=42 velocity=108 time=5
Time=36060 Track=16 note_on channel=15 note=62 velocity=127 time=0
Time=36085 Track=11 note_on channel=9 note=42 velocity=0 time=25
Time=36090 Track=11 note_on channel=9 note=42 velocity=79 time=5
Time=36110 Track=15 note_on channel=14 note=62 velocity=0 time=10
Time=36115 Track=4 note_on channel=1 note=38 velocity=0 time=115
Time=36115 Track=11 note_on channel=9 note=42 velocity=0 time=25
Time=36115 Track=15 note_on channel=14 note=59 velocity=127 time=0
Time=36115 Track=16 note_on channel=15 note=62 velocity=0 time=20
Time=36120 Track=3 note_on channel=0 note=38 velocity=0 time=120
Time=36120 Track=11 note_on channel=9 note=36 velocity=120 time=5
Time=36120 Track=11 note_on channel=9 note=42 velocity=115 time=0
Time=36125 Track=16 note_on channel=15 note=65 velocity=101 time=0
Time=36140 Track=16 note_on channel=15 note=65 velocity=0 time=5
Time=36145 Track=11 note_on channel=9 note=42 velocity=0 time=25
Time=36150 Track=11 note_on channel=9 note=42 velocity=76 time=5
Time=36155 Track=16 note_on channel=15 note=62 velocity=127 time=0
Time=36165 Track=15 note_on channel=14 note=57 velocity=127 time=0
Time=36165 Track=15 note_on channel=14 note=59 velocity=0 time=0
Time=36175 Track=11 note_on channel=9 note=42 velocity=0 time=25
Time=36175 Track=11 note_on channel=9 note=36 velocity=0 time=0
Time=36180 Track=3 note_on channel=0 note=38 velocity=101 time=60
Time=36180 Track=4 note_on channel=1 note=38 velocity=99 time=65
Time=36180 Track=11 note_on channel=9 note=42 velocity=111 time=5
Time=36205 Track=11 note_on channel=9 note=42 velocity=0 time=25
Time=36210 Track=11 note_on channel=9 note=42 velocity=76 time=5
Time=36210 Track=15 note_on channel=14 note=57 velocity=0 time=10
Time=36225 Track=3 note_on channel=0 note=38 velocity=0 time=45
Time=36225 Track=4 note_on channel=1 note=38 velocity=0 time=45
Time=36230 Track=15 note_on channel=14 note=56 velocity=127 time=0
Time=36230 Track=16 note_on channel=15 note=62 velocity=0 time=10
Time=36235 Track=11 note_on channel=9 note=42 velocity=0 time=25
Time=36235 Track=16 note_on channel=15 note=59 velocity=127 time=0
Time=36240 Track=3 note_on channel=0 note=33 velocity=101 time=15
Time=36240 Track=4 note_on channel=1 note=33 velocity=99 time=15
Time=36240 Track=11 note_on channel=9 note=36 velocity=120 time=5
Time=36240 Track=11 note_on channel=9 note=42 velocity=104 time=0
Time=36265 Track=11 note_on channel=9 note=42 velocity=0 time=25
Time=36265 Track=15 note_on channel=14 note=56 velocity=0 time=5
Time=36270 Track=11 note_on channel=9 note=42 velocity=79 time=5
Time=36285 Track=15 note_on channel=14 note=55 velocity=127 time=0
Time=36285 Track=16 note_on channel=15 note=57 velocity=127 time=0
Time=36285 Track=16 note_on channel=15 note=59 velocity=0 time=0
Time=36295 Track=11 note_on channel=9 note=42 velocity=0 time=25
Time=36295 Track=11 note_on channel=9 note=36 velocity=0 time=0
Time=36300 Track=11 note_on channel=9 note=42 velocity=108 time=5
Time=36325 Track=11 note_on channel=9 note=42 velocity=0 time=25
Time=36330 Track=11 note_on channel=9 note=42 velocity=82 time=5
Time=36330 Track=15 note_on channel=14 note=55 velocity=0 time=5
Time=36330 Track=16 note_on channel=15 note=57 velocity=0 time=10
Time=36350 Track=15 note_on channel=14 note=53 velocity=125 time=0
Time=36350 Track=16 note_on channel=15 note=56 velocity=127 time=0
Time=36355 Track=3 note_on channel=0 note=33 velocity=0 time=115
Time=36355 Track=4 note_on channel=1 note=33 velocity=0 time=115
Time=36355 Track=11 note_on channel=9 note=42 velocity=0 time=25
Time=36360 Track=3 note_on channel=0 note=36 velocity=100 time=5
Time=36360 Track=4 note_on channel=1 note=36 velocity=99 time=5
Time=36360 Track=11 note_on channel=9 note=36 velocity=119 time=5
Time=36360 Track=11 note_on channel=9 note=40 velocity=127 time=0
Time=36360 Track=11 note_on channel=9 note=42 velocity=116 time=0
Time=36375 Track=15 note_on channel=14 note=53 velocity=0 time=15
Time=36380 Track=15 note_on channel=14 note=53 velocity=127 time=5
Time=36385 Track=11 note_on channel=9 note=42 velocity=0 time=25
Time=36385 Track=16 note_on channel=15 note=56 velocity=0 time=5
Time=36390 Track=11 note_on channel=9 note=42 velocity=79 time=5
Time=36405 Track=16 note_on channel=15 note=55 velocity=127 time=0
Time=36415 Track=11 note_on channel=9 note=42 velocity=0 time=25
Time=36415 Track=11 note_on channel=9 note=40 velocity=0 time=0
Time=36415 Track=15 note_on channel=14 note=49 velocity=127 time=0
Time=36415 Track=15 note_on channel=14 note=53 velocity=0 time=0
Time=36420 Track=11 note_on channel=9 note=46 velocity=111 time=5
Time=36420 Track=11 note_on channel=9 note=36 velocity=0 time=0
Time=36450 Track=9 note_on channel=7 note=69 velocity=0 time=945
Time=36450 Track=9 note_on channel=7 note=67 velocity=0 time=0
Time=36450 Track=9 note_on channel=7 note=60 velocity=0 time=0
Time=36450 Track=9 note_on channel=7 note=50 velocity=0 time=0
Time=36455 Track=16 note_on channel=15 note=55 velocity=0 time=10
Time=36465 Track=9 note_on channel=7 note=60 velocity=92 time=15
Time=36465 Track=9 note_on channel=7 note=50 velocity=92 time=0
Time=36465 Track=9 note_on channel=7 note=65 velocity=92 time=0
Time=36465 Track=9 note_on channel=7 note=69 velocity=92 time=0
Time=36470 Track=15 note_on channel=14 note=49 velocity=0 time=10
Time=36470 Track=16 note_on channel=15 note=53 velocity=125 time=0
Time=36475 Track=3 note_on channel=0 note=36 velocity=0 time=115
Time=36475 Track=4 note_on channel=1 note=36 velocity=0 time=115
Time=36475 Track=8 note_on channel=6 note=79 velocity=0 time=955
Time=36475 Track=8 note_on channel=6 note=81 velocity=0 time=0
Time=36475 Track=8 note_on channel=6 note=62 velocity=0 time=0
Time=36475 Track=8 note_on channel=6 note=72 velocity=0 time=0
Time=36475 Track=11 note_on channel=9 note=46 velocity=0 time=55
Time=36475 Track=15 note_on channel=14 note=48 velocity=127 time=5
Time=36480 Track=3 note_on channel=0 note=38 velocity=103 time=5
Time=36480 Track=4 note_on channel=1 note=38 velocity=101 time=5
Time=36480 Track=8 note_on channel=6 note=81 velocity=72 time=5
Time=36480 Track=8 note_on channel=6 note=77 velocity=72 time=0
Time=36480 Track=8 note_on channel=6 note=62 velocity=72 time=0
Time=36480 Track=8 note_on channel=6 note=72 velocity=72 time=0
Time=36480 Track=11 note_on channel=9 note=36 velocity=121 time=5
Time=36480 Track=11 note_on channel=9 note=42 velocity=117 time=0
Time=36480 Track=11 note_on channel=9 note=49 velocity=92 time=0
Time=36495 Track=16 note_on channel=15 note=53 velocity=0 time=15
Time=36500 Track=16 note_on channel=15 note=53 velocity=127 time=5
Time=36505 Track=11 note_on channel=9 note=42 velocity=0 time=25
Time=36510 Track=11 note_on channel=9 note=42 velocity=79 time=5
Time=36535 Track=11 note_on channel=9 note=42 velocity=0 time=25
Time=36535 Track=11 note_on channel=9 note=49 velocity=0 time=0
Time=36535 Track=16 note_on channel=15 note=49 velocity=127 time=0
Time=36535 Track=16 note_on channel=15 note=53 velocity=0 time=0
Time=36540 Track=11 note_on channel=9 note=42 velocity=111 time=5
Time=36540 Track=11 note_on channel=9 note=36 velocity=0 time=0
Time=36565 Track=11 note_on channel=9 note=42 velocity=0 time=25
Time=36570 Track=11 note_on channel=9 note=42 velocity=85 time=5
Time=36570 Track=15 note_on channel=14 note=48 velocity=0 time=5
Time=36590 Track=15 note_on channel=14 note=45 velocity=71 time=20
Time=36591 Track=15 note_on channel=14 note=45 velocity=0 time=1
Time=36595 Track=4 note_on channel=1 note=38 velocity=0 time=115
Time=36595 Track=11 note_on channel=9 note=42 velocity=0 time=25
Time=36595 Track=16 note_on channel=15 note=48 velocity=127 time=15
Time=36595 Track=16 note_on channel=15 note=49 velocity=0 time=0
Time=36600 Track=3 note_on channel=0 note=38 velocity=0 time=120
Time=36600 Track=11 note_on channel=9 note=36 velocity=120 time=5
Time=36600 Track=11 note_on channel=9 note=42 velocity=115 time=0
Time=36625 Track=11 note_on channel=9 note=42 velocity=0 time=25
Time=36625 Track=15 note_on channel=14 note=48 velocity=127 time=0
Time=36630 Track=11 note_on channel=9 note=42 velocity=79 time=5
Time=36655 Track=11 note_on channel=9 note=42 velocity=0 time=25
Time=36655 Track=11 note_on channel=9 note=36 velocity=0 time=0
Time=36660 Track=3 note_on channel=0 note=36 velocity=102 time=60
Time=36660 Track=4 note_on channel=1 note=36 velocity=101 time=65
Time=36660 Track=11 note_on channel=9 note=42 velocity=117 time=5
Time=36685 Track=11 note_on channel=9 note=42 velocity=0 time=25
Time=36690 Track=11 note_on channel=9 note=42 velocity=79 time=5
Time=36690 Track=16 note_on channel=15 note=48 velocity=0 time=5
Time=36710 Track=15 note_on channel=14 note=50 velocity=127 time=0
Time=36710 Track=15 note_on channel=14 note=48 velocity=0 time=0
Time=36710 Track=16 note_on channel=15 note=45 velocity=71 time=20
Time=36711 Track=16 note_on channel=15 note=45 velocity=0 time=1
Time=36715 Track=3 note_on channel=0 note=36 velocity=0 time=55
Time=36715 Track=4 note_on channel=1 note=36 velocity=0 time=55
Time=36715 Track=11 note_on channel=9 note=42 velocity=0 time=25
Time=36720 Track=3 note_on channel=0 note=38 velocity=102 time=5
Time=36720 Track=4 note_on channel=1 note=38 velocity=101 time=5
Time=36720 Track=11 note_on channel=9 note=36 velocity=120 time=5
Time=36720 Track=11 note_on channel=9 note=42 velocity=111 time=0
Time=36745 Track=11 note_on channel=9 note=42 velocity=0 time=25
Time=36745 Track=16 note_on channel=15 note=48 velocity=127 time=0
Time=36750 Track=11 note_on channel=9 note=42 velocity=79 time=5
Time=36760 Track=4 note_on channel=1 note=38 velocity=0 time=40
Time=36765 Track=3 note_on channel=0 note=38 velocity=0 time=45
Time=36775 Track=11 note_on channel=9 note=42 velocity=0 time=25
Time=36775 Track=11 note_on channel=9 note=36 velocity=0 time=0
Time=36780 Track=11 note_on channel=9 note=42 velocity=108 time=5
Time=36805 Track=11 note_on channel=9 note=42 velocity=0 time=25
Time=36810 Track=11 note_on channel=9 note=42 velocity=82 time=5
Time=36815 Track=15 note_on channel=14 note=50 velocity=0 time=10
Time=36830 Track=16 note_on channel=15 note=50 velocity=127 time=0
Time=36830 Track=16 note_on channel=15 note=48 velocity=0 time=0
Time=36835 Track=11 note_on channel=9 note=42 velocity=0 time=25
Time=36840 Track=11 note_on channel=9 note=36 velocity=119 time=5
Time=36840 Track=11 note_on channel=9 note=40 velocity=127 time=0
Time=36840 Track=11 note_on channel=9 note=42 velocity=116 time=0
Time=36865 Track=11 note_on channel=9 note=42 velocity=0 time=25
Time=36870 Track=11 note_on channel=9 note=42 velocity=79 time=5
Time=36895 Track=11 note_on channel=9 note=42 velocity=0 time=25
Time=36895 Track=11 note_on channel=9 note=40 velocity=0 time=0
Time=36900 Track=11 note_on channel=9 note=46 velocity=111 time=5
Time=36900 Track=11 note_on channel=9 note=36 velocity=0 time=0
Time=36935 Track=16 note_on channel=15 note=50 velocity=0 time=10
Time=36955 Track=11 note_on channel=9 note=46 velocity=0 time=55
Time=36960 Track=3 note_on channel=0 note=38 velocity=103 time=195
Time=36960 Track=4 note_on channel=1 note=38 velocity=101 time=200
Time=36960 Track=11 note_on channel=9 note=36 velocity=121 time=5
Time=36960 Track=11 note_on channel=9 note=42 velocity=114 time=0
Time=36985 Track=11 note_on channel=9 note=42 velocity=0 time=25
Time=36990 Track=11 note_on channel=9 note=42 velocity=79 time=5
Time=37010 Track=15 note_on channel=14 note=57 velocity=127 time=0
Time=37015 Track=11 note_on channel=9 note=42 velocity=0 time=25
Time=37015 Track=11 note_on channel=9 note=36 velocity=0 time=0
Time=37020 Track=11 note_on channel=9 note=42 velocity=111 time=5
Time=37045 Track=11 note_on channel=9 note=42 velocity=0 time=25
Time=37050 Track=11 note_on channel=9 note=42 velocity=79 time=5
Time=37050 Track=15 note_on channel=14 note=57 velocity=0 time=20
Time=37075 Track=4 note_on channel=1 note=38 velocity=0 time=115
Time=37075 Track=11 note_on channel=9 note=42 velocity=0 time=25
Time=37075 Track=15 note_on channel=14 note=60 velocity=127 time=0
Time=37080 Track=3 note_on channel=0 note=38 velocity=0 time=120
Time=37080 Track=11 note_on channel=9 note=36 velocity=120 time=5
Time=37080 Track=11 note_on channel=9 note=42 velocity=115 time=0
Time=37105 Track=11 note_on channel=9 note=42 velocity=0 time=25
Time=37105 Track=15 note_on channel=14 note=60 velocity=0 time=10
Time=37110 Track=11 note_on channel=9 note=42 velocity=76 time=5
Time=37130 Track=15 note_on channel=14 note=62 velocity=127 time=0
Time=37130 Track=16 note_on channel=15 note=57 velocity=127 time=0
Time=37135 Track=11 note_on channel=9 note=42 velocity=0 time=25
Time=37135 Track=11 note_on channel=9 note=36 velocity=0 time=0
Time=37140 Track=3 note_on channel=0 note=36 velocity=102 time=60
Time=37140 Track=4 note_on channel=1 note=36 velocity=101 time=65
Time=37140 Track=11 note_on channel=9 note=42 velocity=114 time=5
Time=37160 Track=15 note_on channel=14 note=62 velocity=0 time=20
Time=37165 Track=11 note_on channel=9 note=42 velocity=0 time=25
Time=37165 Track=15 note_on channel=14 note=62 velocity=104 time=0
Time=37170 Track=11 note_on channel=9 note=42 velocity=76 time=5
Time=37170 Track=16 note_on channel=15 note=57 velocity=0 time=20
Time=37185 Track=15 note_on channel=14 note=62 velocity=0 time=5
Time=37195 Track=3 note_on channel=0 note=36 velocity=0 time=55
Time=37195 Track=4 note_on channel=1 note=36 velocity=0 time=55
Time=37195 Track=11 note_on channel=9 note=42 velocity=0 time=25
Time=37195 Track=15 note_on channel=14 note=64 velocity=127 time=0
Time=37195 Track=16 note_on channel=15 note=60 velocity=127 time=0
Time=37200 Track=3 note_on channel=0 note=38 velocity=102 time=5
Time=37200 Track=4 note_on channel=1 note=38 velocity=101 time=5
Time=37200 Track=11 note_on channel=9 note=36 velocity=120 time=5
Time=37200 Track=11 note_on channel=9 note=42 velocity=104 time=0
Time=37225 Track=11 note_on channel=9 note=42 velocity=0 time=25
Time=37225 Track=16 note_on channel=15 note=60 velocity=0 time=10
Time=37230 Track=11 note_on channel=9 note=42 velocity=76 time=5
Time=37240 Track=4 note_on channel=1 note=38 velocity=0 time=40
Time=37245 Track=3 note_on channel=0 note=38 velocity=0 time=45
Time=37250 Track=16 note_on channel=15 note=62 velocity=127 time=0
Time=37255 Track=11 note_on channel=9 note=42 velocity=0 time=25
Time=37255 Track=11 note_on channel=9 note=36 velocity=0 time=0
Time=37260 Track=11 note_on channel=9 note=42 velocity=114 time=5
Time=37260 Track=15 note_on channel=14 note=62 velocity=98 time=0
Time=37270 Track=15 note_on channel=14 note=64 velocity=0 time=0
Time=37280 Track=16 note_on channel=15 note=62 velocity=0 time=20
Time=37285 Track=11 note_on channel=9 note=42 velocity=0 time=25
Time=37285 Track=16 note_on channel=15 note=62 velocity=104 time=0
Time=37290 Track=11 note_on channel=9 note=42 velocity=74 time=5
Time=37300 Track=15 note_on channel=14 note=62 velocity=0 time=5
Time=37305 Track=16 note_on channel=15 note=62 velocity=0 time=5
Time=37315 Track=11 note_on channel=9 note=42 velocity=0 time=25
Time=37315 Track=15 note_on channel=14 note=62 velocity=127 time=0
Time=37315 Track=16 note_on channel=15 note=64 velocity=127 time=0
Time=37320 Track=11 note_on channel=9 note=36 velocity=119 time=5
Time=37320 Track=11 note_on channel=9 note=40 velocity=127 time=0
Time=37320 Track=11 note_on channel=9 note=42 velocity=116 time=0
Time=37345 Track=11 note_on channel=9 note=42 velocity=0 time=25
Time=37345 Track=15 note_on channel=14 note=62 velocity=0 time=5
Time=37350 Track=11 note_on channel=9 note=42 velocity=74 time=5
Time=37350 Track=15 note_on channel=14 note=60 velocity=127 time=5
Time=37375 Track=11 note_on channel=9 note=42 velocity=0 time=25
Time=37375 Track=11 note_on channel=9 note=40 velocity=0 time=0
Time=37375 Track=15 note_on channel=14 note=57 velocity=127 time=10
Time=37375 Track=15 note_on channel=14 note=60 velocity=0 time=0
Time=37380 Track=11 note_on channel=9 note=46 velocity=111 time=5
Time=37380 Track=11 note_on channel=9 note=36 velocity=0 time=0
Time=37380 Track=16 note_on channel=15 note=62 velocity=98 time=0
Time=37390 Track=16 note_on channel=15 note=64 velocity=0 time=0
Time=37410 Track=9 note_on channel=7 note=69 velocity=0 time=945
Time=37410 Track=9 note_on channel=7 note=65 velocity=0 time=0
Time=37410 Track=9 note_on channel=7 note=50 velocity=0 time=0
Time=37410 Track=15 note_on channel=14 note=57 velocity=0 time=35
Time=37415 Track=9 note_on channel=7 note=60 velocity=0 time=5
Time=37420 Track=16 note_on channel=15 note=62 velocity=0 time=5
Time=37425 Track=9 note_on channel=7 note=71 velocity=92 time=10
Time=37425 Track=9 note_on channel=7 note=67 velocity=92 time=0
Time=37425 Track=9 note_on channel=7 note=62 velocity=92 time=0
Time=37425 Track=9 note_on channel=7 note=50 velocity=92 time=0
Time=37435 Track=8 note_on channel=6 note=72 velocity=0 time=955
Time=37435 Track=8 note_on channel=6 note=81 velocity=0 time=0
Time=37435 Track=8 note_on channel=6 note=77 velocity=0 time=0
Time=37435 Track=8 note_on channel=6 note=62 velocity=0 time=0
Time=37435 Track=11 note_on channel=9 note=46 velocity=0 time=55
Time=37435 Track=16 note_on channel=15 note=62 velocity=127 time=0
Time=37440 Track=3 note_on channel=0 note=38 velocity=103 time=195
Time=37440 Track=4 note_on channel=1 note=38 velocity=101 time=200
Time=37440 Track=8 note_on channel=6 note=62 velocity=72 time=5
Time=37440 Track=8 note_on channel=6 note=74 velocity=72 time=0
Time=37440 Track=8 note_on channel=6 note=79 velocity=72 time=0
Time=37440 Track=8 note_on channel=6 note=83 velocity=72 time=0
Time=37440 Track=11 note_on channel=9 note=36 velocity=121 time=5
Time=37440 Track=11 note_on channel=9 note=42 velocity=111 time=0
Time=37440 Track=11 note_on channel=9 note=49 velocity=92 time=0
Time=37440 Track=15 note_on channel=14 note=60 velocity=127 time=30
Time=37465 Track=11 note_on channel=9 note=42 velocity=0 time=25
Time=37465 Track=16 note_on channel=15 note=62 velocity=0 time=5
Time=37470 Track=11 note_on channel=9 note=42 velocity=82 time=5
Time=37470 Track=15 note_on channel=14 note=60 velocity=0 time=30
Time=37470 Track=16 note_on channel=15 note=60 velocity=127 time=5
Time=37495 Track=11 note_on channel=9 note=42 velocity=0 time=25
Time=37495 Track=11 note_on channel=9 note=49 velocity=0 time=0
Time=37495 Track=15 note_on channel=14 note=62 velocity=127 time=25
Time=37495 Track=16 note_on channel=15 note=57 velocity=127 time=10
Time=37495 Track=16 note_on channel=15 note=60 velocity=0 time=0
Time=37500 Track=11 note_on channel=9 note=42 velocity=111 time=5
Time=37500 Track=11 note_on channel=9 note=36 velocity=0 time=0
Time=37525 Track=11 note_on channel=9 note=42 velocity=0 time=25
Time=37530 Track=11 note_on channel=9 note=42 velocity=85 time=5
Time=37530 Track=15 note_on channel=14 note=62 velocity=0 time=5
Time=37530 Track=16 note_on channel=15 note=57 velocity=0 time=35
Time=37555 Track=4 note_on channel=1 note=38 velocity=0 time=115
Time=37555 Track=11 note_on channel=9 note=42 velocity=0 time=25
Time=37555 Track=15 note_on channel=14 note=62 velocity=127 time=0
Time=37560 Track=3 note_on channel=0 note=38 velocity=0 time=120
Time=37560 Track=11 note_on channel=9 note=36 velocity=120 time=5
Time=37560 Track=11 note_on channel=9 note=42 velocity=115 time=0
Time=37560 Track=16 note_on channel=15 note=60 velocity=127 time=30
Time=37585 Track=11 note_on channel=9 note=42 velocity=0 time=25
Time=37590 Track=11 note_on channel=9 note=42 velocity=82 time=5
Time=37590 Track=16 note_on channel=15 note=60 velocity=0 time=30
Time=37615 Track=11 note_on channel=9 note=42 velocity=0 time=25
Time=37615 Track=11 note_on channel=9 note=36 velocity=0 time=0
Time=37615 Track=16 note_on channel=15 note=62 velocity=127 time=25
Time=37620 Track=3 note_on channel=0 note=36 velocity=102 time=60
Time=37620 Track=4 note_on channel=1 note=36 velocity=101 time=65
Time=37620 Track=11 note_on channel=9 note=42 velocity=111 time=5
Time=37620 Track=15 note_on channel=14 note=65 velocity=127 time=0
Time=37620 Track=15 note_on channel=14 note=62 velocity=0 time=0
Time=37645 Track=11 note_on channel=9 note=42 velocity=0 time=25
Time=37650 Track=11 note_on channel=9 note=42 velocity=82 time=5
Time=37650 Track=16 note_on channel=15 note=62 velocity=0 time=5
Time=37675 Track=3 note_on channel=0 note=36 velocity=0 time=55
Time=37675 Track=4 note_on channel=1 note=36 velocity=0 time=55
Time=37675 Track=11 note_on channel=9 note=42 velocity=0 time=25
Time=37675 Track=16 note_on channel=15 note=62 velocity=127 time=0
Time=37680 Track=3 note_on channel=0 note=38 velocity=102 time=5
Time=37680 Track=4 note_on channel=1 note=38 velocity=101 time=5
Time=37680 Track=11 note_on channel=9 note=36 velocity=120 time=5
Time=37680 Track=11 note_on channel=9 note=42 velocity=104 time=0
Time=37705 Track=11 note_on channel=9 note=42 velocity=0 time=25
Time=37710 Track=11 note_on channel=9 note=42 velocity=85 time=5
Time=37720 Track=4 note_on channel=1 note=38 velocity=0 time=40
Time=37725 Track=3 note_on channel=0 note=38 velocity=0 time=45
Time=37735 Track=11 note_on channel=9 note=42 velocity=0 time=25
Time=37735 Track=11 note_on channel=9 note=36 velocity=0 time=0
Time=37740 Track=11 note_on channel=9 note=42 velocity=111 time=5
Time=37740 Track=16 note_on channel=15 note=65 velocity=127 time=0
Time=37740 Track=16 note_on channel=15 note=62 velocity=0 time=0
Time=37765 Track=11 note_on channel=9 note=42 velocity=0 time=25
Time=37770 Track=11 note_on channel=9 note=42 velocity=82 time=5
Time=37780 Track=15 note_on channel=14 note=65 velocity=0 time=5
Time=37795 Track=11 note_on channel=9 note=42 velocity=0 time=25
Time=37800 Track=11 note_on channel=9 note=36 velocity=119 time=5
Time=37800 Track=11 note_on channel=9 note=40 velocity=127 time=0
Time=37800 Track=11 note_on channel=9 note=42 velocity=116 time=0
Time=37825 Track=11 note_on channel=9 note=42 velocity=0 time=25
Time=37830 Track=11 note_on channel=9 note=42 velocity=79 time=5
Time=37855 Track=11 note_on channel=9 note=42 velocity=0 time=25
Time=37855 Track=11 note_on channel=9 note=40 velocity=0 time=0
Time=37860 Track=11 note_on channel=9 note=46 velocity=111 time=5
Time=37860 Track=11 note_on channel=9 note=36 velocity=0 time=0
Time=37900 Track=16 note_on channel=15 note=65 velocity=0 time=5
Time=37915 Track=11 note_on channel=9 note=46 velocity=0 time=55
Time=37920 Track=3 note_on channel=0 note=38 velocity=101 time=195
Time=37920 Track=4 note_on channel=1 note=38 velocity=100 time=200
Time=37920 Track=11 note_on channel=9 note=36 velocity=121 time=5
Time=37920 Track=11 note_on channel=9 note=42 velocity=108 time=0
Time=37945 Track=11 note_on channel=9 note=42 velocity=0 time=25
Time=37950 Track=11 note_on channel=9 note=42 velocity=79 time=5
Time=37970 Track=15 note_on channel=14 note=72 velocity=127 time=190
Time=37975 Track=11 note_on channel=9 note=42 velocity=0 time=25
Time=37975 Track=11 note_on channel=9 note=36 velocity=0 time=0
Time=37980 Track=11 note_on channel=9 note=42 velocity=108 time=5
Time=38005 Track=11 note_on channel=9 note=42 velocity=0 time=25
Time=38010 Track=11 note_on channel=9 note=42 velocity=79 time=5
Time=38035 Track=4 note_on channel=1 note=38 velocity=0 time=115
Time=38035 Track=11 note_on channel=9 note=42 velocity=0 time=25
Time=38040 Track=3 note_on channel=0 note=38 velocity=0 time=120
Time=38040 Track=11 note_on channel=9 note=36 velocity=120 time=5
Time=38040 Track=11 note_on channel=9 note=42 velocity=115 time=0
Time=38065 Track=11 note_on channel=9 note=42 velocity=0 time=25
Time=38070 Track=11 note_on channel=9 note=42 velocity=76 time=5
Time=38090 Track=16 note_on channel=15 note=72 velocity=127 time=190
Time=38095 Track=11 note_on channel=9 note=42 velocity=0 time=25
Time=38095 Track=11 note_on channel=9 note=36 velocity=0 time=0
Time=38100 Track=3 note_on channel=0 note=38 velocity=101 time=60
Time=38100 Track=4 note_on channel=1 note=38 velocity=99 time=65
Time=38100 Track=11 note_on channel=9 note=42 velocity=111 time=5
Time=38125 Track=11 note_on channel=9 note=42 velocity=0 time=25
Time=38130 Track=11 note_on channel=9 note=42 velocity=76 time=5
Time=38145 Track=3 note_on channel=0 note=38 velocity=0 time=45
Time=38145 Track=4 note_on channel=1 note=38 velocity=0 time=45
Time=38155 Track=11 note_on channel=9 note=42 velocity=0 time=25
Time=38160 Track=3 note_on channel=0 note=33 velocity=101 time=15
Time=38160 Track=4 note_on channel=1 note=33 velocity=99 time=15
Time=38160 Track=11 note_on channel=9 note=36 velocity=120 time=5
Time=38160 Track=11 note_on channel=9 note=42 velocity=104 time=0
Time=38185 Track=11 note_on channel=9 note=42 velocity=0 time=25
Time=38190 Track=11 note_on channel=9 note=42 velocity=79 time=5
Time=38215 Track=11 note_on channel=9 note=42 velocity=0 time=25
Time=38215 Track=11 note_on channel=9 note=36 velocity=0 time=0
Time=38220 Track=11 note_on channel=9 note=42 velocity=108 time=5
Time=38245 Track=11 note_on channel=9 note=42 velocity=0 time=25
Time=38250 Track=11 note_on channel=9 note=42 velocity=82 time=5
Time=38260 Track=15 note_on channel=14 note=72 velocity=0 time=30
Time=38265 Track=15 note_on channel=14 note=72 velocity=127 time=0
Time=38275 Track=3 note_on channel=0 note=33 velocity=0 time=115
Time=38275 Track=4 note_on channel=1 note=33 velocity=0 time=115
Time=38275 Track=11 note_on channel=9 note=42 velocity=0 time=25
Time=38280 Track=3 note_on channel=0 note=36 velocity=100 time=5
Time=38280 Track=4 note_on channel=1 note=36 velocity=99 time=5
Time=38280 Track=11 note_on channel=9 note=36 velocity=119 time=5
Time=38280 Track=11 note_on channel=9 note=40 velocity=127 time=0
Time=38280 Track=11 note_on channel=9 note=42 velocity=116 time=0
Time=38305 Track=11 note_on channel=9 note=42 velocity=0 time=25
Time=38310 Track=11 note_on channel=9 note=42 velocity=79 time=5
Time=38335 Track=11 note_on channel=9 note=42 velocity=0 time=25
Time=38335 Track=11 note_on channel=9 note=40 velocity=0 time=0
Time=38335 Track=15 note_on channel=14 note=72 velocity=0 time=15
Time=38340 Track=11 note_on channel=9 note=46 velocity=111 time=5
Time=38340 Track=11 note_on channel=9 note=36 velocity=0 time=0
Time=38370 Track=9 note_on channel=7 note=50 velocity=0 time=945
Time=38370 Track=9 note_on channel=7 note=62 velocity=0 time=0
Time=38370 Track=9 note_on channel=7 note=67 velocity=0 time=0
Time=38370 Track=15 note_on channel=14 note=74 velocity=127 time=35
Time=38375 Track=9 note_on channel=7 note=71 velocity=0 time=5
Time=38380 Track=16 note_on channel=15 note=72 velocity=0 time=30
Time=38385 Track=9 note_on channel=7 note=60 velocity=92 time=10
Time=38385 Track=9 note_on channel=7 note=50 velocity=92 time=0
Time=38385 Track=9 note_on channel=7 note=65 velocity=92 time=0
Time=38385 Track=9 note_on channel=7 note=69 velocity=92 time=0
Time=38385 Track=16 note_on channel=15 note=72 velocity=127 time=0
Time=38395 Track=3 note_on channel=0 note=36 velocity=0 time=115
Time=38395 Track=4 note_on channel=1 note=36 velocity=0 time=115
Time=38395 Track=8 note_on channel=6 note=83 velocity=0 time=955
Time=38395 Track=8 note_on channel=6 note=62 velocity=0 time=0
Time=38395 Track=8 note_on channel=6 note=74 velocity=0 time=0
Time=38395 Track=8 note_on channel=6 note=79 velocity=0 time=0
Time=38395 Track=11 note_on channel=9 note=46 velocity=0 time=55
Time=38400 Track=3 note_on channel=0 note=38 velocity=103 time=5
Time=38400 Track=4 note_on channel=1 note=38 velocity=101 time=5
Time=38400 Track=8 note_on channel=6 note=81 velocity=72 time=5
Time=38400 Track=8 note_on channel=6 note=77 velocity=72 time=0
Time=38400 Track=8 note_on channel=6 note=62 velocity=72 time=0
Time=38400 Track=8 note_on channel=6 note=72 velocity=72 time=0
Time=38400 Track=11 note_on channel=9 note=36 velocity=121 time=5
Time=38400 Track=11 note_on channel=9 note=42 velocity=117 time=0
Time=38400 Track=11 note_on channel=9 note=49 velocity=92 time=0
Time=38425 Track=11 note_on channel=9 note=42 velocity=0 time=25
Time=38430 Track=11 note_on channel=9 note=42 velocity=79 time=5
Time=38455 Track=11 note_on channel=9 note=42 velocity=0 time=25
Time=38455 Track=11 note_on channel=9 note=49 velocity=0 time=0
Time=38455 Track=16 note_on channel=15 note=72 velocity=0 time=15
Time=38460 Track=11 note_on channel=9 note=42 velocity=111 time=5
Time=38460 Track=11 note_on channel=9 note=36 velocity=0 time=0
Time=38485 Track=11 note_on channel=9 note=42 velocity=0 time=25
Time=38490 Track=11 note_on channel=9 note=42 velocity=85 time=5
Time=38490 Track=16 note_on channel=15 note=74 velocity=127 time=35
Time=38505 Track=15 note_on channel=14 note=74 velocity=0 time=15
Time=38510 Track=15 note_on channel=14 note=72 velocity=108 time=0
Time=38515 Track=4 note_on channel=1 note=38 velocity=0 time=115
Time=38515 Track=11 note_on channel=9 note=42 velocity=0 time=25
Time=38520 Track=3 note_on channel=0 note=38 velocity=0 time=120
Time=38520 Track=11 note_on channel=9 note=36 velocity=120 time=5
Time=38520 Track=11 note_on channel=9 note=42 velocity=115 time=0
Time=38545 Track=11 note_on channel=9 note=42 velocity=0 time=25
Time=38550 Track=11 note_on channel=9 note=42 velocity=79 time=5
Time=38575 Track=11 note_on channel=9 note=42 velocity=0 time=25
Time=38575 Track=11 note_on channel=9 note=36 velocity=0 time=0
Time=38580 Track=3 note_on channel=0 note=36 velocity=102 time=60
Time=38580 Track=4 note_on channel=1 note=36 velocity=101 time=65
Time=38580 Track=11 note_on channel=9 note=42 velocity=117 time=5
Time=38605 Track=11 note_on channel=9 note=42 velocity=0 time=25
Time=38610 Track=11 note_on channel=9 note=42 velocity=79 time=5
Time=38625 Track=16 note_on channel=15 note=74 velocity=0 time=15
Time=38630 Track=16 note_on channel=15 note=72 velocity=108 time=0
Time=38635 Track=3 note_on channel=0 note=36 velocity=0 time=55
Time=38635 Track=4 note_on channel=1 note=36 velocity=0 time=55
Time=38635 Track=11 note_on channel=9 note=42 velocity=0 time=25
Time=38640 Track=3 note_on channel=0 note=38 velocity=102 time=5
Time=38640 Track=4 note_on channel=1 note=38 velocity=101 time=5
Time=38640 Track=11 note_on channel=9 note=36 velocity=120 time=5
Time=38640 Track=11 note_on channel=9 note=42 velocity=111 time=0
Time=38665 Track=11 note_on channel=9 note=42 velocity=0 time=25
Time=38670 Track=11 note_on channel=9 note=42 velocity=79 time=5
Time=38680 Track=4 note_on channel=1 note=38 velocity=0 time=40
Time=38685 Track=3 note_on channel=0 note=38 velocity=0 time=45
Time=38695 Track=11 note_on channel=9 note=42 velocity=0 time=25
Time=38695 Track=11 note_on channel=9 note=36 velocity=0 time=0
Time=38700 Track=11 note_on channel=9 note=42 velocity=108 time=5
Time=38725 Track=11 note_on channel=9 note=42 velocity=0 time=25
Time=38730 Track=11 note_on channel=9 note=42 velocity=82 time=5
Time=38755 Track=11 note_on channel=9 note=42 velocity=0 time=25
Time=38760 Track=11 note_on channel=9 note=36 velocity=119 time=5
Time=38760 Track=11 note_on channel=9 note=40 velocity=127 time=0
Time=38760 Track=11 note_on channel=9 note=42 velocity=116 time=0
Time=38785 Track=11 note_on channel=9 note=42 velocity=0 time=25
Time=38790 Track=11 note_on channel=9 note=42 velocity=79 time=5
Time=38815 Track=11 note_on channel=9 note=42 velocity=0 time=25
Time=38815 Track=11 note_on channel=9 note=40 velocity=0 time=0
Time=38820 Track=11 note_on channel=9 note=46 velocity=111 time=5
Time=38820 Track=11 note_on channel=9 note=36 velocity=0 time=0
Time=38875 Track=11 note_on channel=9 note=46 velocity=0 time=55
Time=38880 Track=3 note_on channel=0 note=38 velocity=103 time=195
Time=38880 Track=4 note_on channel=1 note=38 velocity=101 time=200
Time=38880 Track=11 note_on channel=9 note=36 velocity=121 time=5
Time=38880 Track=11 note_on channel=9 note=42 velocity=114 time=0
Time=38905 Track=11 note_on channel=9 note=42 velocity=0 time=25
Time=38910 Track=11 note_on channel=9 note=42 velocity=79 time=5
Time=38935 Track=11 note_on channel=9 note=42 velocity=0 time=25
Time=38935 Track=11 note_on channel=9 note=36 velocity=0 time=0
Time=38940 Track=11 note_on channel=9 note=42 velocity=111 time=5
Time=38965 Track=11 note_on channel=9 note=42 velocity=0 time=25
Time=38970 Track=11 note_on channel=9 note=42 velocity=79 time=5
Time=38995 Track=4 note_on channel=1 note=38 velocity=0 time=115
Time=38995 Track=11 note_on channel=9 note=42 velocity=0 time=25
Time=39000 Track=3 note_on channel=0 note=38 velocity=0 time=120
Time=39000 Track=11 note_on channel=9 note=36 velocity=120 time=5
Time=39000 Track=11 note_on channel=9 note=42 velocity=115 time=0
Time=39025 Track=11 note_on channel=9 note=42 velocity=0 time=25
Time=39030 Track=11 note_on channel=9 note=42 velocity=76 time=5
Time=39055 Track=11 note_on channel=9 note=42 velocity=0 time=25
Time=39055 Track=11 note_on channel=9 note=36 velocity=0 time=0
Time=39060 Track=3 note_on channel=0 note=36 velocity=102 time=60
Time=39060 Track=4 note_on channel=1 note=36 velocity=101 time=65
Time=39060 Track=11 note_on channel=9 note=42 velocity=114 time=5
Time=39085 Track=11 note_on channel=9 note=42 velocity=0 time=25
Time=39090 Track=11 note_on channel=9 note=42 velocity=76 time=5
Time=39115 Track=3 note_on channel=0 note=36 velocity=0 time=55
Time=39115 Track=4 note_on channel=1 note=36 velocity=0 time=55
Time=39115 Track=11 note_on channel=9 note=42 velocity=0 time=25
Time=39120 Track=3 note_on channel=0 note=38 velocity=102 time=5
Time=39120 Track=4 note_on channel=1 note=38 velocity=101 time=5
Time=39120 Track=11 note_on channel=9 note=36 velocity=120 time=5
Time=39120 Track=11 note_on channel=9 note=42 velocity=104 time=0
Time=39145 Track=11 note_on channel=9 note=42 velocity=0 time=25
Time=39150 Track=11 note_on channel=9 note=42 velocity=76 time=5
Time=39160 Track=4 note_on channel=1 note=38 velocity=0 time=40
Time=39165 Track=3 note_on channel=0 note=38 velocity=0 time=45
Time=39175 Track=11 note_on channel=9 note=42 velocity=0 time=25
Time=39175 Track=11 note_on channel=9 note=36 velocity=0 time=0
Time=39180 Track=11 note_on channel=9 note=42 velocity=114 time=5
Time=39185 Track=15 note_on channel=14 note=72 velocity=0 time=0
Time=39205 Track=11 note_on channel=9 note=42 velocity=0 time=25
Time=39210 Track=11 note_on channel=9 note=42 velocity=74 time=5
Time=39235 Track=11 note_on channel=9 note=42 velocity=0 time=25
Time=39240 Track=11 note_on channel=9 note=36 velocity=119 time=5
Time=39240 Track=11 note_on channel=9 note=40 velocity=127 time=0
Time=39240 Track=11 note_on channel=9 note=42 velocity=116 time=0
Time=39265 Track=11 note_on channel=9 note=42 velocity=0 time=25
Time=39270 Track=11 note_on channel=9 note=42 velocity=74 time=5
Time=39295 Track=11 note_on channel=9 note=42 velocity=0 time=25
Time=39295 Track=11 note_on channel=9 note=40 velocity=0 time=0
Time=39300 Track=11 note_on channel=9 note=46 velocity=111 time=5
Time=39300 Track=11 note_on channel=9 note=36 velocity=0 time=0
Time=39305 Track=16 note_on channel=15 note=72 velocity=0 time=0
Time=39310 Track=15 note_on channel=14 note=69 velocity=107 time=0
Time=39315 Track=15 note_on channel=14 note=69 velocity=0 time=0
Time=39320 Track=15 note_on channel=14 note=74 velocity=87 time=5
Time=39325 Track=15 note_on channel=14 note=74 velocity=0 time=5
Time=39330 Track=9 note_on channel=7 note=69 velocity=0 time=945
Time=39330 Track=9 note_on channel=7 note=65 velocity=0 time=0
Time=39330 Track=9 note_on channel=7 note=50 velocity=0 time=0
Time=39335 Track=9 note_on channel=7 note=60 velocity=0 time=5
Time=39335 Track=15 note_on channel=14 note=77 velocity=127 time=0
Time=39345 Track=9 note_on channel=7 note=71 velocity=92 time=10
Time=39345 Track=9 note_on channel=7 note=67 velocity=92 time=0
Time=39345 Track=9 note_on channel=7 note=62 velocity=92 time=0
Time=39345 Track=9 note_on channel=7 note=50 velocity=92 time=0
Time=39355 Track=8 note_on channel=6 note=72 velocity=0 time=955
Time=39355 Track=8 note_on channel=6 note=81 velocity=0 time=0
Time=39355 Track=8 note_on channel=6 note=77 velocity=0 time=0
Time=39355 Track=8 note_on channel=6 note=62 velocity=0 time=0
Time=39355 Track=11 note_on channel=9 note=46 velocity=0 time=55
Time=39360 Track=3 note_on channel=0 note=38 velocity=103 time=195
Time=39360 Track=4 note_on channel=1 note=38 velocity=101 time=200
Time=39360 Track=8 note_on channel=6 note=62 velocity=72 time=5
Time=39360 Track=8 note_on channel=6 note=74 velocity=72 time=0
Time=39360 Track=8 note_on channel=6 note=79 velocity=72 time=0
Time=39360 Track=8 note_on channel=6 note=83 velocity=72 time=0
Time=39360 Track=11 note_on channel=9 note=36 velocity=121 time=5
Time=39360 Track=11 note_on channel=9 note=42 velocity=111 time=0
Time=39360 Track=11 note_on channel=9 note=49 velocity=92 time=0
Time=39360 Track=15 note_on channel=14 note=77 velocity=0 time=5
Time=39365 Track=15 note_on channel=14 note=79 velocity=127 time=0
Time=39385 Track=11 note_on channel=9 note=42 velocity=0 time=25
Time=39390 Track=11 note_on channel=9 note=42 velocity=82 time=5
Time=39415 Track=11 note_on channel=9 note=42 velocity=0 time=25
Time=39415 Track=11 note_on channel=9 note=49 velocity=0 time=0
Time=39420 Track=11 note_on channel=9 note=42 velocity=111 time=5
Time=39420 Track=11 note_on channel=9 note=36 velocity=0 time=0
Time=39430 Track=16 note_on channel=15 note=69 velocity=107 time=0
Time=39435 Track=16 note_on channel=15 note=69 velocity=0 time=0
Time=39440 Track=16 note_on channel=15 note=74 velocity=87 time=5
Time=39445 Track=11 note_on channel=9 note=42 velocity=0 time=25
Time=39445 Track=16 note_on channel=15 note=74 velocity=0 time=5
Time=39450 Track=11 note_on channel=9 note=42 velocity=85 time=5
Time=39455 Track=16 note_on channel=15 note=77 velocity=127 time=0
Time=39475 Track=4 note_on channel=1 note=38 velocity=0 time=115
Time=39475 Track=11 note_on channel=9 note=42 velocity=0 time=25
Time=39480 Track=3 note_on channel=0 note=38 velocity=0 time=120
Time=39480 Track=11 note_on channel=9 note=36 velocity=120 time=5
Time=39480 Track=11 note_on channel=9 note=42 velocity=115 time=0
Time=39480 Track=16 note_on channel=15 note=77 velocity=0 time=5
Time=39485 Track=16 note_on channel=15 note=79 velocity=127 time=0
Time=39505 Track=11 note_on channel=9 note=42 velocity=0 time=25
Time=39510 Track=11 note_on channel=9 note=42 velocity=82 time=5
Time=39535 Track=11 note_on channel=9 note=42 velocity=0 time=25
Time=39535 Track=11 note_on channel=9 note=36 velocity=0 time=0
Time=39540 Track=3 note_on channel=0 note=36 velocity=102 time=60
Time=39540 Track=4 note_on channel=1 note=36 velocity=101 time=65
Time=39540 Track=11 note_on channel=9 note=42 velocity=111 time=5
Time=39565 Track=11 note_on channel=9 note=42 velocity=0 time=25
Time=39570 Track=11 note_on channel=9 note=42 velocity=82 time=5
Time=39595 Track=3 note_on channel=0 note=36 velocity=0 time=55
Time=39595 Track=4 note_on channel=1 note=36 velocity=0 time=55
Time=39595 Track=11 note_on channel=9 note=42 velocity=0 time=25
Time=39600 Track=3 note_on channel=0 note=38 velocity=102 time=5
Time=39600 Track=4 note_on channel=1 note=38 velocity=101 time=5
Time=39600 Track=11 note_on channel=9 note=36 velocity=120 time=5
Time=39600 Track=11 note_on channel=9 note=42 velocity=104 time=0
Time=39625 Track=11 note_on channel=9 note=42 velocity=0 time=25
Time=39630 Track=11 note_on channel=9 note=42 velocity=85 time=5
Time=39640 Track=4 note_on channel=1 note=38 velocity=0 time=40
Time=39645 Track=3 note_on channel=0 note=38 velocity=0 time=45
Time=39655 Track=11 note_on channel=9 note=42 velocity=0 time=25
Time=39655 Track=11 note_on channel=9 note=36 velocity=0 time=0
Time=39655 Track=15 note_on channel=14 note=79 velocity=0 time=10
Time=39660 Track=11 note_on channel=9 note=42 velocity=111 time=5
Time=39660 Track=15 note_on channel=14 note=77 velocity=111 time=0
Time=39685 Track=11 note_on channel=9 note=42 velocity=0 time=25
Time=39685 Track=15 note_on channel=14 note=77 velocity=0 time=0
Time=39690 Track=11 note_on channel=9 note=42 velocity=82 time=5
Time=39690 Track=15 note_on channel=14 note=74 velocity=115 time=5
Time=39715 Track=11 note_on channel=9 note=42 velocity=0 time=25
Time=39720 Track=11 note_on channel=9 note=36 velocity=119 time=5
Time=39720 Track=11 note_on channel=9 note=40 velocity=127 time=0
Time=39720 Track=11 note_on channel=9 note=42 velocity=116 time=0
Time=39720 Track=15 note_on channel=14 note=74 velocity=0 time=10
Time=39745 Track=11 note_on channel=9 note=42 velocity=0 time=25
Time=39750 Track=11 note_on channel=9 note=42 velocity=79 time=5
Time=39775 Track=11 note_on channel=9 note=42 velocity=0 time=25
Time=39775 Track=11 note_on channel=9 note=40 velocity=0 time=0
Time=39775 Track=16 note_on channel=15 note=79 velocity=0 time=10
Time=39780 Track=11 note_on channel=9 note=46 velocity=111 time=5
Time=39780 Track=11 note_on channel=9 note=36 velocity=0 time=0
Time=39780 Track=16 note_on channel=15 note=77 velocity=111 time=0
Time=39805 Track=16 note_on channel=15 note=77 velocity=0 time=0
Time=39810 Track=16 note_on channel=15 note=74 velocity=115 time=5
Time=39835 Track=11 note_on channel=9 note=46 velocity=0 time=55
Time=39840 Track=3 note_on channel=0 note=38 velocity=101 time=195
Time=39840 Track=4 note_on channel=1 note=38 velocity=100 time=200
Time=39840 Track=11 note_on channel=9 note=36 velocity=121 time=5
Time=39840 Track=11 note_on channel=9 note=42 velocity=108 time=0
Time=39840 Track=16 note_on channel=15 note=74 velocity=0 time=10
Time=39865 Track=11 note_on channel=9 note=42 velocity=0 time=25
Time=39870 Track=11 note_on channel=9 note=42 velocity=79 time=5
Time=39890 Track=15 note_on channel=14 note=74 velocity=127 time=170
Time=39895 Track=11 note_on channel=9 note=42 velocity=0 time=25
Time=39895 Track=11 note_on channel=9 note=36 velocity=0 time=0
Time=39900 Track=11 note_on channel=9 note=42 velocity=108 time=5
Time=39920 Track=15 note_on channel=14 note=74 velocity=0 time=10
Time=39925 Track=11 note_on channel=9 note=42 velocity=0 time=25
Time=39930 Track=11 note_on channel=9 note=42 velocity=79 time=5
Time=39955 Track=4 note_on channel=1 note=38 velocity=0 time=115
Time=39955 Track=11 note_on channel=9 note=42 velocity=0 time=25
Time=39960 Track=3 note_on channel=0 note=38 velocity=0 time=120
Time=39960 Track=11 note_on channel=9 note=36 velocity=120 time=5
Time=39960 Track=11 note_on channel=9 note=42 velocity=115 time=0
Time=39960 Track=15 note_on channel=14 note=77 velocity=127 time=40
Time=39985 Track=11 note_on channel=9 note=42 velocity=0 time=25
Time=39985 Track=15 note_on channel=14 note=77 velocity=0 time=20
Time=39990 Track=11 note_on channel=9 note=42 velocity=76 time=5
Time=40010 Track=16 note_on channel=15 note=74 velocity=127 time=170
Time=40015 Track=11 note_on channel=9 note=42 velocity=0 time=25
Time=40015 Track=11 note_on channel=9 note=36 velocity=0 time=0
Time=40020 Track=3 note_on channel=0 note=38 velocity=101 time=60
Time=40020 Track=4 note_on channel=1 note=38 velocity=99 time=65
Time=40020 Track=11 note_on channel=9 note=42 velocity=111 time=5
Time=40020 Track=15 note_on channel=14 note=74 velocity=127 time=0
Time=40040 Track=16 note_on channel=15 note=74 velocity=0 time=10
Time=40045 Track=11 note_on channel=9 note=42 velocity=0 time=25
Time=40045 Track=15 note_on channel=14 note=74 velocity=0 time=0
Time=40050 Track=11 note_on channel=9 note=42 velocity=76 time=5
Time=40065 Track=3 note_on channel=0 note=38 velocity=0 time=45
Time=40065 Track=4 note_on channel=1 note=38 velocity=0 time=45
Time=40075 Track=11 note_on channel=9 note=42 velocity=0 time=25
Time=40080 Track=3 note_on channel=0 note=33 velocity=101 time=15
Time=40080 Track=4 note_on channel=1 note=33 velocity=99 time=15
Time=40080 Track=11 note_on channel=9 note=36 velocity=120 time=5
Time=40080 Track=11 note_on channel=9 note=42 velocity=104 time=0
Time=40080 Track=15 note_on channel=14 note=79 velocity=127 time=30
Time=40080 Track=16 note_on channel=15 note=77 velocity=127 time=40
Time=40105 Track=11 note_on channel=9 note=42 velocity=0 time=25
Time=40105 Track=16 note_on channel=15 note=77 velocity=0 time=20
Time=40110 Track=11 note_on channel=9 note=42 velocity=79 time=5
Time=40135 Track=11 note_on channel=9 note=42 velocity=0 time=25
Time=40135 Track=11 note_on channel=9 note=36 velocity=0 time=0
Time=40140 Track=11 note_on channel=9 note=42 velocity=108 time=5
Time=40140 Track=16 note_on channel=15 note=74 velocity=127 time=0
Time=40165 Track=11 note_on channel=9 note=42 velocity=0 time=25
Time=40165 Track=16 note_on channel=15 note=74 velocity=0 time=0
Time=40170 Track=11 note_on channel=9 note=42 velocity=82 time=5
Time=40195 Track=4 note_on channel=1 note=33 velocity=0 time=115
Time=40195 Track=11 note_on channel=9 note=42 velocity=0 time=25
Time=40200 Track=3 note_on channel=0 note=36 velocity=100 time=120
Time=40200 Track=3 note_on channel=0 note=33 velocity=0 time=0
Time=40200 Track=4 note_on channel=1 note=36 velocity=99 time=5
Time=40200 Track=11 note_on channel=9 note=36 velocity=119 time=5
Time=40200 Track=11 note_on channel=9 note=40 velocity=127 time=0
Time=40200 Track=11 note_on channel=9 note=42 velocity=116 time=0
Time=40200 Track=16 note_on channel=15 note=79 velocity=127 time=30
Time=40225 Track=11 note_on channel=9 note=42 velocity=0 time=25
Time=40230 Track=11 note_on channel=9 note=42 velocity=79 time=5
Time=40255 Track=11 note_on channel=9 note=42 velocity=0 time=25
Time=40255 Track=11 note_on channel=9 note=40 velocity=0 time=0
Time=40260 Track=11 note_on channel=9 note=46 velocity=111 time=5
Time=40260 Track=11 note_on channel=9 note=36 velocity=0 time=0
Time=40290 Track=9 note_on channel=7 note=50 velocity=0 time=945
Time=40290 Track=9 note_on channel=7 note=62 velocity=0 time=0
Time=40290 Track=9 note_on channel=7 note=67 velocity=0 time=0
Time=40295 Track=9 note_on channel=7 note=71 velocity=0 time=5
Time=40305 Track=9 note_on channel=7 note=60 velocity=92 time=10
Time=40305 Track=9 note_on channel=7 note=50 velocity=92 time=0
Time=40305 Track=9 note_on channel=7 note=65 velocity=92 time=0
Time=40305 Track=9 note_on channel=7 note=69 velocity=92 time=0
Time=40315 Track=3 note_on channel=0 note=36 velocity=0 time=115
Time=40315 Track=4 note_on channel=1 note=36 velocity=0 time=115
Time=40315 Track=8 note_on channel=6 note=83 velocity=0 time=955
Time=40315 Track=8 note_on channel=6 note=62 velocity=0 time=0
Time=40315 Track=8 note_on channel=6 note=74 velocity=0 time=0
Time=40315 Track=8 note_on channel=6 note=79 velocity=0 time=0
Time=40315 Track=11 note_on channel=9 note=46 velocity=0 time=55
Time=40320 Track=3 note_on channel=0 note=38 velocity=103 time=5
Time=40320 Track=4 note_on channel=1 note=38 velocity=101 time=5
Time=40320 Track=8 note_on channel=6 note=81 velocity=72 time=5
Time=40320 Track=8 note_on channel=6 note=77 velocity=72 time=0
Time=40320 Track=8 note_on channel=6 note=62 velocity=72 time=0
Time=40320 Track=8 note_on channel=6 note=72 velocity=72 time=0
Time=40320 Track=11 note_on channel=9 note=36 velocity=121 time=5
Time=40320 Track=11 note_on channel=9 note=42 velocity=117 time=0
Time=40320 Track=11 note_on channel=9 note=49 velocity=92 time=0
Time=40345 Track=11 note_on channel=9 note=42 velocity=0 time=25
Time=40350 Track=11 note_on channel=9 note=42 velocity=79 time=5
Time=40375 Track=11 note_on channel=9 note=42 velocity=0 time=25
Time=40375 Track=11 note_on channel=9 note=49 velocity=0 time=0
Time=40380 Track=11 note_on channel=9 note=42 velocity=111 time=5
Time=40380 Track=11 note_on channel=9 note=36 velocity=0 time=0
Time=40405 Track=11 note_on channel=9 note=42 velocity=0 time=25
Time=40410 Track=11 note_on channel=9 note=42 velocity=85 time=5
Time=40435 Track=4 note_on channel=1 note=38 velocity=0 time=115
Time=40435 Track=11 note_on channel=9 note=42 velocity=0 time=25
Time=40440 Track=3 note_on channel=0 note=38 velocity=0 time=120
Time=40440 Track=11 note_on channel=9 note=36 velocity=120 time=5
Time=40440 Track=11 note_on channel=9 note=42 velocity=115 time=0
Time=40465 Track=11 note_on channel=9 note=42 velocity=0 time=25
Time=40470 Track=11 note_on channel=9 note=42 velocity=79 time=5
Time=40495 Track=11 note_on channel=9 note=42 velocity=0 time=25
Time=40495 Track=11 note_on channel=9 note=36 velocity=0 time=0
Time=40500 Track=3 note_on channel=0 note=36 velocity=102 time=60
Time=40500 Track=4 note_on channel=1 note=36 velocity=101 time=65
Time=40500 Track=11 note_on channel=9 note=42 velocity=117 time=5
Time=40525 Track=11 note_on channel=9 note=42 velocity=0 time=25
Time=40530 Track=11 note_on channel=9 note=42 velocity=79 time=5
Time=40555 Track=3 note_on channel=0 note=36 velocity=0 time=55
Time=40555 Track=4 note_on channel=1 note=36 velocity=0 time=55
Time=40555 Track=11 note_on channel=9 note=42 velocity=0 time=25
Time=40555 Track=15 note_on channel=14 note=81 velocity=116 time=0
Time=40555 Track=15 note_on channel=14 note=79 velocity=0 time=0
Time=40560 Track=3 note_on channel=0 note=38 velocity=102 time=5
Time=40560 Track=4 note_on channel=1 note=38 velocity=101 time=5
Time=40560 Track=11 note_on channel=9 note=36 velocity=120 time=5
Time=40560 Track=11 note_on channel=9 note=42 velocity=111 time=0
Time=40585 Track=11 note_on channel=9 note=42 velocity=0 time=25
Time=40590 Track=11 note_on channel=9 note=42 velocity=79 time=5
Time=40600 Track=4 note_on channel=1 note=38 velocity=0 time=40
Time=40605 Track=3 note_on channel=0 note=38 velocity=0 time=45
Time=40615 Track=11 note_on channel=9 note=42 velocity=0 time=25
Time=40615 Track=11 note_on channel=9 note=36 velocity=0 time=0
Time=40620 Track=11 note_on channel=9 note=42 velocity=108 time=5
Time=40645 Track=11 note_on channel=9 note=42 velocity=0 time=25
Time=40650 Track=11 note_on channel=9 note=42 velocity=82 time=5
Time=40650 Track=15 note_on channel=14 note=81 velocity=0 time=0
Time=40655 Track=15 note_on channel=14 note=77 velocity=97 time=0
Time=40675 Track=11 note_on channel=9 note=42 velocity=0 time=25
Time=40675 Track=15 note_on channel=14 note=77 velocity=0 time=10
Time=40675 Track=16 note_on channel=15 note=81 velocity=116 time=0
Time=40675 Track=16 note_on channel=15 note=79 velocity=0 time=0
Time=40680 Track=11 note_on channel=9 note=36 velocity=119 time=5
Time=40680 Track=11 note_on channel=9 note=40 velocity=127 time=0
Time=40680 Track=11 note_on channel=9 note=42 velocity=116 time=0
Time=40680 Track=15 note_on channel=14 note=74 velocity=105 time=5
Time=40705 Track=11 note_on channel=9 note=42 velocity=0 time=25
Time=40710 Track=11 note_on channel=9 note=42 velocity=79 time=5
Time=40725 Track=15 note_on channel=14 note=74 velocity=0 time=45
Time=40735 Track=11 note_on channel=9 note=42 velocity=0 time=25
Time=40735 Track=11 note_on channel=9 note=40 velocity=0 time=0
Time=40740 Track=11 note_on channel=9 note=46 velocity=111 time=5
Time=40740 Track=11 note_on channel=9 note=36 velocity=0 time=0
Time=40770 Track=16 note_on channel=15 note=81 velocity=0 time=0
Time=40775 Track=16 note_on channel=15 note=77 velocity=97 time=0
Time=40795 Track=11 note_on channel=9 note=46 velocity=0 time=55
Time=40795 Track=16 note_on channel=15 note=77 velocity=0 time=10
Time=40800 Track=3 note_on channel=0 note=38 velocity=103 time=195
Time=40800 Track=4 note_on channel=1 note=38 velocity=101 time=200
Time=40800 Track=11 note_on channel=9 note=36 velocity=121 time=5
Time=40800 Track=11 note_on channel=9 note=42 velocity=114 time=0
Time=40800 Track=16 note_on channel=15 note=74 velocity=105 time=5
Time=40825 Track=11 note_on channel=9 note=42 velocity=0 time=25
Time=40830 Track=11 note_on channel=9 note=42 velocity=79 time=5
Time=40845 Track=16 note_on channel=15 note=74 velocity=0 time=45
Time=40855 Track=11 note_on channel=9 note=42 velocity=0 time=25
Time=40855 Track=11 note_on channel=9 note=36 velocity=0 time=0
Time=40860 Track=11 note_on channel=9 note=42 velocity=111 time=5
Time=40885 Track=11 note_on channel=9 note=42 velocity=0 time=25
Time=40890 Track=11 note_on channel=9 note=42 velocity=79 time=5
Time=40915 Track=4 note_on channel=1 note=38 velocity=0 time=115
Time=40915 Track=11 note_on channel=9 note=42 velocity=0 time=25
Time=40920 Track=3 note_on channel=0 note=38 velocity=0 time=120
Time=40920 Track=11 note_on channel=9 note=36 velocity=120 time=5
Time=40920 Track=11 note_on channel=9 note=42 velocity=115 time=0
Time=40920 Track=15 note_on channel=14 note=82 velocity=119 time=0
Time=40945 Track=11 note_on channel=9 note=42 velocity=0 time=25
Time=40950 Track=11 note_on channel=9 note=42 velocity=76 time=5
Time=40975 Track=11 note_on channel=9 note=42 velocity=0 time=25
Time=40975 Track=11 note_on channel=9 note=36 velocity=0 time=0
Time=40980 Track=3 note_on channel=0 note=36 velocity=102 time=60
Time=40980 Track=4 note_on channel=1 note=36 velocity=101 time=65
Time=40980 Track=11 note_on channel=9 note=42 velocity=114 time=5
Time=41005 Track=11 note_on channel=9 note=42 velocity=0 time=25
Time=41010 Track=11 note_on channel=9 note=42 velocity=76 time=5
Time=41035 Track=3 note_on channel=0 note=36 velocity=0 time=55
Time=41035 Track=4 note_on channel=1 note=36 velocity=0 time=55
Time=41035 Track=11 note_on channel=9 note=42 velocity=0 time=25
Time=41040 Track=3 note_on channel=0 note=38 velocity=102 time=5
Time=41040 Track=4 note_on channel=1 note=38 velocity=101 time=5
Time=41040 Track=11 note_on channel=9 note=36 velocity=120 time=5
Time=41040 Track=11 note_on channel=9 note=42 velocity=104 time=0
Time=41040 Track=16 note_on channel=15 note=82 velocity=119 time=0
Time=41045 Track=15 note_on channel=14 note=84 velocity=116 time=0
Time=41045 Track=15 note_on channel=14 note=82 velocity=0 time=0
Time=41065 Track=11 note_on channel=9 note=42 velocity=0 time=25
Time=41070 Track=11 note_on channel=9 note=42 velocity=76 time=5
Time=41080 Track=4 note_on channel=1 note=38 velocity=0 time=40
Time=41085 Track=3 note_on channel=0 note=38 velocity=0 time=45
Time=41095 Track=11 note_on channel=9 note=42 velocity=0 time=25
Time=41095 Track=11 note_on channel=9 note=36 velocity=0 time=0
Time=41100 Track=11 note_on channel=9 note=42 velocity=114 time=5
Time=41125 Track=11 note_on channel=9 note=42 velocity=0 time=25
Time=41130 Track=11 note_on channel=9 note=42 velocity=74 time=5
Time=41130 Track=15 note_on channel=14 note=84 velocity=0 time=5
Time=41155 Track=11 note_on channel=9 note=42 velocity=0 time=25
Time=41160 Track=11 note_on channel=9 note=36 velocity=119 time=5
Time=41160 Track=11 note_on channel=9 note=40 velocity=127 time=0
Time=41160 Track=11 note_on channel=9 note=42 velocity=116 time=0
Time=41165 Track=16 note_on channel=15 note=84 velocity=116 time=0
Time=41165 Track=16 note_on channel=15 note=82 velocity=0 time=0
Time=41185 Track=11 note_on channel=9 note=42 velocity=0 time=25
Time=41190 Track=11 note_on channel=9 note=42 velocity=74 time=5
Time=41215 Track=11 note_on channel=9 note=42 velocity=0 time=25
Time=41215 Track=11 note_on channel=9 note=40 velocity=0 time=0
Time=41215 Track=11 note_on channel=9 note=36 velocity=0 time=0
Time=41220 Track=11 note_on channel=9 note=46 velocity=111 time=5
Time=41220 Track=15 note_on channel=14 note=84 velocity=127 time=0
Time=41250 Track=9 note_on channel=7 note=69 velocity=0 time=945
Time=41250 Track=9 note_on channel=7 note=60 velocity=0 time=0
Time=41250 Track=9 note_on channel=7 note=50 velocity=0 time=0
Time=41250 Track=9 note_on channel=7 note=65 velocity=0 time=0
Time=41255 Track=16 note_on channel=15 note=84 velocity=0 time=10
Time=41265 Track=9 note_on channel=7 note=72 velocity=92 time=15
Time=41265 Track=9 note_on channel=7 note=64 velocity=92 time=0
Time=41265 Track=9 note_on channel=7 note=67 velocity=92 time=0
Time=41265 Track=9 note_on channel=7 note=50 velocity=92 time=0
Time=41275 Track=8 note_on channel=6 note=72 velocity=0 time=955
Time=41275 Track=8 note_on channel=6 note=81 velocity=0 time=0
Time=41275 Track=8 note_on channel=6 note=77 velocity=0 time=0
Time=41275 Track=8 note_on channel=6 note=62 velocity=0 time=0
Time=41275 Track=11 note_on channel=9 note=46 velocity=0 time=55
Time=41280 Track=3 note_on channel=0 note=38 velocity=103 time=195
Time=41280 Track=4 note_on channel=1 note=38 velocity=101 time=200
Time=41280 Track=8 note_on channel=6 note=62 velocity=72 time=5
Time=41280 Track=8 note_on channel=6 note=79 velocity=72 time=0
Time=41280 Track=8 note_on channel=6 note=76 velocity=72 time=0
Time=41280 Track=8 note_on channel=6 note=84 velocity=72 time=0
Time=41280 Track=11 note_on channel=9 note=36 velocity=121 time=5
Time=41280 Track=11 note_on channel=9 note=42 velocity=111 time=0
Time=41280 Track=11 note_on channel=9 note=49 velocity=92 time=0
Time=41305 Track=11 note_on channel=9 note=42 velocity=0 time=25
Time=41310 Track=11 note_on channel=9 note=42 velocity=82 time=5
Time=41335 Track=11 note_on channel=9 note=42 velocity=0 time=25
Time=41335 Track=11 note_on channel=9 note=49 velocity=0 time=0
Time=41340 Track=11 note_on channel=9 note=42 velocity=111 time=5
Time=41340 Track=11 note_on channel=9 note=36 velocity=0 time=0
Time=41340 Track=16 note_on channel=15 note=84 velocity=127 time=0
Time=41365 Track=11 note_on channel=9 note=42 velocity=0 time=25
Time=41370 Track=11 note_on channel=9 note=42 velocity=85 time=5
Time=41395 Track=4 note_on channel=1 note=38 velocity=0 time=115
Time=41395 Track=11 note_on channel=9 note=42 velocity=0 time=25
Time=41400 Track=3 note_on channel=0 note=38 velocity=0 time=120
Time=41400 Track=11 note_on channel=9 note=36 velocity=120 time=5
Time=41400 Track=11 note_on channel=9 note=42 velocity=115 time=0
Time=41425 Track=11 note_on channel=9 note=42 velocity=0 time=25
Time=41430 Track=11 note_on channel=9 note=42 velocity=82 time=5
Time=41455 Track=11 note_on channel=9 note=42 velocity=0 time=25
Time=41455 Track=11 note_on channel=9 note=36 velocity=0 time=0
Time=41460 Track=3 note_on channel=0 note=36 velocity=102 time=60
Time=41460 Track=4 note_on channel=1 note=36 velocity=101 time=65
Time=41460 Track=11 note_on channel=9 note=42 velocity=111 time=5
Time=41485 Track=11 note_on channel=9 note=42 velocity=0 time=25
Time=41490 Track=11 note_on channel=9 note=42 velocity=82 time=5
Time=41515 Track=3 note_on channel=0 note=36 velocity=0 time=55
Time=41515 Track=4 note_on channel=1 note=36 velocity=0 time=55
Time=41515 Track=11 note_on channel=9 note=42 velocity=0 time=25
Time=41520 Track=3 note_on channel=0 note=38 velocity=102 time=5
Time=41520 Track=4 note_on channel=1 note=38 velocity=101 time=5
Time=41520 Track=11 note_on channel=9 note=36 velocity=120 time=5
Time=41520 Track=11 note_on channel=9 note=42 velocity=104 time=0
Time=41545 Track=11 note_on channel=9 note=42 velocity=0 time=25
Time=41550 Track=11 note_on channel=9 note=42 velocity=85 time=5
Time=41560 Track=4 note_on channel=1 note=38 velocity=0 time=40
Time=41565 Track=3 note_on channel=0 note=38 velocity=0 time=45
Time=41570 Track=15 note_on channel=14 note=84 velocity=0 time=15
Time=41575 Track=11 note_on channel=9 note=42 velocity=0 time=25
Time=41575 Track=11 note_on channel=9 note=36 velocity=0 time=0
Time=41575 Track=15 note_on channel=14 note=84 velocity=127 time=0
Time=41580 Track=11 note_on channel=9 note=42 velocity=111 time=5
Time=41605 Track=11 note_on channel=9 note=42 velocity=0 time=25
Time=41610 Track=11 note_on channel=9 note=42 velocity=82 time=5
Time=41635 Track=11 note_on channel=9 note=42 velocity=0 time=25
Time=41635 Track=15 note_on channel=14 note=84 velocity=0 time=25
Time=41640 Track=11 note_on channel=9 note=36 velocity=119 time=5
Time=41640 Track=11 note_on channel=9 note=40 velocity=127 time=0
Time=41640 Track=11 note_on channel=9 note=42 velocity=116 time=0
Time=41665 Track=11 note_on channel=9 note=42 velocity=0 time=25
Time=41670 Track=11 note_on channel=9 note=42 velocity=79 time=5
Time=41690 Track=16 note_on channel=15 note=84 velocity=0 time=15
Time=41695 Track=11 note_on channel=9 note=42 velocity=0 time=25
Time=41695 Track=11 note_on channel=9 note=40 velocity=0 time=0
Time=41695 Track=16 note_on channel=15 note=84 velocity=127 time=0
Time=41700 Track=11 note_on channel=9 note=46 velocity=111 time=5
Time=41700 Track=11 note_on channel=9 note=36 velocity=0 time=0
Time=41755 Track=11 note_on channel=9 note=46 velocity=0 time=55
Time=41755 Track=15 note_on channel=14 note=84 velocity=127 time=120
Time=41755 Track=16 note_on channel=15 note=84 velocity=0 time=25
Time=41760 Track=3 note_on channel=0 note=38 velocity=101 time=195
Time=41760 Track=4 note_on channel=1 note=38 velocity=100 time=200
Time=41760 Track=11 note_on channel=9 note=36 velocity=121 time=5
Time=41760 Track=11 note_on channel=9 note=42 velocity=108 time=0
Time=41785 Track=11 note_on channel=9 note=42 velocity=0 time=25
Time=41790 Track=11 note_on channel=9 note=42 velocity=79 time=5
Time=41815 Track=11 note_on channel=9 note=42 velocity=0 time=25
Time=41815 Track=11 note_on channel=9 note=36 velocity=0 time=0
Time=41820 Track=11 note_on channel=9 note=42 velocity=108 time=5
Time=41835 Track=15 note_on channel=14 note=84 velocity=0 time=5
Time=41845 Track=11 note_on channel=9 note=42 velocity=0 time=25
Time=41845 Track=15 note_on channel=14 note=81 velocity=113 time=10
Time=41850 Track=11 note_on channel=9 note=42 velocity=79 time=5
Time=41875 Track=4 note_on channel=1 note=38 velocity=0 time=115
Time=41875 Track=11 note_on channel=9 note=42 velocity=0 time=25
Time=41875 Track=16 note_on channel=15 note=84 velocity=127 time=120
Time=41880 Track=3 note_on channel=0 note=38 velocity=0 time=120
Time=41880 Track=11 note_on channel=9 note=36 velocity=120 time=5
Time=41880 Track=11 note_on channel=9 note=42 velocity=115 time=0
Time=41905 Track=11 note_on channel=9 note=42 velocity=0 time=25
Time=41905 Track=15 note_on channel=14 note=81 velocity=0 time=15
Time=41910 Track=11 note_on channel=9 note=42 velocity=76 time=5
Time=41935 Track=11 note_on channel=9 note=42 velocity=0 time=25
Time=41935 Track=11 note_on channel=9 note=36 velocity=0 time=0
Time=41940 Track=3 note_on channel=0 note=38 velocity=101 time=60
Time=41940 Track=4 note_on channel=1 note=38 velocity=99 time=65
Time=41940 Track=11 note_on channel=9 note=42 velocity=111 time=5
Time=41955 Track=16 note_on channel=15 note=84 velocity=0 time=5
Time=41965 Track=11 note_on channel=9 note=42 velocity=0 time=25
Time=41965 Track=16 note_on channel=15 note=81 velocity=113 time=10
Time=41970 Track=11 note_on channel=9 note=42 velocity=76 time=5
Time=41985 Track=3 note_on channel=0 note=38 velocity=0 time=45
Time=41985 Track=4 note_on channel=1 note=38 velocity=0 time=45
Time=41995 Track=11 note_on channel=9 note=42 velocity=0 time=25
Time=42000 Track=3 note_on channel=0 note=33 velocity=101 time=15
Time=42000 Track=4 note_on channel=1 note=33 velocity=99 time=15
Time=42000 Track=11 note_on channel=9 note=36 velocity=120 time=5
Time=42000 Track=11 note_on channel=9 note=42 velocity=104 time=0
Time=42025 Track=11 note_on channel=9 note=42 velocity=0 time=25
Time=42025 Track=16 note_on channel=15 note=81 velocity=0 time=15
Time=42030 Track=11 note_on channel=9 note=42 velocity=79 time=5
Time=42055 Track=11 note_on channel=9 note=42 velocity=0 time=25
Time=42055 Track=11 note_on channel=9 note=36 velocity=0 time=0
Time=42060 Track=11 note_on channel=9 note=42 velocity=108 time=5
Time=42060 Track=15 note_on channel=14 note=65 velocity=127 time=0
Time=42060 Track=15 note_on channel=14 note=69 velocity=112 time=0
Time=42085 Track=11 note_on channel=9 note=42 velocity=0 time=25
Time=42090 Track=11 note_on channel=9 note=42 velocity=82 time=5
Time=42105 Track=15 note_on channel=14 note=69 velocity=0 time=5
Time=42110 Track=15 note_on channel=14 note=65 velocity=0 time=5
Time=42115 Track=4 note_on channel=1 note=33 velocity=0 time=115
Time=42115 Track=11 note_on channel=9 note=42 velocity=0 time=25
Time=42120 Track=3 note_on channel=0 note=36 velocity=100 time=120
Time=42120 Track=3 note_on channel=0 note=33 velocity=0 time=0
Time=42120 Track=4 note_on channel=1 note=36 velocity=99 time=5
Time=42120 Track=11 note_on channel=9 note=36 velocity=119 time=5
Time=42120 Track=11 note_on channel=9 note=40 velocity=127 time=0
Time=42120 Track=11 note_on channel=9 note=42 velocity=116 time=0
Time=42125 Track=15 note_on channel=14 note=66 velocity=100 time=0
Time=42130 Track=15 note_on channel=14 note=66 velocity=0 time=0
Time=42145 Track=11 note_on channel=9 note=42 velocity=0 time=25
Time=42150 Track=11 note_on channel=9 note=42 velocity=79 time=5
Time=42150 Track=15 note_on channel=14 note=69 velocity=127 time=0
Time=42155 Track=15 note_on channel=14 note=65 velocity=122 time=0
Time=42175 Track=11 note_on channel=9 note=42 velocity=0 time=25
Time=42175 Track=11 note_on channel=9 note=40 velocity=0 time=0
Time=42180 Track=11 note_on channel=9 note=46 velocity=111 time=5
Time=42180 Track=11 note_on channel=9 note=36 velocity=0 time=0
Time=42180 Track=15 note_on channel=14 note=65 velocity=0 time=10
Time=42180 Track=15 note_on channel=14 note=69 velocity=0 time=0
Time=42180 Track=16 note_on channel=15 note=65 velocity=127 time=0
Time=42180 Track=16 note_on channel=15 note=69 velocity=112 time=0
Time=42190 Track=15 note_on channel=14 note=66 velocity=100 time=0
Time=42191 Track=15 note_on channel=14 note=66 velocity=0 time=1
Time=42210 Track=9 note_on channel=7 note=50 velocity=0 time=945
Time=42210 Track=9 note_on channel=7 note=67 velocity=0 time=0
Time=42210 Track=9 note_on channel=7 note=64 velocity=0 time=0
Time=42210 Track=15 note_on channel=14 note=67 velocity=100 time=0
Time=42215 Track=9 note_on channel=7 note=72 velocity=0 time=5
Time=42225 Track=9 note_on channel=7 note=70 velocity=92 time=10
Time=42225 Track=9 note_on channel=7 note=65 velocity=92 time=0
Time=42225 Track=9 note_on channel=7 note=62 velocity=92 time=0
Time=42225 Track=9 note_on channel=7 note=50 velocity=92 time=0
Time=42225 Track=15 note_on channel=14 note=67 velocity=0 time=5
Time=42225 Track=16 note_on channel=15 note=69 velocity=0 time=5
Time=42230 Track=16 note_on channel=15 note=65 velocity=0 time=5
Time=42235 Track=3 note_on channel=0 note=36 velocity=0 time=115
Time=42235 Track=4 note_on channel=1 note=36 velocity=0 time=115
Time=42235 Track=8 note_on channel=6 note=84 velocity=0 time=955
Time=42235 Track=8 note_on channel=6 note=62 velocity=0 time=0
Time=42235 Track=8 note_on channel=6 note=79 velocity=0 time=0
Time=42235 Track=8 note_on channel=6 note=76 velocity=0 time=0
Time=42235 Track=11 note_on channel=9 note=46 velocity=0 time=55
Time=42240 Track=3 note_on channel=0 note=38 velocity=103 time=5
Time=42240 Track=4 note_on channel=1 note=38 velocity=101 time=5
Time=42240 Track=8 note_on channel=6 note=62 velocity=72 time=5
Time=42240 Track=8 note_on channel=6 note=74 velocity=72 time=0
Time=42240 Track=8 note_on channel=6 note=77 velocity=72 time=0
Time=42240 Track=8 note_on channel=6 note=82 velocity=72 time=0
Time=42240 Track=11 note_on channel=9 note=36 velocity=121 time=5
Time=42240 Track=11 note_on channel=9 note=42 velocity=117 time=0
Time=42240 Track=11 note_on channel=9 note=49 velocity=92 time=0
Time=42240 Track=15 note_on channel=14 note=69 velocity=126 time=0
Time=42240 Track=15 note_on channel=14 note=65 velocity=127 time=0
Time=42245 Track=16 note_on channel=15 note=66 velocity=100 time=0
Time=42250 Track=16 note_on channel=15 note=66 velocity=0 time=0
Time=42265 Track=11 note_on channel=9 note=42 velocity=0 time=25
Time=42270 Track=11 note_on channel=9 note=42 velocity=79 time=5
Time=42270 Track=16 note_on channel=15 note=69 velocity=127 time=0
Time=42275 Track=16 note_on channel=15 note=65 velocity=122 time=0
Time=42295 Track=11 note_on channel=9 note=42 velocity=0 time=25
Time=42295 Track=11 note_on channel=9 note=49 velocity=0 time=0
Time=42300 Track=11 note_on channel=9 note=42 velocity=111 time=5
Time=42300 Track=11 note_on channel=9 note=36 velocity=0 time=0
Time=42300 Track=16 note_on channel=15 note=65 velocity=0 time=10
Time=42300 Track=16 note_on channel=15 note=69 velocity=0 time=0
Time=42310 Track=16 note_on channel=15 note=66 velocity=100 time=0
Time=42311 Track=16 note_on channel=15 note=66 velocity=0 time=1
Time=42325 Track=11 note_on channel=9 note=42 velocity=0 time=25
Time=42330 Track=11 note_on channel=9 note=42 velocity=85 time=5
Time=42330 Track=16 note_on channel=15 note=67 velocity=100 time=0
Time=42345 Track=16 note_on channel=15 note=67 velocity=0 time=5
Time=42350 Track=15 note_on channel=14 note=69 velocity=0 time=0
Time=42355 Track=4 note_on channel=1 note=38 velocity=0 time=115
Time=42355 Track=11 note_on channel=9 note=42 velocity=0 time=25
Time=42360 Track=3 note_on channel=0 note=38 velocity=0 time=120
Time=42360 Track=11 note_on channel=9 note=36 velocity=120 time=5
Time=42360 Track=11 note_on channel=9 note=42 velocity=115 time=0
Time=42360 Track=15 note_on channel=14 note=62 velocity=113 time=0
Time=42360 Track=15 note_on channel=14 note=65 velocity=0 time=0
Time=42360 Track=16 note_on channel=15 note=69 velocity=126 time=0
Time=42360 Track=16 note_on channel=15 note=65 velocity=127 time=0
Time=42385 Track=11 note_on channel=9 note=42 velocity=0 time=25
Time=42390 Track=11 note_on channel=9 note=42 velocity=79 time=5
Time=42415 Track=11 note_on channel=9 note=42 velocity=0 time=25
Time=42415 Track=11 note_on channel=9 note=36 velocity=0 time=0
Time=42420 Track=3 note_on channel=0 note=36 velocity=102 time=60
Time=42420 Track=4 note_on channel=1 note=36 velocity=101 time=65
Time=42420 Track=11 note_on channel=9 note=42 velocity=117 time=5
Time=42445 Track=11 note_on channel=9 note=42 velocity=0 time=25
Time=42450 Track=11 note_on channel=9 note=42 velocity=79 time=5
Time=42470 Track=16 note_on channel=15 note=69 velocity=0 time=0
Time=42475 Track=3 note_on channel=0 note=36 velocity=0 time=55
Time=42475 Track=4 note_on channel=1 note=36 velocity=0 time=55
Time=42475 Track=11 note_on channel=9 note=42 velocity=0 time=25
Time=42480 Track=3 note_on channel=0 note=38 velocity=102 time=5
Time=42480 Track=4 note_on channel=1 note=38 velocity=101 time=5
Time=42480 Track=11 note_on channel=9 note=36 velocity=120 time=5
Time=42480 Track=11 note_on channel=9 note=42 velocity=111 time=0
Time=42480 Track=16 note_on channel=15 note=62 velocity=113 time=0
Time=42480 Track=16 note_on channel=15 note=65 velocity=0 time=0
Time=42505 Track=11 note_on channel=9 note=42 velocity=0 time=25
Time=42510 Track=11 note_on channel=9 note=42 velocity=79 time=5
Time=42520 Track=4 note_on channel=1 note=38 velocity=0 time=40
Time=42525 Track=3 note_on channel=0 note=38 velocity=0 time=45
Time=42535 Track=11 note_on channel=9 note=42 velocity=0 time=25
Time=42535 Track=11 note_on channel=9 note=36 velocity=0 time=0
Time=42540 Track=11 note_on channel=9 note=42 velocity=108 time=5
Time=42565 Track=11 note_on channel=9 note=42 velocity=0 time=25
Time=42570 Track=11 note_on channel=9 note=42 velocity=82 time=5
Time=42595 Track=11 note_on channel=9 note=42 velocity=0 time=25
Time=42600 Track=11 note_on channel=9 note=36 velocity=119 time=5
Time=42600 Track=11 note_on channel=9 note=40 velocity=127 time=0
Time=42600 Track=11 note_on channel=9 note=42 velocity=116 time=0
Time=42600 Track=15 note_on channel=14 note=62 velocity=0 time=10
Time=42625 Track=11 note_on channel=9 note=42 velocity=0 time=25
Time=42630 Track=11 note_on channel=9 note=42 velocity=79 time=5
Time=42655 Track=11 note_on channel=9 note=42 velocity=0 time=25
Time=42655 Track=11 note_on channel=9 note=40 velocity=0 time=0
Time=42655 Track=15 note_on channel=14 note=61 velocity=101 time=0
Time=42660 Track=11 note_on channel=9 note=46 velocity=111 time=5
Time=42660 Track=11 note_on channel=9 note=36 velocity=0 time=0
Time=42660 Track=15 note_on channel=14 note=61 velocity=0 time=5
Time=42690 Track=15 note_on channel=14 note=61 velocity=99 time=0
Time=42695 Track=15 note_on channel=14 note=61 velocity=0 time=5
Time=42715 Track=11 note_on channel=9 note=46 velocity=0 time=55
Time=42720 Track=3 note_on channel=0 note=38 velocity=103 time=195
Time=42720 Track=4 note_on channel=1 note=38 velocity=101 time=200
Time=42720 Track=11 note_on channel=9 note=36 velocity=121 time=5
Time=42720 Track=11 note_on channel=9 note=42 velocity=114 time=0
Time=42720 Track=15 note_on channel=14 note=61 velocity=127 time=0
Time=42720 Track=16 note_on channel=15 note=62 velocity=0 time=10
Time=42745 Track=11 note_on channel=9 note=42 velocity=0 time=25
Time=42750 Track=11 note_on channel=9 note=42 velocity=79 time=5
Time=42775 Track=11 note_on channel=9 note=42 velocity=0 time=25
Time=42775 Track=11 note_on channel=9 note=36 velocity=0 time=0
Time=42775 Track=16 note_on channel=15 note=61 velocity=101 time=0
Time=42780 Track=11 note_on channel=9 note=42 velocity=111 time=5
Time=42780 Track=15 note_on channel=14 note=72 velocity=127 time=0
Time=42780 Track=16 note_on channel=15 note=61 velocity=0 time=5
Time=42785 Track=15 note_on channel=14 note=67 velocity=95 time=0
Time=42790 Track=15 note_on channel=14 note=61 velocity=0 time=0
Time=42805 Track=11 note_on channel=9 note=42 velocity=0 time=25
Time=42810 Track=11 note_on channel=9 note=42 velocity=79 time=5
Time=42810 Track=16 note_on channel=15 note=61 velocity=99 time=0
Time=42815 Track=15 note_on channel=14 note=67 velocity=0 time=0
Time=42815 Track=16 note_on channel=15 note=61 velocity=0 time=5
Time=42825 Track=15 note_on channel=14 note=72 velocity=0 time=10
Time=42835 Track=4 note_on channel=1 note=38 velocity=0 time=115
Time=42835 Track=11 note_on channel=9 note=42 velocity=0 time=25
Time=42840 Track=3 note_on channel=0 note=38 velocity=0 time=120
Time=42840 Track=11 note_on channel=9 note=36 velocity=120 time=5
Time=42840 Track=11 note_on channel=9 note=42 velocity=115 time=0
Time=42840 Track=16 note_on channel=15 note=61 velocity=127 time=0
Time=42865 Track=11 note_on channel=9 note=42 velocity=0 time=25
Time=42870 Track=11 note_on channel=9 note=42 velocity=76 time=5
Time=42870 Track=15 note_on channel=14 note=67 velocity=121 time=45
Time=42870 Track=15 note_on channel=14 note=71 velocity=86 time=0
Time=42895 Track=11 note_on channel=9 note=42 velocity=0 time=25
Time=42895 Track=11 note_on channel=9 note=36 velocity=0 time=0
Time=42900 Track=3 note_on channel=0 note=36 velocity=102 time=60
Time=42900 Track=4 note_on channel=1 note=36 velocity=101 time=65
Time=42900 Track=11 note_on channel=9 note=42 velocity=114 time=5
Time=42900 Track=16 note_on channel=15 note=72 velocity=127 time=0
Time=42905 Track=15 note_on channel=14 note=67 velocity=0 time=0
Time=42905 Track=16 note_on channel=15 note=67 velocity=95 time=0
Time=42910 Track=15 note_on channel=14 note=71 velocity=0 time=5
Time=42910 Track=16 note_on channel=15 note=61 velocity=0 time=0
Time=42925 Track=11 note_on channel=9 note=42 velocity=0 time=25
Time=42930 Track=11 note_on channel=9 note=42 velocity=76 time=5
Time=42935 Track=16 note_on channel=15 note=67 velocity=0 time=0
Time=42945 Track=16 note_on channel=15 note=72 velocity=0 time=10
Time=42950 Track=15 note_on channel=14 note=67 velocity=127 time=40
Time=42950 Track=15 note_on channel=14 note=71 velocity=86 time=0
Time=42955 Track=3 note_on channel=0 note=36 velocity=0 time=55
Time=42955 Track=4 note_on channel=1 note=36 velocity=0 time=55
Time=42955 Track=11 note_on channel=9 note=42 velocity=0 time=25
Time=42960 Track=3 note_on channel=0 note=38 velocity=102 time=5
Time=42960 Track=4 note_on channel=1 note=38 velocity=101 time=5
Time=42960 Track=11 note_on channel=9 note=36 velocity=120 time=5
Time=42960 Track=11 note_on channel=9 note=42 velocity=104 time=0
Time=42985 Track=11 note_on channel=9 note=42 velocity=0 time=25
Time=42990 Track=11 note_on channel=9 note=42 velocity=76 time=5
Time=42990 Track=15 note_on channel=14 note=71 velocity=0 time=20
Time=42990 Track=15 note_on channel=14 note=67 velocity=0 time=0
Time=42990 Track=16 note_on channel=15 note=67 velocity=121 time=45
Time=42990 Track=16 note_on channel=15 note=71 velocity=86 time=0
Time=43000 Track=4 note_on channel=1 note=38 velocity=0 time=40
Time=43005 Track=3 note_on channel=0 note=38 velocity=0 time=45
Time=43015 Track=11 note_on channel=9 note=42 velocity=0 time=25
Time=43015 Track=11 note_on channel=9 note=36 velocity=0 time=0
Time=43020 Track=11 note_on channel=9 note=42 velocity=114 time=5
Time=43025 Track=16 note_on channel=15 note=67 velocity=0 time=0
Time=43030 Track=16 note_on channel=15 note=71 velocity=0 time=5
Time=43045 Track=11 note_on channel=9 note=42 velocity=0 time=25
Time=43045 Track=15 note_on channel=14 note=67 velocity=127 time=0
Time=43045 Track=15 note_on channel=14 note=71 velocity=74 time=0
Time=43050 Track=11 note_on channel=9 note=42 velocity=74 time=5
Time=43070 Track=16 note_on channel=15 note=67 velocity=127 time=40
Time=43070 Track=16 note_on channel=15 note=71 velocity=86 time=0
Time=43075 Track=11 note_on channel=9 note=42 velocity=0 time=25
Time=43080 Track=11 note_on channel=9 note=36 velocity=119 time=5
Time=43080 Track=11 note_on channel=9 note=40 velocity=127 time=0
Time=43080 Track=11 note_on channel=9 note=42 velocity=116 time=0
Time=43105 Track=11 note_on channel=9 note=42 velocity=0 time=25
Time=43110 Track=11 note_on channel=9 note=42 velocity=74 time=5
Time=43110 Track=16 note_on channel=15 note=71 velocity=0 time=20
Time=43110 Track=16 note_on channel=15 note=67 velocity=0 time=0
Time=43135 Track=11 note_on channel=9 note=42 velocity=0 time=25
Time=43135 Track=11 note_on channel=9 note=40 velocity=0 time=0
Time=43140 Track=11 note_on channel=9 note=46 velocity=111 time=5
Time=43140 Track=11 note_on channel=9 note=36 velocity=0 time=0
Time=43165 Track=16 note_on channel=15 note=67 velocity=127 time=0
Time=43165 Track=16 note_on channel=15 note=71 velocity=74 time=0
Time=43170 Track=9 note_on channel=7 note=50 velocity=0 time=945
Time=43170 Track=9 note_on channel=7 note=62 velocity=0 time=0
Time=43170 Track=9 note_on channel=7 note=65 velocity=0 time=0
Time=43175 Track=9 note_on channel=7 note=70 velocity=0 time=5
Time=43185 Track=9 note_on channel=7 note=72 velocity=92 time=10
Time=43185 Track=9 note_on channel=7 note=64 velocity=92 time=0
Time=43185 Track=9 note_on channel=7 note=67 velocity=92 time=0
Time=43185 Track=9 note_on channel=7 note=50 velocity=92 time=0
Time=43195 Track=8 note_on channel=6 note=82 velocity=0 time=955
Time=43195 Track=8 note_on channel=6 note=62 velocity=0 time=0
Time=43195 Track=8 note_on channel=6 note=74 velocity=0 time=0
Time=43195 Track=8 note_on channel=6 note=77 velocity=0 time=0
Time=43195 Track=11 note_on channel=9 note=46 velocity=0 time=55
Time=43200 Track=3 note_on channel=0 note=38 velocity=103 time=195
Time=43200 Track=4 note_on channel=1 note=38 velocity=101 time=200
Time=43200 Track=8 note_on channel=6 note=62 velocity=72 time=5
Time=43200 Track=8 note_on channel=6 note=79 velocity=72 time=0
Time=43200 Track=8 note_on channel=6 note=76 velocity=72 time=0
Time=43200 Track=8 note_on channel=6 note=84 velocity=72 time=0
Time=43200 Track=11 note_on channel=9 note=36 velocity=121 time=5
Time=43200 Track=11 note_on channel=9 note=42 velocity=111 time=0
Time=43200 Track=11 note_on channel=9 note=49 velocity=92 time=0
Time=43225 Track=11 note_on channel=9 note=42 velocity=0 time=25
Time=43230 Track=11 note_on channel=9 note=42 velocity=82 time=5
Time=43255 Track=11 note_on channel=9 note=42 velocity=0 time=25
Time=43255 Track=11 note_on channel=9 note=49 velocity=0 time=0
Time=43260 Track=11 note_on channel=9 note=42 velocity=111 time=5
Time=43260 Track=11 note_on channel=9 note=36 velocity=0 time=0
Time=43285 Track=11 note_on channel=9 note=42 velocity=0 time=25
Time=43290 Track=11 note_on channel=9 note=42 velocity=85 time=5
Time=43310 Track=15 note_on channel=14 note=71 velocity=0 time=0
Time=43315 Track=3 note_on channel=0 note=38 velocity=0 time=115
Time=43315 Track=4 note_on channel=1 note=38 velocity=0 time=115
Time=43315 Track=11 note_on channel=9 note=42 velocity=0 time=25
Time=43320 Track=11 note_on channel=9 note=36 velocity=120 time=5
Time=43320 Track=11 note_on channel=9 note=42 velocity=115 time=0
Time=43345 Track=11 note_on channel=9 note=42 velocity=0 time=25
Time=43350 Track=11 note_on channel=9 note=42 velocity=82 time=5
Time=43375 Track=11 note_on channel=9 note=42 velocity=0 time=25
Time=43375 Track=11 note_on channel=9 note=36 velocity=0 time=0
Time=43380 Track=3 note_on channel=0 note=36 velocity=102 time=65
Time=43380 Track=4 note_on channel=1 note=36 velocity=101 time=65
Time=43380 Track=11 note_on channel=9 note=42 velocity=111 time=5
Time=43405 Track=11 note_on channel=9 note=42 velocity=0 time=25
Time=43405 Track=15 note_on channel=14 note=67 velocity=0 time=0
Time=43410 Track=11 note_on channel=9 note=42 velocity=82 time=5
Time=43430 Track=16 note_on channel=15 note=71 velocity=0 time=0
Time=43435 Track=3 note_on channel=0 note=36 velocity=0 time=55
Time=43435 Track=4 note_on channel=1 note=36 velocity=0 time=55
Time=43435 Track=11 note_on channel=9 note=42 velocity=0 time=25
Time=43440 Track=3 note_on channel=0 note=38 velocity=102 time=5
Time=43440 Track=4 note_on channel=1 note=38 velocity=101 time=5
Time=43440 Track=11 note_on channel=9 note=36 velocity=120 time=5
Time=43440 Track=11 note_on channel=9 note=42 velocity=104 time=0
Time=43465 Track=11 note_on channel=9 note=42 velocity=0 time=25
Time=43470 Track=11 note_on channel=9 note=42 velocity=85 time=5
Time=43480 Track=4 note_on channel=1 note=38 velocity=0 time=40
Time=43485 Track=3 note_on channel=0 note=38 velocity=0 time=45
Time=43495 Track=11 note_on channel=9 note=42 velocity=0 time=25
Time=43495 Track=11 note_on channel=9 note=36 velocity=0 time=0
Time=43495 Track=15 note_on channel=14 note=62 velocity=97 time=0
Time=43500 Track=11 note_on channel=9 note=42 velocity=111 time=5
Time=43500 Track=15 note_on channel=14 note=62 velocity=0 time=0
Time=43525 Track=11 note_on channel=9 note=42 velocity=0 time=25
Time=43525 Track=16 note_on channel=15 note=67 velocity=0 time=0
Time=43530 Track=11 note_on channel=9 note=42 velocity=82 time=5
Time=43530 Track=15 note_on channel=14 note=62 velocity=93 time=5
Time=43535 Track=15 note_on channel=14 note=62 velocity=0 time=5
Time=43555 Track=11 note_on channel=9 note=42 velocity=0 time=25
Time=43560 Track=11 note_on channel=9 note=36 velocity=119 time=5
Time=43560 Track=11 note_on channel=9 note=40 velocity=127 time=0
Time=43560 Track=11 note_on channel=9 note=42 velocity=116 time=0
Time=43560 Track=15 note_on channel=14 note=71 velocity=127 time=5
Time=43560 Track=15 note_on channel=14 note=67 velocity=127 time=0
Time=43585 Track=11 note_on channel=9 note=42 velocity=0 time=25
Time=43590 Track=11 note_on channel=9 note=42 velocity=79 time=5
Time=43615 Track=11 note_on channel=9 note=42 velocity=0 time=25
Time=43615 Track=11 note_on channel=9 note=40 velocity=0 time=0
Time=43615 Track=11 note_on channel=9 note=36 velocity=0 time=0
Time=43615 Track=15 note_on channel=14 note=67 velocity=0 time=20
Time=43615 Track=16 note_on channel=15 note=62 velocity=97 time=0
Time=43620 Track=11 note_on channel=9 note=46 velocity=111 time=5
Time=43620 Track=15 note_on channel=14 note=62 velocity=121 time=5
Time=43620 Track=16 note_on channel=15 note=62 velocity=0 time=0
Time=43625 Track=15 note_on channel=14 note=71 velocity=0 time=0
Time=43645 Track=15 note_on channel=14 note=62 velocity=0 time=10
Time=43650 Track=15 note_on channel=14 note=60 velocity=107 time=5
Time=43650 Track=16 note_on channel=15 note=62 velocity=93 time=5
Time=43655 Track=16 note_on channel=15 note=62 velocity=0 time=5
Time=43675 Track=11 note_on channel=9 note=46 velocity=0 time=55
Time=43675 Track=15 note_on channel=14 note=62 velocity=127 time=25
Time=43675 Track=15 note_on channel=14 note=60 velocity=0 time=0
Time=43680 Track=3 note_on channel=0 note=38 velocity=101 time=195
Time=43680 Track=4 note_on channel=1 note=38 velocity=100 time=200
Time=43680 Track=11 note_on channel=9 note=36 velocity=121 time=5
Time=43680 Track=11 note_on channel=9 note=42 velocity=108 time=0
Time=43680 Track=16 note_on channel=15 note=71 velocity=127 time=5
Time=43680 Track=16 note_on channel=15 note=67 velocity=127 time=0
Time=43705 Track=11 note_on channel=9 note=42 velocity=0 time=25
Time=43710 Track=11 note_on channel=9 note=42 velocity=79 time=5
Time=43735 Track=11 note_on channel=9 note=42 velocity=0 time=25
Time=43735 Track=11 note_on channel=9 note=36 velocity=0 time=0
Time=43735 Track=16 note_on channel=15 note=67 velocity=0 time=20
Time=43740 Track=11 note_on channel=9 note=42 velocity=108 time=5
Time=43740 Track=16 note_on channel=15 note=62 velocity=121 time=5
Time=43745 Track=16 note_on channel=15 note=71 velocity=0 time=0
Time=43750 Track=15 note_on channel=14 note=62 velocity=0 time=30
Time=43765 Track=11 note_on channel=9 note=42 velocity=0 time=25
Time=43770 Track=11 note_on channel=9 note=42 velocity=79 time=5
Time=43770 Track=16 note_on channel=15 note=60 velocity=107 time=15
Time=43770 Track=16 note_on channel=15 note=62 velocity=0 time=0
Time=43795 Track=4 note_on channel=1 note=38 velocity=0 time=115
Time=43795 Track=11 note_on channel=9 note=42 velocity=0 time=25
Time=43795 Track=15 note_on channel=14 note=69 velocity=126 time=0
Time=43795 Track=15 note_on channel=14 note=65 velocity=127 time=0
Time=43795 Track=16 note_on channel=15 note=62 velocity=127 time=25
Time=43795 Track=16 note_on channel=15 note=60 velocity=0 time=0
Time=43800 Track=3 note_on channel=0 note=38 velocity=0 time=120
Time=43800 Track=11 note_on channel=9 note=36 velocity=120 time=5
Time=43800 Track=11 note_on channel=9 note=42 velocity=115 time=0
Time=43825 Track=11 note_on channel=9 note=42 velocity=0 time=25
Time=43830 Track=11 note_on channel=9 note=42 velocity=76 time=5
Time=43840 Track=15 note_on channel=14 note=69 velocity=0 time=5
Time=43845 Track=15 note_on channel=14 note=65 velocity=0 time=5
Time=43855 Track=11 note_on channel=9 note=42 velocity=0 time=25
Time=43855 Track=11 note_on channel=9 note=36 velocity=0 time=0
Time=43860 Track=3 note_on channel=0 note=38 velocity=101 time=60
Time=43860 Track=4 note_on channel=1 note=38 velocity=99 time=65
Time=43860 Track=11 note_on channel=9 note=42 velocity=111 time=5
Time=43870 Track=16 note_on channel=15 note=62 velocity=0 time=30
Time=43885 Track=11 note_on channel=9 note=42 velocity=0 time=25
Time=43890 Track=11 note_on channel=9 note=42 velocity=76 time=5
Time=43905 Track=3 note_on channel=0 note=38 velocity=0 time=45
Time=43905 Track=4 note_on channel=1 note=38 velocity=0 time=45
Time=43915 Track=11 note_on channel=9 note=42 velocity=0 time=25
Time=43915 Track=16 note_on channel=15 note=69 velocity=126 time=0
Time=43915 Track=16 note_on channel=15 note=65 velocity=127 time=0
Time=43920 Track=3 note_on channel=0 note=33 velocity=101 time=15
Time=43920 Track=4 note_on channel=1 note=33 velocity=99 time=15
Time=43920 Track=11 note_on channel=9 note=36 velocity=120 time=5
Time=43920 Track=11 note_on channel=9 note=42 velocity=104 time=0
Time=43945 Track=11 note_on channel=9 note=42 velocity=0 time=25
Time=43950 Track=11 note_on channel=9 note=42 velocity=79 time=5
Time=43960 Track=16 note_on channel=15 note=69 velocity=0 time=5
Time=43965 Track=16 note_on channel=15 note=65 velocity=0 time=5
Time=43975 Track=11 note_on channel=9 note=42 velocity=0 time=25
Time=43975 Track=11 note_on channel=9 note=36 velocity=0 time=0
Time=43975 Track=15 note_on channel=14 note=67 velocity=127 time=0
Time=43980 Track=11 note_on channel=9 note=42 velocity=108 time=5
Time=44005 Track=11 note_on channel=9 note=42 velocity=0 time=25
Time=44005 Track=15 note_on channel=14 note=67 velocity=0 time=5
Time=44010 Track=11 note_on channel=9 note=42 velocity=82 time=5
Time=44035 Track=4 note_on channel=1 note=33 velocity=0 time=115
Time=44035 Track=11 note_on channel=9 note=42 velocity=0 time=25
Time=44035 Track=15 note_on channel=14 note=68 velocity=113 time=0
Time=44040 Track=3 note_on channel=0 note=36 velocity=100 time=120
Time=44040 Track=3 note_on channel=0 note=33 velocity=0 time=0
Time=44040 Track=4 note_on channel=1 note=36 velocity=99 time=5
Time=44040 Track=11 note_on channel=9 note=36 velocity=119 time=5
Time=44040 Track=11 note_on channel=9 note=40 velocity=127 time=0
Time=44040 Track=11 note_on channel=9 note=42 velocity=116 time=0
Time=44065 Track=11 note_on channel=9 note=42 velocity=0 time=25
Time=44070 Track=11 note_on channel=9 note=42 velocity=79 time=5
Time=44090 Track=15 note_on channel=14 note=68 velocity=0 time=0
Time=44095 Track=11 note_on channel=9 note=42 velocity=0 time=25
Time=44095 Track=11 note_on channel=9 note=40 velocity=0 time=0
Time=44095 Track=15 note_on channel=14 note=62 velocity=107 time=0
Time=44095 Track=16 note_on channel=15 note=67 velocity=127 time=0
Time=44100 Track=11 note_on channel=9 note=46 velocity=111 time=5
Time=44100 Track=11 note_on channel=9 note=36 velocity=0 time=0
Time=44125 Track=16 note_on channel=15 note=67 velocity=0 time=5
Time=44130 Track=9 note_on channel=7 note=50 velocity=0 time=945
Time=44130 Track=9 note_on channel=7 note=67 velocity=0 time=0
Time=44130 Track=9 note_on channel=7 note=64 velocity=0 time=0
Time=44135 Track=9 note_on channel=7 note=72 velocity=0 time=5
Time=44140 Track=15 note_on channel=14 note=62 velocity=0 time=25
Time=44145 Track=9 note_on channel=7 note=50 velocity=92 time=10
Time=44145 Track=9 note_on channel=7 note=62 velocity=92 time=0
Time=44145 Track=9 note_on channel=7 note=65 velocity=92 time=0
Time=44145 Track=9 note_on channel=7 note=69 velocity=92 time=0
Time=44155 Track=3 note_on channel=0 note=36 velocity=0 time=115
Time=44155 Track=4 note_on channel=1 note=36 velocity=0 time=115
Time=44155 Track=8 note_on channel=6 note=84 velocity=0 time=955
Time=44155 Track=8 note_on channel=6 note=62 velocity=0 time=0
Time=44155 Track=8 note_on channel=6 note=79 velocity=0 time=0
Time=44155 Track=8 note_on channel=6 note=76 velocity=0 time=0
Time=44155 Track=11 note_on channel=9 note=46 velocity=0 time=55
Time=44155 Track=16 note_on channel=15 note=68 velocity=113 time=0
Time=44160 Track=3 note_on channel=0 note=38 velocity=103 time=5
Time=44160 Track=4 note_on channel=1 note=38 velocity=101 time=5
Time=44160 Track=8 note_on channel=6 note=81 velocity=72 time=5
Time=44160 Track=8 note_on channel=6 note=77 velocity=72 time=0
Time=44160 Track=8 note_on channel=6 note=74 velocity=72 time=0
Time=44160 Track=8 note_on channel=6 note=62 velocity=72 time=0
Time=44160 Track=11 note_on channel=9 note=36 velocity=121 time=5
Time=44160 Track=11 note_on channel=9 note=42 velocity=112 time=0
Time=44160 Track=11 note_on channel=9 note=49 velocity=92 time=0
Time=44160 Track=15 note_on channel=14 note=65 velocity=113 time=20
Time=44185 Track=15 note_on channel=14 note=65 velocity=0 time=0
Time=44190 Track=15 note_on channel=14 note=62 velocity=104 time=5
Time=44195 Track=11 note_on channel=9 note=42 velocity=0 time=35
Time=44210 Track=16 note_on channel=15 note=68 velocity=0 time=0
Time=44215 Track=11 note_on channel=9 note=49 velocity=0 time=20
Time=44215 Track=11 note_on channel=9 note=36 velocity=0 time=0
Time=44215 Track=16 note_on channel=15 note=62 velocity=107 time=0
Time=44220 Track=11 note_on channel=9 note=42 velocity=83 time=5
Time=44260 Track=16 note_on channel=15 note=62 velocity=0 time=25
Time=44265 Track=11 note_on channel=9 note=42 velocity=0 time=45
Time=44280 Track=11 note_on channel=9 note=36 velocity=120 time=15
Time=44280 Track=11 note_on channel=9 note=40 velocity=127 time=0
Time=44280 Track=11 note_on channel=9 note=42 velocity=125 time=0
Time=44280 Track=16 note_on channel=15 note=65 velocity=113 time=20
Time=44305 Track=16 note_on channel=15 note=65 velocity=0 time=0
Time=44310 Track=16 note_on channel=15 note=62 velocity=104 time=5
Time=44330 Track=11 note_on channel=9 note=42 velocity=0 time=50
Time=44335 Track=11 note_on channel=9 note=40 velocity=0 time=5
Time=44335 Track=11 note_on channel=9 note=36 velocity=0 time=0
Time=44340 Track=11 note_on channel=9 note=42 velocity=93 time=5
Time=44385 Track=11 note_on channel=9 note=42 velocity=0 time=45
Time=44400 Track=11 note_on channel=9 note=36 velocity=120 time=15
Time=44400 Track=11 note_on channel=9 note=42 velocity=114 time=0
Time=44445 Track=11 note_on channel=9 note=42 velocity=0 time=45
Time=44455 Track=11 note_on channel=9 note=36 velocity=0 time=10
Time=44460 Track=11 note_on channel=9 note=42 velocity=94 time=5
Time=44505 Track=11 note_on channel=9 note=42 velocity=0 time=45
Time=44520 Track=11 note_on channel=9 note=36 velocity=119 time=15
Time=44520 Track=11 note_on channel=9 note=40 velocity=127 time=0
Time=44520 Track=11 note_on channel=9 note=42 velocity=126 time=0
Time=44555 Track=15 note_on channel=14 note=62 velocity=0 time=0
Time=44560 Track=11 note_on channel=9 note=42 velocity=0 time=40
Time=44575 Track=11 note_on channel=9 note=40 velocity=0 time=15
Time=44575 Track=11 note_on channel=9 note=36 velocity=0 time=0
Time=44580 Track=11 note_on channel=9 note=46 velocity=121 time=5
Time=44625 Track=11 note_on channel=9 note=46 velocity=0 time=45
Time=44640 Track=11 note_on channel=9 note=36 velocity=121 time=15
Time=44640 Track=11 note_on channel=9 note=40 velocity=127 time=0
Time=44640 Track=11 note_on channel=9 note=42 velocity=112 time=0
Time=44640 Track=15 note_on channel=14 note=67 velocity=127 time=0
Time=44650 Track=11 note_on channel=9 note=40 velocity=0 time=10
Time=44670 Track=11 note_on channel=9 note=40 velocity=127 time=20
Time=44675 Track=11 note_on channel=9 note=42 velocity=0 time=5
Time=44675 Track=16 note_on channel=15 note=62 velocity=0 time=0
Time=44680 Track=11 note_on channel=9 note=40 velocity=0 time=5
Time=44690 Track=15 note_on channel=14 note=67 velocity=0 time=0
Time=44695 Track=11 note_on channel=9 note=36 velocity=0 time=15
Time=44695 Track=15 note_on channel=14 note=69 velocity=127 time=0
Time=44700 Track=11 note_on channel=9 note=42 velocity=83 time=5
Time=44720 Track=15 note_on channel=14 note=74 velocity=127 time=0
Time=44720 Track=15 note_on channel=14 note=69 velocity=0 time=0
Time=44745 Track=11 note_on channel=9 note=42 velocity=0 time=45
Time=44745 Track=15 note_on channel=14 note=74 velocity=0 time=5
Time=44755 Track=15 note_on channel=14 note=72 velocity=127 time=0
Time=44760 Track=11 note_on channel=9 note=36 velocity=120 time=15
Time=44760 Track=11 note_on channel=9 note=40 velocity=127 time=0
Time=44760 Track=11 note_on channel=9 note=42 velocity=125 time=0
Time=44760 Track=16 note_on channel=15 note=67 velocity=127 time=0
Time=44770 Track=11 note_on channel=9 note=40 velocity=0 time=10
Time=44790 Track=11 note_on channel=9 note=40 velocity=127 time=20
Time=44805 Track=15 note_on channel=14 note=72 velocity=0 time=5
Time=44810 Track=11 note_on channel=9 note=42 velocity=0 time=20
Time=44810 Track=16 note_on channel=15 note=67 velocity=0 time=0
Time=44815 Track=11 note_on channel=9 note=36 velocity=0 time=5
Time=44815 Track=15 note_on channel=14 note=67 velocity=127 time=0
Time=44815 Track=16 note_on channel=15 note=69 velocity=127 time=0
Time=44820 Track=11 note_on channel=9 note=42 velocity=93 time=5
Time=44840 Track=16 note_on channel=15 note=74 velocity=127 time=0
Time=44840 Track=16 note_on channel=15 note=69 velocity=0 time=0
Time=44845 Track=11 note_on channel=9 note=40 velocity=0 time=25
Time=44850 Track=11 note_on channel=9 note=40 velocity=127 time=5
Time=44860 Track=11 note_on channel=9 note=40 velocity=0 time=10
Time=44865 Track=11 note_on channel=9 note=42 velocity=0 time=5
Time=44865 Track=16 note_on channel=15 note=74 velocity=0 time=5
Time=44870 Track=15 note_on channel=14 note=67 velocity=0 time=0
Time=44875 Track=15 note_on channel=14 note=67 velocity=127 time=0
Time=44875 Track=16 note_on channel=15 note=72 velocity=127 time=0
Time=44880 Track=11 note_on channel=9 note=36 velocity=120 time=15
Time=44880 Track=11 note_on channel=9 note=42 velocity=114 time=0
Time=44880 Track=11 note_on channel=9 note=47 velocity=127 time=0
Time=44905 Track=11 note_on channel=9 note=47 velocity=0 time=25
Time=44910 Track=11 note_on channel=9 note=45 velocity=127 time=5
Time=44925 Track=11 note_on channel=9 note=42 velocity=0 time=15
Time=44925 Track=16 note_on channel=15 note=72 velocity=0 time=5
Time=44930 Track=15 note_on channel=14 note=67 velocity=0 time=0
Time=44935 Track=11 note_on channel=9 note=45 velocity=0 time=10
Time=44935 Track=11 note_on channel=9 note=36 velocity=0 time=0
Time=44935 Track=15 note_on channel=14 note=62 velocity=127 time=0
Time=44935 Track=16 note_on channel=15 note=67 velocity=127 time=0
Time=44940 Track=11 note_on channel=9 note=42 velocity=94 time=5
Time=44940 Track=11 note_on channel=9 note=43 velocity=127 time=0
Time=44965 Track=11 note_on channel=9 note=43 velocity=0 time=25
Time=44985 Track=11 note_on channel=9 note=42 velocity=0 time=20
Time=44990 Track=16 note_on channel=15 note=67 velocity=0 time=0
Time=44995 Track=15 note_on channel=14 note=62 velocity=0 time=5
Time=44995 Track=16 note_on channel=15 note=67 velocity=127 time=0
Time=45000 Track=11 note_on channel=9 note=36 velocity=119 time=15
Time=45000 Track=11 note_on channel=9 note=40 velocity=124 time=0
Time=45000 Track=11 note_on channel=9 note=42 velocity=126 time=0
Time=45000 Track=15 note_on channel=14 note=62 velocity=127 time=0
Time=45010 Track=11 note_on channel=9 note=40 velocity=0 time=10
Time=45030 Track=11 note_on channel=9 note=40 velocity=127 time=20
Time=45040 Track=11 note_on channel=9 note=42 velocity=0 time=10
Time=45050 Track=15 note_on channel=14 note=62 velocity=0 time=0
Time=45050 Track=16 note_on channel=15 note=67 velocity=0 time=0
Time=45055 Track=11 note_on channel=9 note=40 velocity=0 time=15
Time=45055 Track=11 note_on channel=9 note=36 velocity=0 time=0
Time=45055 Track=16 note_on channel=15 note=62 velocity=127 time=0
Time=45060 Track=11 note_on channel=9 note=40 velocity=127 time=5
Time=45060 Track=11 note_on channel=9 note=42 velocity=121 time=0
Time=45060 Track=15 note_on channel=14 note=57 velocity=127 time=0
Time=45080 Track=4 note_on channel=1 note=38 velocity=0 time=920
Time=45085 Track=3 note_on channel=0 note=38 velocity=0 time=925
Time=45085 Track=11 note_on channel=9 note=40 velocity=0 time=25
Time=45085 Track=15 note_on channel=14 note=57 velocity=0 time=20
Time=45090 Track=11 note_on channel=9 note=40 velocity=127 time=5
Time=45090 Track=15 note_on channel=14 note=65 velocity=127 time=5
Time=45105 Track=11 note_on channel=9 note=42 velocity=0 time=15
Time=45115 Track=11 note_on channel=9 note=40 velocity=0 time=10
Time=45115 Track=15 note_on channel=14 note=48 velocity=49 time=25
Time=45115 Track=16 note_on channel=15 note=62 velocity=0 time=5
Time=45116 Track=15 note_on channel=14 note=48 velocity=0 time=1
Time=45120 Track=3 note_on channel=0 note=38 velocity=103 time=35
Time=45120 Track=4 note_on channel=1 note=38 velocity=101 time=40
Time=45120 Track=11 note_on channel=9 note=36 velocity=121 time=5
Time=45120 Track=11 note_on channel=9 note=49 velocity=92 time=0
Time=45120 Track=15 note_on channel=14 note=62 velocity=127 time=4
Time=45120 Track=15 note_on channel=14 note=65 velocity=0 time=0
Time=45120 Track=16 note_on channel=15 note=62 velocity=127 time=0
Time=45150 Track=9 note_on channel=7 note=69 velocity=0 time=1005
Time=45150 Track=9 note_on channel=7 note=65 velocity=0 time=0
Time=45150 Track=9 note_on channel=7 note=62 velocity=0 time=0
Time=45155 Track=9 note_on channel=7 note=50 velocity=0 time=5
Time=45160 Track=15 note_on channel=14 note=62 velocity=0 time=40
Time=45170 Track=16 note_on channel=15 note=62 velocity=0 time=0
Time=45175 Track=4 note_on channel=1 note=38 velocity=0 time=55
Time=45175 Track=8 note_on channel=6 note=62 velocity=0 time=1015
Time=45175 Track=8 note_on channel=6 note=81 velocity=0 time=0
Time=45175 Track=8 note_on channel=6 note=77 velocity=0 time=0
Time=45175 Track=8 note_on channel=6 note=74 velocity=0 time=0
Time=45175 Track=11 note_on channel=9 note=49 velocity=0 time=55
Time=45180 Track=3 note_on channel=0 note=38 velocity=0 time=60
Time=45180 Track=16 note_on channel=15 note=57 velocity=127 time=0
Time=45205 Track=16 note_on channel=15 note=57 velocity=0 time=20
Time=45210 Track=16 note_on channel=15 note=65 velocity=127 time=5
Time=45235 Track=16 note_on channel=15 note=48 velocity=49 time=25
Time=45236 Track=16 note_on channel=15 note=48 velocity=0 time=1
Time=45240 Track=11 note_on channel=9 note=36 velocity=0 time=65
Time=45240 Track=16 note_on channel=15 note=62 velocity=127 time=4
Time=45240 Track=16 note_on channel=15 note=65 velocity=0 time=0
Time=45280 Track=16 note_on channel=15 note=62 velocity=0 time=40
Time=47440 Track=5 note_on channel=2 note=50 velocity=0 time=18640
Time=47440 Track=5 note_on channel=2 note=72 velocity=0 time=0
Time=47440 Track=5 note_on channel=2 note=57 velocity=0 time=0
Time=47440 Track=5 note_on channel=2 note=62 velocity=0 time=0
